<svg id="Layer_1" data-name="Layer 1" xmlns="http://www.w3.org/2000/svg" xmlns:xlink="http://www.w3.org/1999/xlink" viewBox="0 0 300.02 613.8"><defs><style>.cls-1{fill:#58482e;}.cls-1,.cls-10,.cls-2,.cls-3,.cls-4,.cls-5,.cls-6,.cls-7,.cls-8,.cls-9{stroke:#000;stroke-miterlimit:10;}.cls-1,.cls-10,.cls-2,.cls-3,.cls-4,.cls-5,.cls-6,.cls-7,.cls-9{fill-rule:evenodd;}.cls-2{fill:#2f2719;}.cls-3,.cls-7,.cls-8{fill:#daac64;}.cls-4{fill:url(#linear-gradient);}.cls-5{fill:url(#linear-gradient-2);}.cls-6{fill:url(#linear-gradient-3);}.cls-7{stroke-width:2px;}.cls-10{fill:#d8d2ce;stroke-width:0.25px;}</style><linearGradient id="linear-gradient" x1="149.98" y1="463.19" x2="149.98" y2="543.99" gradientTransform="matrix(1, 0, 0, -1, 0, 616)" gradientUnits="userSpaceOnUse"><stop offset="0" stop-color="#dbaa37"/><stop offset="1" stop-color="#8e754e"/></linearGradient><linearGradient id="linear-gradient-2" x1="150" y1="330.58" x2="150" y2="410.07" gradientTransform="matrix(1, 0, 0, -1, 0, 616)" gradientUnits="userSpaceOnUse"><stop offset="0" stop-color="#433a2e"/><stop offset="1" stop-color="#8e754e"/></linearGradient><linearGradient id="linear-gradient-3" x1="150" y1="382.74" x2="150" y2="459.23" xlink:href="#linear-gradient-2"/></defs><path id="Color_Fill_3" data-name="Color Fill 3" class="cls-1" d="M150,430c-2,1-5,1.33-7,0-3.26-2.12-2.29-7.5-3-15-.4-4.28-1.89-6.71-2-11-.16-5.95.53-13.34-2-15-1.42-.93-.31-3-2-4-2.24-1.3-2.63-6.66-1-11,1.06-2.82,2.69-4.46,2-6-.57-1.29-2.47-1.86-5-2-1.35-3.85-1.48-6.93,0-9,.89-1.25,2.06-1.51,3-3,1.22-1.93,1.82-3.27,0-5-1.69,3.36-2.56-3.2-4-3q1-6.5,2-13a7.88,7.88,0,0,1-6-5,8,8,0,0,1,3-9,13.19,13.19,0,0,1-2-3c-1.53-3.18-2.45-8.39,0-11,.36-.38,2-1.27,2-2s-1.29-1.45-3-2c-.86-4.29-.82-7.74,1-9,.61-.43,1.92-.55,2-1s-1.41-1.34-3-2a22.32,22.32,0,0,1,0-13c3.85-11.75,18-20.12,26-17l11-.66L175,277a22.32,22.32,0,0,1,0,13c-1.59.66-3.1,1.43-3,2s1.39.57,2,1c1.82,1.26,1.86,4.71,1,9-1.71.55-3,1.22-3,2s1.65,1.62,2,2c2.45,2.61,1.53,7.82,0,11a13.19,13.19,0,0,1-2,3,8,8,0,0,1,3,9,7.88,7.88,0,0,1-6,5q1,6.5,2,13c-1.44-.2-1,3-2,4-1.82,1.73-3.22,2.07-2,4,.94,1.49,2.11,1.75,3,3,1.48,2.07,1.35,5.15,0,9-2.53.14-4.43.71-5,2-.69,1.54.94,3.18,2,6,1.63,4.34,1.24,9.7-1,11-1.69,1-1.58,3.07-3,4-2.53,1.66-.84,9.05-1,15-.11,4.29-1.6,6.72-2,11-.71,7.5.26,12.88-3,15-2,1.33-5,1-7,0m-9-97M151.78,54.72c1.18,1.81,2.52,4.86,2.52,11.52L129,72a9.94,9.94,0,0,1-3-5c-1.39-4.55.23-8.93,0-9s-2.23,5.73-3,8l2,10a75.25,75.25,0,0,0-5,9c-2.47,5.24-3.49,9.79-3,11,3.33,8.22,24.52,6,31,5,13.68-2.16,26.89-8.39,27-14a15.84,15.84,0,0,0-1-5,17.17,17.17,0,0,0-3.3-5.56,15.79,15.79,0,0,0-3.65-5.34c-.92-.87-1.56-1.24-3.56-2.8-1.73-1.34-3.1-2.5-4-3.27l-4.67-7.61Z" transform="translate(0.51 0.51)"/><path id="Color_Fill_4" data-name="Color Fill 4" class="cls-2" d="M132,271c-8-1.46-13.49-2.93-16-6-7.7-9.41,2.66-27.93-1-45-1-4.86-2.85-8.16-4-13-4.44-18.69-2.15-31.15,2-36,6.49-7.59,16.07-5.43,23-11,11.63-9.35,12-30.76,6-58a40,40,0,0,1,17,13c11.72,16.07,3.5,43.33,16,51,3.29,2,6.43,1,10,4,4.31,3.62,6.43,9.37,7,17,1.37,18.46-8.29,25.85-8,42,.12,6.66,6.09,18.43,2,28-2.94,6.87-9.56,11.85-17,15C159.35,276.08,148.62,274,132,271Z" transform="translate(0.51 0.51)"/><path id="Color_Fill_2" data-name="Color Fill 2" class="cls-3" d="M116,125c-1.4-2.63-9.52-.9-13,0a45.06,45.06,0,0,0-15,7,80.06,80.06,0,0,0-18,18,20.12,20.12,0,0,1-5-7c-1.41-3.34-1.65-7.27-1-13,.45-4,1.58-7.18,1-10-.64-3.14-4.77-9.24-12-15a13.09,13.09,0,0,1-4-5c-1.19-2.87-.68-6-1-6s-1.45,4.49-2,7c-3.9-.51-8.74-1-9,0s7.33,4.43,11,7a52.28,52.28,0,0,1,9,8c.31,9,1,17.87,2,27,.55,4.89,1.42,11,6,14,3.53,2.33,13.29,1.22,27-6,14.91-7.86,23.3-21.85,24-24A2.57,2.57,0,0,0,116,125Zm63.27,4.2c.7,2.15,9.08,16.14,24,24,13.7,7.22,23.47,8.33,27,6,4.57-3,5.45-9.11,6-14,1-9.13.65-14.89,1-23.87,2.69-3,6.74-8.81,10-11.13,3.66-2.57,11.28-6,11-7s-5.1-.51-9,0c-.55-2.51-1.59-7.06-2-7s.18,3.13-1,6a13.09,13.09,0,0,1-4,5c-7.23,5.76-11.36,11.86-12,15-.58,2.82.55,6,1,10,.65,5.73.41,9.66-1,13a20,20,0,0,1-5,7,80.47,80.47,0,0,0-18-18,45.15,45.15,0,0,0-15-7c-3.48-.9-11.6-2.63-13,0A2.49,2.49,0,0,0,179.27,129.2ZM188,174a98.59,98.59,0,0,1,23,9c4.57,2.49,10.21,6.84,15,10,7.34,4.85,12.44,8,15,13,1.82,3.58,2.82,7.88,5,8a2.78,2.78,0,0,0,2-1c2.63-2.65,12-20.16,22-25,7-3.39,12.17.23,21-3,3-1.11,6.83-3.28,7-3s-3.09,2.66-5,4c2.42,1.72,6.28,4.53,6,5s-5-2.22-10-3a30.71,30.71,0,0,0-16,2l-24,32-5,1-41-24q-1-6-2-12a12,12,0,0,1-5-1C191.38,184,188.69,179.09,188,174Zm-3,67c2.64-1.8,9.45,2.05,17,10a18.85,18.85,0,0,1,9,2c5.5,2.84,9,8.49,12,20a138.49,138.49,0,0,1,4,31l51,6,14,18c2.66,1.64,7.25,4.52,7,5s-3.81-1.07-6-2c-.12,3.1-.38,8-1,8s-1.54-6.25-2-10l-11-11-46,2a26.71,26.71,0,0,0-13-7c-1.41-.27-3.89-.19-6-1-6.9-2.65-9.91-12-12-24a220.46,220.46,0,0,1-3-29,10.54,10.54,0,0,1-8,1C183.33,257.44,181.46,243.41,185,241ZM169,79a4,4,0,0,0,6,5c11.28-18.48,50.67-82.94,49-84S180.93,61.12,169,79Zm-47,6C109,71.33,57.22,16.88,56,18s48.49,56.93,61,71a3.93,3.93,0,0,0,4-1A3.84,3.84,0,0,0,122,85Zm18,10c-2-2-3-1-5-3l-18,3c-1.25,4.29-1.18,8.64,1,12,2.79,4.3,7.93,5.33,13,6,16,2.11,28.6.12,34-3,5.16-3,8-6.67,9-9a18.63,18.63,0,0,0,0-14l-10-1c-2.67,3-5.33,4-8,7Zm15,190a5,5,0,0,1,0-6c1.83-2.14,5.14-1.27,6-1,3.1,1,5.53,4.31,6,9h-6A5.48,5.48,0,0,1,155,285Zm-1,9c2.41-2.77,9.91,0,10,0l5,5a43.53,43.53,0,0,1-6,2c-4.15,1.06-7,.86-8,0C153,299.32,152.54,295.68,154,294Zm-10,16c2.55,1.75,2.57,7.42,0,9-.86.53-3,.49-6-1-1.72-.86-5.37-3-5-5,.18-1,2.22-2.11,6-3C141.48,309.42,143.32,309.54,144,310Zm1,18c1.85,2.78,1.5,5.83,0,7-1.86,1.45-5.11-.42-6-1-2.25-1.45-3-2.78-3-4,.08-2.37,3.27-4.54,6-4A5,5,0,0,1,145,328Zm-1,15c1.21.94,1.82,3.06,1,4-.4.45-1.8.57-4,0-2.62-.68-4-1.32-4-2C137,343.6,141.67,341.19,144,343Zm0,15c2.53,1.18,2.46,6.22,1,7-.7.38-2-.26-4-2-1.48-1.3-2.09-2.46-2-3C139.25,358.4,142.18,357.15,144,358Zm-1,17c2.9-.37,6.3,4.26,5,7a4.09,4.09,0,0,1-4,2,5,5,0,0,1-4.05-5.76c0-.08,0-.16.05-.24A4,4,0,0,1,143,375Zm10,19v6a4.47,4.47,0,0,0,4,0c2.23-1.23,2.14-4,2-5-.21-1.49-1.22-4-3-4C154.8,391,153.51,392.16,153,394Zm1,12c-.8.17-2.07,1.41-3,4-.79,2.21-2.21,7.2,0,9,.92.75,1.9.42,3,1a5.76,5.76,0,0,1,3,6,5.59,5.59,0,0,1-4,4L281,613,161,423l-4-16A3.69,3.69,0,0,0,154,406Zm32.58-275.5A11,11,0,0,1,184,126m-72,48a98.59,98.59,0,0,0-23,9c-4.57,2.49-10.21,6.84-15,10-7.34,4.85-12.44,8-15,13-1.82,3.58-2.81,7.88-5,8a2.78,2.78,0,0,1-2-1c-2.63-2.65-12-20.16-22-25-7-3.39-12.17.23-21-3-3-1.11-6.83-3.28-7-3s3.09,2.66,5,4c-2.42,1.72-6.28,4.53-6,5s5-2.22,10-3a30.71,30.71,0,0,1,16,2l24,32,5,1,41-24,2-12a12,12,0,0,0,5-1C108.62,184,111.31,179.09,112,174Zm2,67c-2.64-1.8-9.45,2.05-17,10a18.85,18.85,0,0,0-9,2c-5.5,2.84-9,8.49-12,20a138.49,138.49,0,0,0-4,31l-51,6L7,328c-2.66,1.64-7.25,4.52-7,5s3.81-1.07,6-2c.12,3.1.38,8,1,8s1.54-6.25,2-10l11-11,46,2a26.71,26.71,0,0,1,13-7c1.41-.27,3.89-.19,6-1,6.9-2.65,9.91-12,12-24a220.46,220.46,0,0,0,3-29,10.54,10.54,0,0,0,8,1C115.67,257.44,117.54,243.41,114,241Zm32,165c.8.17,2.07,1.41,3,4,.79,2.21,2.21,7.2,0,9-.92.75-1.9.42-3,1a5.76,5.76,0,0,0-3,6,5.59,5.59,0,0,0,4,4L19,613,139,423l4-16A3.69,3.69,0,0,1,146,406Zm0-112c-2.41-2.77-9.91,0-10,0l-5,5a43.53,43.53,0,0,0,6,2c4.15,1.06,7,.86,8,0C147,299.32,147.46,295.68,146,294Zm-1-9a5,5,0,0,0,0-6c-1.83-2.14-5.14-1.27-6-1-3.1,1-5.53,4.31-6,9h6A5.48,5.48,0,0,0,145,285Zm-1,140a6.1,6.1,0,0,0,12,0l-6-4Zm39-280a28,28,0,0,1-11,12,127.41,127.41,0,0,1-45,0,42.93,42.93,0,0,1-10-12c-2.68-4.8-3.77-8-3-9,2.77-3.6,19.5,4.63,33,12a40.06,40.06,0,0,0,6,0c16.37-1.27,29-15.41,32-13C186.66,136.33,184.62,141.56,183,145Zm1-21a2.57,2.57,0,0,0,0,2M156,310c-2.55,1.75-2.57,7.42,0,9,.86.53,3,.49,6-1,1.72-.86,5.37-3,5-5-.18-1-2.22-2.11-6-3C158.52,309.42,156.68,309.54,156,310Zm-1,18c-1.85,2.78-1.5,5.83,0,7,1.86,1.45,5.11-.42,6-1,2.25-1.45,3-2.78,3-4-.08-2.37-3.27-4.54-6-4A5,5,0,0,0,155,328Zm0,15c-1.21.94-1.82,3.06-1,4,.4.45,1.8.57,4,0,2.62-.68,4-1.32,4-2C162.05,343.6,157.33,341.19,155,343Zm1,15c-2.53,1.18-2.46,6.22-1,7,.7.38,2-.26,4-2,1.48-1.3,2.09-2.46,2-3C160.75,358.4,157.82,357.15,156,358Zm1,17c-2.9-.37-6.3,4.26-5,7a4.09,4.09,0,0,0,4,2,5,5,0,0,0,4.05-5.76c0-.08,0-.16-.05-.24A4,4,0,0,0,157,375Zm-10,19v6a4.47,4.47,0,0,1-4,0c-2.23-1.23-2.14-4-2-5,.21-1.49,1.22-4,3-4C145.2,391,146.49,392.16,147,394Z" transform="translate(0.51 0.51)"/><path id="Gradient_Fill_5" data-name="Gradient Fill 5" class="cls-4" d="M149,112q-.5,18.5-1,37a19.31,19.31,0,0,1-6,3,19.08,19.08,0,0,1-11,0c-3.28-1-5.35-2.68-8-5-4.42-3.85-7.93-7.24-9-10a17.69,17.69,0,0,1,0-13c1.09-2.62,5.53-7.86,14-11A35.75,35.75,0,0,1,149,112Zm-8-23c1.59,1.49,7-.22,11-2-1.41-1.73.22-4,.92-5.35.54-1,.75.67,2.08.35,2.1-.5,4.18.79,5,0s1-7.1-1-9c-2.22-2.1-10.32-.26-14,0-8.84.63-12.09,3-13,5-.8,1.74-3.73,5.81-3,8,3.56-1.64,7.52-3.3,9-2C139.67,85.46,139.35,87.46,141,89Zm45,35c-2.81-6.81-9.56-9.34-14-11a35.81,35.81,0,0,0-21-1q.5,18.5,1,37a19.31,19.31,0,0,0,6,3,19.08,19.08,0,0,0,11,0c3.17-1,5.09-2.57,8-5a48.21,48.21,0,0,0,9-10C186.71,135,188.3,129.58,186,124Z" transform="translate(0.51 0.51)"/><path id="Gradient_Fill_3" data-name="Gradient Fill 3" class="cls-5" d="M146.39,205.93c-11,3.11-20.54,9.2-27.11,18.07-4.1,5.53-6.71,13.13-9,23.48-4.56,20.3-4.54,32.69,0,36.13a9.31,9.31,0,0,0,5.42,1.81c5.94.11,12.38-5.53,16.27-16.26l-14.46-25.29a4.76,4.76,0,0,1,7.23-5.42l10.84,18.07c3.47.65,7,.33,9-1.81s1.88-5,1.81-7.23c-.26-8,1-13.41-1.81-16.25-3.17-3.21-7.54-1.63-10.85-5.42-1.58-1.82-3-5-1.8-7.23s4.76-3.15,9-1.81c1.09,3.52,2.5,7.37,3.62,7.23C146.35,223.77,146.48,213.48,146.39,205.93Zm7.22,0c11,3.11,20.54,9.2,27.11,18.07,4.1,5.53,6.71,13.13,9,23.48,4.56,20.3,4.54,32.69,0,36.13a9.31,9.31,0,0,1-5.42,1.81c-5.94.11-12.38-5.53-16.27-16.26l14.46-25.29a4.76,4.76,0,0,0-7.23-5.42l-10.84,18.07c-3.47.65-7,.33-9-1.81s-1.88-5-1.81-7.23c.26-8-1-13.41,1.81-16.25,3.16-3.21,7.54-1.63,10.84-5.42,1.59-1.82,3.06-5,1.81-7.23s-4.76-3.15-9-1.81c-1.09,3.52-2.5,7.37-3.62,7.23C153.65,223.77,153.52,213.48,153.61,205.93Z" transform="translate(0.51 0.51)"/><path id="Gradient_Fill_4" data-name="Gradient Fill 4" class="cls-6" d="M115.66,231.23c-3.25,2.1-5.61,2.31-7.23,1.8-2.84-.89-4.3-3.95-5.42-7.22-2.4-7.05-3.63-15.05-3.61-18.07A62.93,62.93,0,0,1,103,186.07c3.14-8,10.83-21.83,25.3-27.11,7.61-2.76,16.61-3.07,18.08,0,.77,1.64-1.07,3.61,0,5.42.58,1,1.83,1.58,3.61,1.81,1.08,4.27,1.55,8.12,0,9s-4.6-.17-6.43-2c-2.82-2.83-1.76-6.76-4.41-8.83-2-1.55-5.16-1.37-9,0a5.7,5.7,0,0,0,1.81,5.42,5.84,5.84,0,0,0,7.23,0,10.65,10.65,0,0,1,3,4.66c.49,1.62.31,3,.59,4.38q.84,4,5.42,7.22a9,9,0,0,1-1.81,9c-3,3.07-8.58,3.37-12.65,0-4.1-6-10-14-14.45-18.06-1.52-1.36-2.83-2.21-3.62-1.81-1.3.67-.61,4.48,0,7.23,1.57,7.07,3.61,14.13,5.42,19.87,2.47,7.83,3.12,13.06,1.81,18.06C121.71,224.89,119.32,228.87,115.66,231.23Zm68.68,0c3.25,2.1,5.61,2.31,7.23,1.8,2.84-.89,4.3-3.95,5.42-7.22,2.4-7.05,3.63-15.05,3.61-18.07A62.93,62.93,0,0,0,197,186.07c-3.14-8-10.83-21.83-25.3-27.11-7.61-2.76-16.61-3.07-18.07,0-.78,1.64,1.06,3.61,0,5.42-.59,1-1.83,1.58-3.62,1.81-1.08,4.27-1.55,8.12,0,9s4.6-.17,6.43-2c2.82-2.83,1.76-6.76,4.41-8.83,2-1.55,5.16-1.37,9,0a5.7,5.7,0,0,1-1.81,5.42,5.84,5.84,0,0,1-7.23,0,10.65,10.65,0,0,0-3,4.66c-.49,1.62-.31,3-.59,4.38q-.84,4-5.42,7.22a9,9,0,0,0,1.81,9c3,3.07,8.58,3.37,12.65,0,4.1-6,10-14,14.45-18.06,1.52-1.36,2.83-2.21,3.62-1.81,1.3.67.61,4.48,0,7.23-1.57,7.07-3.61,14.13-5.42,19.87-2.47,7.83-3.12,13.06-1.81,18.06C178.29,224.89,180.68,228.87,184.34,231.23Z" transform="translate(0.51 0.51)"/><path class="cls-7" d="M-106.88-1.44" transform="translate(0.51 0.51)"/><path class="cls-1" d="M162,121.86c.2-.4,2.46,0,11.7,3.78l.36,7.56a15.13,15.13,0,0,1-4.33,5.06c-3.84,2.8-9.12,3.66-9.71,2.5-.28-.54.34-1.79,4.14-4.86,1.75-2,3.65-4.85,3.06-7.74C166.48,124.34,161.74,122.46,162,121.86Z" transform="translate(0.51 0.51)"/><path class="cls-1" d="M179.14,122.76" transform="translate(0.51 0.51)"/><path class="cls-1" d="M137.25,121.86c-.19-.4-2.46,0-11.7,3.78l-.36,7.56a15.13,15.13,0,0,0,4.33,5.06c3.84,2.8,9.12,3.66,9.71,2.5.28-.54-.34-1.79-4.14-4.86-1.75-2-3.65-4.85-3.06-7.74C132.82,124.34,137.55,122.46,137.25,121.86Z" transform="translate(0.51 0.51)"/><path class="cls-3" d="M221.8,75.42" transform="translate(0.51 0.51)"/><line class="cls-8" x1="225.78" y1="152.71" x2="230.78" y2="159.71"/><path class="cls-3" d="M70,150l-5,7Z" transform="translate(0.51 0.51)"/><path class="cls-3" d="M54,214v0Z" transform="translate(0.51 0.51)"/><path class="cls-3" d="M246,214v0Z" transform="translate(0.51 0.51)"/><path class="cls-3" d="M202,251l-3,8Z" transform="translate(0.51 0.51)"/><path class="cls-3" d="M227,304l-11.15,8.5Z" transform="translate(0.51 0.51)"/><path class="cls-3" d="M100,259l-3-8Z" transform="translate(0.51 0.51)"/><path class="cls-3" d="M72,304l7,9Z" transform="translate(0.51 0.51)"/><path class="cls-3" d="M99,187l-3.47-7.24Z" transform="translate(0.51 0.51)"/><path class="cls-3" d="M201,187l3.48-7.24Z" transform="translate(0.51 0.51)"/><path class="cls-3" d="M147,430l-10.34-3.29Z" transform="translate(0.51 0.51)"/><path class="cls-3" d="M153,430l9.58-4.5Z" transform="translate(0.51 0.51)"/><path class="cls-9" d="M161.92,92.64c-.45.87,1.9,1.85,2.64,4.56.83,3-1.15,5.14,0,6.24.78.74,2.31.38,3.12,0,2.25-1.07,3.27-4.38,2.4-7A6.6,6.6,0,0,0,166,92.64C164.56,92.11,162.33,91.84,161.92,92.64Z" transform="translate(0.51 0.51)"/><path class="cls-9" d="M126.06,96c.8.56-.81,2.52-.19,5.26.68,3,3.43,4,2.93,5.51-.34,1-1.86,1.43-2.76,1.47-2.49.11-4.94-2.33-5.38-5a6.58,6.58,0,0,1,1.8-5.31C123.48,96.76,125.32,95.48,126.06,96Z" transform="translate(0.51 0.51)"/><path class="cls-9" d="M57,116l8,4Z" transform="translate(0.51 0.51)"/><path class="cls-9" d="M230.27,122.2l7-.87Z" transform="translate(0.51 0.51)"/><path class="cls-10" d="M123.58,108.27c-.37-.25.11-1-.27-3-.12-.6-.22-.79-.09-1,.5-.81,3.58-.44,4,.72C127.63,106.39,124.33,108.76,123.58,108.27Z" transform="translate(0.51 0.51)"/><path class="cls-10" d="M166.62,103.39c-.37-.25.11-1-.27-3-.11-.6-.21-.8-.09-1,.5-.82,3.58-.44,4,.72C170.67,101.51,167.37,103.88,166.62,103.39Z" transform="translate(0.51 0.51)"/></svg>