<svg id="DO_-_1B" data-name="DO - 1B" xmlns="http://www.w3.org/2000/svg" viewBox="0 0 226 200"><rect id="back" width="226" height="200" style="fill:none"/><g id="vial_w_cap" data-name="vial w cap"><g id="vial"><path id="water_25_" data-name="water 25%" d="M119.48132,80.36464V76.57673a1.22813,1.22813,0,0,0,0-2.40887v-.80353a1.2271,1.2271,0,0,0,0-2.40722,1.04845,1.04845,0,0,0-.98323-1.112l-10.97936,0a1,1,0,0,0-1,1v1.43457a1.23686,1.23686,0,0,0,0,2.45771v.7547a1.23685,1.23685,0,0,0,0,2.4577v2.41486H105.5a1,1,0,0,0-1,1V123.243a1,1,0,0,0,1,1h15a1,1,0,0,0,1-1V81.36464a1,1,0,0,0-1-1Z" style="fill:#d1eef3;fill-opacity:0.25"/><path id="tube" d="M120.5,124.74316h-15a1.50164,1.50164,0,0,1-1.5-1.5V81.36475a1.50164,1.50164,0,0,1,1.5-1.5h.51855V78.333a1.72209,1.72209,0,0,1-1.085-1.417,1.756,1.756,0,0,1,1.07178-1.8003,1.72359,1.72359,0,0,1-1.07178-1.41211,1.75542,1.75542,0,0,1,1.085-1.80566V70.84521a1.50165,1.50165,0,0,1,1.5-1.5h10.9795a1.51713,1.51713,0,0,1,1.44336,1.24024,1.72048,1.72048,0,0,1,.04,3.13184V73.814a1.7222,1.7222,0,0,1,0,3.11573v2.93506H120.5a1.50164,1.50164,0,0,1,1.5,1.5v41.87841A1.50164,1.50164,0,0,1,120.5,124.74316Zm-15-43.87841a.50034.50034,0,0,0-.5.5v41.87841a.50065.50065,0,0,0,.5.5h15a.50065.50065,0,0,0,.5-.5V81.36475a.50034.50034,0,0,0-.5-.5h-1.51855V76.17432l.39306-.08594a.74111.74111,0,0,0,.59082-.79443.732.732,0,0,0-.58984-.63721l-.394-.08545V72.96191l.39306-.08593a.7413.7413,0,0,0,.59082-.79493.73379.73379,0,0,0-.59131-.63574l-.39257-.08593V70.957a.55969.55969,0,0,0-.4834-.61182h-10.9795a.50035.50035,0,0,0-.5.5v1.876l-.438.05469a.75133.75133,0,0,0-.65284.82031.739.739,0,0,0,.6543.645l.43652.05615v1.63623l-.438.05469a.75133.75133,0,0,0-.65284.82031.739.739,0,0,0,.6543.645l.43652.05616v3.355Z" style="fill:#333"/><rect id="thread_2" data-name="thread 2" x="106.6483" y="73.61755" width="12.89822" height="1.00025" transform="translate(-7.4866 12.92984) rotate(-6.33401)" style="fill:#333;opacity:0.30000000000000004"/><rect id="thread_1" data-name="thread 1" x="106.70398" y="76.83527" width="12.83373" height="1.00035" transform="translate(-7.90387 13.06946) rotate(-6.38961)" style="fill:#333;opacity:0.30000000000000004"/></g></g><path id="Line-2" d="M138.20627,59.75816l.80267.59641-.2982.40135a23.53125,23.53125,0,0,1-8.13841,6.75226l-.05944.02812,1.00109,3.978-9.826-2.168,7.63-6.55994.946,3.75587a22.66689,22.66689,0,0,0,7.35874-6.00867l.28528-.374Z" style="fill:blue"/><g style="isolation:isolate"><path d="M148.16309,45.76416h-4.38868l-.4414,3.57031h3.75879l-.14649,1.06348H143.207l-.53223,4.32617h-1.32226l1.23828-10.03125h5.70508Z" style="fill:blue"/><path d="M150.7041,47.6333l-.85351,7.09082H148.625l.85449-7.09082Zm.46875-2.22656a.79266.79266,0,0,1-.07324.33984.9681.9681,0,0,1-.19629.28028.94492.94492,0,0,1-.27637.19238.76539.76539,0,0,1-.32129.07031.75239.75239,0,0,1-.31543-.07031.86688.86688,0,0,1-.26953-.19238.99346.99346,0,0,1-.18554-.28028.82057.82057,0,0,1-.07032-.33984.84765.84765,0,0,1,.07032-.34278.95284.95284,0,0,1,.46191-.47949.72717.72717,0,0,1,.31543-.07324.76539.76539,0,0,1,.32129.07031.92535.92535,0,0,1,.27734.19239.89878.89878,0,0,1,.19239.28711A.88491.88491,0,0,1,151.17285,45.40674Z" style="fill:blue"/><path d="M151.98535,54.72412l1.25293-10.31055h1.22461L153.21,54.72412Z" style="fill:blue"/><path d="M155.30957,54.72412l1.25293-10.31055h1.22559l-1.25391,10.31055Z" style="fill:blue"/><path d="M161.833,53.38721c0-.02832.00195-.06446.0039-.1084.002-.04492.00684-.1084.01368-.19238.00781-.084.01757-.19434.03222-.32911.01367-.13574.03418-.3125.0625-.53222l.44141-3.54883h-.791a.21744.21744,0,0,1-.15039-.05273.207.207,0,0,1-.05957-.16407.84125.84125,0,0,1,.00684-.084q.00732-.063.01758-.14356c.00683-.05371.01367-.10839.0205-.165q.01026-.08349.01758-.16113l1.0918-.14648.52539-2.19141a.331.331,0,0,1,.10547-.1709.27462.27462,0,0,1,.18848-.0664h.6582L163.709,47.773h1.86231l-.10449.90332h-1.86914l-.42676,3.48633c-.02344.1914-.041.34472-.05274.46191-.01171.11621-.02148.21-.02832.2793-.00683.07031-.01172.11914-.01367.14746-.00293.02832-.0039.04883-.0039.0625a.738.738,0,0,0,.165.5293.59476.59476,0,0,0,.45118.17089.91394.91394,0,0,0,.32226-.05273,1.323,1.323,0,0,0,.24121-.11523c.06739-.042.125-.08008.17188-.11524a.21431.21431,0,0,1,.126-.05273.12574.12574,0,0,1,.08692.02832.34035.34035,0,0,1,.0664.09082l.25977.59472a2.53061,2.53061,0,0,1-.77441.47266,2.38776,2.38776,0,0,1-.87793.17188,1.49661,1.49661,0,0,1-1.07129-.3711A1.4596,1.4596,0,0,1,161.833,53.38721Z" style="fill:blue"/><path d="M168.53906,54.82178a2.76489,2.76489,0,0,1-1.06347-.19922,2.33243,2.33243,0,0,1-.833-.57715,2.65823,2.65823,0,0,1-.5459-.92383,3.6714,3.6714,0,0,1-.19629-1.24609,5.024,5.024,0,0,1,.28027-1.6875,4.55881,4.55881,0,0,1,.76661-1.38574,3.64873,3.64873,0,0,1,1.14746-.93848,3.06619,3.06619,0,0,1,1.43164-.34277,2.76643,2.76643,0,0,1,1.06445.19921,2.356,2.356,0,0,1,.833.57813,2.67047,2.67047,0,0,1,.5459.92773,3.70116,3.70116,0,0,1,.19531,1.24219,4.99828,4.99828,0,0,1-.2793,1.67969,4.60068,4.60068,0,0,1-.7666,1.38574,3.65647,3.65647,0,0,1-1.15137.94238A3.05343,3.05343,0,0,1,168.53906,54.82178Zm.11231-.97266a1.64063,1.64063,0,0,0,.93066-.28027,2.43856,2.43856,0,0,0,.71387-.74512,3.83771,3.83771,0,0,0,.45508-1.07422,4.96506,4.96506,0,0,0,.16113-1.27441,2.38212,2.38212,0,0,0-.38477-1.47656,1.32218,1.32218,0,0,0-1.11328-.49708,1.65337,1.65337,0,0,0-.93457.27637,2.44,2.44,0,0,0-.71.74219,3.81327,3.81327,0,0,0-.45508,1.07422,4.963,4.963,0,0,0-.16113,1.27344,2.41045,2.41045,0,0,0,.38184,1.48046A1.31553,1.31553,0,0,0,168.65137,53.84912Z" style="fill:blue"/><path d="M141.78613,70.187c0-.02832.001-.06445.00391-.1084.00195-.04492.00684-.1084.01367-.19238s.01758-.19434.03125-.3291c.01367-.13574.03516-.3125.06348-.53223l.44043-3.54883h-.791a.21906.21906,0,0,1-.15039-.05273.207.207,0,0,1-.05957-.16406c0-.01465.00293-.042.00684-.084q.00732-.063.01757-.14355c.00684-.05371.01465-.1084.02149-.165q.01025-.08349.01758-.16113l1.09179-.14649.52539-2.1914a.32944.32944,0,0,1,.1045-.1709.2771.2771,0,0,1,.18945-.06641h.65723l-.30762,2.44238h1.8623l-.10546.90332H143.5498l-.42675,3.48633c-.02344.19141-.041.34473-.05274.46192-.01172.11621-.02051.21-.02734.27929-.00781.07032-.01172.11914-.01465.14746-.002.02832-.00293.04883-.00293.0625a.74231.74231,0,0,0,.16406.5293.59472.59472,0,0,0,.45117.1709.90656.90656,0,0,0,.32227-.05273,1.3344,1.3344,0,0,0,.24219-.11524c.06738-.042.124-.08008.1709-.11523a.21909.21909,0,0,1,.126-.05274.13015.13015,0,0,1,.08789.02832.36331.36331,0,0,1,.06641.09082l.25879.59473a2.51447,2.51447,0,0,1-.77344.47266,2.39674,2.39674,0,0,1-.8789.17187,1.49414,1.49414,0,0,1-1.07032-.37109A1.452,1.452,0,0,1,141.78613,70.187Z" style="fill:blue"/><path d="M146.02148,71.52393l1.24512-10.31055h1.2461l-.58106,4.78711a4.20134,4.20134,0,0,1,1.22852-1.249,2.5744,2.5744,0,0,1,1.38281-.42382,1.509,1.509,0,0,1,1.23926.53222,2.39732,2.39732,0,0,1,.43359,1.54688c0,.09375-.002.19043-.00684.291-.00488.09961-.01367.20411-.02832.31153l-.53125,4.51465h-1.24609l.53125-4.51465c.00977-.09375.01758-.1836.02539-.26953.00684-.08692.00977-.16895.00977-.249a1.40618,1.40618,0,0,0-.21289-.85351.797.797,0,0,0-.67579-.28028,1.40974,1.40974,0,0,0-.64746.17188,2.6264,2.6264,0,0,0-.64746.48633,4.07752,4.07752,0,0,0-.58789.75976,5.609,5.609,0,0,0-.47656.99024l-.45508,3.75879Z" style="fill:blue"/><path d="M159.05469,65.95166a1.91583,1.91583,0,0,1-.18848.85059,1.77285,1.77285,0,0,1-.69336.70019,5.16868,5.16868,0,0,1-1.38574.543,15.29865,15.29865,0,0,1-2.26856.37012c-.0039.05176-.00683.10156-.00683.15136v.1504a2.18424,2.18424,0,0,0,.41016,1.43066,1.512,1.512,0,0,0,1.23535.49414,2.32644,2.32644,0,0,0,.59863-.07031,2.59714,2.59714,0,0,0,.46875-.1709,2.1411,2.1411,0,0,0,.36426-.22461c.10449-.08106.20117-.15625.29-.22363s.16992-.125.24511-.17188a.41731.41731,0,0,1,.22364-.07031.308.308,0,0,1,.23144.11914l.30762.38574a6.37574,6.37574,0,0,1-.69629.63281,4.04467,4.04467,0,0,1-.69629.4375,3.107,3.107,0,0,1-.74609.25586,4.11043,4.11043,0,0,1-.83594.08008,2.78291,2.78291,0,0,1-1.0918-.20312,2.24524,2.24524,0,0,1-.81933-.57715,2.59274,2.59274,0,0,1-.51758-.90625,3.63964,3.63964,0,0,1-.18262-1.19043,5.26586,5.26586,0,0,1,.11524-1.08789,5.136,5.136,0,0,1,.33593-1.0332,4.70726,4.70726,0,0,1,.53907-.90918,3.631,3.631,0,0,1,.72851-.72461,3.39321,3.39321,0,0,1,.90332-.4795,3.13079,3.13079,0,0,1,1.06055-.17578,2.54823,2.54823,0,0,1,.93066.1543,1.97307,1.97307,0,0,1,.64356.39258,1.56852,1.56852,0,0,1,.375.52441A1.40453,1.40453,0,0,1,159.05469,65.95166Zm-2.1416-.7207a1.82583,1.82583,0,0,0-.8125.18164,2.156,2.156,0,0,0-.65723.501,3.03054,3.03054,0,0,0-.49024.749,4.47053,4.47053,0,0,0-.31542.92773,13.65657,13.65657,0,0,0,1.72949-.30469,4.31279,4.31279,0,0,0,1.001-.37109,1.084,1.084,0,0,0,.46192-.43066,1.10308,1.10308,0,0,0,.1123-.4834.70646.70646,0,0,0-.23535-.51074.96786.96786,0,0,0-.31836-.18555A1.36368,1.36368,0,0,0,156.91309,65.231Z" style="fill:blue"/><path d="M163.15723,70.187c0-.02832.001-.06445.0039-.1084.002-.04492.00684-.1084.01367-.19238s.01758-.19434.03125-.3291c.01368-.13574.03516-.3125.06348-.53223l.44043-3.54883h-.791a.21909.21909,0,0,1-.1504-.05273.20706.20706,0,0,1-.05957-.16406c0-.01465.00293-.042.00684-.084q.00732-.063.01758-.14355c.00683-.05371.01465-.1084.02148-.165q.01026-.08349.01758-.16113l1.0918-.14649.52539-2.1914a.32936.32936,0,0,1,.10449-.1709.27714.27714,0,0,1,.18945-.06641h.65723l-.30762,2.44238h1.86231l-.10547.90332H164.9209l-.42676,3.48633c-.02344.19141-.041.34473-.05273.46192-.01172.11621-.02051.21-.02735.27929-.00781.07032-.01172.11914-.01465.14746-.00195.02832-.00293.04883-.00293.0625a.74227.74227,0,0,0,.16407.5293.59469.59469,0,0,0,.45117.1709.90654.90654,0,0,0,.32226-.05273,1.3344,1.3344,0,0,0,.24219-.11524c.06738-.042.124-.08008.1709-.11523a.21914.21914,0,0,1,.126-.05274.13017.13017,0,0,1,.08789.02832.36307.36307,0,0,1,.0664.09082l.25879.59473a2.51442,2.51442,0,0,1-.77343.47266,2.39683,2.39683,0,0,1-.87891.17187,1.49412,1.49412,0,0,1-1.07031-.37109A1.452,1.452,0,0,1,163.15723,70.187Z" style="fill:blue"/><path d="M169.86328,71.62158a2.76621,2.76621,0,0,1-1.06445-.19922,2.3409,2.3409,0,0,1-.833-.57715,2.67329,2.67329,0,0,1-.5459-.92382,3.67146,3.67146,0,0,1-.19629-1.2461,5.02382,5.02382,0,0,1,.28028-1.6875,4.57971,4.57971,0,0,1,.7666-1.38574,3.64181,3.64181,0,0,1,1.14844-.93848,3.06345,3.06345,0,0,1,1.43164-.34277,2.76493,2.76493,0,0,1,1.06347.19922,2.3473,2.3473,0,0,1,.833.57812,2.65553,2.65553,0,0,1,.5459.92774,3.67608,3.67608,0,0,1,.19629,1.24219,4.99872,4.99872,0,0,1-.28028,1.67968,4.57964,4.57964,0,0,1-.7666,1.38575,3.65657,3.65657,0,0,1-1.15136.94238A3.04955,3.04955,0,0,1,169.86328,71.62158Zm.11231-.97265a1.64508,1.64508,0,0,0,.93066-.28028,2.45,2.45,0,0,0,.71387-.74511,3.83783,3.83783,0,0,0,.45508-1.07422,4.96514,4.96514,0,0,0,.16113-1.27442,2.38855,2.38855,0,0,0-.38477-1.47656,1.32219,1.32219,0,0,0-1.11328-.49707,1.64886,1.64886,0,0,0-.93457.27637,2.44283,2.44283,0,0,0-.71094.74218,3.84157,3.84157,0,0,0-.45507,1.07422,4.96244,4.96244,0,0,0-.16016,1.27344,2.41733,2.41733,0,0,0,.38086,1.48047A1.31866,1.31866,0,0,0,169.97559,70.64893Z" style="fill:blue"/><path d="M174.06934,73.92529l1.15527-9.499h.623a.3709.3709,0,0,1,.41992.41992l-.11914,1.51172a5.83992,5.83992,0,0,1,.58105-.83691,4.232,4.232,0,0,1,.66211-.63965,2.83336,2.83336,0,0,1,.72461-.41016,2.14849,2.14849,0,0,1,.76953-.14355,1.67293,1.67293,0,0,1,1.40723.6582,3.12489,3.12489,0,0,1,.50391,1.9248,5.66179,5.66179,0,0,1-.11915,1.14844,5.80855,5.80855,0,0,1-.33984,1.09571,5.429,5.429,0,0,1-.53125.97265,4.22309,4.22309,0,0,1-.69336.78418,3.09733,3.09733,0,0,1-.8291.52149,2.39033,2.39033,0,0,1-.93848.18847,2.20312,2.20312,0,0,1-.959-.206,1.96254,1.96254,0,0,1-.72754-.5918l-.37793,3.10156Zm4.34765-8.59668a1.31215,1.31215,0,0,0-.68261.21,2.80556,2.80556,0,0,0-.66895.58789,5.10962,5.10962,0,0,0-.59863.89649,7.39015,7.39015,0,0,0-.4795,1.127l-.22363,1.80567a1.47779,1.47779,0,0,0,.64063.543,1.95388,1.95388,0,0,0,.75976.15722,1.55833,1.55833,0,0,0,.68555-.1543,2.14967,2.14967,0,0,0,.58789-.416,3.03011,3.03011,0,0,0,.47656-.61621,4.31767,4.31767,0,0,0,.35352-.75586,5.1452,5.1452,0,0,0,.21972-.833,4.78314,4.78314,0,0,0,.07715-.85058,2.21419,2.21419,0,0,0-.30078-1.26661A.96909.96909,0,0,0,178.417,65.32861Z" style="fill:blue"/></g></svg>