<svg id="DO_-_2L" data-name="DO - 2L" xmlns="http://www.w3.org/2000/svg" viewBox="0 0 226 200"><rect id="back" width="226" height="200" style="fill:none"/><g id="vial_with_tablets" data-name="vial with tablets"><g id="tablet"><circle id="tablet_inner" data-name="tablet inner" cx="85.03852" cy="89.6953" r="0.875" style="fill:#fff"/><path id="tablet_outline" data-name="tablet outline" d="M85.04921,89.32058a.375.375,0,1,1-.38576.36391.37542.37542,0,0,1,.38576-.36391m.02914-.99958a1.375,1.375,0,1,0,1.33435,1.41448A1.375,1.375,0,0,0,85.07835,88.321Z" style="fill:#333"/></g><g id="tablet-2" data-name="tablet"><circle id="tablet_inner-2" data-name="tablet inner" cx="95.03852" cy="94.6953" r="0.875" style="fill:#fff"/><path id="tablet_outline-2" data-name="tablet outline" d="M95.04921,94.32058a.375.375,0,1,1-.38576.36391.37542.37542,0,0,1,.38576-.36391m.02914-.99958a1.375,1.375,0,1,0,1.33435,1.41448A1.375,1.375,0,0,0,95.07835,93.321Z" style="fill:#333"/></g><g id="vial_w_cap" data-name="vial w cap"><g id="vial"><path id="water_25_" data-name="water 25%" d="M106.32614,120.73959l2.64354,2.71291a1.22814,1.22814,0,0,0,1.68113,1.72525l.56077.57549a1.22711,1.22711,0,0,0,1.68,1.72407,1.04845,1.04845,0,0,0,1.48025.11023l7.86347-7.66238a1,1,0,0,0,.01831-1.4141l-1.00117-1.02744a1.23685,1.23685,0,0,0-1.71521-1.76022l-.52669-.54052a1.23685,1.23685,0,0,0-1.71521-1.76022l-1.6853-1.72953.72962-.711a1,1,0,0,0,.01832-1.41409L87.13145,79.57459a1,1,0,0,0-1.41409-.01832L74.97428,90.02462a1,1,0,0,0-.01831,1.4141l29.22649,29.99348a1,1,0,0,0,1.4141.01831Z" style="fill:#d1eef3;fill-opacity:0.25"/><path id="tube" d="M74.62522,89.6664,85.36829,79.19805a1.50163,1.50163,0,0,1,2.12114.02747L116.716,109.219a1.50166,1.50166,0,0,1-.02747,2.12115l-.37139.36189,1.069,1.097a1.72208,1.72208,0,0,1,1.766.25767,1.756,1.756,0,0,1,.48879,2.03736,1.72359,1.72359,0,0,1,1.75311.26338,1.75543,1.75543,0,0,1,.48311,2.05041l.73469.754a1.50164,1.50164,0,0,1-.02747,2.12114l-7.86357,7.66248a1.51712,1.51712,0,0,1-1.89929.11905,1.72048,1.72048,0,0,1-2.21435-2.21509l-.06747-.06925a1.72217,1.72217,0,0,1-2.17443-2.23149l-2.04835-2.10211-.37139.3619a1.50166,1.50166,0,0,1-2.12115-.02747L74.59775,91.78754A1.50163,1.50163,0,0,1,74.62522,89.6664ZM115.99061,110.624a.50034.50034,0,0,0,.00915-.70705L86.77323,79.92341a.50065.50065,0,0,0-.707-.00916L75.32311,90.38261a.50064.50064,0,0,0-.00916.707l29.22654,29.99353a.50034.50034,0,0,0,.707.00915l1.08759-1.05978,3.27341,3.35931-.22155.33586a.74113.74113,0,0,0,.13128.98131.732.732,0,0,0,.86715.04472l.34185-.2138,1.12317,1.15265-.22154.33586a.7413.7413,0,0,0,.13162.98166.7338.7338,0,0,0,.86718.04265l.34114-.21243.28079.28816a.55968.55968,0,0,0,.77319.10083l7.86357-7.66248a.50034.50034,0,0,0,.00915-.707l-1.30922-1.34358.27552-.34484a.75131.75131,0,0,0-.10493-1.04311.73894.73894,0,0,0-.91876-.00534l-.35183.26443-1.14191-1.17188.27553-.34483a.75132.75132,0,0,0-.10493-1.04312.739.739,0,0,0-.91876-.00534l-.35183.26443-2.34141-2.40285Z" style="fill:#333"/><rect id="thread_2" data-name="thread 2" x="108.80891" y="120.2583" width="12.89822" height="1.00025" transform="translate(-51.21559 133.14984) rotate(-50.59199)" style="fill:#333;opacity:0.30000000000000004"/><rect id="thread_1" data-name="thread 1" x="106.57871" y="117.97002" width="12.83373" height="1.00035" transform="translate(-50.26194 130.72461) rotate(-50.64758)" style="fill:#333;opacity:0.30000000000000004"/></g><g id="cap"><g id="cap-2" data-name="cap"><rect x="107.52994" y="116.43621" width="18.8908" height="11.89028" transform="translate(-52.21154 116.36278) rotate(-44.25648)" style="fill:#333"/><path d="M119.58083,112.31641l7.52354,7.721L114.37,132.44617l-7.52355-7.721,12.73442-12.40877m.02033-1.56935-14.32411,13.9578,9.07257,9.31066,14.3241-13.9578-9.07256-9.31066Z" style="fill:#333"/></g><rect x="111.08554" y="123.52956" width="1" height="11" transform="translate(-58.38102 114.49242) rotate(-44.25798)" style="fill:#fff;opacity:0.25"/><rect x="112.697" y="121.9593" width="1" height="11" transform="translate(-56.82783 115.17142) rotate(-44.25798)" style="fill:#fff;opacity:0.25"/><rect x="115.02467" y="119.69116" width="1" height="11" transform="translate(-54.58433 116.15218) rotate(-44.25798)" style="fill:#fff;opacity:0.25"/><rect x="117.17328" y="117.59749" width="1" height="11" transform="translate(-52.51342 117.05751) rotate(-44.25798)" style="fill:#fff;opacity:0.25"/><rect x="119.3219" y="115.50382" width="1" height="11" transform="translate(-50.4425 117.96283) rotate(-44.25798)" style="fill:#fff;opacity:0.25"/><rect x="121.64956" y="113.23568" width="1" height="11" transform="translate(-48.199 118.9436) rotate(-44.25798)" style="fill:#fff;opacity:0.25"/><rect x="123.26102" y="111.66542" width="1" height="11" transform="translate(-46.64581 119.62259) rotate(-44.25798)" style="fill:#fff;opacity:0.25"/></g></g></g><path id="double_arrow" data-name="double arrow" d="M99.84377,135.54806l.29129.40639.87338,1.22974h0l.55293.79373,3.359-2.20078,1.16951,9.99411-8.697-5.06085,3.33148-2.18448-.53378-.76629h0l-.86829-1.2226-.2913-.40637Zm-3.60233-4.81912.305.39621.9139,1.19763h0l.9018,1.20276.29823.40132-.80263.59647-.29824-.40132-.8967-1.196h0l-.90876-1.19089-.305-.39621Zm-3.76313-4.69539.31811.38576.952,1.16429h0l.94176,1.17166.31161.391-.782.62322-.31161-.391-.93653-1.16516h0l-.94667-1.1578-.31811-.38576Zm-3.921-4.56946.3309.37484.99014,1.13118h0l.98167,1.14077.32454.38036-.76073.64908-.32454-.38036-.97617-1.1344h0l-.98457-1.12481-.33091-.37484Zm-4.078-4.43718.34363.36321,1.02781,1.09586h0l1.021,1.10772.33728.36911-.73822.67456-.33728-.36912-1.01513-1.10135h0l-1.02186-1.08951-.34364-.3632Zm-4.22059-4.279.35647.35061,1.06531,1.05751h0l1.06014,1.07174.35.357-.71412.7-.35-.35706-1.05374-1.06526h0L79.914,113.81146l-.35646-.35062Zm-4.38954-4.13021.36968.33667q.73741.6716,1.47184,1.35825l.73353.69028.363.34382-.68765.72605-.363-.34383q-.72795-.68947-1.45917-1.36427l-.73187-.671-.36968-.33666ZM71.315,104.66624l.38343.32091q.76362.6391,1.52575,1.29579l.76158.66091.37648.329-.65808.753-.37648-.329q-.75575-.66054-1.51327-1.3039l-.7578-.6389-.38342-.32092Zm-4.71913-3.74057.39792.30277q.79161.60229,1.58331,1.225l.79155.62764.39056.31218-.62437.78113-.39056-.31218q-.78528-.62769-1.5707-1.23539l-.7853-.60255-.39792-.30275Zm-4.89711-3.49789.41334.28132q.82116.55893,1.64414,1.14155l.82328.58836.40549.29254-.58508.811-.40548-.29252q-.81629-.58892-1.63094-1.15454l-.81409-.55966-.41333-.28135ZM49.0433,90.81718l10.0602.20558-1.87513,3.56415.64618.38935q.42751.26023.856.52737l.85771.54108.42149.269-.53795.843-.42149-.269q-.84961-.54218-1.69557-1.05718l-.59233-.35658L54.915,98.98869Z" style="fill:blue"/><g style="isolation:isolate"><path d="M117.11328,71.66309c0-.02832.001-.06446.00391-.1084.002-.04492.00683-.1084.01367-.19239s.01758-.19433.03125-.3291c.01367-.13574.03516-.3125.06348-.53222l.44043-3.54883h-.791a.21907.21907,0,0,1-.15039-.05274.207.207,0,0,1-.05957-.16406c0-.01465.00293-.042.00684-.084q.00732-.063.01757-.14356c.00684-.05371.01465-.1084.02149-.165q.01025-.08349.01758-.16113l1.09179-.14648.52539-2.19141a.32948.32948,0,0,1,.1045-.1709.27709.27709,0,0,1,.18945-.0664h.65723l-.30762,2.44238h1.8623l-.10547.90332H118.877l-.42675,3.48633c-.02344.1914-.041.34472-.05274.46191-.01172.11621-.02051.21-.02734.2793-.00782.07031-.01172.11914-.01465.14746-.00195.02832-.00293.04883-.00293.0625a.74233.74233,0,0,0,.16406.5293.59475.59475,0,0,0,.45117.17089.90637.90637,0,0,0,.32227-.05273,1.3344,1.3344,0,0,0,.24219-.11523c.06738-.042.124-.08008.17089-.11524a.21912.21912,0,0,1,.126-.05273.1301.1301,0,0,1,.08789.02832.36293.36293,0,0,1,.06641.09082l.25879.59472a2.5144,2.5144,0,0,1-.77344.47266,2.39654,2.39654,0,0,1-.87891.17187,1.49414,1.49414,0,0,1-1.07031-.37109A1.452,1.452,0,0,1,117.11328,71.66309Z" style="fill:blue"/><path d="M126.50684,73h-.64356a.38078.38078,0,0,1-.333-.126.53094.53094,0,0,1-.08691-.30761l.126-1.4209a5.88593,5.88593,0,0,1-.543.80566,3.73848,3.73848,0,0,1-.61524.61524,2.74112,2.74112,0,0,1-.68261.39257,2.02632,2.02632,0,0,1-.74219.13868,1.74284,1.74284,0,0,1-.7627-.16407,1.57906,1.57906,0,0,1-.585-.48339,2.33242,2.33242,0,0,1-.374-.78418,3.87974,3.87974,0,0,1-.13379-1.06739,4.7896,4.7896,0,0,1,.1582-1.22851,4.979,4.979,0,0,1,1.14453-2.10645,4.67194,4.67194,0,0,1,.90625-.77051,4.30407,4.30407,0,0,1,1.07422-.5039,4.02863,4.02863,0,0,1,1.2041-.17871,5.17108,5.17108,0,0,1,.88575.07519,3.62,3.62,0,0,1,.85058.25781Zm-3.05176-.93848a1.22867,1.22867,0,0,0,.67187-.21,2.55652,2.55652,0,0,0,.62305-.582,5.066,5.066,0,0,0,.5498-.88574,8.04924,8.04924,0,0,0,.45118-1.126l.30078-2.39843a.48514.48514,0,0,0-.30371-.124h-.29785a2.459,2.459,0,0,0-.8125.13574,2.90294,2.90294,0,0,0-.73438.38086,3.2792,3.2792,0,0,0-.623.583,3.794,3.794,0,0,0-.47949.74316,4.19134,4.19134,0,0,0-.31152.86231,3.90563,3.90563,0,0,0-.11231.93848Q122.377,72.062,123.45508,72.06152Z" style="fill:blue"/><path d="M128.418,73l1.24609-10.31055h1.22461l-.61523,5.01172a5.98166,5.98166,0,0,1,.57324-.78027,3.89889,3.89889,0,0,1,.64453-.59863,2.92518,2.92518,0,0,1,.7002-.38184,2.09588,2.09588,0,0,1,.74121-.13672,1.67169,1.67169,0,0,1,1.40722.6582,3.1249,3.1249,0,0,1,.50391,1.92481,5.5937,5.5937,0,0,1-.11914,1.14844,5.878,5.878,0,0,1-.33887,1.0957,5.43357,5.43357,0,0,1-.53222.97266,4.18837,4.18837,0,0,1-.69336.78418,3.06717,3.06717,0,0,1-.82911.52148,2.39008,2.39008,0,0,1-.93847.18848,2.19734,2.19734,0,0,1-1.02539-.23731,2.00106,2.00106,0,0,1-.752-.67969l-.09082.45508a.69309.69309,0,0,1-.14355.27344A.404.404,0,0,1,129.083,73Zm4.0459-6.19531a1.2967,1.2967,0,0,0-.67871.21,2.87387,2.87387,0,0,0-.66211.581,5.21979,5.21979,0,0,0-.59766.88184,6.79994,6.79994,0,0,0-.4834,1.12012l-.22363,1.84179a1.49291,1.49291,0,0,0,.63672.53516,1.92441,1.92441,0,0,0,.75586.15723,1.56266,1.56266,0,0,0,.68652-.1543,2.17936,2.17936,0,0,0,.58789-.416,3.02637,3.02637,0,0,0,.47559-.61621,4.31729,4.31729,0,0,0,.35351-.75586,5.24915,5.24915,0,0,0,.22071-.833,4.87632,4.87632,0,0,0,.07714-.85059,2.21368,2.21368,0,0,0-.30175-1.2666A.96911.96911,0,0,0,132.46387,66.80469Z" style="fill:blue"/><path d="M135.83105,73,137.084,62.68945h1.22559L137.05566,73Z" style="fill:blue"/><path d="M144.707,67.42773a1.91653,1.91653,0,0,1-.18945.85059,1.7698,1.7698,0,0,1-.69238.7002,5.17692,5.17692,0,0,1-1.38672.543,15.30353,15.30353,0,0,1-2.26758.37012c-.00488.05176-.00684.10156-.00684.15137v.15039a2.18976,2.18976,0,0,0,.40918,1.43066,1.51336,1.51336,0,0,0,1.23535.49414,2.31547,2.31547,0,0,0,.59864-.07031,2.59562,2.59562,0,0,0,.46875-.1709,2.10246,2.10246,0,0,0,.36425-.22461c.10547-.081.20215-.15625.291-.22363.08789-.06738.16992-.125.24414-.17187A.42033.42033,0,0,1,144,71.18652a.30467.30467,0,0,1,.23047.11914l.30859.38575a6.56071,6.56071,0,0,1-.69629.63281,4.05239,4.05239,0,0,1-.69726.4375,3.09978,3.09978,0,0,1-.74512.25586,4.12022,4.12022,0,0,1-.83691.08008,2.78972,2.78972,0,0,1-1.0918-.20313,2.25331,2.25331,0,0,1-.81934-.57715,2.59288,2.59288,0,0,1-.51757-.90625,3.66605,3.66605,0,0,1-.18165-1.19043,5.20019,5.20019,0,0,1,.11524-1.08789,5.07583,5.07583,0,0,1,.33594-1.0332,4.65916,4.65916,0,0,1,.53906-.90918,3.627,3.627,0,0,1,.72754-.72461,3.40849,3.40849,0,0,1,.90332-.47949,3.13867,3.13867,0,0,1,1.06055-.17578,2.541,2.541,0,0,1,.93066.15429,1.96769,1.96769,0,0,1,.64453.39258,1.55162,1.55162,0,0,1,.374.52442A1.389,1.389,0,0,1,144.707,67.42773Zm-2.14258-.7207a1.81882,1.81882,0,0,0-.81152.18164,2.17158,2.17158,0,0,0-.6582.501,3.05793,3.05793,0,0,0-.49024.749,4.4697,4.4697,0,0,0-.31445.92774,13.60408,13.60408,0,0,0,1.72851-.30469,4.29562,4.29562,0,0,0,1.001-.3711,1.07819,1.07819,0,0,0,.46192-.43066,1.08977,1.08977,0,0,0,.1123-.4834.68974.68974,0,0,0-.05566-.26172.71035.71035,0,0,0-.17871-.249.97824.97824,0,0,0-.31836-.18555A1.36977,1.36977,0,0,0,142.56445,66.707Z" style="fill:blue"/><path d="M146.10645,71.66309c0-.02832.00195-.06446.0039-.1084.00195-.04492.00684-.1084.01367-.19239.00782-.084.01758-.19433.03223-.3291.01367-.13574.03418-.3125.0625-.53222l.44141-3.54883h-.791a.21736.21736,0,0,1-.15039-.05274.207.207,0,0,1-.05957-.16406.83809.83809,0,0,1,.00684-.084q.00732-.063.01757-.14356c.00684-.05371.01368-.1084.02051-.165q.01026-.08349.01758-.16113l1.0918-.14648.52539-2.19141a.33092.33092,0,0,1,.10547-.1709.27459.27459,0,0,1,.18847-.0664h.65821l-.3086,2.44238h1.86231l-.1045.90332h-1.86914l-.42675,3.48633c-.02344.1914-.041.34472-.05274.46191-.01172.11621-.02148.21-.02832.2793-.00683.07031-.01172.11914-.01367.14746-.00293.02832-.00391.04883-.00391.0625a.738.738,0,0,0,.165.5293.59475.59475,0,0,0,.45117.17089.914.914,0,0,0,.32227-.05273,1.32336,1.32336,0,0,0,.24121-.11523c.06738-.042.125-.08008.17188-.11524a.21422.21422,0,0,1,.126-.05273.12574.12574,0,0,1,.08692.02832.3404.3404,0,0,1,.0664.09082l.25977.59472a2.53054,2.53054,0,0,1-.77442.47266,2.38767,2.38767,0,0,1-.87793.17187,1.49658,1.49658,0,0,1-1.07128-.37109A1.45956,1.45956,0,0,1,146.10645,71.66309Z" style="fill:blue"/><path d="M154.84961,67.043a.44536.44536,0,0,1-.11133.12207.23874.23874,0,0,1-.14062.03906.38515.38515,0,0,1-.21289-.07715c-.07715-.05078-.1709-.1084-.28028-.17187a2.35824,2.35824,0,0,0-.40234-.17481,2.01651,2.01651,0,0,0-1.14844.00684,1.42985,1.42985,0,0,0-.44824.24219,1.06607,1.06607,0,0,0-.29.36035.982.982,0,0,0-.10156.4375.67.67,0,0,0,.21679.52441,2.00353,2.00353,0,0,0,.5459.33985c.21973.0957.45606.18847.71094.27636a3.6484,3.6484,0,0,1,.71.33594,1.8091,1.8091,0,0,1,.5459.51856,1.40674,1.40674,0,0,1,.21777.81835,2.3535,2.3535,0,0,1-.74609,1.72559,2.72563,2.72563,0,0,1-.86816.543,3.04509,3.04509,0,0,1-1.13672.20312,2.82752,2.82752,0,0,1-1.20118-.24218,2.49288,2.49288,0,0,1-.85058-.61914l.30859-.47559a.42877.42877,0,0,1,.13281-.14062.36316.36316,0,0,1,.19629-.04883.34517.34517,0,0,1,.22364.09765c.07422.06543.168.13965.28027.22071a1.71665,1.71665,0,0,0,1.07129.31836,1.72644,1.72644,0,0,0,.61914-.1045,1.44606,1.44606,0,0,0,.46875-.28027,1.1675,1.1675,0,0,0,.29394-.40918,1.25171,1.25171,0,0,0,.10157-.501.752.752,0,0,0-.2168-.5664,1.77542,1.77542,0,0,0-.5459-.35059q-.32958-.13916-.707-.26269a3.55421,3.55421,0,0,1-.707-.31446,1.7084,1.7084,0,0,1-.5459-.501,1.39293,1.39293,0,0,1-.2168-.81836,2.19194,2.19194,0,0,1,.17774-.86524,2.24536,2.24536,0,0,1,.51465-.73828,2.55327,2.55327,0,0,1,.81543-.51465,2.8947,2.8947,0,0,1,1.082-.19238,2.76579,2.76579,0,0,1,1.123.21387,2.604,2.604,0,0,1,.83692.57715Z" style="fill:blue"/><path d="M163.22852,73a.37756.37756,0,0,1-.332-.126.52423.52423,0,0,1-.08789-.30761l.13282-1.47754a5.70125,5.70125,0,0,1-.58106.82617,4.2246,4.2246,0,0,1-.66113.63379,2.90206,2.90206,0,0,1-.7207.40527,2.10865,2.10865,0,0,1-.75977.14356,1.66329,1.66329,0,0,1-1.41016-.66114,3.1427,3.1427,0,0,1-.501-1.92187,5.66021,5.66021,0,0,1,.11914-1.14746,5.91449,5.91449,0,0,1,.33984-1.09961,5.4308,5.4308,0,0,1,.53125-.97656,4.13459,4.13459,0,0,1,.69336-.78028,3.14187,3.14187,0,0,1,.8291-.51758,2.39124,2.39124,0,0,1,.93848-.18945,2.202,2.202,0,0,1,.94824.20313,2.03251,2.03251,0,0,1,.73145.58105l.4834-3.89844h1.2246L163.87305,73Zm-2.541-.90332a1.29084,1.29084,0,0,0,.67578-.20606,2.8372,2.8372,0,0,0,.6582-.57421,4.9586,4.9586,0,0,0,.59473-.875,6.96372,6.96372,0,0,0,.47949-1.10938l.23145-1.876a1.491,1.491,0,0,0-.6377-.52539,1.93945,1.93945,0,0,0-.749-.15332,1.63212,1.63212,0,0,0-.99707.32911,2.85992,2.85992,0,0,0-.75586.8496,4.4268,4.4268,0,0,0-.47949,1.166,4.9927,4.9927,0,0,0-.168,1.2666,2.2303,2.2303,0,0,0,.30078,1.27051A.96835.96835,0,0,0,160.6875,72.09668Z" style="fill:blue"/><path d="M168.04492,65.90918,167.19043,73h-1.22461l.85352-7.09082Zm.46875-2.22656a.79266.79266,0,0,1-.07324.33984,1.0069,1.0069,0,0,1-.19629.28027.95784.95784,0,0,1-.27637.19239.7665.7665,0,0,1-.32226.07031.75567.75567,0,0,1-.31543-.07031.85143.85143,0,0,1-.26856-.19239.97319.97319,0,0,1-.18554-.28027.82057.82057,0,0,1-.07032-.33984.84765.84765,0,0,1,.07032-.34278.9425.9425,0,0,1,.46191-.47949.723.723,0,0,1,.31445-.07324.76651.76651,0,0,1,.32227.07031.92131.92131,0,0,1,.27637.19238.88338.88338,0,0,1,.19238.28711A.86858.86858,0,0,1,168.51367,63.68262Z" style="fill:blue"/><path d="M173.77051,67.043a.46262.46262,0,0,1-.11231.12207.23563.23563,0,0,1-.13965.03906.39045.39045,0,0,1-.21386-.07715c-.07715-.05078-.16992-.1084-.28028-.17187a2.29155,2.29155,0,0,0-.40234-.17481,2.01307,2.01307,0,0,0-1.14746.00684,1.42974,1.42974,0,0,0-.44824.24219,1.081,1.081,0,0,0-.291.36035.982.982,0,0,0-.10156.4375.66747.66747,0,0,0,.21777.52441,1.98846,1.98846,0,0,0,.5459.33985c.21875.0957.45606.18847.71.27636a3.65731,3.65731,0,0,1,.71094.33594,1.82049,1.82049,0,0,1,.5459.51856,1.414,1.414,0,0,1,.21679.81835,2.35962,2.35962,0,0,1-.19238.93848,2.32633,2.32633,0,0,1-.55273.78711,2.73645,2.73645,0,0,1-.86817.543,3.05383,3.05383,0,0,1-1.13769.20312,2.82609,2.82609,0,0,1-1.2002-.24218,2.48352,2.48352,0,0,1-.85058-.61914l.30761-.47559a.44152.44152,0,0,1,.13379-.14062.3596.3596,0,0,1,.19532-.04883.34739.34739,0,0,1,.2246.09765c.07422.06543.168.13965.2793.22071a1.72252,1.72252,0,0,0,1.07129.31836,1.72265,1.72265,0,0,0,.61914-.1045,1.46145,1.46145,0,0,0,.46973-.28027,1.19281,1.19281,0,0,0,.29394-.40918,1.25171,1.25171,0,0,0,.10157-.501.75257.75257,0,0,0-.21778-.5664,1.76373,1.76373,0,0,0-.5459-.35059c-.21875-.09277-.45507-.18066-.707-.26269a3.57944,3.57944,0,0,1-.707-.31446,1.71866,1.71866,0,0,1-.5459-.501,1.39293,1.39293,0,0,1-.21679-.81836,2.17608,2.17608,0,0,1,.17871-.86524,2.231,2.231,0,0,1,.51465-.73828,2.53185,2.53185,0,0,1,.81543-.51465,2.88586,2.88586,0,0,1,1.08105-.19238,2.77064,2.77064,0,0,1,1.124.21387,2.59974,2.59974,0,0,1,.83594.57715Z" style="fill:blue"/><path d="M179.2168,67.043a.46262.46262,0,0,1-.11231.12207.23563.23563,0,0,1-.13965.03906.39042.39042,0,0,1-.21386-.07715c-.07715-.05078-.16993-.1084-.28028-.17187a2.29155,2.29155,0,0,0-.40234-.17481,2.01307,2.01307,0,0,0-1.14746.00684,1.42974,1.42974,0,0,0-.44824.24219,1.081,1.081,0,0,0-.291.36035.982.982,0,0,0-.10156.4375.66747.66747,0,0,0,.21777.52441,1.98846,1.98846,0,0,0,.5459.33985c.21875.0957.45605.18847.71.27636a3.65731,3.65731,0,0,1,.71094.33594,1.82049,1.82049,0,0,1,.5459.51856,1.414,1.414,0,0,1,.21679.81835,2.35962,2.35962,0,0,1-.19238.93848,2.32633,2.32633,0,0,1-.55273.78711,2.73645,2.73645,0,0,1-.86817.543,3.05383,3.05383,0,0,1-1.13769.20312,2.82609,2.82609,0,0,1-1.2002-.24218,2.48352,2.48352,0,0,1-.85058-.61914l.30761-.47559a.44141.44141,0,0,1,.13379-.14062.35958.35958,0,0,1,.19531-.04883.34739.34739,0,0,1,.22461.09765c.07422.06543.168.13965.2793.22071a1.72252,1.72252,0,0,0,1.07129.31836,1.72265,1.72265,0,0,0,.61914-.1045,1.46145,1.46145,0,0,0,.46973-.28027,1.19281,1.19281,0,0,0,.29394-.40918,1.25171,1.25171,0,0,0,.10157-.501.75257.75257,0,0,0-.21778-.5664,1.76373,1.76373,0,0,0-.5459-.35059c-.21875-.09277-.45508-.18066-.707-.26269a3.57944,3.57944,0,0,1-.707-.31446,1.71866,1.71866,0,0,1-.5459-.501,1.39293,1.39293,0,0,1-.21679-.81836,2.17608,2.17608,0,0,1,.17871-.86524,2.23115,2.23115,0,0,1,.51464-.73828,2.53207,2.53207,0,0,1,.81543-.51465,2.886,2.886,0,0,1,1.08106-.19238,2.77064,2.77064,0,0,1,1.124.21387,2.59974,2.59974,0,0,1,.83594.57715Z" style="fill:blue"/><path d="M182.625,73.09766a2.765,2.765,0,0,1-1.06348-.19922,2.33252,2.33252,0,0,1-.833-.57715,2.65823,2.65823,0,0,1-.5459-.92383,3.67144,3.67144,0,0,1-.19629-1.24609,5.024,5.024,0,0,1,.28027-1.6875,4.559,4.559,0,0,1,.7666-1.38575,3.64894,3.64894,0,0,1,1.14746-.93847,3.06622,3.06622,0,0,1,1.43164-.34277,2.76645,2.76645,0,0,1,1.06446.19921,2.356,2.356,0,0,1,.833.57813,2.67045,2.67045,0,0,1,.54589.92773,3.70086,3.70086,0,0,1,.19532,1.24219,4.99861,4.99861,0,0,1-.2793,1.67969,4.60068,4.60068,0,0,1-.7666,1.38574,3.65647,3.65647,0,0,1-1.15137.94238A3.05343,3.05343,0,0,1,182.625,73.09766Zm.1123-.97266a1.64066,1.64066,0,0,0,.93067-.28027,2.43868,2.43868,0,0,0,.71387-.74512,3.83782,3.83782,0,0,0,.45507-1.07422,4.96462,4.96462,0,0,0,.16114-1.27441,2.38217,2.38217,0,0,0-.38477-1.47657A1.32219,1.32219,0,0,0,183.5,66.77734a1.65335,1.65335,0,0,0-.93457.27637,2.44,2.44,0,0,0-.71.74219,3.813,3.813,0,0,0-.45508,1.07422,4.963,4.963,0,0,0-.16113,1.27343,2.41053,2.41053,0,0,0,.38183,1.48047A1.31555,1.31555,0,0,0,182.7373,72.125Z" style="fill:blue"/><path d="M187.252,73l1.25293-10.31055h1.22559L188.47656,73Z" style="fill:blue"/><path d="M190.48535,65.90918h1.00879a.31614.31614,0,0,1,.22363.07715.32587.32587,0,0,1,.1045.18164l1.05761,4.56445A4.48208,4.48208,0,0,1,192.96,71.25c.0166.17285.0293.34277.03906.51074q.07617-.252.16114-.50683a4.37525,4.37525,0,0,1,.21-.52149l2.19726-4.56445a.528.528,0,0,1,.1543-.18555.35419.35419,0,0,1,.2168-.07324h.97363L193.35547,73h-1.043Z" style="fill:blue"/><path d="M202.61035,67.42773a1.9164,1.9164,0,0,1-.18945.85059,1.7698,1.7698,0,0,1-.69238.7002,5.17692,5.17692,0,0,1-1.38672.543,15.30353,15.30353,0,0,1-2.26758.37012c-.00488.05176-.00684.10156-.00684.15137v.15039a2.18976,2.18976,0,0,0,.40918,1.43066,1.51336,1.51336,0,0,0,1.23535.49414,2.31547,2.31547,0,0,0,.59864-.07031,2.59562,2.59562,0,0,0,.46875-.1709,2.10246,2.10246,0,0,0,.36425-.22461c.10547-.081.20215-.15625.291-.22363.08789-.06738.16992-.125.24414-.17187a.42033.42033,0,0,1,.22461-.07032.30467.30467,0,0,1,.23047.11914l.30859.38575a6.56071,6.56071,0,0,1-.69629.63281,4.05239,4.05239,0,0,1-.69726.4375,3.09992,3.09992,0,0,1-.74512.25586,4.12022,4.12022,0,0,1-.83691.08008,2.78972,2.78972,0,0,1-1.0918-.20313,2.25331,2.25331,0,0,1-.81934-.57715,2.59288,2.59288,0,0,1-.51757-.90625,3.66606,3.66606,0,0,1-.18164-1.19043,5.20018,5.20018,0,0,1,.11523-1.08789,5.07583,5.07583,0,0,1,.33594-1.0332,4.65916,4.65916,0,0,1,.53906-.90918,3.627,3.627,0,0,1,.72754-.72461,3.40849,3.40849,0,0,1,.90332-.47949,3.13867,3.13867,0,0,1,1.06055-.17578,2.541,2.541,0,0,1,.93066.15429,1.96769,1.96769,0,0,1,.64453.39258,1.55162,1.55162,0,0,1,.374.52442A1.389,1.389,0,0,1,202.61035,67.42773Zm-2.14258-.7207a1.81882,1.81882,0,0,0-.81152.18164,2.17158,2.17158,0,0,0-.6582.501,3.05793,3.05793,0,0,0-.49024.749,4.4697,4.4697,0,0,0-.31445.92774,13.60462,13.60462,0,0,0,1.72852-.30469,4.29551,4.29551,0,0,0,1.001-.3711,1.07819,1.07819,0,0,0,.46192-.43066,1.08977,1.08977,0,0,0,.1123-.4834.68974.68974,0,0,0-.05566-.26172.71035.71035,0,0,0-.17871-.249.97824.97824,0,0,0-.31836-.18555A1.36977,1.36977,0,0,0,200.46777,66.707Z" style="fill:blue"/><path d="M203.24707,72.13867a.7664.7664,0,0,1,.22754-.55957.81019.81019,0,0,1,.60547-.23144.86.86,0,0,1,.37109.07714.77974.77974,0,0,1,.26953.21387.9649.9649,0,0,1,.16407.31445,1.30275,1.30275,0,0,1,.05566.38868,2.64634,2.64634,0,0,1-.08691.65429,3.18587,3.18587,0,0,1-.25977.67286,4.21832,4.21832,0,0,1-.416.64746,3.87509,3.87509,0,0,1-.55957.581l-.21777-.20312a.26159.26159,0,0,1-.09082-.19629.37857.37857,0,0,1,.11231-.2168c.07421-.08887.16113-.19531.25878-.31836a3.34894,3.34894,0,0,0,.28321-.42773A1.58955,1.58955,0,0,0,204.14941,73h-.084a.77367.77367,0,0,1-.59082-.24121A.866.866,0,0,1,203.24707,72.13867Z" style="fill:blue"/><path d="M121.71191,89.7998h-.64355a.38079.38079,0,0,1-.333-.126.53092.53092,0,0,1-.08691-.30762l.126-1.4209a5.88511,5.88511,0,0,1-.543.80567,3.738,3.738,0,0,1-.61524.61523,2.74073,2.74073,0,0,1-.68262.39258,2.02643,2.02643,0,0,1-.74218.13867,1.743,1.743,0,0,1-.7627-.16406,1.57918,1.57918,0,0,1-.585-.4834,2.33223,2.33223,0,0,1-.374-.78418,3.87971,3.87971,0,0,1-.13379-1.06738,4.78973,4.78973,0,0,1,.1582-1.22852,4.979,4.979,0,0,1,1.14453-2.10644,4.67124,4.67124,0,0,1,.90625-.77051,4.30375,4.30375,0,0,1,1.07422-.50391,4.02859,4.02859,0,0,1,1.2041-.17871,5.17,5.17,0,0,1,.88574.0752,3.61964,3.61964,0,0,1,.85059.25781Zm-3.05175-.93847a1.22875,1.22875,0,0,0,.67187-.21,2.55672,2.55672,0,0,0,.623-.582,5.06632,5.06632,0,0,0,.5498-.88575,8.0491,8.0491,0,0,0,.45117-1.126l.30079-2.39844a.48515.48515,0,0,0-.30372-.124h-.29785a2.45912,2.45912,0,0,0-.8125.13574,2.90256,2.90256,0,0,0-.73437.38086,3.27856,3.27856,0,0,0-.62305.583,3.79374,3.79374,0,0,0-.47949.74316,4.19067,4.19067,0,0,0-.31152.8623,3.90569,3.90569,0,0,0-.11231.93848Q117.582,88.86182,118.66016,88.86133Z" style="fill:blue"/><path d="M123.62305,89.7998l1.24609-10.31054h1.22461l-.61523,5.01172a5.98018,5.98018,0,0,1,.57324-.78028,3.89975,3.89975,0,0,1,.64453-.59863,2.92531,2.92531,0,0,1,.70019-.38184,2.096,2.096,0,0,1,.74122-.13671,1.67169,1.67169,0,0,1,1.40722.6582,3.12489,3.12489,0,0,1,.50391,1.9248,5.59355,5.59355,0,0,1-.11914,1.14844,5.87848,5.87848,0,0,1-.33887,1.0957,5.43264,5.43264,0,0,1-.53223.97266,4.18766,4.18766,0,0,1-.69336.78418,3.06672,3.06672,0,0,1-.8291.52148,2.39015,2.39015,0,0,1-.93847.18848,2.19733,2.19733,0,0,1-1.02539-.2373,2.00107,2.00107,0,0,1-.752-.67969l-.09082.45508a.6931.6931,0,0,1-.14355.27343.404.404,0,0,1-.29785.09082Zm4.0459-6.19531a1.29676,1.29676,0,0,0-.67872.21,2.87458,2.87458,0,0,0-.66211.58106,5.21985,5.21985,0,0,0-.59765.88183,6.80031,6.80031,0,0,0-.4834,1.12012l-.22363,1.8418a1.49288,1.49288,0,0,0,.63672.53515,1.92423,1.92423,0,0,0,.75586.15723,1.56252,1.56252,0,0,0,.68652-.1543,2.17955,2.17955,0,0,0,.58789-.416,3.02665,3.02665,0,0,0,.47559-.61621,4.31835,4.31835,0,0,0,.35351-.75586,5.24925,5.24925,0,0,0,.2207-.833,4.87529,4.87529,0,0,0,.07715-.85059,2.21362,2.21362,0,0,0-.30176-1.2666A.96908.96908,0,0,0,127.669,83.60449Z" style="fill:blue"/><path d="M133.44434,89.89746a2.76645,2.76645,0,0,1-1.06446-.19922,2.34078,2.34078,0,0,1-.833-.57715,2.67329,2.67329,0,0,1-.5459-.92382,3.67146,3.67146,0,0,1-.19629-1.2461,5.02406,5.02406,0,0,1,.28027-1.6875,4.57959,4.57959,0,0,1,.7666-1.38574A3.64181,3.64181,0,0,1,133,82.93945a3.06348,3.06348,0,0,1,1.43164-.34277,2.765,2.765,0,0,1,1.06348.19922,2.34726,2.34726,0,0,1,.833.57812,2.65553,2.65553,0,0,1,.5459.92774,3.67608,3.67608,0,0,1,.19629,1.24219,4.999,4.999,0,0,1-.28027,1.67968,4.57964,4.57964,0,0,1-.7666,1.38575,3.6566,3.6566,0,0,1-1.15137.94238A3.04954,3.04954,0,0,1,133.44434,89.89746Zm.1123-.97266a1.64515,1.64515,0,0,0,.93066-.28027,2.4498,2.4498,0,0,0,.71387-.74512,3.83735,3.83735,0,0,0,.45508-1.07421,4.96514,4.96514,0,0,0,.16113-1.27442,2.38856,2.38856,0,0,0-.38476-1.47656,1.32221,1.32221,0,0,0-1.11328-.49707,1.64883,1.64883,0,0,0-.93457.27637,2.44271,2.44271,0,0,0-.71094.74218,3.84158,3.84158,0,0,0-.45508,1.07422,4.96288,4.96288,0,0,0-.16016,1.27344,2.41739,2.41739,0,0,0,.38086,1.48047A1.31868,1.31868,0,0,0,133.55664,88.9248Z" style="fill:blue"/><path d="M139.93262,82.709l-.53223,4.50782c-.00879.09375-.0166.18164-.02441.26562-.00684.084-.00977.166-.00977.24512a1.4027,1.4027,0,0,0,.21289.85449.79655.79655,0,0,0,.67578.2793,1.43117,1.43117,0,0,0,.66114-.17481,2.6021,2.6021,0,0,0,.6582-.49707,4.08323,4.08323,0,0,0,.5918-.77636,5.80926,5.80926,0,0,0,.47558-1.01563L143.083,82.709h1.23926l-.8545,7.09082h-.61621a.514.514,0,0,1-.33594-.09765.36938.36938,0,0,1-.11914-.30176l.00782-.126c.0039-.0791.00976-.165.0166-.25879.00781-.09277.01465-.17968.02148-.25878s.01074-.1211.01074-.126l.04883-.56738a4.43562,4.43562,0,0,1-1.26757,1.36914,2.56737,2.56737,0,0,1-1.44141.46484,1.49229,1.49229,0,0,1-1.22852-.53906,2.39848,2.39848,0,0,1-.4375-1.54688c0-.09277.002-.18847.00684-.28711.00488-.09765.01367-.20019.02832-.30761l.53125-4.50782Z" style="fill:blue"/><path d="M145.918,88.46289c0-.02832.001-.06445.00391-.1084.002-.04492.00683-.1084.01367-.19238s.01757-.19434.03125-.3291c.01367-.13574.03515-.3125.06347-.53223l.44043-3.54883h-.791a.21906.21906,0,0,1-.15039-.05273.207.207,0,0,1-.05957-.16406c0-.01465.00293-.042.00683-.084q.00733-.063.01758-.14355c.00684-.05371.01465-.1084.02148-.165q.01026-.0835.01758-.16113l1.0918-.14649.52539-2.19141a.32943.32943,0,0,1,.10449-.17089.2771.2771,0,0,1,.18946-.06641h.65722l-.30761,2.44238h1.8623l-.10547.90332h-1.86914l-.42676,3.48633c-.02343.19141-.041.34473-.05273.46192-.01172.11621-.02051.21-.02735.27929-.00781.07031-.01171.11914-.01464.14746-.002.02832-.00293.04883-.00293.0625a.74228.74228,0,0,0,.16406.5293.59469.59469,0,0,0,.45117.1709.9064.9064,0,0,0,.32227-.05274,1.33429,1.33429,0,0,0,.24218-.11523c.06739-.042.124-.08008.1709-.11523a.21914.21914,0,0,1,.126-.05274.13015.13015,0,0,1,.08789.02832.36331.36331,0,0,1,.06641.09082l.25879.59473a2.51437,2.51437,0,0,1-.77344.47265,2.39656,2.39656,0,0,1-.87891.17188,1.49412,1.49412,0,0,1-1.07031-.37109A1.452,1.452,0,0,1,145.918,88.46289Z" style="fill:blue"/><path d="M158.66406,86.20215h1.51953l-.09765.68555a.319.319,0,0,1-.08789.18164.2799.2799,0,0,1-.21387.07714H158.5459l-.32227,2.65332h-1.09179l.3291-2.65332h-4.41016a.46208.46208,0,0,1-.25879-.07714.26573.26573,0,0,1-.13379-.19532l-.042-.60937,5.67774-6.4961h1.16113Zm-.5664-4.22168a2.8297,2.8297,0,0,1,.05566-.36035c.02832-.12793.06055-.25977.09863-.39551l-4.30566,4.97754h3.626Z" style="fill:blue"/><path d="M163.62012,89.7998l.85449-7.09765h.623a.37129.37129,0,0,1,.41992.41992l-.09863,1.2666a4.38875,4.38875,0,0,1,1.14843-1.333,2.20013,2.20013,0,0,1,1.31543-.45214,1.20611,1.20611,0,0,1,1.06446.49414,2.45557,2.45557,0,0,1,.34277,1.41015,4.15651,4.15651,0,0,1,1.19336-1.43847,2.37761,2.37761,0,0,1,1.38965-.46582,1.38024,1.38024,0,0,1,1.17285.51171,2.39116,2.39116,0,0,1,.38867,1.46973c0,.10742-.00488.21973-.01465.33594-.00879.11621-.02051.23828-.03418.36426l-.53222,4.51464h-1.22559l.53223-4.51464a5.10177,5.10177,0,0,0,.042-.62305,1.35954,1.35954,0,0,0-.17481-.77344.66844.66844,0,0,0-.58789-.249,1.34725,1.34725,0,0,0-.60254.15039,2.18676,2.18676,0,0,0-.581.44141,3.49727,3.49727,0,0,0-.52148.7207,5.92353,5.92353,0,0,0-.42969.99023l-.45508,3.85742h-1.23242l.53906-4.51464q.0205-.189.03516-.35743c.00879-.1123.01367-.21679.01367-.31445a1.30926,1.30926,0,0,0-.16406-.73535.65324.65324,0,0,0-.57813-.23828,1.356,1.356,0,0,0-.64746.168,2.14333,2.14333,0,0,0-.58789.48633,4.00534,4.00534,0,0,0-.51465.77734,7.63547,7.63547,0,0,0-.43359,1.03223l-.44141,3.69628Z" style="fill:blue"/><path d="M176.83594,82.709l-.85352,7.09082h-1.22558l.85449-7.09082Zm.46875-2.22656a.79288.79288,0,0,1-.07324.33985.96805.96805,0,0,1-.19629.28027.94486.94486,0,0,1-.27637.19238.76523.76523,0,0,1-.32129.07031.75224.75224,0,0,1-.31543-.07031.8666.8666,0,0,1-.26953-.19238.99366.99366,0,0,1-.18555-.28027.8208.8208,0,0,1-.07031-.33985.84776.84776,0,0,1,.07031-.34277.95292.95292,0,0,1,.46192-.47949.72715.72715,0,0,1,.31543-.07325.7652.7652,0,0,1,.32128.07032.92536.92536,0,0,1,.27735.19238.89887.89887,0,0,1,.19238.28711A.88477.88477,0,0,1,177.30469,80.48242Z" style="fill:blue"/><path d="M177.99805,89.7998l.84765-7.09765h.62207a.37159.37159,0,0,1,.4209.41992l-.10547,1.37207a4.38994,4.38994,0,0,1,1.27735-1.41406,2.61244,2.61244,0,0,1,1.47363-.47656,1.50288,1.50288,0,0,1,1.22852.53222,2.39353,2.39353,0,0,1,.4375,1.55371c0,.09375-.002.18946-.00684.28711-.00488.09864-.01367.20117-.02832.3086l-.53223,4.51464H182.3877l.53125-4.51464c.00976-.09375.01757-.1836.02441-.26954.00781-.08691.01074-.16894.01074-.249a1.38532,1.38532,0,0,0-.21387-.85058.79086.79086,0,0,0-.668-.27637,1.45531,1.45531,0,0,0-.68262.18262,2.646,2.646,0,0,0-.668.51367,4.15382,4.15382,0,0,0-.59863.80566,5.65767,5.65767,0,0,0-.47266,1.05274l-.40625,3.60546Z" style="fill:blue"/><path d="M187.34277,82.709l-.53222,4.50782c-.00879.09375-.0166.18164-.02442.26562-.00683.084-.00976.166-.00976.24512a1.4027,1.4027,0,0,0,.21289.85449.79654.79654,0,0,0,.67578.2793,1.43113,1.43113,0,0,0,.66113-.17481,2.60214,2.60214,0,0,0,.65821-.49707,4.0832,4.0832,0,0,0,.59179-.77636,5.81,5.81,0,0,0,.47559-1.01563l.4414-3.68848h1.23926l-.85449,7.09082h-.61621a.514.514,0,0,1-.33594-.09765.36938.36938,0,0,1-.11914-.30176l.00781-.126c.00391-.0791.00977-.165.0166-.25879.00782-.09277.01465-.17968.02149-.25878s.01074-.1211.01074-.126l.04883-.56738a4.43552,4.43552,0,0,1-1.26758,1.36914,2.56732,2.56732,0,0,1-1.44141.46484,1.49227,1.49227,0,0,1-1.22851-.53906,2.39848,2.39848,0,0,1-.4375-1.54688c0-.09277.00195-.18847.00684-.28711.00488-.09765.01367-.20019.02832-.30761l.53125-4.50782Z" style="fill:blue"/><path d="M193.32812,88.46289c0-.02832.001-.06445.00391-.1084.00195-.04492.00684-.1084.01367-.19238s.01758-.19434.03125-.3291c.01367-.13574.03516-.3125.06348-.53223l.44043-3.54883h-.791a.21908.21908,0,0,1-.15039-.05273.207.207,0,0,1-.05957-.16406c0-.01465.00293-.042.00684-.084q.00732-.063.01758-.14355c.00683-.05371.01465-.1084.02148-.165q.01026-.0835.01758-.16113l1.0918-.14649.52539-2.19141a.32937.32937,0,0,1,.10449-.17089.27709.27709,0,0,1,.18945-.06641h.65723l-.30762,2.44238h1.86231l-.10547.90332H195.0918l-.42676,3.48633c-.02344.19141-.041.34473-.05274.46192-.01171.11621-.0205.21-.02734.27929-.00781.07031-.01172.11914-.01465.14746-.00195.02832-.00293.04883-.00293.0625a.74228.74228,0,0,0,.16407.5293.59469.59469,0,0,0,.45117.1709.90631.90631,0,0,0,.32226-.05274,1.3344,1.3344,0,0,0,.24219-.11523c.06738-.042.124-.08008.1709-.11523a.21911.21911,0,0,1,.126-.05274.13019.13019,0,0,1,.08789.02832.36357.36357,0,0,1,.0664.09082l.25879.59473a2.51414,2.51414,0,0,1-.77344.47265,2.39655,2.39655,0,0,1-.8789.17188,1.49412,1.49412,0,0,1-1.07031-.37109A1.452,1.452,0,0,1,193.32812,88.46289Z" style="fill:blue"/><path d="M203.17676,84.22754a1.91576,1.91576,0,0,1-.18848.85058,1.77287,1.77287,0,0,1-.69336.7002,5.16868,5.16868,0,0,1-1.38574.543,15.29865,15.29865,0,0,1-2.26856.37012c-.0039.05175-.00683.10156-.00683.15136v.15039a2.18427,2.18427,0,0,0,.41016,1.43067,1.512,1.512,0,0,0,1.23535.49414,2.32644,2.32644,0,0,0,.59863-.07031,2.59714,2.59714,0,0,0,.46875-.1709,2.1407,2.1407,0,0,0,.36426-.22461c.10449-.08106.20117-.15625.29-.22363s.16992-.125.24511-.17188a.41731.41731,0,0,1,.22364-.07031.308.308,0,0,1,.23144.11914l.30762.38574a6.37486,6.37486,0,0,1-.6963.63281,4.04421,4.04421,0,0,1-.69628.4375,3.107,3.107,0,0,1-.74609.25586,4.11043,4.11043,0,0,1-.83594.08008,2.78291,2.78291,0,0,1-1.0918-.20312,2.24524,2.24524,0,0,1-.81933-.57715,2.59283,2.59283,0,0,1-.51758-.90625,3.63964,3.63964,0,0,1-.18262-1.19043,5.26586,5.26586,0,0,1,.11524-1.08789,5.13629,5.13629,0,0,1,.33593-1.03321,4.70786,4.70786,0,0,1,.53907-.90918,3.63151,3.63151,0,0,1,.72851-.72461,3.39347,3.39347,0,0,1,.90332-.47949,3.13079,3.13079,0,0,1,1.06055-.17578,2.54823,2.54823,0,0,1,.93066.1543,1.973,1.973,0,0,1,.64356.39258,1.56842,1.56842,0,0,1,.375.52441A1.40449,1.40449,0,0,1,203.17676,84.22754Zm-2.1416-.7207a1.82583,1.82583,0,0,0-.8125.18164,2.156,2.156,0,0,0-.65723.501,3.03023,3.03023,0,0,0-.49023.749,4.47,4.47,0,0,0-.31543.92773,13.65657,13.65657,0,0,0,1.72949-.30469,4.31279,4.31279,0,0,0,1.001-.37109,1.084,1.084,0,0,0,.46192-.43066,1.10308,1.10308,0,0,0,.1123-.4834.7065.7065,0,0,0-.23535-.51075.968.968,0,0,0-.31836-.18554A1.36368,1.36368,0,0,0,201.03516,83.50684Z" style="fill:blue"/><path d="M208.52539,83.84277a.46245.46245,0,0,1-.1123.12207.23565.23565,0,0,1-.13965.03907.39048.39048,0,0,1-.21387-.07715c-.07715-.05078-.16992-.1084-.28027-.17188a2.292,2.292,0,0,0-.40235-.1748,2.013,2.013,0,0,0-1.14746.00683,1.43005,1.43005,0,0,0-.44824.24219,1.08113,1.08113,0,0,0-.291.36035.98208.98208,0,0,0-.10156.4375.66751.66751,0,0,0,.21778.52442,1.98829,1.98829,0,0,0,.54589.33984c.21875.0957.45606.18848.71.27637a3.65617,3.65617,0,0,1,.71094.33594,1.82058,1.82058,0,0,1,.5459.51855,1.414,1.414,0,0,1,.2168.81836,2.35963,2.35963,0,0,1-.19239.93848,2.32643,2.32643,0,0,1-.55273.78711,2.73627,2.73627,0,0,1-.86816.543,3.05392,3.05392,0,0,1-1.1377.20313,2.826,2.826,0,0,1-1.20019-.24219,2.48333,2.48333,0,0,1-.85059-.61914l.30762-.47558a.44134.44134,0,0,1,.13379-.14063.35958.35958,0,0,1,.19531-.04883.34745.34745,0,0,1,.22461.09766c.07422.06543.168.13965.27929.2207a1.72252,1.72252,0,0,0,1.07129.31836,1.72287,1.72287,0,0,0,.61914-.10449,1.46163,1.46163,0,0,0,.46973-.28027,1.19294,1.19294,0,0,0,.29395-.40918,1.25191,1.25191,0,0,0,.10156-.501.75257.75257,0,0,0-.21777-.56641,1.76413,1.76413,0,0,0-.5459-.35058c-.21875-.09278-.45508-.18067-.707-.2627a3.57866,3.57866,0,0,1-.707-.31445,1.71854,1.71854,0,0,1-.54589-.501,1.39286,1.39286,0,0,1-.2168-.81836,2.176,2.176,0,0,1,.17871-.86523,2.23083,2.23083,0,0,1,.51465-.73828,2.53162,2.53162,0,0,1,.81543-.51465,2.8859,2.8859,0,0,1,1.08105-.19238,2.77066,2.77066,0,0,1,1.124.21386,2.5997,2.5997,0,0,1,.83593.57715Z" style="fill:blue"/></g><g style="isolation:isolate"><path d="M121.82031,52.7832c.02637.09082.05078.18555.07422.28418a4.27474,4.27474,0,0,1,.29395-.56738l3.94043-6.30664a.40007.40007,0,0,1,.20019-.19238.94172.94172,0,0,1,.27637-.03223h.97265L126.34668,56h-1.14844l.917-7.41309c.00977-.09277.02442-.19336.0459-.30078.02051-.10742.043-.21972.06641-.33593l-3.89942,6.28613a.56879.56879,0,0,1-.51074.30078h-.18261a.43815.43815,0,0,1-.44043-.30078l-2.415-6.30078c-.00489.1123-.00977.22168-.01368.3291-.00488.10742-.01171.208-.02148.30176L117.834,56h-1.15429L117.918,45.96875h.959a.94172.94172,0,0,1,.27637.03223.273.273,0,0,1,.1582.19238L121.74023,52.5C121.76855,52.59766,121.79492,52.69238,121.82031,52.7832Z" style="fill:blue"/><path d="M130.61621,48.90918,129.7627,56h-1.22559l.85449-7.09082Zm.46875-2.22656a.79266.79266,0,0,1-.07324.33984.96792.96792,0,0,1-.19629.28027.94476.94476,0,0,1-.27637.19239.76539.76539,0,0,1-.32129.07031.75239.75239,0,0,1-.31543-.07031.86663.86663,0,0,1-.26953-.19239.99327.99327,0,0,1-.18554-.28027.82057.82057,0,0,1-.07032-.33984.84765.84765,0,0,1,.07032-.34278.95284.95284,0,0,1,.46191-.47949.72717.72717,0,0,1,.31543-.07324.76539.76539,0,0,1,.32129.07031.9255.9255,0,0,1,.27734.19238.89881.89881,0,0,1,.19238.28711A.88482.88482,0,0,1,131.085,46.68262Z" style="fill:blue"/><path d="M133.80078,52.18457l-1.70117-3.27539h1.11328a.38376.38376,0,0,1,.19922.03809.34483.34483,0,0,1,.10937.13671l1.18946,2.43555q.03516-.07617.07324-.14648a1.59727,1.59727,0,0,1,.09473-.14746l1.60351-2.12012a.82841.82841,0,0,1,.13965-.14746.24488.24488,0,0,1,.1543-.04883h1.127l-2.53418,3.2832L137.25879,56h-1.11231a.30438.30438,0,0,1-.21777-.07324.63558.63558,0,0,1-.126-.17188l-1.33691-2.835a1.79122,1.79122,0,0,1-.14648.26563l-1.93262,2.57617a.88032.88032,0,0,1-.15332.168.31717.31717,0,0,1-.21.07031h-1.09278Z" style="fill:blue"/><path d="M143.01953,48.90918,142.4873,53.417c-.00878.09375-.0166.18164-.02441.26563-.00684.084-.00977.166-.00977.24511a1.40273,1.40273,0,0,0,.2129.8545.79652.79652,0,0,0,.67578.27929,1.43111,1.43111,0,0,0,.66113-.1748,2.60216,2.60216,0,0,0,.6582-.49707,4.08331,4.08331,0,0,0,.5918-.77637,5.80989,5.80989,0,0,0,.47559-1.01562l.4414-3.68848h1.23926L146.55469,56h-.61621a.514.514,0,0,1-.33594-.09766.36936.36936,0,0,1-.11914-.30175l.00781-.126c.00391-.0791.00977-.165.0166-.25879.00781-.09277.01465-.17969.02149-.25879s.01074-.12109.01074-.126l.04883-.56738a4.43541,4.43541,0,0,1-1.26758,1.36914,2.56728,2.56728,0,0,1-1.44141.46485,1.49225,1.49225,0,0,1-1.22851-.53907,2.39845,2.39845,0,0,1-.4375-1.54687c0-.09277.002-.18848.00683-.28711.00489-.09766.01368-.2002.02832-.30762l.53125-4.50781Z" style="fill:blue"/><path d="M148.38867,56l.84766-7.09766h.62207a.3716.3716,0,0,1,.4209.41993l-.10547,1.37207a4.39018,4.39018,0,0,1,1.27734-1.41407,2.61246,2.61246,0,0,1,1.47363-.47656,1.50286,1.50286,0,0,1,1.22852.53223,2.39351,2.39351,0,0,1,.4375,1.55371c0,.09375-.002.18945-.00684.28711-.00488.09863-.01367.20117-.02832.30859L154.02344,56h-1.24512l.53125-4.51465c.00977-.09375.01758-.18359.02441-.26953.00782-.08691.01075-.16894.01075-.249a1.38533,1.38533,0,0,0-.21387-.85059.7909.7909,0,0,0-.668-.27637,1.45537,1.45537,0,0,0-.68262.18262,2.646,2.646,0,0,0-.668.51367,4.15431,4.15431,0,0,0-.59863.80567,5.65755,5.65755,0,0,0-.47265,1.05273L149.63477,56Z" style="fill:blue"/><path d="M156.36816,54.66309c0-.02832.002-.06446.00391-.1084.00195-.04492.00684-.1084.01367-.19239.00781-.084.01758-.19433.03223-.3291.01367-.13574.03418-.3125.0625-.53222l.44141-3.54883h-.791a.21736.21736,0,0,1-.15039-.05274.207.207,0,0,1-.05957-.16406.8402.8402,0,0,1,.00683-.084q.00733-.063.01758-.14356c.00684-.05371.01367-.1084.02051-.165q.01026-.08349.01758-.16113l1.0918-.14648.52539-2.19141a.331.331,0,0,1,.10546-.1709.27464.27464,0,0,1,.18848-.0664h.6582l-.30859,2.44238h1.86231l-.1045.90332h-1.86914l-.42676,3.48633c-.02343.1914-.041.34472-.05273.46191-.01172.11621-.02148.21-.02832.2793-.00684.07031-.01172.11914-.01367.14746-.00293.02832-.00391.04883-.00391.0625a.738.738,0,0,0,.165.5293.59475.59475,0,0,0,.45117.17089.914.914,0,0,0,.32227-.05273,1.32336,1.32336,0,0,0,.24121-.11523c.06738-.042.125-.08008.17187-.11524a.21427.21427,0,0,1,.126-.05273.12574.12574,0,0,1,.08692.02832.3404.3404,0,0,1,.0664.09082l.25977.59472a2.53066,2.53066,0,0,1-.77442.47266,2.38767,2.38767,0,0,1-.87793.17187,1.49662,1.49662,0,0,1-1.07129-.37109A1.45964,1.45964,0,0,1,156.36816,54.66309Z" style="fill:blue"/><path d="M162.79492,48.90918,161.94043,56h-1.22461l.85352-7.09082Zm.46875-2.22656a.79266.79266,0,0,1-.07324.33984,1.0069,1.0069,0,0,1-.19629.28027.95784.95784,0,0,1-.27637.19239.7665.7665,0,0,1-.32226.07031.75567.75567,0,0,1-.31543-.07031.85143.85143,0,0,1-.26856-.19239.97319.97319,0,0,1-.18554-.28027.82057.82057,0,0,1-.07032-.33984.84765.84765,0,0,1,.07032-.34278.9425.9425,0,0,1,.46191-.47949.723.723,0,0,1,.31445-.07324.76651.76651,0,0,1,.32227.07031.92131.92131,0,0,1,.27637.19238.88338.88338,0,0,1,.19238.28711A.86858.86858,0,0,1,163.26367,46.68262Z" style="fill:blue"/><path d="M164.07617,56l1.25293-10.31055h1.22461L165.30078,56Z" style="fill:blue"/><path d="M170.04,56l1.24512-10.31055h1.22558l-.61621,5.01172a5.98758,5.98758,0,0,1,.57422-.78027,3.89454,3.89454,0,0,1,.64355-.59863,2.96286,2.96286,0,0,1,.7002-.38184,2.10121,2.10121,0,0,1,.74219-.13672,1.67293,1.67293,0,0,1,1.40722.6582,3.1249,3.1249,0,0,1,.50391,1.92481,5.66264,5.66264,0,0,1-.11914,1.14844,5.80845,5.80845,0,0,1-.33984,1.0957,5.37287,5.37287,0,0,1-.53223.97266,4.18413,4.18413,0,0,1-.69238.78418,3.08719,3.08719,0,0,1-.83008.52148,2.38541,2.38541,0,0,1-.9375.18848,2.19734,2.19734,0,0,1-1.02539-.23731,2.01105,2.01105,0,0,1-.75293-.67969l-.09082.45508a.66893.66893,0,0,1-.14356.27344A.40242.40242,0,0,1,170.7041,56Zm4.0459-6.19531a1.29732,1.29732,0,0,0-.67969.21,2.85041,2.85041,0,0,0-.66113.581,5.16576,5.16576,0,0,0-.59864.88184,6.88429,6.88429,0,0,0-.48339,1.12012l-.22364,1.84179a1.4986,1.4986,0,0,0,.63672.53516,1.93267,1.93267,0,0,0,.75684.15723,1.55842,1.55842,0,0,0,.68554-.1543,2.16448,2.16448,0,0,0,.5879-.416,3.03018,3.03018,0,0,0,.47656-.61621,4.31729,4.31729,0,0,0,.35351-.75586,5.24692,5.24692,0,0,0,.21973-.833,4.78325,4.78325,0,0,0,.07715-.85059,2.22193,2.22193,0,0,0-.30078-1.2666A.97138.97138,0,0,0,174.08594,49.80469Z" style="fill:blue"/><path d="M179.86035,56.09766a2.7664,2.7664,0,0,1-1.06445-.19922,2.34116,2.34116,0,0,1-.833-.57715,2.67334,2.67334,0,0,1-.5459-.92383,3.67144,3.67144,0,0,1-.19629-1.24609,5.02373,5.02373,0,0,1,.28028-1.6875,4.57964,4.57964,0,0,1,.7666-1.38575,3.64165,3.64165,0,0,1,1.14844-.93847,3.06333,3.06333,0,0,1,1.43164-.34277,2.76489,2.76489,0,0,1,1.06347.19921,2.34733,2.34733,0,0,1,.833.57813,2.65548,2.65548,0,0,1,.5459.92773,3.67613,3.67613,0,0,1,.19629,1.24219,4.99882,4.99882,0,0,1-.28028,1.67969,4.57959,4.57959,0,0,1-.7666,1.38574,3.65643,3.65643,0,0,1-1.15136.94238A3.04956,3.04956,0,0,1,179.86035,56.09766Zm.11231-.97266a1.64515,1.64515,0,0,0,.93066-.28027,2.45,2.45,0,0,0,.71387-.74512,3.83783,3.83783,0,0,0,.45508-1.07422,4.96506,4.96506,0,0,0,.16113-1.27441,2.38861,2.38861,0,0,0-.38477-1.47657,1.32219,1.32219,0,0,0-1.11328-.49707,1.64886,1.64886,0,0,0-.93457.27637,2.44276,2.44276,0,0,0-.71094.74219,3.84157,3.84157,0,0,0-.45507,1.07422,4.96236,4.96236,0,0,0-.16016,1.27343,2.41731,2.41731,0,0,0,.38086,1.48047A1.31863,1.31863,0,0,0,179.97266,55.125Z" style="fill:blue"/><path d="M184.9834,54.66309c0-.02832.002-.06446.0039-.1084.002-.04492.00684-.1084.01368-.19239.00781-.084.01757-.19433.03222-.3291.01368-.13574.03418-.3125.0625-.53222l.44141-3.54883h-.791a.21739.21739,0,0,1-.15039-.05274.207.207,0,0,1-.05957-.16406.84125.84125,0,0,1,.00684-.084q.00732-.063.01758-.14356c.00683-.05371.01367-.1084.0205-.165q.01026-.08349.01758-.16113l1.0918-.14648.52539-2.19141a.331.331,0,0,1,.10547-.1709.27462.27462,0,0,1,.18848-.0664h.6582l-.30859,2.44238h1.8623l-.10449.90332h-1.86914l-.42676,3.48633c-.02344.1914-.041.34472-.05274.46191-.01171.11621-.02148.21-.02832.2793-.00683.07031-.01171.11914-.01367.14746-.00293.02832-.0039.04883-.0039.0625a.73793.73793,0,0,0,.165.5293.59472.59472,0,0,0,.45117.17089.91394.91394,0,0,0,.32226-.05273,1.323,1.323,0,0,0,.24121-.11523c.06739-.042.125-.08008.17188-.11524a.21424.21424,0,0,1,.126-.05273.12573.12573,0,0,1,.08691.02832.3404.3404,0,0,1,.06641.09082l.25976.59472a2.53061,2.53061,0,0,1-.77441.47266,2.38774,2.38774,0,0,1-.87793.17187,1.4966,1.4966,0,0,1-1.07129-.37109A1.4596,1.4596,0,0,1,184.9834,54.66309Z" style="fill:blue"/><path d="M189.21973,56l1.24511-10.31055h1.2461l-.58106,4.78711a4.20142,4.20142,0,0,1,1.22852-1.249,2.57432,2.57432,0,0,1,1.38281-.42383,1.509,1.509,0,0,1,1.23926.53223,2.39727,2.39727,0,0,1,.43359,1.54687c0,.09375-.00195.19043-.00683.291-.00489.09961-.01368.2041-.02832.31152L194.84766,56h-1.2461l.53125-4.51465c.00977-.09375.01758-.18359.02539-.26953.00684-.08691.00977-.16894.00977-.249a1.40619,1.40619,0,0,0-.21289-.85352.79706.79706,0,0,0-.67578-.28027,1.40972,1.40972,0,0,0-.64746.17187,2.6264,2.6264,0,0,0-.64746.48633,4.07688,4.07688,0,0,0-.5879.75977,5.60957,5.60957,0,0,0-.47656.99023L190.46484,56Z" style="fill:blue"/></g><g id="timer"><path d="M20,29.24512a9.24512,9.24512,0,0,1,0-18.49024H50a9.24512,9.24512,0,0,1,0,18.49024Z" style="fill:#fff;fill-rule:evenodd"/><path d="M50,11.5102a8.4898,8.4898,0,0,1,0,16.9796H20a8.4898,8.4898,0,0,1,0-16.9796H50M50,10H20A10.02939,10.02939,0,0,0,10,20v0A10.02938,10.02938,0,0,0,20,30H50A10.02938,10.02938,0,0,0,60,20v0A10.02939,10.02939,0,0,0,50,10Z" style="fill:#ccc"/><path d="M23.06494,23.77832h2.15625V16.93945q0-.3076.02051-.623l-1.792,1.5332a.45453.45453,0,0,1-.13965.08008.40086.40086,0,0,1-.32227-.02051.34844.34844,0,0,1-.126-.1084l-.39161-.53906,2.98243-2.583h1.01465v9.09961h1.97363v.95215h-5.376Z"/><path d="M30.07275,18.71094a.88014.88014,0,0,1,.06641-.34375.86305.86305,0,0,1,.18164-.2793.87022.87022,0,0,1,.96289-.18945.89427.89427,0,0,1,.2793.18945.84217.84217,0,0,1,.18555.2793.88013.88013,0,0,1,.0664.34375.866.866,0,0,1-.0664.3457.84993.84993,0,0,1-.18555.27637.83693.83693,0,0,1-.2793.18554.90791.90791,0,0,1-.68652,0,.7966.7966,0,0,1-.27637-.18554.87722.87722,0,0,1-.248-.62207Zm0,5.25a.88014.88014,0,0,1,.06641-.34375.86305.86305,0,0,1,.18164-.2793.87022.87022,0,0,1,.96289-.18945.89427.89427,0,0,1,.2793.18945.84217.84217,0,0,1,.18555.2793.88013.88013,0,0,1,.0664.34375.866.866,0,0,1-.0664.3457.84993.84993,0,0,1-.18555.27637.83693.83693,0,0,1-.2793.18554.90791.90791,0,0,1-.68652,0,.7966.7966,0,0,1-.27637-.18554.87722.87722,0,0,1-.248-.62207Z"/><path d="M40.40381,19.71875a8.09592,8.09592,0,0,1-.28418,2.27832,4.742,4.742,0,0,1-.77344,1.59277,3.10278,3.10278,0,0,1-1.1582.9375,3.47509,3.47509,0,0,1-2.86328,0,3.12871,3.12871,0,0,1-1.15137-.9375,4.7202,4.7202,0,0,1-.76953-1.59277,8.21452,8.21452,0,0,1-.28027-2.27832,8.24888,8.24888,0,0,1,.28027-2.28223,4.75787,4.75787,0,0,1,.76953-1.59961,3.12107,3.12107,0,0,1,1.15137-.9414,3.48518,3.48518,0,0,1,2.86328,0,3.09524,3.09524,0,0,1,1.1582.9414,4.77977,4.77977,0,0,1,.77344,1.59961A8.12976,8.12976,0,0,1,40.40381,19.71875Zm-1.29492,0A8.22187,8.22187,0,0,0,38.9165,17.79,3.88415,3.88415,0,0,0,38.398,16.5332a1.95614,1.95614,0,0,0-.752-.68261,2.02142,2.02142,0,0,0-1.77832,0,1.929,1.929,0,0,0-.749.68261A3.90755,3.90755,0,0,0,34.604,17.79a8.22192,8.22192,0,0,0-.19238,1.92871,8.18056,8.18056,0,0,0,.19238,1.9248,3.9108,3.9108,0,0,0,.51465,1.25293,1.929,1.929,0,0,0,.749.68262,2.02142,2.02142,0,0,0,1.77832,0,1.95609,1.95609,0,0,0,.752-.68262,3.8874,3.8874,0,0,0,.51855-1.25293A8.1805,8.1805,0,0,0,39.10889,19.71875Z"/><path d="M48.52393,19.71875a8.09592,8.09592,0,0,1-.28418,2.27832,4.742,4.742,0,0,1-.77344,1.59277,3.10278,3.10278,0,0,1-1.1582.9375,3.47512,3.47512,0,0,1-2.86329,0,3.12868,3.12868,0,0,1-1.15136-.9375,4.7202,4.7202,0,0,1-.76953-1.59277,8.21412,8.21412,0,0,1-.28028-2.27832,8.24848,8.24848,0,0,1,.28028-2.28223,4.75787,4.75787,0,0,1,.76953-1.59961,3.121,3.121,0,0,1,1.15136-.9414,3.4852,3.4852,0,0,1,2.86329,0,3.09524,3.09524,0,0,1,1.1582.9414,4.77977,4.77977,0,0,1,.77344,1.59961A8.12976,8.12976,0,0,1,48.52393,19.71875Zm-1.29493,0A8.22192,8.22192,0,0,0,47.03662,17.79a3.88459,3.88459,0,0,0-.51855-1.25684,1.95616,1.95616,0,0,0-.752-.68261,2.02142,2.02142,0,0,0-1.77832,0,1.929,1.929,0,0,0-.749.68261A3.90755,3.90755,0,0,0,42.72412,17.79a8.22192,8.22192,0,0,0-.19238,1.92871,8.18056,8.18056,0,0,0,.19238,1.9248,3.9108,3.9108,0,0,0,.51465,1.25293,1.929,1.929,0,0,0,.749.68262,2.02142,2.02142,0,0,0,1.77832,0,1.95611,1.95611,0,0,0,.752-.68262,3.88785,3.88785,0,0,0,.51855-1.25293A8.18056,8.18056,0,0,0,47.229,19.71875Z"/></g></svg>