<svg id="DO_-_2G" data-name="DO - 2G" xmlns="http://www.w3.org/2000/svg" viewBox="0 0 226 200"><rect id="back" width="226" height="200" style="fill:none"/><g id="tablet2"><path id="tablet_fill" data-name="tablet fill" d="M116,122.24307a3.57227,3.57227,0,1,1,3.5-3.57178A3.54043,3.54043,0,0,1,116,122.24307Z" style="fill:#fff;fill-rule:evenodd"/><path id="tablet_outline" data-name="tablet outline" d="M116,115.6a3.07227,3.07227,0,1,1-3,3.07142A3.03977,3.03977,0,0,1,116,115.6m0-1a4.07206,4.07206,0,1,0,4,4.07142A4.03618,4.03618,0,0,0,116,114.6Z" style="fill:#333"/></g><g id="tablet1"><path id="tablet_fill-2" data-name="tablet fill" d="M110,115.64307a3.57227,3.57227,0,1,1,3.5-3.57178A3.54043,3.54043,0,0,1,110,115.64307Z" style="fill:#fff;fill-rule:evenodd"/><path id="tablet_outline-2" data-name="tablet outline" d="M110,109a3.07227,3.07227,0,1,1-3,3.07142A3.03977,3.03977,0,0,1,110,109m0-1a4.07206,4.07206,0,1,0,4,4.07142A4.03618,4.03618,0,0,0,110,108Z" style="fill:#333"/></g><g id="vial_w_cap" data-name="vial w cap"><g id="vial"><path id="water_25_" data-name="water 25%" d="M119.48132,80.36464V76.57673a1.22813,1.22813,0,0,0,0-2.40887v-.80353a1.2271,1.2271,0,0,0,0-2.40722,1.04845,1.04845,0,0,0-.98323-1.112l-10.97936,0a1,1,0,0,0-1,1v1.43457a1.23686,1.23686,0,0,0,0,2.45771v.7547a1.23685,1.23685,0,0,0,0,2.4577v2.41486H105.5a1,1,0,0,0-1,1V123.243a1,1,0,0,0,1,1h15a1,1,0,0,0,1-1V81.36464a1,1,0,0,0-1-1Z" style="fill:#d1eef3;fill-opacity:0.25"/><path id="tube" d="M120.5,124.74316h-15a1.50164,1.50164,0,0,1-1.5-1.5V81.36475a1.50164,1.50164,0,0,1,1.5-1.5h.51855V78.333a1.72209,1.72209,0,0,1-1.085-1.417,1.756,1.756,0,0,1,1.07178-1.8003,1.72359,1.72359,0,0,1-1.07178-1.41211,1.75542,1.75542,0,0,1,1.085-1.80566V70.84521a1.50165,1.50165,0,0,1,1.5-1.5h10.9795a1.51713,1.51713,0,0,1,1.44336,1.24024,1.72048,1.72048,0,0,1,.04,3.13184V73.814a1.7222,1.7222,0,0,1,0,3.11573v2.93506H120.5a1.50164,1.50164,0,0,1,1.5,1.5v41.87841A1.50164,1.50164,0,0,1,120.5,124.74316Zm-15-43.87841a.50034.50034,0,0,0-.5.5v41.87841a.50065.50065,0,0,0,.5.5h15a.50065.50065,0,0,0,.5-.5V81.36475a.50034.50034,0,0,0-.5-.5h-1.51855V76.17432l.39306-.08594a.74111.74111,0,0,0,.59082-.79443.732.732,0,0,0-.58984-.63721l-.394-.08545V72.96191l.39306-.08593a.7413.7413,0,0,0,.59082-.79493.73379.73379,0,0,0-.59131-.63574l-.39257-.08593V70.957a.55969.55969,0,0,0-.4834-.61182h-10.9795a.50035.50035,0,0,0-.5.5v1.876l-.438.05469a.75133.75133,0,0,0-.65284.82031.739.739,0,0,0,.6543.645l.43652.05615v1.63623l-.438.05469a.75133.75133,0,0,0-.65284.82031.739.739,0,0,0,.6543.645l.43652.05616v3.355Z" style="fill:#333"/><rect id="thread_2" data-name="thread 2" x="106.6483" y="73.61755" width="12.89822" height="1.00025" transform="translate(-7.4866 12.92984) rotate(-6.33401)" style="fill:#333;opacity:0.30000000000000004"/><rect id="thread_1" data-name="thread 1" x="106.70398" y="76.83527" width="12.83373" height="1.00035" transform="translate(-7.90387 13.06946) rotate(-6.38961)" style="fill:#333;opacity:0.30000000000000004"/></g><g id="cap"><g id="cap-2" data-name="cap"><rect x="103.55469" y="65.81152" width="18.89063" height="11.89063" style="fill:#333"/><path d="M121.89021,66.36662V77.147H104.10979V66.36662h17.78042M123,65.25684H103v13h20v-13Z" style="fill:#333"/></g><rect x="121" y="65.25684" width="1" height="11" style="fill:#fff;opacity:0.25"/><rect x="118.75" y="65.25684" width="1" height="11" style="fill:#fff;opacity:0.25"/><rect x="115.5" y="65.25684" width="1" height="11" style="fill:#fff;opacity:0.25"/><rect x="112.5" y="65.25684" width="1" height="11" style="fill:#fff;opacity:0.25"/><rect x="109.5" y="65.25684" width="1" height="11" style="fill:#fff;opacity:0.25"/><rect x="106.25" y="65.25684" width="1" height="11" style="fill:#fff;opacity:0.25"/><rect x="104" y="65.25684" width="1" height="11" style="fill:#fff;opacity:0.25"/></g></g><g style="isolation:isolate"><path d="M138.041,52.52344a.83181.83181,0,0,1-.14747.15039.2707.2707,0,0,1-.168.05176.38364.38364,0,0,1-.252-.12207,3.27463,3.27463,0,0,0-.33886-.26563,2.74129,2.74129,0,0,0-.501-.2666,1.93494,1.93494,0,0,0-.73535-.12207,2.145,2.145,0,0,0-.79785.13965,1.72892,1.72892,0,0,0-.59082.38183,1.61129,1.61129,0,0,0-.36817.56348,1.88364,1.88364,0,0,0-.126.69238,1.07612,1.07612,0,0,0,.168.61328,1.5368,1.5368,0,0,0,.44141.42676,3.31447,3.31447,0,0,0,.626.31445c.23535.0918.47558.18457.71777.28028s.48145.20215.7168.31836a2.53637,2.53637,0,0,1,.62695.43457,2.0167,2.0167,0,0,1,.44141.623,2.10164,2.10164,0,0,1,.168.88184,3.71274,3.71274,0,0,1-.24512,1.34766,3.2809,3.2809,0,0,1-.7041,1.10937,3.35645,3.35645,0,0,1-1.10938.75586,3.66947,3.66947,0,0,1-1.46289.28027,3.51673,3.51673,0,0,1-1.59961-.35351,3.27046,3.27046,0,0,1-1.1582-.95606l.46191-.623a.47966.47966,0,0,1,.13965-.126.36282.36282,0,0,1,.18262-.04883.42413.42413,0,0,1,.28613.15723,4.848,4.848,0,0,0,.39258.35059,2.66451,2.66451,0,0,0,.58789.3496,2.12824,2.12824,0,0,0,.875.15723,2.34257,2.34257,0,0,0,.87109-.15332,1.83421,1.83421,0,0,0,1.0752-1.082,2.31077,2.31077,0,0,0,.14746-.84277,1.147,1.147,0,0,0-.168-.64063,1.46371,1.46371,0,0,0-.44141-.43066,3.26285,3.26285,0,0,0-.61914-.30469q-.34716-.12891-.71484-.2627a7.297,7.297,0,0,1-.71387-.30078,2.42738,2.42738,0,0,1-.61914-.42675,1.94648,1.94648,0,0,1-.44043-.63672,2.273,2.273,0,0,1-.16894-.93164A3.20848,3.20848,0,0,1,133,52.82422a3.04828,3.04828,0,0,1,.64453-1.001,3.13453,3.13453,0,0,1,1.02149-.69336,3.407,3.407,0,0,1,1.35839-.25879,3.17,3.17,0,0,1,1.38575.29395,2.796,2.796,0,0,1,1.01562.80469Z" style="fill:blue"/><path d="M143.44141,60.39062a3.24665,3.24665,0,0,1-.6543.42383,2.65028,2.65028,0,0,1-.68359.22071,4.32711,4.32711,0,0,1-.75977.0625,2.64351,2.64351,0,0,1-1.08789-.21,2.16167,2.16167,0,0,1-.791-.59082,2.60038,2.60038,0,0,1-.48242-.917,3.982,3.982,0,0,1-.165-1.17968,5.08787,5.08787,0,0,1,.26953-1.65235,4.62275,4.62275,0,0,1,.75293-1.39941,3.76223,3.76223,0,0,1,1.14746-.97364,3.0024,3.0024,0,0,1,1.46387-.36425,2.51994,2.51994,0,0,1,1.17578.249,2.47242,2.47242,0,0,1,.832.72461l-.3916.46875a.34608.34608,0,0,1-.10449.09082.28889.28889,0,0,1-.14062.03516.28414.28414,0,0,1-.19239-.08789,2.78464,2.78464,0,0,0-.24511-.19532,1.67906,1.67906,0,0,0-.37793-.19629,1.6439,1.6439,0,0,0-.585-.08789,1.72884,1.72884,0,0,0-.91309.2627,2.55621,2.55621,0,0,0-.75293.71777,3.69527,3.69527,0,0,0-.50684,1.07813,4.65167,4.65167,0,0,0-.18554,1.33691,2.89871,2.89871,0,0,0,.09863.78711,1.66851,1.66851,0,0,0,.293.60254,1.35346,1.35346,0,0,0,.48047.38477,1.50515,1.50515,0,0,0,.66113.13671,2.09716,2.09716,0,0,0,.99316-.23144,1.95161,1.95161,0,0,0,.333-.21289c.0957-.07715.18262-.14844.25879-.21387q.11573-.09814.21094-.16406a.3264.3264,0,0,1,.1914-.06738.299.299,0,0,1,.23829.11914l.30859.37793A6.5795,6.5795,0,0,1,143.44141,60.39062Z" style="fill:blue"/><path d="M144.957,61l.85352-7.09766h.623a.47814.47814,0,0,1,.3086.09082.341.341,0,0,1,.11133.28028c0,.01855-.002.04492-.00391.08008s-.00391.07128-.00684.10839-.00488.07032-.00683.09766l-.00391.04981-.09765,1.28808a4.8773,4.8773,0,0,1,1.01855-1.51269,1.71645,1.71645,0,0,1,1.18652-.53223,1.48188,1.48188,0,0,1,.58789.126l-.22363,1.19726a1.71611,1.71611,0,0,0-.63769-.13281,1.54068,1.54068,0,0,0-1.21094.66113,5.49742,5.49742,0,0,0-.88867,2.00586L146.17383,61Z" style="fill:blue"/><path d="M155.26074,55.42773a1.92922,1.92922,0,0,1-.18847.85059,1.77953,1.77953,0,0,1-.69336.7002,5.17692,5.17692,0,0,1-1.38672.543,15.30353,15.30353,0,0,1-2.26758.37012c-.00391.05176-.00684.10156-.00684.15137v.15039A2.18976,2.18976,0,0,0,151.127,59.624a1.51544,1.51544,0,0,0,1.23633.49414,2.313,2.313,0,0,0,.59766-.07031,2.54191,2.54191,0,0,0,.46875-.1709,2.11247,2.11247,0,0,0,.36523-.22461c.10449-.08105.20117-.15625.29-.22363s.16992-.125.24512-.17187a.41472.41472,0,0,1,.22363-.07032.308.308,0,0,1,.23145.11914l.30761.38575a6.37491,6.37491,0,0,1-.69629.63281,4.05239,4.05239,0,0,1-.69726.4375,3.09978,3.09978,0,0,1-.74512.25586,4.12015,4.12015,0,0,1-.83691.08008,2.78972,2.78972,0,0,1-1.0918-.20313,2.24142,2.24142,0,0,1-.81836-.57715,2.5779,2.5779,0,0,1-.51758-.90625,3.63961,3.63961,0,0,1-.18261-1.19043,5.20018,5.20018,0,0,1,.11523-1.08789,5.07583,5.07583,0,0,1,.33594-1.0332,4.70833,4.70833,0,0,1,.53906-.90918,3.627,3.627,0,0,1,.72754-.72461,3.39932,3.39932,0,0,1,.9043-.47949,3.13048,3.13048,0,0,1,1.06054-.17578,2.53915,2.53915,0,0,1,.92969.15429,1.96769,1.96769,0,0,1,.64453.39258,1.56846,1.56846,0,0,1,.375.52442A1.40426,1.40426,0,0,1,155.26074,55.42773Zm-2.1416-.7207a1.823,1.823,0,0,0-.8125.18164,2.17158,2.17158,0,0,0-.6582.501,3.05822,3.05822,0,0,0-.49024.749,4.4697,4.4697,0,0,0-.31445.92774,13.60462,13.60462,0,0,0,1.72852-.30469,4.32326,4.32326,0,0,0,1.00195-.3711.97133.97133,0,0,0,.57422-.91406.70646.70646,0,0,0-.23535-.51074.968.968,0,0,0-.31836-.18555A1.36778,1.36778,0,0,0,153.11914,54.707Z" style="fill:blue"/><path d="M156.11523,53.90918h.93067a.359.359,0,0,1,.22754.06934.27523.27523,0,0,1,.10156.18945l.65039,4.56445a3.65358,3.65358,0,0,1,.03906.47168c.002.15235.00586.30274.00977.45215.05664-.14941.11328-.2998.17187-.45215q.0879-.22705.18555-.47168l1.93945-4.59277a.39606.39606,0,0,1,.13672-.17481.34637.34637,0,0,1,.21289-.07031h.51758a.31234.31234,0,0,1,.21777.07031.2806.2806,0,0,1,.09083.17481l.791,4.59277c.02734.16309.05078.32129.06641.47559s.03125.30761.04492.46191q.07031-.22411.13672-.458a4.99436,4.99436,0,0,1,.165-.47949l1.792-4.56445a.4019.4019,0,0,1,.13965-.18555.36352.36352,0,0,1,.22363-.07324h.89648L162.82812,61h-.94531c-.10742,0-.1748-.0791-.20312-.23828l-.86133-4.8086c-.01367-.07519-.02539-.15039-.03516-.22753-.00879-.07715-.01758-.15332-.02734-.22754-.02344.0791-.04688.15625-.07031.23047-.02344.07519-.05078.15234-.084.23144l-2.05078,4.80176c-.06543.15918-.1582.23828-.2793.23828h-.91015Z" style="fill:blue"/><path d="M169.29492,59.66309c0-.02832.002-.06446.00391-.1084.00195-.04492.00683-.1084.01367-.19239.00781-.084.01758-.19433.03125-.3291.01367-.13574.03516-.3125.06348-.53222l.44043-3.54883h-.791a.21907.21907,0,0,1-.15039-.05274.21007.21007,0,0,1-.05859-.16406c0-.01465.002-.042.00586-.084q.00879-.063.01757-.14356c.00782-.05371.01465-.1084.02149-.165q.01024-.08349.01758-.16113l1.09179-.14648.52539-2.19141a.32487.32487,0,0,1,.10547-.1709.27292.27292,0,0,1,.18848-.0664h.65723l-.30762,2.44238h1.8623l-.10547.90332h-1.86914l-.42578,3.48633c-.02343.1914-.041.34472-.05273.46191-.01172.11621-.02149.21-.02832.2793-.00684.07031-.01172.11914-.01465.14746-.002.02832-.00293.04883-.00293.0625a.738.738,0,0,0,.165.5293.59472.59472,0,0,0,.45117.17089.914.914,0,0,0,.32227-.05273,1.32368,1.32368,0,0,0,.24121-.11523c.06738-.042.124-.08008.1709-.11524a.219.219,0,0,1,.12695-.05273.12571.12571,0,0,1,.08691.02832.36293.36293,0,0,1,.06641.09082l.25879.59472a2.51428,2.51428,0,0,1-.77344.47266,2.38882,2.38882,0,0,1-.87891.17187,1.49574,1.49574,0,0,1-1.07031-.37109A1.45579,1.45579,0,0,1,169.29492,59.66309Z" style="fill:blue"/><path d="M173.53125,61l1.24512-10.31055h1.24609l-.58105,4.78711a4.20151,4.20151,0,0,1,1.22851-1.249,2.57435,2.57435,0,0,1,1.38281-.42383,1.5058,1.5058,0,0,1,1.23829.53223,2.39155,2.39155,0,0,1,.43457,1.54687c0,.09375-.00293.19043-.00684.291-.00488.09961-.01367.2041-.02832.31152L179.1582,61h-1.24609l.53223-4.51465c.00878-.09375.01757-.18359.02441-.26953.00781-.08691.01074-.16894.01074-.249a1.399,1.399,0,0,0-.21387-.85352.7958.7958,0,0,0-.67578-.28027,1.406,1.406,0,0,0-.64648.17187,2.63039,2.63039,0,0,0-.64844.48633,4.16174,4.16174,0,0,0-.58789.75977,5.67647,5.67647,0,0,0-.47558.99023L174.77637,61Z" style="fill:blue"/><path d="M186.56445,55.42773a1.9033,1.9033,0,0,1-.18945.85059,1.76327,1.76327,0,0,1-.69238.7002,5.1687,5.1687,0,0,1-1.38574.543,15.29779,15.29779,0,0,1-2.26856.37012c-.00488.05176-.00684.10156-.00684.15137v.15039a2.18422,2.18422,0,0,0,.41016,1.43066,1.51,1.51,0,0,0,1.23438.49414,2.32848,2.32848,0,0,0,.5996-.07031,2.65143,2.65143,0,0,0,.46876-.1709,2.13073,2.13073,0,0,0,.36328-.22461c.10546-.08105.20214-.15625.291-.22363.08789-.06738.16992-.125.24414-.17187a.42287.42287,0,0,1,.22461-.07032.30465.30465,0,0,1,.23047.11914l.30859.38575a6.56165,6.56165,0,0,1-.69628.63281,4.04566,4.04566,0,0,1-.69629.4375,3.107,3.107,0,0,1-.7461.25586,4.1104,4.1104,0,0,1-.83593.08008,2.78287,2.78287,0,0,1-1.0918-.20313,2.25694,2.25694,0,0,1-.82031-.57715,2.60807,2.60807,0,0,1-.51758-.90625,3.66606,3.66606,0,0,1-.18164-1.19043,5.26654,5.26654,0,0,1,.11523-1.08789,5.13642,5.13642,0,0,1,.33594-1.0332,4.65916,4.65916,0,0,1,.53906-.90918,3.63156,3.63156,0,0,1,.72852-.72461,3.40263,3.40263,0,0,1,.90234-.47949,3.13867,3.13867,0,0,1,1.06055-.17578,2.55008,2.55008,0,0,1,.93164.15429,1.973,1.973,0,0,1,.64355.39258,1.55179,1.55179,0,0,1,.374.52442A1.38919,1.38919,0,0,1,186.56445,55.42773Zm-2.14257-.7207a1.82184,1.82184,0,0,0-.81153.18164,2.156,2.156,0,0,0-.65723.501,3.03054,3.03054,0,0,0-.49023.749,4.47122,4.47122,0,0,0-.31543.92774,13.65657,13.65657,0,0,0,1.72949-.30469,4.28515,4.28515,0,0,0,1-.3711,1.08138,1.08138,0,0,0,.46289-.43066,1.102,1.102,0,0,0,.11133-.4834.68974.68974,0,0,0-.05566-.26172.69813.69813,0,0,0-.17871-.249.97814.97814,0,0,0-.31836-.18555A1.36591,1.36591,0,0,0,184.42188,54.707Z" style="fill:blue"/><path d="M194.59668,60.39062a3.2196,3.2196,0,0,1-.6543.42383,2.64339,2.64339,0,0,1-.68261.22071,4.335,4.335,0,0,1-.75977.0625,2.64351,2.64351,0,0,1-1.08789-.21,2.14562,2.14562,0,0,1-.791-.59082,2.6178,2.6178,0,0,1-.48339-.917,3.98167,3.98167,0,0,1-.165-1.17968,5.08761,5.08761,0,0,1,.26953-1.65235,4.644,4.644,0,0,1,.75293-1.39941,3.762,3.762,0,0,1,1.14746-.97364,3.00509,3.00509,0,0,1,1.46387-.36425,2.5172,2.5172,0,0,1,1.17578.249,2.47543,2.47543,0,0,1,.833.72461l-.39257.46875a.32433.32433,0,0,1-.1045.09082.27034.27034,0,0,1-.333-.05273,2.75521,2.75521,0,0,0-.24414-.19532,1.68786,1.68786,0,0,0-.37891-.19629,1.63441,1.63441,0,0,0-.584-.08789,1.72965,1.72965,0,0,0-.91406.2627,2.55318,2.55318,0,0,0-.75195.71777,3.67165,3.67165,0,0,0-.50781,1.07813,4.68562,4.68562,0,0,0-.18555,1.33691,2.93768,2.93768,0,0,0,.09863.78711,1.68585,1.68585,0,0,0,.29395.60254,1.35873,1.35873,0,0,0,.47949.38477,1.50819,1.50819,0,0,0,.66113.13671,2.16366,2.16366,0,0,0,.56055-.0664,2.218,2.218,0,0,0,.43359-.165,1.98076,1.98076,0,0,0,.332-.21289c.09571-.07715.18262-.14844.25977-.21387a2.58731,2.58731,0,0,1,.21-.16406.32917.32917,0,0,1,.19238-.06738.30042.30042,0,0,1,.23829.11914l.30761.37793A6.48506,6.48506,0,0,1,194.59668,60.39062Z" style="fill:blue"/><path d="M201.32715,61h-.64356a.37956.37956,0,0,1-.333-.126.53087.53087,0,0,1-.08692-.30761l.125-1.4209a5.88135,5.88135,0,0,1-.542.80566,3.78117,3.78117,0,0,1-.61621.61524,2.71865,2.71865,0,0,1-.68164.39257,2.03008,2.03008,0,0,1-.74219.13868,1.74713,1.74713,0,0,1-.76367-.16407,1.57612,1.57612,0,0,1-.584-.48339,2.35219,2.35219,0,0,1-.375-.78418,3.91953,3.91953,0,0,1-.13281-1.06739,4.78961,4.78961,0,0,1,.15821-1.22851,5.00029,5.00029,0,0,1,.44726-1.12989,4.93426,4.93426,0,0,1,.69727-.97656,4.64281,4.64281,0,0,1,.90625-.77051,4.30374,4.30374,0,0,1,1.07422-.5039,4.02389,4.02389,0,0,1,1.2041-.17871,5.171,5.171,0,0,1,.88574.07519,3.599,3.599,0,0,1,.84961.25781Zm-3.05176-.93848a1.22868,1.22868,0,0,0,.67188-.21,2.57417,2.57417,0,0,0,.623-.582,5.06534,5.06534,0,0,0,.54883-.88574,7.93284,7.93284,0,0,0,.45215-1.126l.30078-2.39843a.48514.48514,0,0,0-.30371-.124h-.29883a2.45757,2.45757,0,0,0-.81152.13574,2.90887,2.90887,0,0,0-.73535.38086,3.30841,3.30841,0,0,0-.623.583,3.83544,3.83544,0,0,0-.47852.74316,4.25162,4.25162,0,0,0-.3125.86231,3.95546,3.95546,0,0,0-.11132.93848Q197.19727,60.062,198.27539,60.06152Z" style="fill:blue"/><path d="M202.88086,63.40137l1.15527-9.499h.623a.37091.37091,0,0,1,.41992.41993L204.96,55.834a5.76274,5.76274,0,0,1,.58106-.83691,4.23245,4.23245,0,0,1,.6621-.63965,2.83361,2.83361,0,0,1,.72461-.41015,2.14837,2.14837,0,0,1,.76954-.14356,1.67112,1.67112,0,0,1,1.40625.6582,3.125,3.125,0,0,1,.5039,1.92481,5.66116,5.66116,0,0,1-.11816,1.14844,5.80774,5.80774,0,0,1-.33985,1.0957,5.433,5.433,0,0,1-.53222.97266,4.15387,4.15387,0,0,1-.69336.78418,3.07729,3.07729,0,0,1-.82813.52148,2.39008,2.39008,0,0,1-.93847.18848,2.2,2.2,0,0,1-.959-.20606,1.95478,1.95478,0,0,1-.72754-.5918l-.3789,3.10157Zm4.34766-8.59668a1.318,1.318,0,0,0-.6836.21,2.82109,2.82109,0,0,0-.668.58789,5.05623,5.05623,0,0,0-.59863.89648,7.294,7.294,0,0,0-.47949,1.127l-.22363,1.80566a1.47533,1.47533,0,0,0,.63964.543,1.95752,1.95752,0,0,0,.75977.15723,1.55959,1.55959,0,0,0,.68652-.1543,2.16428,2.16428,0,0,0,.58789-.416,3.02637,3.02637,0,0,0,.47559-.61621,4.24838,4.24838,0,0,0,.35351-.75586,5.14631,5.14631,0,0,0,.22071-.833,4.78325,4.78325,0,0,0,.07715-.85059,2.22193,2.22193,0,0,0-.30078-1.2666A.97025.97025,0,0,0,207.22852,54.80469Z" style="fill:blue"/><path d="M134.582,77.89746a2.765,2.765,0,0,1-1.06348-.19922,2.341,2.341,0,0,1-.833-.57715,2.65819,2.65819,0,0,1-.5459-.92382,3.67146,3.67146,0,0,1-.19629-1.2461,5.02406,5.02406,0,0,1,.28027-1.6875,4.58,4.58,0,0,1,.7666-1.38574,3.64193,3.64193,0,0,1,1.14844-.93848,3.06348,3.06348,0,0,1,1.43164-.34277,2.765,2.765,0,0,1,1.06348.19922,2.356,2.356,0,0,1,.833.57812,2.67052,2.67052,0,0,1,.5459.92774A3.70054,3.70054,0,0,1,138.209,73.544a4.999,4.999,0,0,1-.28027,1.67968,4.57964,4.57964,0,0,1-.7666,1.38575,3.6566,3.6566,0,0,1-1.15137.94238A3.05056,3.05056,0,0,1,134.582,77.89746Zm.11328-.97266a1.6398,1.6398,0,0,0,.92969-.28027,2.44126,2.44126,0,0,0,.71484-.74512,3.866,3.866,0,0,0,.45508-1.07421,4.965,4.965,0,0,0,.16016-1.27442,2.38212,2.38212,0,0,0-.38477-1.47656,1.31974,1.31974,0,0,0-1.11328-.49707,1.648,1.648,0,0,0-.93359.27637,2.44271,2.44271,0,0,0-.71094.74218,3.84158,3.84158,0,0,0-.45508,1.07422,4.96287,4.96287,0,0,0-.16015,1.27344,2.4174,2.4174,0,0,0,.38085,1.48047A1.31745,1.31745,0,0,0,134.69531,76.9248Z" style="fill:blue"/><path d="M139.08984,77.7998l.84766-7.09765h.62305a.37129.37129,0,0,1,.41992.41992l-.10547,1.37207a4.41229,4.41229,0,0,1,1.27734-1.41406,2.61545,2.61545,0,0,1,1.47461-.47656,1.50547,1.50547,0,0,1,1.22852.53222,2.39923,2.39923,0,0,1,.4375,1.55371c0,.09375-.00293.18946-.00781.28711-.00391.09864-.01368.20117-.02735.3086l-.5332,4.51464h-1.24512l.53223-4.51464c.00879-.09375.01758-.1836.02344-.26954.00781-.08691.01172-.16894.01172-.249a1.38493,1.38493,0,0,0-.21485-.85058.79088.79088,0,0,0-.668-.27637,1.44873,1.44873,0,0,0-.68164.18262,2.63274,2.63274,0,0,0-.66894.51367,4.15385,4.15385,0,0,0-.59864.80566,5.65766,5.65766,0,0,0-.47265,1.05274l-.40625,3.60546Z" style="fill:blue"/><path d="M148.97461,77.03027a.88.88,0,0,1,.06641-.34375.82726.82726,0,0,1,.18554-.27929.90005.90005,0,0,1,.27539-.18946.84434.84434,0,0,1,.34766-.07031.81952.81952,0,0,1,.33887.07031.9044.9044,0,0,1,.27636.18946.88337.88337,0,0,1,.18946.27929.84905.84905,0,0,1,.07031.34375.83516.83516,0,0,1-.07031.34571.89274.89274,0,0,1-.18946.27636.86432.86432,0,0,1-.61523.25293.876.876,0,0,1-.34766-.06738.86527.86527,0,0,1-.46093-.46191A.86589.86589,0,0,1,148.97461,77.03027Zm3.59766,0a.88017.88017,0,0,1,.0664-.34375.842.842,0,0,1,.18555-.27929.90432.90432,0,0,1,.27637-.18946.83969.83969,0,0,1,.34668-.07031.82731.82731,0,0,1,.33984.07031.90774.90774,0,0,1,.46484.46875.84889.84889,0,0,1,.07032.34375.835.835,0,0,1-.07032.34571.89254.89254,0,0,1-.18945.27636.83054.83054,0,0,1-.27539.18555.85814.85814,0,0,1-.33984.06738.8711.8711,0,0,1-.34668-.06738.86276.86276,0,0,1-.46192-.46191A.86606.86606,0,0,1,152.57227,77.03027Zm3.60546,0a.88018.88018,0,0,1,.06641-.34375.863.863,0,0,1,.18164-.27929.83894.83894,0,0,1,.27637-.18946.87307.87307,0,0,1,.68652,0,.89647.89647,0,0,1,.46875.46875.84889.84889,0,0,1,.07031.34375.835.835,0,0,1-.07031.34571.89254.89254,0,0,1-.18945.27636.82732.82732,0,0,1-.2793.18555.908.908,0,0,1-.68652,0,.78762.78762,0,0,1-.27637-.18555.87717.87717,0,0,1-.24805-.62207Z" style="fill:blue"/></g></svg>