<svg id="DO_-_2E" data-name="DO - 2E" xmlns="http://www.w3.org/2000/svg" viewBox="0 0 226 200"><rect id="back" width="226" height="200" style="fill:none"/><g id="tablet2"><path id="tablet_fill" data-name="tablet fill" d="M116,122.24307a3.57227,3.57227,0,1,1,3.5-3.57178A3.54043,3.54043,0,0,1,116,122.24307Z" style="fill:#fff;fill-rule:evenodd"/><path id="tablet_outline" data-name="tablet outline" d="M116,115.6a3.07227,3.07227,0,1,1-3,3.07142A3.03977,3.03977,0,0,1,116,115.6m0-1a4.07206,4.07206,0,1,0,4,4.07142A4.03618,4.03618,0,0,0,116,114.6Z" style="fill:#333"/></g><g id="tablet1"><path id="tablet_fill-2" data-name="tablet fill" d="M110,115.64307a3.57227,3.57227,0,1,1,3.5-3.57178A3.54043,3.54043,0,0,1,110,115.64307Z" style="fill:#fff;fill-rule:evenodd"/><path id="tablet_outline-2" data-name="tablet outline" d="M110,109a3.07227,3.07227,0,1,1-3,3.07142A3.03977,3.03977,0,0,1,110,109m0-1a4.07206,4.07206,0,1,0,4,4.07142A4.03618,4.03618,0,0,0,110,108Z" style="fill:#333"/></g><g id="vial_w_cap" data-name="vial w cap"><g id="vial"><path id="water_25_" data-name="water 25%" d="M119.48132,80.36464V76.57673a1.22813,1.22813,0,0,0,0-2.40887v-.80353a1.2271,1.2271,0,0,0,0-2.40722,1.04845,1.04845,0,0,0-.98323-1.112l-10.97936,0a1,1,0,0,0-1,1v1.43457a1.23686,1.23686,0,0,0,0,2.45771v.7547a1.23685,1.23685,0,0,0,0,2.4577v2.41486H105.5a1,1,0,0,0-1,1V123.243a1,1,0,0,0,1,1h15a1,1,0,0,0,1-1V81.36464a1,1,0,0,0-1-1Z" style="fill:#d1eef3;fill-opacity:0.25"/><path id="tube" d="M120.5,124.74316h-15a1.50164,1.50164,0,0,1-1.5-1.5V81.36475a1.50164,1.50164,0,0,1,1.5-1.5h.51855V78.333a1.72209,1.72209,0,0,1-1.085-1.417,1.756,1.756,0,0,1,1.07178-1.8003,1.72359,1.72359,0,0,1-1.07178-1.41211,1.75542,1.75542,0,0,1,1.085-1.80566V70.84521a1.50165,1.50165,0,0,1,1.5-1.5h10.9795a1.51713,1.51713,0,0,1,1.44336,1.24024,1.72048,1.72048,0,0,1,.04,3.13184V73.814a1.7222,1.7222,0,0,1,0,3.11573v2.93506H120.5a1.50164,1.50164,0,0,1,1.5,1.5v41.87841A1.50164,1.50164,0,0,1,120.5,124.74316Zm-15-43.87841a.50034.50034,0,0,0-.5.5v41.87841a.50065.50065,0,0,0,.5.5h15a.50065.50065,0,0,0,.5-.5V81.36475a.50034.50034,0,0,0-.5-.5h-1.51855V76.17432l.39306-.08594a.74111.74111,0,0,0,.59082-.79443.732.732,0,0,0-.58984-.63721l-.394-.08545V72.96191l.39306-.08593a.7413.7413,0,0,0,.59082-.79493.73379.73379,0,0,0-.59131-.63574l-.39257-.08593V70.957a.55969.55969,0,0,0-.4834-.61182h-10.9795a.50035.50035,0,0,0-.5.5v1.876l-.438.05469a.75133.75133,0,0,0-.65284.82031.739.739,0,0,0,.6543.645l.43652.05615v1.63623l-.438.05469a.75133.75133,0,0,0-.65284.82031.739.739,0,0,0,.6543.645l.43652.05616v3.355Z" style="fill:#333"/><rect id="thread_2" data-name="thread 2" x="106.6483" y="73.61755" width="12.89822" height="1.00025" transform="translate(-7.4866 12.92984) rotate(-6.33401)" style="fill:#333;opacity:0.30000000000000004"/><rect id="thread_1" data-name="thread 1" x="106.70398" y="76.83527" width="12.83373" height="1.00035" transform="translate(-7.90387 13.06946) rotate(-6.38961)" style="fill:#333;opacity:0.30000000000000004"/></g></g><g style="isolation:isolate"><path d="M140.25977,57H139.252a.39664.39664,0,0,1-.27343-.08789.44105.44105,0,0,1-.13282-.22754l-.5459-2.44922h-4.08789l-1.14746,2.44922a.61609.61609,0,0,1-.19336.2207.47561.47561,0,0,1-.29.09473h-1.02246l4.92188-10.03125h1.32226Zm-5.60743-3.7168h3.4375l-.92382-4.15136c-.02735-.1211-.0586-.25879-.09082-.41309-.03223-.15332-.06153-.31934-.084-.49707q-.09814.2666-.20019.501-.10108.23438-.19141.416Z" style="fill:blue"/><path d="M145.95117,57a.37638.37638,0,0,1-.332-.126.52423.52423,0,0,1-.08789-.30761l.13281-1.47754a5.77755,5.77755,0,0,1-.58105.82617,4.26785,4.26785,0,0,1-.66113.63379,2.90193,2.90193,0,0,1-.72071.40527,2.11252,2.11252,0,0,1-.75976.14356,1.66207,1.66207,0,0,1-1.41016-.66114,3.1427,3.1427,0,0,1-.501-1.92187,5.66021,5.66021,0,0,1,.11914-1.14746,5.98757,5.98757,0,0,1,.33887-1.09961,5.434,5.434,0,0,1,.53223-.97656,4.10087,4.10087,0,0,1,.69336-.78028,3.126,3.126,0,0,1,.8291-.51758,2.39,2.39,0,0,1,.9375-.18945,2.20643,2.20643,0,0,1,.94922.20313,2.0324,2.0324,0,0,1,.73144.58105l.4834-3.89844h1.22461L146.5957,57Zm-2.541-.90332a1.29084,1.29084,0,0,0,.67578-.20606,2.8372,2.8372,0,0,0,.6582-.57421,4.95913,4.95913,0,0,0,.59473-.875,6.96372,6.96372,0,0,0,.47949-1.10938l.23047-1.876a1.48859,1.48859,0,0,0-.63672-.52539,1.94308,1.94308,0,0,0-.749-.15332,1.63207,1.63207,0,0,0-.99707.32911,2.85992,2.85992,0,0,0-.75586.8496,4.46131,4.46131,0,0,0-.48047,1.166,5.03708,5.03708,0,0,0-.168,1.2666,2.2381,2.2381,0,0,0,.30078,1.27051A.97115.97115,0,0,0,143.41016,56.09668Z" style="fill:blue"/><path d="M153.31445,57a.37873.37873,0,0,1-.332-.126.52423.52423,0,0,1-.08789-.30761l.13281-1.47754a5.77326,5.77326,0,0,1-.58007.82617,4.27279,4.27279,0,0,1-.66211.63379,2.88482,2.88482,0,0,1-.72071.40527,2.10864,2.10864,0,0,1-.75976.14356,1.66451,1.66451,0,0,1-1.41016-.66114,3.14289,3.14289,0,0,1-.5-1.92187,5.59122,5.59122,0,0,1,.11914-1.14746,5.84023,5.84023,0,0,1,.33887-1.09961,5.434,5.434,0,0,1,.53223-.97656,4.068,4.068,0,0,1,.69335-.78028,3.1368,3.1368,0,0,1,.82813-.51758,2.39124,2.39124,0,0,1,.93848-.18945,2.202,2.202,0,0,1,.94824.20313,2.044,2.044,0,0,1,.73242.58105l.48242-3.89844h1.22461L153.959,57Zm-2.541-.90332a1.29084,1.29084,0,0,0,.67578-.20606,2.8372,2.8372,0,0,0,.6582-.57421,4.96064,4.96064,0,0,0,.5957-.875,6.96122,6.96122,0,0,0,.47852-1.10938l.23145-1.876a1.491,1.491,0,0,0-.6377-.52539,1.93472,1.93472,0,0,0-.748-.15332,1.63488,1.63488,0,0,0-.998.32911,2.85992,2.85992,0,0,0-.75586.8496,4.49344,4.49344,0,0,0-.47949,1.166,4.9927,4.9927,0,0,0-.168,1.2666,2.2381,2.2381,0,0,0,.30078,1.27051A.96834.96834,0,0,0,150.77344,56.09668Z" style="fill:blue"/><path d="M159.20117,55.66309c0-.02832.002-.06446.00391-.1084.00195-.04492.00683-.1084.01367-.19239.00781-.084.01758-.19433.03125-.3291.01367-.13574.03516-.3125.06348-.53222l.44043-3.54883h-.791a.21907.21907,0,0,1-.15039-.05274.21007.21007,0,0,1-.05859-.16406c0-.01465.002-.042.00586-.084q.00878-.063.01757-.14356c.00782-.05371.01465-.1084.02149-.165q.01024-.08349.01758-.16113l1.09179-.14648.52539-2.19141a.32487.32487,0,0,1,.10547-.1709.27292.27292,0,0,1,.18848-.0664h.65723l-.30762,2.44238h1.8623l-.10547.90332h-1.86914l-.42578,3.48633c-.02344.1914-.041.34472-.05273.46191-.01172.11621-.02149.21-.02832.2793-.00684.07031-.01172.11914-.01465.14746-.002.02832-.00293.04883-.00293.0625a.738.738,0,0,0,.165.5293.59472.59472,0,0,0,.45117.17089.914.914,0,0,0,.32227-.05273,1.32368,1.32368,0,0,0,.24121-.11523c.06738-.042.124-.08008.1709-.11524a.219.219,0,0,1,.12695-.05273.12569.12569,0,0,1,.08691.02832.36293.36293,0,0,1,.06641.09082l.25879.59472a2.51428,2.51428,0,0,1-.77344.47266,2.38886,2.38886,0,0,1-.87891.17187,1.49574,1.49574,0,0,1-1.07031-.37109A1.45579,1.45579,0,0,1,159.20117,55.66309Z" style="fill:blue"/><path d="M163.4502,49.90918h.93066a.36.36,0,0,1,.22852.06934.279.279,0,0,1,.10156.18945l.65039,4.56445a3.83647,3.83647,0,0,1,.03906.47168c.002.15235.00586.30274.00977.45215.05664-.14941.11328-.2998.17187-.45215.05859-.15137.11914-.30859.18555-.47168l1.93945-4.59277a.39382.39382,0,0,1,.13574-.17481.34918.34918,0,0,1,.21387-.07031h.51758a.30812.30812,0,0,1,.2168.07031.28182.28182,0,0,1,.09179.17481l.791,4.59277c.02734.16309.0498.32129.0664.47559.01563.15429.03125.30761.04493.46191.04687-.14941.09179-.30176.13672-.458s.0996-.3164.16406-.47949l1.793-4.56445a.40647.40647,0,0,1,.13867-.18555.36834.36834,0,0,1,.22461-.07324h.89648L170.16309,57h-.94434c-.10742,0-.17578-.0791-.20313-.23828l-.86132-4.8086c-.01368-.07519-.02539-.15039-.03516-.22753s-.01855-.15332-.02734-.22754c-.02344.0791-.04688.15625-.07032.23047-.02343.07519-.05175.15234-.084.23144l-2.05078,4.80176c-.06641.15918-.15918.23828-.28027.23828h-.91016Z" style="fill:blue"/><path d="M175.83984,57.09766a2.76489,2.76489,0,0,1-1.06347-.19922,2.34116,2.34116,0,0,1-.833-.57715,2.65823,2.65823,0,0,1-.5459-.92383,3.67144,3.67144,0,0,1-.19629-1.24609,5.02373,5.02373,0,0,1,.28028-1.6875,4.57964,4.57964,0,0,1,.7666-1.38575,3.64172,3.64172,0,0,1,1.14843-.93847,3.06336,3.06336,0,0,1,1.43164-.34277,2.76494,2.76494,0,0,1,1.06348.19921,2.356,2.356,0,0,1,.833.57813,2.67047,2.67047,0,0,1,.5459.92773,3.70058,3.70058,0,0,1,.19629,1.24219,4.99882,4.99882,0,0,1-.28028,1.67969,4.57959,4.57959,0,0,1-.7666,1.38574,3.65647,3.65647,0,0,1-1.15137.94238A3.05054,3.05054,0,0,1,175.83984,57.09766Zm.11328-.97266a1.63977,1.63977,0,0,0,.92969-.28027,2.4414,2.4414,0,0,0,.71485-.74512,3.8665,3.8665,0,0,0,.45507-1.07422,4.96446,4.96446,0,0,0,.16016-1.27441,2.38217,2.38217,0,0,0-.38477-1.47657,1.31972,1.31972,0,0,0-1.11328-.49707,1.648,1.648,0,0,0-.93359.27637,2.44276,2.44276,0,0,0-.71094.74219,3.84187,3.84187,0,0,0-.45508,1.07422,4.9628,4.9628,0,0,0-.16015,1.27343,2.41731,2.41731,0,0,0,.38086,1.48047A1.3174,1.3174,0,0,0,175.95312,56.125Z" style="fill:blue"/><path d="M137.292,73.7998a.3808.3808,0,0,1-.333-.126.52384.52384,0,0,1-.08691-.30762l.13281-1.47754a5.70121,5.70121,0,0,1-.58105.82617,4.2246,4.2246,0,0,1-.66113.63379,2.90759,2.90759,0,0,1-.72168.40528,2.09966,2.09966,0,0,1-.75879.14355,1.66636,1.66636,0,0,1-1.41114-.66113,3.14294,3.14294,0,0,1-.5-1.92188,5.592,5.592,0,0,1,.11914-1.14746,5.91549,5.91549,0,0,1,.33985-1.09961,5.43051,5.43051,0,0,1,.53125-.97656,4.13453,4.13453,0,0,1,.69336-.78027,3.14171,3.14171,0,0,1,.8291-.51758,2.39106,2.39106,0,0,1,.93848-.18945,2.20218,2.20218,0,0,1,.94824.20312,2.04066,2.04066,0,0,1,.73144.58106l.48243-3.89844H139.21L137.93555,73.7998Zm-2.541-.90332a1.2877,1.2877,0,0,0,.6748-.206,2.8175,2.8175,0,0,0,.6582-.57422,4.908,4.908,0,0,0,.59571-.875,7.05423,7.05423,0,0,0,.47949-1.10937l.23144-1.876a1.49656,1.49656,0,0,0-.63769-.52539,1.93945,1.93945,0,0,0-.749-.15332,1.6349,1.6349,0,0,0-.998.3291,2.887,2.887,0,0,0-.75586.84961,4.45831,4.45831,0,0,0-.47852,1.166,4.99307,4.99307,0,0,0-.168,1.2666,2.23018,2.23018,0,0,0,.30078,1.2705A.96717.96717,0,0,0,134.751,72.89648Z" style="fill:blue"/><path d="M142.10742,66.709l-.85351,7.09082H140.0293l.85351-7.09082Zm.46875-2.22656a.79224.79224,0,0,1-.07226.33985.99045.99045,0,0,1-.19727.28027.95338.95338,0,0,1-.27539.19238.77292.77292,0,0,1-.32227.07031.75224.75224,0,0,1-.31543-.07031.85135.85135,0,0,1-.26855-.19238.95368.95368,0,0,1-.18555-.28027.8208.8208,0,0,1-.07031-.33985.84776.84776,0,0,1,.07031-.34277.94587.94587,0,0,1,.46094-.47949.73038.73038,0,0,1,.31543-.07325.75877.75877,0,0,1,.32129.07032.91335.91335,0,0,1,.27734.19238.89528.89528,0,0,1,.26172.63281Z" style="fill:blue"/><path d="M147.834,67.84277a.445.445,0,0,1-.11132.12207.2388.2388,0,0,1-.14063.03907.38515.38515,0,0,1-.21289-.07715c-.07812-.05078-.1709-.1084-.28125-.17188a2.29158,2.29158,0,0,0-.40234-.1748,2.013,2.013,0,0,0-1.14746.00683,1.43,1.43,0,0,0-.44825.24219,1.08122,1.08122,0,0,0-.291.36035.99528.99528,0,0,0-.10156.4375.6675.6675,0,0,0,.21777.52442,2.00312,2.00312,0,0,0,.5459.33984c.21875.0957.45605.18848.71094.27637a3.67527,3.67527,0,0,1,.71.33594,1.80927,1.80927,0,0,1,.54589.51855,1.4139,1.4139,0,0,1,.2168.81836,2.37558,2.37558,0,0,1-.19141.93848,2.34264,2.34264,0,0,1-.55371.78711,2.73627,2.73627,0,0,1-.86816.543,3.045,3.045,0,0,1-1.13672.20313,2.82751,2.82751,0,0,1-1.20117-.24219,2.49279,2.49279,0,0,1-.85059-.61914l.30762-.47558a.44145.44145,0,0,1,.13379-.14063.36314.36314,0,0,1,.19629-.04883.34716.34716,0,0,1,.22363.09766c.07422.06543.168.13965.28028.2207a1.79212,1.79212,0,0,0,.42285.2207,1.826,1.826,0,0,0,.64746.09766,1.723,1.723,0,0,0,.61914-.10449,1.4407,1.4407,0,0,0,.46972-.28027,1.19294,1.19294,0,0,0,.29395-.40918,1.25191,1.25191,0,0,0,.10156-.501.752.752,0,0,0-.21679-.56641,1.76913,1.76913,0,0,0-.54688-.35058c-.21875-.09278-.45508-.18067-.707-.2627a3.57857,3.57857,0,0,1-.707-.31445,1.71525,1.71525,0,0,1-.54492-.501,1.39293,1.39293,0,0,1-.2168-.81836,2.175,2.175,0,0,1,.17773-.86523,2.24531,2.24531,0,0,1,.51465-.73828,2.53162,2.53162,0,0,1,.81543-.51465,2.89111,2.89111,0,0,1,1.082-.19238,2.76913,2.76913,0,0,1,1.12305.21386,2.58912,2.58912,0,0,1,.83594.57715Z" style="fill:blue"/><path d="M153.2793,67.84277a.44521.44521,0,0,1-.11133.12207.23673.23673,0,0,1-.14063.03907.38769.38769,0,0,1-.21289-.07715c-.07715-.05078-.16992-.1084-.28027-.17188a2.32445,2.32445,0,0,0-.40234-.1748,2.013,2.013,0,0,0-1.14746.00683,1.43518,1.43518,0,0,0-.44922.24219,1.07807,1.07807,0,0,0-.29.36035.982.982,0,0,0-.10157.4375.66751.66751,0,0,0,.21778.52442,1.997,1.997,0,0,0,.54492.33984c.21973.0957.457.18848.71094.27637a3.68356,3.68356,0,0,1,.71093.33594,1.81706,1.81706,0,0,1,.54493.51855,1.40683,1.40683,0,0,1,.21777.81836,2.35748,2.35748,0,0,1-.74512,1.72559,2.73014,2.73014,0,0,1-.86914.543,3.045,3.045,0,0,1-1.13672.20313,2.82751,2.82751,0,0,1-1.20117-.24219,2.47929,2.47929,0,0,1-.84961-.61914l.30762-.47558a.43116.43116,0,0,1,.13379-.14063.35727.35727,0,0,1,.19531-.04883.34943.34943,0,0,1,.22461.09766c.07422.06543.168.13965.2793.2207a1.72252,1.72252,0,0,0,1.07129.31836,1.72666,1.72666,0,0,0,.61914-.10449,1.46147,1.46147,0,0,0,.46972-.28027,1.17742,1.17742,0,0,0,.293-.40918,1.23541,1.23541,0,0,0,.10157-.501.752.752,0,0,0-.2168-.56641,1.76389,1.76389,0,0,0-.5459-.35058q-.32959-.13917-.707-.2627a3.57857,3.57857,0,0,1-.707-.31445,1.70832,1.70832,0,0,1-.5459-.501,1.39293,1.39293,0,0,1-.2168-.81836,2.19189,2.19189,0,0,1,.17774-.86523,2.23369,2.23369,0,0,1,.51562-.73828,2.53757,2.53757,0,0,1,.81445-.51465,2.89479,2.89479,0,0,1,1.082-.19238,2.76583,2.76583,0,0,1,1.123.21386,2.604,2.604,0,0,1,.83692.57715Z" style="fill:blue"/><path d="M156.68848,73.89746a2.76145,2.76145,0,0,1-1.06348-.19922,2.34449,2.34449,0,0,1-.834-.57715,2.67146,2.67146,0,0,1-.54493-.92382,3.67083,3.67083,0,0,1-.19726-1.2461,5.00011,5.00011,0,0,1,.28125-1.6875,4.5566,4.5566,0,0,1,.76562-1.38574,3.64181,3.64181,0,0,1,1.14844-.93848,3.06634,3.06634,0,0,1,1.43164-.34277,2.7699,2.7699,0,0,1,1.06445.19922,2.3437,2.3437,0,0,1,.832.57812,2.65745,2.65745,0,0,1,.54687.92774,3.70108,3.70108,0,0,1,.19531,1.24219,5.02307,5.02307,0,0,1-.27929,1.67968,4.60284,4.60284,0,0,1-.76758,1.38575,3.653,3.653,0,0,1-1.15039.94238A3.05342,3.05342,0,0,1,156.68848,73.89746Zm.1123-.97266a1.6452,1.6452,0,0,0,.93067-.28027,2.43842,2.43842,0,0,0,.71386-.74512,3.83735,3.83735,0,0,0,.45508-1.07421,4.96514,4.96514,0,0,0,.16113-1.27442,2.38218,2.38218,0,0,0-.38476-1.47656,1.32221,1.32221,0,0,0-1.11328-.49707,1.65109,1.65109,0,0,0-.93457.27637,2.45419,2.45419,0,0,0-.71094.74218,3.84158,3.84158,0,0,0-.45508,1.07422,4.96288,4.96288,0,0,0-.16016,1.27344,2.41739,2.41739,0,0,0,.38086,1.48047A1.31868,1.31868,0,0,0,156.80078,72.9248Z" style="fill:blue"/><path d="M161.31543,73.7998l1.25293-10.31054H163.793L162.54,73.7998Z" style="fill:blue"/><path d="M164.54883,66.709h1.00879a.31619.31619,0,0,1,.22363.07715.32183.32183,0,0,1,.10547.18164l1.05664,4.56446a4.281,4.281,0,0,1,.08008.51757c.0166.17286.02929.34278.03906.51075.05078-.168.10547-.33692.16113-.50684a4.37782,4.37782,0,0,1,.21-.52148l2.19727-4.56446a.53839.53839,0,0,1,.1543-.18554.35417.35417,0,0,1,.21679-.07325h.97364l-3.55567,7.09082h-1.043Z" style="fill:blue"/><path d="M176.67383,68.22754a1.91649,1.91649,0,0,1-.18945.85058,1.77294,1.77294,0,0,1-.69336.7002,5.16876,5.16876,0,0,1-1.38575.543,15.29872,15.29872,0,0,1-2.26855.37012c-.00391.05175-.00586.10156-.00586.15136v.15039a2.18981,2.18981,0,0,0,.40918,1.43067,1.512,1.512,0,0,0,1.23535.49414,2.31577,2.31577,0,0,0,.59863-.07031,2.59658,2.59658,0,0,0,.46875-.1709,2.1407,2.1407,0,0,0,.36426-.22461c.10547-.08106.20117-.15625.291-.22363.08789-.06739.16992-.125.24414-.17188a.41787.41787,0,0,1,.22461-.07031.30619.30619,0,0,1,.23047.11914l.30859.38574a6.46975,6.46975,0,0,1-.69727.63281,4.04429,4.04429,0,0,1-.69629.4375,3.09955,3.09955,0,0,1-.74511.25586,4.12716,4.12716,0,0,1-.83692.08008,2.78628,2.78628,0,0,1-1.09179-.20312,2.25343,2.25343,0,0,1-.81934-.57715,2.59314,2.59314,0,0,1-.51758-.90625,3.66637,3.66637,0,0,1-.18164-1.19043,5.20019,5.20019,0,0,1,.11524-1.08789,5.01593,5.01593,0,0,1,.33593-1.03321,4.61155,4.61155,0,0,1,.53907-.90918,3.6267,3.6267,0,0,1,.72754-.72461,3.39332,3.39332,0,0,1,.90332-.47949,3.13073,3.13073,0,0,1,1.06054-.17578,2.541,2.541,0,0,1,.93067.1543,1.973,1.973,0,0,1,.64355.39258,1.56842,1.56842,0,0,1,.375.52441A1.38926,1.38926,0,0,1,176.67383,68.22754Zm-2.14258-.7207a1.82586,1.82586,0,0,0-.8125.18164,2.16781,2.16781,0,0,0-.65723.501,3.05845,3.05845,0,0,0-.49023.749,4.47055,4.47055,0,0,0-.31543.92773,13.65657,13.65657,0,0,0,1.72949-.30469,4.29567,4.29567,0,0,0,1.001-.37109.96706.96706,0,0,0,.57422-.91406.71021.71021,0,0,0-.23438-.51075.9783.9783,0,0,0-.31836-.18554A1.36951,1.36951,0,0,0,174.53125,67.50684Z" style="fill:blue"/><path d="M182.252,73.7998a.37876.37876,0,0,1-.332-.126.52429.52429,0,0,1-.08789-.30762l.13281-1.47754a5.77326,5.77326,0,0,1-.58007.82617,4.27279,4.27279,0,0,1-.66211.63379,2.88486,2.88486,0,0,1-.72071.40528,2.10863,2.10863,0,0,1-.75976.14355,1.66453,1.66453,0,0,1-1.41016-.66113,3.14294,3.14294,0,0,1-.5-1.92188,5.59129,5.59129,0,0,1,.11914-1.14746,5.84046,5.84046,0,0,1,.33887-1.09961,5.43437,5.43437,0,0,1,.53223-.97656,4.06793,4.06793,0,0,1,.69335-.78027,3.1368,3.1368,0,0,1,.82813-.51758,2.39106,2.39106,0,0,1,.93848-.18945,2.20218,2.20218,0,0,1,.94824.20312,2.04392,2.04392,0,0,1,.73242.58106l.48242-3.89844h1.22461L182.89648,73.7998Zm-2.541-.90332a1.29091,1.29091,0,0,0,.67578-.206,2.83726,2.83726,0,0,0,.6582-.57422,4.96027,4.96027,0,0,0,.5957-.875,6.9615,6.9615,0,0,0,.47852-1.10937l.23145-1.876a1.491,1.491,0,0,0-.6377-.52539,1.93472,1.93472,0,0,0-.748-.15332,1.63487,1.63487,0,0,0-.998.3291,2.85984,2.85984,0,0,0-.75586.84961,4.49329,4.49329,0,0,0-.47949,1.166,4.99264,4.99264,0,0,0-.168,1.2666,2.23806,2.23806,0,0,0,.30078,1.2705A.96832.96832,0,0,0,179.71094,72.89648Z" style="fill:blue"/><path d="M135.02344,90.69727a2.765,2.765,0,0,1-1.06348-.19922,2.34116,2.34116,0,0,1-.833-.57715,2.65839,2.65839,0,0,1-.5459-.92383,3.6717,3.6717,0,0,1-.19628-1.24609,5.024,5.024,0,0,1,.28027-1.6875,4.57964,4.57964,0,0,1,.7666-1.38575,3.64165,3.64165,0,0,1,1.14844-.93847,3.06337,3.06337,0,0,1,1.43164-.34278,2.765,2.765,0,0,1,1.06348.19922,2.35609,2.35609,0,0,1,.833.57813,2.67047,2.67047,0,0,1,.5459.92773,3.70058,3.70058,0,0,1,.19629,1.24219,4.99907,4.99907,0,0,1-.28027,1.67969,4.58,4.58,0,0,1-.7666,1.38574,3.65647,3.65647,0,0,1-1.15137.94238A3.0506,3.0506,0,0,1,135.02344,90.69727Zm.11328-.97266a1.63982,1.63982,0,0,0,.92969-.28027,2.44137,2.44137,0,0,0,.71484-.74512,3.86651,3.86651,0,0,0,.45508-1.07422,4.96489,4.96489,0,0,0,.16015-1.27441,2.38224,2.38224,0,0,0-.38476-1.47657,1.31974,1.31974,0,0,0-1.11328-.49707,1.648,1.648,0,0,0-.9336.27637,2.44273,2.44273,0,0,0-.71093.74219,3.84129,3.84129,0,0,0-.45508,1.07422,4.9628,4.9628,0,0,0-.16016,1.27343,2.41733,2.41733,0,0,0,.38086,1.48047A1.31742,1.31742,0,0,0,135.13672,89.72461Z" style="fill:blue"/><path d="M141.19727,86.78418l-1.70118-3.27539h1.11329a.38364.38364,0,0,1,.19921.03809.34485.34485,0,0,1,.10938.13671l1.18945,2.43555c.02344-.05078.04883-.09961.07422-.14648a1.39711,1.39711,0,0,1,.09375-.14746l1.60352-2.12012a.82841.82841,0,0,1,.13964-.14746.24492.24492,0,0,1,.1543-.04883h1.12695l-2.53418,3.2832,1.89063,3.80762H143.543a.30029.30029,0,0,1-.2168-.07324.61851.61851,0,0,1-.12695-.17188l-1.33594-2.835a1.70554,1.70554,0,0,1-.14746.26563l-1.93262,2.57617a.87966.87966,0,0,1-.15332.168.31535.31535,0,0,1-.21.07031h-1.0918Z" style="fill:blue"/><path d="M147.44922,92.71387a.46786.46786,0,0,1-.43457.28711h-.90918l1.53223-2.82129-1.834-6.6709h1.0293a.2984.2984,0,0,1,.21972.07324.376.376,0,0,1,.10157.18555l1.1416,4.46582c.02344.09863.042.19629.05566.29394.01367.09864.02539.19629.03516.294.042-.09766.083-.19629.12305-.29688a2.6268,2.6268,0,0,1,.13671-.29785l2.23926-4.47265a.45085.45085,0,0,1,.15723-.17871.37863.37863,0,0,1,.207-.06641h.98633Z" style="fill:blue"/><path d="M157.61328,85.47559a2.46351,2.46351,0,0,1-.08789.62988,3.07471,3.07471,0,0,1-.19922.51855,4.22111,4.22111,0,0,1-.25976.44727c-.09278.14062-.17969.28027-.25782.41992a2.85542,2.85542,0,0,0-.20019.43067,1.39218,1.39218,0,0,0-.08106.47949,1.00953,1.00953,0,0,0,.14454.53222q.14355.23877.31445.49024a4.28447,4.28447,0,0,1,.31445.54883,1.60934,1.60934,0,0,1,.14453.7041,2.02417,2.02417,0,0,1-.23144.9414,2.4691,2.4691,0,0,1-.65821.78711,3.24153,3.24153,0,0,1-1.03906.543,4.44125,4.44125,0,0,1-1.376.19922,4.54523,4.54523,0,0,1-1.10937-.126,2.80784,2.80784,0,0,1-.85352-.35644,1.70667,1.70667,0,0,1-.54687-.55664,1.38845,1.38845,0,0,1-.19141-.71778,1.58717,1.58717,0,0,1,.28711-.95214,2.248,2.248,0,0,1,.75586-.65821,3.72061,3.72061,0,0,1,1.06641-.37793,6.27628,6.27628,0,0,1,1.22265-.11914c.168,0,.334.00782.5.02149s.33008.03222.49317.05566a1.58125,1.58125,0,0,1-.10059-.27637,1.16838,1.16838,0,0,1-.03906-.31152,1.59815,1.59815,0,0,1,.06641-.44824,2.69967,2.69967,0,0,1,.2207-.51758,2.12932,2.12932,0,0,1-.5957.28027,2.61564,2.61564,0,0,1-.748.09766,2.13188,2.13188,0,0,1-.75977-.13281,1.76163,1.76163,0,0,1-.61914-.39258,1.796,1.796,0,0,1-.41992-.64746,2.42985,2.42985,0,0,1-.1543-.90625,2.75032,2.75032,0,0,1,.18555-.99024,2.63789,2.63789,0,0,1,.542-.86816,2.66936,2.66936,0,0,1,.88184-.6123,2.97632,2.97632,0,0,1,1.21094-.23145,2.4292,2.4292,0,0,1,1.33789.36426h1.92383l-.05469.41308a.49208.49208,0,0,1-.08106.2168.27853.27853,0,0,1-.20019.11914l-.88086.1543a2.58754,2.58754,0,0,1,.09765.38086A2.44884,2.44884,0,0,1,157.61328,85.47559Zm-1.30273,5.29882a1.549,1.549,0,0,0-.03516-.33886,1.96107,1.96107,0,0,0-.08984-.29785c-.252-.042-.49024-.07227-.71094-.09082-.22266-.01856-.43066-.02833-.627-.02833a4.28992,4.28992,0,0,0-.99414.10157,2.39975,2.39975,0,0,0-.69336.26953,1.18631,1.18631,0,0,0-.40528.38867.87171.87171,0,0,0-.13281.458.85851.85851,0,0,0,.42285.77051,2.27268,2.27268,0,0,0,1.20117.26562,2.77308,2.77308,0,0,0,.84375-.12207,2.18206,2.18206,0,0,0,.65039-.32617,1.49006,1.49006,0,0,0,.41993-.47559A1.16775,1.16775,0,0,0,156.31055,90.77441Zm-1.40039-3.374a1.318,1.318,0,0,0,.666-.16406,1.56718,1.56718,0,0,0,.48633-.43457,2.02837,2.02837,0,0,0,.30469-.60547,2.25115,2.25115,0,0,0,.10449-.67871,1.26986,1.26986,0,0,0-.31152-.93067,1.15028,1.15028,0,0,0-.85743-.31543,1.38717,1.38717,0,0,0-.665.1543,1.46988,1.46988,0,0,0-.4834.41309,1.89337,1.89337,0,0,0-.29688.58789,2.2936,2.2936,0,0,0-.10156.68554,1.36217,1.36217,0,0,0,.30469.959A1.09925,1.09925,0,0,0,154.91016,87.40039Z" style="fill:blue"/><path d="M164.57031,85.02734a1.91593,1.91593,0,0,1-.18847.85059,1.76968,1.76968,0,0,1-.69239.70019,5.17643,5.17643,0,0,1-1.38672.543,15.3036,15.3036,0,0,1-2.26757.37012c-.00489.05176-.00782.10156-.00782.15137V87.793a2.18422,2.18422,0,0,0,.41016,1.43066,1.51336,1.51336,0,0,0,1.23535.49414,2.326,2.326,0,0,0,.59863-.07031,2.59506,2.59506,0,0,0,.46875-.1709,2.10279,2.10279,0,0,0,.36426-.22461c.10449-.081.20215-.15625.29-.22363.08887-.06738.16992-.125.24512-.17187a.41972.41972,0,0,1,.22363-.07032.30648.30648,0,0,1,.23145.11914l.30761.38575a6.46216,6.46216,0,0,1-.69531.63281,4.05239,4.05239,0,0,1-.69726.4375,3.107,3.107,0,0,1-.7461.25586,4.10355,4.10355,0,0,1-.83594.08008,2.78624,2.78624,0,0,1-1.09179-.20313,2.24508,2.24508,0,0,1-.81934-.57715,2.59305,2.59305,0,0,1-.51758-.90625,3.63961,3.63961,0,0,1-.18261-1.19043,5.26654,5.26654,0,0,1,.11523-1.08789,5.19914,5.19914,0,0,1,.33594-1.0332,4.75855,4.75855,0,0,1,.53906-.90918,3.6313,3.6313,0,0,1,.72852-.72461,3.408,3.408,0,0,1,.90332-.47949,3.13861,3.13861,0,0,1,1.06054-.17578,2.54829,2.54829,0,0,1,.93067.15429,1.96769,1.96769,0,0,1,.64453.39258,1.55162,1.55162,0,0,1,.374.52442A1.40426,1.40426,0,0,1,164.57031,85.02734Zm-2.1416-.7207a1.81882,1.81882,0,0,0-.81152.18164,2.1599,2.1599,0,0,0-.65821.501,3.03054,3.03054,0,0,0-.49023.749,4.46891,4.46891,0,0,0-.31445.92774,13.60408,13.60408,0,0,0,1.72851-.30469,4.31284,4.31284,0,0,0,1.001-.3711,1.07816,1.07816,0,0,0,.46191-.43066,1.10309,1.10309,0,0,0,.11231-.4834.68976.68976,0,0,0-.05567-.26172.70094.70094,0,0,0-.17968-.249.968.968,0,0,0-.31836-.18555A1.36374,1.36374,0,0,0,162.42871,84.30664Z" style="fill:blue"/><path d="M165.35449,90.59961l.84668-7.09766h.62305a.37091.37091,0,0,1,.41992.41993l-.10449,1.37207a4.39018,4.39018,0,0,1,1.27734-1.41407,2.61246,2.61246,0,0,1,1.47363-.47656,1.50283,1.50283,0,0,1,1.22852.53223,2.39916,2.39916,0,0,1,.4375,1.55371c0,.09375-.00195.18945-.00781.28711-.00391.09863-.01367.20117-.02735.30859l-.53222,4.51465h-1.24512l.53125-4.51465c.00977-.09375.01758-.18359.02441-.26953.00684-.08691.01075-.169.01075-.249a1.38533,1.38533,0,0,0-.21387-.85059.79166.79166,0,0,0-.66895-.27637,1.45169,1.45169,0,0,0-.68164.18262,2.646,2.646,0,0,0-.668.51367,4.19673,4.19673,0,0,0-.5996.80567,5.72157,5.72157,0,0,0-.47266,1.05273l-.40527,3.60547Z" style="fill:blue"/><path d="M133.11328,106.06348c0-.02832.001-.06446.00391-.1084.00195-.04492.00586-.1084.01367-.19238.00684-.084.01758-.19434.03125-.32911.01367-.13574.03516-.3125.0625-.53222l.44141-3.54883h-.791a.21736.21736,0,0,1-.15039-.05274.207.207,0,0,1-.05957-.16406c0-.01465.00293-.042.00684-.084q.00732-.063.01757-.14356c.00684-.05371.01367-.1084.02149-.165q.00879-.08349.01758-.16113l1.09179-.14648.52539-2.19141a.32331.32331,0,0,1,.1045-.1709.27629.27629,0,0,1,.18847-.0664h.65821l-.3086,2.44238h1.86328l-.10547.90332H134.877l-.42675,3.48633c-.02344.1914-.041.34472-.05274.46191-.01172.11621-.02051.21-.02832.2793-.00684.07031-.01172.11914-.01367.14746s-.00391.04883-.00391.0625a.738.738,0,0,0,.165.5293.59475.59475,0,0,0,.45117.17089.90637.90637,0,0,0,.32227-.05273,1.32336,1.32336,0,0,0,.24121-.11523c.06836-.042.125-.08008.17187-.11524a.21674.21674,0,0,1,.126-.05273.12574.12574,0,0,1,.08692.02832.34057.34057,0,0,1,.0664.09082l.25977.59472a2.53746,2.53746,0,0,1-.77344.47266,2.39656,2.39656,0,0,1-.87891.17188,1.49253,1.49253,0,0,1-1.07031-.3711A1.452,1.452,0,0,1,133.11328,106.06348Z" style="fill:blue"/><path d="M142.50684,107.40039h-.64356a.3796.3796,0,0,1-.333-.126.53094.53094,0,0,1-.08691-.30761l.125-1.4209a5.88226,5.88226,0,0,1-.542.80566,3.78156,3.78156,0,0,1-.61621.61524,2.719,2.719,0,0,1-.68164.39258,2.03028,2.03028,0,0,1-.74219.13867,1.7471,1.7471,0,0,1-.76367-.16407,1.57612,1.57612,0,0,1-.584-.48339,2.35219,2.35219,0,0,1-.375-.78418,3.91953,3.91953,0,0,1-.13281-1.06739,4.7896,4.7896,0,0,1,.1582-1.22851,5.00032,5.00032,0,0,1,.44727-1.12989,4.93462,4.93462,0,0,1,.69726-.97656,4.64311,4.64311,0,0,1,.90625-.77051,4.30407,4.30407,0,0,1,1.07422-.5039,4.024,4.024,0,0,1,1.2041-.17871,5.17108,5.17108,0,0,1,.88575.07519,3.59859,3.59859,0,0,1,.84961.25782Zm-3.05176-.93848a1.22867,1.22867,0,0,0,.67187-.21,2.5742,2.5742,0,0,0,.62305-.582,5.065,5.065,0,0,0,.54883-.88574,7.93284,7.93284,0,0,0,.45215-1.126l.30078-2.39843a.48514.48514,0,0,0-.30371-.124h-.29883a2.45753,2.45753,0,0,0-.81152.13574,2.90893,2.90893,0,0,0-.73536.38086,3.30866,3.30866,0,0,0-.623.583,3.83475,3.83475,0,0,0-.47852.74317,4.25131,4.25131,0,0,0-.3125.8623,3.955,3.955,0,0,0-.11133.93848Q138.377,106.4624,139.45508,106.46191Z" style="fill:blue"/><path d="M144.418,107.40039l1.24609-10.31055h1.22461l-.61523,5.01172a5.89307,5.89307,0,0,1,.57324-.78027,3.93336,3.93336,0,0,1,.64355-.59863,2.9498,2.9498,0,0,1,.70118-.38184,2.09588,2.09588,0,0,1,.74121-.13672,1.67169,1.67169,0,0,1,1.40722.6582,3.1249,3.1249,0,0,1,.50391,1.92481,5.5937,5.5937,0,0,1-.11914,1.14844,5.80845,5.80845,0,0,1-.33984,1.0957,5.42969,5.42969,0,0,1-.53125.97266,4.22345,4.22345,0,0,1-.69336.78418,3.07209,3.07209,0,0,1-.83008.52148,2.38541,2.38541,0,0,1-.9375.18848,2.19721,2.19721,0,0,1-1.02539-.23731,2.00106,2.00106,0,0,1-.752-.67969l-.09179.45508a.6806.6806,0,0,1-.14258.27344.405.405,0,0,1-.29883.09082Zm4.0459-6.19531a1.2967,1.2967,0,0,0-.67871.21,2.87387,2.87387,0,0,0-.66211.581,5.10764,5.10764,0,0,0-.59766.88184,6.88508,6.88508,0,0,0-.48437,1.12012l-.22266,1.84179a1.48725,1.48725,0,0,0,.63672.53516,1.92441,1.92441,0,0,0,.75586.15723,1.55832,1.55832,0,0,0,.68554-.1543,2.16448,2.16448,0,0,0,.5879-.416,3.03018,3.03018,0,0,0,.47656-.61621,4.31729,4.31729,0,0,0,.35351-.75586,5.24887,5.24887,0,0,0,.22071-.833,4.87408,4.87408,0,0,0,.07617-.85059,2.21413,2.21413,0,0,0-.30078-1.2666A.97025.97025,0,0,0,148.46387,101.20508Z" style="fill:blue"/><path d="M151.83105,107.40039,153.084,97.08984h1.22461l-1.25293,10.31055Z" style="fill:blue"/><path d="M160.707,101.82812a1.91653,1.91653,0,0,1-.18945.85059,1.77287,1.77287,0,0,1-.69336.7002,5.169,5.169,0,0,1-1.38574.543,15.2975,15.2975,0,0,1-2.26856.37011c-.0039.05176-.00586.10156-.00586.15137v.15039a2.18976,2.18976,0,0,0,.40918,1.43066,1.512,1.512,0,0,0,1.23535.49414,2.31547,2.31547,0,0,0,.59864-.07031,2.59562,2.59562,0,0,0,.46875-.1709,2.14,2.14,0,0,0,.36425-.22461c.10547-.081.20118-.15625.291-.22363.08789-.06738.16992-.125.24414-.17187A.4178.4178,0,0,1,160,105.58691a.30618.30618,0,0,1,.23047.11914l.30859.38575a6.4717,6.4717,0,0,1-.69726.63281,4.04566,4.04566,0,0,1-.69629.4375,3.09978,3.09978,0,0,1-.74512.25586,4.12713,4.12713,0,0,1-.83691.08008,2.78629,2.78629,0,0,1-1.0918-.20313,2.25331,2.25331,0,0,1-.81934-.57715,2.59279,2.59279,0,0,1-.51757-.90625,3.66605,3.66605,0,0,1-.18165-1.19043,5.20019,5.20019,0,0,1,.11524-1.08789,5.01606,5.01606,0,0,1,.33594-1.0332,4.611,4.611,0,0,1,.53906-.90918,3.627,3.627,0,0,1,.72754-.72461,3.39347,3.39347,0,0,1,.90332-.47949,3.1305,3.1305,0,0,1,1.06055-.17578,2.54116,2.54116,0,0,1,.93066.15429,1.97291,1.97291,0,0,1,.64355.39258,1.56856,1.56856,0,0,1,.375.52442A1.389,1.389,0,0,1,160.707,101.82812Zm-2.14258-.7207a1.826,1.826,0,0,0-.8125.18164,2.1678,2.1678,0,0,0-.65722.501,3.05793,3.05793,0,0,0-.49024.749,4.47122,4.47122,0,0,0-.31543.92774,13.65657,13.65657,0,0,0,1.72949-.30469,4.29612,4.29612,0,0,0,1.001-.37109.967.967,0,0,0,.57422-.91407.71021.71021,0,0,0-.23437-.51074.97824.97824,0,0,0-.31836-.18555A1.36977,1.36977,0,0,0,158.56445,101.10742Z" style="fill:blue"/><path d="M162.10645,106.06348c0-.02832.001-.06446.0039-.1084.00195-.04492.00684-.1084.01367-.19238s.01758-.19434.03223-.32911c.01367-.13574.03418-.3125.0625-.53222l.44141-3.54883h-.791a.21736.21736,0,0,1-.15039-.05274.20411.20411,0,0,1-.06055-.16406c0-.01465.00293-.042.00782-.084q.00585-.063.01757-.14356c.00586-.05371.01368-.1084.02051-.165q.01026-.08349.01758-.16113l1.0918-.14648.52539-2.19141a.33582.33582,0,0,1,.10449-.1709.27884.27884,0,0,1,.18945-.0664h.65821l-.3086,2.44238h1.86231l-.1045.90332h-1.86914l-.42773,3.48633c-.02344.1914-.041.34472-.05274.46191-.01171.11621-.0205.21-.02734.2793-.00781.07031-.01172.11914-.01367.14746-.00293.02832-.00391.04883-.00391.0625a.74228.74228,0,0,0,.16407.5293.59472.59472,0,0,0,.45117.17089.90632.90632,0,0,0,.32226-.05273,1.3344,1.3344,0,0,0,.24219-.11523c.06738-.042.125-.08008.17188-.11524a.21427.21427,0,0,1,.125-.05273.13012.13012,0,0,1,.08789.02832.34057.34057,0,0,1,.0664.09082l.25977.59472a2.53054,2.53054,0,0,1-.77442.47266,2.39542,2.39542,0,0,1-.87793.17188,1.495,1.495,0,0,1-1.07128-.3711A1.45571,1.45571,0,0,1,162.10645,106.06348Z" style="fill:blue"/><path d="M170.84961,101.44336a.44536.44536,0,0,1-.11133.12207.23874.23874,0,0,1-.14062.03906.38515.38515,0,0,1-.21289-.07715c-.07813-.05078-.1709-.10839-.28125-.17187a2.29275,2.29275,0,0,0-.40235-.17481,2.01307,2.01307,0,0,0-1.14746.00684,1.42985,1.42985,0,0,0-.44824.24219,1.081,1.081,0,0,0-.291.36035.99535.99535,0,0,0-.10156.4375.6675.6675,0,0,0,.21777.52441,2.00353,2.00353,0,0,0,.5459.33985c.21875.0957.45606.18847.71094.27636a3.67558,3.67558,0,0,1,.71.33594,1.80922,1.80922,0,0,1,.5459.51856,1.414,1.414,0,0,1,.2168.81836,2.37575,2.37575,0,0,1-.19141.93847,2.34272,2.34272,0,0,1-.55371.78711,2.7364,2.7364,0,0,1-.86816.543,3.04509,3.04509,0,0,1-1.13672.20313,2.82752,2.82752,0,0,1-1.20118-.24219,2.49288,2.49288,0,0,1-.85058-.61914l.30762-.47559a.44139.44139,0,0,1,.13378-.14062.36316.36316,0,0,1,.19629-.04883.34719.34719,0,0,1,.22364.09765c.07422.06543.168.13965.28027.22071a1.79269,1.79269,0,0,0,.42285.2207,1.82608,1.82608,0,0,0,.64746.09766,1.72265,1.72265,0,0,0,.61914-.1045,1.44057,1.44057,0,0,0,.46973-.28027,1.19268,1.19268,0,0,0,.29394-.40918,1.25171,1.25171,0,0,0,.10157-.501.752.752,0,0,0-.2168-.5664,1.76892,1.76892,0,0,0-.54687-.35059c-.21875-.09277-.45508-.18066-.707-.26269a3.57944,3.57944,0,0,1-.707-.31446,1.71533,1.71533,0,0,1-.54492-.501,1.39293,1.39293,0,0,1-.2168-.81836,2.17505,2.17505,0,0,1,.17774-.86524,2.24536,2.24536,0,0,1,.51465-.73828,2.53185,2.53185,0,0,1,.81543-.51465,2.89108,2.89108,0,0,1,1.082-.19238,2.769,2.769,0,0,1,1.123.21387,2.58912,2.58912,0,0,1,.83594.57715Z" style="fill:blue"/></g><path id="Line-2" d="M126.34543,48.43931l.31581.07588.4848.12233-.24465.96961-.4848-.12232c-6.16011-1.55432-10.88442,1.94564-12.71813,8.00822l3.82871-.04211L113.12664,66.5l-4.59892-8.94986,4.12539-.04572C114.52987,50.89633,119.65533,46.91249,126.34543,48.43931Z" style="fill:blue"/></svg>