<svg id="DO_-_2H" data-name="DO - 2H" xmlns="http://www.w3.org/2000/svg" viewBox="0 0 226 200"><rect id="back" width="226" height="200" style="fill:none"/><g id="tablet2"><path id="tablet_fill" data-name="tablet fill" d="M116,122.24307a3.57227,3.57227,0,1,1,3.5-3.57178A3.54043,3.54043,0,0,1,116,122.24307Z" style="fill:#fff;fill-rule:evenodd"/><path id="tablet_outline" data-name="tablet outline" d="M116,115.6a3.07227,3.07227,0,1,1-3,3.07142A3.03977,3.03977,0,0,1,116,115.6m0-1a4.07206,4.07206,0,1,0,4,4.07142A4.03618,4.03618,0,0,0,116,114.6Z" style="fill:#333"/></g><g id="tablet1"><path id="tablet_fill-2" data-name="tablet fill" d="M110,115.64307a3.57227,3.57227,0,1,1,3.5-3.57178A3.54043,3.54043,0,0,1,110,115.64307Z" style="fill:#fff;fill-rule:evenodd"/><path id="tablet_outline-2" data-name="tablet outline" d="M110,109a3.07227,3.07227,0,1,1-3,3.07142A3.03977,3.03977,0,0,1,110,109m0-1a4.07206,4.07206,0,1,0,4,4.07142A4.03618,4.03618,0,0,0,110,108Z" style="fill:#333"/></g><g id="vial_w_cap" data-name="vial w cap"><g id="vial"><path id="water_25_" data-name="water 25%" d="M119.48132,80.36464V76.57673a1.22813,1.22813,0,0,0,0-2.40887v-.80353a1.2271,1.2271,0,0,0,0-2.40722,1.04845,1.04845,0,0,0-.98323-1.112l-10.97936,0a1,1,0,0,0-1,1v1.43457a1.23686,1.23686,0,0,0,0,2.45771v.7547a1.23685,1.23685,0,0,0,0,2.4577v2.41486H105.5a1,1,0,0,0-1,1V123.243a1,1,0,0,0,1,1h15a1,1,0,0,0,1-1V81.36464a1,1,0,0,0-1-1Z" style="fill:#d1eef3;fill-opacity:0.25"/><path id="tube" d="M120.5,124.74316h-15a1.50164,1.50164,0,0,1-1.5-1.5V81.36475a1.50164,1.50164,0,0,1,1.5-1.5h.51855V78.333a1.72209,1.72209,0,0,1-1.085-1.417,1.756,1.756,0,0,1,1.07178-1.8003,1.72359,1.72359,0,0,1-1.07178-1.41211,1.75542,1.75542,0,0,1,1.085-1.80566V70.84521a1.50165,1.50165,0,0,1,1.5-1.5h10.9795a1.51713,1.51713,0,0,1,1.44336,1.24024,1.72048,1.72048,0,0,1,.04,3.13184V73.814a1.7222,1.7222,0,0,1,0,3.11573v2.93506H120.5a1.50164,1.50164,0,0,1,1.5,1.5v41.87841A1.50164,1.50164,0,0,1,120.5,124.74316Zm-15-43.87841a.50034.50034,0,0,0-.5.5v41.87841a.50065.50065,0,0,0,.5.5h15a.50065.50065,0,0,0,.5-.5V81.36475a.50034.50034,0,0,0-.5-.5h-1.51855V76.17432l.39306-.08594a.74111.74111,0,0,0,.59082-.79443.732.732,0,0,0-.58984-.63721l-.394-.08545V72.96191l.39306-.08593a.7413.7413,0,0,0,.59082-.79493.73379.73379,0,0,0-.59131-.63574l-.39257-.08593V70.957a.55969.55969,0,0,0-.4834-.61182h-10.9795a.50035.50035,0,0,0-.5.5v1.876l-.438.05469a.75133.75133,0,0,0-.65284.82031.739.739,0,0,0,.6543.645l.43652.05615v1.63623l-.438.05469a.75133.75133,0,0,0-.65284.82031.739.739,0,0,0,.6543.645l.43652.05616v3.355Z" style="fill:#333"/><rect id="thread_2" data-name="thread 2" x="106.6483" y="73.61755" width="12.89822" height="1.00025" transform="translate(-7.4866 12.92984) rotate(-6.33401)" style="fill:#333;opacity:0.30000000000000004"/><rect id="thread_1" data-name="thread 1" x="106.70398" y="76.83527" width="12.83373" height="1.00035" transform="translate(-7.90387 13.06946) rotate(-6.38961)" style="fill:#333;opacity:0.30000000000000004"/></g><g id="cap"><g id="cap-2" data-name="cap"><rect x="103.55469" y="65.81152" width="18.89063" height="11.89063" style="fill:#333"/><path d="M121.89021,66.36662V77.147H104.10979V66.36662h17.78042M123,65.25684H103v13h20v-13Z" style="fill:#333"/></g><rect x="121" y="65.25684" width="1" height="11" style="fill:#fff;opacity:0.25"/><rect x="118.75" y="65.25684" width="1" height="11" style="fill:#fff;opacity:0.25"/><rect x="115.5" y="65.25684" width="1" height="11" style="fill:#fff;opacity:0.25"/><rect x="112.5" y="65.25684" width="1" height="11" style="fill:#fff;opacity:0.25"/><rect x="109.5" y="65.25684" width="1" height="11" style="fill:#fff;opacity:0.25"/><rect x="106.25" y="65.25684" width="1" height="11" style="fill:#fff;opacity:0.25"/><rect x="104" y="65.25684" width="1" height="11" style="fill:#fff;opacity:0.25"/></g></g><g style="isolation:isolate"><path d="M138.041,52.52344a.83181.83181,0,0,1-.14747.15039.2707.2707,0,0,1-.168.05176.38364.38364,0,0,1-.252-.12207,3.27463,3.27463,0,0,0-.33886-.26563,2.74129,2.74129,0,0,0-.501-.2666,1.93494,1.93494,0,0,0-.73535-.12207,2.145,2.145,0,0,0-.79785.13965,1.72892,1.72892,0,0,0-.59082.38183,1.61129,1.61129,0,0,0-.36817.56348,1.88364,1.88364,0,0,0-.126.69238,1.07612,1.07612,0,0,0,.168.61328,1.5368,1.5368,0,0,0,.44141.42676,3.31447,3.31447,0,0,0,.626.31445c.23535.0918.47558.18457.71777.28028s.48145.20215.7168.31836a2.53637,2.53637,0,0,1,.62695.43457,2.0167,2.0167,0,0,1,.44141.623,2.10164,2.10164,0,0,1,.168.88184,3.71274,3.71274,0,0,1-.24512,1.34766,3.2809,3.2809,0,0,1-.7041,1.10937,3.35645,3.35645,0,0,1-1.10938.75586,3.66947,3.66947,0,0,1-1.46289.28027,3.51673,3.51673,0,0,1-1.59961-.35351,3.27046,3.27046,0,0,1-1.1582-.95606l.46191-.623a.47966.47966,0,0,1,.13965-.126.36282.36282,0,0,1,.18262-.04883.42413.42413,0,0,1,.28613.15723,4.848,4.848,0,0,0,.39258.35059,2.66451,2.66451,0,0,0,.58789.3496,2.12824,2.12824,0,0,0,.875.15723,2.34257,2.34257,0,0,0,.87109-.15332,1.83421,1.83421,0,0,0,1.0752-1.082,2.31077,2.31077,0,0,0,.14746-.84277,1.147,1.147,0,0,0-.168-.64063,1.46371,1.46371,0,0,0-.44141-.43066,3.26285,3.26285,0,0,0-.61914-.30469q-.34716-.12891-.71484-.2627a7.297,7.297,0,0,1-.71387-.30078,2.42738,2.42738,0,0,1-.61914-.42675,1.94648,1.94648,0,0,1-.44043-.63672,2.273,2.273,0,0,1-.16894-.93164A3.20848,3.20848,0,0,1,133,52.82422a3.04828,3.04828,0,0,1,.64453-1.001,3.13453,3.13453,0,0,1,1.02149-.69336,3.407,3.407,0,0,1,1.35839-.25879,3.17,3.17,0,0,1,1.38575.29395,2.796,2.796,0,0,1,1.01562.80469Z" style="fill:blue"/><path d="M143.44141,60.39062a3.24665,3.24665,0,0,1-.6543.42383,2.65028,2.65028,0,0,1-.68359.22071,4.32711,4.32711,0,0,1-.75977.0625,2.64351,2.64351,0,0,1-1.08789-.21,2.16167,2.16167,0,0,1-.791-.59082,2.60038,2.60038,0,0,1-.48242-.917,3.982,3.982,0,0,1-.165-1.17968,5.08787,5.08787,0,0,1,.26953-1.65235,4.62275,4.62275,0,0,1,.75293-1.39941,3.76223,3.76223,0,0,1,1.14746-.97364,3.0024,3.0024,0,0,1,1.46387-.36425,2.51994,2.51994,0,0,1,1.17578.249,2.47242,2.47242,0,0,1,.832.72461l-.3916.46875a.34608.34608,0,0,1-.10449.09082.28889.28889,0,0,1-.14062.03516.28414.28414,0,0,1-.19239-.08789,2.78464,2.78464,0,0,0-.24511-.19532,1.67906,1.67906,0,0,0-.37793-.19629,1.6439,1.6439,0,0,0-.585-.08789,1.72884,1.72884,0,0,0-.91309.2627,2.55621,2.55621,0,0,0-.75293.71777,3.69527,3.69527,0,0,0-.50684,1.07813,4.65167,4.65167,0,0,0-.18554,1.33691,2.89871,2.89871,0,0,0,.09863.78711,1.66851,1.66851,0,0,0,.293.60254,1.35346,1.35346,0,0,0,.48047.38477,1.50515,1.50515,0,0,0,.66113.13671,2.09716,2.09716,0,0,0,.99316-.23144,1.95161,1.95161,0,0,0,.333-.21289c.0957-.07715.18262-.14844.25879-.21387q.11573-.09814.21094-.16406a.3264.3264,0,0,1,.1914-.06738.299.299,0,0,1,.23829.11914l.30859.37793A6.5795,6.5795,0,0,1,143.44141,60.39062Z" style="fill:blue"/><path d="M144.957,61l.85352-7.09766h.623a.47814.47814,0,0,1,.3086.09082.341.341,0,0,1,.11133.28028c0,.01855-.002.04492-.00391.08008s-.00391.07128-.00684.10839-.00488.07032-.00683.09766l-.00391.04981-.09765,1.28808a4.8773,4.8773,0,0,1,1.01855-1.51269,1.71645,1.71645,0,0,1,1.18652-.53223,1.48188,1.48188,0,0,1,.58789.126l-.22363,1.19726a1.71611,1.71611,0,0,0-.63769-.13281,1.54068,1.54068,0,0,0-1.21094.66113,5.49742,5.49742,0,0,0-.88867,2.00586L146.17383,61Z" style="fill:blue"/><path d="M155.26074,55.42773a1.92922,1.92922,0,0,1-.18847.85059,1.77953,1.77953,0,0,1-.69336.7002,5.17692,5.17692,0,0,1-1.38672.543,15.30353,15.30353,0,0,1-2.26758.37012c-.00391.05176-.00684.10156-.00684.15137v.15039A2.18976,2.18976,0,0,0,151.127,59.624a1.51544,1.51544,0,0,0,1.23633.49414,2.313,2.313,0,0,0,.59766-.07031,2.54191,2.54191,0,0,0,.46875-.1709,2.11247,2.11247,0,0,0,.36523-.22461c.10449-.08105.20117-.15625.29-.22363s.16992-.125.24512-.17187a.41472.41472,0,0,1,.22363-.07032.308.308,0,0,1,.23145.11914l.30761.38575a6.37491,6.37491,0,0,1-.69629.63281,4.05239,4.05239,0,0,1-.69726.4375,3.09978,3.09978,0,0,1-.74512.25586,4.12015,4.12015,0,0,1-.83691.08008,2.78972,2.78972,0,0,1-1.0918-.20313,2.24142,2.24142,0,0,1-.81836-.57715,2.5779,2.5779,0,0,1-.51758-.90625,3.63961,3.63961,0,0,1-.18261-1.19043,5.20018,5.20018,0,0,1,.11523-1.08789,5.07583,5.07583,0,0,1,.33594-1.0332,4.70833,4.70833,0,0,1,.53906-.90918,3.627,3.627,0,0,1,.72754-.72461,3.39932,3.39932,0,0,1,.9043-.47949,3.13048,3.13048,0,0,1,1.06054-.17578,2.53915,2.53915,0,0,1,.92969.15429,1.96769,1.96769,0,0,1,.64453.39258,1.56846,1.56846,0,0,1,.375.52442A1.40426,1.40426,0,0,1,155.26074,55.42773Zm-2.1416-.7207a1.823,1.823,0,0,0-.8125.18164,2.17158,2.17158,0,0,0-.6582.501,3.05822,3.05822,0,0,0-.49024.749,4.4697,4.4697,0,0,0-.31445.92774,13.60462,13.60462,0,0,0,1.72852-.30469,4.32326,4.32326,0,0,0,1.00195-.3711.97133.97133,0,0,0,.57422-.91406.70646.70646,0,0,0-.23535-.51074.968.968,0,0,0-.31836-.18555A1.36778,1.36778,0,0,0,153.11914,54.707Z" style="fill:blue"/><path d="M156.11523,53.90918h.93067a.359.359,0,0,1,.22754.06934.27523.27523,0,0,1,.10156.18945l.65039,4.56445a3.65358,3.65358,0,0,1,.03906.47168c.002.15235.00586.30274.00977.45215.05664-.14941.11328-.2998.17187-.45215q.0879-.22705.18555-.47168l1.93945-4.59277a.39606.39606,0,0,1,.13672-.17481.34637.34637,0,0,1,.21289-.07031h.51758a.31234.31234,0,0,1,.21777.07031.2806.2806,0,0,1,.09083.17481l.791,4.59277c.02734.16309.05078.32129.06641.47559s.03125.30761.04492.46191q.07031-.22411.13672-.458a4.99436,4.99436,0,0,1,.165-.47949l1.792-4.56445a.4019.4019,0,0,1,.13965-.18555.36352.36352,0,0,1,.22363-.07324h.89648L162.82812,61h-.94531c-.10742,0-.1748-.0791-.20312-.23828l-.86133-4.8086c-.01367-.07519-.02539-.15039-.03516-.22753-.00879-.07715-.01758-.15332-.02734-.22754-.02344.0791-.04688.15625-.07031.23047-.02344.07519-.05078.15234-.084.23144l-2.05078,4.80176c-.06543.15918-.1582.23828-.2793.23828h-.91015Z" style="fill:blue"/><path d="M169.29492,59.66309c0-.02832.002-.06446.00391-.1084.00195-.04492.00683-.1084.01367-.19239.00781-.084.01758-.19433.03125-.3291.01367-.13574.03516-.3125.06348-.53222l.44043-3.54883h-.791a.21907.21907,0,0,1-.15039-.05274.21007.21007,0,0,1-.05859-.16406c0-.01465.002-.042.00586-.084q.00879-.063.01757-.14356c.00782-.05371.01465-.1084.02149-.165q.01024-.08349.01758-.16113l1.09179-.14648.52539-2.19141a.32487.32487,0,0,1,.10547-.1709.27292.27292,0,0,1,.18848-.0664h.65723l-.30762,2.44238h1.8623l-.10547.90332h-1.86914l-.42578,3.48633c-.02343.1914-.041.34472-.05273.46191-.01172.11621-.02149.21-.02832.2793-.00684.07031-.01172.11914-.01465.14746-.002.02832-.00293.04883-.00293.0625a.738.738,0,0,0,.165.5293.59472.59472,0,0,0,.45117.17089.914.914,0,0,0,.32227-.05273,1.32368,1.32368,0,0,0,.24121-.11523c.06738-.042.124-.08008.1709-.11524a.219.219,0,0,1,.12695-.05273.12571.12571,0,0,1,.08691.02832.36293.36293,0,0,1,.06641.09082l.25879.59472a2.51428,2.51428,0,0,1-.77344.47266,2.38882,2.38882,0,0,1-.87891.17187,1.49574,1.49574,0,0,1-1.07031-.37109A1.45579,1.45579,0,0,1,169.29492,59.66309Z" style="fill:blue"/><path d="M173.53125,61l1.24512-10.31055h1.24609l-.58105,4.78711a4.20151,4.20151,0,0,1,1.22851-1.249,2.57435,2.57435,0,0,1,1.38281-.42383,1.5058,1.5058,0,0,1,1.23829.53223,2.39155,2.39155,0,0,1,.43457,1.54687c0,.09375-.00293.19043-.00684.291-.00488.09961-.01367.2041-.02832.31152L179.1582,61h-1.24609l.53223-4.51465c.00878-.09375.01757-.18359.02441-.26953.00781-.08691.01074-.16894.01074-.249a1.399,1.399,0,0,0-.21387-.85352.7958.7958,0,0,0-.67578-.28027,1.406,1.406,0,0,0-.64648.17187,2.63039,2.63039,0,0,0-.64844.48633,4.16174,4.16174,0,0,0-.58789.75977,5.67647,5.67647,0,0,0-.47558.99023L174.77637,61Z" style="fill:blue"/><path d="M186.56445,55.42773a1.9033,1.9033,0,0,1-.18945.85059,1.76327,1.76327,0,0,1-.69238.7002,5.1687,5.1687,0,0,1-1.38574.543,15.29779,15.29779,0,0,1-2.26856.37012c-.00488.05176-.00684.10156-.00684.15137v.15039a2.18422,2.18422,0,0,0,.41016,1.43066,1.51,1.51,0,0,0,1.23438.49414,2.32848,2.32848,0,0,0,.5996-.07031,2.65143,2.65143,0,0,0,.46876-.1709,2.13073,2.13073,0,0,0,.36328-.22461c.10546-.08105.20214-.15625.291-.22363.08789-.06738.16992-.125.24414-.17187a.42287.42287,0,0,1,.22461-.07032.30465.30465,0,0,1,.23047.11914l.30859.38575a6.56165,6.56165,0,0,1-.69628.63281,4.04566,4.04566,0,0,1-.69629.4375,3.107,3.107,0,0,1-.7461.25586,4.1104,4.1104,0,0,1-.83593.08008,2.78287,2.78287,0,0,1-1.0918-.20313,2.25694,2.25694,0,0,1-.82031-.57715,2.60807,2.60807,0,0,1-.51758-.90625,3.66606,3.66606,0,0,1-.18164-1.19043,5.26654,5.26654,0,0,1,.11523-1.08789,5.13642,5.13642,0,0,1,.33594-1.0332,4.65916,4.65916,0,0,1,.53906-.90918,3.63156,3.63156,0,0,1,.72852-.72461,3.40263,3.40263,0,0,1,.90234-.47949,3.13867,3.13867,0,0,1,1.06055-.17578,2.55008,2.55008,0,0,1,.93164.15429,1.973,1.973,0,0,1,.64355.39258,1.55179,1.55179,0,0,1,.374.52442A1.38919,1.38919,0,0,1,186.56445,55.42773Zm-2.14257-.7207a1.82184,1.82184,0,0,0-.81153.18164,2.156,2.156,0,0,0-.65723.501,3.03054,3.03054,0,0,0-.49023.749,4.47122,4.47122,0,0,0-.31543.92774,13.65657,13.65657,0,0,0,1.72949-.30469,4.28515,4.28515,0,0,0,1-.3711,1.08138,1.08138,0,0,0,.46289-.43066,1.102,1.102,0,0,0,.11133-.4834.68974.68974,0,0,0-.05566-.26172.69813.69813,0,0,0-.17871-.249.97814.97814,0,0,0-.31836-.18555A1.36591,1.36591,0,0,0,184.42188,54.707Z" style="fill:blue"/><path d="M194.59668,60.39062a3.2196,3.2196,0,0,1-.6543.42383,2.64339,2.64339,0,0,1-.68261.22071,4.335,4.335,0,0,1-.75977.0625,2.64351,2.64351,0,0,1-1.08789-.21,2.14562,2.14562,0,0,1-.791-.59082,2.6178,2.6178,0,0,1-.48339-.917,3.98167,3.98167,0,0,1-.165-1.17968,5.08761,5.08761,0,0,1,.26953-1.65235,4.644,4.644,0,0,1,.75293-1.39941,3.762,3.762,0,0,1,1.14746-.97364,3.00509,3.00509,0,0,1,1.46387-.36425,2.5172,2.5172,0,0,1,1.17578.249,2.47543,2.47543,0,0,1,.833.72461l-.39257.46875a.32433.32433,0,0,1-.1045.09082.27034.27034,0,0,1-.333-.05273,2.75521,2.75521,0,0,0-.24414-.19532,1.68786,1.68786,0,0,0-.37891-.19629,1.63441,1.63441,0,0,0-.584-.08789,1.72965,1.72965,0,0,0-.91406.2627,2.55318,2.55318,0,0,0-.75195.71777,3.67165,3.67165,0,0,0-.50781,1.07813,4.68562,4.68562,0,0,0-.18555,1.33691,2.93768,2.93768,0,0,0,.09863.78711,1.68585,1.68585,0,0,0,.29395.60254,1.35873,1.35873,0,0,0,.47949.38477,1.50819,1.50819,0,0,0,.66113.13671,2.16366,2.16366,0,0,0,.56055-.0664,2.218,2.218,0,0,0,.43359-.165,1.98076,1.98076,0,0,0,.332-.21289c.09571-.07715.18262-.14844.25977-.21387a2.58731,2.58731,0,0,1,.21-.16406.32917.32917,0,0,1,.19238-.06738.30042.30042,0,0,1,.23829.11914l.30761.37793A6.48506,6.48506,0,0,1,194.59668,60.39062Z" style="fill:blue"/><path d="M201.32715,61h-.64356a.37956.37956,0,0,1-.333-.126.53087.53087,0,0,1-.08692-.30761l.125-1.4209a5.88135,5.88135,0,0,1-.542.80566,3.78117,3.78117,0,0,1-.61621.61524,2.71865,2.71865,0,0,1-.68164.39257,2.03008,2.03008,0,0,1-.74219.13868,1.74713,1.74713,0,0,1-.76367-.16407,1.57612,1.57612,0,0,1-.584-.48339,2.35219,2.35219,0,0,1-.375-.78418,3.91953,3.91953,0,0,1-.13281-1.06739,4.78961,4.78961,0,0,1,.15821-1.22851,5.00029,5.00029,0,0,1,.44726-1.12989,4.93426,4.93426,0,0,1,.69727-.97656,4.64281,4.64281,0,0,1,.90625-.77051,4.30374,4.30374,0,0,1,1.07422-.5039,4.02389,4.02389,0,0,1,1.2041-.17871,5.171,5.171,0,0,1,.88574.07519,3.599,3.599,0,0,1,.84961.25781Zm-3.05176-.93848a1.22868,1.22868,0,0,0,.67188-.21,2.57417,2.57417,0,0,0,.623-.582,5.06534,5.06534,0,0,0,.54883-.88574,7.93284,7.93284,0,0,0,.45215-1.126l.30078-2.39843a.48514.48514,0,0,0-.30371-.124h-.29883a2.45757,2.45757,0,0,0-.81152.13574,2.90887,2.90887,0,0,0-.73535.38086,3.30841,3.30841,0,0,0-.623.583,3.83544,3.83544,0,0,0-.47852.74316,4.25162,4.25162,0,0,0-.3125.86231,3.95546,3.95546,0,0,0-.11132.93848Q197.19727,60.062,198.27539,60.06152Z" style="fill:blue"/><path d="M202.88086,63.40137l1.15527-9.499h.623a.37091.37091,0,0,1,.41992.41993L204.96,55.834a5.76274,5.76274,0,0,1,.58106-.83691,4.23245,4.23245,0,0,1,.6621-.63965,2.83361,2.83361,0,0,1,.72461-.41015,2.14837,2.14837,0,0,1,.76954-.14356,1.67112,1.67112,0,0,1,1.40625.6582,3.125,3.125,0,0,1,.5039,1.92481,5.66116,5.66116,0,0,1-.11816,1.14844,5.80774,5.80774,0,0,1-.33985,1.0957,5.433,5.433,0,0,1-.53222.97266,4.15387,4.15387,0,0,1-.69336.78418,3.07729,3.07729,0,0,1-.82813.52148,2.39008,2.39008,0,0,1-.93847.18848,2.2,2.2,0,0,1-.959-.20606,1.95478,1.95478,0,0,1-.72754-.5918l-.3789,3.10157Zm4.34766-8.59668a1.318,1.318,0,0,0-.6836.21,2.82109,2.82109,0,0,0-.668.58789,5.05623,5.05623,0,0,0-.59863.89648,7.294,7.294,0,0,0-.47949,1.127l-.22363,1.80566a1.47533,1.47533,0,0,0,.63964.543,1.95752,1.95752,0,0,0,.75977.15723,1.55959,1.55959,0,0,0,.68652-.1543,2.16428,2.16428,0,0,0,.58789-.416,3.02637,3.02637,0,0,0,.47559-.61621,4.24838,4.24838,0,0,0,.35351-.75586,5.14631,5.14631,0,0,0,.22071-.833,4.78325,4.78325,0,0,0,.07715-.85059,2.22193,2.22193,0,0,0-.30078-1.2666A.97025.97025,0,0,0,207.22852,54.80469Z" style="fill:blue"/><path d="M134.582,77.89746a2.765,2.765,0,0,1-1.06348-.19922,2.341,2.341,0,0,1-.833-.57715,2.65819,2.65819,0,0,1-.5459-.92382,3.67146,3.67146,0,0,1-.19629-1.2461,5.02406,5.02406,0,0,1,.28027-1.6875,4.58,4.58,0,0,1,.7666-1.38574,3.64193,3.64193,0,0,1,1.14844-.93848,3.06348,3.06348,0,0,1,1.43164-.34277,2.765,2.765,0,0,1,1.06348.19922,2.356,2.356,0,0,1,.833.57812,2.67052,2.67052,0,0,1,.5459.92774A3.70054,3.70054,0,0,1,138.209,73.544a4.999,4.999,0,0,1-.28027,1.67968,4.57964,4.57964,0,0,1-.7666,1.38575,3.6566,3.6566,0,0,1-1.15137.94238A3.05056,3.05056,0,0,1,134.582,77.89746Zm.11328-.97266a1.6398,1.6398,0,0,0,.92969-.28027,2.44126,2.44126,0,0,0,.71484-.74512,3.866,3.866,0,0,0,.45508-1.07421,4.965,4.965,0,0,0,.16016-1.27442,2.38212,2.38212,0,0,0-.38477-1.47656,1.31974,1.31974,0,0,0-1.11328-.49707,1.648,1.648,0,0,0-.93359.27637,2.44271,2.44271,0,0,0-.71094.74218,3.84158,3.84158,0,0,0-.45508,1.07422,4.96287,4.96287,0,0,0-.16015,1.27344,2.4174,2.4174,0,0,0,.38085,1.48047A1.31745,1.31745,0,0,0,134.69531,76.9248Z" style="fill:blue"/><path d="M139.08984,77.7998l.84766-7.09765h.62305a.37129.37129,0,0,1,.41992.41992l-.10547,1.37207a4.41229,4.41229,0,0,1,1.27734-1.41406,2.61545,2.61545,0,0,1,1.47461-.47656,1.50547,1.50547,0,0,1,1.22852.53222,2.39923,2.39923,0,0,1,.4375,1.55371c0,.09375-.00293.18946-.00781.28711-.00391.09864-.01368.20117-.02735.3086l-.5332,4.51464h-1.24512l.53223-4.51464c.00879-.09375.01758-.1836.02344-.26954.00781-.08691.01172-.16894.01172-.249a1.38493,1.38493,0,0,0-.21485-.85058.79088.79088,0,0,0-.668-.27637,1.44873,1.44873,0,0,0-.68164.18262,2.63274,2.63274,0,0,0-.66894.51367,4.15385,4.15385,0,0,0-.59864.80566,5.65766,5.65766,0,0,0-.47265,1.05274l-.40625,3.60546Z" style="fill:blue"/><path d="M148.97461,77.03027a.88.88,0,0,1,.06641-.34375.82726.82726,0,0,1,.18554-.27929.90005.90005,0,0,1,.27539-.18946.84434.84434,0,0,1,.34766-.07031.81952.81952,0,0,1,.33887.07031.9044.9044,0,0,1,.27636.18946.88337.88337,0,0,1,.18946.27929.84905.84905,0,0,1,.07031.34375.83516.83516,0,0,1-.07031.34571.89274.89274,0,0,1-.18946.27636.86432.86432,0,0,1-.61523.25293.876.876,0,0,1-.34766-.06738.86527.86527,0,0,1-.46093-.46191A.86589.86589,0,0,1,148.97461,77.03027Zm3.59766,0a.88017.88017,0,0,1,.0664-.34375.842.842,0,0,1,.18555-.27929.90432.90432,0,0,1,.27637-.18946.83969.83969,0,0,1,.34668-.07031.82731.82731,0,0,1,.33984.07031.90774.90774,0,0,1,.46484.46875.84889.84889,0,0,1,.07032.34375.835.835,0,0,1-.07032.34571.89254.89254,0,0,1-.18945.27636.83054.83054,0,0,1-.27539.18555.85814.85814,0,0,1-.33984.06738.8711.8711,0,0,1-.34668-.06738.86276.86276,0,0,1-.46192-.46191A.86606.86606,0,0,1,152.57227,77.03027Zm3.60546,0a.88018.88018,0,0,1,.06641-.34375.863.863,0,0,1,.18164-.27929.83894.83894,0,0,1,.27637-.18946.87307.87307,0,0,1,.68652,0,.89647.89647,0,0,1,.46875.46875.84889.84889,0,0,1,.07031.34375.835.835,0,0,1-.07031.34571.89254.89254,0,0,1-.18945.27636.82732.82732,0,0,1-.2793.18555.908.908,0,0,1-.68652,0,.78762.78762,0,0,1-.27637-.18555.87717.87717,0,0,1-.24805-.62207Z" style="fill:blue"/><path d="M167.251,77.7998h-.64356a.37962.37962,0,0,1-.333-.126.531.531,0,0,1-.08691-.30762l.125-1.4209a5.88238,5.88238,0,0,1-.542.80567,3.78109,3.78109,0,0,1-.61621.61523,2.71839,2.71839,0,0,1-.68164.39258,2.03024,2.03024,0,0,1-.74219.13867,1.74727,1.74727,0,0,1-.76367-.16406,1.57625,1.57625,0,0,1-.584-.4834,2.352,2.352,0,0,1-.375-.78418,3.9195,3.9195,0,0,1-.13281-1.06738,4.78973,4.78973,0,0,1,.1582-1.22852,5.00052,5.00052,0,0,1,.44727-1.12988,4.93462,4.93462,0,0,1,.69726-.97656,4.64271,4.64271,0,0,1,.90625-.77051,4.30375,4.30375,0,0,1,1.07422-.50391,4.024,4.024,0,0,1,1.2041-.17871,5.17007,5.17007,0,0,1,.88575.0752,3.59856,3.59856,0,0,1,.84961.25781Zm-3.05176-.93847a1.22875,1.22875,0,0,0,.67187-.21,2.5744,2.5744,0,0,0,.623-.582,5.06507,5.06507,0,0,0,.54883-.88575,7.9327,7.9327,0,0,0,.45215-1.126l.30078-2.39844a.48512.48512,0,0,0-.30371-.124h-.29883a2.45753,2.45753,0,0,0-.81152.13574,2.90861,2.90861,0,0,0-.73536.38086,3.308,3.308,0,0,0-.623.583,3.83467,3.83467,0,0,0-.47852.74316,4.25153,4.25153,0,0,0-.3125.8623,3.955,3.955,0,0,0-.11133.93848Q163.12109,76.86182,164.19922,76.86133Z" style="fill:blue"/><path d="M169.10547,77.7998l.84765-7.09765h.623a.37129.37129,0,0,1,.41992.41992l-.10547,1.37207a4.4122,4.4122,0,0,1,1.27735-1.41406,2.61542,2.61542,0,0,1,1.47461-.47656,1.50545,1.50545,0,0,1,1.22851.53222,2.39918,2.39918,0,0,1,.4375,1.55371c0,.09375-.00293.18946-.00781.28711-.0039.09864-.01367.20117-.02734.3086l-.53321,4.51464h-1.24511l.53222-4.51464c.00879-.09375.01758-.1836.02344-.26954.00781-.08691.01172-.16894.01172-.249a1.385,1.385,0,0,0-.21484-.85058.79089.79089,0,0,0-.668-.27637,1.4487,1.4487,0,0,0-.68164.18262,2.63278,2.63278,0,0,0-.66895.51367,4.15382,4.15382,0,0,0-.59863.80566,5.65767,5.65767,0,0,0-.47266,1.05274l-.40625,3.60546Z" style="fill:blue"/><path d="M181.26465,77.7998a.38078.38078,0,0,1-.333-.126.52384.52384,0,0,1-.08691-.30762l.13281-1.47754a5.70047,5.70047,0,0,1-.58106.82617,4.22417,4.22417,0,0,1-.66113.63379,2.90741,2.90741,0,0,1-.72168.40528,2.09958,2.09958,0,0,1-.75879.14355,1.66634,1.66634,0,0,1-1.41113-.66113,3.14294,3.14294,0,0,1-.5-1.92188,5.59129,5.59129,0,0,1,.11914-1.14746,5.91472,5.91472,0,0,1,.33984-1.09961,5.43114,5.43114,0,0,1,.53125-.97656,4.13487,4.13487,0,0,1,.69336-.78027,3.14176,3.14176,0,0,1,.82911-.51758,2.391,2.391,0,0,1,.93847-.18945,2.20218,2.20218,0,0,1,.94824.20312,2.04069,2.04069,0,0,1,.73145.58106l.48242-3.89844h1.22559L181.9082,77.7998Zm-2.541-.90332a1.28774,1.28774,0,0,0,.67481-.206,2.8175,2.8175,0,0,0,.6582-.57422,4.90852,4.90852,0,0,0,.5957-.875,7.05425,7.05425,0,0,0,.4795-1.10937l.23144-1.876a1.49656,1.49656,0,0,0-.63769-.52539,1.93946,1.93946,0,0,0-.749-.15332,1.63487,1.63487,0,0,0-.998.3291,2.88682,2.88682,0,0,0-.75586.84961,4.458,4.458,0,0,0-.47852,1.166,4.99309,4.99309,0,0,0-.168,1.2666,2.23026,2.23026,0,0,0,.30078,1.2705A.9672.9672,0,0,0,178.72363,76.89648Z" style="fill:blue"/><path d="M186.53516,77.7998l.85351-7.09765h.62305a.3709.3709,0,0,1,.41992.41992l-.09766,1.2666a4.36253,4.36253,0,0,1,1.14844-1.333,2.20013,2.20013,0,0,1,1.31543-.45214,1.20721,1.20721,0,0,1,1.06445.49414,2.45549,2.45549,0,0,1,.34278,1.41015,4.14587,4.14587,0,0,1,1.19336-1.43847,2.37759,2.37759,0,0,1,1.38965-.46582,1.38146,1.38146,0,0,1,1.17285.51171,2.39116,2.39116,0,0,1,.38867,1.46973c0,.10742-.00586.21973-.01465.33594s-.02051.23828-.03418.36426l-.5332,4.51464H194.543l.53223-4.51464a5.10177,5.10177,0,0,0,.042-.62305,1.351,1.351,0,0,0-.17578-.77344.6673.6673,0,0,0-.58789-.249,1.34641,1.34641,0,0,0-.60157.15039,2.15618,2.15618,0,0,0-.58105.44141,3.49766,3.49766,0,0,0-.52149.7207,5.92379,5.92379,0,0,0-.43066.99023l-.45508,3.85742h-1.23144l.53906-4.51464c.01367-.126.02539-.24512.03418-.35743.00976-.1123.01465-.21679.01465-.31445a1.30847,1.30847,0,0,0-.165-.73535.65017.65017,0,0,0-.57715-.23828,1.35318,1.35318,0,0,0-.64746.168,2.1291,2.1291,0,0,0-.58789.48633,4.00534,4.00534,0,0,0-.51465.77734,7.51059,7.51059,0,0,0-.43457,1.03223l-.44043,3.69628Z" style="fill:blue"/><path d="M202.71875,77.7998h-.64355a.38078.38078,0,0,1-.333-.126.53093.53093,0,0,1-.08692-.30762l.126-1.4209a5.88515,5.88515,0,0,1-.543.80567,3.73836,3.73836,0,0,1-.61523.61523,2.72379,2.72379,0,0,1-.68262.39258,2.02644,2.02644,0,0,1-.74219.13867,1.74293,1.74293,0,0,1-.76269-.16406,1.58687,1.58687,0,0,1-.585-.4834,2.33205,2.33205,0,0,1-.374-.78418,3.882,3.882,0,0,1-.13281-1.06738,4.832,4.832,0,0,1,.15723-1.22852,5.00728,5.00728,0,0,1,1.14453-2.10644,4.70013,4.70013,0,0,1,.90625-.77051,4.31014,4.31014,0,0,1,1.07519-.50391,4.01755,4.01755,0,0,1,1.20313-.17871,5.17,5.17,0,0,1,.88574.0752,3.61978,3.61978,0,0,1,.85059.25781Zm-3.05078-.93847a1.23116,1.23116,0,0,0,.67187-.21,2.59233,2.59233,0,0,0,.623-.582,5.06507,5.06507,0,0,0,.54883-.88575,8.05032,8.05032,0,0,0,.45117-1.126l.30078-2.39844a.481.481,0,0,0-.30371-.124h-.29785a2.46332,2.46332,0,0,0-.8125.13574,2.90279,2.90279,0,0,0-.73438.38086,3.27851,3.27851,0,0,0-.623.583,3.83832,3.83832,0,0,0-.47949.74316,4.19069,4.19069,0,0,0-.31153.8623,3.955,3.955,0,0,0-.11133.93848Q198.58984,76.86182,199.668,76.86133Z" style="fill:blue"/><path d="M207.11523,67.48926l-.74218,6.06836h.21679a.60657.60657,0,0,0,.23145-.03809.63.63,0,0,0,.20215-.1582l2.3457-2.40039a1.39805,1.39805,0,0,1,.2168-.18262.49135.49135,0,0,1,.27344-.06934H210.958l-2.73731,2.7793c-.06933.07422-.13867.14258-.20605.20606a1.24471,1.24471,0,0,1-.2207.16406.83424.83424,0,0,1,.18847.19629c.05274.07519.10352.15625.1543.24511l2.1289,3.5h-1.07128a.48991.48991,0,0,1-.249-.05566.531.531,0,0,1-.17187-.18945l-1.80469-2.90528a.56756.56756,0,0,0-.17969-.18847.6.6,0,0,0-.2832-.04883h-.23828l-.41211,3.38769h-1.23242l1.26757-10.31054Z" style="fill:blue"/><path d="M216.59961,72.22754a1.91576,1.91576,0,0,1-.18848.85058,1.76966,1.76966,0,0,1-.69238.7002,5.1769,5.1769,0,0,1-1.38672.543,15.30485,15.30485,0,0,1-2.26758.37012c-.00488.05175-.00781.10156-.00781.15136v.15039a2.18427,2.18427,0,0,0,.41016,1.43067,1.51334,1.51334,0,0,0,1.23535.49414,2.32644,2.32644,0,0,0,.59863-.07031,2.59658,2.59658,0,0,0,.46875-.1709,2.10279,2.10279,0,0,0,.36426-.22461c.10449-.08106.20215-.15625.29-.22363.08887-.06739.16992-.125.24512-.17188a.41979.41979,0,0,1,.22363-.07031.30646.30646,0,0,1,.23144.11914l.30762.38574a6.46206,6.46206,0,0,1-.69531.63281,4.05185,4.05185,0,0,1-.69727.4375,3.107,3.107,0,0,1-.74609.25586,4.10355,4.10355,0,0,1-.83594.08008,2.78629,2.78629,0,0,1-1.0918-.20312,2.24524,2.24524,0,0,1-.81933-.57715,2.593,2.593,0,0,1-.51758-.90625,3.63964,3.63964,0,0,1-.18262-1.19043,5.26655,5.26655,0,0,1,.11524-1.08789,5.19838,5.19838,0,0,1,.33594-1.03321,4.75752,4.75752,0,0,1,.53906-.90918,3.63177,3.63177,0,0,1,.72851-.72461,3.40849,3.40849,0,0,1,.90332-.47949,3.139,3.139,0,0,1,1.06055-.17578,2.54819,2.54819,0,0,1,.93066.1543,1.96774,1.96774,0,0,1,.64454.39258,1.55186,1.55186,0,0,1,.374.52441A1.40449,1.40449,0,0,1,216.59961,72.22754Zm-2.1416-.7207a1.81869,1.81869,0,0,0-.81153.18164,2.15994,2.15994,0,0,0-.6582.501,3.03051,3.03051,0,0,0-.49023.749,4.469,4.469,0,0,0-.31446.92773,13.60429,13.60429,0,0,0,1.72852-.30469,4.31307,4.31307,0,0,0,1.001-.37109,1.07827,1.07827,0,0,0,.46191-.43066,1.10308,1.10308,0,0,0,.1123-.4834.6897.6897,0,0,0-.05566-.26172.70112.70112,0,0,0-.17969-.249.968.968,0,0,0-.31836-.18554A1.36368,1.36368,0,0,0,214.458,71.50684Z" style="fill:blue"/><path d="M136.61914,88.64258a.44536.44536,0,0,1-.11133.12207.2367.2367,0,0,1-.14062.03906.38767.38767,0,0,1-.21289-.07715c-.07715-.05078-.16992-.1084-.28028-.17187a2.32442,2.32442,0,0,0-.40234-.17481,2.01284,2.01284,0,0,0-1.14746.00684,1.435,1.435,0,0,0-.44922.24219,1.078,1.078,0,0,0-.29.36035.982.982,0,0,0-.10156.4375.66748.66748,0,0,0,.21777.52441,1.99721,1.99721,0,0,0,.54492.33985c.21973.0957.457.18847.71094.27636a3.68365,3.68365,0,0,1,.71094.33594,1.81705,1.81705,0,0,1,.54492.51856,1.40674,1.40674,0,0,1,.21777.81835,2.35752,2.35752,0,0,1-.74511,1.72559,2.73038,2.73038,0,0,1-.86914.543,3.04526,3.04526,0,0,1-1.13672.20312,2.82744,2.82744,0,0,1-1.20117-.24218,2.47933,2.47933,0,0,1-.84961-.61914l.30761-.47559a.43123.43123,0,0,1,.13379-.14062.35729.35729,0,0,1,.19531-.04883.34942.34942,0,0,1,.22461.09765c.07422.06543.168.13965.2793.22071a1.72252,1.72252,0,0,0,1.07129.31836,1.7264,1.7264,0,0,0,.61914-.1045,1.46145,1.46145,0,0,0,.46973-.28027,1.17746,1.17746,0,0,0,.293-.40918,1.23536,1.23536,0,0,0,.10156-.501.752.752,0,0,0-.2168-.5664,1.76373,1.76373,0,0,0-.5459-.35059q-.32958-.13916-.707-.26269a3.57944,3.57944,0,0,1-.707-.31446,1.7084,1.7084,0,0,1-.5459-.501,1.39293,1.39293,0,0,1-.21679-.81836,2.1921,2.1921,0,0,1,.17773-.86524,2.234,2.234,0,0,1,.51562-.73828,2.53779,2.53779,0,0,1,.81446-.51465,2.8947,2.8947,0,0,1,1.082-.19238,2.76588,2.76588,0,0,1,1.123.21387,2.604,2.604,0,0,1,.83691.57715Z" style="fill:blue"/><path d="M139.48242,87.50879l-.53222,4.50781c-.00879.09375-.01661.18164-.02442.26563-.00683.084-.00976.166-.00976.24511a1.40274,1.40274,0,0,0,.21289.8545.7953.7953,0,0,0,.67578.27929,1.43111,1.43111,0,0,0,.66113-.1748,2.60216,2.60216,0,0,0,.6582-.49707,4.08042,4.08042,0,0,0,.59082-.77637,5.74141,5.74141,0,0,0,.47657-1.01562l.4414-3.68848h1.23828l-.85351,7.09082h-.61621a.514.514,0,0,1-.33594-.09766.36936.36936,0,0,1-.11914-.30175c0-.00391.00293-.0459.00683-.126.00489-.0791.01075-.165.01758-.25879.00782-.09277.01368-.17969.02149-.25879.00683-.0791.00976-.12109.00976-.126l.04883-.56738a4.42157,4.42157,0,0,1-1.2666,1.36914,2.56792,2.56792,0,0,1-1.44238.46485,1.49354,1.49354,0,0,1-1.22852-.53907,2.40422,2.40422,0,0,1-.4375-1.54687c0-.09278.00293-.18848.00781-.28711.00391-.09766.01368-.2002.02735-.30762l.53222-4.50781Z" style="fill:blue"/><path d="M144.85156,94.59961l.85352-7.09766h.623a.47629.47629,0,0,1,.3086.09082.341.341,0,0,1,.11133.28028c0,.01855-.001.04492-.00293.08007-.00293.03516-.00489.07129-.00684.1084-.00293.03711-.00488.07032-.00781.09766l-.00293.0498-.09863,1.28809a4.89529,4.89529,0,0,1,1.01953-1.51269,1.71432,1.71432,0,0,1,1.18554-.53223,1.47861,1.47861,0,0,1,.5879.126l-.22266,1.19727a1.72,1.72,0,0,0-.6377-.13281,1.53927,1.53927,0,0,0-1.21093.66113,5.49652,5.49652,0,0,0-.88965,2.00586l-.3916,3.29Z" style="fill:blue"/><path d="M155.15527,89.02734a1.92922,1.92922,0,0,1-.18847.85059,1.77938,1.77938,0,0,1-.69336.70019,5.17657,5.17657,0,0,1-1.38672.543,15.30353,15.30353,0,0,1-2.26758.37012c-.00391.05176-.00684.10156-.00684.15137V91.793a2.18976,2.18976,0,0,0,.40918,1.43066,1.51544,1.51544,0,0,0,1.23633.49414,2.3129,2.3129,0,0,0,.59766-.07031,2.54191,2.54191,0,0,0,.46875-.1709,2.11309,2.11309,0,0,0,.36523-.22461c.1045-.081.20117-.15625.29-.22363s.16992-.125.24512-.17187a.41472.41472,0,0,1,.22363-.07032.308.308,0,0,1,.23145.11914l.30761.38575a6.37579,6.37579,0,0,1-.69628.63281,4.05285,4.05285,0,0,1-.69727.4375,3.09963,3.09963,0,0,1-.74512.25586,4.12015,4.12015,0,0,1-.83691.08008,2.78976,2.78976,0,0,1-1.0918-.20313,2.24159,2.24159,0,0,1-.81836-.57715,2.5779,2.5779,0,0,1-.51758-.90625,3.63961,3.63961,0,0,1-.18261-1.19043,5.20018,5.20018,0,0,1,.11523-1.08789,5.07583,5.07583,0,0,1,.33594-1.0332,4.70833,4.70833,0,0,1,.53906-.90918,3.627,3.627,0,0,1,.72754-.72461,3.399,3.399,0,0,1,.9043-.47949,3.13048,3.13048,0,0,1,1.06054-.17578,2.53915,2.53915,0,0,1,.92969.15429,1.96769,1.96769,0,0,1,.64453.39258,1.56846,1.56846,0,0,1,.375.52442A1.40426,1.40426,0,0,1,155.15527,89.02734Zm-2.1416-.7207a1.823,1.823,0,0,0-.8125.18164,2.1717,2.1717,0,0,0-.6582.501,3.05822,3.05822,0,0,0-.49024.749,4.4695,4.4695,0,0,0-.31445.92774,13.60462,13.60462,0,0,0,1.72852-.30469,4.32308,4.32308,0,0,0,1.00195-.3711.97133.97133,0,0,0,.57422-.91406.70646.70646,0,0,0-.23535-.51074.968.968,0,0,0-.31836-.18555A1.36754,1.36754,0,0,0,153.01367,88.30664Z" style="fill:blue"/><path d="M159.25781,93.2627c0-.02832.001-.06446.00391-.1084.00195-.04492.00586-.1084.01367-.19239.00684-.084.01758-.19433.03125-.3291.01367-.13574.03516-.3125.0625-.53222l.44141-3.54883h-.791a.21736.21736,0,0,1-.15039-.05274.207.207,0,0,1-.05957-.16406c0-.01465.00293-.042.00684-.084q.00732-.063.01757-.14356c.00684-.05371.01368-.1084.02149-.165q.00879-.08349.01758-.16113l1.09179-.14648.52539-2.19141a.32331.32331,0,0,1,.1045-.1709.2763.2763,0,0,1,.18847-.06641h.65821l-.3086,2.44239h1.86328l-.10547.90332h-1.86914l-.42675,3.48633c-.02344.1914-.041.34472-.05274.46191-.01172.11621-.02051.21-.02832.2793-.00683.07031-.01172.11914-.01367.14746s-.00391.04883-.00391.0625a.73793.73793,0,0,0,.165.52929.59472.59472,0,0,0,.45117.1709.90633.90633,0,0,0,.32227-.05273,1.3227,1.3227,0,0,0,.24121-.11524c.06836-.042.125-.08007.17188-.11523a.21663.21663,0,0,1,.126-.05273.12574.12574,0,0,1,.08692.02832.34018.34018,0,0,1,.0664.09082l.25977.59472a2.53766,2.53766,0,0,1-.77344.47266,2.39653,2.39653,0,0,1-.8789.17187,1.49254,1.49254,0,0,1-1.07032-.37109A1.452,1.452,0,0,1,159.25781,93.2627Z" style="fill:blue"/><path d="M163.49219,94.59961l1.24609-10.31055h1.2461l-.58106,4.78711a4.18989,4.18989,0,0,1,1.22852-1.249,2.57432,2.57432,0,0,1,1.38281-.42383,1.51031,1.51031,0,0,1,1.23926.53223,2.39727,2.39727,0,0,1,.43359,1.54687c0,.09375-.00195.19043-.00684.291-.00488.09961-.01464.2041-.02832.31152l-.53125,4.51465H167.875l.53125-4.51465c.00977-.09375.01758-.18359.02539-.26953.00586-.08691.00977-.169.00977-.249a1.40619,1.40619,0,0,0-.21289-.85352.79706.79706,0,0,0-.67579-.28027,1.41344,1.41344,0,0,0-.64843.17187,2.62245,2.62245,0,0,0-.64649.48633,4.03675,4.03675,0,0,0-.58789.75977,5.5409,5.5409,0,0,0-.47656.99023l-.45508,3.75879Z" style="fill:blue"/><path d="M176.52637,89.02734a1.92923,1.92923,0,0,1-.18848.85059,1.77931,1.77931,0,0,1-.69336.70019,5.17657,5.17657,0,0,1-1.38672.543,15.30353,15.30353,0,0,1-2.26758.37012c-.0039.05176-.00683.10156-.00683.15137V91.793a2.18976,2.18976,0,0,0,.40918,1.43066,1.51543,1.51543,0,0,0,1.23633.49414,2.31283,2.31283,0,0,0,.59765-.07031,2.54191,2.54191,0,0,0,.46875-.1709,2.11319,2.11319,0,0,0,.36524-.22461c.10449-.081.20117-.15625.29-.22363s.16992-.125.24511-.17187a.41472.41472,0,0,1,.22364-.07032.308.308,0,0,1,.23144.11914l.30762.38575a6.37676,6.37676,0,0,1-.69629.63281,4.05246,4.05246,0,0,1-.69727.4375,3.09955,3.09955,0,0,1-.74511.25586,4.12025,4.12025,0,0,1-.83692.08008,2.78967,2.78967,0,0,1-1.09179-.20313,2.24142,2.24142,0,0,1-.81836-.57715,2.57775,2.57775,0,0,1-.51758-.90625,3.6396,3.6396,0,0,1-.18262-1.19043,5.20019,5.20019,0,0,1,.11524-1.08789,5.07519,5.07519,0,0,1,.33593-1.0332,4.70786,4.70786,0,0,1,.53907-.90918,3.62665,3.62665,0,0,1,.72753-.72461,3.399,3.399,0,0,1,.9043-.47949,3.13054,3.13054,0,0,1,1.06055-.17578,2.53919,2.53919,0,0,1,.92969.15429,1.96779,1.96779,0,0,1,.64453.39258,1.56846,1.56846,0,0,1,.375.52442A1.40444,1.40444,0,0,1,176.52637,89.02734Zm-2.1416-.7207a1.823,1.823,0,0,0-.8125.18164,2.17174,2.17174,0,0,0-.65821.501,3.05819,3.05819,0,0,0-.49023.749,4.46833,4.46833,0,0,0-.31445.92774,13.60441,13.60441,0,0,0,1.72851-.30469,4.32308,4.32308,0,0,0,1.002-.3711.97133.97133,0,0,0,.57422-.91406.70646.70646,0,0,0-.23535-.51074.96786.96786,0,0,0-.31836-.18555A1.36752,1.36752,0,0,0,174.38477,88.30664Z" style="fill:blue"/><path d="M177.31055,94.59961l.85351-7.09766h.62305a.47626.47626,0,0,1,.30859.09082.341.341,0,0,1,.11133.28028c0,.01855-.001.04492-.00293.08007-.00293.03516-.00488.07129-.00683.1084-.00293.03711-.00489.07032-.00782.09766l-.00293.0498-.09863,1.28809a4.89547,4.89547,0,0,1,1.01953-1.51269,1.71432,1.71432,0,0,1,1.18555-.53223,1.47853,1.47853,0,0,1,.58789.126l-.22266,1.19727a1.72,1.72,0,0,0-.63769-.13281,1.53927,1.53927,0,0,0-1.21094.66113,5.49668,5.49668,0,0,0-.88965,2.00586l-.3916,3.29Z" style="fill:blue"/><path d="M187.61426,89.02734a1.92923,1.92923,0,0,1-.18848.85059,1.77931,1.77931,0,0,1-.69336.70019,5.17657,5.17657,0,0,1-1.38672.543,15.30353,15.30353,0,0,1-2.26758.37012c-.0039.05176-.00683.10156-.00683.15137V91.793a2.18976,2.18976,0,0,0,.40918,1.43066,1.51544,1.51544,0,0,0,1.23633.49414,2.31283,2.31283,0,0,0,.59765-.07031,2.54191,2.54191,0,0,0,.46875-.1709,2.11281,2.11281,0,0,0,.36524-.22461c.10449-.081.20117-.15625.29-.22363s.16992-.125.24511-.17187a.41472.41472,0,0,1,.22364-.07032.308.308,0,0,1,.23144.11914l.30762.38575a6.37676,6.37676,0,0,1-.69629.63281,4.05208,4.05208,0,0,1-.69727.4375,3.09955,3.09955,0,0,1-.74511.25586,4.12025,4.12025,0,0,1-.83692.08008,2.78967,2.78967,0,0,1-1.09179-.20313,2.24142,2.24142,0,0,1-.81836-.57715,2.57775,2.57775,0,0,1-.51758-.90625,3.6396,3.6396,0,0,1-.18262-1.19043,5.20019,5.20019,0,0,1,.11524-1.08789,5.07519,5.07519,0,0,1,.33593-1.0332,4.70786,4.70786,0,0,1,.53907-.90918,3.62665,3.62665,0,0,1,.72753-.72461,3.399,3.399,0,0,1,.9043-.47949,3.13054,3.13054,0,0,1,1.06055-.17578,2.53919,2.53919,0,0,1,.92969.15429,1.96769,1.96769,0,0,1,.64453.39258,1.56846,1.56846,0,0,1,.375.52442A1.40444,1.40444,0,0,1,187.61426,89.02734Zm-2.1416-.7207a1.823,1.823,0,0,0-.8125.18164,2.17174,2.17174,0,0,0-.65821.501,3.05819,3.05819,0,0,0-.49023.749,4.46833,4.46833,0,0,0-.31445.92774,13.60408,13.60408,0,0,0,1.72851-.30469,4.32308,4.32308,0,0,0,1.00195-.3711.97133.97133,0,0,0,.57422-.91406.70646.70646,0,0,0-.23535-.51074.96786.96786,0,0,0-.31836-.18555A1.36752,1.36752,0,0,0,185.47266,88.30664Z" style="fill:blue"/><path d="M196.31543,94.59961h-.64355a.37957.37957,0,0,1-.333-.126.53087.53087,0,0,1-.08692-.30761l.125-1.4209a5.88135,5.88135,0,0,1-.542.80566,3.78117,3.78117,0,0,1-.61621.61524,2.71865,2.71865,0,0,1-.68164.39257,2.03,2.03,0,0,1-.74219.13868,1.74716,1.74716,0,0,1-.76367-.16407,1.576,1.576,0,0,1-.584-.4834,2.35162,2.35162,0,0,1-.375-.78418,3.91943,3.91943,0,0,1-.13282-1.06738,4.78961,4.78961,0,0,1,.15821-1.22851,5.00029,5.00029,0,0,1,.44726-1.12989,4.93426,4.93426,0,0,1,.69727-.97656,4.64281,4.64281,0,0,1,.90625-.77051,4.3039,4.3039,0,0,1,1.07422-.5039,4.02389,4.02389,0,0,1,1.2041-.17871,5.171,5.171,0,0,1,.88574.07519,3.599,3.599,0,0,1,.84961.25781Zm-3.05176-.93848a1.22868,1.22868,0,0,0,.67188-.21,2.57417,2.57417,0,0,0,.623-.582,5.06474,5.06474,0,0,0,.54883-.88574,7.93331,7.93331,0,0,0,.45215-1.126l.30078-2.39844a.48518.48518,0,0,0-.30371-.124h-.29883a2.45761,2.45761,0,0,0-.81152.13574,2.90887,2.90887,0,0,0-.73535.38086,3.30808,3.30808,0,0,0-.62305.583,3.83493,3.83493,0,0,0-.47851.74316,4.25042,4.25042,0,0,0-.3125.86231,3.955,3.955,0,0,0-.11133.93848Q192.18555,93.66162,193.26367,93.66113Z" style="fill:blue"/><path d="M198.16992,94.59961l.85449-7.09766h.62305a.47523.47523,0,0,1,.30762.09082.34146.34146,0,0,1,.1123.28028c0,.01855-.001.04492-.00293.08007-.00293.03516-.00586.07129-.00781.1084s-.00391.07032-.00684.09766a.47048.47048,0,0,0-.00292.0498l-.09864,1.28809a4.9114,4.9114,0,0,1,1.01856-1.51269,1.71643,1.71643,0,0,1,1.18652-.53223,1.48207,1.48207,0,0,1,.58789.126l-.22363,1.19727a1.7113,1.7113,0,0,0-.63672-.13281,1.53648,1.53648,0,0,0-1.21094.66113,5.48031,5.48031,0,0,0-.88965,2.00586l-.3916,3.29Z" style="fill:blue"/><path d="M208.47461,89.02734a1.91653,1.91653,0,0,1-.18945.85059,1.77286,1.77286,0,0,1-.69336.70019,5.16829,5.16829,0,0,1-1.38575.543,15.29734,15.29734,0,0,1-2.26856.37012c-.0039.05176-.00585.10156-.00585.15137V91.793a2.18976,2.18976,0,0,0,.40918,1.43066,1.512,1.512,0,0,0,1.23535.49414,2.31534,2.31534,0,0,0,.59863-.07031,2.59506,2.59506,0,0,0,.46875-.1709,2.1407,2.1407,0,0,0,.36426-.22461c.10547-.081.20117-.15625.291-.22363.08789-.06738.16992-.125.24414-.17187a.4178.4178,0,0,1,.22461-.07032.30619.30619,0,0,1,.23047.11914l.30859.38575a6.4717,6.4717,0,0,1-.69726.63281,4.04566,4.04566,0,0,1-.69629.4375,3.09978,3.09978,0,0,1-.74512.25586,4.12716,4.12716,0,0,1-.83692.08008,2.78628,2.78628,0,0,1-1.09179-.20313,2.25331,2.25331,0,0,1-.81934-.57715,2.59305,2.59305,0,0,1-.51758-.90625,3.66632,3.66632,0,0,1-.18164-1.19043,5.20019,5.20019,0,0,1,.11524-1.08789,5.01546,5.01546,0,0,1,.33594-1.0332,4.611,4.611,0,0,1,.53906-.90918,3.6267,3.6267,0,0,1,.72754-.72461,3.39319,3.39319,0,0,1,.90332-.47949,3.13048,3.13048,0,0,1,1.06054-.17578,2.541,2.541,0,0,1,.93067.15429,1.973,1.973,0,0,1,.64355.39258,1.56846,1.56846,0,0,1,.375.52442A1.38921,1.38921,0,0,1,208.47461,89.02734Zm-2.14258-.7207a1.826,1.826,0,0,0-.8125.18164,2.16784,2.16784,0,0,0-.65723.501,3.05819,3.05819,0,0,0-.49023.749,4.471,4.471,0,0,0-.31543.92774,13.65657,13.65657,0,0,0,1.72949-.30469,4.29562,4.29562,0,0,0,1.001-.3711.96706.96706,0,0,0,.57422-.91406.71017.71017,0,0,0-.23438-.51074.97814.97814,0,0,0-.31836-.18555A1.36951,1.36951,0,0,0,206.332,88.30664Z" style="fill:blue"/><path d="M132.05566,111.40039l.84668-7.09766h.623a.37091.37091,0,0,1,.41992.41993l-.10449,1.37207a4.39018,4.39018,0,0,1,1.27734-1.41407,2.61249,2.61249,0,0,1,1.47364-.47656,1.50286,1.50286,0,0,1,1.22851.53223,2.39918,2.39918,0,0,1,.4375,1.55371c0,.09375-.00195.18945-.00781.28711-.00391.09863-.01367.20117-.02734.30859l-.53223,4.51465h-1.24512l.53125-4.51465c.00977-.09375.01758-.18359.02442-.26953.00683-.08691.01074-.16894.01074-.249a1.38535,1.38535,0,0,0-.21387-.85059.79165.79165,0,0,0-.66894-.27637,1.45163,1.45163,0,0,0-.68164.18262,2.64606,2.64606,0,0,0-.668.51367,4.19635,4.19635,0,0,0-.59961.80567,5.72157,5.72157,0,0,0-.47266,1.05273l-.40527,3.60547Z" style="fill:blue"/><path d="M141.94629,111.49805a2.76145,2.76145,0,0,1-1.06348-.19922,2.34471,2.34471,0,0,1-.834-.57715,2.67149,2.67149,0,0,1-.54492-.92383,3.67081,3.67081,0,0,1-.19727-1.24609,5,5,0,0,1,.28125-1.6875,4.55671,4.55671,0,0,1,.76563-1.38574A3.64151,3.64151,0,0,1,141.502,104.54a3.06622,3.06622,0,0,1,1.43164-.34277,2.77,2.77,0,0,1,1.06446.19921,2.3436,2.3436,0,0,1,.832.57813,2.65725,2.65725,0,0,1,.54687.92773,3.70086,3.70086,0,0,1,.19532,1.24219,5.02289,5.02289,0,0,1-.2793,1.67969,4.60278,4.60278,0,0,1-.76758,1.38574,3.65287,3.65287,0,0,1-1.15039.94238A3.05343,3.05343,0,0,1,141.94629,111.49805Zm.1123-.97266a1.64518,1.64518,0,0,0,.93067-.28027,2.43853,2.43853,0,0,0,.71386-.74512,3.83754,3.83754,0,0,0,.45508-1.07422,4.96506,4.96506,0,0,0,.16114-1.27441,2.38217,2.38217,0,0,0-.38477-1.47657,1.32221,1.32221,0,0,0-1.11328-.49707,1.65109,1.65109,0,0,0-.93457.27637,2.45435,2.45435,0,0,0-.71094.74219,3.84158,3.84158,0,0,0-.45508,1.07422,4.96282,4.96282,0,0,0-.16015,1.27344,2.41729,2.41729,0,0,0,.38086,1.48046A1.31863,1.31863,0,0,0,142.05859,110.52539Z" style="fill:blue"/><path d="M154.37109,111.40039h-.64453a.37989.37989,0,0,1-.332-.126.52423.52423,0,0,1-.08789-.30761l.127-1.4209a5.97533,5.97533,0,0,1-.543.80566,3.73805,3.73805,0,0,1-.61523.61524,2.72959,2.72959,0,0,1-.68359.39258,2.02269,2.02269,0,0,1-.74219.13867,1.74157,1.74157,0,0,1-.76172-.16407,1.5898,1.5898,0,0,1-.58594-.48339,2.35014,2.35014,0,0,1-.373-.78418,3.84263,3.84263,0,0,1-.13379-1.06739,4.83232,4.83232,0,0,1,.15722-1.22851,5.0074,5.0074,0,0,1,1.14454-2.10645,4.73033,4.73033,0,0,1,.90624-.77051,4.32681,4.32681,0,0,1,1.0752-.5039,4.02393,4.02393,0,0,1,1.2041-.17871,5.16809,5.16809,0,0,1,.88477.07519,3.641,3.641,0,0,1,.85156.25782Zm-3.05175-.93848a1.2311,1.2311,0,0,0,.67187-.21,2.55652,2.55652,0,0,0,.62305-.582,5.06621,5.06621,0,0,0,.5498-.88574,8.04924,8.04924,0,0,0,.45117-1.126l.30079-2.39843a.48548.48548,0,0,0-.30469-.124h-.29688a2.45912,2.45912,0,0,0-.8125.13574,2.88658,2.88658,0,0,0-.73437.38086,3.25021,3.25021,0,0,0-.62305.583,3.798,3.798,0,0,0-.48047.74317,4.18825,4.18825,0,0,0-.31054.8623,3.90563,3.90563,0,0,0-.11231.93848Q150.24121,110.4624,151.31934,110.46191Z" style="fill:blue"/><path d="M158.47266,104.30957l-.85352,7.09082h-1.22461l.85352-7.09082Zm.46875-2.22656a.792.792,0,0,1-.07227.33984.99007.99007,0,0,1-.19726.28027.95345.95345,0,0,1-.2754.19239.773.773,0,0,1-.32226.07031.75239.75239,0,0,1-.31543-.07031.85143.85143,0,0,1-.26856-.19239.95352.95352,0,0,1-.18554-.28027.82056.82056,0,0,1-.07031-.33984.84764.84764,0,0,1,.07031-.34278.9458.9458,0,0,1,.46093-.47949.73037.73037,0,0,1,.31543-.07324.75888.75888,0,0,1,.32129.07031.9133.9133,0,0,1,.27735.19239.89534.89534,0,0,1,.26172.63281Z" style="fill:blue"/><path d="M159.63477,111.40039l.85449-7.09766h.623a.47521.47521,0,0,1,.30762.09082.34146.34146,0,0,1,.11231.28028c0,.01855-.001.04492-.00293.08008-.00293.03515-.00586.07129-.00782.10839s-.0039.07032-.00683.09766a.4689.4689,0,0,0-.00293.04981l-.09863,1.28808a4.91139,4.91139,0,0,1,1.01855-1.51269,1.71643,1.71643,0,0,1,1.18652-.53223,1.48188,1.48188,0,0,1,.58789.126l-.22363,1.19726a1.71126,1.71126,0,0,0-.63672-.13281,1.53646,1.53646,0,0,0-1.21093.66113,5.48031,5.48031,0,0,0-.88965,2.00586l-.3916,3.29Z" style="fill:blue"/><path d="M167.30664,111.40039l1.24609-10.31055h1.22461l-.61523,5.01172a5.98574,5.98574,0,0,1,.57422-.78027,3.89454,3.89454,0,0,1,.64355-.59863,2.94409,2.94409,0,0,1,.7002-.38184,2.10121,2.10121,0,0,1,.74219-.13672,1.67112,1.67112,0,0,1,1.40625.6582,3.125,3.125,0,0,1,.5039,1.92481,5.5937,5.5937,0,0,1-.11914,1.14844,5.73508,5.73508,0,0,1-.33887,1.0957,5.433,5.433,0,0,1-.53222.97266,4.15387,4.15387,0,0,1-.69336.78418,3.06727,3.06727,0,0,1-.8291.52148,2.38666,2.38666,0,0,1-.93848.18848,2.2029,2.2029,0,0,1-1.02539-.23731,2.00828,2.00828,0,0,1-.752-.67969l-.09082.45508a.681.681,0,0,1-.14356.27344.404.404,0,0,1-.29785.09082Zm4.04688-6.19531a1.2973,1.2973,0,0,0-.67969.21,2.87387,2.87387,0,0,0-.66211.581,5.22038,5.22038,0,0,0-.59766.88184,6.80079,6.80079,0,0,0-.4834,1.12012l-.22363,1.84179a1.4986,1.4986,0,0,0,.63672.53516,1.93156,1.93156,0,0,0,.75586.15723,1.56249,1.56249,0,0,0,.68652-.1543,2.17936,2.17936,0,0,0,.58789-.416,3.02637,3.02637,0,0,0,.47559-.61621,4.24838,4.24838,0,0,0,.35351-.75586,5.146,5.146,0,0,0,.22071-.833,4.87634,4.87634,0,0,0,.07715-.85059,2.21367,2.21367,0,0,0-.30176-1.2666A.96857.96857,0,0,0,171.35352,105.20508Z" style="fill:blue"/><path d="M176.582,104.30957l-.5332,4.50781c-.00879.09375-.0166.18164-.02344.26563-.00781.084-.01074.166-.01074.24511a1.40234,1.40234,0,0,0,.21387.8545.79333.79333,0,0,0,.6748.27929,1.43111,1.43111,0,0,0,.66113-.1748,2.6022,2.6022,0,0,0,.65821-.49707,4.04329,4.04329,0,0,0,.59179-.77637,5.8832,5.8832,0,0,0,.47657-1.01562l.44043-3.68848h1.23925l-.85351,7.09082H179.5a.51579.51579,0,0,1-.33594-.09766.36936.36936,0,0,1-.11914-.30175l.00781-.126c.00391-.0791.00977-.165.01758-.25879.00684-.09277.01367-.17969.02051-.25879s.01074-.12109.01074-.126l.04883-.56739a4.43541,4.43541,0,0,1-1.26758,1.36914,2.56725,2.56725,0,0,1-1.4414.46485,1.49227,1.49227,0,0,1-1.22852-.53907,2.40422,2.40422,0,0,1-.4375-1.54687c0-.09277.002-.18848.00781-.28711.00391-.09766.01368-.2002.02735-.30762l.53125-4.50781Z" style="fill:blue"/><path d="M182.00684,111.40039l1.24511-10.31055h1.22559l-.61621,5.01172a6.077,6.077,0,0,1,.57422-.78027,3.86046,3.86046,0,0,1,.64453-.59863,2.938,2.938,0,0,1,.69922-.38184,2.10115,2.10115,0,0,1,.74218-.13672,1.673,1.673,0,0,1,1.40723.6582,3.1249,3.1249,0,0,1,.50391,1.92481,5.66264,5.66264,0,0,1-.11914,1.14844,5.87871,5.87871,0,0,1-.33887,1.0957,5.37676,5.37676,0,0,1-.5332.97266,4.14933,4.14933,0,0,1-.69239.78418,3.08206,3.08206,0,0,1-.8291.52148,2.39015,2.39015,0,0,1-.93847.18848,2.19728,2.19728,0,0,1-1.0254-.23731,2.01113,2.01113,0,0,1-.75293-.67969l-.08984.45508a.68112.68112,0,0,1-.14453.27344.40137.40137,0,0,1-.29687.09082Zm4.04589-6.19531a1.29726,1.29726,0,0,0-.67968.21,2.85065,2.85065,0,0,0-.66114.581,5.28093,5.28093,0,0,0-.59863.88184,6.79826,6.79826,0,0,0-.48242,1.12012l-.22461,1.84179a1.50429,1.50429,0,0,0,.63672.53516,1.93266,1.93266,0,0,0,.75683.15723,1.56256,1.56256,0,0,0,.68653-.1543,2.17952,2.17952,0,0,0,.58789-.416,3.026,3.026,0,0,0,.47558-.61621,4.31733,4.31733,0,0,0,.35352-.75586,5.24663,5.24663,0,0,0,.21973-.833,4.78638,4.78638,0,0,0,.07812-.85059,2.22139,2.22139,0,0,0-.30176-1.2666A.97022.97022,0,0,0,186.05273,105.20508Z" style="fill:blue"/><path d="M189.35742,111.40039l1.24512-10.31055h1.22558l-.61621,5.01172a5.98171,5.98171,0,0,1,.57325-.78027,3.89889,3.89889,0,0,1,.64453-.59863,2.944,2.944,0,0,1,.70019-.38184,2.096,2.096,0,0,1,.74121-.13672,1.67356,1.67356,0,0,1,1.40821.6582,3.125,3.125,0,0,1,.5039,1.92481,5.66264,5.66264,0,0,1-.11914,1.14844,5.955,5.955,0,0,1-.33984,1.0957,5.37287,5.37287,0,0,1-.53223.97266,4.21884,4.21884,0,0,1-.69238.78418,3.087,3.087,0,0,1-.83008.52148,2.38891,2.38891,0,0,1-.9375.18848,2.19158,2.19158,0,0,1-1.02539-.23731,2.0038,2.0038,0,0,1-.75293-.67969l-.09082.45508a.681.681,0,0,1-.14355.27344.40247.40247,0,0,1-.29786.09082Zm4.04492-6.19531a1.29675,1.29675,0,0,0-.67871.21,2.85061,2.85061,0,0,0-.66113.581,5.16517,5.16517,0,0,0-.59863.88184,6.88344,6.88344,0,0,0-.4834,1.12012l-.22363,1.84179a1.49282,1.49282,0,0,0,.63671.53516,1.92556,1.92556,0,0,0,.75684.15723,1.55836,1.55836,0,0,0,.68555-.1543,2.16459,2.16459,0,0,0,.58789-.416,3.02983,3.02983,0,0,0,.47656-.61621,4.39,4.39,0,0,0,.35352-.75586,5.35366,5.35366,0,0,0,.21972-.833,4.78325,4.78325,0,0,0,.07715-.85059,2.22185,2.22185,0,0,0-.30078-1.2666A.97191.97191,0,0,0,193.40234,105.20508Z" style="fill:blue"/><path d="M196.76953,111.40039l1.25293-10.31055h1.22559l-1.25391,10.31055Z" style="fill:blue"/><path d="M205.64551,105.82812a1.92923,1.92923,0,0,1-.18848.85059,1.77939,1.77939,0,0,1-.69336.7002,5.17723,5.17723,0,0,1-1.38672.543,15.30376,15.30376,0,0,1-2.26757.37011c-.00391.05176-.00684.10156-.00684.15137v.15039a2.18976,2.18976,0,0,0,.40918,1.43066,1.51541,1.51541,0,0,0,1.23633.49414,2.31283,2.31283,0,0,0,.59765-.07031,2.54191,2.54191,0,0,0,.46875-.1709,2.11258,2.11258,0,0,0,.36524-.22461c.10449-.081.20117-.15625.29-.22363s.16992-.125.24511-.17187a.41472.41472,0,0,1,.22364-.07032.308.308,0,0,1,.23144.11914l.30762.38575a6.37676,6.37676,0,0,1-.69629.63281,4.05208,4.05208,0,0,1-.69727.4375,3.09955,3.09955,0,0,1-.74511.25586,4.12025,4.12025,0,0,1-.83692.08008,2.78967,2.78967,0,0,1-1.09179-.20313,2.24142,2.24142,0,0,1-.81836-.57715,2.57766,2.57766,0,0,1-.51758-.90625,3.6396,3.6396,0,0,1-.18262-1.19043,5.20019,5.20019,0,0,1,.11524-1.08789,5.07519,5.07519,0,0,1,.33593-1.0332,4.70786,4.70786,0,0,1,.53907-.90918,3.6267,3.6267,0,0,1,.72754-.72461,3.39911,3.39911,0,0,1,.90429-.47949,3.13054,3.13054,0,0,1,1.06055-.17578,2.5394,2.5394,0,0,1,.92969.15429,1.96779,1.96779,0,0,1,.64453.39258,1.56856,1.56856,0,0,1,.375.52442A1.40444,1.40444,0,0,1,205.64551,105.82812Zm-2.1416-.7207a1.823,1.823,0,0,0-.8125.18164,2.17174,2.17174,0,0,0-.65821.501,3.05819,3.05819,0,0,0-.49023.749,4.46853,4.46853,0,0,0-.31445.92774,13.60408,13.60408,0,0,0,1.72851-.30469,4.32359,4.32359,0,0,0,1.00195-.37109.97135.97135,0,0,0,.57422-.91407.70646.70646,0,0,0-.23535-.51074.96786.96786,0,0,0-.31836-.18555A1.36776,1.36776,0,0,0,203.50391,105.10742Z" style="fill:blue"/><path d="M210.99316,105.44336a.46244.46244,0,0,1-.1123.12207.23563.23563,0,0,1-.13965.03906.39048.39048,0,0,1-.21387-.07715c-.07617-.05078-.16992-.10839-.27929-.17187a2.35881,2.35881,0,0,0-.40235-.17481,2.01647,2.01647,0,0,0-1.14843.00684,1.42979,1.42979,0,0,0-.44825.24219,1.06631,1.06631,0,0,0-.29.36035.969.969,0,0,0-.10156.4375.67.67,0,0,0,.2168.52441,1.98846,1.98846,0,0,0,.5459.33985c.21972.0957.45605.18847.71.27636a3.63049,3.63049,0,0,1,.71094.33594,1.82057,1.82057,0,0,1,.54589.51856,1.40675,1.40675,0,0,1,.21778.81836,2.36342,2.36342,0,0,1-.7461,1.72558,2.72541,2.72541,0,0,1-.86816.543,3.05389,3.05389,0,0,1-1.1377.20313,2.82608,2.82608,0,0,1-1.20019-.24219,2.48346,2.48346,0,0,1-.85059-.61914l.3086-.47559a.42866.42866,0,0,1,.13281-.14062.35958.35958,0,0,1,.19531-.04883.34541.34541,0,0,1,.22461.09765c.07421.06543.168.13965.2793.22071a1.86094,1.86094,0,0,0,.42383.2207,1.82812,1.82812,0,0,0,.64843.09766,1.7264,1.7264,0,0,0,.61914-.1045,1.467,1.467,0,0,0,.46875-.28027,1.16752,1.16752,0,0,0,.29395-.40918,1.25187,1.25187,0,0,0,.10156-.501.75256.75256,0,0,0-.21777-.5664,1.77028,1.77028,0,0,0-.54492-.35059q-.3296-.13916-.707-.26269a3.554,3.554,0,0,1-.707-.31446,1.7118,1.7118,0,0,1-.54687-.501,1.39293,1.39293,0,0,1-.2168-.81836,2.19314,2.19314,0,0,1,.17871-.86524,2.231,2.231,0,0,1,.51465-.73828,2.55338,2.55338,0,0,1,.81543-.51465,2.88957,2.88957,0,0,1,1.08106-.19238,2.76736,2.76736,0,0,1,1.124.21387,2.61459,2.61459,0,0,1,.83691.57715Z" style="fill:blue"/></g></svg>