<svg id="DO_-_2A" data-name="DO - 2A" xmlns="http://www.w3.org/2000/svg" viewBox="0 0 226 200"><rect id="back" width="226" height="200" style="fill:none"/><g id="vial_w_cap" data-name="vial w cap"><g id="vial"><path id="water_25_" data-name="water 25%" d="M119.48132,80.36464V76.57673a1.22813,1.22813,0,0,0,0-2.40887v-.80353a1.2271,1.2271,0,0,0,0-2.40722,1.04845,1.04845,0,0,0-.98323-1.112l-10.97936,0a1,1,0,0,0-1,1v1.43457a1.23686,1.23686,0,0,0,0,2.45771v.7547a1.23685,1.23685,0,0,0,0,2.4577v2.41486H105.5a1,1,0,0,0-1,1V123.243a1,1,0,0,0,1,1h15a1,1,0,0,0,1-1V81.36464a1,1,0,0,0-1-1Z" style="fill:#d1eef3;fill-opacity:0.25"/><path id="tube" d="M120.5,124.74316h-15a1.50164,1.50164,0,0,1-1.5-1.5V81.36475a1.50164,1.50164,0,0,1,1.5-1.5h.51855V78.333a1.72209,1.72209,0,0,1-1.085-1.417,1.756,1.756,0,0,1,1.07178-1.8003,1.72359,1.72359,0,0,1-1.07178-1.41211,1.75542,1.75542,0,0,1,1.085-1.80566V70.84521a1.50165,1.50165,0,0,1,1.5-1.5h10.9795a1.51713,1.51713,0,0,1,1.44336,1.24024,1.72048,1.72048,0,0,1,.04,3.13184V73.814a1.7222,1.7222,0,0,1,0,3.11573v2.93506H120.5a1.50164,1.50164,0,0,1,1.5,1.5v41.87841A1.50164,1.50164,0,0,1,120.5,124.74316Zm-15-43.87841a.50034.50034,0,0,0-.5.5v41.87841a.50065.50065,0,0,0,.5.5h15a.50065.50065,0,0,0,.5-.5V81.36475a.50034.50034,0,0,0-.5-.5h-1.51855V76.17432l.39306-.08594a.74111.74111,0,0,0,.59082-.79443.732.732,0,0,0-.58984-.63721l-.394-.08545V72.96191l.39306-.08593a.7413.7413,0,0,0,.59082-.79493.73379.73379,0,0,0-.59131-.63574l-.39257-.08593V70.957a.55969.55969,0,0,0-.4834-.61182h-10.9795a.50035.50035,0,0,0-.5.5v1.876l-.438.05469a.75133.75133,0,0,0-.65284.82031.739.739,0,0,0,.6543.645l.43652.05615v1.63623l-.438.05469a.75133.75133,0,0,0-.65284.82031.739.739,0,0,0,.6543.645l.43652.05616v3.355Z" style="fill:#333"/><rect id="thread_2" data-name="thread 2" x="106.6483" y="73.61755" width="12.89822" height="1.00025" transform="translate(-7.4866 12.92984) rotate(-6.33401)" style="fill:#333;opacity:0.30000000000000004"/><rect id="thread_1" data-name="thread 1" x="106.70398" y="76.83527" width="12.83373" height="1.00035" transform="translate(-7.90387 13.06946) rotate(-6.38961)" style="fill:#333;opacity:0.30000000000000004"/></g></g></svg>