<svg id="DO_4_-_2T" data-name="DO 4 - 2T" xmlns="http://www.w3.org/2000/svg" viewBox="0 0 226 200"><rect id="back" width="226" height="200" style="fill:none"/><g id="vial_w_cap" data-name="vial w cap"><g id="vial"><path id="water_25_" data-name="water 25%" d="M119.48132,80.36464V76.57673a1.22813,1.22813,0,0,0,0-2.40887v-.80353a1.2271,1.2271,0,0,0,0-2.40722,1.04845,1.04845,0,0,0-.98323-1.112l-10.97936,0a1,1,0,0,0-1,1v1.43457a1.23686,1.23686,0,0,0,0,2.45771v.7547a1.23685,1.23685,0,0,0,0,2.4577v2.41486H105.5a1,1,0,0,0-1,1V123.243a1,1,0,0,0,1,1h15a1,1,0,0,0,1-1V81.36464a1,1,0,0,0-1-1Z" style="fill:#d1eef3;fill-opacity:0.25"/><path id="color" d="M119.48132,80.36464V76.57673a1.22813,1.22813,0,0,0,0-2.40887v-.80353a1.2271,1.2271,0,0,0,0-2.40722,1.04845,1.04845,0,0,0-.98323-1.112l-10.97936,0a1,1,0,0,0-1,1v1.43457a1.23686,1.23686,0,0,0,0,2.45771v.7547a1.23685,1.23685,0,0,0,0,2.4577v2.41486H105.5a1,1,0,0,0-1,1V123.243a1,1,0,0,0,1,1h15a1,1,0,0,0,1-1V81.36464a1,1,0,0,0-1-1Z" style="fill:#d65c2c"/><path id="tube" d="M120.5,124.74316h-15a1.50164,1.50164,0,0,1-1.5-1.5V81.36475a1.50164,1.50164,0,0,1,1.5-1.5h.51855V78.333a1.72209,1.72209,0,0,1-1.085-1.417,1.756,1.756,0,0,1,1.07178-1.8003,1.72359,1.72359,0,0,1-1.07178-1.41211,1.75542,1.75542,0,0,1,1.085-1.80566V70.84521a1.50165,1.50165,0,0,1,1.5-1.5h10.9795a1.51713,1.51713,0,0,1,1.44336,1.24024,1.72048,1.72048,0,0,1,.04,3.13184V73.814a1.7222,1.7222,0,0,1,0,3.11573v2.93506H120.5a1.50164,1.50164,0,0,1,1.5,1.5v41.87841A1.50164,1.50164,0,0,1,120.5,124.74316Zm-15-43.87841a.50034.50034,0,0,0-.5.5v41.87841a.50065.50065,0,0,0,.5.5h15a.50065.50065,0,0,0,.5-.5V81.36475a.50034.50034,0,0,0-.5-.5h-1.51855V76.17432l.39306-.08594a.74111.74111,0,0,0,.59082-.79443.732.732,0,0,0-.58984-.63721l-.394-.08545V72.96191l.39306-.08593a.7413.7413,0,0,0,.59082-.79493.73379.73379,0,0,0-.59131-.63574l-.39257-.08593V70.957a.55969.55969,0,0,0-.4834-.61182h-10.9795a.50035.50035,0,0,0-.5.5v1.876l-.438.05469a.75133.75133,0,0,0-.65284.82031.739.739,0,0,0,.6543.645l.43652.05615v1.63623l-.438.05469a.75133.75133,0,0,0-.65284.82031.739.739,0,0,0,.6543.645l.43652.05616v3.355Z" style="fill:#333"/><rect id="thread_2" data-name="thread 2" x="106.6483" y="73.61755" width="12.89822" height="1.00025" transform="translate(-7.4866 12.92984) rotate(-6.33401)" style="fill:#333;opacity:0.30000000000000004"/><rect id="thread_1" data-name="thread 1" x="106.70398" y="76.83527" width="12.83373" height="1.00035" transform="translate(-7.90387 13.06946) rotate(-6.38961)" style="fill:#333;opacity:0.30000000000000004"/></g><g id="cap"><g id="cap-2" data-name="cap"><rect x="103.55469" y="65.81152" width="18.89063" height="11.89063" style="fill:#333"/><path d="M121.89021,66.36662V77.147H104.10979V66.36662h17.78042M123,65.25684H103v13h20v-13Z" style="fill:#333"/></g><rect x="121" y="65.25684" width="1" height="11" style="fill:#fff;opacity:0.25"/><rect x="118.75" y="65.25684" width="1" height="11" style="fill:#fff;opacity:0.25"/><rect x="115.5" y="65.25684" width="1" height="11" style="fill:#fff;opacity:0.25"/><rect x="112.5" y="65.25684" width="1" height="11" style="fill:#fff;opacity:0.25"/><rect x="109.5" y="65.25684" width="1" height="11" style="fill:#fff;opacity:0.25"/><rect x="106.25" y="65.25684" width="1" height="11" style="fill:#fff;opacity:0.25"/><rect x="104" y="65.25684" width="1" height="11" style="fill:#fff;opacity:0.25"/></g></g><g style="isolation:isolate"><path d="M132.46094,50.96875h1.02246a.42428.42428,0,0,1,.28027.08789.35536.35536,0,0,1,.126.22754l1.07812,7.09766c.00879.06543.01661.14453.02442.23828.00683.09375.01562.18457.02441.27246.00488.10351.00879.208.01465.31543.0459-.14942.09375-.294.14258-.4336.04883-.14062.09961-.27148.15039-.39257l3.0039-7.09766a.6032.6032,0,0,1,.18165-.2168.46428.46428,0,0,1,.29394-.09863h.30078a.42432.42432,0,0,1,.28028.08789.38234.38234,0,0,1,.13281.22754l1.25293,7.09766c.02344.12109.042.25.05566.38476.01465.13574.02539.27832.03516.42774.04687-.14942.08984-.292.12988-.42774.04-.13476.083-.26367.12988-.38476l2.82032-7.09766a.52274.52274,0,0,1,.18554-.2168.51361.51361,0,0,1,.30469-.09863h1.02148L141.34473,61h-1.18262l-1.3584-7.7207c-.01465-.0752-.02637-.15625-.03809-.24512s-.02343-.17969-.03222-.27344c-.03223.09375-.06348.18457-.09473.27344-.02929.08887-.06152.16992-.09375.24512L135.28906,61h-1.17578Z" style="fill:blue"/><path d="M149.709,61h-.64355a.38077.38077,0,0,1-.333-.126.53087.53087,0,0,1-.08691-.30761l.126-1.4209a5.885,5.885,0,0,1-.543.80566,3.73848,3.73848,0,0,1-.61524.61524,2.72388,2.72388,0,0,1-.68262.39257,2.02623,2.02623,0,0,1-.74218.13868,1.74284,1.74284,0,0,1-.7627-.16407,1.58682,1.58682,0,0,1-.585-.48339,2.33242,2.33242,0,0,1-.374-.78418,3.88161,3.88161,0,0,1-.13282-1.06739,4.83233,4.83233,0,0,1,.15723-1.22851,5.00724,5.00724,0,0,1,1.14453-2.10645,4.70083,4.70083,0,0,1,.90625-.77051,4.31053,4.31053,0,0,1,1.0752-.5039,4.01744,4.01744,0,0,1,1.20312-.17871,5.171,5.171,0,0,1,.88574.07519,3.62011,3.62011,0,0,1,.85059.25781Zm-3.05078-.93848a1.23111,1.23111,0,0,0,.67188-.21,2.59191,2.59191,0,0,0,.623-.582,5.06474,5.06474,0,0,0,.54883-.88574,8.048,8.048,0,0,0,.45117-1.126l.30079-2.39843a.481.481,0,0,0-.30371-.124h-.29786a2.46336,2.46336,0,0,0-.8125.13574,2.90288,2.90288,0,0,0-.73437.38086,3.2792,3.2792,0,0,0-.62305.583,3.83956,3.83956,0,0,0-.47949.74316,4.19076,4.19076,0,0,0-.31152.86231,3.955,3.955,0,0,0-.11133.93848Q145.58008,60.062,146.6582,60.06152Z" style="fill:blue"/><path d="M153.81152,53.90918,152.957,61h-1.22461l.85352-7.09082Zm.46875-2.22656a.79266.79266,0,0,1-.07324.33984.98692.98692,0,0,1-.19629.28027.94485.94485,0,0,1-.27636.19239.76654.76654,0,0,1-.32227.07031.748.748,0,0,1-.31445-.07031.8446.8446,0,0,1-.26954-.19239.99348.99348,0,0,1-.18554-.28027.82056.82056,0,0,1-.07031-.33984.84764.84764,0,0,1,.07031-.34278.93534.93534,0,0,1,.18945-.2832.91993.91993,0,0,1,.27246-.19629.72717.72717,0,0,1,.31543-.07324.76539.76539,0,0,1,.32129.07031.92131.92131,0,0,1,.27637.19238.89075.89075,0,0,1,.26269.63282Z" style="fill:blue"/><path d="M155.58984,59.66309c0-.02832.001-.06446.00391-.1084.00195-.04492.00586-.1084.01367-.19239.00684-.084.01758-.19433.03125-.3291.01367-.13574.03516-.3125.0625-.53222l.44141-3.54883h-.791a.21738.21738,0,0,1-.15039-.05274.207.207,0,0,1-.05957-.16406c0-.01465.00293-.042.00684-.084q.00732-.063.01758-.14356c.00683-.05371.01367-.1084.02148-.165q.00879-.08349.01758-.16113l1.0918-.14648.52539-2.19141a.32323.32323,0,0,1,.10449-.1709.27633.27633,0,0,1,.18847-.0664h.65821l-.3086,2.44238h1.86328l-.10546.90332h-1.86914l-.42676,3.48633c-.02344.1914-.041.34472-.05274.46191-.01172.11621-.0205.21-.02832.2793-.00683.07031-.01172.11914-.01367.14746s-.00391.04883-.00391.0625a.738.738,0,0,0,.165.5293.59476.59476,0,0,0,.45118.17089.90632.90632,0,0,0,.32226-.05273,1.323,1.323,0,0,0,.24121-.11523c.06836-.042.125-.08008.17188-.11524a.21663.21663,0,0,1,.126-.05273.12574.12574,0,0,1,.08692.02832.34018.34018,0,0,1,.0664.09082l.25977.59472a2.53746,2.53746,0,0,1-.77344.47266,2.39653,2.39653,0,0,1-.8789.17187,1.49255,1.49255,0,0,1-1.07032-.37109A1.452,1.452,0,0,1,155.58984,59.66309Z" style="fill:blue"/><path d="M167.68555,61H167.041a.37993.37993,0,0,1-.332-.126.52423.52423,0,0,1-.08789-.30761l.127-1.4209a5.97533,5.97533,0,0,1-.543.80566,3.73848,3.73848,0,0,1-.61524.61524,2.72924,2.72924,0,0,1-.68359.39257,2.02246,2.02246,0,0,1-.74219.13868,1.7416,1.7416,0,0,1-.76172-.16407,1.58977,1.58977,0,0,1-.58593-.48339,2.35,2.35,0,0,1-.373-.78418,3.843,3.843,0,0,1-.13379-1.06739,4.83188,4.83188,0,0,1,.15723-1.22851,5.00724,5.00724,0,0,1,1.14453-2.10645,4.73009,4.73009,0,0,1,.90625-.77051,4.32657,4.32657,0,0,1,1.07519-.5039,4.024,4.024,0,0,1,1.20411-.17871,5.16806,5.16806,0,0,1,.88476.07519,3.6414,3.6414,0,0,1,.85156.25781Zm-3.05176-.93848a1.23108,1.23108,0,0,0,.67187-.21,2.55652,2.55652,0,0,0,.62305-.582,5.0666,5.0666,0,0,0,.54981-.88574,8.05046,8.05046,0,0,0,.45117-1.126l.30078-2.39843a.48546.48546,0,0,0-.30469-.124h-.29687a2.459,2.459,0,0,0-.8125.13574,2.88681,2.88681,0,0,0-.73438.38086,3.2505,3.2505,0,0,0-.62305.583,3.79769,3.79769,0,0,0-.48046.74316,4.18857,4.18857,0,0,0-.31055.86231,3.90563,3.90563,0,0,0-.11231.93848Q163.55566,60.062,164.63379,60.06152Z" style="fill:blue"/><path d="M169.59668,61l1.24512-10.31055h1.22558l-.61621,5.01172a6.078,6.078,0,0,1,.57422-.78027,3.86085,3.86085,0,0,1,.64453-.59863,2.938,2.938,0,0,1,.69922-.38184,2.10125,2.10125,0,0,1,.74219-.13672,1.67293,1.67293,0,0,1,1.40722.6582,3.1249,3.1249,0,0,1,.50391,1.92481,5.66264,5.66264,0,0,1-.11914,1.14844,5.878,5.878,0,0,1-.33887,1.0957,5.37676,5.37676,0,0,1-.5332.97266,4.14964,4.14964,0,0,1-.69238.78418,3.08237,3.08237,0,0,1-.8291.52148,2.39016,2.39016,0,0,1-.93848.18848,2.19734,2.19734,0,0,1-1.02539-.23731,2.01105,2.01105,0,0,1-.75293-.67969l-.08985.45508a.681.681,0,0,1-.14453.27344A.40135.40135,0,0,1,170.26172,61Zm4.0459-6.19531a1.29732,1.29732,0,0,0-.67969.21,2.85061,2.85061,0,0,0-.66113.581,5.28035,5.28035,0,0,0-.59864.88184,6.79911,6.79911,0,0,0-.48242,1.12012l-.22461,1.84179a1.50435,1.50435,0,0,0,.63672.53516,1.93267,1.93267,0,0,0,.75684.15723,1.56263,1.56263,0,0,0,.68652-.1543,2.17936,2.17936,0,0,0,.58789-.416,3.02637,3.02637,0,0,0,.47559-.61621,4.31729,4.31729,0,0,0,.35351-.75586,5.24692,5.24692,0,0,0,.21973-.833,4.78547,4.78547,0,0,0,.07813-.85059,2.22147,2.22147,0,0,0-.30176-1.2666A.97025.97025,0,0,0,173.64258,54.80469Z" style="fill:blue"/><path d="M179.417,61.09766a2.7614,2.7614,0,0,1-1.06347-.19922,2.34488,2.34488,0,0,1-.834-.57715,2.67149,2.67149,0,0,1-.54492-.92383,3.67081,3.67081,0,0,1-.19727-1.24609,5,5,0,0,1,.28125-1.6875,4.55688,4.55688,0,0,1,.76563-1.38575,3.64165,3.64165,0,0,1,1.14844-.93847,3.06617,3.06617,0,0,1,1.43164-.34277,2.76993,2.76993,0,0,1,1.06445.19921,2.3436,2.3436,0,0,1,.832.57813,2.65727,2.65727,0,0,1,.54688.92773,3.70112,3.70112,0,0,1,.19531,1.24219,5.02293,5.02293,0,0,1-.2793,1.67969,4.60278,4.60278,0,0,1-.76758,1.38574,3.65276,3.65276,0,0,1-1.15039.94238A3.05343,3.05343,0,0,1,179.417,61.09766Zm.11231-.97266a1.64515,1.64515,0,0,0,.93066-.28027,2.43856,2.43856,0,0,0,.71387-.74512,3.83783,3.83783,0,0,0,.45508-1.07422A4.96506,4.96506,0,0,0,181.79,56.751a2.38217,2.38217,0,0,0-.38477-1.47657,1.32219,1.32219,0,0,0-1.11328-.49707,1.65113,1.65113,0,0,0-.93457.27637,2.45435,2.45435,0,0,0-.71094.74219,3.84157,3.84157,0,0,0-.45507,1.07422,4.96236,4.96236,0,0,0-.16016,1.27343,2.41731,2.41731,0,0,0,.38086,1.48047A1.31863,1.31863,0,0,0,179.5293,60.125Z" style="fill:blue"/><path d="M185.90625,53.90918l-.5332,4.50781c-.00879.09375-.0166.18164-.02344.26563-.00781.084-.01074.166-.01074.24511a1.40242,1.40242,0,0,0,.21386.8545.79336.79336,0,0,0,.67481.27929,1.43111,1.43111,0,0,0,.66113-.1748,2.60238,2.60238,0,0,0,.65821-.49707,4.04329,4.04329,0,0,0,.59179-.77637,5.88244,5.88244,0,0,0,.47656-1.01562l.44043-3.68848h1.23926L189.44141,61h-.61719a.51579.51579,0,0,1-.33594-.09766.36936.36936,0,0,1-.11914-.30175l.00781-.126c.00391-.0791.00977-.165.01758-.25879.00684-.09277.01367-.17969.02051-.25879s.01074-.12109.01074-.126l.04883-.56738a4.43541,4.43541,0,0,1-1.26758,1.36914,2.56726,2.56726,0,0,1-1.44141.46485,1.49225,1.49225,0,0,1-1.22851-.53907,2.40417,2.40417,0,0,1-.4375-1.54687c0-.09277.00195-.18848.00781-.28711.00391-.09766.01367-.2002.02735-.30762l.53125-4.50781Z" style="fill:blue"/><path d="M191.89062,59.66309c0-.02832.002-.06446.00391-.1084.00195-.04492.00684-.1084.01367-.19239.00782-.084.01758-.19433.03125-.3291.01367-.13574.03516-.3125.06348-.53222l.44043-3.54883h-.791a.21908.21908,0,0,1-.15039-.05274.21007.21007,0,0,1-.05859-.16406c0-.01465.00195-.042.00586-.084q.00879-.063.01758-.14356c.00781-.05371.01465-.1084.02148-.165q.01026-.08349.01758-.16113l1.0918-.14648.52539-2.19141a.32474.32474,0,0,1,.10547-.1709.27291.27291,0,0,1,.18847-.0664h.65723l-.30762,2.44238h1.86231l-.10547.90332H193.6543l-.42578,3.48633c-.02344.1914-.041.34472-.05274.46191-.01172.11621-.02148.21-.02832.2793-.00684.07031-.01172.11914-.01465.14746-.00195.02832-.00293.04883-.00293.0625a.738.738,0,0,0,.165.5293.59475.59475,0,0,0,.45117.17089.914.914,0,0,0,.32227-.05273,1.32336,1.32336,0,0,0,.24121-.11523c.06738-.042.124-.08008.1709-.11524a.21907.21907,0,0,1,.12695-.05273.12574.12574,0,0,1,.08692.02832.36319.36319,0,0,1,.0664.09082l.25879.59472a2.51416,2.51416,0,0,1-.77344.47266,2.38881,2.38881,0,0,1-.8789.17187,1.49571,1.49571,0,0,1-1.07031-.37109A1.45579,1.45579,0,0,1,191.89062,59.66309Z" style="fill:blue"/><path d="M139.14648,68.30078a.67645.67645,0,0,1-.21289.417.81706.81706,0,0,1-.56445.16407h-3.18457l-.80566,2.69531a6.75809,6.75809,0,0,1,1.42187-.168,3.76189,3.76189,0,0,1,1.28418.19922,2.58114,2.58114,0,0,1,.917.5498,2.22685,2.22685,0,0,1,.54981.8291,2.93218,2.93218,0,0,1,.18164,1.04688,3.83237,3.83237,0,0,1-.3252,1.59961,3.69257,3.69257,0,0,1-.8789,1.2207,3.95391,3.95391,0,0,1-1.291.78125,4.422,4.422,0,0,1-1.55762.27637,3.99447,3.99447,0,0,1-.833-.084,3.90978,3.90978,0,0,1-.72461-.22753,3.51634,3.51634,0,0,1-1.08789-.73145l.42578-.51855a.44816.44816,0,0,1,.34375-.168.55549.55549,0,0,1,.29687.1084c.11035.07226.24317.15234.39942.23828a3.28707,3.28707,0,0,0,.56738.23828,2.59485,2.59485,0,0,0,.80078.1084,2.8301,2.8301,0,0,0,1.06836-.19629,2.413,2.413,0,0,0,1.37891-1.39649,3.00126,3.00126,0,0,0,.19238-1.0957,1.99751,1.99751,0,0,0-.126-.72461,1.49025,1.49025,0,0,0-.3789-.55957,1.68977,1.68977,0,0,0-.63672-.36035,2.93081,2.93081,0,0,0-.91016-.126,5.1166,5.1166,0,0,0-.75195.05957,7.975,7.975,0,0,0-.87891.18555l-.7207-.21777,1.37891-4.67579h4.73242Z" style="fill:blue"/><path d="M142.877,77.7998l.8545-7.09765h.623a.3709.3709,0,0,1,.41992.41992l-.09863,1.2666a4.38891,4.38891,0,0,1,1.14844-1.333,2.20286,2.20286,0,0,1,1.3164-.45214,1.20837,1.20837,0,0,1,1.06446.49414,2.45591,2.45591,0,0,1,.3418,1.41015,4.16708,4.16708,0,0,1,1.19335-1.43847,2.37827,2.37827,0,0,1,1.39063-.46582,1.37953,1.37953,0,0,1,1.17187.51171,2.38467,2.38467,0,0,1,.38868,1.46973c0,.10742-.00489.21973-.01368.33594-.00976.11621-.02148.23828-.03515.36426l-.53223,4.51464h-1.22558l.5332-4.51464a5.28956,5.28956,0,0,0,.041-.62305,1.35955,1.35955,0,0,0-.1748-.77344.6673.6673,0,0,0-.58789-.249,1.35033,1.35033,0,0,0-.60254.15039,2.16772,2.16772,0,0,0-.58008.44141,3.42619,3.42619,0,0,0-.52148.7207,5.84422,5.84422,0,0,0-.43067.99023l-.45507,3.85742H146.875l.53906-4.51464c.01367-.126.02539-.24512.03418-.35743s.01465-.21679.01465-.31445a1.30839,1.30839,0,0,0-.165-.73535.6513.6513,0,0,0-.57715-.23828,1.35684,1.35684,0,0,0-.64843.168,2.14318,2.14318,0,0,0-.58789.48633,4.00375,4.00375,0,0,0-.51368.77734,7.51059,7.51059,0,0,0-.43457,1.03223l-.44043,3.69628Z" style="fill:blue"/><path d="M156.09375,70.709l-.85449,7.09082h-1.22559l.85449-7.09082Zm.46875-2.22656a.79339.79339,0,0,1-.07422.33985.98409.98409,0,0,1-.19531.28027.94915.94915,0,0,1-.27735.19238.75584.75584,0,0,1-.63671,0,.86648.86648,0,0,1-.26953-.19238,1.01462,1.01462,0,0,1-.18555-.28027.82064.82064,0,0,1-.07031-.33985.84759.84759,0,0,1,.07031-.34277.93534.93534,0,0,1,.18945-.2832.92378.92378,0,0,1,.27344-.19629.71985.71985,0,0,1,.31445-.07325.77293.77293,0,0,1,.32227.07032.93347.93347,0,0,1,.27636.19238.89889.89889,0,0,1,.19239.28711A.86853.86853,0,0,1,156.5625,68.48242Z" style="fill:blue"/><path d="M157.25586,77.7998l.84668-7.09765h.62207a.37121.37121,0,0,1,.4209.41992l-.10449,1.37207a4.368,4.368,0,0,1,1.27734-1.41406,2.60949,2.60949,0,0,1,1.47266-.47656,1.50154,1.50154,0,0,1,1.22851.53222,2.39353,2.39353,0,0,1,.4375,1.55371c0,.09375-.00195.18946-.00683.28711-.00489.09864-.01368.20117-.02832.3086l-.53126,4.51464h-1.24609l.53125-4.51464c.00977-.09375.01758-.1836.02539-.26954.00684-.08691.00977-.16894.00977-.249a1.38578,1.38578,0,0,0-.21289-.85058.79412.79412,0,0,0-.66895-.27637,1.45537,1.45537,0,0,0-.68262.18262,2.66329,2.66329,0,0,0-.668.51367,4.19372,4.19372,0,0,0-.59864.80566,5.65766,5.65766,0,0,0-.47265,1.05274L158.502,77.7998Z" style="fill:blue"/><path d="M166.59961,70.709l-.53125,4.50782c-.00977.09375-.01758.18164-.02539.26562-.00586.084-.00977.166-.00977.24512a1.40277,1.40277,0,0,0,.21289.85449.79656.79656,0,0,0,.67579.2793,1.43483,1.43483,0,0,0,.6621-.17481,2.61908,2.61908,0,0,0,.65821-.49707,4.12124,4.12124,0,0,0,.59082-.77636,5.73991,5.73991,0,0,0,.47558-1.01563L169.75,70.709h1.23926l-.85449,7.09082h-.61524a.51219.51219,0,0,1-.33594-.09765.36644.36644,0,0,1-.11914-.30176c0-.00391.002-.0459.00684-.126.00488-.0791.01074-.165.0166-.25879.00781-.09277.01465-.17968.02149-.25878.00781-.07911.01074-.1211.01074-.126l.04883-.56738a4.43336,4.43336,0,0,1-1.26661,1.36914,2.57028,2.57028,0,0,1-1.44238.46484,1.49356,1.49356,0,0,1-1.22851-.53906,2.39842,2.39842,0,0,1-.4375-1.54688c0-.09277.00293-.18847.00683-.28711.00488-.09765.01367-.20019.02832-.30761l.53223-4.50782Z" style="fill:blue"/><path d="M172.584,76.46289c0-.02832.002-.06445.00391-.1084.002-.04492.00781-.1084.01367-.19238.00782-.084.01758-.19434.03223-.3291.01367-.13574.03418-.3125.06348-.53223l.44043-3.54883h-.791a.21906.21906,0,0,1-.15039-.05273.207.207,0,0,1-.05957-.16406.84032.84032,0,0,1,.00683-.084q.00733-.063.01758-.14355c.00684-.05371.01465-.1084.02051-.165q.01172-.0835.01758-.16113l1.0918-.14649.52539-2.19141a.33733.33733,0,0,1,.10547-.17089.27536.27536,0,0,1,.18945-.06641h.65722l-.30761,2.44238h1.86133l-.1045.90332h-1.86914l-.42675,3.48633c-.02344.19141-.041.34473-.05274.46192-.01172.11621-.02148.21-.02734.27929-.00782.07031-.01172.11914-.01465.14746a.56456.56456,0,0,0-.00293.0625.74233.74233,0,0,0,.16406.5293.59472.59472,0,0,0,.45117.1709.914.914,0,0,0,.32227-.05274,1.3344,1.3344,0,0,0,.24219-.11523c.0664-.042.124-.08008.17089-.11523a.21667.21667,0,0,1,.126-.05274.13015.13015,0,0,1,.08789.02832.36331.36331,0,0,1,.06641.09082l.25879.59473a2.50763,2.50763,0,0,1-.77442.47265,2.38768,2.38768,0,0,1-.87793.17188,1.49823,1.49823,0,0,1-1.07129-.37109A1.45967,1.45967,0,0,1,172.584,76.46289Z" style="fill:blue"/><path d="M182.43359,72.22754a1.91589,1.91589,0,0,1-.18847.85058,1.76976,1.76976,0,0,1-.69239.7002,5.17668,5.17668,0,0,1-1.38671.543,15.30508,15.30508,0,0,1-2.26758.37012c-.00489.05175-.00782.10156-.00782.15136v.15039a2.18427,2.18427,0,0,0,.41016,1.43067,1.51336,1.51336,0,0,0,1.23535.49414,2.32652,2.32652,0,0,0,.59864-.07031,2.59714,2.59714,0,0,0,.46875-.1709,2.10307,2.10307,0,0,0,.36425-.22461c.1045-.08106.20215-.15625.29-.22363.08887-.06739.16992-.125.24512-.17188a.41979.41979,0,0,1,.22363-.07031.30648.30648,0,0,1,.23145.11914l.30761.38574a6.46111,6.46111,0,0,1-.69531.63281,4.05178,4.05178,0,0,1-.69726.4375,3.10689,3.10689,0,0,1-.7461.25586,4.10352,4.10352,0,0,1-.83593.08008,2.78629,2.78629,0,0,1-1.0918-.20312,2.24528,2.24528,0,0,1-.81934-.57715,2.59314,2.59314,0,0,1-.51758-.90625,3.63965,3.63965,0,0,1-.18261-1.19043,5.26654,5.26654,0,0,1,.11523-1.08789,5.19967,5.19967,0,0,1,.33594-1.03321,4.75855,4.75855,0,0,1,.53906-.90918,3.63156,3.63156,0,0,1,.72852-.72461,3.40849,3.40849,0,0,1,.90332-.47949,3.1389,3.1389,0,0,1,1.06054-.17578,2.54828,2.54828,0,0,1,.93067.1543,1.96769,1.96769,0,0,1,.64453.39258,1.55158,1.55158,0,0,1,.374.52441A1.40431,1.40431,0,0,1,182.43359,72.22754Zm-2.1416-.7207a1.81868,1.81868,0,0,0-.81152.18164,2.1597,2.1597,0,0,0-.6582.501,3.03054,3.03054,0,0,0-.49024.749,4.46961,4.46961,0,0,0-.31445.92773,13.60408,13.60408,0,0,0,1.72851-.30469,4.31289,4.31289,0,0,0,1.001-.37109,1.07816,1.07816,0,0,0,.46191-.43066,1.10309,1.10309,0,0,0,.11231-.4834.68972.68972,0,0,0-.05567-.26172.701.701,0,0,0-.17968-.249.96813.96813,0,0,0-.31836-.18554A1.3637,1.3637,0,0,0,180.292,71.50684Z" style="fill:blue"/><path d="M187.78125,71.84277a.44521.44521,0,0,1-.11133.12207.2367.2367,0,0,1-.14062.03907.38767.38767,0,0,1-.21289-.07715c-.07715-.05078-.16993-.1084-.28028-.17188a2.32445,2.32445,0,0,0-.40234-.1748,2.013,2.013,0,0,0-1.14746.00683,1.43518,1.43518,0,0,0-.44922.24219,1.07807,1.07807,0,0,0-.29.36035.98208.98208,0,0,0-.10156.4375.6675.6675,0,0,0,.21777.52442,1.997,1.997,0,0,0,.54492.33984c.21973.0957.457.18848.71094.27637a3.68365,3.68365,0,0,1,.71094.33594,1.81714,1.81714,0,0,1,.54492.51855,1.40675,1.40675,0,0,1,.21777.81836,2.35752,2.35752,0,0,1-.74511,1.72559,2.73036,2.73036,0,0,1-.86914.543,3.04509,3.04509,0,0,1-1.13672.20313,2.82752,2.82752,0,0,1-1.20118-.24219,2.47925,2.47925,0,0,1-.8496-.61914l.30761-.47558a.43126.43126,0,0,1,.13379-.14063.35729.35729,0,0,1,.19531-.04883.34943.34943,0,0,1,.22461.09766c.07422.06543.168.13965.2793.2207a1.72252,1.72252,0,0,0,1.07129.31836,1.72662,1.72662,0,0,0,.61914-.10449,1.46163,1.46163,0,0,0,.46973-.28027,1.17755,1.17755,0,0,0,.293-.40918,1.23556,1.23556,0,0,0,.10156-.501.752.752,0,0,0-.2168-.56641,1.76389,1.76389,0,0,0-.5459-.35058q-.32958-.13917-.707-.2627a3.57883,3.57883,0,0,1-.707-.31445,1.70832,1.70832,0,0,1-.5459-.501,1.39293,1.39293,0,0,1-.21679-.81836,2.19205,2.19205,0,0,1,.17773-.86523,2.23369,2.23369,0,0,1,.51562-.73828,2.53762,2.53762,0,0,1,.81446-.51465,2.8947,2.8947,0,0,1,1.082-.19238,2.76588,2.76588,0,0,1,1.12305.21386,2.60409,2.60409,0,0,1,.83691.57715Z" style="fill:blue"/><path d="M134.17676,88.54492l-.707,5.82324-.32227,1.44922a.60269.60269,0,0,1-.64355.52539h-.49024l.94531-7.77734-.70019-.09082a.47648.47648,0,0,1-.18848-.09766A.232.232,0,0,1,132,88.19434l.05566-.5459h1.01465l.084-.68555a3.51255,3.51255,0,0,1,.30468-1.082,2.69489,2.69489,0,0,1,.57422-.79785,2.3473,2.3473,0,0,1,.791-.49317,2.67672,2.67672,0,0,1,.95508-.168,2.10438,2.10438,0,0,1,.791.14355l-.11914.64062a.133.133,0,0,1-.09375.12207.72379.72379,0,0,1-.207.02442h-.29394a1.722,1.722,0,0,0-.55567.08691,1.15859,1.15859,0,0,0-.45215.28321,1.56925,1.56925,0,0,0-.3291.50976A2.86327,2.86327,0,0,0,134.33008,87l-.084.64844h1.77149l-.11914.89648Z" style="fill:blue"/><path d="M138.81738,94.69727a2.7614,2.7614,0,0,1-1.06347-.19922,2.34488,2.34488,0,0,1-.834-.57715,2.67149,2.67149,0,0,1-.54492-.92383,3.67081,3.67081,0,0,1-.19727-1.24609,5,5,0,0,1,.28125-1.6875,4.55688,4.55688,0,0,1,.76563-1.38575,3.64165,3.64165,0,0,1,1.14844-.93847,3.0662,3.0662,0,0,1,1.43164-.34278,2.7699,2.7699,0,0,1,1.06445.19922,2.3436,2.3436,0,0,1,.832.57813,2.65727,2.65727,0,0,1,.54688.92773,3.70112,3.70112,0,0,1,.19531,1.24219,5.02293,5.02293,0,0,1-.2793,1.67969,4.60278,4.60278,0,0,1-.76758,1.38574,3.65276,3.65276,0,0,1-1.15039.94238A3.05343,3.05343,0,0,1,138.81738,94.69727Zm.11231-.97266a1.64515,1.64515,0,0,0,.93066-.28027,2.43856,2.43856,0,0,0,.71387-.74512,3.83754,3.83754,0,0,0,.45508-1.07422,4.96506,4.96506,0,0,0,.16113-1.27441,2.38217,2.38217,0,0,0-.38477-1.47657,1.32219,1.32219,0,0,0-1.11328-.49707,1.65113,1.65113,0,0,0-.93457.27637,2.45421,2.45421,0,0,0-.71093.74219,3.84129,3.84129,0,0,0-.45508,1.07422,4.9628,4.9628,0,0,0-.16016,1.27343,2.41733,2.41733,0,0,0,.38086,1.48047A1.31863,1.31863,0,0,0,138.92969,93.72461Z" style="fill:blue"/><path d="M143.3252,94.59961l.85449-7.09766h.623a.477.477,0,0,1,.30762.09082.34146.34146,0,0,1,.11231.28028c0,.01855-.002.04492-.00391.08007s-.00488.07129-.00781.1084c-.002.03711-.00391.07032-.00586.09766-.00293.02832-.00391.04492-.00391.0498l-.09765,1.28809a4.89328,4.89328,0,0,1,1.01757-1.51269,1.71859,1.71859,0,0,1,1.1875-.53223,1.48556,1.48556,0,0,1,.58789.126l-.2246,1.19727a1.70748,1.70748,0,0,0-.63672-.13281,1.53786,1.53786,0,0,0-1.21094.66113,5.481,5.481,0,0,0-.88867,2.00586l-.39258,3.29Z" style="fill:blue"/><path d="M151.55664,93.2627c0-.02832.002-.06446.00391-.1084.00195-.04492.00781-.1084.01367-.19239.00781-.084.01758-.19433.03223-.3291.01367-.13574.03417-.3125.06347-.53222l.44043-3.54883h-.791a.219.219,0,0,1-.15039-.05274.207.207,0,0,1-.05957-.16406.8402.8402,0,0,1,.00683-.084q.00732-.063.01758-.14356c.00683-.05371.01465-.1084.02051-.165q.01172-.08349.01758-.16113l1.09179-.14648.52539-2.19141a.33736.33736,0,0,1,.10547-.1709.27543.27543,0,0,1,.18945-.06641h.65723l-.30762,2.44239h1.86133l-.10449.90332h-1.86914l-.42676,3.48633c-.02344.1914-.041.34472-.05273.46191-.01172.11621-.02149.21-.02735.2793-.00781.07031-.01172.11914-.01465.14746a.56648.56648,0,0,0-.00292.0625.74224.74224,0,0,0,.16406.52929.59469.59469,0,0,0,.45117.1709.914.914,0,0,0,.32227-.05273,1.33394,1.33394,0,0,0,.24218-.11524c.06641-.042.124-.08007.1709-.11523a.21665.21665,0,0,1,.126-.05273.13012.13012,0,0,1,.08789.02832.36269.36269,0,0,1,.0664.09082l.25879.59472a2.50768,2.50768,0,0,1-.77441.47266,2.38774,2.38774,0,0,1-.87793.17187,1.49821,1.49821,0,0,1-1.07129-.37109A1.45964,1.45964,0,0,1,151.55664,93.2627Z" style="fill:blue"/><path d="M155.793,94.59961l1.24512-10.31055h1.24609l-.58106,4.78711a4.20166,4.20166,0,0,1,1.22852-1.249,2.57435,2.57435,0,0,1,1.38281-.42383,1.50573,1.50573,0,0,1,1.23828.53223,2.3915,2.3915,0,0,1,.43457,1.54687c0,.09375-.00292.19043-.00683.291-.00488.09961-.01367.2041-.02832.31152l-.53223,4.51465h-1.24609l.53222-4.51465c.00879-.09375.01758-.18359.02442-.26953.00781-.08691.01074-.169.01074-.249a1.399,1.399,0,0,0-.21387-.85352.7958.7958,0,0,0-.67578-.28027,1.406,1.406,0,0,0-.64648.17187,2.63039,2.63039,0,0,0-.64844.48633,4.16174,4.16174,0,0,0-.58789.75977,5.67686,5.67686,0,0,0-.47559.99023l-.45507,3.75879Z" style="fill:blue"/><path d="M168.82617,89.02734a1.9033,1.9033,0,0,1-.18945.85059,1.76319,1.76319,0,0,1-.69238.70019,5.16843,5.16843,0,0,1-1.38575.543,15.2974,15.2974,0,0,1-2.26855.37012c-.00488.05176-.00684.10156-.00684.15137V91.793a2.18422,2.18422,0,0,0,.41016,1.43066,1.51,1.51,0,0,0,1.23437.49414,2.32851,2.32851,0,0,0,.59961-.07031,2.651,2.651,0,0,0,.46875-.1709,2.13107,2.13107,0,0,0,.36329-.22461c.10546-.081.20214-.15625.291-.22363.08789-.06738.16992-.125.24414-.17187a.42287.42287,0,0,1,.22461-.07032.30467.30467,0,0,1,.23047.11914l.30859.38575a6.56071,6.56071,0,0,1-.69629.63281,4.0449,4.0449,0,0,1-.69629.4375,3.10682,3.10682,0,0,1-.74609.25586,4.11043,4.11043,0,0,1-.83594.08008,2.78285,2.78285,0,0,1-1.09179-.20313,2.257,2.257,0,0,1-.82032-.57715,2.60821,2.60821,0,0,1-.51757-.90625,3.66606,3.66606,0,0,1-.18164-1.19043,5.26654,5.26654,0,0,1,.11523-1.08789,5.13642,5.13642,0,0,1,.33594-1.0332,4.65916,4.65916,0,0,1,.53906-.90918,3.6313,3.6313,0,0,1,.72852-.72461,3.40219,3.40219,0,0,1,.90234-.47949,3.13867,3.13867,0,0,1,1.06055-.17578,2.55008,2.55008,0,0,1,.93164.15429,1.973,1.973,0,0,1,.64355.39258,1.55162,1.55162,0,0,1,.374.52442A1.389,1.389,0,0,1,168.82617,89.02734Zm-2.14258-.7207a1.82179,1.82179,0,0,0-.81152.18164,2.156,2.156,0,0,0-.65723.501,3.03054,3.03054,0,0,0-.49023.749,4.471,4.471,0,0,0-.31543.92774,13.65657,13.65657,0,0,0,1.72949-.30469,4.28515,4.28515,0,0,0,1-.3711,1.08138,1.08138,0,0,0,.46289-.43066,1.102,1.102,0,0,0,.11133-.4834.68974.68974,0,0,0-.05566-.26172.698.698,0,0,0-.17871-.249.97824.97824,0,0,0-.31836-.18555A1.36574,1.36574,0,0,0,166.68359,88.30664Z" style="fill:blue"/><path d="M176.8584,93.99023a3.2196,3.2196,0,0,1-.6543.42383,2.64333,2.64333,0,0,1-.68262.22071,4.33483,4.33483,0,0,1-.75976.0625,2.64334,2.64334,0,0,1-1.08789-.21,2.14541,2.14541,0,0,1-.791-.59082,2.61785,2.61785,0,0,1-.4834-.917,3.982,3.982,0,0,1-.165-1.17969,5.08755,5.08755,0,0,1,.26953-1.65234,4.64381,4.64381,0,0,1,.75293-1.39941,3.762,3.762,0,0,1,1.14746-.97364,3.00508,3.00508,0,0,1,1.46386-.36425,2.51724,2.51724,0,0,1,1.17579.249,2.47543,2.47543,0,0,1,.833.72461l-.39257.46875a.32433.32433,0,0,1-.1045.09082.27033.27033,0,0,1-.333-.05274,2.756,2.756,0,0,0-.24415-.19531,1.68756,1.68756,0,0,0-.3789-.19629,1.63444,1.63444,0,0,0-.584-.08789,1.72965,1.72965,0,0,0-.91406.2627,2.55318,2.55318,0,0,0-.75195.71777,3.6714,3.6714,0,0,0-.50781,1.07813,4.68557,4.68557,0,0,0-.18555,1.33691,2.93768,2.93768,0,0,0,.09863.78711,1.68585,1.68585,0,0,0,.29395.60254,1.35859,1.35859,0,0,0,.47949.38476,1.508,1.508,0,0,0,.66113.13672,2.16366,2.16366,0,0,0,.56055-.0664,2.2182,2.2182,0,0,0,.43359-.165,1.98076,1.98076,0,0,0,.332-.21289c.09571-.07715.18262-.14844.25977-.21387a2.58558,2.58558,0,0,1,.21-.16406.32918.32918,0,0,1,.19238-.06739.30039.30039,0,0,1,.23828.11915l.30762.37793A6.48506,6.48506,0,0,1,176.8584,93.99023Z" style="fill:blue"/><path d="M180.90039,94.69727a2.765,2.765,0,0,1-1.06348-.19922,2.341,2.341,0,0,1-.833-.57715,2.65823,2.65823,0,0,1-.5459-.92383,3.67144,3.67144,0,0,1-.19629-1.24609,5.024,5.024,0,0,1,.28027-1.6875,4.58007,4.58007,0,0,1,.7666-1.38575,3.64165,3.64165,0,0,1,1.14844-.93847,3.06337,3.06337,0,0,1,1.43164-.34278,2.765,2.765,0,0,1,1.06348.19922,2.356,2.356,0,0,1,.833.57813,2.6703,2.6703,0,0,1,.54589.92773,3.70032,3.70032,0,0,1,.19629,1.24219,4.99907,4.99907,0,0,1-.28027,1.67969,4.57959,4.57959,0,0,1-.7666,1.38574,3.65647,3.65647,0,0,1-1.15137.94238A3.05057,3.05057,0,0,1,180.90039,94.69727Zm.11328-.97266a1.6398,1.6398,0,0,0,.92969-.28027,2.44137,2.44137,0,0,0,.71484-.74512,3.86622,3.86622,0,0,0,.45508-1.07422,4.96489,4.96489,0,0,0,.16016-1.27441,2.38217,2.38217,0,0,0-.38477-1.47657,1.31974,1.31974,0,0,0-1.11328-.49707,1.648,1.648,0,0,0-.93359.27637,2.44264,2.44264,0,0,0-.71094.74219,3.84158,3.84158,0,0,0-.45508,1.07422,4.9628,4.9628,0,0,0-.16016,1.27343,2.41739,2.41739,0,0,0,.38086,1.48047A1.31743,1.31743,0,0,0,181.01367,93.72461Z" style="fill:blue"/><path d="M185.52734,94.59961l1.25391-10.31055h1.22461L186.752,94.59961Z" style="fill:blue"/><path d="M191.26074,94.69727a2.7614,2.7614,0,0,1-1.06347-.19922,2.34488,2.34488,0,0,1-.834-.57715,2.67149,2.67149,0,0,1-.54492-.92383,3.67081,3.67081,0,0,1-.19727-1.24609,5,5,0,0,1,.28125-1.6875,4.55688,4.55688,0,0,1,.76563-1.38575,3.64165,3.64165,0,0,1,1.14844-.93847,3.0662,3.0662,0,0,1,1.43164-.34278,2.76993,2.76993,0,0,1,1.06445.19922,2.3436,2.3436,0,0,1,.832.57813,2.65727,2.65727,0,0,1,.54688.92773,3.70112,3.70112,0,0,1,.19531,1.24219,5.02293,5.02293,0,0,1-.2793,1.67969,4.60278,4.60278,0,0,1-.76758,1.38574,3.65287,3.65287,0,0,1-1.15039.94238A3.05343,3.05343,0,0,1,191.26074,94.69727Zm.11231-.97266a1.64515,1.64515,0,0,0,.93066-.28027,2.43856,2.43856,0,0,0,.71387-.74512,3.83783,3.83783,0,0,0,.45508-1.07422,4.96506,4.96506,0,0,0,.16113-1.27441A2.38217,2.38217,0,0,0,193.249,88.874a1.32219,1.32219,0,0,0-1.11328-.49707,1.65113,1.65113,0,0,0-.93457.27637,2.45435,2.45435,0,0,0-.71094.74219,3.84157,3.84157,0,0,0-.45507,1.07422,4.96236,4.96236,0,0,0-.16016,1.27343,2.41733,2.41733,0,0,0,.38086,1.48047A1.31863,1.31863,0,0,0,191.37305,93.72461Z" style="fill:blue"/><path d="M195.76855,94.59961l.8545-7.09766h.623a.477.477,0,0,1,.30762.09082.34146.34146,0,0,1,.11231.28028c0,.01855-.002.04492-.00391.08007s-.00488.07129-.00781.1084c-.002.03711-.00391.07032-.00586.09766-.00293.02832-.00391.04492-.00391.0498l-.09765,1.28809a4.89328,4.89328,0,0,1,1.01757-1.51269,1.71859,1.71859,0,0,1,1.1875-.53223,1.4856,1.4856,0,0,1,.58789.126l-.22461,1.19727a1.70739,1.70739,0,0,0-.63671-.13281,1.53786,1.53786,0,0,0-1.21094.66113,5.481,5.481,0,0,0-.88867,2.00586l-.39258,3.29Z" style="fill:blue"/><path d="M132.67188,110.06348c0-.02832.001-.06446.0039-.1084.00195-.04492.00586-.1084.01367-.19238.00684-.084.01758-.19434.03125-.32911.01368-.13574.03516-.3125.0625-.53222l.44141-3.54883h-.791a.21739.21739,0,0,1-.15039-.05274.207.207,0,0,1-.05957-.16406c0-.01465.00293-.042.00684-.084q.00732-.063.01758-.14356c.00683-.05371.01367-.1084.02148-.165q.00879-.08349.01758-.16113l1.0918-.14648.52539-2.19141a.3233.3233,0,0,1,.10449-.1709.27634.27634,0,0,1,.18848-.0664h.6582l-.30859,2.44238h1.86328l-.10547.90332h-1.86914l-.42676,3.48633c-.02344.1914-.041.34472-.05274.46191-.01171.11621-.0205.21-.02832.2793-.00683.07031-.01171.11914-.01367.14746s-.0039.04883-.0039.0625a.73793.73793,0,0,0,.165.5293.59472.59472,0,0,0,.45117.17089.90632.90632,0,0,0,.32226-.05273,1.323,1.323,0,0,0,.24121-.11523c.06836-.042.125-.08008.17188-.11524a.21669.21669,0,0,1,.126-.05273.12573.12573,0,0,1,.08691.02832.34056.34056,0,0,1,.06641.09082l.25976.59472a2.53746,2.53746,0,0,1-.77344.47266,2.39655,2.39655,0,0,1-.8789.17188,1.49256,1.49256,0,0,1-1.07032-.3711A1.452,1.452,0,0,1,132.67188,110.06348Z" style="fill:blue"/><path d="M139.377,111.49805a2.76489,2.76489,0,0,1-1.06347-.19922,2.341,2.341,0,0,1-.833-.57715,2.65823,2.65823,0,0,1-.5459-.92383,3.67144,3.67144,0,0,1-.19629-1.24609,5.024,5.024,0,0,1,.28027-1.6875,4.5797,4.5797,0,0,1,.76661-1.38574,3.64162,3.64162,0,0,1,1.14843-.93848,3.06336,3.06336,0,0,1,1.43164-.34277,2.76494,2.76494,0,0,1,1.06348.19921,2.356,2.356,0,0,1,.833.57813,2.67047,2.67047,0,0,1,.5459.92773,3.70058,3.70058,0,0,1,.19629,1.24219,4.99878,4.99878,0,0,1-.28028,1.67969,4.57959,4.57959,0,0,1-.7666,1.38574,3.65647,3.65647,0,0,1-1.15137.94238A3.05057,3.05057,0,0,1,139.377,111.49805Zm.11328-.97266a1.6398,1.6398,0,0,0,.92969-.28027,2.4414,2.4414,0,0,0,.71485-.74512,3.8665,3.8665,0,0,0,.45507-1.07422,4.96446,4.96446,0,0,0,.16016-1.27441,2.38217,2.38217,0,0,0-.38477-1.47657,1.31972,1.31972,0,0,0-1.11328-.49707,1.648,1.648,0,0,0-.93359.27637,2.44276,2.44276,0,0,0-.71094.74219,3.84187,3.84187,0,0,0-.45508,1.07422,4.96282,4.96282,0,0,0-.16015,1.27344,2.41729,2.41729,0,0,0,.38086,1.48046A1.3174,1.3174,0,0,0,139.49023,110.52539Z" style="fill:blue"/><path d="M151.38281,111.40039a.37842.37842,0,0,1-.333-.126.52379.52379,0,0,1-.08691-.30761l.13281-1.47754a5.70475,5.70475,0,0,1-.582.82617,4.21967,4.21967,0,0,1-.66015.63379,2.92506,2.92506,0,0,1-.72168.40527,2.10333,2.10333,0,0,1-.75879.14356,1.6639,1.6639,0,0,1-1.41114-.66114,3.1427,3.1427,0,0,1-.501-1.92187,5.66021,5.66021,0,0,1,.11914-1.14746,6.06555,6.06555,0,0,1,.33984-1.09961,5.4308,5.4308,0,0,1,.53125-.97656,4.16888,4.16888,0,0,1,.69336-.78028,3.1313,3.1313,0,0,1,.83008-.51758,2.39,2.39,0,0,1,.9375-.18945,2.20643,2.20643,0,0,1,.94922.20313,2.02926,2.02926,0,0,1,.73047.58105l.4834-3.89844h1.22558l-1.27441,10.31055Zm-2.541-.90332a1.2877,1.2877,0,0,0,.6748-.206,2.81773,2.81773,0,0,0,.6582-.57422,4.90627,4.90627,0,0,0,.59473-.875,7.05552,7.05552,0,0,0,.48047-1.10938l.23047-1.876a1.49431,1.49431,0,0,0-.63672-.5254,1.948,1.948,0,0,0-.75-.15332,1.63212,1.63212,0,0,0-.99707.32911,2.887,2.887,0,0,0-.75586.84961,4.42659,4.42659,0,0,0-.47949,1.166,5.03708,5.03708,0,0,0-.168,1.2666,2.2303,2.2303,0,0,0,.30078,1.27051A.97.97,0,0,0,148.8418,110.49707Z" style="fill:blue"/><path d="M159.62109,105.82812a1.9033,1.9033,0,0,1-.18945.85059,1.7632,1.7632,0,0,1-.69238.7002,5.169,5.169,0,0,1-1.38574.543,15.29772,15.29772,0,0,1-2.26856.37011c-.00488.05176-.00684.10156-.00684.15137v.15039a2.18422,2.18422,0,0,0,.41016,1.43066,1.51,1.51,0,0,0,1.23438.49414,2.32856,2.32856,0,0,0,.59961-.07031,2.65161,2.65161,0,0,0,.46875-.1709,2.13073,2.13073,0,0,0,.36328-.22461c.10547-.081.20215-.15625.291-.22363.08789-.06738.16992-.125.24414-.17187a.42287.42287,0,0,1,.22461-.07032.30463.30463,0,0,1,.23047.11914l.30859.38575a6.56165,6.56165,0,0,1-.69628.63281,4.04566,4.04566,0,0,1-.69629.4375,3.10689,3.10689,0,0,1-.7461.25586,4.1104,4.1104,0,0,1-.83593.08008,2.7829,2.7829,0,0,1-1.0918-.20313,2.25694,2.25694,0,0,1-.82031-.57715,2.608,2.608,0,0,1-.51758-.90625,3.66606,3.66606,0,0,1-.18164-1.19043,5.26654,5.26654,0,0,1,.11523-1.08789,5.13706,5.13706,0,0,1,.33594-1.0332,4.65916,4.65916,0,0,1,.53906-.90918,3.63156,3.63156,0,0,1,.72852-.72461,3.40263,3.40263,0,0,1,.90234-.47949,3.13867,3.13867,0,0,1,1.06055-.17578,2.5503,2.5503,0,0,1,.93164.15429,1.973,1.973,0,0,1,.64355.39258,1.55188,1.55188,0,0,1,.374.52442A1.38919,1.38919,0,0,1,159.62109,105.82812Zm-2.14257-.7207a1.82184,1.82184,0,0,0-.81153.18164,2.156,2.156,0,0,0-.65722.501,3.03029,3.03029,0,0,0-.49024.749,4.47122,4.47122,0,0,0-.31543.92774,13.65657,13.65657,0,0,0,1.72949-.30469,4.28565,4.28565,0,0,0,1-.37109,1.08146,1.08146,0,0,0,.46289-.43067,1.102,1.102,0,0,0,.11133-.4834.68974.68974,0,0,0-.05566-.26172.69813.69813,0,0,0-.17871-.249.97814.97814,0,0,0-.31836-.18555A1.36591,1.36591,0,0,0,157.47852,105.10742Z" style="fill:blue"/><path d="M160.43359,104.30957h1.00782a.31452.31452,0,0,1,.22363.07715.32585.32585,0,0,1,.10449.18164l1.05762,4.56445a4.70848,4.70848,0,0,1,.08105.51758c.01563.17285.0293.34277.03809.51074.05176-.168.10449-.33691.16113-.50683a4.37862,4.37862,0,0,1,.21-.52149l2.19824-4.56445a.50817.50817,0,0,1,.1543-.18555.35013.35013,0,0,1,.2168-.07324h.97266l-3.55665,7.09082h-1.043Z" style="fill:blue"/><path d="M172.55664,105.82812a1.9158,1.9158,0,0,1-.18848.85059,1.76966,1.76966,0,0,1-.69238.7002,5.17723,5.17723,0,0,1-1.38672.543,15.3037,15.3037,0,0,1-2.26758.37011c-.00488.05176-.00781.10156-.00781.15137v.15039a2.18422,2.18422,0,0,0,.41016,1.43066,1.51333,1.51333,0,0,0,1.23535.49414,2.326,2.326,0,0,0,.59863-.07031,2.59506,2.59506,0,0,0,.46875-.1709,2.10218,2.10218,0,0,0,.36426-.22461c.10449-.081.20215-.15625.29-.22363.08887-.06738.16992-.125.24512-.17187a.41972.41972,0,0,1,.22363-.07032.30646.30646,0,0,1,.23144.11914l.30762.38575a6.46216,6.46216,0,0,1-.69531.63281,4.05208,4.05208,0,0,1-.69727.4375,3.10682,3.10682,0,0,1-.74609.25586,4.10355,4.10355,0,0,1-.83594.08008,2.78624,2.78624,0,0,1-1.09179-.20313,2.24508,2.24508,0,0,1-.81934-.57715,2.593,2.593,0,0,1-.51758-.90625,3.6396,3.6396,0,0,1-.18262-1.19043,5.26655,5.26655,0,0,1,.11524-1.08789,5.19849,5.19849,0,0,1,.33594-1.0332,4.75752,4.75752,0,0,1,.53906-.90918,3.63177,3.63177,0,0,1,.72851-.72461,3.40849,3.40849,0,0,1,.90332-.47949,3.13871,3.13871,0,0,1,1.06055-.17578,2.5485,2.5485,0,0,1,.93067.15429,1.96779,1.96779,0,0,1,.64453.39258,1.55171,1.55171,0,0,1,.374.52442A1.40444,1.40444,0,0,1,172.55664,105.82812Zm-2.1416-.7207a1.81879,1.81879,0,0,0-.81152.18164,2.1599,2.1599,0,0,0-.65821.501,3.03026,3.03026,0,0,0-.49023.749,4.46913,4.46913,0,0,0-.31446.92774,13.604,13.604,0,0,0,1.72852-.30469,4.31353,4.31353,0,0,0,1.001-.37109,1.07823,1.07823,0,0,0,.46191-.43067,1.10309,1.10309,0,0,0,.11231-.4834.68976.68976,0,0,0-.05567-.26172.70093.70093,0,0,0-.17969-.249.96786.96786,0,0,0-.31836-.18555A1.36388,1.36388,0,0,0,170.415,105.10742Z" style="fill:blue"/><path d="M173.46094,111.40039l1.25195-10.31055h1.22559l-1.25293,10.31055Z" style="fill:blue"/><path d="M179.19336,111.49805a2.76636,2.76636,0,0,1-1.06445-.19922,2.33243,2.33243,0,0,1-.833-.57715,2.67334,2.67334,0,0,1-.5459-.92383,3.67144,3.67144,0,0,1-.19629-1.24609,5.024,5.024,0,0,1,.28027-1.6875,4.55881,4.55881,0,0,1,.76661-1.38574,3.64873,3.64873,0,0,1,1.14746-.93848,3.06619,3.06619,0,0,1,1.43164-.34277,2.7664,2.7664,0,0,1,1.06445.19921,2.34733,2.34733,0,0,1,.833.57813,2.65548,2.65548,0,0,1,.5459.92773,3.67665,3.67665,0,0,1,.19531,1.24219,4.99832,4.99832,0,0,1-.2793,1.67969,4.60068,4.60068,0,0,1-.7666,1.38574,3.65647,3.65647,0,0,1-1.15137.94238A3.05238,3.05238,0,0,1,179.19336,111.49805Zm.11133-.97266a1.646,1.646,0,0,0,.93164-.28027,2.44719,2.44719,0,0,0,.71289-.74512,3.8093,3.8093,0,0,0,.45508-1.07422,4.96523,4.96523,0,0,0,.16211-1.27441,2.38861,2.38861,0,0,0-.38477-1.47657,1.32467,1.32467,0,0,0-1.11328-.49707,1.65425,1.65425,0,0,0-.93555.27637,2.44,2.44,0,0,0-.71.74219,3.81327,3.81327,0,0,0-.45508,1.07422,4.963,4.963,0,0,0-.16113,1.27344,2.41045,2.41045,0,0,0,.38184,1.48046A1.31675,1.31675,0,0,0,179.30469,110.52539Z" style="fill:blue"/><path d="M183.40039,113.80176l1.1543-9.499h.623a.37091.37091,0,0,1,.41993.41993l-.11914,1.51172a5.76645,5.76645,0,0,1,.582-.83692,4.185,4.185,0,0,1,.66113-.63965,2.85,2.85,0,0,1,.72461-.41015,2.15349,2.15349,0,0,1,.77051-.14356,1.67112,1.67112,0,0,1,1.40625.6582,3.125,3.125,0,0,1,.5039,1.92481,5.5937,5.5937,0,0,1-.11914,1.14844,5.80845,5.80845,0,0,1-.33984,1.0957,5.42969,5.42969,0,0,1-.53125.97266,4.22309,4.22309,0,0,1-.69336.78418,3.08221,3.08221,0,0,1-.8291.52148,2.39016,2.39016,0,0,1-.93848.18848,2.203,2.203,0,0,1-.959-.20606,1.97024,1.97024,0,0,1-.72754-.59179l-.37793,3.10156Zm4.34668-8.59668a1.31477,1.31477,0,0,0-.68262.21,2.82109,2.82109,0,0,0-.668.58789,5.11159,5.11159,0,0,0-.5996.89648,7.29132,7.29132,0,0,0-.47852,1.127l-.22461,1.80566a1.47766,1.47766,0,0,0,.64063.543,1.95385,1.95385,0,0,0,.75976.15723,1.55836,1.55836,0,0,0,.68555-.1543,2.14971,2.14971,0,0,0,.58789-.416,3.02983,3.02983,0,0,0,.47656-.61621,4.24841,4.24841,0,0,0,.35352-.75586,5.24991,5.24991,0,0,0,.2207-.833,4.87408,4.87408,0,0,0,.07617-.85059,2.21413,2.21413,0,0,0-.30078-1.2666A.9691.9691,0,0,0,187.74707,105.20508Z" style="fill:blue"/></g><g id="timer"><path d="M20,29.24512a9.24512,9.24512,0,0,1,0-18.49024H50a9.24512,9.24512,0,0,1,0,18.49024Z" style="fill:#fff;fill-rule:evenodd"/><path d="M50,11.5102a8.4898,8.4898,0,0,1,0,16.9796H20a8.4898,8.4898,0,0,1,0-16.9796H50M50,10H20A10.02939,10.02939,0,0,0,10,20v0A10.02938,10.02938,0,0,0,20,30H50A10.02938,10.02938,0,0,0,60,20v0A10.02939,10.02939,0,0,0,50,10Z" style="fill:#ccc"/><path d="M28.75635,19.71875a8.09592,8.09592,0,0,1-.28418,2.27832,4.742,4.742,0,0,1-.77344,1.59277,3.10278,3.10278,0,0,1-1.1582.9375,3.47509,3.47509,0,0,1-2.86328,0,3.12871,3.12871,0,0,1-1.15137-.9375,4.7202,4.7202,0,0,1-.76953-1.59277,8.21412,8.21412,0,0,1-.28028-2.27832,8.24848,8.24848,0,0,1,.28028-2.28223,4.75787,4.75787,0,0,1,.76953-1.59961,3.12107,3.12107,0,0,1,1.15137-.9414,3.48518,3.48518,0,0,1,2.86328,0,3.09524,3.09524,0,0,1,1.1582.9414,4.77977,4.77977,0,0,1,.77344,1.59961A8.12976,8.12976,0,0,1,28.75635,19.71875Zm-1.29492,0A8.22187,8.22187,0,0,0,27.269,17.79a3.88415,3.88415,0,0,0-.51855-1.25684,1.95621,1.95621,0,0,0-.752-.68261,2.02144,2.02144,0,0,0-1.77833,0,1.92909,1.92909,0,0,0-.749.68261A3.90755,3.90755,0,0,0,22.95654,17.79a8.22192,8.22192,0,0,0-.19238,1.92871,8.18056,8.18056,0,0,0,.19238,1.9248,3.9108,3.9108,0,0,0,.51465,1.25293,1.929,1.929,0,0,0,.749.68262,2.02144,2.02144,0,0,0,1.77833,0,1.95616,1.95616,0,0,0,.752-.68262,3.8874,3.8874,0,0,0,.51855-1.25293A8.1805,8.1805,0,0,0,27.46143,19.71875Z"/><path d="M30.07275,18.71094a.88014.88014,0,0,1,.06641-.34375.86305.86305,0,0,1,.18164-.2793.87022.87022,0,0,1,.96289-.18945.89427.89427,0,0,1,.2793.18945.84217.84217,0,0,1,.18555.2793.88013.88013,0,0,1,.0664.34375.866.866,0,0,1-.0664.3457.84993.84993,0,0,1-.18555.27637.83693.83693,0,0,1-.2793.18554.90791.90791,0,0,1-.68652,0,.7966.7966,0,0,1-.27637-.18554.87722.87722,0,0,1-.248-.62207Zm0,5.25a.88014.88014,0,0,1,.06641-.34375.86305.86305,0,0,1,.18164-.2793.87022.87022,0,0,1,.96289-.18945.89427.89427,0,0,1,.2793.18945.84217.84217,0,0,1,.18555.2793.88013.88013,0,0,1,.0664.34375.866.866,0,0,1-.0664.3457.84993.84993,0,0,1-.18555.27637.83693.83693,0,0,1-.2793.18554.90791.90791,0,0,1-.68652,0,.7966.7966,0,0,1-.27637-.18554.87722.87722,0,0,1-.248-.62207Z"/><path d="M40.40381,19.71875a8.09592,8.09592,0,0,1-.28418,2.27832,4.742,4.742,0,0,1-.77344,1.59277,3.10278,3.10278,0,0,1-1.1582.9375,3.47509,3.47509,0,0,1-2.86328,0,3.12871,3.12871,0,0,1-1.15137-.9375,4.7202,4.7202,0,0,1-.76953-1.59277,8.21452,8.21452,0,0,1-.28027-2.27832,8.24888,8.24888,0,0,1,.28027-2.28223,4.75787,4.75787,0,0,1,.76953-1.59961,3.12107,3.12107,0,0,1,1.15137-.9414,3.48518,3.48518,0,0,1,2.86328,0,3.09524,3.09524,0,0,1,1.1582.9414,4.77977,4.77977,0,0,1,.77344,1.59961A8.12976,8.12976,0,0,1,40.40381,19.71875Zm-1.29492,0A8.22187,8.22187,0,0,0,38.9165,17.79,3.88415,3.88415,0,0,0,38.398,16.5332a1.95614,1.95614,0,0,0-.752-.68261,2.02142,2.02142,0,0,0-1.77832,0,1.929,1.929,0,0,0-.749.68261A3.90755,3.90755,0,0,0,34.604,17.79a8.22192,8.22192,0,0,0-.19238,1.92871,8.18056,8.18056,0,0,0,.19238,1.9248,3.9108,3.9108,0,0,0,.51465,1.25293,1.929,1.929,0,0,0,.749.68262,2.02142,2.02142,0,0,0,1.77832,0,1.95609,1.95609,0,0,0,.752-.68262,3.8874,3.8874,0,0,0,.51855-1.25293A8.1805,8.1805,0,0,0,39.10889,19.71875Z"/><path d="M48.52393,19.71875a8.09592,8.09592,0,0,1-.28418,2.27832,4.742,4.742,0,0,1-.77344,1.59277,3.10278,3.10278,0,0,1-1.1582.9375,3.47512,3.47512,0,0,1-2.86329,0,3.12868,3.12868,0,0,1-1.15136-.9375,4.7202,4.7202,0,0,1-.76953-1.59277,8.21412,8.21412,0,0,1-.28028-2.27832,8.24848,8.24848,0,0,1,.28028-2.28223,4.75787,4.75787,0,0,1,.76953-1.59961,3.121,3.121,0,0,1,1.15136-.9414,3.4852,3.4852,0,0,1,2.86329,0,3.09524,3.09524,0,0,1,1.1582.9414,4.77977,4.77977,0,0,1,.77344,1.59961A8.12976,8.12976,0,0,1,48.52393,19.71875Zm-1.29493,0A8.22192,8.22192,0,0,0,47.03662,17.79a3.88459,3.88459,0,0,0-.51855-1.25684,1.95616,1.95616,0,0,0-.752-.68261,2.02142,2.02142,0,0,0-1.77832,0,1.929,1.929,0,0,0-.749.68261A3.90755,3.90755,0,0,0,42.72412,17.79a8.22192,8.22192,0,0,0-.19238,1.92871,8.18056,8.18056,0,0,0,.19238,1.9248,3.9108,3.9108,0,0,0,.51465,1.25293,1.929,1.929,0,0,0,.749.68262,2.02142,2.02142,0,0,0,1.77832,0,1.95611,1.95611,0,0,0,.752-.68262,3.88785,3.88785,0,0,0,.51855-1.25293A8.18056,8.18056,0,0,0,47.229,19.71875Z"/></g></svg>