<svg id="DO_4_-_3B" data-name="DO 4 - 3B" xmlns="http://www.w3.org/2000/svg" viewBox="0 0 226 200"><rect id="back" width="226" height="200" style="fill:none"/><g id="vial_w_cap" data-name="vial w cap"><g id="vial"><path id="water_25_" data-name="water 25%" d="M119.48132,45.36464V41.57673a1.22813,1.22813,0,0,0,0-2.40887v-.80353a1.2271,1.2271,0,0,0,0-2.40722,1.04845,1.04845,0,0,0-.98323-1.112l-10.97936,0a1,1,0,0,0-1,1v1.43457a1.23686,1.23686,0,0,0,0,2.45771v.7547a1.23685,1.23685,0,0,0,0,2.4577v2.41486H105.5a1,1,0,0,0-1,1V88.243a1,1,0,0,0,1,1h15a1,1,0,0,0,1-1V46.36464a1,1,0,0,0-1-1Z" style="fill:#d1eef3;fill-opacity:0.25"/><path id="color" d="M119.48132,45.36464V41.57673a1.22813,1.22813,0,0,0,0-2.40887v-.80353a1.2271,1.2271,0,0,0,0-2.40722,1.04845,1.04845,0,0,0-.98323-1.112l-10.97936,0a1,1,0,0,0-1,1v1.43457a1.23686,1.23686,0,0,0,0,2.45771v.7547a1.23685,1.23685,0,0,0,0,2.4577v2.41486H105.5a1,1,0,0,0-1,1V88.243a1,1,0,0,0,1,1h15a1,1,0,0,0,1-1V46.36464a1,1,0,0,0-1-1Z" style="fill:#d65c2c"/><path id="tube" d="M120.5,89.74316h-15a1.50164,1.50164,0,0,1-1.5-1.5V46.36475a1.50164,1.50164,0,0,1,1.5-1.5h.51855V43.333a1.72209,1.72209,0,0,1-1.085-1.417,1.756,1.756,0,0,1,1.07178-1.8003,1.72359,1.72359,0,0,1-1.07178-1.41211,1.75542,1.75542,0,0,1,1.085-1.80566V35.84521a1.50165,1.50165,0,0,1,1.5-1.5h10.9795a1.51713,1.51713,0,0,1,1.44336,1.24024,1.72048,1.72048,0,0,1,.04,3.13184V38.814a1.7222,1.7222,0,0,1,0,3.11573v2.93506H120.5a1.50164,1.50164,0,0,1,1.5,1.5V88.24316A1.50164,1.50164,0,0,1,120.5,89.74316Zm-15-43.87841a.50034.50034,0,0,0-.5.5V88.24316a.50065.50065,0,0,0,.5.5h15a.50065.50065,0,0,0,.5-.5V46.36475a.50034.50034,0,0,0-.5-.5h-1.51855V41.17432l.39306-.08594a.74111.74111,0,0,0,.59082-.79443.732.732,0,0,0-.58984-.63721l-.394-.08545V37.96191l.39306-.08593a.7413.7413,0,0,0,.59082-.79493.73379.73379,0,0,0-.59131-.63574l-.39257-.08593V35.957a.55969.55969,0,0,0-.4834-.61182h-10.9795a.50035.50035,0,0,0-.5.5v1.876l-.438.05469a.75133.75133,0,0,0-.65284.82031.739.739,0,0,0,.6543.645l.43652.05615v1.63623l-.438.05469a.75133.75133,0,0,0-.65284.82031.739.739,0,0,0,.6543.645l.43652.05616v3.355Z" style="fill:#333"/><rect id="thread_2" data-name="thread 2" x="106.6483" y="38.61755" width="12.89822" height="1.00025" transform="translate(-3.62525 12.71619) rotate(-6.33401)" style="fill:#333;opacity:0.30000000000000004"/><rect id="thread_1" data-name="thread 1" x="106.70398" y="41.83527" width="12.83373" height="1.00035" transform="translate(-4.00876 12.85205) rotate(-6.38961)" style="fill:#333;opacity:0.30000000000000004"/></g><g id="cap"><g id="cap-2" data-name="cap"><rect x="103.55469" y="30.81152" width="18.89063" height="11.89063" style="fill:#333"/><path d="M121.89021,31.36663V42.14705H104.10979V31.36663h17.78042M123,30.25684H103v13h20v-13Z" style="fill:#333"/></g><rect x="121" y="30.25684" width="1" height="11" style="fill:#fff;opacity:0.25"/><rect x="118.75" y="30.25684" width="1" height="11" style="fill:#fff;opacity:0.25"/><rect x="115.5" y="30.25684" width="1" height="11" style="fill:#fff;opacity:0.25"/><rect x="112.5" y="30.25684" width="1" height="11" style="fill:#fff;opacity:0.25"/><rect x="109.5" y="30.25684" width="1" height="11" style="fill:#fff;opacity:0.25"/><rect x="106.25" y="30.25684" width="1" height="11" style="fill:#fff;opacity:0.25"/><rect x="104" y="30.25684" width="1" height="11" style="fill:#fff;opacity:0.25"/></g></g><g style="isolation:isolate"><path d="M136.31152,45.98535a3.9539,3.9539,0,0,0,.81934-.07715,3.7437,3.7437,0,0,0,.62988-.18945,2.35419,2.35419,0,0,0,.46582-.248c.12793-.09082.24024-.17382.33594-.249.0957-.07422.17578-.1377.24121-.18848a.29646.29646,0,0,1,.17481-.07715.2056.2056,0,0,1,.10546.02442.27746.27746,0,0,1,.07032.05957l.4541.56738a4.51735,4.51735,0,0,1-3.51367,1.50488,3.87438,3.87438,0,0,1-1.61035-.32226,3.40817,3.40817,0,0,1-1.207-.89942,4.01955,4.01955,0,0,1-.75586-1.376,5.56869,5.56869,0,0,1-.26269-1.75684,6.80957,6.80957,0,0,1,.40527-2.39355,5.72581,5.72581,0,0,1,1.11719-1.86621,4.97707,4.97707,0,0,1,3.73437-1.64063,4.72681,4.72681,0,0,1,.96583.09082,3.34719,3.34719,0,0,1,.791.26563,3.16427,3.16427,0,0,1,.64746.41992,4.55189,4.55189,0,0,1,.543.5459l-.44824.5459a.54255.54255,0,0,1-.126.11621.31772.31772,0,0,1-.17578.04492.39139.39139,0,0,1-.26562-.13965,2.69,2.69,0,0,0-.38086-.30469,2.70291,2.70291,0,0,0-1.61329-.44433,3.58937,3.58937,0,0,0-1.51953.32519,3.54213,3.54213,0,0,0-1.22461.93164,4.489,4.489,0,0,0-.8164,1.46582,5.92539,5.92539,0,0,0-.29688,1.93262,4.42519,4.42519,0,0,0,.20313,1.39258,3.11362,3.11362,0,0,0,.56347,1.04687,2.46269,2.46269,0,0,0,.85743.66114A2.55359,2.55359,0,0,0,136.31152,45.98535Z" style="fill:blue"/><path d="M140.75,47l1.24512-10.31055h1.24609l-.58105,4.78711a4.20151,4.20151,0,0,1,1.22851-1.249,2.57435,2.57435,0,0,1,1.38281-.42383,1.5058,1.5058,0,0,1,1.23829.53223,2.39155,2.39155,0,0,1,.43457,1.54687c0,.09375-.00293.19043-.00684.291-.00488.09961-.01367.2041-.02832.31152L146.377,47h-1.24609l.53223-4.51465c.00879-.09375.01757-.18359.02441-.26953.00781-.08691.01074-.16894.01074-.249a1.39911,1.39911,0,0,0-.21386-.85352.79583.79583,0,0,0-.67579-.28027,1.406,1.406,0,0,0-.64648.17187,2.63039,2.63039,0,0,0-.64844.48633,4.16174,4.16174,0,0,0-.58789.75977,5.67647,5.67647,0,0,0-.47558.99023L141.99512,47Z" style="fill:blue"/><path d="M150.64062,47.09766a2.76644,2.76644,0,0,1-1.06445-.19922,2.33265,2.33265,0,0,1-.833-.57715,2.67332,2.67332,0,0,1-.54589-.92383,3.67144,3.67144,0,0,1-.19629-1.24609,5.024,5.024,0,0,1,.28027-1.6875,4.559,4.559,0,0,1,.7666-1.38575,3.64894,3.64894,0,0,1,1.14746-.93847,3.06622,3.06622,0,0,1,1.43164-.34277,2.76645,2.76645,0,0,1,1.06446.19921,2.34729,2.34729,0,0,1,.833.57813,2.65548,2.65548,0,0,1,.5459.92773,3.67665,3.67665,0,0,1,.19531,1.24219,4.99861,4.99861,0,0,1-.27929,1.67969,4.60068,4.60068,0,0,1-.7666,1.38574,3.65647,3.65647,0,0,1-1.15137.94238A3.05239,3.05239,0,0,1,150.64062,47.09766Zm.11133-.97266a1.646,1.646,0,0,0,.93164-.28027,2.44707,2.44707,0,0,0,.71289-.74512,3.809,3.809,0,0,0,.45508-1.07422,4.96523,4.96523,0,0,0,.16211-1.27441,2.38861,2.38861,0,0,0-.38476-1.47657,1.32469,1.32469,0,0,0-1.11329-.49707,1.65422,1.65422,0,0,0-.93554.27637,2.43984,2.43984,0,0,0-.71.74219,3.813,3.813,0,0,0-.45508,1.07422,4.963,4.963,0,0,0-.16113,1.27343,2.41053,2.41053,0,0,0,.38183,1.48047A1.31676,1.31676,0,0,0,150.752,46.125Z" style="fill:blue"/><path d="M157.67578,47.09766a2.7664,2.7664,0,0,1-1.06445-.19922,2.33256,2.33256,0,0,1-.833-.57715,2.67334,2.67334,0,0,1-.5459-.92383,3.67144,3.67144,0,0,1-.19629-1.24609,5.02373,5.02373,0,0,1,.28028-1.6875,4.55874,4.55874,0,0,1,.7666-1.38575,3.64894,3.64894,0,0,1,1.14746-.93847,3.06622,3.06622,0,0,1,1.43164-.34277,2.7664,2.7664,0,0,1,1.06445.19921,2.34733,2.34733,0,0,1,.833.57813,2.65548,2.65548,0,0,1,.5459.92773,3.67665,3.67665,0,0,1,.19531,1.24219,4.99836,4.99836,0,0,1-.2793,1.67969,4.60068,4.60068,0,0,1-.7666,1.38574,3.65643,3.65643,0,0,1-1.15136.94238A3.05242,3.05242,0,0,1,157.67578,47.09766Zm.11133-.97266a1.646,1.646,0,0,0,.93164-.28027,2.44707,2.44707,0,0,0,.71289-.74512,3.809,3.809,0,0,0,.45508-1.07422,4.96523,4.96523,0,0,0,.16211-1.27441,2.38861,2.38861,0,0,0-.38477-1.47657,1.32466,1.32466,0,0,0-1.11328-.49707,1.65425,1.65425,0,0,0-.93555.27637,2.44,2.44,0,0,0-.71.74219,3.813,3.813,0,0,0-.45507,1.07422,4.96256,4.96256,0,0,0-.16114,1.27343,2.41053,2.41053,0,0,0,.38184,1.48047A1.31676,1.31676,0,0,0,157.78711,46.125Z" style="fill:blue"/><path d="M166.74707,41.043a.4626.4626,0,0,1-.1123.12207.23565.23565,0,0,1-.13965.03906.39048.39048,0,0,1-.21387-.07715c-.07617-.05078-.16992-.1084-.2793-.17187a2.35824,2.35824,0,0,0-.40234-.17481,2.01651,2.01651,0,0,0-1.14844.00684,1.42985,1.42985,0,0,0-.44824.24219,1.06607,1.06607,0,0,0-.29.36035.969.969,0,0,0-.10156.4375.67.67,0,0,0,.21679.52441,1.98876,1.98876,0,0,0,.5459.33985c.21973.0957.45606.18847.71.27636a3.63022,3.63022,0,0,1,.71094.33594,1.82049,1.82049,0,0,1,.5459.51856,1.40674,1.40674,0,0,1,.21777.81835,2.36346,2.36346,0,0,1-.74609,1.72559,2.72552,2.72552,0,0,1-.86816.543,3.05392,3.05392,0,0,1-1.1377.20312,2.826,2.826,0,0,1-1.20019-.24218,2.48346,2.48346,0,0,1-.85059-.61914l.30859-.47559a.42869.42869,0,0,1,.13282-.14062.35958.35958,0,0,1,.19531-.04883.34543.34543,0,0,1,.22461.09765c.07422.06543.168.13965.27929.22071a1.86136,1.86136,0,0,0,.42383.2207,1.82818,1.82818,0,0,0,.64844.09766,1.7264,1.7264,0,0,0,.61914-.1045,1.46719,1.46719,0,0,0,.46875-.28027,1.16765,1.16765,0,0,0,.294-.40918,1.25187,1.25187,0,0,0,.10156-.501.75256.75256,0,0,0-.21777-.5664,1.77046,1.77046,0,0,0-.54493-.35059q-.32958-.13916-.707-.26269a3.55421,3.55421,0,0,1-.707-.31446,1.71169,1.71169,0,0,1-.54687-.501,1.39286,1.39286,0,0,1-.2168-.81836,2.19314,2.19314,0,0,1,.17871-.86524,2.231,2.231,0,0,1,.51465-.73828,2.55327,2.55327,0,0,1,.81543-.51465,2.88948,2.88948,0,0,1,1.08105-.19238,2.7674,2.7674,0,0,1,1.124.21387,2.61481,2.61481,0,0,1,.83691.57715Z" style="fill:blue"/><path d="M173.29883,41.42773a1.9033,1.9033,0,0,1-.18945.85059,1.76323,1.76323,0,0,1-.69239.7002,5.1687,5.1687,0,0,1-1.38574.543,15.2974,15.2974,0,0,1-2.26855.37012c-.00489.05176-.00684.10156-.00684.15137v.15039A2.18422,2.18422,0,0,0,169.166,45.624a1.51,1.51,0,0,0,1.23437.49414A2.32851,2.32851,0,0,0,171,46.04785a2.651,2.651,0,0,0,.46875-.1709,2.13,2.13,0,0,0,.36328-.22461c.10547-.08105.20215-.15625.291-.22363.08789-.06738.16992-.125.24414-.17187a.42285.42285,0,0,1,.22461-.07032.30467.30467,0,0,1,.23047.11914l.30859.38575a6.56071,6.56071,0,0,1-.69629.63281,4.04528,4.04528,0,0,1-.69629.4375,3.107,3.107,0,0,1-.74609.25586,4.11043,4.11043,0,0,1-.83594.08008,2.7829,2.7829,0,0,1-1.0918-.20313,2.257,2.257,0,0,1-.82031-.57715,2.60823,2.60823,0,0,1-.51758-.90625,3.66632,3.66632,0,0,1-.18164-1.19043,5.26586,5.26586,0,0,1,.11524-1.08789,5.1364,5.1364,0,0,1,.33593-1.0332,4.6592,4.6592,0,0,1,.53907-.90918,3.63151,3.63151,0,0,1,.72851-.72461,3.40254,3.40254,0,0,1,.90235-.47949,3.13861,3.13861,0,0,1,1.06054-.17578,2.55,2.55,0,0,1,.93164.15429,1.973,1.973,0,0,1,.64356.39258,1.55162,1.55162,0,0,1,.374.52442A1.38921,1.38921,0,0,1,173.29883,41.42773Zm-2.14258-.7207a1.82179,1.82179,0,0,0-.81152.18164,2.156,2.156,0,0,0-.65723.501,3.03,3.03,0,0,0-.49023.749,4.47,4.47,0,0,0-.31543.92774,13.65657,13.65657,0,0,0,1.72949-.30469,4.28532,4.28532,0,0,0,1-.3711,1.0815,1.0815,0,0,0,.46289-.43066,1.102,1.102,0,0,0,.11133-.4834.68976.68976,0,0,0-.05567-.26172.698.698,0,0,0-.17871-.249.97814.97814,0,0,0-.31836-.18555A1.36591,1.36591,0,0,0,171.15625,40.707Z" style="fill:blue"/><path d="M177.40039,45.66309c0-.02832.002-.06446.00391-.1084.00195-.04492.00781-.1084.01367-.19239.00781-.084.01758-.19433.03223-.3291.01367-.13574.03418-.3125.06347-.53222l.44043-3.54883h-.791a.219.219,0,0,1-.15039-.05274.207.207,0,0,1-.05958-.16406.84125.84125,0,0,1,.00684-.084q.00732-.063.01758-.14356c.00684-.05371.01465-.1084.02051-.165q.01172-.08349.01757-.16113l1.0918-.14648.52539-2.19141a.33736.33736,0,0,1,.10547-.1709.27542.27542,0,0,1,.18945-.0664h.65723l-.30762,2.44238h1.86133l-.10449.90332H179.165l-.42676,3.48633c-.02344.1914-.041.34472-.05273.46191-.01172.11621-.02149.21-.02735.2793-.00781.07031-.01172.11914-.01465.14746a.56456.56456,0,0,0-.00293.0625.74228.74228,0,0,0,.16407.5293.59472.59472,0,0,0,.45117.17089.9139.9139,0,0,0,.32226-.05273,1.33408,1.33408,0,0,0,.24219-.11523c.06641-.042.124-.08008.1709-.11524a.21665.21665,0,0,1,.126-.05273.13012.13012,0,0,1,.08789.02832.36269.36269,0,0,1,.0664.09082l.25879.59472a2.50749,2.50749,0,0,1-.77441.47266,2.38771,2.38771,0,0,1-.87793.17187,1.49821,1.49821,0,0,1-1.07129-.37109A1.45964,1.45964,0,0,1,177.40039,45.66309Z" style="fill:blue"/><path d="M181.63672,47l1.24512-10.31055h1.24609l-.58105,4.78711a4.20151,4.20151,0,0,1,1.22851-1.249,2.57435,2.57435,0,0,1,1.38281-.42383,1.50576,1.50576,0,0,1,1.23828.53223,2.3915,2.3915,0,0,1,.43457,1.54687c0,.09375-.00293.19043-.00683.291-.00488.09961-.01367.2041-.02832.31152L187.26367,47h-1.24609l.53222-4.51465c.00879-.09375.01758-.18359.02442-.26953.00781-.08691.01074-.16894.01074-.249a1.399,1.399,0,0,0-.21387-.85352.7958.7958,0,0,0-.67578-.28027,1.406,1.406,0,0,0-.64648.17187,2.63039,2.63039,0,0,0-.64844.48633,4.16174,4.16174,0,0,0-.58789.75977,5.67721,5.67721,0,0,0-.47559.99023L182.88184,47Z" style="fill:blue"/><path d="M194.66992,41.42773a1.9033,1.9033,0,0,1-.18945.85059,1.76327,1.76327,0,0,1-.69238.7002,5.16878,5.16878,0,0,1-1.38575.543,15.2974,15.2974,0,0,1-2.26855.37012c-.00488.05176-.00684.10156-.00684.15137v.15039a2.18422,2.18422,0,0,0,.41016,1.43066,1.51,1.51,0,0,0,1.23437.49414,2.32851,2.32851,0,0,0,.59961-.07031,2.651,2.651,0,0,0,.46875-.1709,2.13,2.13,0,0,0,.36328-.22461c.10547-.08105.20215-.15625.291-.22363.08789-.06738.16992-.125.24414-.17187a.42287.42287,0,0,1,.22461-.07032.30465.30465,0,0,1,.23047.11914l.30859.38575a6.56071,6.56071,0,0,1-.69629.63281,4.0452,4.0452,0,0,1-.69628.4375,3.107,3.107,0,0,1-.7461.25586,4.11043,4.11043,0,0,1-.83594.08008,2.78285,2.78285,0,0,1-1.09179-.20313,2.257,2.257,0,0,1-.82032-.57715,2.60821,2.60821,0,0,1-.51757-.90625,3.66606,3.66606,0,0,1-.18164-1.19043,5.26654,5.26654,0,0,1,.11523-1.08789,5.13642,5.13642,0,0,1,.33594-1.0332,4.65916,4.65916,0,0,1,.53906-.90918,3.63156,3.63156,0,0,1,.72852-.72461,3.40248,3.40248,0,0,1,.90234-.47949,3.13867,3.13867,0,0,1,1.06055-.17578,2.55008,2.55008,0,0,1,.93164.15429,1.973,1.973,0,0,1,.64355.39258,1.55179,1.55179,0,0,1,.374.52442A1.38919,1.38919,0,0,1,194.66992,41.42773Zm-2.14258-.7207a1.82182,1.82182,0,0,0-.81152.18164,2.156,2.156,0,0,0-.65723.501,3.03026,3.03026,0,0,0-.49023.749,4.47064,4.47064,0,0,0-.31543.92774,13.65657,13.65657,0,0,0,1.72949-.30469,4.28515,4.28515,0,0,0,1-.3711,1.08138,1.08138,0,0,0,.46289-.43066,1.102,1.102,0,0,0,.11133-.4834.68974.68974,0,0,0-.05566-.26172.69813.69813,0,0,0-.17871-.249.97824.97824,0,0,0-.31836-.18555A1.366,1.366,0,0,0,192.52734,40.707Z" style="fill:blue"/><path d="M136.60156,63.19043a3.22,3.22,0,0,1-.65429.42383,2.63636,2.63636,0,0,1-.68165.2207,4.34277,4.34277,0,0,1-.75976.0625,2.64828,2.64828,0,0,1-1.08887-.21,2.1454,2.1454,0,0,1-.791-.59082,2.63377,2.63377,0,0,1-.4834-.917A4.01458,4.01458,0,0,1,131.97852,61a5.0875,5.0875,0,0,1,.26953-1.65234A4.64171,4.64171,0,0,1,133,57.94824a3.76554,3.76554,0,0,1,1.14844-.97363,3.00394,3.00394,0,0,1,1.46289-.36426,2.51169,2.51169,0,0,1,1.17578.249,2.469,2.469,0,0,1,.834.7246l-.39257.46875a.31788.31788,0,0,1-.10547.09082.27726.27726,0,0,1-.13965.03516.28228.28228,0,0,1-.19238-.08789,2.64556,2.64556,0,0,0-.24512-.19531,1.67824,1.67824,0,0,0-.37793-.19629,1.63788,1.63788,0,0,0-.584-.08789,1.72973,1.72973,0,0,0-.91406.26269,2.5416,2.5416,0,0,0-.75195.71778,3.6468,3.6468,0,0,0-.50781,1.07812,4.68564,4.68564,0,0,0-.18555,1.33692,2.97875,2.97875,0,0,0,.09766.78711,1.68711,1.68711,0,0,0,.29492.60253,1.34683,1.34683,0,0,0,.47851.38477,1.51564,1.51564,0,0,0,.66211.13672,2.1554,2.1554,0,0,0,.55957-.06641,2.2525,2.2525,0,0,0,.43457-.165,2.02158,2.02158,0,0,0,.332-.21289c.09571-.07715.18164-.14843.25977-.21386.07617-.06543.14648-.12012.209-.16407a.32972.32972,0,0,1,.19336-.06738.29861.29861,0,0,1,.23731.11914l.30762.37793A6.39446,6.39446,0,0,1,136.60156,63.19043Z" style="fill:blue"/><path d="M140.64453,63.89746a2.7699,2.7699,0,0,1-1.06445-.19922,2.3286,2.3286,0,0,1-.832-.57715,2.66,2.66,0,0,1-.54688-.92382,3.67211,3.67211,0,0,1-.19531-1.2461,5.048,5.048,0,0,1,.2793-1.6875,4.58188,4.58188,0,0,1,.76757-1.38574,3.64915,3.64915,0,0,1,1.14747-.93848,3.06342,3.06342,0,0,1,1.43164-.34277,2.7614,2.7614,0,0,1,1.06347.19922,2.35975,2.35975,0,0,1,.834.57812,2.66873,2.66873,0,0,1,.54492.92774,3.67608,3.67608,0,0,1,.19629,1.24219,4.97465,4.97465,0,0,1-.28028,1.67968,4.57754,4.57754,0,0,1-.76562,1.38575,3.66028,3.66028,0,0,1-1.15234.94238A3.04955,3.04955,0,0,1,140.64453,63.89746Zm.11231-.97266a1.64063,1.64063,0,0,0,.93066-.28027,2.44991,2.44991,0,0,0,.71387-.74512,3.83764,3.83764,0,0,0,.45508-1.07421,4.96514,4.96514,0,0,0,.16113-1.27442,2.38855,2.38855,0,0,0-.38477-1.47656,1.32219,1.32219,0,0,0-1.11328-.49707,1.65111,1.65111,0,0,0-.93457.27637,2.42855,2.42855,0,0,0-.71.74218,3.813,3.813,0,0,0-.45508,1.07422,4.96307,4.96307,0,0,0-.16113,1.27344,2.41055,2.41055,0,0,0,.38183,1.48047A1.31558,1.31558,0,0,0,140.75684,62.9248Z" style="fill:blue"/><path d="M145.27148,63.7998l1.25293-10.31054H147.75L146.49609,63.7998Z" style="fill:blue"/><path d="M151.00391,63.89746a2.765,2.765,0,0,1-1.06348-.19922,2.3409,2.3409,0,0,1-.833-.57715,2.65834,2.65834,0,0,1-.5459-.92382,3.67146,3.67146,0,0,1-.19629-1.2461,5.02382,5.02382,0,0,1,.28028-1.6875,4.57959,4.57959,0,0,1,.7666-1.38574,3.64181,3.64181,0,0,1,1.14844-.93848,3.06348,3.06348,0,0,1,1.43164-.34277,2.76489,2.76489,0,0,1,1.06347.19922,2.356,2.356,0,0,1,.833.57812,2.67052,2.67052,0,0,1,.5459.92774,3.70053,3.70053,0,0,1,.19629,1.24219,4.999,4.999,0,0,1-.28027,1.67968,4.57988,4.57988,0,0,1-.76661,1.38575,3.65646,3.65646,0,0,1-1.15136.94238A3.05059,3.05059,0,0,1,151.00391,63.89746Zm.11328-.97266a1.63982,1.63982,0,0,0,.92969-.28027,2.44137,2.44137,0,0,0,.71484-.74512,3.86632,3.86632,0,0,0,.45508-1.07421,4.965,4.965,0,0,0,.16015-1.27442,2.38218,2.38218,0,0,0-.38476-1.47656,1.31975,1.31975,0,0,0-1.11328-.49707,1.648,1.648,0,0,0-.9336.27637,2.44269,2.44269,0,0,0-.71093.74218,3.84129,3.84129,0,0,0-.45508,1.07422,4.96288,4.96288,0,0,0-.16016,1.27344A2.41733,2.41733,0,0,0,150,62.42383,1.31744,1.31744,0,0,0,151.11719,62.9248Z" style="fill:blue"/><path d="M155.51172,63.7998l.85449-7.09765h.62305a.47517.47517,0,0,1,.30762.09082.34148.34148,0,0,1,.1123.28027c0,.01856-.001.04492-.00293.08008-.00293.03516-.00586.07129-.00781.1084s-.00391.07031-.00684.09766a.46889.46889,0,0,0-.00293.0498L157.29,58.69727a4.91145,4.91145,0,0,1,1.01855-1.5127,1.7165,1.7165,0,0,1,1.18653-.53223,1.48209,1.48209,0,0,1,.58789.126l-.22363,1.19727a1.71136,1.71136,0,0,0-.63672-.13282,1.53647,1.53647,0,0,0-1.21094.66114,5.48023,5.48023,0,0,0-.88965,2.00586l-.3916,3.29Z" style="fill:blue"/><path d="M163.74414,62.46289c0-.02832.001-.06445.00391-.1084.00195-.04492.00586-.1084.01367-.19238.00683-.084.01758-.19434.03125-.3291.01367-.13574.03515-.3125.0625-.53223l.44141-3.54883h-.791a.21735.21735,0,0,1-.15039-.05273.207.207,0,0,1-.05957-.16406c0-.01465.00293-.042.00683-.084q.00733-.063.01758-.14355c.00684-.05371.01367-.1084.02149-.165q.00879-.0835.01758-.16113l1.09179-.14649.52539-2.19141a.32333.32333,0,0,1,.10449-.17089.27629.27629,0,0,1,.18848-.06641h.6582l-.30859,2.44238h1.86328l-.10547.90332h-1.86914l-.42676,3.48633c-.02343.19141-.041.34473-.05273.46192-.01172.11621-.02051.21-.02832.27929-.00684.07031-.01172.11914-.01367.14746s-.00391.04883-.00391.0625a.738.738,0,0,0,.165.5293.59472.59472,0,0,0,.45117.1709.9064.9064,0,0,0,.32227-.05274,1.32336,1.32336,0,0,0,.24121-.11523c.06836-.042.125-.08008.17187-.11523a.2167.2167,0,0,1,.126-.05274.12579.12579,0,0,1,.08692.02832.34073.34073,0,0,1,.0664.09082l.25977.59473a2.53756,2.53756,0,0,1-.77344.47265,2.39656,2.39656,0,0,1-.87891.17188,1.49253,1.49253,0,0,1-1.07031-.37109A1.452,1.452,0,0,1,163.74414,62.46289Z" style="fill:blue"/><path d="M167.97852,63.7998l1.24609-10.31054h1.24609l-.58105,4.78711a4.18991,4.18991,0,0,1,1.22851-1.249,2.57445,2.57445,0,0,1,1.38282-.42382,1.51029,1.51029,0,0,1,1.23925.53222,2.39724,2.39724,0,0,1,.4336,1.54688c0,.09375-.002.19043-.00684.291-.00488.09961-.01465.2041-.02832.31153l-.53125,4.51464h-1.24609l.53125-4.51464c.00976-.09375.01758-.1836.02539-.26954.00586-.08691.00976-.16894.00976-.249a1.40611,1.40611,0,0,0-.21289-.85351.797.797,0,0,0-.67578-.28028,1.41349,1.41349,0,0,0-.64844.17188,2.62216,2.62216,0,0,0-.64648.48633,4.03657,4.03657,0,0,0-.58789.75976,5.54133,5.54133,0,0,0-.47656.99024l-.45508,3.75878Z" style="fill:blue"/><path d="M180.55762,63.7998h-.64356a.37962.37962,0,0,1-.333-.126.531.531,0,0,1-.08691-.30762l.125-1.4209a5.88238,5.88238,0,0,1-.542.80567,3.78109,3.78109,0,0,1-.61621.61523,2.71839,2.71839,0,0,1-.68164.39258,2.03024,2.03024,0,0,1-.74219.13867,1.74727,1.74727,0,0,1-.76367-.16406,1.57625,1.57625,0,0,1-.584-.4834,2.352,2.352,0,0,1-.375-.78418,3.9195,3.9195,0,0,1-.13281-1.06738,4.79017,4.79017,0,0,1,.1582-1.22852,5.00052,5.00052,0,0,1,.44727-1.12988,4.93426,4.93426,0,0,1,.69727-.97656,4.64236,4.64236,0,0,1,.90624-.77051,4.30375,4.30375,0,0,1,1.07422-.50391,4.024,4.024,0,0,1,1.20411-.17871,5.17,5.17,0,0,1,.88574.0752,3.59856,3.59856,0,0,1,.84961.25781Zm-3.05176-.93847a1.22873,1.22873,0,0,0,.67187-.21,2.5744,2.5744,0,0,0,.62305-.582,5.06507,5.06507,0,0,0,.54883-.88575,7.9327,7.9327,0,0,0,.45215-1.126l.30078-2.39844a.48512.48512,0,0,0-.30371-.124H179.5a2.45757,2.45757,0,0,0-.81152.13574,2.90861,2.90861,0,0,0-.73536.38086,3.308,3.308,0,0,0-.623.583,3.83514,3.83514,0,0,0-.47852.74316,4.25153,4.25153,0,0,0-.3125.8623,3.955,3.955,0,0,0-.11133.93848Q176.42773,62.86182,177.50586,62.86133Z" style="fill:blue"/><path d="M183.02832,62.46289c0-.02832.001-.06445.00391-.1084.00195-.04492.00683-.1084.01367-.19238s.01758-.19434.03222-.3291c.01368-.13574.03418-.3125.0625-.53223L183.582,57.752h-.791a.2174.2174,0,0,1-.1504-.05273.20415.20415,0,0,1-.06054-.16406c0-.01465.00293-.042.00781-.084q.00587-.063.01758-.14355c.00586-.05371.01367-.1084.02051-.165q.01025-.0835.01757-.16113l1.0918-.14649.52539-2.19141a.33586.33586,0,0,1,.10449-.17089.27882.27882,0,0,1,.18946-.06641h.6582l-.30859,2.44238h1.8623l-.10449.90332H184.793l-.42774,3.48633c-.02343.19141-.041.34473-.05273.46192-.01172.11621-.02051.21-.02734.27929-.00782.07031-.01172.11914-.01368.14746-.00293.02832-.0039.04883-.0039.0625a.74233.74233,0,0,0,.16406.5293.59472.59472,0,0,0,.45117.1709.9064.9064,0,0,0,.32227-.05274,1.3344,1.3344,0,0,0,.24219-.11523c.06738-.042.125-.08008.17187-.11523a.21426.21426,0,0,1,.125-.05274.13015.13015,0,0,1,.08789.02832.34051.34051,0,0,1,.06641.09082l.25976.59473a2.53058,2.53058,0,0,1-.77441.47265,2.39542,2.39542,0,0,1-.87793.17188,1.495,1.495,0,0,1-1.07129-.37109A1.45581,1.45581,0,0,1,183.02832,62.46289Z" style="fill:blue"/><path d="M132.05566,80.59961l.8545-7.09766h.623a.37129.37129,0,0,1,.41992.41993l-.09863,1.2666a4.40032,4.40032,0,0,1,1.14746-1.333,2.205,2.205,0,0,1,1.31641-.45215,1.20724,1.20724,0,0,1,1.06445.49414,2.45552,2.45552,0,0,1,.34278,1.41016,4.15655,4.15655,0,0,1,1.19336-1.43848,2.37538,2.37538,0,0,1,1.38964-.46582,1.37713,1.37713,0,0,1,1.17188.51172,2.38472,2.38472,0,0,1,.38867,1.46973c0,.10742-.00391.21972-.01367.33593s-.02149.23828-.03516.36426l-.53125,4.51465h-1.22558l.53222-4.51465a5.30315,5.30315,0,0,0,.042-.623,1.35952,1.35952,0,0,0-.17481-.77343.66844.66844,0,0,0-.58789-.249,1.34413,1.34413,0,0,0-.60254.15039,2.187,2.187,0,0,0-.58105.44141,3.49719,3.49719,0,0,0-.52149.7207,5.84527,5.84527,0,0,0-.42969.99024l-.45507,3.85742h-1.23243l.53907-4.51465q.0205-.189.03515-.35742c.00879-.11231.01367-.2168.01367-.31445a1.30922,1.30922,0,0,0-.16406-.73536.65321.65321,0,0,0-.57812-.23828,1.356,1.356,0,0,0-.64746.168,2.12946,2.12946,0,0,0-.58789.48633,3.96141,3.96141,0,0,0-.51465.77734,7.63472,7.63472,0,0,0-.4336,1.03223l-.4414,3.69629Z" style="fill:blue"/><path d="M148.23926,80.59961h-.64356a.37956.37956,0,0,1-.333-.126.53087.53087,0,0,1-.08692-.30761l.125-1.4209a5.88226,5.88226,0,0,1-.542.80566,3.78117,3.78117,0,0,1-.61621.61524,2.71865,2.71865,0,0,1-.68164.39257,2.03,2.03,0,0,1-.74219.13868,1.74713,1.74713,0,0,1-.76367-.16407,1.57605,1.57605,0,0,1-.584-.4834,2.352,2.352,0,0,1-.375-.78418,3.91945,3.91945,0,0,1-.13281-1.06738,4.79,4.79,0,0,1,.1582-1.22851,5.00079,5.00079,0,0,1,.44727-1.12989,4.93426,4.93426,0,0,1,.69727-.97656,4.64281,4.64281,0,0,1,.90625-.77051,4.30384,4.30384,0,0,1,1.07421-.5039,4.024,4.024,0,0,1,1.20411-.17871,5.171,5.171,0,0,1,.88574.07519,3.599,3.599,0,0,1,.84961.25781Zm-3.05176-.93848a1.2287,1.2287,0,0,0,.67188-.21,2.57435,2.57435,0,0,0,.623-.582,5.06534,5.06534,0,0,0,.54883-.88574,7.93331,7.93331,0,0,0,.45215-1.126l.30078-2.39844a.48518.48518,0,0,0-.30371-.124h-.29883a2.45757,2.45757,0,0,0-.81152.13574,2.90887,2.90887,0,0,0-.73535.38086,3.30808,3.30808,0,0,0-.62305.583,3.83544,3.83544,0,0,0-.47852.74316,4.25162,4.25162,0,0,0-.3125.86231,3.95494,3.95494,0,0,0-.11132.93848Q144.10938,79.66162,145.1875,79.66113Z" style="fill:blue"/><path d="M150.71,79.2627c0-.02832.001-.06446.00391-.1084.002-.04492.00683-.1084.01367-.19239s.01758-.19433.03223-.3291c.01367-.13574.03418-.3125.0625-.53222l.4414-3.54883h-.791a.21736.21736,0,0,1-.15039-.05274.20411.20411,0,0,1-.06055-.16406c0-.01465.00293-.042.00781-.084q.00587-.063.01758-.14356c.00586-.05371.01367-.1084.02051-.165q.01024-.08349.01758-.16113l1.09179-.14648.52539-2.19141a.33584.33584,0,0,1,.1045-.1709.27883.27883,0,0,1,.18945-.06641h.6582l-.30859,2.44239h1.8623l-.10449.90332h-1.86914l-.42773,3.48633c-.02344.1914-.041.34472-.05274.46191-.01172.11621-.02051.21-.02734.2793-.00782.07031-.01172.11914-.01368.14746-.00292.02832-.0039.04883-.0039.0625a.74229.74229,0,0,0,.16406.52929.59472.59472,0,0,0,.45117.1709.90637.90637,0,0,0,.32227-.05273,1.33373,1.33373,0,0,0,.24219-.11524c.06738-.042.125-.08007.17187-.11523a.21423.21423,0,0,1,.125-.05273.1301.1301,0,0,1,.08789.02832.34018.34018,0,0,1,.06641.09082l.25976.59472a2.5308,2.5308,0,0,1-.77441.47266,2.3954,2.3954,0,0,1-.87793.17187,1.495,1.495,0,0,1-1.07129-.37109A1.45579,1.45579,0,0,1,150.71,79.2627Z" style="fill:blue"/><path d="M159.43555,79.99023a3.2196,3.2196,0,0,1-.6543.42383,2.63682,2.63682,0,0,1-.68164.22071,4.343,4.343,0,0,1-.75977.0625,2.64806,2.64806,0,0,1-1.08886-.21,2.14541,2.14541,0,0,1-.791-.59082,2.63384,2.63384,0,0,1-.4834-.917,4.01491,4.01491,0,0,1-.16406-1.17969,5.08755,5.08755,0,0,1,.26953-1.65234,4.6421,4.6421,0,0,1,.75195-1.39941,3.76571,3.76571,0,0,1,1.14844-.97364,3.004,3.004,0,0,1,1.46289-.36425,2.51164,2.51164,0,0,1,1.17578.249,2.46916,2.46916,0,0,1,.834.72461l-.39258.46875a.31789.31789,0,0,1-.10547.09082.27723.27723,0,0,1-.13965.03516.28225.28225,0,0,1-.19238-.0879,2.64756,2.64756,0,0,0-.24512-.19531,1.67862,1.67862,0,0,0-.37793-.19629,1.638,1.638,0,0,0-.584-.08789,1.72962,1.72962,0,0,0-.91406.2627,2.54158,2.54158,0,0,0-.752.71777,3.64736,3.64736,0,0,0-.50781,1.07813,4.68557,4.68557,0,0,0-.18555,1.33691,2.97911,2.97911,0,0,0,.09766.78711,1.68716,1.68716,0,0,0,.29492.60254,1.34675,1.34675,0,0,0,.47852.38476,1.51544,1.51544,0,0,0,.66211.13672,2.15591,2.15591,0,0,0,.55957-.0664,2.253,2.253,0,0,0,.43457-.165,2.02158,2.02158,0,0,0,.332-.21289c.0957-.07715.18164-.14844.25976-.21387.07618-.06543.14649-.12012.209-.16406a.32971.32971,0,0,1,.19336-.06739.29859.29859,0,0,1,.2373.11915l.30762.37793A6.39422,6.39422,0,0,1,159.43555,79.99023Z" style="fill:blue"/><path d="M161.00781,80.59961l1.24512-10.31055H163.499l-.58105,4.78711a4.20151,4.20151,0,0,1,1.22851-1.249,2.57438,2.57438,0,0,1,1.38282-.42383,1.50573,1.50573,0,0,1,1.23828.53223,2.3915,2.3915,0,0,1,.43457,1.54687c0,.09375-.00293.19043-.00684.291-.00488.09961-.01367.2041-.02832.31152l-.53222,4.51465h-1.2461l.53223-4.51465c.00879-.09375.01758-.18359.02441-.26953.00781-.08691.01074-.169.01074-.249a1.399,1.399,0,0,0-.21386-.85352.79583.79583,0,0,0-.67578-.28027,1.406,1.406,0,0,0-.64649.17187,2.63058,2.63058,0,0,0-.64844.48633,4.16174,4.16174,0,0,0-.58789.75977,5.67613,5.67613,0,0,0-.47558.99023l-.45508,3.75879Z" style="fill:blue"/><path d="M174.041,75.02734a1.9158,1.9158,0,0,1-.18848.85059,1.76971,1.76971,0,0,1-.69238.70019,5.17657,5.17657,0,0,1-1.38672.543,15.30353,15.30353,0,0,1-2.26758.37012c-.00488.05176-.00781.10156-.00781.15137V77.793a2.18428,2.18428,0,0,0,.41015,1.43066,1.51336,1.51336,0,0,0,1.23535.49414,2.326,2.326,0,0,0,.59864-.07031,2.59562,2.59562,0,0,0,.46875-.1709,2.10355,2.10355,0,0,0,.36426-.22461c.10449-.081.20214-.15625.29-.22363.08887-.06738.16993-.125.24512-.17187a.41977.41977,0,0,1,.22363-.07032.30648.30648,0,0,1,.23145.11914l.30762.38575a6.46316,6.46316,0,0,1-.69532.63281,4.05239,4.05239,0,0,1-.69726.4375,3.107,3.107,0,0,1-.74609.25586,4.10362,4.10362,0,0,1-.83594.08008,2.78633,2.78633,0,0,1-1.0918-.20313,2.24524,2.24524,0,0,1-.81934-.57715,2.59288,2.59288,0,0,1-.51757-.90625,3.6396,3.6396,0,0,1-.18262-1.19043,5.26654,5.26654,0,0,1,.11523-1.08789,5.19979,5.19979,0,0,1,.33594-1.0332,4.75855,4.75855,0,0,1,.53906-.90918,3.6313,3.6313,0,0,1,.72852-.72461,3.4082,3.4082,0,0,1,.90332-.47949,3.13867,3.13867,0,0,1,1.06055-.17578,2.54827,2.54827,0,0,1,.93066.15429,1.96769,1.96769,0,0,1,.64453.39258,1.55179,1.55179,0,0,1,.374.52442A1.40444,1.40444,0,0,1,174.041,75.02734Zm-2.14161-.7207a1.81882,1.81882,0,0,0-.81152.18164,2.15974,2.15974,0,0,0-.6582.501,3.03029,3.03029,0,0,0-.49024.749,4.4695,4.4695,0,0,0-.31445.92774,13.60462,13.60462,0,0,0,1.72852-.30469,4.31291,4.31291,0,0,0,1.001-.3711,1.07819,1.07819,0,0,0,.46192-.43066,1.10322,1.10322,0,0,0,.1123-.4834.68974.68974,0,0,0-.05566-.26172.70109.70109,0,0,0-.17969-.249.968.968,0,0,0-.31836-.18555A1.3637,1.3637,0,0,0,171.89941,74.30664Z" style="fill:blue"/><path d="M179.38867,74.64258a.44536.44536,0,0,1-.11133.12207.2367.2367,0,0,1-.14062.03906.38769.38769,0,0,1-.21289-.07715c-.07715-.05078-.16992-.1084-.28028-.17187a2.32442,2.32442,0,0,0-.40234-.17481,2.01284,2.01284,0,0,0-1.14746.00684,1.435,1.435,0,0,0-.44922.24219,1.07809,1.07809,0,0,0-.29.36035.982.982,0,0,0-.10156.4375.66751.66751,0,0,0,.21777.52441,1.99736,1.99736,0,0,0,.54492.33985c.21973.0957.457.18847.71094.27636a3.68365,3.68365,0,0,1,.71094.33594,1.81705,1.81705,0,0,1,.54492.51856,1.40674,1.40674,0,0,1,.21778.81835,2.35758,2.35758,0,0,1-.74512,1.72559,2.73038,2.73038,0,0,1-.86914.543,3.04526,3.04526,0,0,1-1.13672.20312,2.82744,2.82744,0,0,1-1.20117-.24218,2.47933,2.47933,0,0,1-.84961-.61914l.30761-.47559a.43123.43123,0,0,1,.13379-.14062.3573.3573,0,0,1,.19532-.04883.34944.34944,0,0,1,.22461.09765c.07421.06543.168.13965.27929.22071a1.72252,1.72252,0,0,0,1.07129.31836,1.7264,1.7264,0,0,0,.61914-.1045,1.46145,1.46145,0,0,0,.46973-.28027,1.17746,1.17746,0,0,0,.293-.40918,1.23536,1.23536,0,0,0,.10156-.501.752.752,0,0,0-.2168-.5664,1.76373,1.76373,0,0,0-.5459-.35059q-.32958-.13916-.707-.26269a3.57944,3.57944,0,0,1-.707-.31446,1.7085,1.7085,0,0,1-.5459-.501,1.39293,1.39293,0,0,1-.21679-.81836,2.1921,2.1921,0,0,1,.17773-.86524,2.23393,2.23393,0,0,1,.51563-.73828,2.53763,2.53763,0,0,1,.81445-.51465,2.8947,2.8947,0,0,1,1.082-.19238,2.76584,2.76584,0,0,1,1.12305.21387,2.604,2.604,0,0,1,.83691.57715Z" style="fill:blue"/></g></svg>