<svg id="nitrate_0_-_3A" data-name="nitrate 0 - 3A" xmlns="http://www.w3.org/2000/svg" viewBox="0 0 226 200"><rect id="back" width="226" height="200" style="fill:none"/><g id="test_tube" data-name="test tube"><rect id="water_25_" data-name="water 25%" x="106.5" y="64.5" width="13" height="45.5" style="fill:#d1eef3;fill-opacity:0.25"/><path id="test_tube-2" data-name="test tube" d="M119,19.5v90H107v-90h12m1-1H106v92h14v-92Z" style="fill:#333"/><rect id="water_fill_line" data-name="water fill line" x="109" y="64" width="8" height="1" style="fill:#333"/><g id="cap"><rect id="cap_fill" data-name="cap fill" x="104.5" y="7.5" width="17" height="19" style="fill:#fff;fill-opacity:0.9"/><path id="cap_outline" data-name="cap outline" d="M120,7H104V27h18V7Zm1,19H105V8h1V18h1V8h1V18h1V8h2V18h1V8h2V18h1V8h2V18h1V8h1V18h1V8h1Z" style="fill:#333;fill-rule:evenodd"/></g></g><g style="isolation:isolate"><path d="M132.61816,42.793,132.09961,47h-1.30176l1.22559-10.03125h2.63867a5.07457,5.07457,0,0,1,1.38281.168,2.70448,2.70448,0,0,1,.96582.47949,1.93953,1.93953,0,0,1,.56738.75586,2.56444,2.56444,0,0,1,.18555.99121,3.44573,3.44573,0,0,1-.18262,1.13379,3.04419,3.04419,0,0,1-.52441.94141,3.21448,3.21448,0,0,1-.82617.707,3.75,3.75,0,0,1-1.0918.43066,1.20475,1.20475,0,0,1,.37012.41992L137.67188,47h-1.16211a.51169.51169,0,0,1-.49024-.28027l-1.88965-3.61133a.57961.57961,0,0,0-.21-.24512.77085.77085,0,0,0-.37793-.07031Zm.59473-4.79492-.47656,3.84277h1.28125a3.022,3.022,0,0,0,1.05078-.168,2.138,2.138,0,0,0,.76562-.47265,1.96241,1.96241,0,0,0,.46973-.72071,2.57182,2.57182,0,0,0,.15723-.91308,1.43824,1.43824,0,0,0-.47949-1.166,2.19421,2.19421,0,0,0-1.43848-.40234Z" style="fill:blue"/><path d="M144.48242,41.42773a1.91593,1.91593,0,0,1-.18847.85059,1.76976,1.76976,0,0,1-.69239.7002,5.17692,5.17692,0,0,1-1.38672.543,15.3036,15.3036,0,0,1-2.26757.37012c-.00489.05176-.00782.10156-.00782.15137v.15039a2.18422,2.18422,0,0,0,.41016,1.43066,1.51336,1.51336,0,0,0,1.23535.49414,2.326,2.326,0,0,0,.59863-.07031,2.59506,2.59506,0,0,0,.46875-.1709,2.10218,2.10218,0,0,0,.36426-.22461c.10449-.08105.20215-.15625.29-.22363.08887-.06738.16992-.125.24512-.17187a.41972.41972,0,0,1,.22363-.07032.30648.30648,0,0,1,.23145.11914l.30761.38575a6.46216,6.46216,0,0,1-.69531.63281,4.05239,4.05239,0,0,1-.69726.4375,3.107,3.107,0,0,1-.7461.25586,4.10355,4.10355,0,0,1-.83594.08008,2.78624,2.78624,0,0,1-1.09179-.20313,2.24508,2.24508,0,0,1-.81934-.57715,2.59305,2.59305,0,0,1-.51758-.90625,3.63961,3.63961,0,0,1-.18261-1.19043,5.26654,5.26654,0,0,1,.11523-1.08789,5.19914,5.19914,0,0,1,.33594-1.0332,4.758,4.758,0,0,1,.53906-.90918,3.63156,3.63156,0,0,1,.72852-.72461,3.40818,3.40818,0,0,1,.90332-.47949,3.13861,3.13861,0,0,1,1.06054-.17578,2.54829,2.54829,0,0,1,.93067.15429,1.96769,1.96769,0,0,1,.64453.39258,1.55162,1.55162,0,0,1,.374.52442A1.40426,1.40426,0,0,1,144.48242,41.42773Zm-2.1416-.7207a1.81882,1.81882,0,0,0-.81152.18164,2.1599,2.1599,0,0,0-.65821.501,3.03026,3.03026,0,0,0-.49023.749,4.46853,4.46853,0,0,0-.31445.92774,13.60408,13.60408,0,0,0,1.72851-.30469,4.31284,4.31284,0,0,0,1.001-.3711,1.07816,1.07816,0,0,0,.46191-.43066,1.10309,1.10309,0,0,0,.11231-.4834.68976.68976,0,0,0-.05567-.26172.701.701,0,0,0-.17968-.249.968.968,0,0,0-.31836-.18555A1.364,1.364,0,0,0,142.34082,40.707Z" style="fill:blue"/><path d="M145.26758,47l.85351-7.09766h.623a.37129.37129,0,0,1,.41992.41993l-.09765,1.2666a4.37364,4.37364,0,0,1,1.14746-1.333,2.20221,2.20221,0,0,1,1.31543-.45215,1.20612,1.20612,0,0,1,1.06445.49414,2.45518,2.45518,0,0,1,.34375,1.41016,4.13543,4.13543,0,0,1,1.19336-1.43848,2.37477,2.37477,0,0,1,1.38867-.46582,1.379,1.379,0,0,1,1.17285.51172,2.39114,2.39114,0,0,1,.38867,1.46973c0,.10742-.00488.21972-.01464.33593-.00879.11621-.02051.23829-.03418.36426L154.5,47h-1.22461l.53125-4.51465a5.11635,5.11635,0,0,0,.043-.623,1.35086,1.35086,0,0,0-.17578-.77343.66844.66844,0,0,0-.58789-.249,1.34015,1.34015,0,0,0-.60156.15039,2.17513,2.17513,0,0,0-.582.44141,3.57169,3.57169,0,0,0-.52148.7207,5.92412,5.92412,0,0,0-.42969.99024L150.49609,47h-1.23242l.53906-4.51465q.02052-.189.03516-.35742c.00977-.11231.01367-.2168.01367-.31445a1.30924,1.30924,0,0,0-.16406-.73536.6521.6521,0,0,0-.57812-.23828,1.35231,1.35231,0,0,0-.64649.168,2.11542,2.11542,0,0,0-.58789.48633,3.96261,3.96261,0,0,0-.51562.77734,7.63526,7.63526,0,0,0-.4336,1.03223L146.48438,47Z" style="fill:blue"/><path d="M158.7627,47.09766a2.76142,2.76142,0,0,1-1.06348-.19922,2.34488,2.34488,0,0,1-.834-.57715,2.67164,2.67164,0,0,1-.54492-.92383,3.67081,3.67081,0,0,1-.19726-1.24609,5,5,0,0,1,.28125-1.6875,4.55665,4.55665,0,0,1,.76562-1.38575,3.64165,3.64165,0,0,1,1.14844-.93847,3.06622,3.06622,0,0,1,1.43164-.34277,2.76989,2.76989,0,0,1,1.06445.19921,2.3436,2.3436,0,0,1,.832.57813,2.65727,2.65727,0,0,1,.54688.92773,3.70112,3.70112,0,0,1,.19531,1.24219,5.02318,5.02318,0,0,1-.27929,1.67969,4.60278,4.60278,0,0,1-.76758,1.38574,3.65287,3.65287,0,0,1-1.15039.94238A3.05346,3.05346,0,0,1,158.7627,47.09766Zm.1123-.97266a1.64515,1.64515,0,0,0,.93066-.28027,2.43845,2.43845,0,0,0,.71387-.74512,3.83754,3.83754,0,0,0,.45508-1.07422,4.96506,4.96506,0,0,0,.16113-1.27441,2.38224,2.38224,0,0,0-.38476-1.47657,1.32221,1.32221,0,0,0-1.11328-.49707,1.65114,1.65114,0,0,0-.93458.27637,2.45421,2.45421,0,0,0-.71093.74219,3.84158,3.84158,0,0,0-.45508,1.07422,4.9628,4.9628,0,0,0-.16016,1.27343,2.41737,2.41737,0,0,0,.38086,1.48047A1.31866,1.31866,0,0,0,158.875,46.125Z" style="fill:blue"/><path d="M163.29883,39.90918h1.00781a.31452.31452,0,0,1,.22363.07715.32587.32587,0,0,1,.1045.18164l1.05761,4.56445a4.70852,4.70852,0,0,1,.08106.51758c.01562.17285.02929.34277.03808.51074.05176-.168.1045-.33691.16114-.50683a4.37525,4.37525,0,0,1,.21-.52149l2.19824-4.56445a.50807.50807,0,0,1,.1543-.18555.3501.3501,0,0,1,.21679-.07324h.97266L166.168,47h-1.043Z" style="fill:blue"/><path d="M175.42285,41.42773a1.92922,1.92922,0,0,1-.18847.85059,1.77953,1.77953,0,0,1-.69336.7002,5.17692,5.17692,0,0,1-1.38672.543,15.30353,15.30353,0,0,1-2.26758.37012c-.00391.05176-.00684.10156-.00684.15137v.15039a2.18976,2.18976,0,0,0,.40918,1.43066,1.51544,1.51544,0,0,0,1.23633.49414,2.313,2.313,0,0,0,.59766-.07031,2.54191,2.54191,0,0,0,.46875-.1709,2.11247,2.11247,0,0,0,.36523-.22461c.10449-.08105.20117-.15625.29-.22363s.16992-.125.24512-.17187a.41469.41469,0,0,1,.22363-.07032.308.308,0,0,1,.23145.11914l.30761.38575a6.37491,6.37491,0,0,1-.69629.63281,4.05239,4.05239,0,0,1-.69726.4375,3.09978,3.09978,0,0,1-.74512.25586,4.12022,4.12022,0,0,1-.83691.08008,2.78972,2.78972,0,0,1-1.0918-.20313,2.24142,2.24142,0,0,1-.81836-.57715,2.5779,2.5779,0,0,1-.51758-.90625,3.63961,3.63961,0,0,1-.18261-1.19043,5.20018,5.20018,0,0,1,.11523-1.08789,5.07583,5.07583,0,0,1,.33594-1.0332,4.70833,4.70833,0,0,1,.53906-.90918,3.627,3.627,0,0,1,.72754-.72461,3.39932,3.39932,0,0,1,.9043-.47949,3.13048,3.13048,0,0,1,1.06054-.17578,2.53915,2.53915,0,0,1,.92969.15429,1.96769,1.96769,0,0,1,.64453.39258,1.56846,1.56846,0,0,1,.375.52442A1.40426,1.40426,0,0,1,175.42285,41.42773Zm-2.1416-.7207a1.823,1.823,0,0,0-.8125.18164,2.17158,2.17158,0,0,0-.6582.501,3.05793,3.05793,0,0,0-.49024.749,4.4697,4.4697,0,0,0-.31445.92774,13.60462,13.60462,0,0,0,1.72852-.30469,4.32326,4.32326,0,0,0,1.002-.3711.97133.97133,0,0,0,.57422-.91406.70646.70646,0,0,0-.23535-.51074.968.968,0,0,0-.31836-.18555A1.36778,1.36778,0,0,0,173.28125,40.707Z" style="fill:blue"/><path d="M181.0293,40.94531l-.707,5.82324L180,48.21777a.60149.60149,0,0,1-.64355.52539h-.48926l.94433-7.77734-.70019-.09082a.47648.47648,0,0,1-.18848-.09766.232.232,0,0,1-.07031-.18261l.05566-.5459h1.01563l.084-.68555a3.45947,3.45947,0,0,1,.30469-1.082,2.6606,2.6606,0,0,1,.57422-.79785,2.34735,2.34735,0,0,1,.791-.49317,2.66911,2.66911,0,0,1,.95508-.168,2.1044,2.1044,0,0,1,.791.14355l-.11914.64063a.13385.13385,0,0,1-.09473.12207.71235.71235,0,0,1-.20605.02441H182.709a1.722,1.722,0,0,0-.55566.08691,1.16561,1.16561,0,0,0-.45215.28321,1.55185,1.55185,0,0,0-.32812.50976,2.82672,2.82672,0,0,0-.18946.76758l-.084.64844h1.77148l-.11914.89648Z" style="fill:blue"/><path d="M183.14355,47l.8545-7.09766h.623a.477.477,0,0,1,.30762.09082.34146.34146,0,0,1,.11231.28028c0,.01855-.002.04492-.00391.08008s-.00488.07128-.00781.10839c-.002.03711-.00391.07032-.00586.09766-.00293.02832-.00391.04492-.00391.04981l-.09765,1.28808a4.89328,4.89328,0,0,1,1.01757-1.51269,1.71859,1.71859,0,0,1,1.1875-.53223,1.48544,1.48544,0,0,1,.58789.126l-.22461,1.19726a1.70739,1.70739,0,0,0-.63671-.13281,1.53786,1.53786,0,0,0-1.21094.66113,5.481,5.481,0,0,0-.88867,2.00586L184.36133,47Z" style="fill:blue"/><path d="M190.30469,47.09766a2.77,2.77,0,0,1-1.06446-.19922,2.32894,2.32894,0,0,1-.832-.57715,2.66022,2.66022,0,0,1-.54687-.92383,3.67209,3.67209,0,0,1-.19531-1.24609,5.04818,5.04818,0,0,1,.27929-1.6875,4.582,4.582,0,0,1,.76758-1.38575,3.64894,3.64894,0,0,1,1.14746-.93847,3.06336,3.06336,0,0,1,1.43164-.34277,2.76145,2.76145,0,0,1,1.06348.19921,2.35974,2.35974,0,0,1,.834.57813,2.66855,2.66855,0,0,1,.54493.92773,3.67638,3.67638,0,0,1,.19628,1.24219,4.97475,4.97475,0,0,1-.28027,1.67969,4.57771,4.57771,0,0,1-.76562,1.38574,3.66007,3.66007,0,0,1-1.15235.94238A3.04952,3.04952,0,0,1,190.30469,47.09766Zm.1123-.97266a1.64066,1.64066,0,0,0,.93067-.28027,2.45,2.45,0,0,0,.71386-.74512,3.83754,3.83754,0,0,0,.45508-1.07422,4.96506,4.96506,0,0,0,.16113-1.27441,2.38861,2.38861,0,0,0-.38476-1.47657,1.32221,1.32221,0,0,0-1.11328-.49707,1.65109,1.65109,0,0,0-.93457.27637,2.42836,2.42836,0,0,0-.71.74219,3.813,3.813,0,0,0-.45508,1.07422,4.963,4.963,0,0,0-.16113,1.27343,2.41053,2.41053,0,0,0,.38183,1.48047A1.31555,1.31555,0,0,0,190.417,46.125Z" style="fill:blue"/><path d="M194.8125,47l.85352-7.09766h.623a.3709.3709,0,0,1,.41992.41993l-.09765,1.2666a4.36228,4.36228,0,0,1,1.14844-1.333,2.2,2.2,0,0,1,1.31543-.45215,1.20725,1.20725,0,0,1,1.06445.49414,2.4556,2.4556,0,0,1,.34277,1.41016,4.146,4.146,0,0,1,1.19336-1.43848,2.37763,2.37763,0,0,1,1.38965-.46582,1.38146,1.38146,0,0,1,1.17285.51172,2.39114,2.39114,0,0,1,.38867,1.46973c0,.10742-.00586.21972-.01465.33593s-.0205.23829-.03418.36426L204.04492,47h-1.22461l.53223-4.51465a5.10151,5.10151,0,0,0,.042-.623,1.35086,1.35086,0,0,0-.17578-.77343.66728.66728,0,0,0-.58789-.249,1.34637,1.34637,0,0,0-.60156.15039,2.15642,2.15642,0,0,0-.58106.44141,3.49754,3.49754,0,0,0-.52148.7207,5.92354,5.92354,0,0,0-.43067.99024L200.041,47h-1.23145l.53906-4.51465c.01367-.126.02539-.24512.03418-.35742.00977-.11231.01465-.2168.01465-.31445a1.30845,1.30845,0,0,0-.165-.73536.65018.65018,0,0,0-.57715-.23828,1.35318,1.35318,0,0,0-.64746.168,2.1296,2.1296,0,0,0-.58789.48633,4.00565,4.00565,0,0,0-.51465.77734,7.51164,7.51164,0,0,0-.43457,1.03223L196.03027,47Z" style="fill:blue"/><path d="M131.11328,62.46289c0-.02832.001-.06445.00391-.1084.00195-.04492.00586-.1084.01367-.19238.00684-.084.01758-.19434.03125-.3291.01367-.13574.03516-.3125.0625-.53223L131.666,57.752h-.791a.21735.21735,0,0,1-.15039-.05273.207.207,0,0,1-.05957-.16406c0-.01465.00293-.042.00684-.084q.00732-.063.01757-.14355c.00684-.05371.01367-.1084.02149-.165q.00879-.0835.01758-.16113l1.09179-.14649.52539-2.19141a.32328.32328,0,0,1,.1045-.17089.27625.27625,0,0,1,.18847-.06641h.65821l-.3086,2.44238h1.86328l-.10547.90332H132.877l-.42675,3.48633c-.02344.19141-.041.34473-.05274.46192-.01172.11621-.02051.21-.02832.27929-.00684.07031-.01172.11914-.01367.14746s-.00391.04883-.00391.0625a.738.738,0,0,0,.165.5293.59472.59472,0,0,0,.45117.1709.90637.90637,0,0,0,.32227-.05274,1.32336,1.32336,0,0,0,.24121-.11523c.06836-.042.125-.08008.17187-.11523a.2167.2167,0,0,1,.126-.05274.12579.12579,0,0,1,.08692.02832.34073.34073,0,0,1,.0664.09082l.25977.59473a2.53744,2.53744,0,0,1-.77344.47265,2.39656,2.39656,0,0,1-.87891.17188,1.49253,1.49253,0,0,1-1.07031-.37109A1.452,1.452,0,0,1,131.11328,62.46289Z" style="fill:blue"/><path d="M135.34766,63.7998l1.24609-10.31054h1.24609l-.58105,4.78711a4.18991,4.18991,0,0,1,1.22851-1.249,2.57445,2.57445,0,0,1,1.38282-.42382,1.51033,1.51033,0,0,1,1.23926.53222,2.3973,2.3973,0,0,1,.43359,1.54688c0,.09375-.00195.19043-.00684.291-.00488.09961-.01465.2041-.02832.31153l-.53125,4.51464h-1.24609l.53125-4.51464c.00976-.09375.01758-.1836.02539-.26954.00586-.08691.00977-.16894.00977-.249a1.4061,1.4061,0,0,0-.2129-.85351.797.797,0,0,0-.67578-.28028,1.41345,1.41345,0,0,0-.64843.17188,2.6222,2.6222,0,0,0-.64649.48633,4.03657,4.03657,0,0,0-.58789.75976,5.54133,5.54133,0,0,0-.47656.99024l-.45508,3.75878Z" style="fill:blue"/><path d="M148.38184,58.22754a1.92918,1.92918,0,0,1-.18848.85058,1.77939,1.77939,0,0,1-.69336.7002,5.1769,5.1769,0,0,1-1.38672.543,15.30485,15.30485,0,0,1-2.26758.37012c-.0039.05175-.00683.10156-.00683.15136v.15039a2.18981,2.18981,0,0,0,.40918,1.43067,1.51542,1.51542,0,0,0,1.23633.49414,2.31326,2.31326,0,0,0,.59765-.07031,2.54336,2.54336,0,0,0,.46875-.1709,2.11319,2.11319,0,0,0,.36524-.22461c.10449-.08106.20117-.15625.29-.22363s.16993-.125.24512-.17188a.41479.41479,0,0,1,.22363-.07031.308.308,0,0,1,.23145.11914l.30762.38574a6.37574,6.37574,0,0,1-.69629.63281,4.05185,4.05185,0,0,1-.69727.4375,3.0997,3.0997,0,0,1-.74511.25586,4.12025,4.12025,0,0,1-.83692.08008,2.78976,2.78976,0,0,1-1.0918-.20312,2.24171,2.24171,0,0,1-.81836-.57715,2.578,2.578,0,0,1-.51757-.90625,3.63964,3.63964,0,0,1-.18262-1.19043,5.20085,5.20085,0,0,1,.11523-1.08789,5.07572,5.07572,0,0,1,.33594-1.03321,4.70833,4.70833,0,0,1,.53906-.90918,3.62722,3.62722,0,0,1,.72754-.72461,3.39932,3.39932,0,0,1,.9043-.47949,3.13074,3.13074,0,0,1,1.06055-.17578,2.53909,2.53909,0,0,1,.92968.1543,1.96774,1.96774,0,0,1,.64454.39258,1.5687,1.5687,0,0,1,.375.52441A1.40449,1.40449,0,0,1,148.38184,58.22754Zm-2.14161-.7207a1.82288,1.82288,0,0,0-.8125.18164,2.17167,2.17167,0,0,0-.6582.501,3.05816,3.05816,0,0,0-.49023.749,4.469,4.469,0,0,0-.31446.92773,13.60429,13.60429,0,0,0,1.72852-.30469,4.32313,4.32313,0,0,0,1.00195-.37109.97133.97133,0,0,0,.57422-.91406.7065.7065,0,0,0-.23535-.51075.96813.96813,0,0,0-.31836-.18554A1.36754,1.36754,0,0,0,146.24023,57.50684Z" style="fill:blue"/><path d="M151.56641,66.20117l1.15625-9.499h.623a.37129.37129,0,0,1,.41992.41992l-.11914,1.51172a5.83661,5.83661,0,0,1,.58008-.83691,4.31825,4.31825,0,0,1,.66211-.63965,2.83336,2.83336,0,0,1,.72461-.41016,2.14849,2.14849,0,0,1,.76953-.14355,1.67292,1.67292,0,0,1,1.40723.6582,3.12489,3.12489,0,0,1,.50391,1.9248,5.731,5.731,0,0,1-.11817,1.14844,5.95473,5.95473,0,0,1-.33984,1.0957,5.43264,5.43264,0,0,1-.53223.97266,4.18837,4.18837,0,0,1-.69336.78418,3.08181,3.08181,0,0,1-.8291.52148,2.38891,2.38891,0,0,1-.9375.18848,2.20005,2.20005,0,0,1-.959-.20605,1.95791,1.95791,0,0,1-.72852-.5918l-.37793,3.10156Zm4.34765-8.59668a1.31471,1.31471,0,0,0-.68261.21,2.80556,2.80556,0,0,0-.66895.58789,5.05387,5.05387,0,0,0-.59766.89649,7.3908,7.3908,0,0,0-.48046,1.127l-.22266,1.80567a1.47533,1.47533,0,0,0,.63965.543,1.95371,1.95371,0,0,0,.75976.15723,1.5595,1.5595,0,0,0,.68653-.1543,2.17986,2.17986,0,0,0,.58789-.416,3.027,3.027,0,0,0,.47558-.61621,4.31767,4.31767,0,0,0,.35352-.75586,5.14625,5.14625,0,0,0,.21973-.833,4.69663,4.69663,0,0,0,.07812-.85059,2.222,2.222,0,0,0-.30078-1.2666A.97191.97191,0,0,0,155.91406,57.60449Z" style="fill:blue"/><path d="M159.11914,63.7998l.85449-7.09765h.623a.47517.47517,0,0,1,.30762.09082.34145.34145,0,0,1,.1123.28027c0,.01856-.001.04492-.00293.08008-.00293.03516-.00586.07129-.00781.1084s-.00391.07031-.00684.09766a.46889.46889,0,0,0-.00293.0498l-.09863,1.28809a4.91146,4.91146,0,0,1,1.01856-1.5127,1.71648,1.71648,0,0,1,1.18652-.53223,1.48209,1.48209,0,0,1,.58789.126l-.22363,1.19727a1.71132,1.71132,0,0,0-.63672-.13282,1.53649,1.53649,0,0,0-1.21094.66114,5.48023,5.48023,0,0,0-.88965,2.00586l-.3916,3.29Z" style="fill:blue"/><path d="M166.28125,63.89746a2.76636,2.76636,0,0,1-1.06445-.19922,2.33231,2.33231,0,0,1-.833-.57715,2.67329,2.67329,0,0,1-.5459-.92382,3.67146,3.67146,0,0,1-.19629-1.2461,5.02382,5.02382,0,0,1,.28028-1.6875,4.55869,4.55869,0,0,1,.7666-1.38574,3.64911,3.64911,0,0,1,1.14746-.93848,3.06632,3.06632,0,0,1,1.43164-.34277,2.7664,2.7664,0,0,1,1.06445.19922,2.3473,2.3473,0,0,1,.833.57812,2.65553,2.65553,0,0,1,.5459.92774,3.67661,3.67661,0,0,1,.19531,1.24219,4.99826,4.99826,0,0,1-.2793,1.67968,4.60073,4.60073,0,0,1-.7666,1.38575,3.6566,3.6566,0,0,1-1.15137.94238A3.05237,3.05237,0,0,1,166.28125,63.89746Zm.11133-.97266a1.646,1.646,0,0,0,.93164-.28027,2.447,2.447,0,0,0,.71289-.74512,3.80882,3.80882,0,0,0,.45508-1.07421,4.96531,4.96531,0,0,0,.16211-1.27442,2.38855,2.38855,0,0,0-.38477-1.47656,1.32467,1.32467,0,0,0-1.11328-.49707,1.65425,1.65425,0,0,0-.93555.27637,2.44,2.44,0,0,0-.71.74218,3.81327,3.81327,0,0,0-.45508,1.07422,4.96307,4.96307,0,0,0-.16113,1.27344,2.41048,2.41048,0,0,0,.38184,1.48047A1.31677,1.31677,0,0,0,166.39258,62.9248Z" style="fill:blue"/><path d="M171.4043,62.46289c0-.02832.00195-.06445.0039-.1084.002-.04492.00684-.1084.01368-.19238.00781-.084.01757-.19434.03124-.3291.01368-.13574.03516-.3125.06348-.53223L171.957,57.752h-.791a.21909.21909,0,0,1-.1504-.05273.21009.21009,0,0,1-.05859-.16406c0-.01465.00195-.042.00586-.084q.00879-.063.01758-.14355c.00781-.05371.01465-.1084.02148-.165q.01026-.0835.01758-.16113l1.0918-.14649.52539-2.19141a.32472.32472,0,0,1,.10547-.17089.27287.27287,0,0,1,.18847-.06641h.65723l-.30762,2.44238h1.86231l-.10547.90332H173.168l-.42578,3.48633c-.02344.19141-.041.34473-.05274.46192-.01172.11621-.02148.21-.02832.27929-.00683.07031-.01172.11914-.01465.14746-.00195.02832-.00293.04883-.00293.0625a.738.738,0,0,0,.165.5293.59473.59473,0,0,0,.45118.1709.91393.91393,0,0,0,.32226-.05274,1.32336,1.32336,0,0,0,.24121-.11523c.06738-.042.124-.08008.1709-.11523a.21911.21911,0,0,1,.127-.05274.12579.12579,0,0,1,.08692.02832.36307.36307,0,0,1,.0664.09082l.25879.59473a2.51421,2.51421,0,0,1-.77343.47265,2.38891,2.38891,0,0,1-.87891.17188,1.49573,1.49573,0,0,1-1.07031-.37109A1.45577,1.45577,0,0,1,171.4043,62.46289Z" style="fill:blue"/><path d="M181.25391,58.22754a1.91636,1.91636,0,0,1-.18946.85058,1.77281,1.77281,0,0,1-.69336.7002,5.16854,5.16854,0,0,1-1.38574.543,15.29872,15.29872,0,0,1-2.26855.37012c-.00391.05175-.00586.10156-.00586.15136v.15039a2.18981,2.18981,0,0,0,.40918,1.43067,1.512,1.512,0,0,0,1.23535.49414,2.31577,2.31577,0,0,0,.59863-.07031,2.59658,2.59658,0,0,0,.46875-.1709,2.1407,2.1407,0,0,0,.36426-.22461c.10547-.08106.20117-.15625.291-.22363.0879-.06739.16993-.125.24415-.17188a.41785.41785,0,0,1,.22461-.07031.30616.30616,0,0,1,.23046.11914l.3086.38574a6.47069,6.47069,0,0,1-.69727.63281,4.04467,4.04467,0,0,1-.69629.4375,3.0997,3.0997,0,0,1-.74511.25586,4.12716,4.12716,0,0,1-.83692.08008,2.78633,2.78633,0,0,1-1.0918-.20312,2.25348,2.25348,0,0,1-.81933-.57715,2.593,2.593,0,0,1-.51758-.90625A3.66637,3.66637,0,0,1,175.5,61.02051a5.20085,5.20085,0,0,1,.11523-1.08789,5.01656,5.01656,0,0,1,.33594-1.03321,4.61151,4.61151,0,0,1,.53906-.90918,3.62722,3.62722,0,0,1,.72754-.72461,3.39347,3.39347,0,0,1,.90332-.47949,3.13079,3.13079,0,0,1,1.06055-.17578,2.5409,2.5409,0,0,1,.93066.1543,1.973,1.973,0,0,1,.64356.39258,1.56842,1.56842,0,0,1,.375.52441A1.38926,1.38926,0,0,1,181.25391,58.22754Zm-2.14258-.7207a1.82586,1.82586,0,0,0-.8125.18164,2.16768,2.16768,0,0,0-.65723.501,3.05845,3.05845,0,0,0-.49023.749,4.47,4.47,0,0,0-.31543.92773,13.65657,13.65657,0,0,0,1.72949-.30469,4.29567,4.29567,0,0,0,1.001-.37109.967.967,0,0,0,.57421-.91406.71025.71025,0,0,0-.23437-.51075.9783.9783,0,0,0-.31836-.18554A1.36951,1.36951,0,0,0,179.11133,57.50684Z" style="fill:blue"/><path d="M186.584,63.19043a3.24675,3.24675,0,0,1-.65429.42383,2.64317,2.64317,0,0,1-.68262.2207,4.335,4.335,0,0,1-.75977.0625,2.64823,2.64823,0,0,1-1.08886-.21,2.16148,2.16148,0,0,1-.791-.59082,2.61629,2.61629,0,0,1-.48242-.917A4.01458,4.01458,0,0,1,181.96094,61a5.0875,5.0875,0,0,1,.26953-1.65234,4.62066,4.62066,0,0,1,.75195-1.39942,3.76554,3.76554,0,0,1,1.14844-.97363,3.00122,3.00122,0,0,1,1.46289-.36426,2.5144,2.5144,0,0,1,1.17578.249,2.46617,2.46617,0,0,1,.833.7246l-.3916.46875a.33842.33842,0,0,1-.10547.09082.26884.26884,0,0,1-.332-.05273,2.67368,2.67368,0,0,0-.2461-.19531,1.66925,1.66925,0,0,0-.377-.19629,1.64735,1.64735,0,0,0-.585-.08789,1.72892,1.72892,0,0,0-.91309.26269,2.54474,2.54474,0,0,0-.75293.71778,3.6703,3.6703,0,0,0-.50683,1.07812,4.65134,4.65134,0,0,0-.18555,1.33692,2.93906,2.93906,0,0,0,.09766.78711,1.66977,1.66977,0,0,0,.29394.60253,1.34174,1.34174,0,0,0,.47949.38477,1.51262,1.51262,0,0,0,.66211.13672,2.14768,2.14768,0,0,0,.5586-.06641,2.20473,2.20473,0,0,0,.43457-.165,1.99139,1.99139,0,0,0,.333-.21289c.0957-.07715.18164-.14843.25879-.21386s.14746-.12012.21-.16407a.32693.32693,0,0,1,.19238-.06738.29723.29723,0,0,1,.2373.11914l.3086.37793A6.48624,6.48624,0,0,1,186.584,63.19043Z" style="fill:blue"/><path d="M188.71484,62.46289c0-.02832.002-.06445.00391-.1084.00195-.04492.00781-.1084.01367-.19238.00781-.084.01758-.19434.03223-.3291.01367-.13574.03418-.3125.06347-.53223l.44043-3.54883h-.791a.21906.21906,0,0,1-.15039-.05273.207.207,0,0,1-.05957-.16406.84032.84032,0,0,1,.00683-.084q.00734-.063.01758-.14355c.00684-.05371.01465-.1084.02051-.165q.01172-.0835.01758-.16113l1.0918-.14649.52539-2.19141a.33738.33738,0,0,1,.10546-.17089.27541.27541,0,0,1,.18946-.06641h.65722l-.30761,2.44238h1.86132l-.10449.90332h-1.86914l-.42676,3.48633c-.02343.19141-.041.34473-.05273.46192-.01172.11621-.02148.21-.02734.27929-.00782.07031-.01172.11914-.01465.14746a.56456.56456,0,0,0-.00293.0625.74233.74233,0,0,0,.16406.5293.59472.59472,0,0,0,.45117.1709.914.914,0,0,0,.32227-.05274,1.3344,1.3344,0,0,0,.24219-.11523c.0664-.042.124-.08008.17089-.11523a.21667.21667,0,0,1,.126-.05274.13015.13015,0,0,1,.08789.02832.36331.36331,0,0,1,.06641.09082l.25879.59473a2.50763,2.50763,0,0,1-.77442.47265,2.38768,2.38768,0,0,1-.87793.17188,1.49821,1.49821,0,0,1-1.07129-.37109A1.45967,1.45967,0,0,1,188.71484,62.46289Z" style="fill:blue"/><path d="M195.1416,56.709l-.85449,7.09082H193.0625L193.916,56.709Zm.46875-2.22656a.79273.79273,0,0,1-.07324.33985.98706.98706,0,0,1-.19629.28027.94473.94473,0,0,1-.27637.19238.76634.76634,0,0,1-.32226.07031.74794.74794,0,0,1-.31446-.07031.84464.84464,0,0,1-.26953-.19238.99341.99341,0,0,1-.18554-.28027.82065.82065,0,0,1-.07032-.33985.8476.8476,0,0,1,.07032-.34277.93534.93534,0,0,1,.18945-.2832.91944.91944,0,0,1,.27246-.19629.72718.72718,0,0,1,.31543-.07325.76524.76524,0,0,1,.32129.07032.92125.92125,0,0,1,.27637.19238.89075.89075,0,0,1,.26269.63281Z" style="fill:blue"/><path d="M196.332,56.709h1.00781a.3146.3146,0,0,1,.22364.07715.32585.32585,0,0,1,.10449.18164l1.05762,4.56446a4.70794,4.70794,0,0,1,.081.51757c.01563.17286.0293.34278.03809.51075.05175-.168.10449-.33692.16113-.50684a4.37613,4.37613,0,0,1,.21-.52148l2.19824-4.56446a.508.508,0,0,1,.1543-.18554.35012.35012,0,0,1,.2168-.07325h.97265l-3.55664,7.09082h-1.043Z" style="fill:blue"/><path d="M208.45508,58.22754a1.91576,1.91576,0,0,1-.18848.85058,1.76973,1.76973,0,0,1-.69238.7002,5.1769,5.1769,0,0,1-1.38672.543,15.30485,15.30485,0,0,1-2.26758.37012c-.00488.05175-.00781.10156-.00781.15136v.15039a2.18427,2.18427,0,0,0,.41016,1.43067,1.51334,1.51334,0,0,0,1.23535.49414,2.32644,2.32644,0,0,0,.59863-.07031,2.59714,2.59714,0,0,0,.46875-.1709,2.10279,2.10279,0,0,0,.36426-.22461c.10449-.08106.20215-.15625.29-.22363.08886-.06739.16992-.125.24511-.17188a.41985.41985,0,0,1,.22364-.07031.30646.30646,0,0,1,.23144.11914l.30762.38574a6.463,6.463,0,0,1-.69531.63281,4.05223,4.05223,0,0,1-.69727.4375,3.107,3.107,0,0,1-.74609.25586,4.10362,4.10362,0,0,1-.83594.08008,2.78633,2.78633,0,0,1-1.0918-.20312,2.24524,2.24524,0,0,1-.81933-.57715,2.59283,2.59283,0,0,1-.51758-.90625,3.63964,3.63964,0,0,1-.18262-1.19043,5.26586,5.26586,0,0,1,.11524-1.08789,5.199,5.199,0,0,1,.33593-1.03321,4.75808,4.75808,0,0,1,.53907-.90918,3.63151,3.63151,0,0,1,.72851-.72461,3.40849,3.40849,0,0,1,.90332-.47949,3.13892,3.13892,0,0,1,1.06055-.17578,2.54823,2.54823,0,0,1,.93066.1543,1.96758,1.96758,0,0,1,.64453.39258,1.55175,1.55175,0,0,1,.374.52441A1.40449,1.40449,0,0,1,208.45508,58.22754Zm-2.1416-.7207a1.81869,1.81869,0,0,0-.81153.18164,2.15994,2.15994,0,0,0-.6582.501,3.03023,3.03023,0,0,0-.49023.749,4.469,4.469,0,0,0-.31446.92773,13.60462,13.60462,0,0,0,1.72852-.30469,4.31279,4.31279,0,0,0,1.001-.37109,1.07825,1.07825,0,0,0,.46192-.43066,1.10308,1.10308,0,0,0,.1123-.4834.6897.6897,0,0,0-.05566-.26172.70112.70112,0,0,0-.17969-.249.968.968,0,0,0-.31836-.18554A1.36368,1.36368,0,0,0,206.31348,57.50684Z" style="fill:blue"/><path d="M135.06055,74.64258a.44536.44536,0,0,1-.11133.12207.23673.23673,0,0,1-.14063.03906.38772.38772,0,0,1-.21289-.07715c-.07715-.05078-.16992-.1084-.28027-.17187a2.32442,2.32442,0,0,0-.40234-.17481,2.01288,2.01288,0,0,0-1.14747.00684,1.435,1.435,0,0,0-.44921.24219,1.078,1.078,0,0,0-.29.36035.98189.98189,0,0,0-.10157.4375.66749.66749,0,0,0,.21778.52441,1.99721,1.99721,0,0,0,.54492.33985c.21973.0957.457.18847.71094.27636a3.68393,3.68393,0,0,1,.71094.33594,1.81717,1.81717,0,0,1,.54492.51856,1.40681,1.40681,0,0,1,.21777.81835,2.35748,2.35748,0,0,1-.74512,1.72559,2.73016,2.73016,0,0,1-.86914.543,3.04522,3.04522,0,0,1-1.13672.20312,2.82751,2.82751,0,0,1-1.20117-.24218,2.47942,2.47942,0,0,1-.84961-.61914l.30762-.47559a.43113.43113,0,0,1,.13379-.14062.35727.35727,0,0,1,.19531-.04883.34942.34942,0,0,1,.22461.09765c.07422.06543.168.13965.2793.22071a1.72252,1.72252,0,0,0,1.07129.31836,1.72644,1.72644,0,0,0,.61914-.1045,1.46129,1.46129,0,0,0,.46972-.28027,1.17733,1.17733,0,0,0,.293-.40918,1.23536,1.23536,0,0,0,.10156-.501.752.752,0,0,0-.21679-.5664,1.76373,1.76373,0,0,0-.5459-.35059q-.32959-.13916-.707-.26269a3.57918,3.57918,0,0,1-.707-.31446,1.7084,1.7084,0,0,1-.5459-.501,1.39293,1.39293,0,0,1-.2168-.81836,2.19194,2.19194,0,0,1,.17774-.86524,2.2339,2.2339,0,0,1,.51562-.73828,2.53774,2.53774,0,0,1,.81445-.51465,2.89479,2.89479,0,0,1,1.082-.19238,2.76583,2.76583,0,0,1,1.123.21387,2.604,2.604,0,0,1,.83692.57715Z" style="fill:blue"/><path d="M136.0625,80.59961l1.25195-10.31055H138.54l-1.25293,10.31055Z" style="fill:blue"/><path d="M144.9375,75.02734a1.9033,1.9033,0,0,1-.18945.85059,1.76315,1.76315,0,0,1-.69239.70019,5.16821,5.16821,0,0,1-1.38574.543,15.2974,15.2974,0,0,1-2.26855.37012c-.00489.05176-.00684.10156-.00684.15137V77.793a2.18422,2.18422,0,0,0,.41016,1.43066,1.51,1.51,0,0,0,1.23437.49414,2.32851,2.32851,0,0,0,.59961-.07031,2.651,2.651,0,0,0,.46875-.1709,2.13058,2.13058,0,0,0,.36328-.22461c.10547-.081.20215-.15625.291-.22363.08789-.06738.16992-.125.24414-.17187a.42285.42285,0,0,1,.22461-.07032.30467.30467,0,0,1,.23047.11914l.30859.38575a6.56071,6.56071,0,0,1-.69629.63281,4.04528,4.04528,0,0,1-.69629.4375,3.107,3.107,0,0,1-.74609.25586,4.11043,4.11043,0,0,1-.83594.08008,2.7829,2.7829,0,0,1-1.0918-.20313,2.257,2.257,0,0,1-.82031-.57715,2.60839,2.60839,0,0,1-.51758-.90625,3.66632,3.66632,0,0,1-.18164-1.19043,5.26655,5.26655,0,0,1,.11524-1.08789,5.13642,5.13642,0,0,1,.33594-1.0332,4.65916,4.65916,0,0,1,.53906-.90918,3.63151,3.63151,0,0,1,.72851-.72461,3.40225,3.40225,0,0,1,.90235-.47949,3.13861,3.13861,0,0,1,1.06054-.17578,2.5501,2.5501,0,0,1,.93165.15429,1.973,1.973,0,0,1,.64355.39258,1.55162,1.55162,0,0,1,.374.52442A1.38921,1.38921,0,0,1,144.9375,75.02734Zm-2.14258-.7207a1.82179,1.82179,0,0,0-.81152.18164,2.156,2.156,0,0,0-.65723.501,3.03026,3.03026,0,0,0-.49023.749,4.47044,4.47044,0,0,0-.31543.92774,13.65657,13.65657,0,0,0,1.72949-.30469,4.28532,4.28532,0,0,0,1-.3711,1.08138,1.08138,0,0,0,.46289-.43066,1.102,1.102,0,0,0,.11133-.4834.68976.68976,0,0,0-.05567-.26172.6978.6978,0,0,0-.17871-.249.97814.97814,0,0,0-.31836-.18555A1.36568,1.36568,0,0,0,142.79492,74.30664Z" style="fill:blue"/><path d="M151.3916,75.02734a1.92923,1.92923,0,0,1-.18848.85059,1.77934,1.77934,0,0,1-.69335.70019,5.17657,5.17657,0,0,1-1.38672.543,15.30353,15.30353,0,0,1-2.26758.37012c-.00391.05176-.00684.10156-.00684.15137V77.793a2.18976,2.18976,0,0,0,.40918,1.43066,1.51544,1.51544,0,0,0,1.23633.49414,2.313,2.313,0,0,0,.59766-.07031,2.54191,2.54191,0,0,0,.46875-.1709,2.11309,2.11309,0,0,0,.36523-.22461c.10449-.081.20117-.15625.29-.22363s.16992-.125.24512-.17187a.41472.41472,0,0,1,.22363-.07032.308.308,0,0,1,.23145.11914l.30761.38575a6.37491,6.37491,0,0,1-.69629.63281,4.05239,4.05239,0,0,1-.69726.4375,3.09978,3.09978,0,0,1-.74512.25586,4.12015,4.12015,0,0,1-.83691.08008,2.78972,2.78972,0,0,1-1.0918-.20313,2.24142,2.24142,0,0,1-.81836-.57715,2.5779,2.5779,0,0,1-.51758-.90625,3.63961,3.63961,0,0,1-.18261-1.19043,5.20018,5.20018,0,0,1,.11523-1.08789,5.07583,5.07583,0,0,1,.33594-1.0332,4.70833,4.70833,0,0,1,.53906-.90918,3.6267,3.6267,0,0,1,.72754-.72461,3.399,3.399,0,0,1,.9043-.47949,3.13048,3.13048,0,0,1,1.06054-.17578,2.53915,2.53915,0,0,1,.92969.15429,1.96769,1.96769,0,0,1,.64453.39258,1.56846,1.56846,0,0,1,.375.52442A1.40426,1.40426,0,0,1,151.3916,75.02734Zm-2.1416-.7207a1.823,1.823,0,0,0-.8125.18164,2.17158,2.17158,0,0,0-.6582.501,3.05793,3.05793,0,0,0-.49024.749,4.4695,4.4695,0,0,0-.31445.92774,13.60408,13.60408,0,0,0,1.72851-.30469,4.32319,4.32319,0,0,0,1.002-.3711.97133.97133,0,0,0,.57422-.91406.70646.70646,0,0,0-.23535-.51074.968.968,0,0,0-.31836-.18555A1.36754,1.36754,0,0,0,149.25,74.30664Z" style="fill:blue"/><path d="M152.20312,73.50879h1.00879a.31617.31617,0,0,1,.22364.07715.32189.32189,0,0,1,.10547.18164l1.05664,4.56445a4.27942,4.27942,0,0,1,.08007.51758c.01661.17285.0293.34277.03907.51074.05078-.168.10547-.33691.16113-.50683a4.37693,4.37693,0,0,1,.21-.52149l2.19727-4.56445a.53849.53849,0,0,1,.15429-.18555.35419.35419,0,0,1,.2168-.07324h.97363l-3.55566,7.09082h-1.043Z" style="fill:blue"/><path d="M164.32812,75.02734a1.9164,1.9164,0,0,1-.18945.85059,1.77272,1.77272,0,0,1-.69336.70019,5.16821,5.16821,0,0,1-1.38574.543,15.2974,15.2974,0,0,1-2.26855.37012c-.00391.05176-.00586.10156-.00586.15137V77.793a2.18976,2.18976,0,0,0,.40918,1.43066,1.512,1.512,0,0,0,1.23535.49414,2.31534,2.31534,0,0,0,.59863-.07031,2.59534,2.59534,0,0,0,.46875-.1709,2.1407,2.1407,0,0,0,.36426-.22461c.10547-.081.20117-.15625.291-.22363.08789-.06738.16993-.125.24414-.17187a.41783.41783,0,0,1,.22461-.07032.30616.30616,0,0,1,.23047.11914l.3086.38575a6.47174,6.47174,0,0,1-.69727.63281,4.04528,4.04528,0,0,1-.69629.4375,3.09963,3.09963,0,0,1-.74512.25586,4.127,4.127,0,0,1-.83691.08008,2.78633,2.78633,0,0,1-1.0918-.20313,2.25336,2.25336,0,0,1-.81933-.57715,2.59274,2.59274,0,0,1-.51758-.90625,3.66632,3.66632,0,0,1-.18164-1.19043,5.20018,5.20018,0,0,1,.11523-1.08789,5.01606,5.01606,0,0,1,.33594-1.0332,4.61151,4.61151,0,0,1,.53906-.90918,3.627,3.627,0,0,1,.72754-.72461,3.39319,3.39319,0,0,1,.90332-.47949,3.13054,3.13054,0,0,1,1.06055-.17578,2.541,2.541,0,0,1,.93066.15429,1.973,1.973,0,0,1,.64356.39258,1.56846,1.56846,0,0,1,.375.52442A1.38919,1.38919,0,0,1,164.32812,75.02734Zm-2.14257-.7207a1.826,1.826,0,0,0-.8125.18164,2.16772,2.16772,0,0,0-.65723.501,3.0579,3.0579,0,0,0-.49023.749,4.46985,4.46985,0,0,0-.31543.92774,13.65657,13.65657,0,0,0,1.72949-.30469,4.29533,4.29533,0,0,0,1.001-.3711.967.967,0,0,0,.57422-.91406.71021.71021,0,0,0-.23437-.51074.97814.97814,0,0,0-.31836-.18555A1.36951,1.36951,0,0,0,162.18555,74.30664Z" style="fill:blue"/></g></svg>