<svg id="nitrate_5_-_3C" data-name="nitrate 5 - 3C" xmlns="http://www.w3.org/2000/svg" viewBox="0 0 226 200"><rect id="back" width="226" height="200" style="fill:none"/><g id="test_tube" data-name="test tube"><rect id="water" x="106.5" y="64.5" width="13" height="45.5" style="fill:#e5bd94"/><path id="test_tube-2" data-name="test tube" d="M119,19.5v90H107v-90h12m1-1H106v92h14v-92Z" style="fill:#333"/><rect id="water_fill_line" data-name="water fill line" x="109" y="64" width="8" height="1" style="fill:#333"/><g id="cap"><rect id="cap_fill" data-name="cap fill" x="104.5" y="7.5" width="17" height="19" style="fill:#fff;fill-opacity:0.9"/><path id="cap_outline" data-name="cap outline" d="M120,7H104V27h18V7Zm1,19H105V8h1V18h1V8h1V18h1V8h2V18h1V8h2V18h1V8h2V18h1V8h1V18h1V8h1Z" style="fill:#333;fill-rule:evenodd"/></g></g><g style="isolation:isolate"><path d="M134.75293,45.98535a3.954,3.954,0,0,0,.81934-.07715,3.7437,3.7437,0,0,0,.62988-.18945,2.35447,2.35447,0,0,0,.46582-.248q.19189-.13623.33594-.249c.0957-.07422.17578-.1377.24121-.18848a.29646.29646,0,0,1,.1748-.07715.20564.20564,0,0,1,.10547.02442.27758.27758,0,0,1,.07031.05957l.4541.56738a4.51731,4.51731,0,0,1-3.51367,1.50488,3.87441,3.87441,0,0,1-1.61035-.32226,3.40823,3.40823,0,0,1-1.207-.89942,4.01955,4.01955,0,0,1-.75586-1.376,5.56869,5.56869,0,0,1-.26269-1.75684,6.80957,6.80957,0,0,1,.40527-2.39355,5.72547,5.72547,0,0,1,1.11719-1.86621,4.97707,4.97707,0,0,1,3.73437-1.64063,4.72671,4.72671,0,0,1,.96582.09082,3.34727,3.34727,0,0,1,.791.26563,3.16427,3.16427,0,0,1,.64746.41992,4.55189,4.55189,0,0,1,.543.5459l-.44825.5459a.54251.54251,0,0,1-.126.11621.31775.31775,0,0,1-.17578.04492.39139.39139,0,0,1-.26563-.13965,2.68939,2.68939,0,0,0-.38086-.30469,2.70284,2.70284,0,0,0-1.61328-.44433,3.58934,3.58934,0,0,0-1.51953.32519,3.54213,3.54213,0,0,0-1.22461.93164,4.489,4.489,0,0,0-.81641,1.46582,5.92566,5.92566,0,0,0-.29687,1.93262,4.4252,4.4252,0,0,0,.20312,1.39258,3.11381,3.11381,0,0,0,.56348,1.04687,2.46275,2.46275,0,0,0,.85742.66114A2.55366,2.55366,0,0,0,134.75293,45.98535Z" style="fill:blue"/><path d="M139.19141,47l1.24511-10.31055h1.2461l-.58106,4.78711a4.20142,4.20142,0,0,1,1.22852-1.249,2.57432,2.57432,0,0,1,1.38281-.42383,1.50576,1.50576,0,0,1,1.23828.53223,2.3915,2.3915,0,0,1,.43457,1.54687c0,.09375-.00293.19043-.00683.291-.00489.09961-.01368.2041-.02832.31152L144.81836,47h-1.24609l.53222-4.51465c.00879-.09375.01758-.18359.02442-.26953.00781-.08691.01074-.16894.01074-.249a1.399,1.399,0,0,0-.21387-.85352A.79583.79583,0,0,0,143.25,40.833a1.406,1.406,0,0,0-.64648.17187,2.63039,2.63039,0,0,0-.64844.48633,4.16086,4.16086,0,0,0-.58789.75977,5.67649,5.67649,0,0,0-.47559.99023L140.43652,47Z" style="fill:blue"/><path d="M149.082,47.09766a2.7664,2.7664,0,0,1-1.06445-.19922,2.33256,2.33256,0,0,1-.833-.57715,2.67334,2.67334,0,0,1-.5459-.92383,3.67144,3.67144,0,0,1-.19629-1.24609,5.02373,5.02373,0,0,1,.28028-1.6875,4.55874,4.55874,0,0,1,.7666-1.38575,3.64894,3.64894,0,0,1,1.14746-.93847,3.06619,3.06619,0,0,1,1.43164-.34277,2.7664,2.7664,0,0,1,1.06445.19921,2.34733,2.34733,0,0,1,.833.57813,2.65548,2.65548,0,0,1,.5459.92773,3.67665,3.67665,0,0,1,.19531,1.24219,4.99836,4.99836,0,0,1-.2793,1.67969,4.60068,4.60068,0,0,1-.7666,1.38574,3.65654,3.65654,0,0,1-1.15136.94238A3.05242,3.05242,0,0,1,149.082,47.09766Zm.11133-.97266a1.646,1.646,0,0,0,.93164-.28027,2.44707,2.44707,0,0,0,.71289-.74512,3.809,3.809,0,0,0,.45508-1.07422,4.96523,4.96523,0,0,0,.16211-1.27441,2.38861,2.38861,0,0,0-.38477-1.47657,1.32466,1.32466,0,0,0-1.11328-.49707,1.65425,1.65425,0,0,0-.93555.27637,2.44,2.44,0,0,0-.71.74219,3.813,3.813,0,0,0-.45507,1.07422,4.96256,4.96256,0,0,0-.16114,1.27343,2.41053,2.41053,0,0,0,.38184,1.48047A1.31675,1.31675,0,0,0,149.19336,46.125Z" style="fill:blue"/><path d="M156.11719,47.09766a2.76645,2.76645,0,0,1-1.06446-.19922,2.33252,2.33252,0,0,1-.833-.57715,2.67334,2.67334,0,0,1-.5459-.92383,3.67144,3.67144,0,0,1-.19629-1.24609,5.024,5.024,0,0,1,.28027-1.6875,4.55917,4.55917,0,0,1,.7666-1.38575,3.649,3.649,0,0,1,1.14747-.93847,3.06617,3.06617,0,0,1,1.43164-.34277,2.76643,2.76643,0,0,1,1.06445.19921,2.34742,2.34742,0,0,1,.833.57813,2.65548,2.65548,0,0,1,.5459.92773,3.6769,3.6769,0,0,1,.19531,1.24219,4.99861,4.99861,0,0,1-.2793,1.67969,4.60068,4.60068,0,0,1-.7666,1.38574,3.65647,3.65647,0,0,1-1.15137.94238A3.05238,3.05238,0,0,1,156.11719,47.09766Zm.11133-.97266a1.646,1.646,0,0,0,.93164-.28027,2.44731,2.44731,0,0,0,.71289-.74512,3.80928,3.80928,0,0,0,.45507-1.07422,4.9648,4.9648,0,0,0,.16211-1.27441,2.38861,2.38861,0,0,0-.38476-1.47657,1.32467,1.32467,0,0,0-1.11328-.49707,1.65423,1.65423,0,0,0-.93555.27637,2.44,2.44,0,0,0-.71.74219,3.813,3.813,0,0,0-.45508,1.07422,4.963,4.963,0,0,0-.16113,1.27343,2.41053,2.41053,0,0,0,.38183,1.48047A1.31678,1.31678,0,0,0,156.22852,46.125Z" style="fill:blue"/><path d="M165.18848,41.043a.46262.46262,0,0,1-.11231.12207.23563.23563,0,0,1-.13965.03906.39042.39042,0,0,1-.21386-.07715c-.07618-.05078-.16993-.1084-.2793-.17187a2.35824,2.35824,0,0,0-.40234-.17481,2.01651,2.01651,0,0,0-1.14844.00684,1.42974,1.42974,0,0,0-.44824.24219,1.06607,1.06607,0,0,0-.29.36035.96906.96906,0,0,0-.10157.4375.67.67,0,0,0,.2168.52441,1.98846,1.98846,0,0,0,.5459.33985c.21973.0957.45605.18847.71.27636a3.63049,3.63049,0,0,1,.71094.33594,1.82049,1.82049,0,0,1,.5459.51856A1.40681,1.40681,0,0,1,165,44.64062a2.36346,2.36346,0,0,1-.74609,1.72559,2.72557,2.72557,0,0,1-.86817.543,3.05383,3.05383,0,0,1-1.13769.20312,2.82609,2.82609,0,0,1-1.2002-.24218,2.48352,2.48352,0,0,1-.85058-.61914l.30859-.47559a.42866.42866,0,0,1,.13281-.14062.35958.35958,0,0,1,.19531-.04883.34539.34539,0,0,1,.22461.09765c.07422.06543.168.13965.2793.22071a1.86115,1.86115,0,0,0,.42383.2207,1.82818,1.82818,0,0,0,.64844.09766,1.72644,1.72644,0,0,0,.61914-.1045,1.46719,1.46719,0,0,0,.46875-.28027,1.16762,1.16762,0,0,0,.29394-.40918,1.2517,1.2517,0,0,0,.10156-.501.75256.75256,0,0,0-.21777-.5664,1.77028,1.77028,0,0,0-.54492-.35059q-.3296-.13916-.707-.26269a3.55421,3.55421,0,0,1-.707-.31446,1.71173,1.71173,0,0,1-.54688-.501,1.39293,1.39293,0,0,1-.2168-.81836,2.193,2.193,0,0,1,.17872-.86524,2.23115,2.23115,0,0,1,.51464-.73828,2.55338,2.55338,0,0,1,.81543-.51465,2.88957,2.88957,0,0,1,1.08106-.19238,2.76736,2.76736,0,0,1,1.124.21387,2.61474,2.61474,0,0,1,.83692.57715Z" style="fill:blue"/><path d="M171.74023,41.42773a1.9033,1.9033,0,0,1-.18945.85059,1.7632,1.7632,0,0,1-.69238.7002,5.1687,5.1687,0,0,1-1.38574.543,15.29734,15.29734,0,0,1-2.26856.37012c-.00488.05176-.00683.10156-.00683.15137v.15039a2.18422,2.18422,0,0,0,.41015,1.43066,1.51,1.51,0,0,0,1.23438.49414,2.32856,2.32856,0,0,0,.59961-.07031,2.65161,2.65161,0,0,0,.46875-.1709,2.13,2.13,0,0,0,.36328-.22461c.10547-.08105.20215-.15625.291-.22363.08789-.06738.16993-.125.24414-.17187a.42287.42287,0,0,1,.22461-.07032.30463.30463,0,0,1,.23047.11914l.3086.38575a6.56267,6.56267,0,0,1-.69629.63281,4.04566,4.04566,0,0,1-.69629.4375,3.10689,3.10689,0,0,1-.7461.25586,4.1104,4.1104,0,0,1-.83593.08008,2.7829,2.7829,0,0,1-1.0918-.20313,2.25694,2.25694,0,0,1-.82031-.57715,2.60807,2.60807,0,0,1-.51758-.90625,3.66632,3.66632,0,0,1-.18164-1.19043,5.26654,5.26654,0,0,1,.11523-1.08789,5.13706,5.13706,0,0,1,.33594-1.0332,4.65916,4.65916,0,0,1,.53906-.90918,3.63156,3.63156,0,0,1,.72852-.72461,3.40263,3.40263,0,0,1,.90234-.47949,3.13867,3.13867,0,0,1,1.06055-.17578,2.55008,2.55008,0,0,1,.93164.15429,1.97291,1.97291,0,0,1,.64355.39258,1.55179,1.55179,0,0,1,.374.52442A1.38919,1.38919,0,0,1,171.74023,41.42773Zm-2.14257-.7207a1.82184,1.82184,0,0,0-.81153.18164,2.156,2.156,0,0,0-.65722.501,3.03029,3.03029,0,0,0-.49024.749,4.47122,4.47122,0,0,0-.31543.92774,13.65657,13.65657,0,0,0,1.72949-.30469,4.28515,4.28515,0,0,0,1-.3711,1.08138,1.08138,0,0,0,.46289-.43066,1.102,1.102,0,0,0,.11133-.4834.68974.68974,0,0,0-.05566-.26172.69813.69813,0,0,0-.17871-.249.97814.97814,0,0,0-.31836-.18555A1.36591,1.36591,0,0,0,169.59766,40.707Z" style="fill:blue"/><path d="M175.8418,45.66309c0-.02832.00195-.06446.0039-.1084.002-.04492.00782-.1084.01368-.19239.00781-.084.01757-.19433.03222-.3291.01367-.13574.03418-.3125.06348-.53222l.44043-3.54883h-.791a.21908.21908,0,0,1-.15039-.05274.207.207,0,0,1-.05957-.16406.83809.83809,0,0,1,.00684-.084q.00732-.063.01758-.14356c.00683-.05371.01464-.1084.0205-.165q.01173-.08349.01758-.16113l1.0918-.14648.52539-2.19141a.33736.33736,0,0,1,.10547-.1709.27542.27542,0,0,1,.18945-.0664h.65723l-.30762,2.44238h1.86133l-.10449.90332h-1.86914l-.42676,3.48633c-.02344.1914-.041.34472-.05274.46191-.01172.11621-.02148.21-.02734.2793-.00781.07031-.01172.11914-.01465.14746a.56456.56456,0,0,0-.00293.0625.74233.74233,0,0,0,.16406.5293.59476.59476,0,0,0,.45118.17089.91394.91394,0,0,0,.32226-.05273,1.3344,1.3344,0,0,0,.24219-.11523c.0664-.042.124-.08008.1709-.11524a.21663.21663,0,0,1,.126-.05273.1301.1301,0,0,1,.08789.02832.36293.36293,0,0,1,.06641.09082l.25879.59472a2.50761,2.50761,0,0,1-.77441.47266,2.38774,2.38774,0,0,1-.87793.17187,1.49821,1.49821,0,0,1-1.07129-.37109A1.45956,1.45956,0,0,1,175.8418,45.66309Z" style="fill:blue"/><path d="M180.07812,47l1.24512-10.31055h1.2461l-.58106,4.78711a4.20142,4.20142,0,0,1,1.22852-1.249,2.57432,2.57432,0,0,1,1.38281-.42383,1.50576,1.50576,0,0,1,1.23828.53223,2.3915,2.3915,0,0,1,.43457,1.54687c0,.09375-.00293.19043-.00684.291-.00488.09961-.01367.2041-.02832.31152L185.70508,47H184.459l.53223-4.51465c.00879-.09375.01758-.18359.02441-.26953.00782-.08691.01075-.16894.01075-.249a1.399,1.399,0,0,0-.21387-.85352.79583.79583,0,0,0-.67578-.28027,1.406,1.406,0,0,0-.64649.17187,2.63035,2.63035,0,0,0-.64843.48633,4.16086,4.16086,0,0,0-.58789.75977,5.67649,5.67649,0,0,0-.47559.99023L181.32324,47Z" style="fill:blue"/><path d="M193.11133,41.42773a1.9033,1.9033,0,0,1-.18945.85059,1.76323,1.76323,0,0,1-.69239.7002,5.1687,5.1687,0,0,1-1.38574.543,15.2974,15.2974,0,0,1-2.26855.37012c-.00489.05176-.00684.10156-.00684.15137v.15039a2.18422,2.18422,0,0,0,.41016,1.43066,1.51,1.51,0,0,0,1.23437.49414,2.32851,2.32851,0,0,0,.59961-.07031,2.651,2.651,0,0,0,.46875-.1709,2.13,2.13,0,0,0,.36328-.22461c.10547-.08105.20215-.15625.291-.22363.08789-.06738.16992-.125.24414-.17187a.42285.42285,0,0,1,.22461-.07032.30467.30467,0,0,1,.23047.11914l.30859.38575a6.56071,6.56071,0,0,1-.69629.63281,4.04528,4.04528,0,0,1-.69629.4375,3.107,3.107,0,0,1-.74609.25586,4.11043,4.11043,0,0,1-.83594.08008,2.7829,2.7829,0,0,1-1.0918-.20313,2.257,2.257,0,0,1-.82031-.57715,2.60823,2.60823,0,0,1-.51758-.90625,3.66632,3.66632,0,0,1-.18164-1.19043,5.26586,5.26586,0,0,1,.11524-1.08789,5.1364,5.1364,0,0,1,.33593-1.0332,4.6592,4.6592,0,0,1,.53907-.90918,3.63151,3.63151,0,0,1,.72851-.72461,3.40254,3.40254,0,0,1,.90235-.47949,3.13861,3.13861,0,0,1,1.06054-.17578,2.55,2.55,0,0,1,.93164.15429,1.973,1.973,0,0,1,.64356.39258,1.55162,1.55162,0,0,1,.374.52442A1.38921,1.38921,0,0,1,193.11133,41.42773Zm-2.14258-.7207a1.82179,1.82179,0,0,0-.81152.18164,2.156,2.156,0,0,0-.65723.501,3.03,3.03,0,0,0-.49023.749,4.47,4.47,0,0,0-.31543.92774,13.65657,13.65657,0,0,0,1.72949-.30469,4.28532,4.28532,0,0,0,1-.3711,1.0815,1.0815,0,0,0,.46289-.43066,1.102,1.102,0,0,0,.11133-.4834.68976.68976,0,0,0-.05567-.26172.698.698,0,0,0-.17871-.249.97814.97814,0,0,0-.31836-.18555A1.36591,1.36591,0,0,0,190.96875,40.707Z" style="fill:blue"/><path d="M135.043,63.19043a3.22,3.22,0,0,1-.6543.42383,2.63629,2.63629,0,0,1-.68164.2207,4.34294,4.34294,0,0,1-.75976.0625,2.64824,2.64824,0,0,1-1.08887-.21,2.14552,2.14552,0,0,1-.791-.59082,2.6341,2.6341,0,0,1-.4834-.917A4.01491,4.01491,0,0,1,130.41992,61a5.08777,5.08777,0,0,1,.26953-1.65234,4.642,4.642,0,0,1,.752-1.39942,3.76539,3.76539,0,0,1,1.14843-.97363,3.00394,3.00394,0,0,1,1.46289-.36426,2.51171,2.51171,0,0,1,1.17579.249,2.469,2.469,0,0,1,.834.7246l-.39258.46875a.31778.31778,0,0,1-.10547.09082.27723.27723,0,0,1-.13965.03516.2823.2823,0,0,1-.19238-.08789,2.64421,2.64421,0,0,0-.24512-.19531,1.67793,1.67793,0,0,0-.37792-.19629,1.63792,1.63792,0,0,0-.584-.08789,1.7297,1.7297,0,0,0-.91406.26269,2.5416,2.5416,0,0,0-.752.71778,3.64706,3.64706,0,0,0-.50782,1.07812,4.686,4.686,0,0,0-.18554,1.33692,2.97918,2.97918,0,0,0,.09765.78711,1.68711,1.68711,0,0,0,.29492.60253,1.34686,1.34686,0,0,0,.47852.38477,1.51561,1.51561,0,0,0,.66211.13672,2.15545,2.15545,0,0,0,.55957-.06641,2.2525,2.2525,0,0,0,.43457-.165,2.02158,2.02158,0,0,0,.332-.21289c.0957-.07715.18164-.14843.25977-.21386.07617-.06543.14648-.12012.209-.16407a.3297.3297,0,0,1,.19336-.06738.29859.29859,0,0,1,.2373.11914l.30762.37793A6.39536,6.39536,0,0,1,135.043,63.19043Z" style="fill:blue"/><path d="M139.08594,63.89746a2.77,2.77,0,0,1-1.06446-.19922,2.32878,2.32878,0,0,1-.832-.57715,2.66018,2.66018,0,0,1-.54687-.92382,3.67211,3.67211,0,0,1-.19531-1.2461,5.04827,5.04827,0,0,1,.27929-1.6875,4.5819,4.5819,0,0,1,.76758-1.38574,3.64911,3.64911,0,0,1,1.14746-.93848,3.06348,3.06348,0,0,1,1.43164-.34277,2.76145,2.76145,0,0,1,1.06348.19922,2.35972,2.35972,0,0,1,.834.57812,2.66858,2.66858,0,0,1,.54492.92774,3.67608,3.67608,0,0,1,.19629,1.24219,4.97465,4.97465,0,0,1-.28027,1.67968,4.57776,4.57776,0,0,1-.76562,1.38575,3.6602,3.6602,0,0,1-1.15235.94238A3.04951,3.04951,0,0,1,139.08594,63.89746Zm.1123-.97266a1.64066,1.64066,0,0,0,.93067-.28027,2.44988,2.44988,0,0,0,.71386-.74512,3.83735,3.83735,0,0,0,.45508-1.07421,4.96514,4.96514,0,0,0,.16113-1.27442,2.38856,2.38856,0,0,0-.38476-1.47656,1.32221,1.32221,0,0,0-1.11328-.49707,1.65109,1.65109,0,0,0-.93457.27637,2.42843,2.42843,0,0,0-.71.74218,3.813,3.813,0,0,0-.45508,1.07422,4.96307,4.96307,0,0,0-.16113,1.27344,2.41055,2.41055,0,0,0,.38183,1.48047A1.31557,1.31557,0,0,0,139.19824,62.9248Z" style="fill:blue"/><path d="M143.71289,63.7998l1.25293-10.31054h1.22559L144.9375,63.7998Z" style="fill:blue"/><path d="M149.44531,63.89746a2.76489,2.76489,0,0,1-1.06347-.19922,2.3409,2.3409,0,0,1-.833-.57715,2.65819,2.65819,0,0,1-.5459-.92382,3.67146,3.67146,0,0,1-.19629-1.2461,5.02406,5.02406,0,0,1,.28027-1.6875,4.57982,4.57982,0,0,1,.76661-1.38574,3.64178,3.64178,0,0,1,1.14843-.93848,3.06348,3.06348,0,0,1,1.43164-.34277,2.765,2.765,0,0,1,1.06348.19922,2.356,2.356,0,0,1,.833.57812,2.67052,2.67052,0,0,1,.5459.92774,3.70053,3.70053,0,0,1,.19629,1.24219,4.99872,4.99872,0,0,1-.28028,1.67968,4.57964,4.57964,0,0,1-.7666,1.38575,3.6566,3.6566,0,0,1-1.15137.94238A3.05056,3.05056,0,0,1,149.44531,63.89746Zm.11328-.97266a1.6398,1.6398,0,0,0,.92969-.28027,2.44114,2.44114,0,0,0,.71484-.74512,3.866,3.866,0,0,0,.45508-1.07421,4.965,4.965,0,0,0,.16016-1.27442,2.38212,2.38212,0,0,0-.38477-1.47656,1.31974,1.31974,0,0,0-1.11328-.49707,1.648,1.648,0,0,0-.93359.27637,2.44283,2.44283,0,0,0-.71094.74218,3.84158,3.84158,0,0,0-.45508,1.07422,4.96287,4.96287,0,0,0-.16015,1.27344,2.41733,2.41733,0,0,0,.38086,1.48047A1.31742,1.31742,0,0,0,149.55859,62.9248Z" style="fill:blue"/><path d="M153.95312,63.7998l.8545-7.09765h.623a.47515.47515,0,0,1,.30762.09082.34146.34146,0,0,1,.11231.28027c0,.01856-.001.04492-.00293.08008-.00293.03516-.00586.07129-.00782.1084s-.0039.07031-.00683.09766a.46889.46889,0,0,0-.00293.0498l-.09863,1.28809a4.91145,4.91145,0,0,1,1.01855-1.5127,1.71648,1.71648,0,0,1,1.18652-.53223,1.48209,1.48209,0,0,1,.58789.126l-.22363,1.19727a1.71132,1.71132,0,0,0-.63672-.13282,1.5365,1.5365,0,0,0-1.21094.66114,5.4804,5.4804,0,0,0-.88964,2.00586l-.3916,3.29Z" style="fill:blue"/><path d="M162.18555,62.46289c0-.02832.001-.06445.0039-.1084.002-.04492.00586-.1084.01367-.19238.00684-.084.01758-.19434.03126-.3291.01367-.13574.03515-.3125.0625-.53223l.4414-3.54883h-.791a.21735.21735,0,0,1-.15039-.05273.207.207,0,0,1-.05958-.16406c0-.01465.00293-.042.00684-.084q.00732-.063.01758-.14355c.00683-.05371.01367-.1084.02148-.165q.00879-.0835.01758-.16113l1.0918-.14649.52539-2.19141a.32327.32327,0,0,1,.10449-.17089.27629.27629,0,0,1,.18848-.06641h.6582l-.30859,2.44238h1.86328l-.10547.90332h-1.86914l-.42676,3.48633c-.02344.19141-.041.34473-.05273.46192-.01172.11621-.02051.21-.02832.27929-.00684.07031-.01172.11914-.01368.14746s-.0039.04883-.0039.0625a.738.738,0,0,0,.165.5293.59469.59469,0,0,0,.45117.1709.90631.90631,0,0,0,.32226-.05274,1.32348,1.32348,0,0,0,.24122-.11523c.06836-.042.125-.08008.17187-.11523a.21667.21667,0,0,1,.126-.05274.12576.12576,0,0,1,.08691.02832.34051.34051,0,0,1,.06641.09082l.25976.59473a2.53751,2.53751,0,0,1-.77343.47265,2.39664,2.39664,0,0,1-.87891.17188,1.49251,1.49251,0,0,1-1.07031-.37109A1.452,1.452,0,0,1,162.18555,62.46289Z" style="fill:blue"/><path d="M166.41992,63.7998l1.2461-10.31054h1.24609l-.58106,4.78711a4.19005,4.19005,0,0,1,1.22852-1.249,2.57442,2.57442,0,0,1,1.38281-.42382,1.51031,1.51031,0,0,1,1.23926.53222,2.3973,2.3973,0,0,1,.43359,1.54688c0,.09375-.00195.19043-.00683.291-.00488.09961-.01465.2041-.02832.31153l-.53125,4.51464h-1.2461l.53125-4.51464c.00977-.09375.01758-.1836.0254-.26954.00585-.08691.00976-.16894.00976-.249a1.40618,1.40618,0,0,0-.21289-.85351.797.797,0,0,0-.67578-.28028,1.41349,1.41349,0,0,0-.64844.17188,2.62216,2.62216,0,0,0-.64648.48633,4.03657,4.03657,0,0,0-.58789.75976,5.542,5.542,0,0,0-.47657.99024L167.666,63.7998Z" style="fill:blue"/><path d="M178.999,63.7998h-.64355a.37961.37961,0,0,1-.333-.126.53092.53092,0,0,1-.08691-.30762l.125-1.4209a5.88151,5.88151,0,0,1-.542.80567,3.7803,3.7803,0,0,1-.61621.61523,2.718,2.718,0,0,1-.68164.39258,2.03019,2.03019,0,0,1-.74218.13867,1.74731,1.74731,0,0,1-.76368-.16406,1.57629,1.57629,0,0,1-.584-.4834,2.352,2.352,0,0,1-.375-.78418,3.9195,3.9195,0,0,1-.13281-1.06738,4.78973,4.78973,0,0,1,.1582-1.22852,5.00006,5.00006,0,0,1,.44727-1.12988,4.93462,4.93462,0,0,1,.69726-.97656,4.64242,4.64242,0,0,1,.90625-.77051,4.30375,4.30375,0,0,1,1.07422-.50391,4.02389,4.02389,0,0,1,1.2041-.17871,5.17,5.17,0,0,1,.88574.0752,3.59841,3.59841,0,0,1,.84961.25781Zm-3.05175-.93847a1.22875,1.22875,0,0,0,.67187-.21,2.5744,2.5744,0,0,0,.62305-.582,5.06567,5.06567,0,0,0,.54883-.88575,7.93388,7.93388,0,0,0,.45214-1.126l.30079-2.39844a.48515.48515,0,0,0-.30372-.124h-.29882a2.45763,2.45763,0,0,0-.81153.13574,2.90871,2.90871,0,0,0-.73535.38086,3.30806,3.30806,0,0,0-.62305.583,3.8351,3.8351,0,0,0-.47851.74316,4.25093,4.25093,0,0,0-.3125.8623,3.955,3.955,0,0,0-.11133.93848Q174.86914,62.86182,175.94727,62.86133Z" style="fill:blue"/><path d="M181.46973,62.46289c0-.02832.001-.06445.0039-.1084.002-.04492.00684-.1084.01367-.19238s.01758-.19434.03223-.3291c.01367-.13574.03418-.3125.0625-.53223l.44141-3.54883h-.791a.21737.21737,0,0,1-.15039-.05273.20415.20415,0,0,1-.06055-.16406c0-.01465.00293-.042.00782-.084q.00585-.063.01758-.14355c.00585-.05371.01367-.1084.0205-.165q.01026-.0835.01758-.16113l1.0918-.14649.52539-2.19141a.33579.33579,0,0,1,.10449-.17089.27881.27881,0,0,1,.18945-.06641h.65821l-.3086,2.44238H185.208l-.10449.90332h-1.86914l-.42774,3.48633c-.02344.19141-.041.34473-.05273.46192-.01172.11621-.02051.21-.02735.27929-.00781.07031-.01172.11914-.01367.14746-.00293.02832-.00391.04883-.00391.0625a.74228.74228,0,0,0,.16407.5293.59469.59469,0,0,0,.45117.1709.90631.90631,0,0,0,.32226-.05274,1.3344,1.3344,0,0,0,.24219-.11523c.06738-.042.125-.08008.17188-.11523a.21426.21426,0,0,1,.125-.05274.13017.13017,0,0,1,.08789.02832.34052.34052,0,0,1,.0664.09082l.25977.59473a2.53058,2.53058,0,0,1-.77441.47265,2.3955,2.3955,0,0,1-.87793.17188A1.495,1.495,0,0,1,181.876,63.541,1.45577,1.45577,0,0,1,181.46973,62.46289Z" style="fill:blue"/><path d="M130.49707,80.59961l.85449-7.09766h.62305a.37129.37129,0,0,1,.41992.41993l-.09863,1.2666a4.40018,4.40018,0,0,1,1.14746-1.333,2.205,2.205,0,0,1,1.31641-.45215,1.20726,1.20726,0,0,1,1.06445.49414,2.4556,2.4556,0,0,1,.34277,1.41016,4.15655,4.15655,0,0,1,1.19336-1.43848,2.37541,2.37541,0,0,1,1.38965-.46582,1.37714,1.37714,0,0,1,1.17188.51172,2.38472,2.38472,0,0,1,.38867,1.46973c0,.10742-.00391.21972-.01367.33593s-.02149.23828-.03516.36426l-.53125,4.51465h-1.22559l.53223-4.51465a5.30515,5.30515,0,0,0,.042-.623,1.35953,1.35953,0,0,0-.1748-.77343.66844.66844,0,0,0-.58789-.249,1.34406,1.34406,0,0,0-.60254.15039,2.18685,2.18685,0,0,0-.58106.44141,3.49754,3.49754,0,0,0-.52148.7207,5.84447,5.84447,0,0,0-.42969.99024l-.45508,3.85742h-1.23242l.53906-4.51465q.02052-.189.03516-.35742c.00879-.11231.01367-.2168.01367-.31445a1.3093,1.3093,0,0,0-.16406-.73536.65323.65323,0,0,0-.57813-.23828,1.356,1.356,0,0,0-.64746.168,2.1296,2.1296,0,0,0-.58789.48633,3.96186,3.96186,0,0,0-.51465.77734,7.636,7.636,0,0,0-.43359,1.03223l-.44141,3.69629Z" style="fill:blue"/><path d="M146.68066,80.59961h-.64355a.3796.3796,0,0,1-.333-.126.53087.53087,0,0,1-.08691-.30761l.125-1.4209a5.88226,5.88226,0,0,1-.542.80566,3.78121,3.78121,0,0,1-.61622.61524,2.7183,2.7183,0,0,1-.68164.39257,2.03,2.03,0,0,1-.74218.13868,1.74718,1.74718,0,0,1-.76368-.16407,1.5761,1.5761,0,0,1-.584-.4834,2.352,2.352,0,0,1-.375-.78418,3.91945,3.91945,0,0,1-.13281-1.06738,4.7896,4.7896,0,0,1,.1582-1.22851,5.00032,5.00032,0,0,1,.44727-1.12989,4.93462,4.93462,0,0,1,.69726-.97656,4.64311,4.64311,0,0,1,.90625-.77051,4.30407,4.30407,0,0,1,1.07422-.5039,4.02389,4.02389,0,0,1,1.2041-.17871,5.171,5.171,0,0,1,.88574.07519,3.59888,3.59888,0,0,1,.84961.25781Zm-3.05175-.93848a1.22867,1.22867,0,0,0,.67187-.21,2.5742,2.5742,0,0,0,.62305-.582,5.06593,5.06593,0,0,0,.54883-.88574,7.93331,7.93331,0,0,0,.45214-1.126l.30079-2.39844a.4852.4852,0,0,0-.30371-.124h-.29883a2.45763,2.45763,0,0,0-.81153.13574,2.909,2.909,0,0,0-.73535.38086,3.30839,3.30839,0,0,0-.623.583,3.8354,3.8354,0,0,0-.47851.74316,4.251,4.251,0,0,0-.3125.86231,3.955,3.955,0,0,0-.11133.93848Q142.55078,79.66162,143.62891,79.66113Z" style="fill:blue"/><path d="M149.15137,79.2627c0-.02832.001-.06446.0039-.1084.002-.04492.00684-.1084.01368-.19239s.01757-.19433.03222-.3291c.01367-.13574.03418-.3125.0625-.53222l.44141-3.54883h-.791a.21738.21738,0,0,1-.15039-.05274.20414.20414,0,0,1-.06055-.16406c0-.01465.00293-.042.00782-.084q.00585-.063.01758-.14356c.00586-.05371.01367-.1084.0205-.165q.01026-.08349.01758-.16113l1.0918-.14648.52539-2.19141a.33582.33582,0,0,1,.10449-.1709.27886.27886,0,0,1,.18945-.06641h.65821l-.3086,2.44239h1.86231l-.10449.90332H150.916l-.42774,3.48633c-.02344.1914-.041.34472-.05273.46191-.01172.11621-.02051.21-.02735.2793-.00781.07031-.01172.11914-.01367.14746-.00293.02832-.00391.04883-.00391.0625a.74224.74224,0,0,0,.16407.52929.59469.59469,0,0,0,.45117.1709.90632.90632,0,0,0,.32226-.05273,1.33341,1.33341,0,0,0,.24219-.11524c.06739-.042.125-.08007.17188-.11523a.21423.21423,0,0,1,.125-.05273.13012.13012,0,0,1,.08789.02832.34018.34018,0,0,1,.0664.09082l.25977.59472a2.5308,2.5308,0,0,1-.77441.47266,2.39544,2.39544,0,0,1-.87793.17187,1.495,1.495,0,0,1-1.07129-.37109A1.45579,1.45579,0,0,1,149.15137,79.2627Z" style="fill:blue"/><path d="M157.877,79.99023a3.21955,3.21955,0,0,1-.65429.42383,2.63682,2.63682,0,0,1-.68164.22071,4.343,4.343,0,0,1-.75977.0625,2.64811,2.64811,0,0,1-1.08887-.21,2.14529,2.14529,0,0,1-.791-.59082,2.63368,2.63368,0,0,1-.4834-.917,4.01458,4.01458,0,0,1-.16406-1.17969,5.08755,5.08755,0,0,1,.26953-1.65234,4.64166,4.64166,0,0,1,.75195-1.39941,3.76571,3.76571,0,0,1,1.14844-.97364,3.004,3.004,0,0,1,1.46289-.36425,2.51167,2.51167,0,0,1,1.17578.249,2.46913,2.46913,0,0,1,.834.72461l-.39257.46875a.318.318,0,0,1-.10547.09082.27726.27726,0,0,1-.13965.03516.28225.28225,0,0,1-.19238-.0879,2.64756,2.64756,0,0,0-.24512-.19531,1.67906,1.67906,0,0,0-.37793-.19629,1.63808,1.63808,0,0,0-.584-.08789,1.72966,1.72966,0,0,0-.91407.2627,2.54143,2.54143,0,0,0-.75195.71777,3.64711,3.64711,0,0,0-.50781,1.07813A4.68557,4.68557,0,0,0,154.5,77.80664a2.9787,2.9787,0,0,0,.09766.78711,1.68716,1.68716,0,0,0,.29492.60254,1.3468,1.3468,0,0,0,.47851.38476,1.5155,1.5155,0,0,0,.66211.13672,2.15585,2.15585,0,0,0,.55957-.0664,2.2525,2.2525,0,0,0,.43457-.165,2.02211,2.02211,0,0,0,.332-.21289c.0957-.07715.18164-.14844.25976-.21387.07617-.06543.14648-.12012.209-.16406a.32974.32974,0,0,1,.19336-.06739.29859.29859,0,0,1,.23731.11915l.30762.37793A6.39332,6.39332,0,0,1,157.877,79.99023Z" style="fill:blue"/><path d="M159.44922,80.59961l1.24512-10.31055h1.24609l-.58105,4.78711a4.20151,4.20151,0,0,1,1.22851-1.249,2.57435,2.57435,0,0,1,1.38281-.42383,1.50573,1.50573,0,0,1,1.23828.53223,2.3915,2.3915,0,0,1,.43457,1.54687c0,.09375-.00293.19043-.00683.291-.00488.09961-.01367.2041-.02832.31152l-.53223,4.51465h-1.24609l.53222-4.51465c.00879-.09375.01758-.18359.02442-.26953.00781-.08691.01074-.169.01074-.249a1.399,1.399,0,0,0-.21387-.85352.7958.7958,0,0,0-.67578-.28027,1.406,1.406,0,0,0-.64648.17187,2.63039,2.63039,0,0,0-.64844.48633,4.16174,4.16174,0,0,0-.58789.75977,5.67686,5.67686,0,0,0-.47559.99023l-.45507,3.75879Z" style="fill:blue"/><path d="M172.48242,75.02734a1.91593,1.91593,0,0,1-.18847.85059,1.76968,1.76968,0,0,1-.69239.70019,5.17657,5.17657,0,0,1-1.38672.543,15.3036,15.3036,0,0,1-2.26757.37012c-.00489.05176-.00782.10156-.00782.15137V77.793a2.18422,2.18422,0,0,0,.41016,1.43066,1.51336,1.51336,0,0,0,1.23535.49414,2.326,2.326,0,0,0,.59863-.07031,2.59506,2.59506,0,0,0,.46875-.1709,2.10279,2.10279,0,0,0,.36426-.22461c.10449-.081.20215-.15625.29-.22363.08887-.06738.16992-.125.24512-.17187a.41972.41972,0,0,1,.22363-.07032.30648.30648,0,0,1,.23145.11914l.30761.38575a6.46216,6.46216,0,0,1-.69531.63281,4.05239,4.05239,0,0,1-.69726.4375,3.107,3.107,0,0,1-.7461.25586,4.10355,4.10355,0,0,1-.83594.08008,2.78624,2.78624,0,0,1-1.09179-.20313,2.24508,2.24508,0,0,1-.81934-.57715,2.59305,2.59305,0,0,1-.51758-.90625,3.63961,3.63961,0,0,1-.18261-1.19043,5.26654,5.26654,0,0,1,.11523-1.08789,5.19914,5.19914,0,0,1,.33594-1.0332,4.758,4.758,0,0,1,.53906-.90918,3.6313,3.6313,0,0,1,.72852-.72461,3.40789,3.40789,0,0,1,.90332-.47949,3.13861,3.13861,0,0,1,1.06054-.17578,2.54829,2.54829,0,0,1,.93067.15429,1.96769,1.96769,0,0,1,.64453.39258,1.55162,1.55162,0,0,1,.374.52442A1.40426,1.40426,0,0,1,172.48242,75.02734Zm-2.1416-.7207a1.81882,1.81882,0,0,0-.81152.18164,2.1599,2.1599,0,0,0-.65821.501,3.03026,3.03026,0,0,0-.49023.749,4.46833,4.46833,0,0,0-.31445.92774,13.60408,13.60408,0,0,0,1.72851-.30469,4.31284,4.31284,0,0,0,1.001-.3711,1.07816,1.07816,0,0,0,.46191-.43066,1.10309,1.10309,0,0,0,.11231-.4834.68976.68976,0,0,0-.05567-.26172.70094.70094,0,0,0-.17968-.249.968.968,0,0,0-.31836-.18555A1.36374,1.36374,0,0,0,170.34082,74.30664Z" style="fill:blue"/><path d="M177.83008,74.64258a.44536.44536,0,0,1-.11133.12207.23671.23671,0,0,1-.14063.03906.38772.38772,0,0,1-.21289-.07715c-.07714-.05078-.16992-.1084-.28027-.17187a2.32442,2.32442,0,0,0-.40234-.17481,2.01284,2.01284,0,0,0-1.14746.00684,1.435,1.435,0,0,0-.44922.24219,1.078,1.078,0,0,0-.29.36035.982.982,0,0,0-.10156.4375.66748.66748,0,0,0,.21777.52441,1.99721,1.99721,0,0,0,.54492.33985c.21973.0957.457.18847.71094.27636a3.68365,3.68365,0,0,1,.71094.33594,1.81705,1.81705,0,0,1,.54492.51856,1.40674,1.40674,0,0,1,.21777.81835,2.35748,2.35748,0,0,1-.74512,1.72559,2.73016,2.73016,0,0,1-.86914.543,3.04522,3.04522,0,0,1-1.13672.20312,2.82751,2.82751,0,0,1-1.20117-.24218,2.47942,2.47942,0,0,1-.84961-.61914l.30762-.47559a.43123.43123,0,0,1,.13379-.14062.35727.35727,0,0,1,.19531-.04883.34942.34942,0,0,1,.22461.09765c.07422.06543.168.13965.2793.22071a1.72252,1.72252,0,0,0,1.07129.31836,1.72644,1.72644,0,0,0,.61914-.1045,1.46129,1.46129,0,0,0,.46972-.28027,1.17733,1.17733,0,0,0,.293-.40918,1.23537,1.23537,0,0,0,.10157-.501.752.752,0,0,0-.2168-.5664,1.76373,1.76373,0,0,0-.5459-.35059q-.3296-.13916-.707-.26269a3.57918,3.57918,0,0,1-.707-.31446,1.7084,1.7084,0,0,1-.5459-.501,1.39293,1.39293,0,0,1-.2168-.81836,2.19194,2.19194,0,0,1,.17774-.86524,2.2339,2.2339,0,0,1,.51562-.73828,2.53779,2.53779,0,0,1,.81446-.51465,2.8947,2.8947,0,0,1,1.082-.19238,2.76579,2.76579,0,0,1,1.123.21387,2.604,2.604,0,0,1,.83692.57715Z" style="fill:blue"/></g></svg>