<svg id="nitrate_-_1B" data-name="nitrate - 1B" xmlns="http://www.w3.org/2000/svg" viewBox="0 0 226 200"><rect id="back" width="226" height="200" style="fill:none"/><g id="test_tube" data-name="test tube"><rect id="water_25_" data-name="water 25%" x="106.5" y="103.5" width="13" height="45.5" style="fill:#d1eef3;fill-opacity:0.25"/><path id="test_tube-2" data-name="test tube" d="M119,58.5v90H107v-90h12m1-1H106v92h14v-92Z" style="fill:#333"/><rect id="water_fill_line" data-name="water fill line" x="109" y="103" width="8" height="1" style="fill:#333"/></g><path id="Line-2" d="M138.20627,93.75816l.80267.59641-.2982.40135a23.53125,23.53125,0,0,1-8.13841,6.75226l-.05944.02812,1.00109,3.978-9.826-2.168,7.63-6.55994.946,3.75587a22.66689,22.66689,0,0,0,7.35874-6.00867l.28528-.37405Z" style="fill:blue"/><g style="isolation:isolate"><path d="M148.26074,96.2251a.6765.6765,0,0,1-.21289.417.816.816,0,0,1-.56347.16406h-3.18555l-.80469,2.69531a6.743,6.743,0,0,1,1.4209-.168,3.76194,3.76194,0,0,1,1.28418.19921,2.5813,2.5813,0,0,1,.917.54981,2.21522,2.21522,0,0,1,.54981.8291,2.93675,2.93675,0,0,1,.18164,1.04736,3.83231,3.83231,0,0,1-.3252,1.59961,3.70405,3.70405,0,0,1-.87793,1.22071,3.96872,3.96872,0,0,1-1.292.78125,4.42222,4.42222,0,0,1-1.55762.27636,3.99525,3.99525,0,0,1-.833-.084,3.9333,3.9333,0,0,1-.72461-.22754,3.51687,3.51687,0,0,1-1.08789-.73144l.42676-.51856a.44484.44484,0,0,1,.34278-.168.55832.55832,0,0,1,.29785.1084c.10937.07227.24218.15234.39843.23828a3.31883,3.31883,0,0,0,.56739.23828,2.60556,2.60556,0,0,0,.80176.1084,2.82865,2.82865,0,0,0,1.06738-.19629,2.41294,2.41294,0,0,0,1.3789-1.39648,3.00132,3.00132,0,0,0,.19239-1.09571,1.99767,1.99767,0,0,0-.126-.7246,1.48972,1.48972,0,0,0-.37793-.56006,1.69731,1.69731,0,0,0-.63672-.36035,2.93942,2.93942,0,0,0-.91015-.126,5.119,5.119,0,0,0-.75293.05957,7.91411,7.91411,0,0,0-.87793.18555l-.72168-.21778,1.3789-4.67578h4.73242Z" style="fill:blue"/><path d="M149.59766,101.02051h3.19922l-.13282,1.02246h-3.19238Z" style="fill:blue"/><path d="M153.77734,105.72461l.85352-7.09815h.623a.37091.37091,0,0,1,.41992.41993l-.09766,1.2666a4.37364,4.37364,0,0,1,1.14746-1.333,2.205,2.205,0,0,1,1.31641-.45215,1.20838,1.20838,0,0,1,1.06445.49414,2.45552,2.45552,0,0,1,.34278,1.41016,4.146,4.146,0,0,1,1.19335-1.43848,2.37548,2.37548,0,0,1,1.38965-.46582,1.37835,1.37835,0,0,1,1.17188.51172,2.38472,2.38472,0,0,1,.38867,1.46973c0,.10742-.00488.21972-.01367.33593-.00977.11622-.02149.23877-.03516.36475l-.53222,4.51465h-1.22461l.53222-4.51465a5.31777,5.31777,0,0,0,.042-.62353,1.35087,1.35087,0,0,0-.17579-.77344.66728.66728,0,0,0-.58789-.249,1.34332,1.34332,0,0,0-.60156.1504,2.15613,2.15613,0,0,0-.581.4414,3.49746,3.49746,0,0,0-.52149.7207,5.8672,5.8672,0,0,0-.43066.99073l-.45508,3.85742h-1.23145l.53907-4.51465c.01367-.126.02539-.2456.03418-.35791.00976-.1123.01464-.2168.01464-.31445a1.30848,1.30848,0,0,0-.165-.73535.65018.65018,0,0,0-.57715-.23829,1.35326,1.35326,0,0,0-.64746.168,2.11542,2.11542,0,0,0-.58789.48633,3.9612,3.9612,0,0,0-.51465.77735,7.54372,7.54372,0,0,0-.43457,1.03271l-.44043,3.69629Z" style="fill:blue"/><path d="M166.37012,104.61816h3.96875l-.13282,1.10645h-5.27832L166.167,95.69287h1.3086Z" style="fill:blue"/><path d="M174.19531,105.72461l1.25293-10.311h1.22559l-1.25391,10.311Z" style="fill:blue"/><path d="M179.64844,98.6333l-.85352,7.09131h-1.22558l.85449-7.09131Zm.46875-2.22656a.7928.7928,0,0,1-.07324.33984.9681.9681,0,0,1-.19629.28028.94505.94505,0,0,1-.27637.19238.76539.76539,0,0,1-.32129.07031.75239.75239,0,0,1-.31543-.07031.86676.86676,0,0,1-.26953-.19238.99371.99371,0,0,1-.18555-.28028.82072.82072,0,0,1-.07031-.33984.84781.84781,0,0,1,.07031-.34278.95292.95292,0,0,1,.46192-.47949.72714.72714,0,0,1,.31543-.07324.76534.76534,0,0,1,.32128.07031.92539.92539,0,0,1,.27735.19239.89876.89876,0,0,1,.19238.28711A.88474.88474,0,0,1,180.11719,96.40674Z" style="fill:blue"/><path d="M180.81055,105.72461l.84668-7.09815h.623a.37091.37091,0,0,1,.41993.41993l-.1045,1.37207a4.39009,4.39009,0,0,1,1.27735-1.41407,2.61244,2.61244,0,0,1,1.47363-.47656,1.50418,1.50418,0,0,1,1.22852.53223,2.39923,2.39923,0,0,1,.4375,1.55371c0,.09375-.00293.18945-.00782.28711-.0039.09863-.01367.20166-.02734.30908l-.53223,4.51465h-1.24609l.53223-4.51465c.00878-.09375.01757-.18359.02441-.27.00684-.08691.01074-.16894.01074-.249a1.38535,1.38535,0,0,0-.21387-.85059.79411.79411,0,0,0-.66894-.27637,1.44873,1.44873,0,0,0-.68164.18262,2.65011,2.65011,0,0,0-.66895.51367,4.1831,4.1831,0,0,0-.59863.80616,5.65757,5.65757,0,0,0-.47266,1.05273l-.40527,3.60547Z" style="fill:blue"/><path d="M193.84375,100.15186a1.91941,1.91941,0,0,1-.18848.85107,1.77272,1.77272,0,0,1-.69336.70019,5.16821,5.16821,0,0,1-1.38574.543,15.2974,15.2974,0,0,1-2.26855.37012c-.00391.05176-.00684.10156-.00684.15137v.15039a2.18422,2.18422,0,0,0,.41016,1.43066,1.512,1.512,0,0,0,1.23535.49414,2.326,2.326,0,0,0,.59863-.07031,2.59506,2.59506,0,0,0,.46875-.1709,2.1407,2.1407,0,0,0,.36426-.22461c.10449-.081.20117-.15625.29-.22363s.16992-.125.24512-.17187a.41718.41718,0,0,1,.22363-.07032.308.308,0,0,1,.23144.11914l.30762.38575a6.37583,6.37583,0,0,1-.69629.63281,4.04528,4.04528,0,0,1-.69629.4375,3.10682,3.10682,0,0,1-.74609.25586,4.11043,4.11043,0,0,1-.83594.08008,2.78282,2.78282,0,0,1-1.09179-.20313,2.24508,2.24508,0,0,1-.81934-.57715,2.5929,2.5929,0,0,1-.51758-.90625,3.6396,3.6396,0,0,1-.18262-1.19043,5.26655,5.26655,0,0,1,.11524-1.08789,5.15106,5.15106,0,0,1,.33594-1.03369,4.70782,4.70782,0,0,1,.53906-.90918,3.63177,3.63177,0,0,1,.72851-.72461,3.39347,3.39347,0,0,1,.90332-.47949,3.13054,3.13054,0,0,1,1.06055-.17578,2.54841,2.54841,0,0,1,.93066.15429,1.973,1.973,0,0,1,.64356.39258,1.56856,1.56856,0,0,1,.375.52442A1.40445,1.40445,0,0,1,193.84375,100.15186Zm-2.1416-.72071a1.826,1.826,0,0,0-.8125.18164,2.156,2.156,0,0,0-.65723.501,3.03026,3.03026,0,0,0-.49023.749,4.48473,4.48473,0,0,0-.31543.92823,13.65657,13.65657,0,0,0,1.72949-.30469,4.313,4.313,0,0,0,1.001-.3711,1.08753,1.08753,0,0,0,.46191-.43115,1.10306,1.10306,0,0,0,.11231-.4834.70652.70652,0,0,0-.23536-.51074.96786.96786,0,0,0-.31836-.18555A1.36388,1.36388,0,0,0,191.70215,99.43115Z" style="fill:blue"/></g><g style="isolation:isolate"><path d="M148.16309,79.76416h-4.38868l-.4414,3.57031h3.75879l-.14649,1.06348H143.207l-.53223,4.32617h-1.32226l1.23828-10.03125h5.70508Z" style="fill:blue"/><path d="M150.7041,81.6333l-.85351,7.09082H148.625l.85449-7.09082Zm.46875-2.22656a.79266.79266,0,0,1-.07324.33984.9681.9681,0,0,1-.19629.28028.94492.94492,0,0,1-.27637.19238.76539.76539,0,0,1-.32129.07031.75239.75239,0,0,1-.31543-.07031.86688.86688,0,0,1-.26953-.19238.99346.99346,0,0,1-.18554-.28028.82057.82057,0,0,1-.07032-.33984.84765.84765,0,0,1,.07032-.34278.95284.95284,0,0,1,.46191-.47949.72717.72717,0,0,1,.31543-.07324.76539.76539,0,0,1,.32129.07031.92535.92535,0,0,1,.27734.19239.89878.89878,0,0,1,.19239.28711A.88491.88491,0,0,1,151.17285,79.40674Z" style="fill:blue"/><path d="M151.98535,88.72412l1.25293-10.31055h1.22461L153.21,88.72412Z" style="fill:blue"/><path d="M155.30957,88.72412l1.25293-10.31055h1.22559l-1.25391,10.31055Z" style="fill:blue"/><path d="M161.833,87.38721c0-.02832.00195-.06446.0039-.1084.002-.04492.00684-.1084.01368-.19238.00781-.084.01757-.19434.03222-.32911.01367-.13574.03418-.3125.0625-.53222l.44141-3.54883h-.791a.21744.21744,0,0,1-.15039-.05273.207.207,0,0,1-.05957-.16407.84125.84125,0,0,1,.00684-.084q.00732-.063.01758-.14356c.00683-.05371.01367-.10839.0205-.165q.01026-.08349.01758-.16113l1.0918-.14648.52539-2.19141a.331.331,0,0,1,.10547-.1709.27462.27462,0,0,1,.18848-.0664h.6582L163.709,81.773h1.86231l-.10449.90332h-1.86914l-.42676,3.48633c-.02344.1914-.041.34472-.05274.46191-.01171.11621-.02148.21-.02832.2793-.00683.07031-.01172.11914-.01367.14746-.00293.02832-.0039.04883-.0039.0625a.738.738,0,0,0,.165.5293.59476.59476,0,0,0,.45118.17089.91394.91394,0,0,0,.32226-.05273,1.323,1.323,0,0,0,.24121-.11523c.06739-.042.125-.08008.17188-.11524a.21431.21431,0,0,1,.126-.05273.12574.12574,0,0,1,.08692.02832.34035.34035,0,0,1,.0664.09082l.25977.59472a2.53061,2.53061,0,0,1-.77441.47266,2.38776,2.38776,0,0,1-.87793.17188,1.49661,1.49661,0,0,1-1.07129-.3711A1.4596,1.4596,0,0,1,161.833,87.38721Z" style="fill:blue"/><path d="M168.53906,88.82178a2.76489,2.76489,0,0,1-1.06347-.19922,2.33243,2.33243,0,0,1-.833-.57715,2.65823,2.65823,0,0,1-.5459-.92383,3.6714,3.6714,0,0,1-.19629-1.24609,5.024,5.024,0,0,1,.28027-1.6875,4.55881,4.55881,0,0,1,.76661-1.38574,3.64873,3.64873,0,0,1,1.14746-.93848,3.06619,3.06619,0,0,1,1.43164-.34277,2.76643,2.76643,0,0,1,1.06445.19921,2.356,2.356,0,0,1,.833.57813,2.67047,2.67047,0,0,1,.5459.92773,3.70116,3.70116,0,0,1,.19531,1.24219,4.99828,4.99828,0,0,1-.2793,1.67969,4.60068,4.60068,0,0,1-.7666,1.38574,3.65647,3.65647,0,0,1-1.15137.94238A3.05343,3.05343,0,0,1,168.53906,88.82178Zm.11231-.97266a1.64063,1.64063,0,0,0,.93066-.28027,2.43856,2.43856,0,0,0,.71387-.74512,3.83771,3.83771,0,0,0,.45508-1.07422,4.96506,4.96506,0,0,0,.16113-1.27441,2.38212,2.38212,0,0,0-.38477-1.47656,1.32218,1.32218,0,0,0-1.11328-.49708,1.65337,1.65337,0,0,0-.93457.27637,2.44,2.44,0,0,0-.71.74219,3.81327,3.81327,0,0,0-.45508,1.07422,4.963,4.963,0,0,0-.16113,1.27344,2.41045,2.41045,0,0,0,.38184,1.48046A1.31553,1.31553,0,0,0,168.65137,87.84912Z" style="fill:blue"/><path d="M176.36523,87.38721c0-.02832.001-.06446.00391-.1084.002-.04492.00684-.1084.01367-.19238s.01758-.19434.03125-.32911c.01367-.13574.03516-.3125.06348-.53222l.44043-3.54883h-.791a.21913.21913,0,0,1-.15039-.05273.207.207,0,0,1-.05957-.16407c0-.01465.00293-.042.00684-.084q.00732-.063.01758-.14356c.00683-.05371.01464-.10839.02148-.165q.01026-.08349.01758-.16113l1.0918-.14648.52539-2.19141a.32944.32944,0,0,1,.10449-.1709.27713.27713,0,0,1,.18945-.0664h.65723l-.30762,2.44238h1.86231l-.10547.90332h-1.86914l-.42676,3.48633c-.02344.1914-.041.34472-.05274.46191-.01171.11621-.0205.21-.02734.2793-.00781.07031-.01172.11914-.01465.14746-.00195.02832-.00293.04883-.00293.0625a.74233.74233,0,0,0,.16406.5293.59476.59476,0,0,0,.45118.17089.90632.90632,0,0,0,.32226-.05273,1.3344,1.3344,0,0,0,.24219-.11523c.06738-.042.124-.08008.1709-.11524a.21916.21916,0,0,1,.126-.05273.13015.13015,0,0,1,.0879.02832.36338.36338,0,0,1,.0664.09082l.25879.59472a2.51416,2.51416,0,0,1-.77344.47266,2.39655,2.39655,0,0,1-.8789.17188,1.49417,1.49417,0,0,1-1.07032-.3711A1.452,1.452,0,0,1,176.36523,87.38721Z" style="fill:blue"/><path d="M180.60059,88.72412l1.24511-10.31055h1.2461l-.58106,4.78711a4.20142,4.20142,0,0,1,1.22852-1.249,2.57432,2.57432,0,0,1,1.38281-.42383,1.509,1.509,0,0,1,1.23926.53223,2.39728,2.39728,0,0,1,.43359,1.54687c0,.09375-.00195.19043-.00683.291-.00489.09961-.01368.2041-.02832.31152l-.53125,4.51465h-1.2461l.53125-4.51465c.00977-.09375.01758-.18359.02539-.26953.00684-.08691.00977-.16894.00977-.249a1.40623,1.40623,0,0,0-.21289-.85352.79706.79706,0,0,0-.67578-.28027,1.40985,1.40985,0,0,0-.64746.17187,2.62662,2.62662,0,0,0-.64747.48633,4.07728,4.07728,0,0,0-.58789.75977,5.60957,5.60957,0,0,0-.47656.99023l-.45508,3.75879Z" style="fill:blue"/><path d="M193.63379,83.15186a1.91579,1.91579,0,0,1-.18848.85058,1.77281,1.77281,0,0,1-.69336.7002,5.16887,5.16887,0,0,1-1.38574.543,15.29756,15.29756,0,0,1-2.26855.37011c-.00391.05176-.00684.10157-.00684.15137v.15039a2.18422,2.18422,0,0,0,.41016,1.43066,1.512,1.512,0,0,0,1.23535.49415,2.326,2.326,0,0,0,.59863-.07032,2.59506,2.59506,0,0,0,.46875-.1709,2.14007,2.14007,0,0,0,.36426-.22461c.10449-.081.20117-.15625.29-.22363s.16992-.125.24511-.17187a.41724.41724,0,0,1,.22364-.07032.308.308,0,0,1,.23144.11915l.30762.38574a6.37481,6.37481,0,0,1-.69629.63281,4.04528,4.04528,0,0,1-.69629.4375,3.107,3.107,0,0,1-.74609.25586,4.11043,4.11043,0,0,1-.83594.08008,2.7829,2.7829,0,0,1-1.0918-.20313,2.24512,2.24512,0,0,1-.81933-.57715,2.59281,2.59281,0,0,1-.51758-.90625,3.6396,3.6396,0,0,1-.18262-1.19043,5.26655,5.26655,0,0,1,.11524-1.08789,5.137,5.137,0,0,1,.33593-1.0332,4.70837,4.70837,0,0,1,.53907-.90918,3.63177,3.63177,0,0,1,.72851-.72461,3.39347,3.39347,0,0,1,.90332-.47949,3.13054,3.13054,0,0,1,1.06055-.17578,2.54841,2.54841,0,0,1,.93066.15429,1.973,1.973,0,0,1,.64356.39258,1.56856,1.56856,0,0,1,.375.52442A1.40445,1.40445,0,0,1,193.63379,83.15186Zm-2.1416-.72071a1.826,1.826,0,0,0-.8125.18164,2.156,2.156,0,0,0-.65723.501,3.03,3.03,0,0,0-.49023.749,4.47,4.47,0,0,0-.31543.92774,13.65657,13.65657,0,0,0,1.72949-.30469,4.31353,4.31353,0,0,0,1.001-.37109,1.08407,1.08407,0,0,0,.46191-.43067,1.103,1.103,0,0,0,.1123-.4834.70646.70646,0,0,0-.23535-.51074.96786.96786,0,0,0-.31836-.18555A1.36392,1.36392,0,0,0,191.49219,82.43115Z" style="fill:blue"/></g></svg>