<svg id="nitrate_-_2J" data-name="nitrate - 2J" xmlns="http://www.w3.org/2000/svg" viewBox="0 0 226 200"><rect id="back" width="226" height="200" style="fill:none"/><g id="Layer_25_copy_18" data-name="Layer 25 copy 18"><g id="tablet"><circle id="tablet_inner" data-name="tablet inner" cx="110.78955" cy="142.70366" r="3.5" style="fill:#fff"/><path id="tablet_outline" data-name="tablet outline" d="M111.70166,139.84568a3,3,0,1,1-3.77009,1.94586,3.00339,3.00339,0,0,1,3.77009-1.94586m.304-.95266a4,4,0,1,0,2.59449,5.02679,4,4,0,0,0-2.59449-5.02679Z" style="fill:#333"/></g><g id="sleeve_back" data-name="sleeve back"><path d="M80.80957,175.33984,116.98438,61.9917a22.28566,22.28566,0,0,0,7.88671,1.42285c.6084,0,1.23145-.021,1.88184-.06006.93652-.05615,1.78906-.083,2.60547-.083,5.72754,0,9.49805,1.35791,14.40722,5.189a37.191,37.191,0,0,0,8.4834,4.72949l-36.1914,113.3999Z" style="fill:#c4c4c4;fill-rule:evenodd"/><path d="M117.30489,62.63157a22.42409,22.42409,0,0,0,7.56607,1.28295c.60207,0,1.2274-.01988,1.91174-.06079.92649-.05538,1.76907-.08231,2.5759-.08232,5.60093,0,9.29062,1.33018,14.09985,5.0832a37.21236,37.21236,0,0,0,8.17452,4.62111L115.73368,185.96118,81.4379,175.01584l35.867-112.38427m-.63917-1.28631L80.18121,175.66446l36.20109,11.55342,36.48451-114.3192a37.06942,37.06942,0,0,1-8.79314-4.83243c-4.873-3.80278-8.71057-5.29494-14.71562-5.29484-.83354,0-1.70942.02878-2.635.0841-.64007.03827-1.25337.059-1.85207.059a22.28967,22.28967,0,0,1-8.20524-1.56925Z"/></g><g id="test_tube" data-name="test tube"><rect id="water_25_" data-name="water 25%" x="92.48356" y="118.9899" width="45.5" height="13" transform="matrix(0.30404, -0.95266, 0.95266, 0.30404, -39.35099, 197.11466)" style="fill:#d1eef3;fill-opacity:0.25"/><path id="test_tube-2" data-name="test tube" d="M141.54806,62.77141l-27.36338,85.7394-11.43192-3.64845L130.11614,59.123l11.43192,3.64845m1.2567-.64862-13.33724-4.25653L101.49606,145.511l13.33724,4.25652,27.97146-87.64472Z" style="fill:#333"/><rect id="water_fill_line" data-name="water fill line" x="121.65041" y="99.81689" width="1" height="8" transform="translate(-13.89011 188.62046) rotate(-72.29973)" style="fill:#333"/></g><g id="sleeve"><path d="M80.80957,175.33984,116.97363,62.02637c4.00977,1.77392,5.88086,2.88134,8.51367,5.46924a17.37021,17.37021,0,0,0,13.166,5.5249,32.59874,32.59874,0,0,0,3.57324-.21192c.543-.05957,1.05274-.12011,1.53614-.17773a34.36456,34.36456,0,0,1,3.92675-.32471,12.07787,12.07787,0,0,1,4.55957.88428l-36.1914,113.39941Z" style="fill:#efefef;fill-rule:evenodd"/><path d="M117.27968,62.71054a22.88172,22.88172,0,0,1,7.85679,5.14172,17.82977,17.82977,0,0,0,13.517,5.66862,33.02711,33.02711,0,0,0,3.6279-.21519c.54367-.05976,1.05444-.12032,1.53924-.17781a33.50772,33.50772,0,0,1,3.87033-.32178,11.38141,11.38141,0,0,1,3.93637.68745L115.73368,185.96118,81.4379,175.01584l35.84178-112.3053m-.614-1.36528L80.18121,175.66446l36.20109,11.55342,36.48451-114.3192a12.8122,12.8122,0,0,0-5.1764-1.09258,54.31905,54.31905,0,0,0-5.51838.5056,32.24569,32.24569,0,0,1-3.5186.20918,16.83163,16.83163,0,0,1-12.816-5.3818c-2.80246-2.75453-4.77609-3.87251-9.17173-5.79382Z"/></g><path id="shadow" d="M139.13039,73.51113c-.18879.73-23.23583,74.30252-26.49805,74.84623s-11.99866-2.29293-10.6696-.87472,12.66565,5.18448,15.5201,1.78633,28.30105-74.43882,28.91543-76.4257C145.27009,72.93787,140.74616,73.58951,139.13039,73.51113Z" style="fill:#dbd9d9;fill-rule:evenodd"/></g></svg>