<svg id="nitrate_-_2P" data-name="nitrate - 2P" xmlns="http://www.w3.org/2000/svg" viewBox="0 0 226 200"><rect id="back" width="226" height="200" style="fill:none"/><g style="isolation:isolate"><path d="M96.31494,33.73047a.8889.8889,0,0,1,.06641-.34375.84954.84954,0,0,1,.18554-.2793.90424.90424,0,0,1,.27637-.18945.8428.8428,0,0,1,.34668-.07031.82161.82161,0,0,1,.33936.07031.90019.90019,0,0,1,.46582.46875.85691.85691,0,0,1,.06982.34375.84275.84275,0,0,1-.06982.3457.90845.90845,0,0,1-.189.27637.86663.86663,0,0,1-.61621.25293.87451.87451,0,0,1-.34668-.06738.8449.8449,0,0,1-.27637-.18555.85754.85754,0,0,1-.18554-.27637A.87435.87435,0,0,1,96.31494,33.73047Zm3.59815,0a.88907.88907,0,0,1,.0664-.34375.84217.84217,0,0,1,.18555-.2793.89837.89837,0,0,1,.27637-.18945.84116.84116,0,0,1,.34668-.07031.82321.82321,0,0,1,.33935.07031.89837.89837,0,0,1,.27637.18945.88191.88191,0,0,1,.189.2793.84886.84886,0,0,1,.07032.34375.83492.83492,0,0,1-.07032.3457.89119.89119,0,0,1-.189.27637.83981.83981,0,0,1-.27637.18555.854.854,0,0,1-.33935.06738.8728.8728,0,0,1-.34668-.06738.83981.83981,0,0,1-.27637-.18555.84993.84993,0,0,1-.18555-.27637A.87452.87452,0,0,1,99.91309,33.73047Zm3.605,0a.88907.88907,0,0,1,.0664-.34375.8724.8724,0,0,1,.18213-.2793.86949.86949,0,0,1,.9624-.18945.895.895,0,0,1,.46924.46875.85674.85674,0,0,1,.06983.34375.84259.84259,0,0,1-.06983.3457.901.901,0,0,1-.18945.27637.82942.82942,0,0,1-.27979.18555.90679.90679,0,0,1-.686,0,.79223.79223,0,0,1-.27637-.18555.87478.87478,0,0,1-.24853-.62207Z" style="fill:blue"/><path d="M109.377,34.5l.854-7.09766h.623a.3711.3711,0,0,1,.41993.41993l-.09815,1.2666a4.3812,4.3812,0,0,1,1.14795-1.333,2.20252,2.20252,0,0,1,1.31592-.45215,1.20838,1.20838,0,0,1,1.06445.49414,2.45552,2.45552,0,0,1,.34278,1.41016,4.146,4.146,0,0,1,1.19335-1.43848,2.37541,2.37541,0,0,1,1.38965-.46582,1.37835,1.37835,0,0,1,1.17188.51172,2.38472,2.38472,0,0,1,.38867,1.46973c0,.10742-.00488.21972-.01367.33593-.00977.11621-.02149.23829-.03516.36426L118.60938,34.5h-1.22461l.53222-4.51465a5.303,5.303,0,0,0,.042-.623,1.35086,1.35086,0,0,0-.17578-.77343.66728.66728,0,0,0-.58789-.249,1.3433,1.3433,0,0,0-.60156.15039,2.15639,2.15639,0,0,0-.58105.44141,3.49719,3.49719,0,0,0-.52149.7207,5.844,5.844,0,0,0-.43066.99024L114.60547,34.5H113.374l.53907-4.51465q.0205-.189.03466-.35742c.00928-.11231.01416-.2168.01416-.31445a1.30884,1.30884,0,0,0-.16455-.73536.6517.6517,0,0,0-.57763-.23828,1.35457,1.35457,0,0,0-.64746.168,2.12946,2.12946,0,0,0-.58789.48633,3.983,3.983,0,0,0-.51465.77734,7.57353,7.57353,0,0,0-.43409,1.03223L110.59473,34.5Z" style="fill:blue"/><path d="M122.59277,27.40918,121.73828,34.5h-1.22461l.85352-7.09082Zm.46875-2.22656a.79266.79266,0,0,1-.07324.33984,1.00669,1.00669,0,0,1-.19629.28027.95784.95784,0,0,1-.27637.19239.76646.76646,0,0,1-.32226.07031.75571.75571,0,0,1-.31543-.07031.85127.85127,0,0,1-.26855-.19239.973.973,0,0,1-.18555-.28027.82056.82056,0,0,1-.07031-.33984.84764.84764,0,0,1,.07031-.34278.9425.9425,0,0,1,.46191-.47949.723.723,0,0,1,.31446-.07324.7665.7665,0,0,1,.32226.07031.92131.92131,0,0,1,.27637.19238.88322.88322,0,0,1,.19238.28711A.8684.8684,0,0,1,123.06152,25.18262Z" style="fill:blue"/><path d="M125.77734,30.68457l-1.70117-3.27539h1.11328a.38376.38376,0,0,1,.19922.03809.34493.34493,0,0,1,.10938.13671l1.18945,2.43555q.03516-.07617.07324-.14648a1.59727,1.59727,0,0,1,.09473-.14746l1.60351-2.12012a.82877.82877,0,0,1,.13965-.14746.2449.2449,0,0,1,.1543-.04883h1.127l-2.53418,3.2832L129.23535,34.5h-1.1123a.3044.3044,0,0,1-.21778-.07324.63534.63534,0,0,1-.126-.17188l-1.33692-2.835a1.79122,1.79122,0,0,1-.14648.26563l-1.93262,2.57617a.88.88,0,0,1-.15332.168A.31717.31717,0,0,1,124,34.5h-1.09277Z" style="fill:blue"/><path d="M135.13672,28.44531l-.707,5.82324-.32227,1.44922a.603.603,0,0,1-.64453.52539h-.48926l.94434-7.77734-.69922-.09082a.48089.48089,0,0,1-.18945-.09766.232.232,0,0,1-.07032-.18261l.05664-.5459h1.01465l.084-.68555a3.51255,3.51255,0,0,1,.30469-1.082,2.66057,2.66057,0,0,1,.57421-.79785,2.3473,2.3473,0,0,1,.791-.49317,2.66911,2.66911,0,0,1,.95508-.168,2.10438,2.10438,0,0,1,.791.14355l-.11914.64063a.13259.13259,0,0,1-.09472.12207.71238.71238,0,0,1-.20606.02441h-.29394a1.7237,1.7237,0,0,0-.55664.08691,1.16213,1.16213,0,0,0-.45118.28321,1.56925,1.56925,0,0,0-.3291.50976,2.86327,2.86327,0,0,0-.18945.76758l-.084.64844h1.77149l-.11914.89648Z" style="fill:blue"/><path d="M139.77734,34.59766a2.76644,2.76644,0,0,1-1.06445-.19922,2.34116,2.34116,0,0,1-.833-.57715,2.67334,2.67334,0,0,1-.5459-.92383,3.67145,3.67145,0,0,1-.19628-1.24609,5.024,5.024,0,0,1,.28027-1.6875,4.57964,4.57964,0,0,1,.7666-1.38575,3.64165,3.64165,0,0,1,1.14844-.93847,3.06336,3.06336,0,0,1,1.43164-.34277,2.76489,2.76489,0,0,1,1.06347.19921,2.34733,2.34733,0,0,1,.833.57813,2.65548,2.65548,0,0,1,.5459.92773,3.67613,3.67613,0,0,1,.19629,1.24219,4.99907,4.99907,0,0,1-.28027,1.67969,4.58,4.58,0,0,1-.7666,1.38574,3.65647,3.65647,0,0,1-1.15137.94238A3.04956,3.04956,0,0,1,139.77734,34.59766Zm.11231-.97266a1.64515,1.64515,0,0,0,.93066-.28027,2.44991,2.44991,0,0,0,.71387-.74512,3.83754,3.83754,0,0,0,.45508-1.07422,4.96506,4.96506,0,0,0,.16113-1.27441,2.38861,2.38861,0,0,0-.38477-1.47657,1.32218,1.32218,0,0,0-1.11328-.49707,1.64888,1.64888,0,0,0-.93457.27637,2.44261,2.44261,0,0,0-.71093.74219,3.84129,3.84129,0,0,0-.45508,1.07422,4.9628,4.9628,0,0,0-.16016,1.27343,2.41731,2.41731,0,0,0,.38086,1.48047A1.31863,1.31863,0,0,0,139.88965,33.625Z" style="fill:blue"/><path d="M144.28516,34.5l.85351-7.09766h.62305a.47809.47809,0,0,1,.30859.09082.341.341,0,0,1,.11133.28028c0,.01855-.001.04492-.00293.08008-.00293.03515-.00488.07128-.00781.10839-.00195.03711-.00391.07032-.00684.09766l-.00293.04981-.09863,1.28808a4.91139,4.91139,0,0,1,1.01855-1.51269,1.71823,1.71823,0,0,1,1.18653-.53223,1.47837,1.47837,0,0,1,.58789.126l-.22363,1.19726a1.7113,1.7113,0,0,0-.63672-.13281,1.53786,1.53786,0,0,0-1.21094.66113,5.48031,5.48031,0,0,0-.88965,2.00586l-.3916,3.29Z" style="fill:blue"/><path d="M156.4082,24.37109a3.39043,3.39043,0,0,1,1.0752.16407,2.44245,2.44245,0,0,1,.85058.47949,2.19238,2.19238,0,0,1,.55567.7666,2.5016,2.5016,0,0,1,.20019,1.02539,3.229,3.229,0,0,1-.20019,1.16211,4.19814,4.19814,0,0,1-.542.99414,7.00068,7.00068,0,0,1-.80176.91016q-.4585.44091-.97656.91015l-3.01661,2.74414a4.80316,4.80316,0,0,1,.57422-.11914,3.75867,3.75867,0,0,1,.55274-.042h3.42969a.37952.37952,0,0,1,.28027.09766.349.349,0,0,1,.09765.25879,1.83519,1.83519,0,0,1-.01367.18945c-.00976.0791-.01855.15137-.02832.2168l-.04883.37109h-6.66406l.04883-.41309a.86479.86479,0,0,1,.084-.26269.81944.81944,0,0,1,.19629-.25488l3.626-3.24122q.51123-.45556.91016-.86425a6.29126,6.29126,0,0,0,.67578-.8125,3.41253,3.41253,0,0,0,.41992-.82227,2.77583,2.77583,0,0,0,.14355-.90332,1.67639,1.67639,0,0,0-.123-.665,1.28406,1.28406,0,0,0-.33887-.47558,1.48754,1.48754,0,0,0-.51465-.28711,2.05477,2.05477,0,0,0-.64746-.09766,2.16514,2.16514,0,0,0-1.334.40918,2.36611,2.36611,0,0,0-.8086,1.123.57836.57836,0,0,1-.19922.28711.50941.50941,0,0,1-.29785.084c-.02344,0-.04883-.001-.07715-.00293-.02734-.00293-.05566-.00586-.084-.01074l-.6084-.10547a3.941,3.941,0,0,1,.52149-1.21094,3.56488,3.56488,0,0,1,.81542-.88183,3.40287,3.40287,0,0,1,1.04688-.53907A4.04447,4.04447,0,0,1,156.4082,24.37109Z" style="fill:blue"/><path d="M162.72266,34.5l.85351-7.09766h.62305a.37091.37091,0,0,1,.41992.41993l-.09766,1.2666a4.37365,4.37365,0,0,1,1.14747-1.333,2.205,2.205,0,0,1,1.3164-.45215,1.20838,1.20838,0,0,1,1.06445.49414,2.45552,2.45552,0,0,1,.34278,1.41016,4.14591,4.14591,0,0,1,1.19336-1.43848,2.37539,2.37539,0,0,1,1.38965-.46582,1.37833,1.37833,0,0,1,1.17187.51172,2.38465,2.38465,0,0,1,.38867,1.46973c0,.10742-.00488.21972-.01367.33593-.00976.11621-.02148.23829-.03516.36426L171.95508,34.5h-1.22461l.53223-4.51465a5.30515,5.30515,0,0,0,.042-.623,1.35094,1.35094,0,0,0-.17578-.77343.66728.66728,0,0,0-.58789-.249,1.34331,1.34331,0,0,0-.60157.15039,2.15639,2.15639,0,0,0-.58105.44141,3.49793,3.49793,0,0,0-.52149.7207,5.8448,5.8448,0,0,0-.43066.99024L167.95117,34.5h-1.23144l.53906-4.51465c.01367-.126.02539-.24512.03418-.35742.00976-.11231.01465-.2168.01465-.31445a1.30853,1.30853,0,0,0-.165-.73536.6502.6502,0,0,0-.57715-.23828,1.35318,1.35318,0,0,0-.64746.168,2.11542,2.11542,0,0,0-.58789.48633,3.96141,3.96141,0,0,0-.51465.77734,7.51164,7.51164,0,0,0-.43457,1.03223L163.94043,34.5Z" style="fill:blue"/><path d="M175.93848,27.40918,175.085,34.5h-1.22558l.85449-7.09082Zm.46875-2.22656a.79266.79266,0,0,1-.07325.33984.96769.96769,0,0,1-.19628.28027.94489.94489,0,0,1-.27637.19239.76539.76539,0,0,1-.32129.07031.75239.75239,0,0,1-.31543-.07031.86663.86663,0,0,1-.26953-.19239.99352.99352,0,0,1-.18555-.28027.82072.82072,0,0,1-.07031-.33984.84781.84781,0,0,1,.07031-.34278.95281.95281,0,0,1,.46192-.47949.72711.72711,0,0,1,.31543-.07324.76537.76537,0,0,1,.32128.07031.92554.92554,0,0,1,.27735.19238.899.899,0,0,1,.19238.28711A.88482.88482,0,0,1,176.40723,25.18262Z" style="fill:blue"/><path d="M177.10059,34.5l.84668-7.09766h.623a.3709.3709,0,0,1,.41992.41993l-.10449,1.37207a4.39009,4.39009,0,0,1,1.27735-1.41407,2.61244,2.61244,0,0,1,1.47363-.47656,1.50415,1.50415,0,0,1,1.22851.53223,2.39916,2.39916,0,0,1,.4375,1.55371c0,.09375-.00293.18945-.00781.28711-.0039.09863-.01367.20117-.02734.30859L182.73535,34.5h-1.24609l.53222-4.51465c.00879-.09375.01758-.18359.02442-.26953.00683-.08691.01074-.16894.01074-.249a1.38533,1.38533,0,0,0-.21387-.85059.79411.79411,0,0,0-.66894-.27637,1.44873,1.44873,0,0,0-.68164.18262,2.64988,2.64988,0,0,0-.66895.51367,4.19419,4.19419,0,0,0-.59863.80567,5.65757,5.65757,0,0,0-.47266,1.05273L178.34668,34.5Z" style="fill:blue"/><path d="M186.44531,27.40918l-.53222,4.50781c-.00977.09375-.01758.18164-.02442.26563s-.01074.166-.01074.24511a1.40234,1.40234,0,0,0,.21387.8545.79333.79333,0,0,0,.6748.27929,1.43482,1.43482,0,0,0,.66211-.1748,2.61946,2.61946,0,0,0,.6582-.49707,4.0801,4.0801,0,0,0,.59082-.77637,5.81143,5.81143,0,0,0,.47657-1.01562l.44043-3.68848H190.834L189.98047,34.5h-.61621a.514.514,0,0,1-.33594-.09766.36639.36639,0,0,1-.11914-.30175c0-.00391.002-.0459.00684-.126.00488-.0791.01074-.165.01757-.25879.00684-.09277.01368-.17969.02051-.25879.00781-.0791.01074-.12109.01074-.126l.04883-.56738a4.43322,4.43322,0,0,1-1.2666,1.36914,2.57027,2.57027,0,0,1-1.44238.46485,1.49354,1.49354,0,0,1-1.22852-.53907,2.40422,2.40422,0,0,1-.4375-1.54687c0-.09277.00293-.18848.00781-.28711.00391-.09766.01368-.2002.02735-.30762l.53222-4.50781Z" style="fill:blue"/><path d="M192.42969,33.16309c0-.02832.00195-.06446.0039-.1084.002-.04492.00684-.1084.01368-.19239.00781-.084.01757-.19433.03222-.3291.01367-.13574.03418-.3125.0625-.53222l.44141-3.54883h-.791a.21738.21738,0,0,1-.15039-.05274.207.207,0,0,1-.05957-.16406.84125.84125,0,0,1,.00684-.084q.00732-.063.01758-.14356c.00683-.05371.01367-.1084.0205-.165q.01026-.08349.01758-.16113l1.0918-.14648.52539-2.19141a.33092.33092,0,0,1,.10547-.1709.27461.27461,0,0,1,.18847-.0664h.65821l-.3086,2.44238H196.168l-.10449.90332h-1.86914l-.42676,3.48633c-.02344.1914-.041.34472-.05274.46191-.01172.11621-.02148.21-.02832.2793-.00683.07031-.01172.11914-.01367.14746-.00293.02832-.0039.04883-.0039.0625a.738.738,0,0,0,.165.5293.59476.59476,0,0,0,.45118.17089.91394.91394,0,0,0,.32226-.05273,1.323,1.323,0,0,0,.24121-.11523c.06739-.042.125-.08008.17188-.11524a.21424.21424,0,0,1,.126-.05273.12574.12574,0,0,1,.08692.02832.34018.34018,0,0,1,.0664.09082l.25977.59472a2.53061,2.53061,0,0,1-.77441.47266,2.38774,2.38774,0,0,1-.87793.17187,1.4966,1.4966,0,0,1-1.07129-.37109A1.4596,1.4596,0,0,1,192.42969,33.16309Z" style="fill:blue"/><path d="M202.2793,28.92773a1.91641,1.91641,0,0,1-.18946.85059,1.76966,1.76966,0,0,1-.69238.7002,5.17692,5.17692,0,0,1-1.38672.543,15.30353,15.30353,0,0,1-2.26758.37012c-.00488.05176-.00683.10156-.00683.15137v.15039a2.18976,2.18976,0,0,0,.40918,1.43066,1.51336,1.51336,0,0,0,1.23535.49414,2.31534,2.31534,0,0,0,.59863-.07031,2.59506,2.59506,0,0,0,.46875-.1709,2.1017,2.1017,0,0,0,.36425-.22461c.10548-.08105.20216-.15625.291-.22363.08789-.06738.16992-.125.24414-.17187a.4203.4203,0,0,1,.22461-.07032.30463.30463,0,0,1,.23046.11914l.3086.38575a6.56169,6.56169,0,0,1-.69629.63281,4.05246,4.05246,0,0,1-.69727.4375,3.09955,3.09955,0,0,1-.74511.25586,4.12025,4.12025,0,0,1-.83692.08008,2.78967,2.78967,0,0,1-1.09179-.20313,2.25331,2.25331,0,0,1-.81934-.57715,2.5929,2.5929,0,0,1-.51758-.90625,3.66632,3.66632,0,0,1-.18164-1.19043,5.20085,5.20085,0,0,1,.11523-1.08789,5.07583,5.07583,0,0,1,.33594-1.0332,4.65916,4.65916,0,0,1,.53906-.90918,3.62722,3.62722,0,0,1,.72754-.72461,3.40849,3.40849,0,0,1,.90332-.47949,3.13871,3.13871,0,0,1,1.06055-.17578,2.541,2.541,0,0,1,.93067.15429,1.96779,1.96779,0,0,1,.64453.39258,1.55162,1.55162,0,0,1,.374.52442A1.38921,1.38921,0,0,1,202.2793,28.92773Zm-2.14258-.7207a1.81879,1.81879,0,0,0-.81152.18164,2.17162,2.17162,0,0,0-.65821.501,3.0579,3.0579,0,0,0-.49023.749,4.46913,4.46913,0,0,0-.31446.92774,13.60429,13.60429,0,0,0,1.72852-.30469,4.29562,4.29562,0,0,0,1.001-.3711,1.07816,1.07816,0,0,0,.46191-.43066,1.08965,1.08965,0,0,0,.11231-.4834.68976.68976,0,0,0-.05567-.26172.7101.7101,0,0,0-.17871-.249.97814.97814,0,0,0-.31836-.18555A1.36975,1.36975,0,0,0,200.13672,28.207Z" style="fill:blue"/><path d="M207.627,28.543a.44536.44536,0,0,1-.11133.12207.23874.23874,0,0,1-.14062.03906.38515.38515,0,0,1-.21289-.07715c-.07715-.05078-.1709-.1084-.28027-.17187a2.35837,2.35837,0,0,0-.40235-.17481,2.01651,2.01651,0,0,0-1.14844.00684,1.42985,1.42985,0,0,0-.44824.24219,1.06631,1.06631,0,0,0-.29.36035.982.982,0,0,0-.10156.4375.67.67,0,0,0,.2168.52441,2.00338,2.00338,0,0,0,.5459.33985c.21972.0957.45605.18847.71093.27636a3.6484,3.6484,0,0,1,.71.33594,1.8091,1.8091,0,0,1,.5459.51856,1.40674,1.40674,0,0,1,.21778.81835,2.35356,2.35356,0,0,1-.7461,1.72559,2.72541,2.72541,0,0,1-.86816.543,3.04507,3.04507,0,0,1-1.13673.20312,2.82746,2.82746,0,0,1-1.20116-.24218,2.49292,2.49292,0,0,1-.85059-.61914l.3086-.47559a.42866.42866,0,0,1,.13281-.14062.36314.36314,0,0,1,.19629-.04883.34515.34515,0,0,1,.22363.09765c.07422.06543.168.13965.28027.22071a1.71671,1.71671,0,0,0,1.07129.31836,1.7264,1.7264,0,0,0,.61914-.1045,1.44606,1.44606,0,0,0,.46875-.28027,1.16752,1.16752,0,0,0,.29395-.40918,1.25187,1.25187,0,0,0,.10156-.501.75191.75191,0,0,0-.2168-.5664,1.77536,1.77536,0,0,0-.54589-.35059q-.32959-.13915-.707-.26269a3.55421,3.55421,0,0,1-.707-.31446,1.70847,1.70847,0,0,1-.54589-.501,1.39286,1.39286,0,0,1-.2168-.81836,2.1921,2.1921,0,0,1,.17773-.86524,2.24551,2.24551,0,0,1,.51465-.73828,2.55327,2.55327,0,0,1,.81543-.51465,2.8947,2.8947,0,0,1,1.082-.19238,2.76584,2.76584,0,0,1,1.12305.21387,2.604,2.604,0,0,1,.83691.57715Z" style="fill:blue"/><path d="M98.478,44.209,97.9458,48.7168c-.00928.09375-.01709.18164-.02441.26562-.00684.084-.01026.166-.01026.24512a1.40251,1.40251,0,0,0,.21338.85449.795.795,0,0,0,.67529.2793,1.433,1.433,0,0,0,.66163-.17481,2.61054,2.61054,0,0,0,.6582-.49707,4.08183,4.08183,0,0,0,.59131-.77636,5.81,5.81,0,0,0,.47607-1.01563l.44092-3.68848h1.23926l-.854,7.09082H101.397a.514.514,0,0,1-.33593-.09765.3679.3679,0,0,1-.11915-.30176q0-.00587.00733-.126c.00439-.0791.01025-.165.01709-.25879.00732-.09277.01416-.17968.021-.25878.00733-.07911.01075-.1211.01075-.126l.04883-.56738a4.43455,4.43455,0,0,1-1.26709,1.36914,2.56884,2.56884,0,0,1-1.4419.46484,1.49291,1.49291,0,0,1-1.22851-.53906,2.4013,2.4013,0,0,1-.4375-1.54688q0-.13916.00732-.28711.00659-.14648.02783-.30761l.53174-4.50782Z" style="fill:blue"/><path d="M103.84717,51.2998l.84717-7.09765h.62255a.37125.37125,0,0,1,.42041.41992l-.105,1.37207a4.39,4.39,0,0,1,1.27735-1.41406,2.61244,2.61244,0,0,1,1.47363-.47656,1.50352,1.50352,0,0,1,1.22852.53222,2.39638,2.39638,0,0,1,.4375,1.55371q0,.14063-.00733.28711c-.00439.09864-.01367.20117-.02783.3086l-.53223,4.51464h-1.2456l.53174-4.51464c.00927-.09375.01757-.1836.02441-.26954.00732-.08691.01074-.16894.01074-.249a1.38539,1.38539,0,0,0-.21386-.85058.7925.7925,0,0,0-.66846-.27637,1.45205,1.45205,0,0,0-.68213.18262,2.64794,2.64794,0,0,0-.66846.51367,4.17386,4.17386,0,0,0-.59863.80566,5.65767,5.65767,0,0,0-.47266,1.05274l-.40576,3.60546Z" style="fill:blue"/><path d="M111.82666,49.96289c0-.02832.00146-.06445.00391-.1084.002-.04492.00683-.1084.01367-.19238.00732-.084.01758-.19434.03174-.3291.01367-.13574.03466-.3125.063-.53223l.44092-3.54883h-.791a.2182.2182,0,0,1-.15039-.05273.207.207,0,0,1-.05957-.16406c0-.01465.00244-.042.00683-.084q.00732-.063.01758-.14355c.00684-.05371.01416-.1084.021-.165q.01025-.0835.01757-.16113l1.0918-.14649.52539-2.19141a.33019.33019,0,0,1,.105-.17089.27584.27584,0,0,1,.189-.06641h.65771l-.3081,2.44238h1.86181L115.46,45.252h-1.86914l-.42676,3.48633c-.02344.19141-.041.34473-.05273.46192-.01172.11621-.021.21-.02783.27929-.00733.07031-.01172.11914-.01416.14746s-.00342.04883-.00342.0625a.74014.74014,0,0,0,.16455.5293.59469.59469,0,0,0,.45117.1709.9102.9102,0,0,0,.32227-.05274,1.32368,1.32368,0,0,0,.24121-.11523c.06738-.042.125-.08008.17187-.11523a.21426.21426,0,0,1,.126-.05274.12574.12574,0,0,1,.08691.02832.34051.34051,0,0,1,.06641.09082l.25976.59473a2.53046,2.53046,0,0,1-.77441.47265,2.38772,2.38772,0,0,1-.87793.17188,1.49536,1.49536,0,0,1-1.0708-.37109A1.45581,1.45581,0,0,1,111.82666,49.96289Z" style="fill:blue"/><path d="M118.25293,44.209l-.85449,7.09082h-1.22461l.85351-7.09082Zm.46875-2.22656a.79273.79273,0,0,1-.07324.33985,1.00725,1.00725,0,0,1-.19629.28027.9578.9578,0,0,1-.27637.19238.76634.76634,0,0,1-.32226.07031.75549.75549,0,0,1-.31543-.07031.85128.85128,0,0,1-.26856-.19238.97315.97315,0,0,1-.18555-.28027.8208.8208,0,0,1-.07031-.33985.84776.84776,0,0,1,.07031-.34277.94257.94257,0,0,1,.46192-.47949.723.723,0,0,1,.31445-.07325.76637.76637,0,0,1,.32227.07032.92108.92108,0,0,1,.27636.19238.88314.88314,0,0,1,.19239.28711A.86853.86853,0,0,1,118.72168,41.98242Z" style="fill:blue"/><path d="M119.5332,51.2998l1.25293-10.31054h1.22559L120.75781,51.2998Z" style="fill:blue"/><path d="M126.05664,49.96289c0-.02832.00195-.06445.00391-.1084.00195-.04492.00683-.1084.01367-.19238.00781-.084.01758-.19434.03223-.3291.01367-.13574.03417-.3125.0625-.53223l.4414-3.54883h-.791a.21735.21735,0,0,1-.15039-.05273.207.207,0,0,1-.05957-.16406.84032.84032,0,0,1,.00683-.084q.00732-.063.01758-.14355c.00683-.05371.01367-.1084.02051-.165q.01024-.0835.01758-.16113l1.09179-.14649.52539-2.19141a.331.331,0,0,1,.10547-.17089.27458.27458,0,0,1,.18848-.06641h.6582l-.30859,2.44238h1.8623l-.10449.90332h-1.86914l-.42676,3.48633c-.02344.19141-.041.34473-.05273.46192-.01172.11621-.02149.21-.02832.27929-.00684.07031-.01172.11914-.01368.14746-.00292.02832-.0039.04883-.0039.0625a.738.738,0,0,0,.165.5293.59469.59469,0,0,0,.45117.1709.914.914,0,0,0,.32227-.05274,1.32368,1.32368,0,0,0,.24121-.11523c.06738-.042.125-.08008.17187-.11523a.21426.21426,0,0,1,.126-.05274.12576.12576,0,0,1,.08691.02832.34051.34051,0,0,1,.06641.09082l.25976.59473a2.53058,2.53058,0,0,1-.77441.47265,2.38776,2.38776,0,0,1-.87793.17188,1.4966,1.4966,0,0,1-1.07129-.37109A1.45967,1.45967,0,0,1,126.05664,49.96289Z" style="fill:blue"/><path d="M130.292,51.2998l1.2461-10.31054h1.24609l-.58106,4.78711a4.19005,4.19005,0,0,1,1.22852-1.249,2.57442,2.57442,0,0,1,1.38281-.42382,1.507,1.507,0,0,1,1.23828.53222,2.39153,2.39153,0,0,1,.43457,1.54688c0,.09375-.00292.19043-.00683.291-.00488.09961-.01465.2041-.02832.31153l-.53223,4.51464h-1.24609l.53222-4.51464c.00879-.09375.01758-.1836.02442-.26954.00683-.08691.01074-.16894.01074-.249a1.399,1.399,0,0,0-.21387-.85351.79578.79578,0,0,0-.67578-.28028,1.40974,1.40974,0,0,0-.64746.17188,2.62615,2.62615,0,0,0-.64746.48633,4.11932,4.11932,0,0,0-.58789.75976,5.60793,5.60793,0,0,0-.47559.99024l-.45507,3.75878Z" style="fill:blue"/><path d="M143.32617,45.72754a1.91636,1.91636,0,0,1-.18945.85058,1.7698,1.7698,0,0,1-.69238.7002,5.1769,5.1769,0,0,1-1.38672.543,15.30485,15.30485,0,0,1-2.26758.37012c-.00488.05175-.00684.10156-.00684.15136v.15039a2.18981,2.18981,0,0,0,.40918,1.43067,1.51336,1.51336,0,0,0,1.23535.49414,2.3159,2.3159,0,0,0,.59864-.07031,2.59714,2.59714,0,0,0,.46875-.1709,2.10355,2.10355,0,0,0,.36426-.22461c.10546-.08106.20214-.15625.291-.22363.08789-.06739.16992-.125.24414-.17188a.42042.42042,0,0,1,.22461-.07031.30467.30467,0,0,1,.23047.11914l.30859.38574a6.55963,6.55963,0,0,1-.69629.63281,4.05178,4.05178,0,0,1-.69726.4375,3.09978,3.09978,0,0,1-.74512.25586,4.12015,4.12015,0,0,1-.83691.08008,2.78972,2.78972,0,0,1-1.0918-.20312,2.25343,2.25343,0,0,1-.81934-.57715,2.593,2.593,0,0,1-.51757-.90625,3.6661,3.6661,0,0,1-.18164-1.19043,5.20018,5.20018,0,0,1,.11523-1.08789,5.07572,5.07572,0,0,1,.33594-1.03321,4.65916,4.65916,0,0,1,.53906-.90918,3.627,3.627,0,0,1,.72754-.72461,3.40849,3.40849,0,0,1,.90332-.47949,3.13892,3.13892,0,0,1,1.06055-.17578,2.54094,2.54094,0,0,1,.93066.1543,1.96769,1.96769,0,0,1,.64453.39258,1.55158,1.55158,0,0,1,.374.52441A1.38908,1.38908,0,0,1,143.32617,45.72754Zm-2.14258-.7207a1.81868,1.81868,0,0,0-.81152.18164,2.17155,2.17155,0,0,0-.6582.501,3.05847,3.05847,0,0,0-.49024.749,4.46961,4.46961,0,0,0-.31445.92773,13.60462,13.60462,0,0,0,1.72852-.30469,4.29556,4.29556,0,0,0,1.001-.37109,1.07825,1.07825,0,0,0,.46192-.43066,1.08977,1.08977,0,0,0,.1123-.4834.6897.6897,0,0,0-.05566-.26172.7103.7103,0,0,0-.17871-.249.97841.97841,0,0,0-.31836-.18554A1.36953,1.36953,0,0,0,141.18359,45.00684Z" style="fill:blue"/><path d="M147.42773,49.96289c0-.02832.002-.06445.00391-.1084.002-.04492.00684-.1084.01367-.19238.00781-.084.01758-.19434.03223-.3291.01367-.13574.03418-.3125.0625-.53223l.44141-3.54883h-.791a.21735.21735,0,0,1-.15039-.05273.207.207,0,0,1-.05957-.16406.84032.84032,0,0,1,.00683-.084q.00733-.063.01758-.14355c.00684-.05371.01367-.1084.02051-.165q.01026-.0835.01758-.16113l1.0918-.14649.52539-2.19141a.33094.33094,0,0,1,.10546-.17089.2746.2746,0,0,1,.18848-.06641h.6582l-.30859,2.44238H151.166l-.1045.90332h-1.86914l-.42676,3.48633c-.02343.19141-.041.34473-.05273.46192-.01172.11621-.02148.21-.02832.27929-.00684.07031-.01172.11914-.01367.14746-.00293.02832-.00391.04883-.00391.0625a.738.738,0,0,0,.165.5293.59472.59472,0,0,0,.45117.1709.914.914,0,0,0,.32227-.05274,1.32336,1.32336,0,0,0,.24121-.11523c.06738-.042.125-.08008.17187-.11523a.21429.21429,0,0,1,.126-.05274.12579.12579,0,0,1,.08692.02832.34073.34073,0,0,1,.0664.09082l.25977.59473a2.53051,2.53051,0,0,1-.77442.47265,2.38768,2.38768,0,0,1-.87793.17188A1.49662,1.49662,0,0,1,147.834,51.041,1.45967,1.45967,0,0,1,147.42773,49.96289Z" style="fill:blue"/><path d="M156.82227,51.2998h-.64454a.37876.37876,0,0,1-.332-.126.52429.52429,0,0,1-.08789-.30762l.126-1.4209a5.97182,5.97182,0,0,1-.542.80567,3.78109,3.78109,0,0,1-.61621.61523,2.70672,2.70672,0,0,1-.68262.39258,2.02644,2.02644,0,0,1-.74219.13867,1.746,1.746,0,0,1-.76269-.16406,1.587,1.587,0,0,1-.585-.4834,2.37,2.37,0,0,1-.374-.78418,3.88161,3.88161,0,0,1-.13281-1.06738,4.832,4.832,0,0,1,.15723-1.22852,5.00728,5.00728,0,0,1,1.14453-2.10644,4.69983,4.69983,0,0,1,.90625-.77051,4.32625,4.32625,0,0,1,1.07519-.50391,4.01929,4.01929,0,0,1,1.2041-.17871,5.16708,5.16708,0,0,1,.88477.0752,3.61978,3.61978,0,0,1,.85059.25781Zm-3.05176-.93847a1.23116,1.23116,0,0,0,.67187-.21,2.5744,2.5744,0,0,0,.623-.582,5.06507,5.06507,0,0,0,.54883-.88575,7.9327,7.9327,0,0,0,.45215-1.126l.30078-2.39844a.48544.48544,0,0,0-.30469-.124h-.29785a2.45763,2.45763,0,0,0-.81153.13574,2.89256,2.89256,0,0,0-.73535.38086,3.27851,3.27851,0,0,0-.623.583,3.83883,3.83883,0,0,0-.4795.74316,4.2493,4.2493,0,0,0-.31152.8623,3.955,3.955,0,0,0-.11133.93848Q152.69238,50.36182,153.77051,50.36133Z" style="fill:blue"/><path d="M158.7334,51.2998l1.24512-10.31054h1.22558l-.61621,5.01172a5.98518,5.98518,0,0,1,.57422-.78028,3.8954,3.8954,0,0,1,.64355-.59863,2.96286,2.96286,0,0,1,.7002-.38184,2.1012,2.1012,0,0,1,.74219-.13671,1.6729,1.6729,0,0,1,1.40722.6582,3.12489,3.12489,0,0,1,.50391,1.9248A5.66249,5.66249,0,0,1,165.04,47.835a5.80822,5.80822,0,0,1-.33984,1.0957,5.37254,5.37254,0,0,1-.53223.97266,4.18413,4.18413,0,0,1-.69238.78418,3.08694,3.08694,0,0,1-.83008.52148,2.38541,2.38541,0,0,1-.9375.18848,2.19733,2.19733,0,0,1-1.02539-.2373,2.01114,2.01114,0,0,1-.75293-.67969l-.09082.45508a.66881.66881,0,0,1-.14356.27343.40242.40242,0,0,1-.29785.09082Zm4.0459-6.19531a1.2973,1.2973,0,0,0-.67969.21,2.8507,2.8507,0,0,0-.66113.58106,5.16527,5.16527,0,0,0-.59864.88183,6.88467,6.88467,0,0,0-.48339,1.12012l-.22364,1.8418a1.49858,1.49858,0,0,0,.63672.53515,1.93249,1.93249,0,0,0,.75684.15723,1.55832,1.55832,0,0,0,.68554-.1543,2.16446,2.16446,0,0,0,.58789-.416,3.03014,3.03014,0,0,0,.47657-.61621,4.31763,4.31763,0,0,0,.35351-.75586,5.247,5.247,0,0,0,.21973-.833,4.78317,4.78317,0,0,0,.07715-.85059,2.222,2.222,0,0,0-.30078-1.2666A.9714.9714,0,0,0,162.7793,45.10449Z" style="fill:blue"/><path d="M166.14648,51.2998l1.25293-10.31054H168.624L167.37109,51.2998Z" style="fill:blue"/><path d="M175.02148,45.72754a1.91589,1.91589,0,0,1-.18847.85058,1.77287,1.77287,0,0,1-.69336.7002,5.16868,5.16868,0,0,1-1.38574.543,15.29865,15.29865,0,0,1-2.26856.37012c-.0039.05175-.00683.10156-.00683.15136v.15039a2.18427,2.18427,0,0,0,.41015,1.43067,1.512,1.512,0,0,0,1.23535.49414,2.32646,2.32646,0,0,0,.59864-.07031,2.59714,2.59714,0,0,0,.46875-.1709,2.1406,2.1406,0,0,0,.36425-.22461c.1045-.08106.20118-.15625.29-.22363s.16992-.125.24512-.17188a.41727.41727,0,0,1,.22363-.07031.308.308,0,0,1,.23145.11914l.30762.38574a6.37574,6.37574,0,0,1-.69629.63281,4.045,4.045,0,0,1-.69629.4375,3.10689,3.10689,0,0,1-.7461.25586,4.1104,4.1104,0,0,1-.83593.08008,2.78291,2.78291,0,0,1-1.0918-.20312,2.24528,2.24528,0,0,1-.81934-.57715,2.593,2.593,0,0,1-.51757-.90625,3.63938,3.63938,0,0,1-.18262-1.19043,5.26654,5.26654,0,0,1,.11523-1.08789,5.13694,5.13694,0,0,1,.33594-1.03321,4.70833,4.70833,0,0,1,.53906-.90918,3.63156,3.63156,0,0,1,.72852-.72461,3.39347,3.39347,0,0,1,.90332-.47949,3.13074,3.13074,0,0,1,1.06055-.17578,2.54827,2.54827,0,0,1,.93066.1543,1.97291,1.97291,0,0,1,.64355.39258,1.56842,1.56842,0,0,1,.375.52441A1.40431,1.40431,0,0,1,175.02148,45.72754Zm-2.1416-.7207a1.82589,1.82589,0,0,0-.8125.18164,2.15593,2.15593,0,0,0-.65722.501,3.03054,3.03054,0,0,0-.49024.749,4.47113,4.47113,0,0,0-.31543.92773,13.65657,13.65657,0,0,0,1.72949-.30469,4.31289,4.31289,0,0,0,1.001-.37109,1.084,1.084,0,0,0,.46192-.43066,1.10322,1.10322,0,0,0,.1123-.4834.7065.7065,0,0,0-.23535-.51075.96813.96813,0,0,0-.31836-.18554A1.3637,1.3637,0,0,0,172.87988,45.00684Z" style="fill:blue"/><path d="M176.4209,49.96289c0-.02832.002-.06445.0039-.1084.002-.04492.00684-.1084.01368-.19238.00781-.084.01757-.19434.03222-.3291.01368-.13574.03418-.3125.0625-.53223l.44141-3.54883h-.791a.21739.21739,0,0,1-.15039-.05273.207.207,0,0,1-.05957-.16406.84138.84138,0,0,1,.00684-.084q.00732-.063.01758-.14355c.00683-.05371.01367-.1084.0205-.165q.01026-.0835.01758-.16113l1.0918-.14649.52539-2.19141a.331.331,0,0,1,.10547-.17089.27458.27458,0,0,1,.18848-.06641h.6582l-.30859,2.44238h1.8623l-.10449.90332h-1.86914l-.42676,3.48633c-.02344.19141-.041.34473-.05274.46192-.01171.11621-.02148.21-.02832.27929-.00683.07031-.01171.11914-.01367.14746-.00293.02832-.0039.04883-.0039.0625a.73793.73793,0,0,0,.165.5293.59469.59469,0,0,0,.45117.1709.91393.91393,0,0,0,.32226-.05274,1.323,1.323,0,0,0,.24121-.11523c.06739-.042.125-.08008.17188-.11523a.21426.21426,0,0,1,.126-.05274.12578.12578,0,0,1,.08691.02832.34073.34073,0,0,1,.06641.09082l.25976.59473a2.53058,2.53058,0,0,1-.77441.47265,2.38776,2.38776,0,0,1-.87793.17188,1.4966,1.4966,0,0,1-1.07129-.37109A1.45963,1.45963,0,0,1,176.4209,49.96289Z" style="fill:blue"/><path d="M101.292,68.09961a.37857.37857,0,0,1-.33252-.126.524.524,0,0,1-.0874-.30761l.13281-1.47754a5.73873,5.73873,0,0,1-.58105.82617,4.24612,4.24612,0,0,1-.66113.63379,2.905,2.905,0,0,1-.7212.40527,2.10606,2.10606,0,0,1-.75927.14356,1.6642,1.6642,0,0,1-1.41065-.66114,3.14279,3.14279,0,0,1-.50049-1.92187,5.6255,5.6255,0,0,1,.11914-1.14746,5.95094,5.95094,0,0,1,.33936-1.09961,5.43253,5.43253,0,0,1,.53174-.97657,4.1179,4.1179,0,0,1,.69336-.78027,3.13385,3.13385,0,0,1,.8291-.51758,2.39062,2.39062,0,0,1,.938-.18945,2.20423,2.20423,0,0,1,.94873.20313,2.03656,2.03656,0,0,1,.73144.581l.48291-3.89844H103.21L101.936,68.09961Zm-2.541-.90332a1.28923,1.28923,0,0,0,.67529-.20606,2.82729,2.82729,0,0,0,.6582-.57421,4.93333,4.93333,0,0,0,.59522-.875,7.00894,7.00894,0,0,0,.47949-1.10938l.231-1.876a1.49264,1.49264,0,0,0-.63721-.52539,1.94127,1.94127,0,0,0-.749-.15332,1.63354,1.63354,0,0,0-.99756.3291,2.87333,2.87333,0,0,0-.75586.84961,4.4597,4.4597,0,0,0-.47949,1.166,5.01479,5.01479,0,0,0-.168,1.2666,2.23415,2.23415,0,0,0,.30078,1.27051A.96917.96917,0,0,0,98.751,67.19629Z" style="fill:blue"/><path d="M106.10791,61.00879l-.854,7.09082h-1.2251l.854-7.09082Zm.46875-2.22656a.79266.79266,0,0,1-.07324.33984.98712.98712,0,0,1-.19629.28027.95125.95125,0,0,1-.27637.19239.76594.76594,0,0,1-.32178.07031.754.754,0,0,1-.31543-.07031.859.859,0,0,1-.269-.19239.98316.98316,0,0,1-.18555-.28027.82072.82072,0,0,1-.07031-.33984.84781.84781,0,0,1,.07031-.34278.94771.94771,0,0,1,.46192-.47949.72509.72509,0,0,1,.31494-.07324.76594.76594,0,0,1,.32178.07031.92338.92338,0,0,1,.27685.19238.89105.89105,0,0,1,.19239.28711A.8767.8767,0,0,1,106.57666,58.78223Z" style="fill:blue"/><path d="M111.834,62.14258a.45369.45369,0,0,1-.11181.12207.23722.23722,0,0,1-.14014.03906.38781.38781,0,0,1-.21338-.07715c-.07715-.05078-.17041-.1084-.28027-.17187a2.32442,2.32442,0,0,0-.40234-.17481,2.01456,2.01456,0,0,0-1.148.00684,1.42979,1.42979,0,0,0-.44825.24219,1.0736,1.0736,0,0,0-.29052.36035.98189.98189,0,0,0-.10157.4375.66875.66875,0,0,0,.21729.52441,1.99589,1.99589,0,0,0,.5459.33985c.21924.0957.45605.18847.71045.27636a3.65241,3.65241,0,0,1,.71045.33594,1.81485,1.81485,0,0,1,.54589.51856,1.41034,1.41034,0,0,1,.21729.81835,2.35962,2.35962,0,0,1-.19238.93848,2.33444,2.33444,0,0,1-.55323.78711,2.73084,2.73084,0,0,1-.86816.543,3.04969,3.04969,0,0,1-1.13721.20312,2.82679,2.82679,0,0,1-1.20068-.24218,2.48818,2.48818,0,0,1-.85059-.61914l.30811-.47559a.435.435,0,0,1,.1333-.14062.36136.36136,0,0,1,.1958-.04883.34628.34628,0,0,1,.22412.09765c.07422.06543.168.13965.27979.22071a1.71958,1.71958,0,0,0,1.07129.31836,1.7246,1.7246,0,0,0,.61914-.1045,1.45357,1.45357,0,0,0,.46923-.28027,1.18,1.18,0,0,0,.29395-.40918,1.25187,1.25187,0,0,0,.10156-.501.75225.75225,0,0,0-.21728-.5664,1.76955,1.76955,0,0,0-.5459-.35059q-.32886-.13916-.707-.26269a3.56627,3.56627,0,0,1-.707-.31446,1.71352,1.71352,0,0,1-.5459-.501,1.39293,1.39293,0,0,1-.2168-.81836,2.18406,2.18406,0,0,1,.17822-.86524,2.23825,2.23825,0,0,1,.51465-.73828,2.54245,2.54245,0,0,1,.81543-.51465,2.89035,2.89035,0,0,1,1.08154-.19238,2.76825,2.76825,0,0,1,1.12354.21387,2.60188,2.60188,0,0,1,.83643.57715Z" style="fill:blue"/><path d="M117.2793,62.14258a.44536.44536,0,0,1-.11133.12207.2388.2388,0,0,1-.14063.03906.38515.38515,0,0,1-.21289-.07715c-.07715-.05078-.1709-.1084-.28027-.17187a2.35824,2.35824,0,0,0-.40234-.17481,2.01628,2.01628,0,0,0-1.14844.00684,1.42974,1.42974,0,0,0-.44824.24219,1.06607,1.06607,0,0,0-.29.36035.98189.98189,0,0,0-.10157.4375.67.67,0,0,0,.2168.52441,2.00338,2.00338,0,0,0,.5459.33985c.21973.0957.45605.18847.71094.27636a3.6481,3.6481,0,0,1,.71.33594,1.8091,1.8091,0,0,1,.5459.51856,1.40681,1.40681,0,0,1,.21777.81835,2.3535,2.3535,0,0,1-.74609,1.72559,2.72557,2.72557,0,0,1-.86817.543,3.04522,3.04522,0,0,1-1.13672.20312,2.82679,2.82679,0,0,1-1.20068-.24218,2.48818,2.48818,0,0,1-.85059-.61914l.30811-.47559a.435.435,0,0,1,.1333-.14062.36136.36136,0,0,1,.1958-.04883.34626.34626,0,0,1,.22412.09765c.07422.06543.168.13965.27979.22071a1.71958,1.71958,0,0,0,1.07129.31836,1.72644,1.72644,0,0,0,.61914-.1045,1.44606,1.44606,0,0,0,.46875-.28027,1.16762,1.16762,0,0,0,.29394-.40918,1.25171,1.25171,0,0,0,.10157-.501.752.752,0,0,0-.2168-.5664,1.77542,1.77542,0,0,0-.5459-.35059q-.3296-.13916-.707-.26269a3.55421,3.55421,0,0,1-.707-.31446,1.71352,1.71352,0,0,1-.5459-.501,1.39293,1.39293,0,0,1-.2168-.81836,2.18406,2.18406,0,0,1,.17822-.86524,2.2384,2.2384,0,0,1,.51465-.73828,2.54546,2.54546,0,0,1,.81494-.51465,2.89479,2.89479,0,0,1,1.082-.19238,2.76583,2.76583,0,0,1,1.123.21387,2.604,2.604,0,0,1,.83692.57715Z" style="fill:blue"/><path d="M120.68848,68.19727a2.76645,2.76645,0,0,1-1.06446-.19922,2.341,2.341,0,0,1-.833-.57715,2.67334,2.67334,0,0,1-.5459-.92383,3.67144,3.67144,0,0,1-.19629-1.24609,5.024,5.024,0,0,1,.28027-1.6875,4.57964,4.57964,0,0,1,.7666-1.38575,3.64165,3.64165,0,0,1,1.14844-.93847,3.06337,3.06337,0,0,1,1.43164-.34278,2.765,2.765,0,0,1,1.06348.19922,2.34742,2.34742,0,0,1,.833.57813,2.65562,2.65562,0,0,1,.54589.92773,3.67613,3.67613,0,0,1,.19629,1.24219,4.99907,4.99907,0,0,1-.28027,1.67969,4.57959,4.57959,0,0,1-.7666,1.38574,3.65647,3.65647,0,0,1-1.15137.94238A3.04952,3.04952,0,0,1,120.68848,68.19727Zm.1123-.97266a1.6452,1.6452,0,0,0,.93067-.28027,2.45,2.45,0,0,0,.71386-.74512,3.83754,3.83754,0,0,0,.45508-1.07422,4.96506,4.96506,0,0,0,.16113-1.27441,2.38861,2.38861,0,0,0-.38476-1.47657,1.32221,1.32221,0,0,0-1.11328-.49707,1.64883,1.64883,0,0,0-.93457.27637,2.44264,2.44264,0,0,0-.71094.74219,3.84158,3.84158,0,0,0-.45508,1.07422,4.9628,4.9628,0,0,0-.16016,1.27343,2.41739,2.41739,0,0,0,.38086,1.48047A1.31866,1.31866,0,0,0,120.80078,67.22461Z" style="fill:blue"/><path d="M125.31543,68.09961l1.25293-10.31055H127.793L126.54,68.09961Z" style="fill:blue"/><path d="M128.54883,61.00879h1.00879a.31614.31614,0,0,1,.22363.07715.32585.32585,0,0,1,.10449.18164l1.05762,4.56445a4.48208,4.48208,0,0,1,.08008.51758c.0166.17285.02929.34277.03906.51074q.07617-.252.16113-.50683a4.37862,4.37862,0,0,1,.21-.52149l2.19727-4.56445a.528.528,0,0,1,.1543-.18555.35416.35416,0,0,1,.21679-.07324h.97364L131.419,68.09961h-1.043Z" style="fill:blue"/><path d="M140.67285,62.52734a1.91593,1.91593,0,0,1-.18847.85059,1.77286,1.77286,0,0,1-.69336.70019,5.16843,5.16843,0,0,1-1.38575.543,15.2974,15.2974,0,0,1-2.26855.37012c-.00391.05176-.00684.10156-.00684.15137V65.293a2.18422,2.18422,0,0,0,.41016,1.43066,1.512,1.512,0,0,0,1.23535.49414,2.326,2.326,0,0,0,.59863-.07031,2.59506,2.59506,0,0,0,.46875-.1709,2.1407,2.1407,0,0,0,.36426-.22461c.10449-.081.20117-.15625.29-.22363s.16992-.125.24512-.17187a.4172.4172,0,0,1,.22363-.07032.308.308,0,0,1,.23145.11914l.30761.38575a6.37491,6.37491,0,0,1-.69629.63281,4.0449,4.0449,0,0,1-.69629.4375,3.10682,3.10682,0,0,1-.74609.25586,4.11043,4.11043,0,0,1-.83594.08008,2.78285,2.78285,0,0,1-1.09179-.20313,2.24508,2.24508,0,0,1-.81934-.57715,2.59305,2.59305,0,0,1-.51758-.90625,3.63961,3.63961,0,0,1-.18261-1.19043,5.26654,5.26654,0,0,1,.11523-1.08789,5.13642,5.13642,0,0,1,.33594-1.0332,4.70833,4.70833,0,0,1,.53906-.90918,3.6313,3.6313,0,0,1,.72852-.72461,3.393,3.393,0,0,1,.90332-.47949,3.13048,3.13048,0,0,1,1.06054-.17578,2.54829,2.54829,0,0,1,.93067.15429,1.973,1.973,0,0,1,.64355.39258,1.56846,1.56846,0,0,1,.375.52442A1.40426,1.40426,0,0,1,140.67285,62.52734Zm-2.1416-.7207a1.826,1.826,0,0,0-.8125.18164,2.156,2.156,0,0,0-.65723.501,3.03026,3.03026,0,0,0-.49023.749,4.47044,4.47044,0,0,0-.31543.92774,13.65657,13.65657,0,0,0,1.72949-.30469,4.31284,4.31284,0,0,0,1.001-.3711,1.08388,1.08388,0,0,0,.46191-.43066,1.10309,1.10309,0,0,0,.11231-.4834.70646.70646,0,0,0-.23535-.51074.968.968,0,0,0-.31836-.18555A1.36374,1.36374,0,0,0,138.53125,61.80664Z" style="fill:blue"/><path d="M146.02148,62.14258a.46244.46244,0,0,1-.1123.12207.23563.23563,0,0,1-.13965.03906.39048.39048,0,0,1-.21387-.07715c-.07714-.05078-.16992-.1084-.28027-.17187a2.29155,2.29155,0,0,0-.40234-.17481,2.01284,2.01284,0,0,0-1.14746.00684,1.42979,1.42979,0,0,0-.44825.24219,1.08112,1.08112,0,0,0-.291.36035.982.982,0,0,0-.10156.4375.66748.66748,0,0,0,.21777.52441,1.98846,1.98846,0,0,0,.5459.33985c.21875.0957.45605.18847.71.27636a3.65673,3.65673,0,0,1,.71094.33594,1.82045,1.82045,0,0,1,.54589.51856,1.41389,1.41389,0,0,1,.2168.81835,2.35962,2.35962,0,0,1-.19238.93848,2.32622,2.32622,0,0,1-.55274.78711,2.73629,2.73629,0,0,1-.86816.543,3.05409,3.05409,0,0,1-1.1377.20312,2.82608,2.82608,0,0,1-1.20019-.24218,2.48346,2.48346,0,0,1-.85059-.61914l.30762-.47559a.44141.44141,0,0,1,.13379-.14062.35958.35958,0,0,1,.19531-.04883.34739.34739,0,0,1,.22461.09765c.07422.06543.168.13965.2793.22071a1.72252,1.72252,0,0,0,1.07129.31836,1.72273,1.72273,0,0,0,.61914-.1045,1.46129,1.46129,0,0,0,.46972-.28027,1.19284,1.19284,0,0,0,.29395-.40918,1.25187,1.25187,0,0,0,.10156-.501.75256.75256,0,0,0-.21777-.5664,1.76373,1.76373,0,0,0-.5459-.35059c-.21875-.09277-.45508-.18066-.707-.26269a3.57918,3.57918,0,0,1-.707-.31446,1.71866,1.71866,0,0,1-.5459-.501,1.39293,1.39293,0,0,1-.2168-.81836,2.17608,2.17608,0,0,1,.17871-.86524,2.231,2.231,0,0,1,.51465-.73828,2.53179,2.53179,0,0,1,.81543-.51465,2.886,2.886,0,0,1,1.08106-.19238,2.77064,2.77064,0,0,1,1.124.21387,2.59974,2.59974,0,0,1,.83594.57715Z" style="fill:blue"/><path d="M149.42285,67.33008a.898.898,0,0,1,.06641-.34375.85723.85723,0,0,1,.18554-.2793.9162.9162,0,0,1,.27637-.18945.84284.84284,0,0,1,.34668-.07031.82389.82389,0,0,1,.33985.07031.90484.90484,0,0,1,.46582.46875.865.865,0,0,1,.06933.34375.85063.85063,0,0,1-.06933.3457.90985.90985,0,0,1-.18946.27637.84486.84486,0,0,1-.27636.18555.85475.85475,0,0,1-.33985.06738.87454.87454,0,0,1-.34668-.06738.85528.85528,0,0,1-.27637-.18555.86548.86548,0,0,1-.18554-.27637A.8831.8831,0,0,1,149.42285,67.33008Zm3.59863,0a.88014.88014,0,0,1,.06641-.34375.82747.82747,0,0,1,.18555-.2793.89265.89265,0,0,1,.27636-.18945.83959.83959,0,0,1,.34668-.07031.8193.8193,0,0,1,.33887.07031.89258.89258,0,0,1,.27637.18945.88322.88322,0,0,1,.18945.2793.84885.84885,0,0,1,.07031.34375.835.835,0,0,1-.07031.3457.89258.89258,0,0,1-.18945.27637.83477.83477,0,0,1-.27637.18555.85.85,0,0,1-.33887.06738.87117.87117,0,0,1-.34668-.06738.86276.86276,0,0,1-.46191-.46192A.866.866,0,0,1,153.02148,67.33008Zm3.6045,0a.8982.8982,0,0,1,.0664-.34375.88175.88175,0,0,1,.18262-.2793.83877.83877,0,0,1,.27637-.18945.87068.87068,0,0,1,.68554,0,.88748.88748,0,0,1,.28028.18945.89972.89972,0,0,1,.18945.2793.8648.8648,0,0,1,.06934.34375.85047.85047,0,0,1-.06934.3457.90965.90965,0,0,1-.18945.27637.83147.83147,0,0,1-.28028.18555.90555.90555,0,0,1-.68554,0,.78775.78775,0,0,1-.27637-.18555.87241.87241,0,0,1-.249-.62207Z" style="fill:blue"/></g><path id="double_arrow" data-name="double arrow" d="M103.77937,162.57391l.29987.4001.90089,1.20815h0l.55887.75784,3.26459-2.32762,1.56364,9.94006-8.89024-4.71312,3.248-2.31832-.548-.743h0l-.898-1.20419-.29988-.4001Zm-3.65644-4.76677.30742.39434.92228,1.1887h0l.91333,1.18868.3037.39718-.79439.60741-.3037-.39719-.91047-1.185h0l-.9194-1.185-.30742-.39433Zm-3.74642-4.70057.3146.38862.944,1.17162h0l.93633,1.17293.311.39146-.78294.6221-.311-.39148-.9335-1.16935h0l-.94118-1.16808-.3146-.38863Zm-3.82935-4.63051.32151.38293.96357,1.15288h0l.957,1.15543.31808.38577-.77156.63615-.31808-.38577-.95415-1.152h0l-.96071-1.14946-.32151-.38292Zm-3.91261-4.56339.32825.37717.98327,1.13487h0l.9777,1.13859.32489.38006-.76012.64979-.32489-.38006-.97481-1.13523h0l-.98037-1.13153-.32825-.37717Zm-3.99373-4.49411.3349.37128,1.003,1.11691h0l.99836,1.12176.33158.37424-.74847.66317-.33158-.37424-.9954-1.11844h0l-1-1.1136-.33489-.37128Zm-4.07208-4.4203.34154.36518,1.02352,1.09938h0l1.01976,1.10532.33821.36825-.73651.67643-.33821-.36825-1.01669-1.102h0l-1.02044-1.09606-.34153-.36518Zm-4.15288-4.34607.34822.35881,1.04293,1.07971h0l1.04,1.08673.34486.362-.72407.68973-.34486-.362-1.03679-1.08337h0l-1.03969-1.07635-.34822-.35882Zm-4.23046-4.26376.355.35209,1.06263,1.0591h0l1.06052,1.06722.35158.3555-.711.70317-.35158-.3555-1.05713-1.0638h0l-1.05922-1.05569-.355-.35209Zm-4.32173-4.18833.362.34493,1.08273,1.037h0l1.08139,1.04629.35847.34857-.69714.71693-.35847-.34857-1.07777-1.04278h0L67.53577,123.269l-.362-.34494Zm-4.4054-4.09661.36918.33721,1.1041,1.014h0l1.10355,1.02444.36554.34115-.68229.73108-.36554-.34115-1.09964-1.0208h0L63.153,119.17905l-.36918-.33721Zm-4.478-3.985.37666.32883,1.12609.98888h0l1.12633,1.00059.37286.33313-.66626.74572-.37286-.33313-1.12206-.99679h0l-1.12178-.9851-.37665-.32883Zm-4.58759-3.89328.38454.31958,1.14981.96171h0l1.15091.97479.38054.32433-.64865.76109-.38055-.32433-1.14617-.97079h0l-1.14506-.95772-.38453-.31958Zm-4.6843-3.77369.39288.30927,1.17359.9304h0l1.17555.945.38864.31456-.62915.77729-.38864-.31456-1.17027-.94076h0l-1.16827-.92618-.39287-.30927Zm-4.79118-3.64283.40176.29764q.79911.592,1.60086,1.19857l.80234.61016.39725.30364-.60727.79449-.39725-.30364q-.799-.61073-1.59546-1.207l-.79574-.59265-.40177-.29764Zm-4.90885-3.49578.41129.28432q.81733.565,1.63823,1.14627l.82172.5853.40645.2912-.58239.8129-.40646-.2912q-.818-.58606-1.63258-1.156l-.81359-.56585-.4113-.2843Zm-5.02627-3.319.42156.26885q.83714.5339,1.67888,1.08611l.84284.55672.41633.27688-.55376.83268-.41634-.27689q-.83866-.55775-1.67277-1.09735l-.83289-.535-.42157-.26885ZM22.31331,89.44864l10.05881.26515L30.48,93.26l.64563.3768q.43066.25383.86277.51284l.86562.52314.427.26017-.52031.854-.427-.26016q-.86078-.52446-1.71578-1.02843L30.009,94.142l-1.87252,3.51278Z" style="fill:blue"/><g id="sleeve"><g id="sleeve-2" data-name="sleeve"><rect x="73.51749" y="45.54347" width="36.99996" height="118.99978" transform="translate(-47.36069 96.38015) rotate(-45.22509)" style="fill:#efefef"/><path d="M62.8121,50.71083l83.76614,83.10977-25.35551,25.55577L37.45657,76.2666,62.8121,50.71083m-.00556-1.4142L36.04237,76.27216l85.18592,84.51841L147.99244,133.815l-85.1859-84.5184Z"/></g><path id="shadow" d="M122.30036,143.66883c-.5641-.50038-69.2774-67.6652-68.27673-70.81741s7.50281-9.64018,5.6351-9.10226-10.38107,8.918-8.6545,13.00631c1.48765,3.52256,51.787,56.36145,67.1517,72.13722,3.248,3.33485,15.02364-7.15322,14.84225-7.719S124.10958,145.49582,122.30036,143.66883Z" style="fill:#dbd9d9;fill-rule:evenodd"/></g><g id="timer"><path d="M20,29.24512a9.24512,9.24512,0,0,1,0-18.49024H50a9.24512,9.24512,0,0,1,0,18.49024Z" style="fill:#fff;fill-rule:evenodd"/><path d="M50,11.5102a8.4898,8.4898,0,0,1,0,16.9796H20a8.4898,8.4898,0,0,1,0-16.9796H50M50,10H20A10.02939,10.02939,0,0,0,10,20v0A10.02938,10.02938,0,0,0,20,30H50A10.02938,10.02938,0,0,0,60,20v0A10.02939,10.02939,0,0,0,50,10Z" style="fill:#ccc"/><path d="M28.75635,19.71875a8.09592,8.09592,0,0,1-.28418,2.27832,4.742,4.742,0,0,1-.77344,1.59277,3.10278,3.10278,0,0,1-1.1582.9375,3.47509,3.47509,0,0,1-2.86328,0,3.12871,3.12871,0,0,1-1.15137-.9375,4.7202,4.7202,0,0,1-.76953-1.59277,8.21412,8.21412,0,0,1-.28028-2.27832,8.24848,8.24848,0,0,1,.28028-2.28223,4.75787,4.75787,0,0,1,.76953-1.59961,3.12107,3.12107,0,0,1,1.15137-.9414,3.48518,3.48518,0,0,1,2.86328,0,3.09524,3.09524,0,0,1,1.1582.9414,4.77977,4.77977,0,0,1,.77344,1.59961A8.12976,8.12976,0,0,1,28.75635,19.71875Zm-1.29492,0A8.22187,8.22187,0,0,0,27.269,17.79a3.88415,3.88415,0,0,0-.51855-1.25684,1.95621,1.95621,0,0,0-.752-.68261,2.02144,2.02144,0,0,0-1.77833,0,1.92909,1.92909,0,0,0-.749.68261A3.90755,3.90755,0,0,0,22.95654,17.79a8.22192,8.22192,0,0,0-.19238,1.92871,8.18056,8.18056,0,0,0,.19238,1.9248,3.9108,3.9108,0,0,0,.51465,1.25293,1.929,1.929,0,0,0,.749.68262,2.02144,2.02144,0,0,0,1.77833,0,1.95616,1.95616,0,0,0,.752-.68262,3.8874,3.8874,0,0,0,.51855-1.25293A8.1805,8.1805,0,0,0,27.46143,19.71875Z"/><path d="M30.07275,18.71094a.88014.88014,0,0,1,.06641-.34375.86305.86305,0,0,1,.18164-.2793.87022.87022,0,0,1,.96289-.18945.89427.89427,0,0,1,.2793.18945.84217.84217,0,0,1,.18555.2793.88013.88013,0,0,1,.0664.34375.866.866,0,0,1-.0664.3457.84993.84993,0,0,1-.18555.27637.83693.83693,0,0,1-.2793.18554.90791.90791,0,0,1-.68652,0,.7966.7966,0,0,1-.27637-.18554.87722.87722,0,0,1-.248-.62207Zm0,5.25a.88014.88014,0,0,1,.06641-.34375.86305.86305,0,0,1,.18164-.2793.87022.87022,0,0,1,.96289-.18945.89427.89427,0,0,1,.2793.18945.84217.84217,0,0,1,.18555.2793.88013.88013,0,0,1,.0664.34375.866.866,0,0,1-.0664.3457.84993.84993,0,0,1-.18555.27637.83693.83693,0,0,1-.2793.18554.90791.90791,0,0,1-.68652,0,.7966.7966,0,0,1-.27637-.18554.87722.87722,0,0,1-.248-.62207Z"/><path d="M37.04346,14.58789a3.6602,3.6602,0,0,1,1.17578.18164,2.73927,2.73927,0,0,1,.92773.51758,2.35494,2.35494,0,0,1,.60547.8125,2.52119,2.52119,0,0,1,.2168,1.05664,2.7471,2.7471,0,0,1-.12207.85059,2.08138,2.08138,0,0,1-.34961.6582,2.115,2.115,0,0,1-.54981.47949,3.05278,3.05278,0,0,1-.7207.31445,2.722,2.722,0,0,1,1.47266.86817,2.34672,2.34672,0,0,1,.49414,1.52637,2.87516,2.87516,0,0,1-.2627,1.24609,2.79863,2.79863,0,0,1-.71777.94141,3.20161,3.20161,0,0,1-1.06055.59472,3.99056,3.99056,0,0,1-1.29785.207,4.10861,4.10861,0,0,1-1.36523-.20019,2.82062,2.82062,0,0,1-.959-.54883,2.91455,2.91455,0,0,1-.64453-.83008,6.252,6.252,0,0,1-.42676-1.03906L33.9917,22a.74032.74032,0,0,1,.29394-.0625.50125.50125,0,0,1,.248.05957.38062.38062,0,0,1,.165.18555c.00879.01855.01856.03808.02832.05957.00879.02051.01856.043.02734.0664q.09815.20363.23829.458a1.8915,1.8915,0,0,0,.37793.47949,2.02657,2.02657,0,0,0,.59179.37793,2.185,2.185,0,0,0,.87793.1543,2.299,2.299,0,0,0,.9209-.1709,2.02115,2.02115,0,0,0,.6582-.44531,1.86637,1.86637,0,0,0,.39551-.6084,1.81754,1.81754,0,0,0,.13281-.665,2.40744,2.40744,0,0,0-.10839-.74219,1.27559,1.27559,0,0,0-.39258-.58105,2.01092,2.01092,0,0,0-.78321-.38477A4.87022,4.87022,0,0,0,36.37842,20.04v-.90918a3.87924,3.87924,0,0,0,1.08887-.13379,2.121,2.121,0,0,0,.73828-.36328,1.35815,1.35815,0,0,0,.417-.55371,2.09964,2.09964,0,0,0-.00781-1.46973,1.45964,1.45964,0,0,0-.374-.53223,1.56766,1.56766,0,0,0-.56347-.31445,2.26874,2.26874,0,0,0-.70411-.10547,2.09563,2.09563,0,0,0-.69921.11231,1.91934,1.91934,0,0,0-.57129.31054,1.84984,1.84984,0,0,0-.416.47559,2.21077,2.21077,0,0,0-.252.59863.55753.55753,0,0,1-.168.293.44325.44325,0,0,1-.28711.09082q-.03516,0-.07324-.00293c-.02637-.002-.05469-.00586-.08789-.01074l-.65039-.11035a3.64978,3.64978,0,0,1,.37793-1.21387,2.89173,2.89173,0,0,1,.71-.88574,3.01578,3.01578,0,0,1,.9873-.542A3.76048,3.76048,0,0,1,37.04346,14.58789Z"/><path d="M48.52393,19.71875a8.09592,8.09592,0,0,1-.28418,2.27832,4.742,4.742,0,0,1-.77344,1.59277,3.10278,3.10278,0,0,1-1.1582.9375,3.47512,3.47512,0,0,1-2.86329,0,3.12868,3.12868,0,0,1-1.15136-.9375,4.7202,4.7202,0,0,1-.76953-1.59277,8.21412,8.21412,0,0,1-.28028-2.27832,8.24848,8.24848,0,0,1,.28028-2.28223,4.75787,4.75787,0,0,1,.76953-1.59961,3.121,3.121,0,0,1,1.15136-.9414,3.4852,3.4852,0,0,1,2.86329,0,3.09524,3.09524,0,0,1,1.1582.9414,4.77977,4.77977,0,0,1,.77344,1.59961A8.12976,8.12976,0,0,1,48.52393,19.71875Zm-1.29493,0A8.22192,8.22192,0,0,0,47.03662,17.79a3.88459,3.88459,0,0,0-.51855-1.25684,1.95616,1.95616,0,0,0-.752-.68261,2.02142,2.02142,0,0,0-1.77832,0,1.929,1.929,0,0,0-.749.68261A3.90755,3.90755,0,0,0,42.72412,17.79a8.22192,8.22192,0,0,0-.19238,1.92871,8.18056,8.18056,0,0,0,.19238,1.9248,3.9108,3.9108,0,0,0,.51465,1.25293,1.929,1.929,0,0,0,.749.68262,2.02142,2.02142,0,0,0,1.77832,0,1.95611,1.95611,0,0,0,.752-.68262,3.88785,3.88785,0,0,0,.51855-1.25293A8.18056,8.18056,0,0,0,47.229,19.71875Z"/></g></svg>