<svg id="nitrate_-_2L" data-name="nitrate - 2L" xmlns="http://www.w3.org/2000/svg" viewBox="0 0 226 200"><rect id="back" width="226" height="200" style="fill:none"/><g id="Layer_25_copy_6" data-name="Layer 25 copy 6"><g id="tablet"><circle id="tablet_inner" data-name="tablet inner" cx="103.028" cy="165.97686" r="3.5" style="fill:#fff"/><path id="tablet_outline" data-name="tablet outline" d="M103.94012,163.11888a3,3,0,1,1-3.7701,1.94586,3.00338,3.00338,0,0,1,3.7701-1.94586m.304-.95266a4,4,0,1,0,2.59449,5.02679,4,4,0,0,0-2.59449-5.02679Z" style="fill:#333"/></g><g id="test_tube" data-name="test tube"><rect id="water_25_" data-name="water 25%" x="84.72201" y="142.2631" width="45.5" height="13" transform="matrix(0.30404, -0.95266, 0.95266, 0.30404, -66.92418, 205.91782)" style="fill:#d1eef3;fill-opacity:0.25"/><path id="test_tube-2" data-name="test tube" d="M133.78652,86.04461,106.42314,171.784l-11.43193-3.64845,27.36339-85.7394,11.43192,3.64845m1.2567-.64862L121.706,81.13946,93.73452,168.78419l13.33724,4.25652L135.04322,85.396Z" style="fill:#333"/><rect id="water_fill_line" data-name="water fill line" x="113.88887" y="123.09009" width="1" height="8" transform="translate(-41.4633 197.42362) rotate(-72.29973)" style="fill:#333"/></g><g id="cap"><rect id="cap_fill" data-name="cap fill" x="119.33065" y="73.33874" width="19" height="17" transform="translate(11.6968 179.6885) rotate(-72.29973)" style="fill:#fff;fill-opacity:0.9"/><path id="cap_outline" data-name="cap outline" d="M138.53965,74.4404l-.95266-.304-.95266-.304-.95266-.304-1.90532-.60808-.95266-.304-1.90532-.60807-.95266-.304-1.90532-.60807-.95266-.304-.95266-.304-.95266-.304-1.90532-.60807L117.21634,88.629l17.14788,5.47267,6.08075-19.0532ZM133.71559,92.845,118.473,87.98038l5.47268-17.14789.95266.304-3.04038,9.5266.95266.304,3.04038-9.5266.95266.304-3.04038,9.5266.95266.304,3.04038-9.5266,1.90532.60807-3.04037,9.5266.95266.304,3.04037-9.5266,1.90532.60807-3.04037,9.5266.95266.304,3.04037-9.5266,1.90532.60808-3.04037,9.5266.95266.304,3.04037-9.5266.95266.304-3.04037,9.5266.95266.304,3.04037-9.5266.95266.304Z" style="fill:#333;fill-rule:evenodd"/></g><g id="sleeve"><rect x="57.02411" y="105.78151" width="119.00012" height="37.00022" transform="translate(-37.30186 197.50289) rotate(-72.29959)" style="fill:#efefef"/><path d="M117.31434,62.602,151.61012,73.5473,115.73368,185.96118,81.4379,175.01584,117.31434,62.602m-.64862-1.25669L80.18121,175.66446l36.20109,11.55342,36.48451-114.3192L116.66572,61.34526Z"/></g><path id="shadow" d="M137.13338,79.737c-.1888.73-28.71885,92.48332-31.98107,93.027s-11.99866-2.29293-10.6696-.87472,12.66565,5.18448,15.5201,1.78632c2.45944-2.9279,26.61449-71.7647,33.66831-92.626,1.49111-4.40988-13.2073-10.12154-13.62851-9.70252S137.93671,77.29448,137.13338,79.737Z" style="fill:#dbd9d9;fill-rule:evenodd"/></g><g style="isolation:isolate"><path d="M48.24072,64.69678a3.94224,3.94224,0,0,0,.81885-.07715,3.738,3.738,0,0,0,.63037-.18945,2.33562,2.33562,0,0,0,.46533-.248q.19263-.13623.33594-.249c.0957-.07422.17627-.1377.2417-.18848a.294.294,0,0,1,.1748-.07715.20258.20258,0,0,1,.105.02441.25482.25482,0,0,1,.07031.05957l.45459.56739a4.51938,4.51938,0,0,1-3.51367,1.50488,3.87269,3.87269,0,0,1-1.61036-.32227,3.41873,3.41873,0,0,1-1.20752-.89941,4.03585,4.03585,0,0,1-.75585-1.376,5.59671,5.59671,0,0,1-.26221-1.75683,6.78747,6.78747,0,0,1,.40576-2.39356,5.70806,5.70806,0,0,1,1.1167-1.86621,4.975,4.975,0,0,1,3.73437-1.64062,4.72594,4.72594,0,0,1,.96582.09082,3.36162,3.36162,0,0,1,.791.26562,3.16511,3.16511,0,0,1,.64746.41992,4.51371,4.51371,0,0,1,.54248.5459l-.44775.5459a.54211.54211,0,0,1-.126.11621.31592.31592,0,0,1-.17529.04492.39043.39043,0,0,1-.26563-.13964,2.64887,2.64887,0,0,0-.38183-.30469,2.89378,2.89378,0,0,0-.623-.30469,2.94057,2.94057,0,0,0-.99023-.13965,3.5902,3.5902,0,0,0-1.519.3252,3.54349,3.54349,0,0,0-1.22509.93164,4.47818,4.47818,0,0,0-.81543,1.46582,5.89909,5.89909,0,0,0-.29737,1.93262,4.42513,4.42513,0,0,0,.20313,1.39257,3.1309,3.1309,0,0,0,.56347,1.04688,2.45809,2.45809,0,0,0,.85743.66113A2.55344,2.55344,0,0,0,48.24072,64.69678Z" style="fill:blue"/><path d="M57.8374,65.71143h-.644a.37976.37976,0,0,1-.33252-.126.52752.52752,0,0,1-.0874-.30762l.126-1.4209a5.9272,5.9272,0,0,1-.54248.80567,3.75884,3.75884,0,0,1-.61572.61523,2.72344,2.72344,0,0,1-.68262.39258,2.02643,2.02643,0,0,1-.74218.13867,1.74451,1.74451,0,0,1-.7627-.16406,1.58305,1.58305,0,0,1-.585-.4834,2.351,2.351,0,0,1-.374-.78418,3.88061,3.88061,0,0,1-.1333-1.06738,4.811,4.811,0,0,1,.15771-1.22852,4.993,4.993,0,0,1,1.14453-2.10644,4.68579,4.68579,0,0,1,.90625-.77051,4.31509,4.31509,0,0,1,1.07471-.50391,4.02389,4.02389,0,0,1,1.2041-.17871,5.16845,5.16845,0,0,1,.88525.0752,3.61964,3.61964,0,0,1,.85059.25781ZM54.78564,64.773a1.23,1.23,0,0,0,.67188-.21,2.56553,2.56553,0,0,0,.623-.582,5.06568,5.06568,0,0,0,.54931-.88575,7.991,7.991,0,0,0,.45166-1.126l.30078-2.39844a.48526.48526,0,0,0-.3042-.124h-.29785a2.45836,2.45836,0,0,0-.812.13574,2.89738,2.89738,0,0,0-.73486.38086,3.27856,3.27856,0,0,0-.62305.583,3.81636,3.81636,0,0,0-.47949.74316,4.21936,4.21936,0,0,0-.31152.86231,3.93,3.93,0,0,0-.11182.93847Q53.70752,64.77344,54.78564,64.773Z" style="fill:blue"/><path d="M59.39111,68.11279l1.15528-9.499h.623a.3711.3711,0,0,1,.41993.41992l-.11915,1.51172a5.80161,5.80161,0,0,1,.58106-.83691,4.25063,4.25063,0,0,1,.66162-.63965,2.84159,2.84159,0,0,1,.72461-.41016,2.15109,2.15109,0,0,1,.77-.14355,1.672,1.672,0,0,1,1.40674.6582,3.12489,3.12489,0,0,1,.5039,1.9248,5.66175,5.66175,0,0,1-.11865,1.14844,5.88089,5.88089,0,0,1-.33984,1.09571,5.43093,5.43093,0,0,1-.53174.97265,4.20583,4.20583,0,0,1-.69336.78418,3.08209,3.08209,0,0,1-.8291.52149,2.38971,2.38971,0,0,1-.938.18847,2.20159,2.20159,0,0,1-.959-.206,1.9641,1.9641,0,0,1-.728-.5918l-.37793,3.10156Zm4.34717-8.59668a1.31486,1.31486,0,0,0-.68262.21,2.81347,2.81347,0,0,0-.66845.58789,5.08258,5.08258,0,0,0-.59864.89649,7.34147,7.34147,0,0,0-.47949,1.127l-.22363,1.80567a1.47658,1.47658,0,0,0,.64014.543,1.95388,1.95388,0,0,0,.75976.15722,1.55893,1.55893,0,0,0,.686-.1543,2.16455,2.16455,0,0,0,.58789-.416,3.02871,3.02871,0,0,0,.47607-.61621,4.28328,4.28328,0,0,0,.35352-.75586,5.19724,5.19724,0,0,0,.22021-.833,4.78314,4.78314,0,0,0,.07715-.85058,2.21808,2.21808,0,0,0-.30078-1.26661A.9705.9705,0,0,0,63.73828,59.51611Z" style="fill:blue"/><path d="M74.86133,65.71143h-.644a.37976.37976,0,0,1-.33252-.126.52752.52752,0,0,1-.08741-.30762l.126-1.4209a5.92812,5.92812,0,0,1-.54248.80567,3.75962,3.75962,0,0,1-.61572.61523,2.72379,2.72379,0,0,1-.68262.39258,2.02644,2.02644,0,0,1-.74219.13867,1.74446,1.74446,0,0,1-.76269-.16406,1.583,1.583,0,0,1-.585-.4834,2.35079,2.35079,0,0,1-.374-.78418,3.881,3.881,0,0,1-.1333-1.06738,4.811,4.811,0,0,1,.15772-1.22852A4.993,4.993,0,0,1,70.7876,59.9751a4.68549,4.68549,0,0,1,.90625-.77051,4.31486,4.31486,0,0,1,1.0747-.50391,4.024,4.024,0,0,1,1.20411-.17871,5.16854,5.16854,0,0,1,.88525.0752,3.61978,3.61978,0,0,1,.85059.25781ZM71.80957,64.773a1.23,1.23,0,0,0,.67188-.21,2.56567,2.56567,0,0,0,.623-.582,5.0657,5.0657,0,0,0,.54932-.88575,7.991,7.991,0,0,0,.45166-1.126l.30078-2.39844a.48528.48528,0,0,0-.3042-.124H73.8042a2.45832,2.45832,0,0,0-.812.13574,2.8976,2.8976,0,0,0-.73487.38086,3.27851,3.27851,0,0,0-.623.583,3.8159,3.8159,0,0,0-.47949.74316,4.21938,4.21938,0,0,0-.31153.86231,3.93,3.93,0,0,0-.11181.93847Q70.73145,64.77344,71.80957,64.773Z" style="fill:blue"/><path d="M76.71631,65.71143l.84717-7.09766H78.186a.37125.37125,0,0,1,.42041.41992l-.105,1.37207a4.39016,4.39016,0,0,1,1.27735-1.41406,2.61244,2.61244,0,0,1,1.47363-.47656,1.50352,1.50352,0,0,1,1.22852.53222,2.3964,2.3964,0,0,1,.4375,1.55371q0,.14063-.00733.28711c-.00439.09864-.01367.20118-.02783.3086l-.53223,4.51465h-1.2456l.53174-4.51465c.00927-.09375.01758-.1836.02441-.26953.00733-.08692.01074-.169.01074-.249a1.38539,1.38539,0,0,0-.21386-.85058.7925.7925,0,0,0-.66846-.27637,1.45205,1.45205,0,0,0-.68213.18262,2.64794,2.64794,0,0,0-.66846.51367,4.17386,4.17386,0,0,0-.59863.80566,5.658,5.658,0,0,0-.47266,1.05274l-.40576,3.60547Z" style="fill:blue"/><path d="M88.875,65.71143a.3786.3786,0,0,1-.33252-.126.524.524,0,0,1-.0874-.30762l.13281-1.47754a5.73952,5.73952,0,0,1-.58105.82617,4.24526,4.24526,0,0,1-.66114.63379,2.90466,2.90466,0,0,1-.72119.40528,2.10606,2.10606,0,0,1-.75928.14355,1.66419,1.66419,0,0,1-1.41064-.66113,3.14285,3.14285,0,0,1-.50049-1.92188,5.62565,5.62565,0,0,1,.11914-1.14746A5.94989,5.94989,0,0,1,84.4126,60.979a5.43244,5.43244,0,0,1,.53174-.97656,4.11725,4.11725,0,0,1,.69336-.78027,3.13385,3.13385,0,0,1,.8291-.51758,2.39037,2.39037,0,0,1,.938-.18945,2.20438,2.20438,0,0,1,.94873.20312,2.03656,2.03656,0,0,1,.73144.58106l.48291-3.89844H90.793L89.519,65.71143Zm-2.541-.90332a1.28927,1.28927,0,0,0,.6753-.20606,2.82711,2.82711,0,0,0,.6582-.57422,4.934,4.934,0,0,0,.59522-.875,7.00882,7.00882,0,0,0,.47949-1.10937l.231-1.876a1.49256,1.49256,0,0,0-.6372-.52539,1.94128,1.94128,0,0,0-.749-.15332,1.63346,1.63346,0,0,0-.99755.3291,2.87333,2.87333,0,0,0-.75586.84961,4.45991,4.45991,0,0,0-.4795,1.166,5.01516,5.01516,0,0,0-.168,1.2666,2.23417,2.23417,0,0,0,.30078,1.27051A.96915.96915,0,0,0,86.334,64.80811Z" style="fill:blue"/><path d="M93.96338,64.94189a.88893.88893,0,0,1,.06641-.34375.8495.8495,0,0,1,.18554-.27929.90444.90444,0,0,1,.27637-.18946.843.843,0,0,1,.34668-.07031.82172.82172,0,0,1,.33935.07031.90019.90019,0,0,1,.46582.46875.85678.85678,0,0,1,.06983.34375.84264.84264,0,0,1-.06983.34571.9082.9082,0,0,1-.189.27636.86667.86667,0,0,1-.61621.25293.87451.87451,0,0,1-.34668-.06738.84475.84475,0,0,1-.27637-.18555.85749.85749,0,0,1-.18554-.27636A.8744.8744,0,0,1,93.96338,64.94189Zm3.59814,0a.88912.88912,0,0,1,.06641-.34375.842.842,0,0,1,.18555-.27929.89853.89853,0,0,1,.27636-.18946.84136.84136,0,0,1,.34668-.07031.82338.82338,0,0,1,.33936.07031.89869.89869,0,0,1,.27637.18946.882.882,0,0,1,.189.27929.84889.84889,0,0,1,.07031.34375.835.835,0,0,1-.07031.34571.89132.89132,0,0,1-.189.27636.83976.83976,0,0,1-.27637.18555.854.854,0,0,1-.33936.06738.87283.87283,0,0,1-.34668-.06738.83961.83961,0,0,1-.27636-.18555.84973.84973,0,0,1-.18555-.27636A.87457.87457,0,0,1,97.56152,64.94189Zm3.605,0a.88912.88912,0,0,1,.06641-.34375.87219.87219,0,0,1,.18213-.27929.86948.86948,0,0,1,.9624-.18946.89511.89511,0,0,1,.46924.46875.85677.85677,0,0,1,.06982.34375.84264.84264,0,0,1-.06982.34571.90116.90116,0,0,1-.18945.27636.82947.82947,0,0,1-.27979.18555.90679.90679,0,0,1-.686,0,.792.792,0,0,1-.27637-.18555.87479.87479,0,0,1-.24854-.62207Z" style="fill:blue"/></g></svg>