<svg id="nitrate_-_2W" data-name="nitrate - 2W" xmlns="http://www.w3.org/2000/svg" viewBox="0 0 226 200"><rect id="back" width="226" height="200" style="fill:none"/><g id="_mix_for_2_minutes_until_the_tablet_dissolves_" data-name="… mix for 2 minutes until the tablet dissolves …" style="isolation:isolate"><path d="M133.38281,54.72314a.88018.88018,0,0,1,.06641-.34375.84182.84182,0,0,1,.18555-.27929.89274.89274,0,0,1,.27636-.18946.843.843,0,0,1,.34668-.07031.81946.81946,0,0,1,.33887.07031.90869.90869,0,0,1,.27734.18946.89723.89723,0,0,1,.18848.27929.84889.84889,0,0,1,.07031.34375.835.835,0,0,1-.07031.34571.907.907,0,0,1-.18848.27636.86891.86891,0,0,1-.61621.25293.87454.87454,0,0,1-.34668-.06738.83458.83458,0,0,1-.27636-.18555.84957.84957,0,0,1-.18555-.27636A.866.866,0,0,1,133.38281,54.72314Zm3.59766,0a.89806.89806,0,0,1,.06641-.34375.85719.85719,0,0,1,.18554-.27929.90444.90444,0,0,1,.27637-.18946.843.843,0,0,1,.34668-.07031.82731.82731,0,0,1,.33984.07031.90444.90444,0,0,1,.27637.18946.88075.88075,0,0,1,.18848.27929.84905.84905,0,0,1,.07031.34375.83513.83513,0,0,1-.07031.34571.89.89,0,0,1-.18848.27636.84475.84475,0,0,1-.27637.18555.85814.85814,0,0,1-.33984.06738.87451.87451,0,0,1-.34668-.06738.84475.84475,0,0,1-.27637-.18555.86543.86543,0,0,1-.18554-.27636A.88312.88312,0,0,1,136.98047,54.72314Zm3.60547,0a.88017.88017,0,0,1,.0664-.34375.86317.86317,0,0,1,.18164-.27929.87028.87028,0,0,1,.9629-.18946.8965.8965,0,0,1,.46874.46875.84889.84889,0,0,1,.07032.34375.835.835,0,0,1-.07032.34571.89254.89254,0,0,1-.18945.27636.82728.82728,0,0,1-.27929.18555.90806.90806,0,0,1-.68653,0,.79663.79663,0,0,1-.27637-.18555.87711.87711,0,0,1-.248-.62207Z" style="fill:blue"/><path d="M147.06055,54.15576c0-.02832.001-.06445.0039-.1084.002-.04492.00684-.1084.01367-.19238s.01758-.19434.03126-.3291c.01367-.13574.03515-.3125.06347-.53223l.44043-3.54883h-.791a.219.219,0,0,1-.15039-.05273.207.207,0,0,1-.05958-.16406c0-.01465.00293-.042.00684-.084q.00732-.063.01758-.14355c.00683-.05371.01465-.1084.02148-.165q.01026-.08349.01758-.16113l1.0918-.14649.52539-2.1914a.32936.32936,0,0,1,.10449-.1709.27714.27714,0,0,1,.18945-.06641h.65723l-.30762,2.44238h1.86231l-.10547.90332h-1.86914l-.42676,3.48633c-.02344.19141-.041.34473-.05273.46192-.01172.11621-.02051.21-.02735.27929-.00781.07032-.01172.11914-.01465.14746-.00195.02832-.00293.04883-.00293.0625a.74227.74227,0,0,0,.16407.5293.59469.59469,0,0,0,.45117.1709.90654.90654,0,0,0,.32226-.05273,1.3344,1.3344,0,0,0,.24219-.11524c.06739-.042.124-.08008.1709-.11523a.21914.21914,0,0,1,.126-.05274.13017.13017,0,0,1,.08789.02832.36307.36307,0,0,1,.0664.09082l.25879.59473a2.51442,2.51442,0,0,1-.77343.47266,2.39683,2.39683,0,0,1-.87891.17187,1.49412,1.49412,0,0,1-1.07031-.37109A1.452,1.452,0,0,1,147.06055,54.15576Z" style="fill:blue"/><path d="M151.2959,55.49268,152.541,45.18213h1.24609l-.58106,4.78711a4.20158,4.20158,0,0,1,1.22852-1.249,2.57442,2.57442,0,0,1,1.38281-.42382,1.509,1.509,0,0,1,1.23926.53222,2.39732,2.39732,0,0,1,.43359,1.54688c0,.09375-.00195.19043-.00683.291-.00488.09961-.01367.20411-.02832.31153l-.53125,4.51465h-1.2461L156.209,50.978c.00977-.09375.01758-.1836.0254-.26953.00683-.08692.00976-.169.00976-.249a1.40618,1.40618,0,0,0-.21289-.85351.797.797,0,0,0-.67578-.28028,1.40974,1.40974,0,0,0-.64746.17188,2.6264,2.6264,0,0,0-.64746.48633,4.07752,4.07752,0,0,0-.58789.75976,5.60969,5.60969,0,0,0-.47657.99024l-.45507,3.75879Z" style="fill:blue"/><path d="M164.3291,49.92041a1.91583,1.91583,0,0,1-.18848.85059,1.77282,1.77282,0,0,1-.69335.70019,5.16876,5.16876,0,0,1-1.38575.543,15.29872,15.29872,0,0,1-2.26855.37012c-.00391.05176-.00684.10156-.00684.15136v.1504a2.18424,2.18424,0,0,0,.41016,1.43066,1.512,1.512,0,0,0,1.23535.49414,2.32644,2.32644,0,0,0,.59863-.07031,2.59658,2.59658,0,0,0,.46875-.1709,2.1407,2.1407,0,0,0,.36426-.22461c.10449-.08106.20117-.15625.29-.22363s.16992-.125.24512-.17188a.41727.41727,0,0,1,.22363-.07031.308.308,0,0,1,.23145.11914l.30761.38574a6.37389,6.37389,0,0,1-.69629.63281,4.04429,4.04429,0,0,1-.69629.4375,3.10682,3.10682,0,0,1-.74609.25586,4.11043,4.11043,0,0,1-.83594.08008,2.78285,2.78285,0,0,1-1.09179-.20312,2.24519,2.24519,0,0,1-.81934-.57715,2.59305,2.59305,0,0,1-.51758-.90625,3.63965,3.63965,0,0,1-.18261-1.19043,5.26654,5.26654,0,0,1,.11523-1.08789,5.136,5.136,0,0,1,.33594-1.0332,4.70773,4.70773,0,0,1,.53906-.90918,3.631,3.631,0,0,1,.72852-.72461,3.39306,3.39306,0,0,1,.90332-.4795,3.13073,3.13073,0,0,1,1.06054-.17578,2.54828,2.54828,0,0,1,.93067.1543,1.973,1.973,0,0,1,.64355.39258,1.56852,1.56852,0,0,1,.375.52441A1.40435,1.40435,0,0,1,164.3291,49.92041Zm-2.1416-.7207a1.82586,1.82586,0,0,0-.8125.18164,2.156,2.156,0,0,0-.65723.501,3.03051,3.03051,0,0,0-.49023.749,4.47055,4.47055,0,0,0-.31543.92773,13.65657,13.65657,0,0,0,1.72949-.30469,4.31289,4.31289,0,0,0,1.001-.37109,1.08394,1.08394,0,0,0,.46191-.43066,1.10309,1.10309,0,0,0,.11231-.4834.70646.70646,0,0,0-.23535-.51074.968.968,0,0,0-.31836-.18555A1.36374,1.36374,0,0,0,162.1875,49.19971Z" style="fill:blue"/><path d="M165.11328,55.49268l.84766-7.09766h.62207a.3716.3716,0,0,1,.4209.41992l-.10547,1.37207a4.39014,4.39014,0,0,1,1.27734-1.41406,2.61244,2.61244,0,0,1,1.47363-.47656,1.50286,1.50286,0,0,1,1.22852.53222,2.39355,2.39355,0,0,1,.4375,1.55371c0,.09375-.00195.18946-.00684.28711-.00488.09864-.01367.20118-.02832.3086l-.53222,4.51465h-1.24512l.53125-4.51465c.00977-.09375.01758-.1836.02441-.26953.00782-.08692.01075-.169.01075-.249a1.38532,1.38532,0,0,0-.21387-.85058.79088.79088,0,0,0-.668-.27637,1.45537,1.45537,0,0,0-.68262.18262,2.646,2.646,0,0,0-.668.51367,4.15423,4.15423,0,0,0-.59863.80566,5.658,5.658,0,0,0-.47266,1.05274l-.40624,3.60547Z" style="fill:blue"/><path d="M175.249,48.40186h.93067a.3571.3571,0,0,1,.22754.06933.27525.27525,0,0,1,.10156.18945l.65137,4.56446a3.64906,3.64906,0,0,1,.03808.47168c.002.15234.00586.30273.01074.45215q.08351-.22413.17188-.45215.08643-.22705.18457-.47168l1.93945-4.59278a.403.403,0,0,1,.13672-.1748.3463.3463,0,0,1,.21289-.07031h.51856a.31133.31133,0,0,1,.21679.07031.27581.27581,0,0,1,.09082.1748l.791,4.59278c.02832.16308.05078.32129.06641.47558.0166.1543.03222.30762.04589.46192.04688-.14942.0918-.30176.13672-.458a4.72824,4.72824,0,0,1,.16407-.47949l1.792-4.56446a.41553.41553,0,0,1,.13965-.18554.36632.36632,0,0,1,.22461-.07324h.8955l-2.97461,7.09082h-.94531c-.10742,0-.1748-.07911-.20312-.23829l-.86036-4.80859c-.01464-.07519-.02636-.15039-.03515-.22754-.00977-.07715-.01856-.15332-.02832-.22754-.02344.0791-.04688.15625-.06934.23047-.02343.0752-.05176.15235-.084.23145l-2.05176,4.80175c-.06543.15918-.1582.23829-.2793.23829h-.91015Z" style="fill:blue"/><path d="M190.32715,55.49268h-.64453a.37874.37874,0,0,1-.332-.126.52419.52419,0,0,1-.08789-.30762l.126-1.4209a5.97182,5.97182,0,0,1-.542.80567,3.78069,3.78069,0,0,1-.61621.61523,2.70672,2.70672,0,0,1-.68262.39258,2.02644,2.02644,0,0,1-.74219.13867,1.746,1.746,0,0,1-.76269-.16406,1.58687,1.58687,0,0,1-.585-.4834,2.36984,2.36984,0,0,1-.374-.78418,3.88194,3.88194,0,0,1-.13281-1.06738,4.83246,4.83246,0,0,1,.15723-1.22852,5.00728,5.00728,0,0,1,1.14453-2.10644,4.70013,4.70013,0,0,1,.90625-.77051,4.32615,4.32615,0,0,1,1.0752-.50391,4.0192,4.0192,0,0,1,1.2041-.17871,5.167,5.167,0,0,1,.88476.0752,3.61978,3.61978,0,0,1,.85059.25781Zm-3.05176-.93848a1.23119,1.23119,0,0,0,.67188-.21,2.57436,2.57436,0,0,0,.623-.582,5.06507,5.06507,0,0,0,.54883-.88575,7.9327,7.9327,0,0,0,.45215-1.126l.30078-2.39844a.48544.48544,0,0,0-.30469-.124h-.29785a2.45757,2.45757,0,0,0-.81152.13574,2.89223,2.89223,0,0,0-.73535.38086,3.27826,3.27826,0,0,0-.623.583,3.83926,3.83926,0,0,0-.47949.74316,4.2486,4.2486,0,0,0-.31153.86231,3.95538,3.95538,0,0,0-.11132.93847Q186.19727,54.55469,187.27539,54.5542Z" style="fill:blue"/><path d="M194.42871,48.40186l-.85351,7.09082h-1.22559l.85449-7.09082Zm.46875-2.22657a.79273.79273,0,0,1-.07324.33985.96792.96792,0,0,1-.19629.28027.94473.94473,0,0,1-.27637.19238.76524.76524,0,0,1-.32129.07032.75225.75225,0,0,1-.31543-.07032.8666.8666,0,0,1-.26953-.19238.99327.99327,0,0,1-.18554-.28027.82065.82065,0,0,1-.07032-.33985.8476.8476,0,0,1,.07032-.34277.95284.95284,0,0,1,.46191-.47949.72717.72717,0,0,1,.31543-.07324.76523.76523,0,0,1,.32129.07031.9255.9255,0,0,1,.27734.19238.89881.89881,0,0,1,.19238.28711A.88477.88477,0,0,1,194.89746,46.17529Z" style="fill:blue"/><path d="M196.20605,54.15576c0-.02832.002-.06445.00391-.1084.00195-.04492.00684-.1084.01367-.19238.00782-.084.01758-.19434.03223-.3291.01367-.13574.03418-.3125.0625-.53223l.44141-3.54883h-.791a.21735.21735,0,0,1-.15039-.05273.207.207,0,0,1-.05957-.16406.84054.84054,0,0,1,.00683-.084q.00733-.063.01758-.14355c.00684-.05371.01368-.1084.02051-.165q.01026-.08349.01758-.16113l1.0918-.14649.52539-2.1914a.33088.33088,0,0,1,.10547-.1709.2746.2746,0,0,1,.18847-.06641h.6582L198.082,48.5415h1.86231l-.1045.90332H197.9707l-.42675,3.48633c-.02344.19141-.041.34473-.05274.46192-.01172.11621-.02148.21-.02832.27929-.00684.07032-.01172.11914-.01367.14746-.00293.02832-.00391.04883-.00391.0625a.738.738,0,0,0,.165.5293.59472.59472,0,0,0,.45117.1709.91418.91418,0,0,0,.32227-.05273,1.32336,1.32336,0,0,0,.24121-.11524c.06738-.042.125-.08008.17188-.11523a.21424.21424,0,0,1,.126-.05274.12579.12579,0,0,1,.08692.02832.34073.34073,0,0,1,.0664.09082l.25977.59473a2.53073,2.53073,0,0,1-.77442.47266,2.38787,2.38787,0,0,1-.87793.17187,1.49662,1.49662,0,0,1-1.07129-.37109A1.45967,1.45967,0,0,1,196.20605,54.15576Z" style="fill:blue"/><path d="M140.65527,62.79346a.67645.67645,0,0,1-.21289.417.816.816,0,0,1-.56347.16406h-3.18555l-.80469,2.69531a6.743,6.743,0,0,1,1.4209-.168,3.76194,3.76194,0,0,1,1.28418.19921,2.5813,2.5813,0,0,1,.917.54981,2.21514,2.21514,0,0,1,.54981.8291,2.93218,2.93218,0,0,1,.18164,1.04688,3.83229,3.83229,0,0,1-.3252,1.5996,3.70391,3.70391,0,0,1-.87793,1.22071,3.96854,3.96854,0,0,1-1.292.78125,4.42223,4.42223,0,0,1-1.55762.27637,3.99507,3.99507,0,0,1-.833-.084,3.93306,3.93306,0,0,1-.72461-.22754,3.51655,3.51655,0,0,1-1.08789-.73144l.42675-.51856a.44484.44484,0,0,1,.34278-.168.5584.5584,0,0,1,.29785.1084c.10937.07227.24219.15235.39844.23828a3.3187,3.3187,0,0,0,.56738.23828,2.60556,2.60556,0,0,0,.80176.1084,2.82865,2.82865,0,0,0,1.06738-.19629,2.413,2.413,0,0,0,1.37891-1.39648,3.00151,3.00151,0,0,0,.19238-1.0957,1.99747,1.99747,0,0,0-.126-.72461,1.48794,1.48794,0,0,0-.37793-.55957,1.69746,1.69746,0,0,0-.63672-.36036,2.93974,2.93974,0,0,0-.91015-.126,5.119,5.119,0,0,0-.75293.05957,7.91411,7.91411,0,0,0-.87793.18555l-.72168-.21778,1.3789-4.67578h4.73243Z" style="fill:blue"/><path d="M144.38672,72.29248l.85351-7.09766h.62305a.37091.37091,0,0,1,.41992.41993l-.09765,1.2666a4.37364,4.37364,0,0,1,1.14746-1.333,2.205,2.205,0,0,1,1.3164-.45215,1.2084,1.2084,0,0,1,1.06446.49414,2.4556,2.4556,0,0,1,.34277,1.41016A4.14591,4.14591,0,0,1,151.25,65.562a2.37541,2.37541,0,0,1,1.38965-.46582,1.37833,1.37833,0,0,1,1.17187.51172,2.38465,2.38465,0,0,1,.38868,1.46973c0,.10742-.00489.21972-.01368.33593-.00976.11622-.02148.23829-.03515.36426l-.53223,4.51465h-1.22461l.53223-4.51465a5.30513,5.30513,0,0,0,.042-.623,1.35087,1.35087,0,0,0-.17578-.77344.66728.66728,0,0,0-.58789-.249,1.34337,1.34337,0,0,0-.60156.15039,2.15627,2.15627,0,0,0-.58106.44141,3.49754,3.49754,0,0,0-.52148.7207,5.844,5.844,0,0,0-.43067.99024l-.45508,3.85742h-1.23144l.53906-4.51465c.01367-.126.02539-.24512.03418-.35742.00977-.1123.01465-.2168.01465-.31445a1.30839,1.30839,0,0,0-.165-.73535.65016.65016,0,0,0-.57715-.23829,1.35318,1.35318,0,0,0-.64746.168,2.11542,2.11542,0,0,0-.58789.48633,3.96186,3.96186,0,0,0-.51465.77734,7.51164,7.51164,0,0,0-.43457,1.03223l-.44043,3.69629Z" style="fill:blue"/><path d="M157.60254,65.20166l-.85449,7.09082h-1.22461l.85351-7.09082Zm.46875-2.22656a.79266.79266,0,0,1-.07324.33984,1.0071,1.0071,0,0,1-.19629.28027.95784.95784,0,0,1-.27637.19239.76651.76651,0,0,1-.32227.07031.75563.75563,0,0,1-.31542-.07031.85131.85131,0,0,1-.26856-.19239.973.973,0,0,1-.18555-.28027.82072.82072,0,0,1-.07031-.33984.84781.84781,0,0,1,.07031-.34278.94257.94257,0,0,1,.46192-.47949.723.723,0,0,1,.31445-.07324.76651.76651,0,0,1,.32227.07031.92112.92112,0,0,1,.27636.19239.88325.88325,0,0,1,.19239.2871A.86858.86858,0,0,1,158.07129,62.9751Z" style="fill:blue"/><path d="M158.76465,72.29248l.84668-7.09766h.623a.37091.37091,0,0,1,.41992.41993l-.1045,1.37207a4.3902,4.3902,0,0,1,1.27735-1.41407,2.61244,2.61244,0,0,1,1.47363-.47656,1.50418,1.50418,0,0,1,1.22852.53223,2.39922,2.39922,0,0,1,.4375,1.55371c0,.09375-.00293.18945-.00782.28711-.0039.09863-.01367.20117-.02734.30859l-.53223,4.51465h-1.24609l.53223-4.51465c.00879-.09375.01757-.18359.02441-.26953.00684-.08691.01074-.16894.01074-.249a1.3854,1.3854,0,0,0-.21386-.85059.79415.79415,0,0,0-.669-.27637,1.44873,1.44873,0,0,0-.68164.18262,2.65011,2.65011,0,0,0-.66895.51367,4.19419,4.19419,0,0,0-.59863.80567A5.65755,5.65755,0,0,0,160.416,68.687l-.40528,3.60547Z" style="fill:blue"/><path d="M168.10938,65.20166l-.53223,4.50781c-.00977.09375-.01758.18164-.02442.26563s-.01074.166-.01074.24511a1.40234,1.40234,0,0,0,.21387.8545.79334.79334,0,0,0,.6748.27929,1.43482,1.43482,0,0,0,.66211-.1748,2.61932,2.61932,0,0,0,.65821-.49707,4.08051,4.08051,0,0,0,.59082-.77637,5.81142,5.81142,0,0,0,.47656-1.01562l.44043-3.68848h1.23926l-.85352,7.09082h-.61621a.514.514,0,0,1-.33594-.09766.36639.36639,0,0,1-.11914-.30175c0-.00391.002-.0459.00684-.126.00488-.0791.01074-.165.01758-.25879.00683-.09277.01367-.17969.0205-.25879.00782-.0791.01075-.12109.01075-.126l.04882-.56739a4.43322,4.43322,0,0,1-1.2666,1.36914,2.57022,2.57022,0,0,1-1.44238.46485,1.49357,1.49357,0,0,1-1.22852-.53907,2.40422,2.40422,0,0,1-.4375-1.54687c0-.09277.00293-.18848.00782-.28711.0039-.09766.01367-.2002.02734-.30762l.53223-4.50781Z" style="fill:blue"/><path d="M174.09375,70.95557c0-.02832.001-.06446.00391-.1084.002-.04492.00683-.1084.01367-.19238s.01758-.19434.03125-.32911c.01367-.13574.03515-.3125.06347-.53222l.44043-3.54883h-.791a.21907.21907,0,0,1-.15039-.05274.207.207,0,0,1-.05957-.16406c0-.01465.00293-.042.00683-.084q.00733-.063.01758-.14356c.00684-.05371.01465-.1084.02149-.165q.01025-.08349.01757-.16113l1.0918-.14648.52539-2.19141a.32953.32953,0,0,1,.10449-.1709.27714.27714,0,0,1,.18946-.0664h.65722l-.30761,2.44238h1.8623l-.10547.90332h-1.86914l-.42676,3.48633c-.02343.1914-.041.34472-.05273.46191-.01172.11621-.02051.21-.02734.2793-.00782.07031-.01172.11914-.01465.14746-.002.02832-.00293.04883-.00293.0625a.74233.74233,0,0,0,.16406.5293.59475.59475,0,0,0,.45117.17089.90641.90641,0,0,0,.32227-.05273,1.3344,1.3344,0,0,0,.24219-.11523c.06738-.042.124-.08008.17089-.11524a.21912.21912,0,0,1,.126-.05273.1301.1301,0,0,1,.08789.02832.36312.36312,0,0,1,.06641.09082l.25879.59472a2.5144,2.5144,0,0,1-.77344.47266,2.39656,2.39656,0,0,1-.87891.17188,1.49412,1.49412,0,0,1-1.07031-.3711A1.452,1.452,0,0,1,174.09375,70.95557Z" style="fill:blue"/><path d="M183.94336,66.72021a1.91653,1.91653,0,0,1-.18945.85059,1.76976,1.76976,0,0,1-.69239.7002,5.17665,5.17665,0,0,1-1.38672.543,15.30227,15.30227,0,0,1-2.26757.37012c-.00489.05176-.00684.10156-.00684.15137v.15039a2.18976,2.18976,0,0,0,.40918,1.43066,1.51333,1.51333,0,0,0,1.23535.49414,2.31534,2.31534,0,0,0,.59863-.07031,2.59506,2.59506,0,0,0,.46875-.1709,2.10218,2.10218,0,0,0,.36426-.22461c.10547-.08105.20215-.15625.291-.22363.08789-.06738.16992-.125.24414-.17187a.4203.4203,0,0,1,.22461-.07032.30467.30467,0,0,1,.23047.11914l.30859.38575a6.56071,6.56071,0,0,1-.69629.63281,4.05239,4.05239,0,0,1-.69726.4375,3.09978,3.09978,0,0,1-.74512.25586,4.12025,4.12025,0,0,1-.83692.08008A2.78967,2.78967,0,0,1,179.708,72.187a2.25331,2.25331,0,0,1-.81934-.57715,2.593,2.593,0,0,1-.51758-.90625,3.66632,3.66632,0,0,1-.18164-1.19043,5.20019,5.20019,0,0,1,.11524-1.08789,5.07581,5.07581,0,0,1,.33593-1.0332,4.6597,4.6597,0,0,1,.53907-.90918,3.627,3.627,0,0,1,.72754-.72461,3.40833,3.40833,0,0,1,.90332-.47949,3.13861,3.13861,0,0,1,1.06054-.17578,2.54118,2.54118,0,0,1,.93067.15429,1.96769,1.96769,0,0,1,.64453.39258,1.55171,1.55171,0,0,1,.374.52442A1.38921,1.38921,0,0,1,183.94336,66.72021Zm-2.14258-.7207a1.81882,1.81882,0,0,0-.81152.18164,2.17174,2.17174,0,0,0-.65821.501,3.05819,3.05819,0,0,0-.49023.749,4.46911,4.46911,0,0,0-.31445.92774,13.60408,13.60408,0,0,0,1.72851-.30469,4.29612,4.29612,0,0,0,1.001-.37109,1.07823,1.07823,0,0,0,.46191-.43067,1.08965,1.08965,0,0,0,.11231-.4834.68976.68976,0,0,0-.05567-.26172.7101.7101,0,0,0-.17871-.249.97814.97814,0,0,0-.31836-.18555A1.36975,1.36975,0,0,0,181.80078,65.99951Z" style="fill:blue"/><path d="M189.291,66.33545a.46262.46262,0,0,1-.11231.12207.23563.23563,0,0,1-.13965.03906.39042.39042,0,0,1-.21386-.07715c-.07715-.05078-.16993-.10839-.28028-.17187a2.29155,2.29155,0,0,0-.40234-.17481,2.01307,2.01307,0,0,0-1.14746.00684,1.42974,1.42974,0,0,0-.44824.24219,1.081,1.081,0,0,0-.291.36035.982.982,0,0,0-.10156.4375.66747.66747,0,0,0,.21777.52441,1.98846,1.98846,0,0,0,.5459.33985c.21875.0957.45605.18847.71.27636a3.65731,3.65731,0,0,1,.71094.33594,1.82073,1.82073,0,0,1,.5459.51856,1.414,1.414,0,0,1,.21679.81836,2.3596,2.3596,0,0,1-.19238.93847,2.32624,2.32624,0,0,1-.55273.78711,2.73645,2.73645,0,0,1-.86817.543,3.05387,3.05387,0,0,1-1.13769.20313,2.8261,2.8261,0,0,1-1.2002-.24219,2.48346,2.48346,0,0,1-.85059-.61914l.30762-.47559a.44141.44141,0,0,1,.13379-.14062.35958.35958,0,0,1,.19531-.04883.34739.34739,0,0,1,.22461.09765c.07422.06543.168.13965.2793.22071a1.72252,1.72252,0,0,0,1.07129.31836,1.72269,1.72269,0,0,0,.61914-.1045,1.46145,1.46145,0,0,0,.46973-.28027,1.19281,1.19281,0,0,0,.29394-.40918,1.25187,1.25187,0,0,0,.10156-.501.75256.75256,0,0,0-.21777-.5664,1.76373,1.76373,0,0,0-.5459-.35059c-.21875-.09277-.45508-.18066-.707-.26269a3.57944,3.57944,0,0,1-.707-.31446,1.71866,1.71866,0,0,1-.5459-.501,1.39293,1.39293,0,0,1-.2168-.81836,2.17592,2.17592,0,0,1,.17872-.86524,2.231,2.231,0,0,1,.51464-.73828,2.53207,2.53207,0,0,1,.81543-.51465,2.886,2.886,0,0,1,1.08106-.19238,2.77064,2.77064,0,0,1,1.124.21387,2.59974,2.59974,0,0,1,.83594.57715Z" style="fill:blue"/><path d="M194.99609,66.23779l-.707,5.82325-.32226,1.44921a.603.603,0,0,1-.64453.52539H192.833l.94433-7.77734-.69922-.09082a.481.481,0,0,1-.18945-.09766.232.232,0,0,1-.07031-.18261l.05664-.5459h1.01465l.084-.68555a3.51255,3.51255,0,0,1,.30469-1.082,2.6606,2.6606,0,0,1,.57422-.79785,2.34735,2.34735,0,0,1,.791-.49317,2.66911,2.66911,0,0,1,.95508-.168,2.1044,2.1044,0,0,1,.791.14355l-.11914.64063a.1326.1326,0,0,1-.09473.12207.71235.71235,0,0,1-.20605.02441h-.29395a1.72374,1.72374,0,0,0-.55664.08691,1.16209,1.16209,0,0,0-.45117.28321,1.56909,1.56909,0,0,0-.3291.50976,2.86325,2.86325,0,0,0-.18946.76758l-.084.64844h1.77148l-.11914.89648Z" style="fill:blue"/><path d="M199.63672,72.39014a2.76636,2.76636,0,0,1-1.06445-.19922,2.341,2.341,0,0,1-.833-.57715,2.67334,2.67334,0,0,1-.5459-.92383,3.67144,3.67144,0,0,1-.19629-1.24609,5.024,5.024,0,0,1,.28027-1.6875,4.5797,4.5797,0,0,1,.76661-1.38574,3.64151,3.64151,0,0,1,1.14843-.93848,3.06336,3.06336,0,0,1,1.43164-.34277,2.76489,2.76489,0,0,1,1.06347.19921,2.34728,2.34728,0,0,1,.833.57813,2.65548,2.65548,0,0,1,.5459.92773,3.67613,3.67613,0,0,1,.19629,1.24219,4.99882,4.99882,0,0,1-.28028,1.67969,4.57959,4.57959,0,0,1-.7666,1.38574,3.65647,3.65647,0,0,1-1.15137.94238A3.04952,3.04952,0,0,1,199.63672,72.39014Zm.1123-.97266a1.64518,1.64518,0,0,0,.93067-.28027,2.44988,2.44988,0,0,0,.71386-.74512,3.83754,3.83754,0,0,0,.45508-1.07422,4.96506,4.96506,0,0,0,.16114-1.27441,2.38861,2.38861,0,0,0-.38477-1.47657,1.32221,1.32221,0,0,0-1.11328-.49707,1.64886,1.64886,0,0,0-.93457.27637,2.44252,2.44252,0,0,0-.71094.74219,3.84158,3.84158,0,0,0-.45508,1.07422A4.96282,4.96282,0,0,0,198.251,69.436a2.41729,2.41729,0,0,0,.38086,1.48046A1.31863,1.31863,0,0,0,199.749,71.41748Z" style="fill:blue"/><path d="M204.14453,72.29248l.85352-7.09766h.623a.47814.47814,0,0,1,.3086.09082.341.341,0,0,1,.11133.28028c0,.01855-.001.04492-.00293.08008-.00293.03515-.00489.07129-.00782.10839-.00195.03711-.0039.07032-.00683.09766l-.00293.04981-.09863,1.28808a4.91139,4.91139,0,0,1,1.01855-1.51269A1.71821,1.71821,0,0,1,208.127,65.145a1.47837,1.47837,0,0,1,.58789.126l-.22363,1.19726a1.7113,1.7113,0,0,0-.63672-.13281,1.53789,1.53789,0,0,0-1.21094.66113,5.48048,5.48048,0,0,0-.88964,2.00586l-.39161,3.29Z" style="fill:blue"/><path d="M134.18066,87.75537c0-.02832.001-.06445.00391-.1084.00195-.04492.00684-.1084.01367-.19238s.01758-.19434.03125-.3291c.01367-.13574.03516-.3125.06348-.53223l.44043-3.54883h-.791a.21908.21908,0,0,1-.15039-.05273.207.207,0,0,1-.05957-.16406c0-.01465.00293-.042.00684-.084q.00732-.063.01758-.14355c.00683-.05371.01464-.1084.02148-.165q.01026-.0835.01758-.16113l1.0918-.14649.52539-2.1914a.32936.32936,0,0,1,.10449-.1709.27709.27709,0,0,1,.18945-.06641h.65723l-.30762,2.44238H137.919l-.10547.90332h-1.86914l-.42676,3.48633c-.02344.19141-.041.34473-.05274.46192-.01172.11621-.0205.21-.02734.27929-.00781.07032-.01172.11914-.01465.14746-.002.02832-.00293.04883-.00293.0625a.74233.74233,0,0,0,.16406.5293.59473.59473,0,0,0,.45118.1709.90631.90631,0,0,0,.32226-.05274,1.3344,1.3344,0,0,0,.24219-.11523c.06738-.042.124-.08008.1709-.11523a.21912.21912,0,0,1,.126-.05274.1302.1302,0,0,1,.0879.02832.36357.36357,0,0,1,.0664.09082l.25879.59473a2.51425,2.51425,0,0,1-.77344.47265,2.39655,2.39655,0,0,1-.8789.17188,1.49416,1.49416,0,0,1-1.07032-.37109A1.452,1.452,0,0,1,134.18066,87.75537Z" style="fill:blue"/><path d="M138.416,89.09229l1.24511-10.31055h1.2461l-.58106,4.78711a4.20134,4.20134,0,0,1,1.22852-1.249,2.5744,2.5744,0,0,1,1.38281-.42382,1.509,1.509,0,0,1,1.23926.53222,2.3973,2.3973,0,0,1,.43359,1.54688c0,.09375-.002.19043-.00683.291-.00489.09961-.01368.2041-.02832.31153l-.53125,4.51465h-1.2461l.53125-4.51465c.00977-.09375.01758-.1836.02539-.26953.00684-.08692.00977-.16895.00977-.249a1.40618,1.40618,0,0,0-.21289-.85351.797.797,0,0,0-.67578-.28028,1.40975,1.40975,0,0,0-.64747.17188,2.62658,2.62658,0,0,0-.64746.48633,4.07752,4.07752,0,0,0-.58789.75976,5.60967,5.60967,0,0,0-.47656.99024l-.45508,3.75879Z" style="fill:blue"/><path d="M151.44922,83.52a1.91583,1.91583,0,0,1-.18848.85059,1.77285,1.77285,0,0,1-.69336.70019,5.16854,5.16854,0,0,1-1.38574.543,15.29872,15.29872,0,0,1-2.26855.37012c-.00391.05175-.00684.10156-.00684.15136v.15039a2.18427,2.18427,0,0,0,.41016,1.43067,1.512,1.512,0,0,0,1.23535.49414,2.32644,2.32644,0,0,0,.59863-.07031,2.59658,2.59658,0,0,0,.46875-.1709,2.1407,2.1407,0,0,0,.36426-.22461c.10449-.08106.20117-.15625.29-.22363s.16992-.125.24511-.17188a.41731.41731,0,0,1,.22364-.07031.308.308,0,0,1,.23144.11914l.30762.38574a6.37481,6.37481,0,0,1-.69629.63281,4.04467,4.04467,0,0,1-.69629.4375,3.107,3.107,0,0,1-.74609.25586,4.11043,4.11043,0,0,1-.83594.08008,2.78291,2.78291,0,0,1-1.0918-.20312,2.24524,2.24524,0,0,1-.81933-.57715,2.593,2.593,0,0,1-.51758-.90625,3.63964,3.63964,0,0,1-.18262-1.19043,5.26655,5.26655,0,0,1,.11524-1.08789,5.13692,5.13692,0,0,1,.33593-1.03321,4.70837,4.70837,0,0,1,.53907-.90918,3.6312,3.6312,0,0,1,.72851-.7246,3.39321,3.39321,0,0,1,.90332-.4795,3.13079,3.13079,0,0,1,1.06055-.17578,2.54819,2.54819,0,0,1,.93066.1543,1.973,1.973,0,0,1,.64356.39258,1.56842,1.56842,0,0,1,.375.52441A1.40449,1.40449,0,0,1,151.44922,83.52Zm-2.1416-.7207a1.82583,1.82583,0,0,0-.8125.18164,2.156,2.156,0,0,0-.65723.501,3.03023,3.03023,0,0,0-.49023.749,4.47,4.47,0,0,0-.31543.92773,13.65657,13.65657,0,0,0,1.72949-.30469,4.31307,4.31307,0,0,0,1.001-.37109,1.08406,1.08406,0,0,0,.46191-.43066,1.10308,1.10308,0,0,0,.1123-.4834.70646.70646,0,0,0-.23535-.51074.96786.96786,0,0,0-.31836-.18555A1.36368,1.36368,0,0,0,149.30762,82.79932Z" style="fill:blue"/><path d="M159.48242,88.48291a3.2468,3.2468,0,0,1-.6543.42383,2.643,2.643,0,0,1-.68261.2207,4.343,4.343,0,0,1-.75977.0625,2.648,2.648,0,0,1-1.08886-.21,2.16148,2.16148,0,0,1-.791-.59082,2.61613,2.61613,0,0,1-.48242-.917,3.982,3.982,0,0,1-.165-1.17969,5.0875,5.0875,0,0,1,.26953-1.65234,4.62259,4.62259,0,0,1,.75293-1.39942,3.76182,3.76182,0,0,1,1.14746-.97363,3.005,3.005,0,0,1,1.46387-.36426,2.51717,2.51717,0,0,1,1.17578.249,2.47531,2.47531,0,0,1,.833.7246l-.39258.46875a.32442.32442,0,0,1-.10449.09083.27029.27029,0,0,1-.333-.05274,2.64421,2.64421,0,0,0-.24512-.19531,1.657,1.657,0,0,0-.37793-.19629,1.63808,1.63808,0,0,0-.584-.08789,1.72973,1.72973,0,0,0-.91407.26269,2.55347,2.55347,0,0,0-.75195.71778A3.67159,3.67159,0,0,0,156.29,84.9624a4.68564,4.68564,0,0,0-.18555,1.33692,2.93814,2.93814,0,0,0,.09863.78711,1.67,1.67,0,0,0,.29395.60253,1.34166,1.34166,0,0,0,.47949.38477,1.5082,1.5082,0,0,0,.66114.13672,2.15545,2.15545,0,0,0,.55957-.06641,2.20473,2.20473,0,0,0,.43457-.165,1.98158,1.98158,0,0,0,.332-.21289c.0957-.07715.18261-.14843.25976-.21386a2.58987,2.58987,0,0,1,.21-.16407.327.327,0,0,1,.19239-.06738.29861.29861,0,0,1,.2373.11914l.3086.37793A6.58073,6.58073,0,0,1,159.48242,88.48291Z" style="fill:blue"/><path d="M163.52441,89.18994a2.76625,2.76625,0,0,1-1.06445-.19922,2.3409,2.3409,0,0,1-.833-.57715,2.67329,2.67329,0,0,1-.5459-.92382,3.67171,3.67171,0,0,1-.19628-1.2461,5.02406,5.02406,0,0,1,.28027-1.6875,4.57959,4.57959,0,0,1,.7666-1.38574,3.64181,3.64181,0,0,1,1.14844-.93848,3.06348,3.06348,0,0,1,1.43164-.34277,2.765,2.765,0,0,1,1.06348.19922,2.34735,2.34735,0,0,1,.833.57812,2.65553,2.65553,0,0,1,.5459.92774,3.67608,3.67608,0,0,1,.19629,1.24219,4.999,4.999,0,0,1-.28027,1.67968,4.58007,4.58007,0,0,1-.7666,1.38575,3.6566,3.6566,0,0,1-1.15137.94238A3.04955,3.04955,0,0,1,163.52441,89.18994Zm.11231-.97265a1.64508,1.64508,0,0,0,.93066-.28028,2.4498,2.4498,0,0,0,.71387-.74512,3.83735,3.83735,0,0,0,.45508-1.07421,4.96514,4.96514,0,0,0,.16113-1.27442,2.38862,2.38862,0,0,0-.38476-1.47656,1.32221,1.32221,0,0,0-1.11329-.49707,1.64888,1.64888,0,0,0-.93457.27637,2.4428,2.4428,0,0,0-.71093.74218,3.84129,3.84129,0,0,0-.45508,1.07422,4.96288,4.96288,0,0,0-.16016,1.27344,2.41733,2.41733,0,0,0,.38086,1.48047A1.31866,1.31866,0,0,0,163.63672,88.21729Z" style="fill:blue"/><path d="M168.15137,89.09229l1.25293-10.31055h1.22558L169.376,89.09229Z" style="fill:blue"/><path d="M173.88379,89.18994a2.76479,2.76479,0,0,1-1.06348-.19922,2.3324,2.3324,0,0,1-.833-.57715,2.65832,2.65832,0,0,1-.54589-.92382,3.67146,3.67146,0,0,1-.19629-1.2461,5.02406,5.02406,0,0,1,.28027-1.6875,4.5589,4.5589,0,0,1,.7666-1.38574,3.64911,3.64911,0,0,1,1.14746-.93848,3.06634,3.06634,0,0,1,1.43164-.34277,2.76645,2.76645,0,0,1,1.06446.19922,2.35589,2.35589,0,0,1,.833.57812,2.67036,2.67036,0,0,1,.5459.92774,3.70082,3.70082,0,0,1,.19532,1.24219,4.99851,4.99851,0,0,1-.2793,1.67968,4.60073,4.60073,0,0,1-.7666,1.38575,3.6566,3.6566,0,0,1-1.15137.94238A3.05342,3.05342,0,0,1,173.88379,89.18994Zm.1123-.97265a1.64059,1.64059,0,0,0,.93067-.28028,2.43842,2.43842,0,0,0,.71386-.74512,3.83735,3.83735,0,0,0,.45508-1.07421,4.96514,4.96514,0,0,0,.16114-1.27442,2.38212,2.38212,0,0,0-.38477-1.47656,1.32221,1.32221,0,0,0-1.11328-.49707,1.65335,1.65335,0,0,0-.93457.27637,2.44,2.44,0,0,0-.71.74218,3.813,3.813,0,0,0-.45508,1.07422,4.96307,4.96307,0,0,0-.16113,1.27344,2.41055,2.41055,0,0,0,.38183,1.48047A1.31558,1.31558,0,0,0,173.99609,88.21729Z" style="fill:blue"/><path d="M178.3916,89.09229l.85449-7.09766h.623a.47517.47517,0,0,1,.30762.09082.34145.34145,0,0,1,.1123.28027c0,.01856-.00195.04492-.0039.08008s-.00489.07129-.00684.1084c-.00293.03711-.00488.07031-.00684.09766-.00293.02832-.0039.04492-.0039.0498l-.09766,1.28809a4.87754,4.87754,0,0,1,1.01856-1.5127,1.7147,1.7147,0,0,1,1.18652-.53223,1.48565,1.48565,0,0,1,.58789.126l-.22363,1.19727a1.71614,1.71614,0,0,0-.6377-.13282,1.5393,1.5393,0,0,0-1.21094.66114,5.49734,5.49734,0,0,0-.88867,2.00586l-.39257,3.29Z" style="fill:blue"/><path d="M186.624,87.75537c0-.02832.001-.06445.00391-.1084.002-.04492.00684-.1084.01367-.19238s.01758-.19434.03125-.3291c.01367-.13574.03516-.3125.06348-.53223l.44043-3.54883h-.791a.21908.21908,0,0,1-.15039-.05273.207.207,0,0,1-.05957-.16406c0-.01465.00293-.042.00684-.084q.00732-.063.01758-.14355c.00683-.05371.01464-.1084.02148-.165q.01026-.0835.01758-.16113l1.09179-.14649.5254-2.1914a.32936.32936,0,0,1,.10449-.1709.27709.27709,0,0,1,.18945-.06641h.65723L188.5,82.14111h1.8623l-.10546.90332H188.3877l-.42676,3.48633c-.02344.19141-.041.34473-.05274.46192-.01172.11621-.0205.21-.02734.27929-.00781.07032-.01172.11914-.01465.14746-.00195.02832-.00293.04883-.00293.0625a.74233.74233,0,0,0,.16406.5293.59473.59473,0,0,0,.45118.1709.90631.90631,0,0,0,.32226-.05274,1.3344,1.3344,0,0,0,.24219-.11523c.06738-.042.124-.08008.1709-.11523a.21909.21909,0,0,1,.126-.05274.13015.13015,0,0,1,.08789.02832.36331.36331,0,0,1,.06641.09082l.25879.59473a2.51425,2.51425,0,0,1-.77344.47265,2.39655,2.39655,0,0,1-.8789.17188,1.49416,1.49416,0,0,1-1.07032-.37109A1.452,1.452,0,0,1,186.624,87.75537Z" style="fill:blue"/><path d="M193.33008,89.18994a2.76626,2.76626,0,0,1-1.06446-.19922,2.341,2.341,0,0,1-.833-.57715,2.67329,2.67329,0,0,1-.5459-.92382,3.67146,3.67146,0,0,1-.19629-1.2461,5.02406,5.02406,0,0,1,.28027-1.6875,4.58,4.58,0,0,1,.7666-1.38574,3.64193,3.64193,0,0,1,1.14844-.93848,3.06348,3.06348,0,0,1,1.43164-.34277,2.765,2.765,0,0,1,1.06348.19922,2.34739,2.34739,0,0,1,.833.57812,2.65553,2.65553,0,0,1,.5459.92774,3.67634,3.67634,0,0,1,.19628,1.24219,4.999,4.999,0,0,1-.28027,1.67968,4.57964,4.57964,0,0,1-.7666,1.38575,3.6566,3.6566,0,0,1-1.15137.94238A3.04951,3.04951,0,0,1,193.33008,89.18994Zm.1123-.97265a1.64511,1.64511,0,0,0,.93067-.28028,2.44988,2.44988,0,0,0,.71386-.74512,3.83735,3.83735,0,0,0,.45508-1.07421,4.96514,4.96514,0,0,0,.16113-1.27442,2.38856,2.38856,0,0,0-.38476-1.47656,1.32221,1.32221,0,0,0-1.11328-.49707,1.64886,1.64886,0,0,0-.93457.27637,2.44271,2.44271,0,0,0-.71094.74218,3.84158,3.84158,0,0,0-.45508,1.07422,4.96287,4.96287,0,0,0-.16015,1.27344,2.41733,2.41733,0,0,0,.38086,1.48047A1.31865,1.31865,0,0,0,193.44238,88.21729Z" style="fill:blue"/><path d="M138.35938,105.89258a.37756.37756,0,0,1-.332-.126.52424.52424,0,0,1-.08789-.30762l.13282-1.47753a5.70125,5.70125,0,0,1-.58106.82617,4.22506,4.22506,0,0,1-.66113.63379,2.90237,2.90237,0,0,1-.7207.40527,2.10864,2.10864,0,0,1-.75977.14355,1.66328,1.66328,0,0,1-1.41016-.66113,3.1427,3.1427,0,0,1-.501-1.92187,5.66021,5.66021,0,0,1,.11914-1.14746,5.91425,5.91425,0,0,1,.33984-1.09961,5.44355,5.44355,0,0,1,.53125-.97608,4.13484,4.13484,0,0,1,.69336-.78027,3.14187,3.14187,0,0,1,.8291-.51758,2.39106,2.39106,0,0,1,.93848-.18945,2.20218,2.20218,0,0,1,.94824.20312,2.03244,2.03244,0,0,1,.73145.58106l.48339-3.89844h1.22461l-1.27343,10.31006Zm-2.541-.90332a1.29084,1.29084,0,0,0,.67578-.20606,2.837,2.837,0,0,0,.6582-.57422,4.95785,4.95785,0,0,0,.59473-.875,6.96361,6.96361,0,0,0,.47949-1.10937l.23145-1.87549a1.491,1.491,0,0,0-.6377-.52539,1.93945,1.93945,0,0,0-.749-.15332,1.63215,1.63215,0,0,0-.99707.3291,2.85984,2.85984,0,0,0-.75586.84961,4.4166,4.4166,0,0,0-.47949,1.16553,4.9927,4.9927,0,0,0-.168,1.2666,2.23032,2.23032,0,0,0,.30078,1.27051A.96835.96835,0,0,0,135.81836,104.98926Z" style="fill:blue"/><path d="M146.59863,100.3208a1.91281,1.91281,0,0,1-.18945.8501,1.76971,1.76971,0,0,1-.69238.70019,5.17657,5.17657,0,0,1-1.38672.543,15.30353,15.30353,0,0,1-2.26758.37012c-.00488.05176-.00684.10156-.00684.15137v.15039a2.18976,2.18976,0,0,0,.40918,1.43066,1.51337,1.51337,0,0,0,1.23536.49414,2.31588,2.31588,0,0,0,.59863-.07031,2.59714,2.59714,0,0,0,.46875-.1709,2.10355,2.10355,0,0,0,.36426-.22461c.10546-.08105.20214-.15625.291-.22363.08789-.06738.16992-.125.24414-.17188a.42042.42042,0,0,1,.22461-.07031.30465.30465,0,0,1,.23047.11914l.30859.38574a6.56181,6.56181,0,0,1-.69628.63282,4.05285,4.05285,0,0,1-.69727.4375,3.10021,3.10021,0,0,1-.74512.25586,4.12017,4.12017,0,0,1-.83691.08007,2.78972,2.78972,0,0,1-1.0918-.20312,2.25339,2.25339,0,0,1-.81933-.57715,2.59274,2.59274,0,0,1-.51758-.90625,3.6661,3.6661,0,0,1-.18164-1.19043,5.20018,5.20018,0,0,1,.11523-1.08789,5.06155,5.06155,0,0,1,.33594-1.03271,4.65857,4.65857,0,0,1,.53906-.90918,3.6267,3.6267,0,0,1,.72754-.72461,3.40851,3.40851,0,0,1,.90332-.4795,3.13892,3.13892,0,0,1,1.06055-.17578,2.54094,2.54094,0,0,1,.93066.1543,1.96769,1.96769,0,0,1,.64453.39258,1.55185,1.55185,0,0,1,.374.52441A1.38927,1.38927,0,0,1,146.59863,100.3208Zm-2.14258-.7207a1.81868,1.81868,0,0,0-.81152.18164,2.17155,2.17155,0,0,0-.6582.501,3.06468,3.06468,0,0,0-.49024.74854,4.46961,4.46961,0,0,0-.31445.92773,13.60487,13.60487,0,0,0,1.72852-.30468,4.29551,4.29551,0,0,0,1.001-.3711.96583.96583,0,0,0,.57422-.91357.6897.6897,0,0,0-.05566-.26172.71017.71017,0,0,0-.17871-.249.97814.97814,0,0,0-.31836-.18555A1.36953,1.36953,0,0,0,144.45605,99.6001Z" style="fill:blue"/><path d="M147.41016,98.80225H148.419a.3162.3162,0,0,1,.22363.07714.32588.32588,0,0,1,.10449.18165l1.05762,4.564a4.48424,4.48424,0,0,1,.08008.51758c.0166.17285.02929.34277.03906.51074q.07617-.252.16113-.50684a4.37748,4.37748,0,0,1,.21-.52148l2.19727-4.564a.5279.5279,0,0,1,.15429-.18555.35419.35419,0,0,1,.2168-.07324h.97363l-3.55664,7.09033h-1.043Z" style="fill:blue"/><path d="M159.53418,100.3208a1.91221,1.91221,0,0,1-.18848.8501,1.77272,1.77272,0,0,1-.69336.70019,5.16821,5.16821,0,0,1-1.38574.543,15.2974,15.2974,0,0,1-2.26855.37012c-.00391.05176-.00684.10156-.00684.15137v.15039a2.18422,2.18422,0,0,0,.41016,1.43066,1.512,1.512,0,0,0,1.23535.49414,2.32644,2.32644,0,0,0,.59863-.07031,2.59658,2.59658,0,0,0,.46875-.1709,2.1407,2.1407,0,0,0,.36426-.22461c.10449-.08105.20117-.15625.29-.22363s.16992-.125.24512-.17188a.41725.41725,0,0,1,.22363-.07031.308.308,0,0,1,.23144.11914l.30762.38574a6.376,6.376,0,0,1-.69629.63282,4.04528,4.04528,0,0,1-.69629.4375,3.1074,3.1074,0,0,1-.74609.25586,4.11045,4.11045,0,0,1-.83594.08007,2.78291,2.78291,0,0,1-1.0918-.20312,2.24524,2.24524,0,0,1-.81933-.57715,2.5929,2.5929,0,0,1-.51758-.90625,3.63964,3.63964,0,0,1-.18262-1.19043,5.26655,5.26655,0,0,1,.11524-1.08789,5.12184,5.12184,0,0,1,.33594-1.03271,4.70722,4.70722,0,0,1,.53906-.90918,3.63125,3.63125,0,0,1,.72851-.72461,3.3935,3.3935,0,0,1,.90332-.4795,3.13079,3.13079,0,0,1,1.06055-.17578,2.54819,2.54819,0,0,1,.93066.1543,1.973,1.973,0,0,1,.64356.39258,1.56852,1.56852,0,0,1,.375.52441A1.40453,1.40453,0,0,1,159.53418,100.3208Zm-2.1416-.7207a1.82583,1.82583,0,0,0-.8125.18164,2.156,2.156,0,0,0-.65723.501,3.03658,3.03658,0,0,0-.49023.74854,4.47055,4.47055,0,0,0-.31543.92773,13.65683,13.65683,0,0,0,1.72949-.30468,4.313,4.313,0,0,0,1.001-.3711,1.08618,1.08618,0,0,0,.46191-.43017,1.10309,1.10309,0,0,0,.11231-.4834.70652.70652,0,0,0-.23536-.51074.96786.96786,0,0,0-.31836-.18555A1.36368,1.36368,0,0,0,157.39258,99.6001Z" style="fill:blue"/><path d="M160.4375,105.89258l1.25293-10.31006H162.916l-1.25391,10.31006Z" style="fill:blue"/><path d="M166.16992,105.99023a2.76489,2.76489,0,0,1-1.06347-.19921,2.33256,2.33256,0,0,1-.833-.57715,2.65833,2.65833,0,0,1-.5459-.92383,3.67144,3.67144,0,0,1-.19629-1.24609,5.024,5.024,0,0,1,.28027-1.6875,4.56236,4.56236,0,0,1,.7666-1.38526,3.64915,3.64915,0,0,1,1.14747-.93848,3.06629,3.06629,0,0,1,1.43164-.34277,2.76644,2.76644,0,0,1,1.06445.19922,2.35591,2.35591,0,0,1,.833.57813,2.67038,2.67038,0,0,1,.5459.92773,3.69813,3.69813,0,0,1,.19531,1.2417,4.99861,4.99861,0,0,1-.2793,1.67969,4.6008,4.6008,0,0,1-.7666,1.38574,3.65647,3.65647,0,0,1-1.15137.94238A3.05342,3.05342,0,0,1,166.16992,105.99023Zm.11231-.97265a1.64056,1.64056,0,0,0,.93066-.28028,2.43852,2.43852,0,0,0,.71387-.74511,3.83783,3.83783,0,0,0,.45508-1.07422,4.96514,4.96514,0,0,0,.16113-1.27442,2.38152,2.38152,0,0,0-.38477-1.47607,1.32219,1.32219,0,0,0-1.11328-.49707,1.65337,1.65337,0,0,0-.93457.27637,2.44,2.44,0,0,0-.71.74218,3.81,3.81,0,0,0-.45508,1.07374,4.963,4.963,0,0,0-.16113,1.27343,2.41048,2.41048,0,0,0,.38184,1.48047A1.31553,1.31553,0,0,0,166.28223,105.01758Z" style="fill:blue"/><path d="M170.377,108.294l1.15528-9.49854h.623a.37091.37091,0,0,1,.41993.41992l-.11915,1.51172a5.84077,5.84077,0,0,1,.58106-.83691,4.23161,4.23161,0,0,1,.66211-.63965,2.83365,2.83365,0,0,1,.72461-.41016,2.14849,2.14849,0,0,1,.76953-.14355,1.67293,1.67293,0,0,1,1.40723.6582,3.12436,3.12436,0,0,1,.5039,1.92432,5.66247,5.66247,0,0,1-.11914,1.14843,5.80832,5.80832,0,0,1-.33984,1.09571,5.4296,5.4296,0,0,1-.53125.97265,4.22313,4.22313,0,0,1-.69336.78418,3.09733,3.09733,0,0,1-.8291.52149,2.39033,2.39033,0,0,1-.93848.18847,2.203,2.203,0,0,1-.959-.206,1.96246,1.96246,0,0,1-.72754-.5918l-.37793,3.10157Zm4.34766-8.5962a1.31221,1.31221,0,0,0-.68262.21,2.80555,2.80555,0,0,0-.66894.5879,5.10466,5.10466,0,0,0-.59864.896,7.39013,7.39013,0,0,0-.47949,1.127l-.22363,1.80567a1.47771,1.47771,0,0,0,.64062.543,1.95389,1.95389,0,0,0,.75977.15722,1.55849,1.55849,0,0,0,.68555-.15429,2.14971,2.14971,0,0,0,.58789-.416,3.03018,3.03018,0,0,0,.47656-.61621,4.318,4.318,0,0,0,.35352-.75586,5.14493,5.14493,0,0,0,.21972-.833,4.78314,4.78314,0,0,0,.07715-.85058,2.21351,2.21351,0,0,0-.30078-1.26612A.96912.96912,0,0,0,174.72461,99.69775Z" style="fill:blue"/></g><g id="sleeve"><g id="sleeve-2" data-name="sleeve"><rect x="84.57081" y="41.55358" width="37.00002" height="119.00006" style="fill:#efefef"/><path d="M85.12885,42.03588l36,.03533-.11578,117.99994-36-.03531.11579-118m-.999-1.001-.11774,120,38,.03728.11776-119.99994-38-.03729Z"/></g><path id="shadow" d="M109.20923,52.35765c.04136.75291.66409,96.83747-2.27988,98.34439s-12.1292,1.45176-10.43281,2.40042,13.64126,1.10159,15.33144-3.0019c1.45629-3.53563,3.61043-76.45566,4.00931-98.47361.08432-4.65439-15.65387-5.64224-15.92826-5.11526S109.23444,49.78656,109.20923,52.35765Z" style="fill:#dbd9d9;fill-rule:evenodd"/></g><g id="timer"><path d="M20,29.24512a9.24512,9.24512,0,0,1,0-18.49024H50a9.24512,9.24512,0,0,1,0,18.49024Z" style="fill:#fff;fill-rule:evenodd"/><path d="M50,11.5102a8.4898,8.4898,0,0,1,0,16.9796H20a8.4898,8.4898,0,0,1,0-16.9796H50M50,10H20A10.02939,10.02939,0,0,0,10,20v0A10.02938,10.02938,0,0,0,20,30H50A10.02938,10.02938,0,0,0,60,20v0A10.02939,10.02939,0,0,0,50,10Z" style="fill:#ccc"/><path d="M23.06494,23.77832h2.15625V16.93945q0-.3076.02051-.623l-1.792,1.5332a.45453.45453,0,0,1-.13965.08008.40086.40086,0,0,1-.32227-.02051.34844.34844,0,0,1-.126-.1084l-.39161-.53906,2.98243-2.583h1.01465v9.09961h1.97363v.95215h-5.376Z"/><path d="M30.07275,18.71094a.88014.88014,0,0,1,.06641-.34375.86305.86305,0,0,1,.18164-.2793.87022.87022,0,0,1,.96289-.18945.89427.89427,0,0,1,.2793.18945.84217.84217,0,0,1,.18555.2793.88013.88013,0,0,1,.0664.34375.866.866,0,0,1-.0664.3457.84993.84993,0,0,1-.18555.27637.83693.83693,0,0,1-.2793.18554.90791.90791,0,0,1-.68652,0,.7966.7966,0,0,1-.27637-.18554.87722.87722,0,0,1-.248-.62207Zm0,5.25a.88014.88014,0,0,1,.06641-.34375.86305.86305,0,0,1,.18164-.2793.87022.87022,0,0,1,.96289-.18945.89427.89427,0,0,1,.2793.18945.84217.84217,0,0,1,.18555.2793.88013.88013,0,0,1,.0664.34375.866.866,0,0,1-.0664.3457.84993.84993,0,0,1-.18555.27637.83693.83693,0,0,1-.2793.18554.90791.90791,0,0,1-.68652,0,.7966.7966,0,0,1-.27637-.18554.87722.87722,0,0,1-.248-.62207Z"/><path d="M40.40381,19.71875a8.09592,8.09592,0,0,1-.28418,2.27832,4.742,4.742,0,0,1-.77344,1.59277,3.10278,3.10278,0,0,1-1.1582.9375,3.47509,3.47509,0,0,1-2.86328,0,3.12871,3.12871,0,0,1-1.15137-.9375,4.7202,4.7202,0,0,1-.76953-1.59277,8.21452,8.21452,0,0,1-.28027-2.27832,8.24888,8.24888,0,0,1,.28027-2.28223,4.75787,4.75787,0,0,1,.76953-1.59961,3.12107,3.12107,0,0,1,1.15137-.9414,3.48518,3.48518,0,0,1,2.86328,0,3.09524,3.09524,0,0,1,1.1582.9414,4.77977,4.77977,0,0,1,.77344,1.59961A8.12976,8.12976,0,0,1,40.40381,19.71875Zm-1.29492,0A8.22187,8.22187,0,0,0,38.9165,17.79,3.88415,3.88415,0,0,0,38.398,16.5332a1.95614,1.95614,0,0,0-.752-.68261,2.02142,2.02142,0,0,0-1.77832,0,1.929,1.929,0,0,0-.749.68261A3.90755,3.90755,0,0,0,34.604,17.79a8.22192,8.22192,0,0,0-.19238,1.92871,8.18056,8.18056,0,0,0,.19238,1.9248,3.9108,3.9108,0,0,0,.51465,1.25293,1.929,1.929,0,0,0,.749.68262,2.02142,2.02142,0,0,0,1.77832,0,1.95609,1.95609,0,0,0,.752-.68262,3.8874,3.8874,0,0,0,.51855-1.25293A8.1805,8.1805,0,0,0,39.10889,19.71875Z"/><path d="M48.52393,19.71875a8.09592,8.09592,0,0,1-.28418,2.27832,4.742,4.742,0,0,1-.77344,1.59277,3.10278,3.10278,0,0,1-1.1582.9375,3.47512,3.47512,0,0,1-2.86329,0,3.12868,3.12868,0,0,1-1.15136-.9375,4.7202,4.7202,0,0,1-.76953-1.59277,8.21412,8.21412,0,0,1-.28028-2.27832,8.24848,8.24848,0,0,1,.28028-2.28223,4.75787,4.75787,0,0,1,.76953-1.59961,3.121,3.121,0,0,1,1.15136-.9414,3.4852,3.4852,0,0,1,2.86329,0,3.09524,3.09524,0,0,1,1.1582.9414,4.77977,4.77977,0,0,1,.77344,1.59961A8.12976,8.12976,0,0,1,48.52393,19.71875Zm-1.29493,0A8.22192,8.22192,0,0,0,47.03662,17.79a3.88459,3.88459,0,0,0-.51855-1.25684,1.95616,1.95616,0,0,0-.752-.68261,2.02142,2.02142,0,0,0-1.77832,0,1.929,1.929,0,0,0-.749.68261A3.90755,3.90755,0,0,0,42.72412,17.79a8.22192,8.22192,0,0,0-.19238,1.92871,8.18056,8.18056,0,0,0,.19238,1.9248,3.9108,3.9108,0,0,0,.51465,1.25293,1.929,1.929,0,0,0,.749.68262,2.02142,2.02142,0,0,0,1.77832,0,1.95611,1.95611,0,0,0,.752-.68262,3.88785,3.88785,0,0,0,.51855-1.25293A8.18056,8.18056,0,0,0,47.229,19.71875Z"/></g></svg>