<svg id="nitrate_-_2D" data-name="nitrate - 2D" xmlns="http://www.w3.org/2000/svg" viewBox="0 0 226 200"><rect id="back" width="226" height="200" style="fill:none"/><g id="tablet"><circle id="tablet_inner" data-name="tablet inner" cx="114" cy="144" r="3.5" style="fill:#fff"/><path id="tablet_outline" data-name="tablet outline" d="M114,141a3,3,0,1,1-3,3,3.00339,3.00339,0,0,1,3-3m0-1a4,4,0,1,0,4,4,4,4,0,0,0-4-4Z" style="fill:#333"/></g><g id="test_tube" data-name="test tube"><rect id="water_25_" data-name="water 25%" x="106.5" y="103.5" width="13" height="45.5" style="fill:#d1eef3;fill-opacity:0.25"/><path id="test_tube-2" data-name="test tube" d="M119,58.5v90H107v-90h12m1-1H106v92h14v-92Z" style="fill:#333"/><rect id="water_fill_line" data-name="water fill line" x="109" y="103" width="8" height="1" style="fill:#333"/></g><g style="isolation:isolate"><path d="M130.49707,61l.84668-7.09766h.62305a.37091.37091,0,0,1,.41992.41993l-.10449,1.37207a4.39018,4.39018,0,0,1,1.27734-1.41407,2.61244,2.61244,0,0,1,1.47363-.47656,1.50286,1.50286,0,0,1,1.22852.53223,2.39922,2.39922,0,0,1,.4375,1.55371c0,.09375-.00195.18945-.00781.28711-.00391.09863-.01368.20117-.02735.30859L136.13184,61h-1.24512l.53125-4.51465c.00976-.09375.01758-.18359.02441-.26953.00684-.08691.01074-.16894.01074-.249a1.38533,1.38533,0,0,0-.21386-.85059.79166.79166,0,0,0-.66895-.27637,1.45169,1.45169,0,0,0-.68164.18262,2.646,2.646,0,0,0-.668.51367,4.19676,4.19676,0,0,0-.59961.80567,5.72222,5.72222,0,0,0-.47265,1.05273L131.74316,61Z" style="fill:blue"/><path d="M140.10742,53.90918,139.25391,61H138.0293l.85351-7.09082Zm.46875-2.22656a.79216.79216,0,0,1-.07226.33984.9903.9903,0,0,1-.19727.28027.95341.95341,0,0,1-.27539.19239.77308.77308,0,0,1-.32227.07031.75239.75239,0,0,1-.31543-.07031.85138.85138,0,0,1-.26855-.19239.95355.95355,0,0,1-.18555-.28027.82072.82072,0,0,1-.07031-.33984.84781.84781,0,0,1,.07031-.34278.94587.94587,0,0,1,.46094-.47949.73037.73037,0,0,1,.31543-.07324.75891.75891,0,0,1,.32129.07031.91353.91353,0,0,1,.27734.19238.89528.89528,0,0,1,.26172.63282Z" style="fill:blue"/><path d="M141.88574,59.66309c0-.02832.001-.06446.00391-.1084.002-.04492.00683-.1084.01367-.19239s.01758-.19433.03223-.3291c.01367-.13574.03418-.3125.0625-.53222l.4414-3.54883h-.791a.21736.21736,0,0,1-.15039-.05274.20411.20411,0,0,1-.06055-.16406c0-.01465.00293-.042.00781-.084q.00586-.063.01758-.14356c.00586-.05371.01367-.1084.02051-.165q.01025-.08349.01758-.16113l1.09179-.14648.52539-2.19141a.3359.3359,0,0,1,.1045-.1709.27882.27882,0,0,1,.18945-.0664h.6582l-.30859,2.44238h1.8623l-.10449.90332h-1.86914l-.42773,3.48633c-.02344.1914-.041.34472-.05274.46191-.01172.11621-.02051.21-.02734.2793-.00781.07031-.01172.11914-.01367.14746-.00293.02832-.00391.04883-.00391.0625a.74233.74233,0,0,0,.16406.5293.59475.59475,0,0,0,.45117.17089.90637.90637,0,0,0,.32227-.05273,1.3344,1.3344,0,0,0,.24219-.11523c.06738-.042.125-.08008.17187-.11524a.21423.21423,0,0,1,.125-.05273.1301.1301,0,0,1,.08789.02832.34018.34018,0,0,1,.06641.09082l.25976.59472a2.53049,2.53049,0,0,1-.77441.47266,2.3954,2.3954,0,0,1-.87793.17187,1.495,1.495,0,0,1-1.07129-.37109A1.45579,1.45579,0,0,1,141.88574,59.66309Z" style="fill:blue"/><path d="M146.06445,61l.8545-7.09766h.623a.47521.47521,0,0,1,.30762.09082.34146.34146,0,0,1,.1123.28028c0,.01855-.001.04492-.00293.08008-.00293.03515-.00586.07128-.00781.10839s-.0039.07032-.00683.09766a.4689.4689,0,0,0-.00293.04981l-.09864,1.28808a4.9114,4.9114,0,0,1,1.01856-1.51269,1.71643,1.71643,0,0,1,1.18652-.53223,1.48191,1.48191,0,0,1,.58789.126l-.22363,1.19726a1.7113,1.7113,0,0,0-.63672-.13281,1.53649,1.53649,0,0,0-1.21094.66113A5.48047,5.48047,0,0,0,147.6748,57.71L147.2832,61Z" style="fill:blue"/><path d="M155.91406,61h-.64453a.37989.37989,0,0,1-.332-.126.52423.52423,0,0,1-.08789-.30761l.12695-1.4209a5.97533,5.97533,0,0,1-.543.80566,3.73844,3.73844,0,0,1-.61523.61524,2.72924,2.72924,0,0,1-.68359.39257,2.02254,2.02254,0,0,1-.74219.13868,1.74157,1.74157,0,0,1-.76172-.16407,1.5898,1.5898,0,0,1-.58594-.48339,2.35014,2.35014,0,0,1-.373-.78418,3.84263,3.84263,0,0,1-.13379-1.06739,4.83232,4.83232,0,0,1,.15722-1.22851,5.00724,5.00724,0,0,1,1.14453-2.10645,4.73069,4.73069,0,0,1,.90625-.77051,4.32681,4.32681,0,0,1,1.0752-.5039,4.02389,4.02389,0,0,1,1.2041-.17871,5.16817,5.16817,0,0,1,.88477.07519,3.6414,3.6414,0,0,1,.85156.25781Zm-3.05176-.93848a1.23111,1.23111,0,0,0,.67188-.21,2.55652,2.55652,0,0,0,.62305-.582,5.06658,5.06658,0,0,0,.5498-.88574,8.05046,8.05046,0,0,0,.45117-1.126l.30078-2.39843a.48543.48543,0,0,0-.30468-.124h-.29688a2.45912,2.45912,0,0,0-.8125.13574,2.88658,2.88658,0,0,0-.73437.38086,3.25021,3.25021,0,0,0-.62305.583,3.79819,3.79819,0,0,0-.48047.74316,4.18915,4.18915,0,0,0-.31055.86231,3.90612,3.90612,0,0,0-.1123.93848Q151.78418,60.062,152.8623,60.06152Z" style="fill:blue"/><path d="M158.38477,59.66309c0-.02832.00195-.06446.0039-.1084.002-.04492.00684-.1084.01367-.19239.00782-.084.01758-.19433.03125-.3291.01368-.13574.03516-.3125.06348-.53222l.44043-3.54883h-.791a.21908.21908,0,0,1-.15039-.05274.21007.21007,0,0,1-.05859-.16406c0-.01465.00195-.042.00586-.084q.00879-.063.01758-.14356c.00781-.05371.01465-.1084.02148-.165q.01026-.08349.01758-.16113l1.0918-.14648.52539-2.19141a.32474.32474,0,0,1,.10547-.1709.27291.27291,0,0,1,.18847-.0664h.65723l-.30762,2.44238h1.86231l-.10547.90332h-1.86914l-.42578,3.48633c-.02344.1914-.041.34472-.05274.46191-.01172.11621-.02148.21-.02832.2793-.00683.07031-.01172.11914-.01465.14746-.00195.02832-.00293.04883-.00293.0625a.738.738,0,0,0,.165.5293.59475.59475,0,0,0,.45117.17089.914.914,0,0,0,.32227-.05273,1.32336,1.32336,0,0,0,.24121-.11523c.06738-.042.124-.08008.1709-.11524a.21907.21907,0,0,1,.12695-.05273.12574.12574,0,0,1,.08692.02832.36294.36294,0,0,1,.0664.09082l.25879.59472a2.51416,2.51416,0,0,1-.77344.47266,2.38881,2.38881,0,0,1-.8789.17187,1.49571,1.49571,0,0,1-1.07031-.37109A1.45575,1.45575,0,0,1,158.38477,59.66309Z" style="fill:blue"/><path d="M168.23438,55.42773a1.91641,1.91641,0,0,1-.18946.85059,1.77281,1.77281,0,0,1-.69336.7002,5.1687,5.1687,0,0,1-1.38574.543,15.2974,15.2974,0,0,1-2.26855.37012c-.00391.05176-.00586.10156-.00586.15137v.15039a2.18971,2.18971,0,0,0,.40918,1.43066,1.512,1.512,0,0,0,1.23535.49414,2.31534,2.31534,0,0,0,.59863-.07031,2.59534,2.59534,0,0,0,.46875-.1709,2.14007,2.14007,0,0,0,.36426-.22461c.10547-.08105.20117-.15625.291-.22363.08789-.06738.16993-.125.24414-.17187a.41783.41783,0,0,1,.22461-.07032.30616.30616,0,0,1,.23047.11914l.3086.38575a6.47269,6.47269,0,0,1-.69727.63281,4.04528,4.04528,0,0,1-.69629.4375,3.09963,3.09963,0,0,1-.74512.25586,4.127,4.127,0,0,1-.83691.08008,2.78633,2.78633,0,0,1-1.0918-.20313,2.25336,2.25336,0,0,1-.81933-.57715,2.59274,2.59274,0,0,1-.51758-.90625,3.66632,3.66632,0,0,1-.18164-1.19043,5.20018,5.20018,0,0,1,.11523-1.08789,5.01666,5.01666,0,0,1,.33594-1.0332,4.611,4.611,0,0,1,.53906-.90918,3.62722,3.62722,0,0,1,.72754-.72461,3.39347,3.39347,0,0,1,.90332-.47949,3.13054,3.13054,0,0,1,1.06055-.17578,2.541,2.541,0,0,1,.93066.15429,1.973,1.973,0,0,1,.64356.39258,1.56846,1.56846,0,0,1,.375.52442A1.38921,1.38921,0,0,1,168.23438,55.42773Zm-2.14258-.7207a1.826,1.826,0,0,0-.8125.18164,2.16772,2.16772,0,0,0-.65723.501,3.0579,3.0579,0,0,0-.49023.749,4.47,4.47,0,0,0-.31543.92774,13.65657,13.65657,0,0,0,1.72949-.30469,4.29562,4.29562,0,0,0,1.001-.3711.967.967,0,0,0,.57421-.91406.71021.71021,0,0,0-.23437-.51074.97814.97814,0,0,0-.31836-.18555A1.36975,1.36975,0,0,0,166.0918,54.707Z" style="fill:blue"/><path d="M172.33594,59.66309c0-.02832.001-.06446.0039-.1084.002-.04492.00586-.1084.01368-.19239.00683-.084.01757-.19433.03125-.3291.01367-.13574.03515-.3125.0625-.53222l.4414-3.54883h-.791a.21736.21736,0,0,1-.15039-.05274.207.207,0,0,1-.05957-.16406c0-.01465.00292-.042.00683-.084q.00732-.063.01758-.14356c.00684-.05371.01367-.1084.02148-.165q.00879-.08349.01758-.16113l1.0918-.14648.52539-2.19141a.3233.3233,0,0,1,.10449-.1709.27634.27634,0,0,1,.18848-.0664h.6582l-.30859,2.44238h1.86328l-.10547.90332h-1.86914l-.42676,3.48633c-.02344.1914-.041.34472-.05273.46191-.01172.11621-.02051.21-.02832.2793-.00684.07031-.01172.11914-.01368.14746s-.0039.04883-.0039.0625a.738.738,0,0,0,.165.5293.59472.59472,0,0,0,.45117.17089.90641.90641,0,0,0,.32227-.05273,1.32368,1.32368,0,0,0,.24121-.11523c.06836-.042.125-.08008.17187-.11524a.21665.21665,0,0,1,.126-.05273.12571.12571,0,0,1,.08691.02832.34018.34018,0,0,1,.06641.09082l.25976.59472a2.53754,2.53754,0,0,1-.77343.47266,2.39658,2.39658,0,0,1-.87891.17187,1.49253,1.49253,0,0,1-1.07031-.37109A1.452,1.452,0,0,1,172.33594,59.66309Z" style="fill:blue"/><path d="M181.72949,61h-.64355a.37958.37958,0,0,1-.333-.126.53087.53087,0,0,1-.08691-.30761l.125-1.4209a5.88139,5.88139,0,0,1-.542.80566,3.78077,3.78077,0,0,1-.61621.61524,2.7183,2.7183,0,0,1-.68164.39257,2.03,2.03,0,0,1-.74219.13868,1.74716,1.74716,0,0,1-.76367-.16407,1.57609,1.57609,0,0,1-.584-.48339,2.35219,2.35219,0,0,1-.375-.78418,3.91953,3.91953,0,0,1-.13281-1.06739,4.7896,4.7896,0,0,1,.1582-1.22851,5.00029,5.00029,0,0,1,.44726-1.12989,4.93466,4.93466,0,0,1,.69727-.97656,4.64311,4.64311,0,0,1,.90625-.77051,4.30407,4.30407,0,0,1,1.07422-.5039,4.02389,4.02389,0,0,1,1.2041-.17871,5.171,5.171,0,0,1,.88574.07519,3.59888,3.59888,0,0,1,.84961.25781Zm-3.05176-.93848a1.22868,1.22868,0,0,0,.67188-.21,2.5742,2.5742,0,0,0,.623-.582,5.06532,5.06532,0,0,0,.54882-.88574,7.93284,7.93284,0,0,0,.45215-1.126l.30078-2.39843a.48512.48512,0,0,0-.30371-.124h-.29882a2.45763,2.45763,0,0,0-.81153.13574,2.909,2.909,0,0,0-.73535.38086,3.30841,3.30841,0,0,0-.62305.583,3.8354,3.8354,0,0,0-.47851.74316,4.25042,4.25042,0,0,0-.3125.86231,3.955,3.955,0,0,0-.11133.93848Q177.59961,60.062,178.67773,60.06152Z" style="fill:blue"/><path d="M183.64062,61l1.2461-10.31055h1.22461l-.61524,5.01172a5.89312,5.89312,0,0,1,.57325-.78027,3.93336,3.93336,0,0,1,.64355-.59863,2.94993,2.94993,0,0,1,.70117-.38184,2.096,2.096,0,0,1,.74121-.13672,1.67172,1.67172,0,0,1,1.40723.6582,3.1249,3.1249,0,0,1,.50391,1.92481,5.59439,5.59439,0,0,1-.11914,1.14844,5.8092,5.8092,0,0,1-.33985,1.0957,5.42906,5.42906,0,0,1-.53125.97266,4.22309,4.22309,0,0,1-.69336.78418,3.07193,3.07193,0,0,1-.83008.52148,2.38537,2.38537,0,0,1-.9375.18848,2.19737,2.19737,0,0,1-1.02539-.23731,2.001,2.001,0,0,1-.752-.67969l-.0918.45508a.68072.68072,0,0,1-.14257.27344A.40507.40507,0,0,1,184.30469,61Zm4.0459-6.19531a1.29675,1.29675,0,0,0-.67871.21,2.87408,2.87408,0,0,0-.66211.581,5.10706,5.10706,0,0,0-.59765.88184,6.886,6.886,0,0,0-.48438,1.12012l-.22265,1.84179a1.48723,1.48723,0,0,0,.63671.53516,1.92444,1.92444,0,0,0,.75586.15723,1.55847,1.55847,0,0,0,.68555-.1543,2.16443,2.16443,0,0,0,.58789-.416,3.02948,3.02948,0,0,0,.47656-.61621,4.31733,4.31733,0,0,0,.35352-.75586,5.2502,5.2502,0,0,0,.2207-.833,4.87408,4.87408,0,0,0,.07617-.85059,2.214,2.214,0,0,0-.30078-1.2666A.97023.97023,0,0,0,187.68652,54.80469Z" style="fill:blue"/><path d="M191.05371,61l1.25293-10.31055h1.22461L192.27832,61Z" style="fill:blue"/><path d="M199.92969,55.42773a1.91641,1.91641,0,0,1-.18946.85059,1.77284,1.77284,0,0,1-.69335.7002,5.16878,5.16878,0,0,1-1.38575.543,15.2974,15.2974,0,0,1-2.26855.37012c-.00391.05176-.00586.10156-.00586.15137v.15039a2.18976,2.18976,0,0,0,.40918,1.43066,1.512,1.512,0,0,0,1.23535.49414,2.31534,2.31534,0,0,0,.59863-.07031,2.59506,2.59506,0,0,0,.46875-.1709,2.14007,2.14007,0,0,0,.36426-.22461c.10547-.08105.20117-.15625.291-.22363.08789-.06738.16992-.125.24414-.17187a.4178.4178,0,0,1,.22461-.07032.30616.30616,0,0,1,.23046.11914l.3086.38575a6.4708,6.4708,0,0,1-.69727.63281,4.0449,4.0449,0,0,1-.69629.4375,3.09955,3.09955,0,0,1-.74511.25586,4.12716,4.12716,0,0,1-.83692.08008,2.78624,2.78624,0,0,1-1.09179-.20313,2.25331,2.25331,0,0,1-.81934-.57715,2.59305,2.59305,0,0,1-.51758-.90625,3.66632,3.66632,0,0,1-.18164-1.19043,5.20019,5.20019,0,0,1,.11524-1.08789,5.016,5.016,0,0,1,.33593-1.0332,4.61106,4.61106,0,0,1,.53907-.90918,3.62691,3.62691,0,0,1,.72753-.72461,3.39353,3.39353,0,0,1,.90333-.47949,3.13048,3.13048,0,0,1,1.06054-.17578,2.541,2.541,0,0,1,.93067.15429,1.973,1.973,0,0,1,.64355.39258,1.56846,1.56846,0,0,1,.375.52442A1.38921,1.38921,0,0,1,199.92969,55.42773Zm-2.14258-.7207a1.826,1.826,0,0,0-.8125.18164,2.16784,2.16784,0,0,0-.65723.501,3.05819,3.05819,0,0,0-.49023.749,4.47064,4.47064,0,0,0-.31543.92774,13.65657,13.65657,0,0,0,1.72949-.30469,4.29562,4.29562,0,0,0,1.001-.3711.96706.96706,0,0,0,.57422-.91406.71017.71017,0,0,0-.23438-.51074.97814.97814,0,0,0-.31836-.18555A1.36975,1.36975,0,0,0,197.78711,54.707Z" style="fill:blue"/><path d="M201.3291,59.66309c0-.02832.001-.06446.00391-.1084.00195-.04492.00683-.1084.01367-.19239s.01758-.19433.03223-.3291c.01367-.13574.03418-.3125.0625-.53222l.4414-3.54883h-.791a.21736.21736,0,0,1-.15039-.05274.20411.20411,0,0,1-.06055-.16406c0-.01465.00293-.042.00781-.084q.00587-.063.01758-.14356c.00586-.05371.01367-.1084.02051-.165q.01024-.08349.01758-.16113l1.09179-.14648.52539-2.19141a.33584.33584,0,0,1,.1045-.1709.27882.27882,0,0,1,.18945-.0664h.6582l-.30859,2.44238h1.8623l-.10449.90332h-1.86914l-.42773,3.48633c-.02344.1914-.041.34472-.05274.46191-.01172.11621-.02051.21-.02734.2793-.00782.07031-.01172.11914-.01367.14746-.00293.02832-.00391.04883-.00391.0625a.74233.74233,0,0,0,.16406.5293.59475.59475,0,0,0,.45117.17089.90637.90637,0,0,0,.32227-.05273,1.3344,1.3344,0,0,0,.24219-.11523c.06738-.042.125-.08008.17187-.11524a.21423.21423,0,0,1,.125-.05273.1301.1301,0,0,1,.08789.02832.34018.34018,0,0,1,.06641.09082l.25976.59472a2.53049,2.53049,0,0,1-.77441.47266,2.3954,2.3954,0,0,1-.87793.17187,1.495,1.495,0,0,1-1.07129-.37109A1.45579,1.45579,0,0,1,201.3291,59.66309Z" style="fill:blue"/></g><g style="isolation:isolate"><path d="M138.25977,44H137.252a.39664.39664,0,0,1-.27343-.08789.44105.44105,0,0,1-.13282-.22754l-.5459-2.44922h-4.08789l-1.14746,2.44922a.61609.61609,0,0,1-.19336.2207.47561.47561,0,0,1-.29.09473h-1.02246l4.92188-10.03125h1.32226Zm-5.60743-3.7168h3.4375l-.92382-4.15136c-.02735-.1211-.0586-.25879-.09082-.41309-.03223-.15332-.06153-.31934-.084-.49707q-.09814.2666-.20019.501-.10108.23438-.19141.416Z" style="fill:blue"/><path d="M143.95117,44a.37638.37638,0,0,1-.332-.126.52423.52423,0,0,1-.08789-.30761l.13281-1.47754a5.77755,5.77755,0,0,1-.58105.82617,4.26785,4.26785,0,0,1-.66113.63379,2.90193,2.90193,0,0,1-.72071.40527,2.11252,2.11252,0,0,1-.75976.14356,1.66207,1.66207,0,0,1-1.41016-.66114,3.1427,3.1427,0,0,1-.501-1.92187,5.66021,5.66021,0,0,1,.11914-1.14746,5.98757,5.98757,0,0,1,.33887-1.09961,5.434,5.434,0,0,1,.53223-.97656,4.10087,4.10087,0,0,1,.69336-.78028,3.126,3.126,0,0,1,.8291-.51758,2.39,2.39,0,0,1,.9375-.18945,2.20643,2.20643,0,0,1,.94922.20313,2.0324,2.0324,0,0,1,.73144.58105l.4834-3.89844h1.22461L144.5957,44Zm-2.541-.90332a1.29084,1.29084,0,0,0,.67578-.20606,2.8372,2.8372,0,0,0,.6582-.57421,4.95913,4.95913,0,0,0,.59473-.875,6.96372,6.96372,0,0,0,.47949-1.10938l.23047-1.876a1.48859,1.48859,0,0,0-.63672-.52539,1.94308,1.94308,0,0,0-.749-.15332,1.63207,1.63207,0,0,0-.99707.32911,2.85992,2.85992,0,0,0-.75586.8496,4.46131,4.46131,0,0,0-.48047,1.166,5.03708,5.03708,0,0,0-.168,1.2666,2.2381,2.2381,0,0,0,.30078,1.27051A.97115.97115,0,0,0,141.41016,43.09668Z" style="fill:blue"/><path d="M151.31445,44a.37873.37873,0,0,1-.332-.126.52423.52423,0,0,1-.08789-.30761l.13281-1.47754a5.77326,5.77326,0,0,1-.58007.82617,4.27279,4.27279,0,0,1-.66211.63379,2.88482,2.88482,0,0,1-.72071.40527,2.10864,2.10864,0,0,1-.75976.14356,1.66451,1.66451,0,0,1-1.41016-.66114,3.14289,3.14289,0,0,1-.5-1.92187,5.59122,5.59122,0,0,1,.11914-1.14746,5.84023,5.84023,0,0,1,.33887-1.09961,5.434,5.434,0,0,1,.53223-.97656,4.068,4.068,0,0,1,.69335-.78028,3.1368,3.1368,0,0,1,.82813-.51758,2.39124,2.39124,0,0,1,.93848-.18945,2.202,2.202,0,0,1,.94824.20313,2.044,2.044,0,0,1,.73242.58105l.48242-3.89844h1.22461L151.959,44Zm-2.541-.90332a1.29084,1.29084,0,0,0,.67578-.20606,2.8372,2.8372,0,0,0,.6582-.57421,4.96064,4.96064,0,0,0,.5957-.875,6.96122,6.96122,0,0,0,.47852-1.10938l.23145-1.876a1.491,1.491,0,0,0-.6377-.52539,1.93472,1.93472,0,0,0-.748-.15332,1.63488,1.63488,0,0,0-.998.32911,2.85992,2.85992,0,0,0-.75586.8496,4.49344,4.49344,0,0,0-.47949,1.166,4.9927,4.9927,0,0,0-.168,1.2666,2.2381,2.2381,0,0,0,.30078,1.27051A.96834.96834,0,0,0,148.77344,43.09668Z" style="fill:blue"/><path d="M159.11328,44.09766a2.7664,2.7664,0,0,1-1.06445-.19922,2.33256,2.33256,0,0,1-.833-.57715,2.67334,2.67334,0,0,1-.5459-.92383,3.67144,3.67144,0,0,1-.19629-1.24609,5.02373,5.02373,0,0,1,.28028-1.6875,4.55874,4.55874,0,0,1,.7666-1.38575,3.64894,3.64894,0,0,1,1.14746-.93847,3.06622,3.06622,0,0,1,1.43164-.34277,2.7664,2.7664,0,0,1,1.06445.19921,2.34733,2.34733,0,0,1,.833.57813,2.65548,2.65548,0,0,1,.5459.92773,3.67665,3.67665,0,0,1,.19531,1.24219,4.99836,4.99836,0,0,1-.2793,1.67969,4.60068,4.60068,0,0,1-.7666,1.38574,3.65643,3.65643,0,0,1-1.15136.94238A3.05242,3.05242,0,0,1,159.11328,44.09766Zm.11133-.97266a1.646,1.646,0,0,0,.93164-.28027,2.44707,2.44707,0,0,0,.71289-.74512,3.809,3.809,0,0,0,.45508-1.07422,4.96523,4.96523,0,0,0,.16211-1.27441,2.38861,2.38861,0,0,0-.38477-1.47657,1.32466,1.32466,0,0,0-1.11328-.49707,1.65425,1.65425,0,0,0-.93555.27637,2.44,2.44,0,0,0-.71.74219,3.813,3.813,0,0,0-.45507,1.07422,4.96256,4.96256,0,0,0-.16114,1.27343,2.41053,2.41053,0,0,0,.38184,1.48047A1.31676,1.31676,0,0,0,159.22461,43.125Z" style="fill:blue"/><path d="M163.62109,44l.84668-7.09766h.62207a.37121.37121,0,0,1,.4209.41993l-.10449,1.37207a4.36815,4.36815,0,0,1,1.27734-1.41407,2.60951,2.60951,0,0,1,1.47266-.47656,1.50158,1.50158,0,0,1,1.22852.53223,2.39351,2.39351,0,0,1,.4375,1.55371c0,.09375-.002.18945-.00684.28711-.00488.09863-.01367.20117-.02832.30859L169.25586,44h-1.24609l.53125-4.51465c.00976-.09375.01757-.18359.02539-.26953.00683-.08691.00976-.16894.00976-.249a1.38573,1.38573,0,0,0-.21289-.85059.79412.79412,0,0,0-.66894-.27637,1.45531,1.45531,0,0,0-.68262.18262,2.66315,2.66315,0,0,0-.668.51367,4.19419,4.19419,0,0,0-.59863.80567,5.65757,5.65757,0,0,0-.47266,1.05273L164.86719,44Z" style="fill:blue"/><path d="M176.6543,38.42773a1.90317,1.90317,0,0,1-.18946.85059,1.7632,1.7632,0,0,1-.69238.7002,5.1687,5.1687,0,0,1-1.38574.543,15.29734,15.29734,0,0,1-2.26856.37012c-.00488.05176-.00683.10156-.00683.15137v.15039a2.18428,2.18428,0,0,0,.41015,1.43066,1.51,1.51,0,0,0,1.23438.49414,2.32851,2.32851,0,0,0,.59961-.07031,2.651,2.651,0,0,0,.46875-.1709,2.13,2.13,0,0,0,.36328-.22461c.10547-.08105.20215-.15625.291-.22363.08789-.06738.16992-.125.24414-.17187a.42285.42285,0,0,1,.22461-.07032.30463.30463,0,0,1,.23046.11914l.3086.38575a6.56169,6.56169,0,0,1-.69629.63281,4.04528,4.04528,0,0,1-.69629.4375,3.107,3.107,0,0,1-.74609.25586,4.11043,4.11043,0,0,1-.83594.08008,2.7829,2.7829,0,0,1-1.0918-.20313,2.257,2.257,0,0,1-.82031-.57715,2.60807,2.60807,0,0,1-.51758-.90625,3.66632,3.66632,0,0,1-.18164-1.19043,5.26654,5.26654,0,0,1,.11523-1.08789,5.13706,5.13706,0,0,1,.33594-1.0332,4.65916,4.65916,0,0,1,.53906-.90918,3.63182,3.63182,0,0,1,.72852-.72461,3.40263,3.40263,0,0,1,.90234-.47949,3.13871,3.13871,0,0,1,1.06055-.17578,2.55,2.55,0,0,1,.93164.15429,1.97307,1.97307,0,0,1,.64356.39258,1.55162,1.55162,0,0,1,.374.52442A1.38921,1.38921,0,0,1,176.6543,38.42773Zm-2.14258-.7207a1.82179,1.82179,0,0,0-.81152.18164,2.15588,2.15588,0,0,0-.65723.501,3.03029,3.03029,0,0,0-.49024.749,4.47122,4.47122,0,0,0-.31543.92774,13.65677,13.65677,0,0,0,1.7295-.30469,4.28532,4.28532,0,0,0,1-.3711,1.0815,1.0815,0,0,0,.46289-.43066,1.102,1.102,0,0,0,.11133-.4834.68976.68976,0,0,0-.05567-.26172.698.698,0,0,0-.17871-.249.97814.97814,0,0,0-.31836-.18555A1.36591,1.36591,0,0,0,174.51172,37.707Z" style="fill:blue"/></g><path id="Line-2" d="M126.34543,36.43931l.31581.07588.4848.12233-.24465.96961-.4848-.12232c-6.16011-1.55432-10.88442,1.94564-12.71813,8.00822l3.82871-.04211L113.12664,54.5l-4.59892-8.94986,4.12539-.04572C114.52987,38.89633,119.65533,34.91249,126.34543,36.43931Z" style="fill:blue"/></svg>