<svg id="nitrate_20_-_3B" data-name="nitrate 20 - 3B" xmlns="http://www.w3.org/2000/svg" viewBox="0 0 226 200"><rect id="back" width="226" height="200" style="fill:none"/><g id="test_tube" data-name="test tube"><rect id="water" x="106.5" y="64.5" width="13" height="45.5" style="fill:#dc8c74"/><path id="test_tube-2" data-name="test tube" d="M119,19.5v90H107v-90h12m1-1H106v92h14v-92Z" style="fill:#333"/><rect id="water_fill_line" data-name="water fill line" x="109" y="64" width="8" height="1" style="fill:#333"/><g id="cap"><rect id="cap_fill" data-name="cap fill" x="104.5" y="7.5" width="17" height="19" style="fill:#fff;fill-opacity:0.9"/><path id="cap_outline" data-name="cap outline" d="M120,7H104V27h18V7Zm1,19H105V8h1V18h1V8h1V18h1V8h2V18h1V8h2V18h1V8h2V18h1V8h1V18h1V8h1Z" style="fill:#333;fill-rule:evenodd"/></g></g></svg>