<svg id="nitrate_-_2K" data-name="nitrate - 2K" xmlns="http://www.w3.org/2000/svg" viewBox="0 0 226 200"><rect id="back" width="226" height="200" style="fill:none"/><g id="Layer_25_copy_3" data-name="Layer 25 copy 3"><g id="tablet"><circle id="tablet_inner" data-name="tablet inner" cx="110.78955" cy="142.70366" r="3.5" style="fill:#fff"/><path id="tablet_outline" data-name="tablet outline" d="M111.70166,139.84568a3,3,0,1,1-3.77009,1.94586,3.00339,3.00339,0,0,1,3.77009-1.94586m.304-.95266a4,4,0,1,0,2.59449,5.02679,4,4,0,0,0-2.59449-5.02679Z" style="fill:#333"/></g><g id="sleeve_back" data-name="sleeve back"><path d="M80.80957,175.33984,116.98438,61.9917a22.28566,22.28566,0,0,0,7.88671,1.42285c.6084,0,1.23145-.021,1.88184-.06006.93652-.05615,1.78906-.083,2.60547-.083,5.72754,0,9.49805,1.35791,14.40722,5.189a37.191,37.191,0,0,0,8.4834,4.72949l-36.1914,113.3999Z" style="fill:#c4c4c4;fill-rule:evenodd"/><path d="M117.30489,62.63157a22.42409,22.42409,0,0,0,7.56607,1.28295c.60207,0,1.2274-.01988,1.91174-.06079.92649-.05538,1.76907-.08231,2.5759-.08232,5.60093,0,9.29062,1.33018,14.09985,5.0832a37.21236,37.21236,0,0,0,8.17452,4.62111L115.73368,185.96118,81.4379,175.01584l35.867-112.38427m-.63917-1.28631L80.18121,175.66446l36.20109,11.55342,36.48451-114.3192a37.06942,37.06942,0,0,1-8.79314-4.83243c-4.873-3.80278-8.71057-5.29494-14.71562-5.29484-.83354,0-1.70942.02878-2.635.0841-.64007.03827-1.25337.059-1.85207.059a22.28967,22.28967,0,0,1-8.20524-1.56925Z"/></g><g id="test_tube" data-name="test tube"><rect id="water_25_" data-name="water 25%" x="92.48356" y="118.9899" width="45.5" height="13" transform="matrix(0.30404, -0.95266, 0.95266, 0.30404, -39.35099, 197.11466)" style="fill:#d1eef3;fill-opacity:0.25"/><path id="test_tube-2" data-name="test tube" d="M141.54806,62.77141l-27.36338,85.7394-11.43192-3.64845L130.11614,59.123l11.43192,3.64845m1.2567-.64862-13.33724-4.25653L101.49606,145.511l13.33724,4.25652,27.97146-87.64472Z" style="fill:#333"/><rect id="water_fill_line" data-name="water fill line" x="121.65041" y="99.81689" width="1" height="8" transform="translate(-13.89011 188.62046) rotate(-72.29973)" style="fill:#333"/></g><g id="sleeve"><path d="M80.80957,175.33984,116.97363,62.02637c4.00977,1.77392,5.88086,2.88134,8.51367,5.46924a17.37021,17.37021,0,0,0,13.166,5.5249,32.59874,32.59874,0,0,0,3.57324-.21192c.543-.05957,1.05274-.12011,1.53614-.17773a34.36456,34.36456,0,0,1,3.92675-.32471,12.07787,12.07787,0,0,1,4.55957.88428l-36.1914,113.39941Z" style="fill:#efefef;fill-rule:evenodd"/><path d="M117.27968,62.71054a22.88172,22.88172,0,0,1,7.85679,5.14172,17.82977,17.82977,0,0,0,13.517,5.66862,33.02711,33.02711,0,0,0,3.6279-.21519c.54367-.05976,1.05444-.12032,1.53924-.17781a33.50772,33.50772,0,0,1,3.87033-.32178,11.38141,11.38141,0,0,1,3.93637.68745L115.73368,185.96118,81.4379,175.01584l35.84178-112.3053m-.614-1.36528L80.18121,175.66446l36.20109,11.55342,36.48451-114.3192a12.8122,12.8122,0,0,0-5.1764-1.09258,54.31905,54.31905,0,0,0-5.51838.5056,32.24569,32.24569,0,0,1-3.5186.20918,16.83163,16.83163,0,0,1-12.816-5.3818c-2.80246-2.75453-4.77609-3.87251-9.17173-5.79382Z"/></g><path id="shadow" d="M139.13039,73.51113c-.18879.73-23.23583,74.30252-26.49805,74.84623s-11.99866-2.29293-10.6696-.87472,12.66565,5.18448,15.5201,1.78633,28.30105-74.43882,28.91543-76.4257C145.27009,72.93787,140.74616,73.58951,139.13039,73.51113Z" style="fill:#dbd9d9;fill-rule:evenodd"/><g id="cap"><rect id="cap_fill" data-name="cap fill" x="127.0922" y="50.06554" width="19" height="17" transform="translate(39.26999 170.88534) rotate(-72.29973)" style="fill:#fff;fill-opacity:0.9"/><path id="cap_outline" data-name="cap outline" d="M146.30119,51.1672l-.95266-.304-.95266-.304-.95266-.304-1.90532-.60808-.95266-.304-1.90532-.60807-.95266-.304-1.90532-.60808-.95266-.304-.95266-.304-.95266-.304-1.90532-.60807-6.08075,19.0532,17.14788,5.47267,6.08075-19.0532Zm-4.824,18.40458-15.24256-4.86461,5.47267-17.14788.95266.304-3.04037,9.5266.95266.304,3.04037-9.5266.95266.304-3.04037,9.5266.95266.304,3.04037-9.52661,1.90532.60808-3.04037,9.5266.95266.304,3.04037-9.5266,1.90532.60807-3.04037,9.5266.95266.304,3.04037-9.5266,1.90533.60808-3.04038,9.5266.95266.304,3.04038-9.5266.95266.304-3.04038,9.5266.95266.304,3.04038-9.5266.95266.304Z" style="fill:#333;fill-rule:evenodd"/></g></g><g style="isolation:isolate"><path d="M48.24072,64.69678a3.94224,3.94224,0,0,0,.81885-.07715,3.738,3.738,0,0,0,.63037-.18945,2.33562,2.33562,0,0,0,.46533-.248q.19263-.13623.33594-.249c.0957-.07422.17627-.1377.2417-.18848a.294.294,0,0,1,.1748-.07715.20258.20258,0,0,1,.105.02441.25482.25482,0,0,1,.07031.05957l.45459.56739a4.51938,4.51938,0,0,1-3.51367,1.50488,3.87269,3.87269,0,0,1-1.61036-.32227,3.41873,3.41873,0,0,1-1.20752-.89941,4.03585,4.03585,0,0,1-.75585-1.376,5.59671,5.59671,0,0,1-.26221-1.75683,6.78747,6.78747,0,0,1,.40576-2.39356,5.70806,5.70806,0,0,1,1.1167-1.86621,4.975,4.975,0,0,1,3.73437-1.64062,4.72594,4.72594,0,0,1,.96582.09082,3.36162,3.36162,0,0,1,.791.26562,3.16511,3.16511,0,0,1,.64746.41992,4.51371,4.51371,0,0,1,.54248.5459l-.44775.5459a.54211.54211,0,0,1-.126.11621.31592.31592,0,0,1-.17529.04492.39043.39043,0,0,1-.26563-.13964,2.64887,2.64887,0,0,0-.38183-.30469,2.89378,2.89378,0,0,0-.623-.30469,2.94057,2.94057,0,0,0-.99023-.13965,3.5902,3.5902,0,0,0-1.519.3252,3.54349,3.54349,0,0,0-1.22509.93164,4.47818,4.47818,0,0,0-.81543,1.46582,5.89909,5.89909,0,0,0-.29737,1.93262,4.42513,4.42513,0,0,0,.20313,1.39257,3.1309,3.1309,0,0,0,.56347,1.04688,2.45809,2.45809,0,0,0,.85743.66113A2.55344,2.55344,0,0,0,48.24072,64.69678Z" style="fill:blue"/><path d="M57.8374,65.71143h-.644a.37976.37976,0,0,1-.33252-.126.52752.52752,0,0,1-.0874-.30762l.126-1.4209a5.9272,5.9272,0,0,1-.54248.80567,3.75884,3.75884,0,0,1-.61572.61523,2.72344,2.72344,0,0,1-.68262.39258,2.02643,2.02643,0,0,1-.74218.13867,1.74451,1.74451,0,0,1-.7627-.16406,1.58305,1.58305,0,0,1-.585-.4834,2.351,2.351,0,0,1-.374-.78418,3.88061,3.88061,0,0,1-.1333-1.06738,4.811,4.811,0,0,1,.15771-1.22852,4.993,4.993,0,0,1,1.14453-2.10644,4.68579,4.68579,0,0,1,.90625-.77051,4.31509,4.31509,0,0,1,1.07471-.50391,4.02389,4.02389,0,0,1,1.2041-.17871,5.16845,5.16845,0,0,1,.88525.0752,3.61964,3.61964,0,0,1,.85059.25781ZM54.78564,64.773a1.23,1.23,0,0,0,.67188-.21,2.56553,2.56553,0,0,0,.623-.582,5.06568,5.06568,0,0,0,.54931-.88575,7.991,7.991,0,0,0,.45166-1.126l.30078-2.39844a.48526.48526,0,0,0-.3042-.124h-.29785a2.45836,2.45836,0,0,0-.812.13574,2.89738,2.89738,0,0,0-.73486.38086,3.27856,3.27856,0,0,0-.62305.583,3.81636,3.81636,0,0,0-.47949.74316,4.21936,4.21936,0,0,0-.31152.86231,3.93,3.93,0,0,0-.11182.93847Q53.70752,64.77344,54.78564,64.773Z" style="fill:blue"/><path d="M59.39111,68.11279l1.15528-9.499h.623a.3711.3711,0,0,1,.41993.41992l-.11915,1.51172a5.80161,5.80161,0,0,1,.58106-.83691,4.25063,4.25063,0,0,1,.66162-.63965,2.84159,2.84159,0,0,1,.72461-.41016,2.15109,2.15109,0,0,1,.77-.14355,1.672,1.672,0,0,1,1.40674.6582,3.12489,3.12489,0,0,1,.5039,1.9248,5.66175,5.66175,0,0,1-.11865,1.14844,5.88089,5.88089,0,0,1-.33984,1.09571,5.43093,5.43093,0,0,1-.53174.97265,4.20583,4.20583,0,0,1-.69336.78418,3.08209,3.08209,0,0,1-.8291.52149,2.38971,2.38971,0,0,1-.938.18847,2.20159,2.20159,0,0,1-.959-.206,1.9641,1.9641,0,0,1-.728-.5918l-.37793,3.10156Zm4.34717-8.59668a1.31486,1.31486,0,0,0-.68262.21,2.81347,2.81347,0,0,0-.66845.58789,5.08258,5.08258,0,0,0-.59864.89649,7.34147,7.34147,0,0,0-.47949,1.127l-.22363,1.80567a1.47658,1.47658,0,0,0,.64014.543,1.95388,1.95388,0,0,0,.75976.15722,1.55893,1.55893,0,0,0,.686-.1543,2.16455,2.16455,0,0,0,.58789-.416,3.02871,3.02871,0,0,0,.47607-.61621,4.28328,4.28328,0,0,0,.35352-.75586,5.19724,5.19724,0,0,0,.22021-.833,4.78314,4.78314,0,0,0,.07715-.85058,2.21808,2.21808,0,0,0-.30078-1.26661A.9705.9705,0,0,0,63.73828,59.51611Z" style="fill:blue"/><path d="M74.86133,65.71143h-.644a.37976.37976,0,0,1-.33252-.126.52752.52752,0,0,1-.08741-.30762l.126-1.4209a5.92812,5.92812,0,0,1-.54248.80567,3.75962,3.75962,0,0,1-.61572.61523,2.72379,2.72379,0,0,1-.68262.39258,2.02644,2.02644,0,0,1-.74219.13867,1.74446,1.74446,0,0,1-.76269-.16406,1.583,1.583,0,0,1-.585-.4834,2.35079,2.35079,0,0,1-.374-.78418,3.881,3.881,0,0,1-.1333-1.06738,4.811,4.811,0,0,1,.15772-1.22852A4.993,4.993,0,0,1,70.7876,59.9751a4.68549,4.68549,0,0,1,.90625-.77051,4.31486,4.31486,0,0,1,1.0747-.50391,4.024,4.024,0,0,1,1.20411-.17871,5.16854,5.16854,0,0,1,.88525.0752,3.61978,3.61978,0,0,1,.85059.25781ZM71.80957,64.773a1.23,1.23,0,0,0,.67188-.21,2.56567,2.56567,0,0,0,.623-.582,5.0657,5.0657,0,0,0,.54932-.88575,7.991,7.991,0,0,0,.45166-1.126l.30078-2.39844a.48528.48528,0,0,0-.3042-.124H73.8042a2.45832,2.45832,0,0,0-.812.13574,2.8976,2.8976,0,0,0-.73487.38086,3.27851,3.27851,0,0,0-.623.583,3.8159,3.8159,0,0,0-.47949.74316,4.21938,4.21938,0,0,0-.31153.86231,3.93,3.93,0,0,0-.11181.93847Q70.73145,64.77344,71.80957,64.773Z" style="fill:blue"/><path d="M76.71631,65.71143l.84717-7.09766H78.186a.37125.37125,0,0,1,.42041.41992l-.105,1.37207a4.39016,4.39016,0,0,1,1.27735-1.41406,2.61244,2.61244,0,0,1,1.47363-.47656,1.50352,1.50352,0,0,1,1.22852.53222,2.3964,2.3964,0,0,1,.4375,1.55371q0,.14063-.00733.28711c-.00439.09864-.01367.20118-.02783.3086l-.53223,4.51465h-1.2456l.53174-4.51465c.00927-.09375.01758-.1836.02441-.26953.00733-.08692.01074-.169.01074-.249a1.38539,1.38539,0,0,0-.21386-.85058.7925.7925,0,0,0-.66846-.27637,1.45205,1.45205,0,0,0-.68213.18262,2.64794,2.64794,0,0,0-.66846.51367,4.17386,4.17386,0,0,0-.59863.80566,5.658,5.658,0,0,0-.47266,1.05274l-.40576,3.60547Z" style="fill:blue"/><path d="M88.875,65.71143a.3786.3786,0,0,1-.33252-.126.524.524,0,0,1-.0874-.30762l.13281-1.47754a5.73952,5.73952,0,0,1-.58105.82617,4.24526,4.24526,0,0,1-.66114.63379,2.90466,2.90466,0,0,1-.72119.40528,2.10606,2.10606,0,0,1-.75928.14355,1.66419,1.66419,0,0,1-1.41064-.66113,3.14285,3.14285,0,0,1-.50049-1.92188,5.62565,5.62565,0,0,1,.11914-1.14746A5.94989,5.94989,0,0,1,84.4126,60.979a5.43244,5.43244,0,0,1,.53174-.97656,4.11725,4.11725,0,0,1,.69336-.78027,3.13385,3.13385,0,0,1,.8291-.51758,2.39037,2.39037,0,0,1,.938-.18945,2.20438,2.20438,0,0,1,.94873.20312,2.03656,2.03656,0,0,1,.73144.58106l.48291-3.89844H90.793L89.519,65.71143Zm-2.541-.90332a1.28927,1.28927,0,0,0,.6753-.20606,2.82711,2.82711,0,0,0,.6582-.57422,4.934,4.934,0,0,0,.59522-.875,7.00882,7.00882,0,0,0,.47949-1.10937l.231-1.876a1.49256,1.49256,0,0,0-.6372-.52539,1.94128,1.94128,0,0,0-.749-.15332,1.63346,1.63346,0,0,0-.99755.3291,2.87333,2.87333,0,0,0-.75586.84961,4.45991,4.45991,0,0,0-.4795,1.166,5.01516,5.01516,0,0,0-.168,1.2666,2.23417,2.23417,0,0,0,.30078,1.27051A.96915.96915,0,0,0,86.334,64.80811Z" style="fill:blue"/><path d="M93.96338,64.94189a.88893.88893,0,0,1,.06641-.34375.8495.8495,0,0,1,.18554-.27929.90444.90444,0,0,1,.27637-.18946.843.843,0,0,1,.34668-.07031.82172.82172,0,0,1,.33935.07031.90019.90019,0,0,1,.46582.46875.85678.85678,0,0,1,.06983.34375.84264.84264,0,0,1-.06983.34571.9082.9082,0,0,1-.189.27636.86667.86667,0,0,1-.61621.25293.87451.87451,0,0,1-.34668-.06738.84475.84475,0,0,1-.27637-.18555.85749.85749,0,0,1-.18554-.27636A.8744.8744,0,0,1,93.96338,64.94189Zm3.59814,0a.88912.88912,0,0,1,.06641-.34375.842.842,0,0,1,.18555-.27929.89853.89853,0,0,1,.27636-.18946.84136.84136,0,0,1,.34668-.07031.82338.82338,0,0,1,.33936.07031.89869.89869,0,0,1,.27637.18946.882.882,0,0,1,.189.27929.84889.84889,0,0,1,.07031.34375.835.835,0,0,1-.07031.34571.89132.89132,0,0,1-.189.27636.83976.83976,0,0,1-.27637.18555.854.854,0,0,1-.33936.06738.87283.87283,0,0,1-.34668-.06738.83961.83961,0,0,1-.27636-.18555.84973.84973,0,0,1-.18555-.27636A.87457.87457,0,0,1,97.56152,64.94189Zm3.605,0a.88912.88912,0,0,1,.06641-.34375.87219.87219,0,0,1,.18213-.27929.86948.86948,0,0,1,.9624-.18946.89511.89511,0,0,1,.46924.46875.85677.85677,0,0,1,.06982.34375.84264.84264,0,0,1-.06982.34571.90116.90116,0,0,1-.18945.27636.82947.82947,0,0,1-.27979.18555.90679.90679,0,0,1-.686,0,.792.792,0,0,1-.27637-.18555.87479.87479,0,0,1-.24854-.62207Z" style="fill:blue"/></g></svg>