<svg id="nitrate_-_2I" data-name="nitrate - 2I" xmlns="http://www.w3.org/2000/svg" viewBox="0 0 226 200"><rect id="back" width="226" height="200" style="fill:none"/><g id="Layer_25_copy_4" data-name="Layer 25 copy 4"><g id="tablet"><circle id="tablet_inner" data-name="tablet inner" cx="110.78955" cy="142.70366" r="3.5" style="fill:#fff"/><path id="tablet_outline" data-name="tablet outline" d="M111.70166,139.84568a3,3,0,1,1-3.77009,1.94586,3.00339,3.00339,0,0,1,3.77009-1.94586m.304-.95266a4,4,0,1,0,2.59449,5.02679,4,4,0,0,0-2.59449-5.02679Z" style="fill:#333"/></g><g id="sleeve_back" data-name="sleeve back"><path d="M80.80957,175.33984,116.98438,61.9917a22.28566,22.28566,0,0,0,7.88671,1.42285c.6084,0,1.23145-.021,1.88184-.06006.93652-.05615,1.78906-.083,2.60547-.083,5.72754,0,9.49805,1.35791,14.40722,5.189a37.191,37.191,0,0,0,8.4834,4.72949l-36.1914,113.3999Z" style="fill:#c4c4c4;fill-rule:evenodd"/><path d="M117.30489,62.63157a22.42409,22.42409,0,0,0,7.56607,1.28295c.60207,0,1.2274-.01988,1.91174-.06079.92649-.05538,1.76907-.08231,2.5759-.08232,5.60093,0,9.29062,1.33018,14.09985,5.0832a37.21236,37.21236,0,0,0,8.17452,4.62111L115.73368,185.96118,81.4379,175.01584l35.867-112.38427m-.63917-1.28631L80.18121,175.66446l36.20109,11.55342,36.48451-114.3192a37.06942,37.06942,0,0,1-8.79314-4.83243c-4.873-3.80278-8.71057-5.29494-14.71562-5.29484-.83354,0-1.70942.02878-2.635.0841-.64007.03827-1.25337.059-1.85207.059a22.28967,22.28967,0,0,1-8.20524-1.56925Z"/></g><g id="test_tube" data-name="test tube"><rect id="water_25_" data-name="water 25%" x="92.48356" y="118.9899" width="45.5" height="13" transform="matrix(0.30404, -0.95266, 0.95266, 0.30404, -39.35099, 197.11466)" style="fill:#d1eef3;fill-opacity:0.25"/><path id="test_tube-2" data-name="test tube" d="M141.54806,62.77141l-27.36338,85.7394-11.43192-3.64845L130.11614,59.123l11.43192,3.64845m1.2567-.64862-13.33724-4.25653L101.49606,145.511l13.33724,4.25652,27.97146-87.64472Z" style="fill:#333"/><rect id="water_fill_line" data-name="water fill line" x="121.65041" y="99.81689" width="1" height="8" transform="translate(-13.89011 188.62046) rotate(-72.29973)" style="fill:#333"/></g><g id="sleeve"><path d="M80.80957,175.33984,116.97363,62.02637c4.00977,1.77392,5.88086,2.88134,8.51367,5.46924a17.37021,17.37021,0,0,0,13.166,5.5249,32.59874,32.59874,0,0,0,3.57324-.21192c.543-.05957,1.05274-.12011,1.53614-.17773a34.36456,34.36456,0,0,1,3.92675-.32471,12.07787,12.07787,0,0,1,4.55957.88428l-36.1914,113.39941Z" style="fill:#efefef;fill-rule:evenodd"/><path d="M117.27968,62.71054a22.88172,22.88172,0,0,1,7.85679,5.14172,17.82977,17.82977,0,0,0,13.517,5.66862,33.02711,33.02711,0,0,0,3.6279-.21519c.54367-.05976,1.05444-.12032,1.53924-.17781a33.50772,33.50772,0,0,1,3.87033-.32178,11.38141,11.38141,0,0,1,3.93637.68745L115.73368,185.96118,81.4379,175.01584l35.84178-112.3053m-.614-1.36528L80.18121,175.66446l36.20109,11.55342,36.48451-114.3192a12.8122,12.8122,0,0,0-5.1764-1.09258,54.31905,54.31905,0,0,0-5.51838.5056,32.24569,32.24569,0,0,1-3.5186.20918,16.83163,16.83163,0,0,1-12.816-5.3818c-2.80246-2.75453-4.77609-3.87251-9.17173-5.79382Z"/></g><path id="shadow" d="M139.13039,73.51113c-.18879.73-23.23583,74.30252-26.49805,74.84623s-11.99866-2.29293-10.6696-.87472,12.66565,5.18448,15.5201,1.78633,28.30105-74.43882,28.91543-76.4257C145.27009,72.93787,140.74616,73.58951,139.13039,73.51113Z" style="fill:#dbd9d9;fill-rule:evenodd"/></g><g style="isolation:isolate"><path d="M34.437,39.03906h-1.3164L34.3457,29.00781h1.31592Z" style="fill:blue"/><path d="M36.67676,39.03906l.854-7.09765h.623a.37109.37109,0,0,1,.41992.41992l-.09814,1.2666a4.38107,4.38107,0,0,1,1.148-1.333,2.20249,2.20249,0,0,1,1.31591-.45215,1.20727,1.20727,0,0,1,1.06446.49414,2.45562,2.45562,0,0,1,.34277,1.41016A4.15122,4.15122,0,0,1,43.54,32.30859a2.37659,2.37659,0,0,1,1.38965-.46582,1.37929,1.37929,0,0,1,1.17236.51172,2.38791,2.38791,0,0,1,.38867,1.46973c0,.10742-.00488.21973-.01416.33594s-.021.23828-.03467.36425l-.53222,4.51465h-1.2251l.53223-4.51465a5.20131,5.20131,0,0,0,.042-.623,1.35519,1.35519,0,0,0-.17529-.77344.66785.66785,0,0,0-.58789-.249,1.34529,1.34529,0,0,0-.60206.15039,2.17131,2.17131,0,0,0-.581.4414,3.49762,3.49762,0,0,0-.52148.72071,5.88363,5.88363,0,0,0-.43018.99023l-.45508,3.85742H40.67383l.53906-4.51465q.0205-.189.03467-.35742c.00928-.1123.01416-.21679.01416-.31445a1.30887,1.30887,0,0,0-.16455-.73535.6517.6517,0,0,0-.57764-.23828,1.3546,1.3546,0,0,0-.64746.168,2.12923,2.12923,0,0,0-.58789.48632,3.98319,3.98319,0,0,0-.51465.77735,7.57286,7.57286,0,0,0-.43408,1.03222l-.44092,3.69629Z" style="fill:blue"/><path d="M47.64551,39.03906l.854-7.09765h.623a.37109.37109,0,0,1,.41992.41992l-.09814,1.2666a4.38107,4.38107,0,0,1,1.148-1.333,2.20249,2.20249,0,0,1,1.31591-.45215,1.20727,1.20727,0,0,1,1.06446.49414,2.45562,2.45562,0,0,1,.34277,1.41016,4.15122,4.15122,0,0,1,1.19336-1.43848,2.37659,2.37659,0,0,1,1.38965-.46582,1.37929,1.37929,0,0,1,1.17236.51172,2.38791,2.38791,0,0,1,.38867,1.46973c0,.10742-.00488.21973-.01416.33594s-.021.23828-.03467.36425l-.53222,4.51465h-1.2251l.53223-4.51465a5.20131,5.20131,0,0,0,.042-.623,1.35519,1.35519,0,0,0-.17529-.77344.66785.66785,0,0,0-.58789-.249,1.34529,1.34529,0,0,0-.60206.15039,2.17131,2.17131,0,0,0-.581.4414,3.49762,3.49762,0,0,0-.52148.72071,5.88363,5.88363,0,0,0-.43018.99023l-.45508,3.85742H51.64258l.53906-4.51465q.0205-.189.03467-.35742c.00928-.1123.01416-.21679.01416-.31445a1.30887,1.30887,0,0,0-.16455-.73535.6517.6517,0,0,0-.57764-.23828,1.3546,1.3546,0,0,0-.64746.168,2.12923,2.12923,0,0,0-.58789.48632,3.98319,3.98319,0,0,0-.51465.77735,7.57286,7.57286,0,0,0-.43408,1.03222l-.44092,3.69629Z" style="fill:blue"/><path d="M64.28418,33.4668a1.91609,1.91609,0,0,1-.189.85058,1.77123,1.77123,0,0,1-.69287.7002,5.17265,5.17265,0,0,1-1.38623.543,15.30066,15.30066,0,0,1-2.26806.37011c-.0044.05176-.00684.10157-.00684.15137v.15039a2.187,2.187,0,0,0,.40967,1.43067,1.5127,1.5127,0,0,0,1.23535.49414,2.32064,2.32064,0,0,0,.59863-.07032,2.59583,2.59583,0,0,0,.46875-.17089,2.12158,2.12158,0,0,0,.36426-.22461c.105-.08106.20166-.15625.29053-.22364.08838-.06738.16992-.125.24463-.17187a.41872.41872,0,0,1,.22412-.07031.30631.30631,0,0,1,.231.11914l.3081.38574a6.46542,6.46542,0,0,1-.69629.63281,4.04788,4.04788,0,0,1-.69678.4375,3.10318,3.10318,0,0,1-.7456.25586,4.11534,4.11534,0,0,1-.83643.08008,2.78606,2.78606,0,0,1-1.09179-.20313,2.24916,2.24916,0,0,1-.81934-.57714,2.59314,2.59314,0,0,1-.51758-.90625,3.653,3.653,0,0,1-.18213-1.19043,5.233,5.233,0,0,1,.11524-1.08789,5.10552,5.10552,0,0,1,.33594-1.03321,4.68361,4.68361,0,0,1,.53906-.90918,3.62926,3.62926,0,0,1,.728-.72461,3.40066,3.40066,0,0,1,.90332-.47949,3.13452,3.13452,0,0,1,1.06054-.17578,2.54462,2.54462,0,0,1,.93067.1543,1.97033,1.97033,0,0,1,.644.39257,1.5601,1.5601,0,0,1,.37451.52442A1.39679,1.39679,0,0,1,64.28418,33.4668Zm-2.14209-.72071a1.82239,1.82239,0,0,0-.812.18164,2.16385,2.16385,0,0,0-.65772.501,3.04416,3.04416,0,0,0-.49023.749,4.46987,4.46987,0,0,0-.31494.92774,13.6303,13.6303,0,0,0,1.729-.30469,4.30481,4.30481,0,0,0,1.001-.37109,1.081,1.081,0,0,0,.46191-.43067,1.09629,1.09629,0,0,0,.11231-.4834.69073.69073,0,0,0-.05616-.26171.69783.69783,0,0,0-.17871-.249.97279.97279,0,0,0-.31836-.18554A1.36658,1.36658,0,0,0,62.14209,32.74609Z" style="fill:blue"/><path d="M69.86328,39.03906a.3786.3786,0,0,1-.33252-.126.52406.52406,0,0,1-.0874-.30762l.13281-1.47754a5.73873,5.73873,0,0,1-.58105.82617,4.24572,4.24572,0,0,1-.66114.63379,2.9043,2.9043,0,0,1-.72119.40527,2.10585,2.10585,0,0,1-.75927.14356,1.66422,1.66422,0,0,1-1.41065-.66113,3.14285,3.14285,0,0,1-.50049-1.92188,5.62557,5.62557,0,0,1,.11914-1.14746,5.95065,5.95065,0,0,1,.33936-1.09961,5.43244,5.43244,0,0,1,.53174-.97656,4.11763,4.11763,0,0,1,.69336-.78028,3.13356,3.13356,0,0,1,.8291-.51757,2.39045,2.39045,0,0,1,.938-.18946,2.20423,2.20423,0,0,1,.94873.20313,2.03656,2.03656,0,0,1,.73144.581l.48291-3.89843h1.2251L70.50732,39.03906Zm-2.541-.90332a1.28934,1.28934,0,0,0,.67529-.206,2.82734,2.82734,0,0,0,.6582-.57422,4.9335,4.9335,0,0,0,.59522-.875,7.00854,7.00854,0,0,0,.47949-1.10938l.231-1.876a1.49257,1.49257,0,0,0-.63721-.52539,1.94127,1.94127,0,0,0-.749-.15332,1.63347,1.63347,0,0,0-.99756.3291,2.87333,2.87333,0,0,0-.75586.84961,4.45963,4.45963,0,0,0-.47949,1.166,5.01485,5.01485,0,0,0-.168,1.2666,2.23413,2.23413,0,0,0,.30078,1.27051A.96917.96917,0,0,0,67.32227,38.13574Z" style="fill:blue"/><path d="M74.6792,31.94824l-.854,7.09082H72.6001l.854-7.09082Zm.46875-2.22656a.79266.79266,0,0,1-.07324.33984.98716.98716,0,0,1-.19629.28028.95141.95141,0,0,1-.27637.19238.76594.76594,0,0,1-.32178.07031.754.754,0,0,1-.31543-.07031.859.859,0,0,1-.269-.19238.9832.9832,0,0,1-.18555-.28028.82072.82072,0,0,1-.07031-.33984.84776.84776,0,0,1,.07031-.34277.94768.94768,0,0,1,.46192-.4795.72523.72523,0,0,1,.31494-.07324.76594.76594,0,0,1,.32178.07031.92341.92341,0,0,1,.27685.19239.89065.89065,0,0,1,.19238.28711A.87648.87648,0,0,1,75.148,29.72168Z" style="fill:blue"/><path d="M81.05615,39.03906h-.644a.37976.37976,0,0,1-.33252-.126.52754.52754,0,0,1-.0874-.30762l.126-1.4209a5.92646,5.92646,0,0,1-.54248.80566,3.75892,3.75892,0,0,1-.61572.61524,2.72406,2.72406,0,0,1-.68262.39258,2.02643,2.02643,0,0,1-.74218.13867,1.74451,1.74451,0,0,1-.7627-.16406,1.58305,1.58305,0,0,1-.585-.4834,2.35116,2.35116,0,0,1-.374-.78418,3.88066,3.88066,0,0,1-.1333-1.06738,4.81088,4.81088,0,0,1,.15771-1.22852,4.99307,4.99307,0,0,1,1.14453-2.10645,4.68609,4.68609,0,0,1,.90625-.7705,4.31509,4.31509,0,0,1,1.07471-.50391,4.02389,4.02389,0,0,1,1.2041-.17871,5.16955,5.16955,0,0,1,.88525.07519,3.61967,3.61967,0,0,1,.85059.25782Zm-3.05176-.93847a1.22991,1.22991,0,0,0,.67188-.21,2.56513,2.56513,0,0,0,.623-.582,5.06558,5.06558,0,0,0,.54931-.88574,7.99153,7.99153,0,0,0,.45166-1.126l.30078-2.39844a.48527.48527,0,0,0-.30419-.124H79.999a2.45837,2.45837,0,0,0-.812.13575,2.89738,2.89738,0,0,0-.73486.38086,3.27852,3.27852,0,0,0-.62305.583,3.81674,3.81674,0,0,0-.47949.74317,4.21927,4.21927,0,0,0-.31152.8623,3.93019,3.93019,0,0,0-.11182.93848Q76.92627,38.10107,78.00439,38.10059Z" style="fill:blue"/><path d="M83.52686,37.70215c0-.02832.00146-.06445.0039-.1084.00195-.04492.00684-.1084.01367-.19238.00733-.084.01758-.19434.03174-.3291.01367-.13575.03467-.3125.063-.53223l.44092-3.54883h-.791a.21827.21827,0,0,1-.15039-.05273.207.207,0,0,1-.05957-.16407c0-.01464.00244-.042.00684-.084q.00732-.063.01758-.14355c.00683-.05372.01416-.1084.021-.165q.01026-.08351.01758-.16114l1.0918-.14648.52539-2.19141a.3302.3302,0,0,1,.105-.1709.27587.27587,0,0,1,.189-.0664h.65772l-.30811,2.44238h1.86231l-.105.90332H85.291l-.42676,3.48633c-.02344.19141-.041.34473-.05274.46191-.01172.11621-.021.21-.02783.2793-.00732.07031-.01172.11914-.01416.14746s-.00342.04883-.00342.0625a.74014.74014,0,0,0,.16455.5293.59473.59473,0,0,0,.45118.1709.91011.91011,0,0,0,.32226-.05274,1.32888,1.32888,0,0,0,.2417-.11523c.06738-.042.12451-.08008.17139-.11524a.21669.21669,0,0,1,.126-.05273.12793.12793,0,0,1,.08741.02832.35136.35136,0,0,1,.0664.09082l.25928.59473a2.5225,2.5225,0,0,1-.77393.47265,2.3921,2.3921,0,0,1-.87841.17188,1.49537,1.49537,0,0,1-1.0708-.3711A1.45575,1.45575,0,0,1,83.52686,37.70215Z" style="fill:blue"/><path d="M93.376,33.4668a1.91609,1.91609,0,0,1-.189.85058,1.77123,1.77123,0,0,1-.69287.7002,5.17279,5.17279,0,0,1-1.38623.543,15.30059,15.30059,0,0,1-2.26807.37011c-.00439.05176-.00683.10157-.00683.15137v.15039a2.187,2.187,0,0,0,.40967,1.43067,1.51269,1.51269,0,0,0,1.23535.49414,2.32064,2.32064,0,0,0,.59863-.07032,2.59639,2.59639,0,0,0,.46875-.17089,2.12158,2.12158,0,0,0,.36426-.22461c.105-.08106.20166-.15625.29053-.22364.08837-.06738.16992-.125.24462-.17187a.41878.41878,0,0,1,.22413-.07031.30628.30628,0,0,1,.231.11914l.30811.38574a6.46732,6.46732,0,0,1-.69629.63281,4.04826,4.04826,0,0,1-.69678.4375,3.10333,3.10333,0,0,1-.7456.25586,4.11534,4.11534,0,0,1-.83643.08008,2.78615,2.78615,0,0,1-1.0918-.20313,2.24921,2.24921,0,0,1-.81933-.57714,2.59283,2.59283,0,0,1-.51758-.90625,3.653,3.653,0,0,1-.18213-1.19043,5.233,5.233,0,0,1,.11523-1.08789,5.10615,5.10615,0,0,1,.33594-1.03321,4.68361,4.68361,0,0,1,.53906-.90918,3.62952,3.62952,0,0,1,.728-.72461,3.401,3.401,0,0,1,.90332-.47949,3.13462,3.13462,0,0,1,1.06055-.17578,2.54456,2.54456,0,0,1,.93066.1543,1.97038,1.97038,0,0,1,.64405.39257,1.5601,1.5601,0,0,1,.37451.52442A1.39679,1.39679,0,0,1,93.376,33.4668Zm-2.14209-.72071a1.82236,1.82236,0,0,0-.812.18164,2.16373,2.16373,0,0,0-.65772.501,3.04388,3.04388,0,0,0-.49023.749,4.46989,4.46989,0,0,0-.31495.92774,13.6305,13.6305,0,0,0,1.729-.30469,4.30452,4.30452,0,0,0,1.001-.37109,1.08109,1.08109,0,0,0,.46192-.43067,1.09628,1.09628,0,0,0,.1123-.4834.69071.69071,0,0,0-.05615-.26171.69808.69808,0,0,0-.17871-.249.97279.97279,0,0,0-.31836-.18554A1.36658,1.36658,0,0,0,91.23389,32.74609Z" style="fill:blue"/><path d="M94.2793,39.03906l1.25293-10.31054h1.22509L95.50391,39.03906Z" style="fill:blue"/><path d="M99.19971,41.15332a.46672.46672,0,0,1-.43409.28711H97.856l1.53271-2.82129-1.834-6.6709H98.584a.29971.29971,0,0,1,.22022.07324.38773.38773,0,0,1,.10156.18555l1.14112,4.46582c.02343.09863.042.19629.05615.294.01367.09863.02539.19629.03467.29394.042-.09765.083-.19629.12255-.29687a2.90748,2.90748,0,0,1,.13672-.29785l2.23975-4.47266a.44461.44461,0,0,1,.15771-.17871.37469.37469,0,0,1,.20655-.06641h.98681Z" style="fill:blue"/><path d="M37.27881,49.88184a.45387.45387,0,0,1-.11182.12207.23726.23726,0,0,1-.14013.03906.38781.38781,0,0,1-.21338-.07715c-.07715-.05078-.17041-.1084-.28028-.17187a2.32442,2.32442,0,0,0-.40234-.17481,2.01456,2.01456,0,0,0-1.148.00684,1.42972,1.42972,0,0,0-.44824.24218,1.07354,1.07354,0,0,0-.29053.36036.982.982,0,0,0-.10156.4375.66874.66874,0,0,0,.21728.52441,1.99563,1.99563,0,0,0,.5459.33984c.21924.09571.45606.18848.71045.27637a3.65214,3.65214,0,0,1,.71045.33594,1.81486,1.81486,0,0,1,.5459.51855,1.41035,1.41035,0,0,1,.21728.81836,2.35962,2.35962,0,0,1-.19238.93848,2.33455,2.33455,0,0,1-.55322.78711,2.73117,2.73117,0,0,1-.86817.543,3.0496,3.0496,0,0,1-1.1372.20312,2.82666,2.82666,0,0,1-1.20069-.24219,2.488,2.488,0,0,1-.85058-.61914l.3081-.47558a.43521.43521,0,0,1,.1333-.14063.36145.36145,0,0,1,.1958-.04883.34632.34632,0,0,1,.22413.09766c.07421.06543.168.13965.27978.2207A1.71941,1.71941,0,0,0,34.5,55.06152a1.72474,1.72474,0,0,0,.61914-.10449,1.45373,1.45373,0,0,0,.46924-.28027,1.18,1.18,0,0,0,.29394-.40918,1.25171,1.25171,0,0,0,.10157-.501.75224.75224,0,0,0-.21729-.5664,1.76955,1.76955,0,0,0-.5459-.35059q-.32886-.13916-.707-.2627a3.56618,3.56618,0,0,1-.707-.31445,1.71343,1.71343,0,0,1-.5459-.501,1.39289,1.39289,0,0,1-.21679-.81836,2.184,2.184,0,0,1,.17822-.86523,2.23815,2.23815,0,0,1,.51465-.73828,2.54234,2.54234,0,0,1,.81543-.51465,2.89028,2.89028,0,0,1,1.08154-.19238,2.7682,2.7682,0,0,1,1.12353.21387,2.60185,2.60185,0,0,1,.83643.57714Z" style="fill:blue"/><path d="M38.27979,55.83887l1.25292-10.31055h1.2251L39.50439,55.83887Z" style="fill:blue"/><path d="M43.73242,48.74805l-.854,7.09082h-1.2251l.854-7.09082Zm.46875-2.22657a.7927.7927,0,0,1-.07324.33985.98712.98712,0,0,1-.19629.28027.951.951,0,0,1-.27637.19238.76579.76579,0,0,1-.32177.07032.75384.75384,0,0,1-.31543-.07032.85876.85876,0,0,1-.269-.19238.98312.98312,0,0,1-.18554-.28027.82062.82062,0,0,1-.07032-.33985.8476.8476,0,0,1,.07032-.34277.94764.94764,0,0,1,.46191-.47949.72509.72509,0,0,1,.31494-.07324.76579.76579,0,0,1,.32178.07031.92338.92338,0,0,1,.27685.19238.89105.89105,0,0,1,.19239.28711A.87668.87668,0,0,1,44.20117,46.52148Z" style="fill:blue"/><path d="M49.68945,55.83887a.37857.37857,0,0,1-.33252-.126.524.524,0,0,1-.0874-.30762l.13281-1.47754a5.73828,5.73828,0,0,1-.58105.82618,4.24658,4.24658,0,0,1-.66113.63379,2.905,2.905,0,0,1-.7212.40527,2.106,2.106,0,0,1-.75927.14355,1.66419,1.66419,0,0,1-1.41065-.66113,3.14281,3.14281,0,0,1-.50049-1.92187,5.62568,5.62568,0,0,1,.11915-1.14747,5.95029,5.95029,0,0,1,.33935-1.0996,5.43253,5.43253,0,0,1,.53174-.97657,4.1179,4.1179,0,0,1,.69336-.78027,3.13385,3.13385,0,0,1,.8291-.51758,2.39044,2.39044,0,0,1,.938-.18945,2.20438,2.20438,0,0,1,.94873.20312,2.03658,2.03658,0,0,1,.73144.58106l.48291-3.89844h1.2251L50.3335,55.83887Zm-2.541-.90332a1.28923,1.28923,0,0,0,.67529-.20606,2.82711,2.82711,0,0,0,.6582-.57422,4.9326,4.9326,0,0,0,.59522-.875,7.00842,7.00842,0,0,0,.47949-1.10937l.231-1.876a1.49264,1.49264,0,0,0-.63721-.52539,1.94127,1.94127,0,0,0-.749-.15332,1.63356,1.63356,0,0,0-.99756.3291,2.87333,2.87333,0,0,0-.75586.84961,4.45955,4.45955,0,0,0-.47949,1.166,5.01473,5.01473,0,0,0-.168,1.2666,2.23425,2.23425,0,0,0,.30078,1.27051A.96917.96917,0,0,0,47.14844,54.93555Z" style="fill:blue"/><path d="M57.92822,50.2666a1.91623,1.91623,0,0,1-.189.85059,1.77129,1.77129,0,0,1-.69287.70019,5.17279,5.17279,0,0,1-1.38623.543,15.30043,15.30043,0,0,1-2.26807.37012c-.00439.05176-.00684.10156-.00684.15137v.15039a2.187,2.187,0,0,0,.40967,1.43066,1.5127,1.5127,0,0,0,1.23535.49414,2.32123,2.32123,0,0,0,.59864-.07031,2.59714,2.59714,0,0,0,.46875-.1709,2.12186,2.12186,0,0,0,.36425-.22461c.105-.08105.20166-.15625.29053-.22363.08838-.06738.16992-.125.24463-.17188a.41883.41883,0,0,1,.22412-.07031.30633.30633,0,0,1,.231.11914l.3081.38574a6.46663,6.46663,0,0,1-.69629.63282,4.0488,4.0488,0,0,1-.69677.4375,3.10427,3.10427,0,0,1-.74561.25586,4.11533,4.11533,0,0,1-.83642.08007,2.78629,2.78629,0,0,1-1.0918-.20312,2.24931,2.24931,0,0,1-.81934-.57715,2.59288,2.59288,0,0,1-.51757-.90625,3.65268,3.65268,0,0,1-.18213-1.19043,5.23314,5.23314,0,0,1,.11523-1.08789,5.10605,5.10605,0,0,1,.33594-1.0332,4.683,4.683,0,0,1,.53906-.90918,3.62874,3.62874,0,0,1,.728-.72461,3.40068,3.40068,0,0,1,.90332-.47949,3.13458,3.13458,0,0,1,1.06055-.17579,2.5446,2.5446,0,0,1,.93066.1543,1.97034,1.97034,0,0,1,.644.39258,1.56006,1.56006,0,0,1,.37451.52441A1.39668,1.39668,0,0,1,57.92822,50.2666Zm-2.14209-.7207a1.82242,1.82242,0,0,0-.812.18164,2.16353,2.16353,0,0,0-.65771.501,3.04419,3.04419,0,0,0-.49024.749,4.47037,4.47037,0,0,0-.31494.92773,13.63055,13.63055,0,0,0,1.729-.30468,4.30458,4.30458,0,0,0,1.001-.3711,1.081,1.081,0,0,0,.46191-.43066,1.09633,1.09633,0,0,0,.11231-.4834.69076.69076,0,0,0-.05615-.26172.698.698,0,0,0-.17871-.249.97308.97308,0,0,0-.31836-.18555A1.36662,1.36662,0,0,0,55.78613,49.5459Z" style="fill:blue"/><path d="M62.02979,54.502c0-.02832.00146-.06445.0039-.1084.002-.04492.00684-.10839.01367-.19238.00733-.084.01758-.19433.03174-.3291.01367-.13574.03467-.3125.063-.53223L62.583,49.791h-.791a.21823.21823,0,0,1-.15039-.05274.207.207,0,0,1-.05957-.16406c0-.01465.00244-.042.00684-.084q.00732-.063.01758-.14355c.00683-.05371.01416-.1084.021-.165q.01026-.08349.01758-.16113l1.0918-.14649.52539-2.1914a.33012.33012,0,0,1,.105-.1709.27588.27588,0,0,1,.189-.06641h.65772l-.30811,2.44239h1.86231l-.105.90332H63.794l-.42676,3.48632c-.02344.19141-.041.34473-.05274.46192-.01172.11621-.021.21-.02783.27929-.00732.07032-.01172.11915-.01416.14747s-.00342.04882-.00342.0625a.74011.74011,0,0,0,.16455.52929.59473.59473,0,0,0,.45118.1709A.91034.91034,0,0,0,64.207,54.876a1.32887,1.32887,0,0,0,.2417-.11524c.06738-.042.12451-.08008.17139-.11523a.21665.21665,0,0,1,.126-.05274.128.128,0,0,1,.08741.02832.35177.35177,0,0,1,.0664.09082l.25928.59473a2.52253,2.52253,0,0,1-.77393.47266,2.3923,2.3923,0,0,1-.87841.17187,1.49536,1.49536,0,0,1-1.0708-.37109A1.45573,1.45573,0,0,1,62.02979,54.502Z" style="fill:blue"/><path d="M66.26514,55.83887l1.2456-10.31055h1.2461l-.58106,4.78711a4.19541,4.19541,0,0,1,1.22852-1.249,2.57432,2.57432,0,0,1,1.38281-.42383,1.508,1.508,0,0,1,1.23877.53222A2.39442,2.39442,0,0,1,72.46,50.72168c0,.09375-.00244.19043-.00684.291-.00488.0996-.01416.2041-.02832.31152l-.53173,4.51465H70.647l.53174-4.51465q.01392-.14062.0249-.26953c.00684-.08692.01026-.169.01026-.249a1.40259,1.40259,0,0,0-.21338-.85351.79641.79641,0,0,0-.67578-.28027,1.40972,1.40972,0,0,0-.64746.17187,2.6264,2.6264,0,0,0-.64746.48633,4.09792,4.09792,0,0,0-.5879.75976,5.60879,5.60879,0,0,0-.47607.99024l-.45508,3.75879Z" style="fill:blue"/><path d="M79.29932,50.2666a1.9161,1.9161,0,0,1-.189.85059,1.77115,1.77115,0,0,1-.69287.70019,5.17279,5.17279,0,0,1-1.38623.543,15.30043,15.30043,0,0,1-2.26807.37012c-.00439.05176-.00683.10156-.00683.15137v.15039a2.187,2.187,0,0,0,.40967,1.43066,1.51269,1.51269,0,0,0,1.23535.49414A2.3211,2.3211,0,0,0,77,54.88672a2.59714,2.59714,0,0,0,.46875-.1709,2.12158,2.12158,0,0,0,.36426-.22461c.105-.08105.20166-.15625.29053-.22363.08837-.06738.16992-.125.24462-.17188a.41887.41887,0,0,1,.22413-.07031.30631.30631,0,0,1,.23095.11914l.30811.38574a6.46852,6.46852,0,0,1-.69629.63282,4.04887,4.04887,0,0,1-.69678.4375,3.1042,3.1042,0,0,1-.7456.25586,4.11536,4.11536,0,0,1-.83643.08007,2.78633,2.78633,0,0,1-1.0918-.20312,2.24935,2.24935,0,0,1-.81933-.57715,2.59274,2.59274,0,0,1-.51758-.90625,3.653,3.653,0,0,1-.18213-1.19043,5.23314,5.23314,0,0,1,.11523-1.08789,5.10605,5.10605,0,0,1,.33594-1.0332,4.683,4.683,0,0,1,.53906-.90918,3.629,3.629,0,0,1,.728-.72461,3.40068,3.40068,0,0,1,.90332-.47949,3.13462,3.13462,0,0,1,1.06055-.17579,2.54456,2.54456,0,0,1,.93066.1543,1.97039,1.97039,0,0,1,.64405.39258,1.56034,1.56034,0,0,1,.37451.52441A1.39686,1.39686,0,0,1,79.29932,50.2666Zm-2.14209-.7207a1.82243,1.82243,0,0,0-.812.18164,2.16365,2.16365,0,0,0-.65771.501,3.04388,3.04388,0,0,0-.49023.749,4.4698,4.4698,0,0,0-.31495.92773,13.63076,13.63076,0,0,0,1.729-.30468,4.30448,4.30448,0,0,0,1.001-.3711,1.08113,1.08113,0,0,0,.46192-.43066,1.09632,1.09632,0,0,0,.1123-.4834.69076.69076,0,0,0-.05615-.26172.698.698,0,0,0-.17871-.249.973.973,0,0,0-.31836-.18555A1.3666,1.3666,0,0,0,77.15723,49.5459Z" style="fill:blue"/><path d="M33.33057,71.30176c0-.02832.00146-.06446.0039-.1084.002-.04492.00684-.1084.01367-.19238.00733-.084.01758-.19434.03174-.3291.01367-.13575.03467-.3125.063-.53223l.44092-3.54883h-.791a.21827.21827,0,0,1-.15039-.05273.207.207,0,0,1-.05957-.16407c0-.01464.00244-.042.00684-.084q.00732-.063.01758-.14356c.00683-.05371.01416-.10839.021-.165q.01026-.0835.01758-.16114l1.0918-.14648.52539-2.19141a.3302.3302,0,0,1,.105-.1709.27587.27587,0,0,1,.189-.0664h.65772l-.30811,2.44238h1.86231l-.105.90332H35.09473L34.668,70.07715c-.02344.1914-.041.34473-.05274.46191-.01171.11621-.021.21-.02783.2793-.00732.07031-.01172.11914-.01416.14746s-.00342.04883-.00342.0625a.7401.7401,0,0,0,.16456.5293.59469.59469,0,0,0,.45117.1709.91011.91011,0,0,0,.32226-.05274,1.32888,1.32888,0,0,0,.2417-.11523c.06738-.042.12451-.08008.17139-.11524a.21672.21672,0,0,1,.126-.05273.12792.12792,0,0,1,.0874.02832.35136.35136,0,0,1,.0664.09082l.25928.59473a2.52257,2.52257,0,0,1-.77392.47265,2.3922,2.3922,0,0,1-.87842.17188,1.49537,1.49537,0,0,1-1.0708-.3711A1.45575,1.45575,0,0,1,33.33057,71.30176Z" style="fill:blue"/><path d="M43.17969,67.06641a1.91609,1.91609,0,0,1-.189.85058,1.77123,1.77123,0,0,1-.69287.7002,5.17279,5.17279,0,0,1-1.38623.543,15.30059,15.30059,0,0,1-2.26807.37011c-.00439.05176-.00683.10157-.00683.15137V69.832a2.187,2.187,0,0,0,.40967,1.43067,1.5127,1.5127,0,0,0,1.23535.49414,2.32064,2.32064,0,0,0,.59863-.07032,2.59506,2.59506,0,0,0,.46875-.1709,2.12093,2.12093,0,0,0,.36426-.2246c.105-.08106.20166-.15625.29053-.22364.08838-.06738.16992-.125.24463-.17187a.41872.41872,0,0,1,.22412-.07031.30628.30628,0,0,1,.231.11914l.30811.38574a6.46637,6.46637,0,0,1-.69629.63281,4.04826,4.04826,0,0,1-.69678.4375,3.10333,3.10333,0,0,1-.7456.25586,4.11534,4.11534,0,0,1-.83643.08008,2.78615,2.78615,0,0,1-1.0918-.20313,2.24923,2.24923,0,0,1-.81933-.57715,2.59281,2.59281,0,0,1-.51758-.90625,3.65289,3.65289,0,0,1-.18213-1.19042,5.23318,5.23318,0,0,1,.11524-1.0879,5.10561,5.10561,0,0,1,.33593-1.0332,4.68315,4.68315,0,0,1,.53907-.90918,3.62921,3.62921,0,0,1,.728-.72461,3.401,3.401,0,0,1,.90332-.47949,3.13462,3.13462,0,0,1,1.06055-.17578,2.54456,2.54456,0,0,1,.93066.1543,1.97021,1.97021,0,0,1,.64405.39257,1.5601,1.5601,0,0,1,.37451.52442A1.39679,1.39679,0,0,1,43.17969,67.06641ZM41.0376,66.3457a1.82236,1.82236,0,0,0-.812.18164,2.16385,2.16385,0,0,0-.65772.501,3.04388,3.04388,0,0,0-.49023.749,4.46929,4.46929,0,0,0-.31494.92774,13.6303,13.6303,0,0,0,1.729-.30469,4.30481,4.30481,0,0,0,1.001-.37109,1.08117,1.08117,0,0,0,.46191-.43067,1.09628,1.09628,0,0,0,.1123-.4834.69071.69071,0,0,0-.05615-.26171.69808.69808,0,0,0-.17871-.249.97279.97279,0,0,0-.31836-.18554A1.36658,1.36658,0,0,0,41.0376,66.3457Z" style="fill:blue"/><path d="M48.52783,66.68164a.454.454,0,0,1-.11181.12207.23722.23722,0,0,1-.14014.03906.38781.38781,0,0,1-.21338-.07715c-.07715-.05078-.17041-.10839-.28027-.17187a2.32492,2.32492,0,0,0-.40235-.1748,2.01467,2.01467,0,0,0-1.148.00683,1.43005,1.43005,0,0,0-.44824.24219,1.07363,1.07363,0,0,0-.29053.36035.982.982,0,0,0-.10156.4375.66874.66874,0,0,0,.21729.52441,1.99565,1.99565,0,0,0,.5459.33985c.21923.0957.45605.18847.71044.27637a3.65183,3.65183,0,0,1,.71045.33593,1.8149,1.8149,0,0,1,.5459.51856,1.41035,1.41035,0,0,1,.21729.81836,2.35954,2.35954,0,0,1-.19239.93847,2.33417,2.33417,0,0,1-.55322.78711,2.73066,2.73066,0,0,1-.86816.543,3.04949,3.04949,0,0,1-1.13721.20313,2.82673,2.82673,0,0,1-1.20068-.24219,2.48818,2.48818,0,0,1-.85059-.61914l.30811-.47559a.435.435,0,0,1,.1333-.14062.36136.36136,0,0,1,.1958-.04883.34624.34624,0,0,1,.22412.09766c.07422.06543.168.13964.27978.2207a1.71958,1.71958,0,0,0,1.07129.31836,1.72474,1.72474,0,0,0,.61914-.10449,1.45392,1.45392,0,0,0,.46924-.28028,1.18,1.18,0,0,0,.29395-.40918,1.25186,1.25186,0,0,0,.10156-.501A.75223.75223,0,0,0,47.01562,70a1.7698,1.7698,0,0,0-.54589-.35059q-.32886-.13916-.707-.26269a3.56658,3.56658,0,0,1-.707-.31445,1.71362,1.71362,0,0,1-.54589-.501,1.39286,1.39286,0,0,1-.2168-.81836,2.184,2.184,0,0,1,.17822-.86523,2.23819,2.23819,0,0,1,.51465-.73829,2.54243,2.54243,0,0,1,.81543-.51464,2.89031,2.89031,0,0,1,1.08154-.19239,2.76825,2.76825,0,0,1,1.12354.21387,2.60173,2.60173,0,0,1,.83642.57715Z" style="fill:blue"/><path d="M50.02539,71.30176c0-.02832.00147-.06446.00391-.1084.002-.04492.00683-.1084.01367-.19238.00732-.084.01758-.19434.03174-.3291.01367-.13575.03467-.3125.063-.53223l.44091-3.54883h-.791a.21825.21825,0,0,1-.15039-.05273.207.207,0,0,1-.05957-.16407c0-.01464.00244-.042.00683-.084q.00733-.063.01758-.14356c.00684-.05371.01416-.10839.021-.165q.01025-.0835.01757-.16114l1.0918-.14648.52539-2.19141a.33033.33033,0,0,1,.105-.1709.27588.27588,0,0,1,.189-.0664h.65771l-.3081,2.44238h1.8623l-.105.90332H51.78955l-.42676,3.48633c-.02343.1914-.041.34473-.05273.46191-.01172.11621-.021.21-.02783.2793-.00733.07031-.01172.11914-.01416.14746s-.00342.04883-.00342.0625a.74014.74014,0,0,0,.16455.5293.59469.59469,0,0,0,.45117.1709.91017.91017,0,0,0,.32227-.05274,1.3292,1.3292,0,0,0,.2417-.11523c.06738-.042.12451-.08008.17138-.11524a.21672.21672,0,0,1,.126-.05273.12788.12788,0,0,1,.0874.02832.35135.35135,0,0,1,.06641.09082l.25928.59473a2.52274,2.52274,0,0,1-.77393.47265,2.39212,2.39212,0,0,1-.87842.17188,1.49537,1.49537,0,0,1-1.0708-.3711A1.45579,1.45579,0,0,1,50.02539,71.30176Z" style="fill:blue"/><path d="M57.52246,71.30176c0-.02832.00147-.06446.00391-.1084.002-.04492.00683-.1084.01367-.19238.00732-.084.01758-.19434.03174-.3291.01367-.13575.03467-.3125.063-.53223l.44091-3.54883h-.791a.21825.21825,0,0,1-.15039-.05273.207.207,0,0,1-.05957-.16407c0-.01464.00244-.042.00683-.084q.00734-.063.01758-.14356c.00684-.05371.01416-.10839.021-.165q.01024-.0835.01758-.16114l1.09179-.14648.52539-2.19141a.33033.33033,0,0,1,.105-.1709.27588.27588,0,0,1,.189-.0664h.65771l-.3081,2.44238h1.8623l-.105.90332H59.28662l-.42676,3.48633c-.02343.1914-.041.34473-.05273.46191-.01172.11621-.021.21-.02783.2793-.00733.07031-.01172.11914-.01416.14746s-.00342.04883-.00342.0625a.74014.74014,0,0,0,.16455.5293.5947.5947,0,0,0,.45117.1709.91017.91017,0,0,0,.32227-.05274,1.32888,1.32888,0,0,0,.2417-.11523c.06738-.042.12451-.08008.17138-.11524a.21672.21672,0,0,1,.126-.05273.12788.12788,0,0,1,.0874.02832.35135.35135,0,0,1,.06641.09082l.25928.59473a2.52274,2.52274,0,0,1-.77393.47265,2.39212,2.39212,0,0,1-.87842.17188,1.49538,1.49538,0,0,1-1.0708-.3711A1.45579,1.45579,0,0,1,57.52246,71.30176Z" style="fill:blue"/><path d="M63.68262,65.54785l-.53223,4.50781c-.00928.09375-.01709.18164-.02441.26563-.00684.084-.01026.166-.01026.24512a1.40251,1.40251,0,0,0,.21338.85449.795.795,0,0,0,.67529.2793,1.433,1.433,0,0,0,.66163-.17481,2.61078,2.61078,0,0,0,.6582-.49707,4.08191,4.08191,0,0,0,.59131-.77637,5.80992,5.80992,0,0,0,.47607-1.01562l.44092-3.68848h1.23926l-.854,7.09082h-.61621a.514.514,0,0,1-.33594-.09765.36792.36792,0,0,1-.11914-.30176q0-.00587.00733-.126c.00439-.0791.01025-.165.01709-.25879.00732-.09277.01416-.17969.021-.25879.00733-.0791.01075-.12109.01075-.126l.04882-.56739a4.43429,4.43429,0,0,1-1.26708,1.36914,2.56878,2.56878,0,0,1-1.4419.46485,1.493,1.493,0,0,1-1.22852-.53906,2.40136,2.40136,0,0,1-.4375-1.54688q0-.13916.00733-.28711.00659-.14649.02783-.30762l.53174-4.50781Z" style="fill:blue"/><path d="M69.10742,72.63867,70.353,62.32812h1.22509l-.61572,5.01172a5.98507,5.98507,0,0,1,.57373-.78027,3.89657,3.89657,0,0,1,.644-.59863,2.944,2.944,0,0,1,.70019-.38184,2.09861,2.09861,0,0,1,.7417-.13672,1.67232,1.67232,0,0,1,1.40723.65821,3.12492,3.12492,0,0,1,.5039,1.9248,5.62788,5.62788,0,0,1-.11914,1.14844,5.84311,5.84311,0,0,1-.33935,1.0957,5.40273,5.40273,0,0,1-.53223.97266,4.18624,4.18624,0,0,1-.69287.78418,3.07689,3.07689,0,0,1-.82959.52148,2.38778,2.38778,0,0,1-.938.18848,2.19721,2.19721,0,0,1-1.02539-.23731,2.00613,2.00613,0,0,1-.75244-.67968l-.09082.45507a.68085.68085,0,0,1-.14356.27344.40319.40319,0,0,1-.29785.09082Zm4.0459-6.19531a1.297,1.297,0,0,0-.6792.21,2.86237,2.86237,0,0,0-.66162.58106,5.19209,5.19209,0,0,0-.59814.88183,6.841,6.841,0,0,0-.4834,1.12012l-.22364,1.84179a1.49575,1.49575,0,0,0,.63672.53516,1.92853,1.92853,0,0,0,.75635.15723,1.56046,1.56046,0,0,0,.686-.1543,2.17228,2.17228,0,0,0,.58789-.416,3.02878,3.02878,0,0,0,.47607-.61622,4.318,4.318,0,0,0,.35352-.75586,5.2488,5.2488,0,0,0,.22021-.833,4.82935,4.82935,0,0,0,.07715-.85059A2.21779,2.21779,0,0,0,74,66.87793.97023.97023,0,0,0,73.15332,66.44336Z" style="fill:blue"/><path d="M82.07129,67.06641a1.91609,1.91609,0,0,1-.189.85058,1.77123,1.77123,0,0,1-.69287.7002,5.17265,5.17265,0,0,1-1.38623.543,15.30066,15.30066,0,0,1-2.26806.37011c-.0044.05176-.00684.10157-.00684.15137V69.832A2.187,2.187,0,0,0,77.938,71.2627a1.5127,1.5127,0,0,0,1.23535.49414,2.32064,2.32064,0,0,0,.59863-.07032,2.59506,2.59506,0,0,0,.46875-.1709,2.12093,2.12093,0,0,0,.36426-.2246c.105-.08106.20166-.15625.29053-.22364.08838-.06738.16992-.125.24463-.17187a.41872.41872,0,0,1,.22412-.07031.30628.30628,0,0,1,.23095.11914l.30811.38574a6.46542,6.46542,0,0,1-.69629.63281,4.04788,4.04788,0,0,1-.69678.4375,3.10318,3.10318,0,0,1-.7456.25586,4.11534,4.11534,0,0,1-.83643.08008,2.78606,2.78606,0,0,1-1.09179-.20313,2.24919,2.24919,0,0,1-.81934-.57715,2.593,2.593,0,0,1-.51758-.90625,3.65289,3.65289,0,0,1-.18213-1.19042,5.23318,5.23318,0,0,1,.11524-1.0879,5.10624,5.10624,0,0,1,.33593-1.0332,4.68366,4.68366,0,0,1,.53907-.90918,3.62947,3.62947,0,0,1,.728-.72461A3.401,3.401,0,0,1,78.939,65.625a3.13462,3.13462,0,0,1,1.06055-.17578,2.54462,2.54462,0,0,1,.93067.1543,1.97016,1.97016,0,0,1,.644.39257,1.5601,1.5601,0,0,1,.37451.52442A1.39679,1.39679,0,0,1,82.07129,67.06641ZM79.9292,66.3457a1.82239,1.82239,0,0,0-.812.18164,2.16385,2.16385,0,0,0-.65772.501,3.04416,3.04416,0,0,0-.49023.749,4.46929,4.46929,0,0,0-.31494.92774,13.6303,13.6303,0,0,0,1.729-.30469,4.30481,4.30481,0,0,0,1.001-.37109,1.08111,1.08111,0,0,0,.46191-.43067,1.09629,1.09629,0,0,0,.11231-.4834.69073.69073,0,0,0-.05616-.26171.69783.69783,0,0,0-.17871-.249.97279.97279,0,0,0-.31836-.18554A1.36658,1.36658,0,0,0,79.9292,66.3457Z" style="fill:blue"/><path d="M34.96191,82.34863l-.854,7.09082h-1.2251l.854-7.09082Zm.46875-2.22656a.79266.79266,0,0,1-.07324.33984.98676.98676,0,0,1-.19629.28028.95131.95131,0,0,1-.27636.19238.76583.76583,0,0,1-.32178.07031.75389.75389,0,0,1-.31543-.07031.85887.85887,0,0,1-.269-.19238.9832.9832,0,0,1-.18555-.28028.82056.82056,0,0,1-.07031-.33984.84759.84759,0,0,1,.07031-.34277.94761.94761,0,0,1,.46191-.4795.72523.72523,0,0,1,.31494-.07324.7658.7658,0,0,1,.32178.07032.92324.92324,0,0,1,.27686.19238.89108.89108,0,0,1,.19238.28711A.87647.87647,0,0,1,35.43066,80.12207Z" style="fill:blue"/><path d="M36.124,89.43945l.84717-7.09765h.62256a.37125.37125,0,0,1,.42041.41992l-.105,1.37207a4.39,4.39,0,0,1,1.27734-1.41406,2.61243,2.61243,0,0,1,1.47364-.47657,1.50351,1.50351,0,0,1,1.22851.53223,2.39632,2.39632,0,0,1,.4375,1.55371q0,.14063-.00732.28711c-.0044.09863-.01367.20117-.02783.30859l-.53223,4.51465H40.51318l.53174-4.51465q.01392-.14062.02442-.26953c.00732-.08691.01074-.16894.01074-.249a1.38535,1.38535,0,0,0-.21387-.85059.79252.79252,0,0,0-.66846-.27636,1.452,1.452,0,0,0-.68213.18261,2.64818,2.64818,0,0,0-.66845.51368,4.17345,4.17345,0,0,0-.59863.80566,5.65721,5.65721,0,0,0-.47266,1.05273l-.40576,3.60547Z" style="fill:blue"/><path d="M44.10352,88.10254c0-.02832.00146-.06445.0039-.1084.002-.04492.00684-.1084.01367-.19238.00733-.084.01758-.19434.03174-.3291.01367-.13575.03467-.3125.063-.53223l.44092-3.54883h-.791a.21827.21827,0,0,1-.15039-.05273.207.207,0,0,1-.05957-.16407c0-.01464.00244-.042.00684-.084q.00732-.063.01758-.14355c.00683-.05372.01416-.1084.021-.165q.01026-.0835.01758-.16114l1.0918-.14648.52539-2.19141a.3302.3302,0,0,1,.105-.1709.27587.27587,0,0,1,.189-.0664h.65772l-.30811,2.44238H47.8418l-.105.90332H45.86768l-.42676,3.48633c-.02344.19141-.041.34473-.05274.46191-.01172.11621-.021.21-.02783.2793-.00732.07031-.01172.11914-.01416.14746s-.00342.04883-.00342.0625a.74014.74014,0,0,0,.16455.5293.59473.59473,0,0,0,.45118.1709.91011.91011,0,0,0,.32226-.05274,1.32888,1.32888,0,0,0,.2417-.11523c.06738-.042.12451-.08008.17139-.11524a.21669.21669,0,0,1,.126-.05273.12793.12793,0,0,1,.08741.02832.35136.35136,0,0,1,.0664.09082l.25928.59473a2.5225,2.5225,0,0,1-.77393.47265,2.3921,2.3921,0,0,1-.87841.17188,1.49537,1.49537,0,0,1-1.0708-.3711A1.45575,1.45575,0,0,1,44.10352,88.10254Z" style="fill:blue"/><path d="M50.80957,89.53711a2.76563,2.76563,0,0,1-1.064-.19922,2.3366,2.3366,0,0,1-.833-.57715,2.66567,2.66567,0,0,1-.5459-.92383,3.67136,3.67136,0,0,1-.19629-1.24609,5.024,5.024,0,0,1,.28027-1.6875,4.56935,4.56935,0,0,1,.76661-1.38574,3.64515,3.64515,0,0,1,1.14794-.93848,3.06492,3.06492,0,0,1,1.43165-.34277,2.76551,2.76551,0,0,1,1.064.19922,2.35165,2.35165,0,0,1,.833.57812,2.66291,2.66291,0,0,1,.5459.92774,3.68852,3.68852,0,0,1,.1958,1.24218,4.99851,4.99851,0,0,1-.27979,1.67969,4.59011,4.59011,0,0,1-.7666,1.38574,3.65664,3.65664,0,0,1-1.15137.94239A3.05146,3.05146,0,0,1,50.80957,89.53711Zm.11231-.97266a1.6429,1.6429,0,0,0,.93066-.28027,2.44417,2.44417,0,0,0,.71387-.74512,3.83728,3.83728,0,0,0,.45507-1.07422,4.96462,4.96462,0,0,0,.16114-1.27441,2.38533,2.38533,0,0,0-.38477-1.47656,1.32219,1.32219,0,0,0-1.11328-.49707,1.6511,1.6511,0,0,0-.93457.27636,2.44136,2.44136,0,0,0-.71045.74219,3.82723,3.82723,0,0,0-.45508,1.07422,4.96292,4.96292,0,0,0-.16064,1.27344,2.41392,2.41392,0,0,0,.38135,1.48047A1.3171,1.3171,0,0,0,50.92188,88.56445Z" style="fill:blue"/><path d="M58.63525,88.10254c0-.02832.00147-.06445.00391-.1084.002-.04492.00684-.1084.01367-.19238.00733-.084.01758-.19434.03174-.3291.01367-.13575.03467-.3125.063-.53223l.44092-3.54883h-.791a.21825.21825,0,0,1-.15039-.05273.207.207,0,0,1-.05957-.16407c0-.01464.00244-.042.00684-.084q.00732-.063.01757-.14355c.00684-.05372.01416-.1084.021-.165q.01026-.0835.01758-.16114l1.0918-.14648.52539-2.19141a.3302.3302,0,0,1,.105-.1709.27585.27585,0,0,1,.189-.0664h.65772l-.30811,2.44238h1.86231l-.105.90332H60.39941l-.42675,3.48633c-.02344.19141-.041.34473-.05274.46191-.01172.11621-.021.21-.02783.2793-.00732.07031-.01172.11914-.01416.14746s-.00342.04883-.00342.0625a.74014.74014,0,0,0,.16455.5293.59472.59472,0,0,0,.45117.1709.91013.91013,0,0,0,.32227-.05274,1.32888,1.32888,0,0,0,.2417-.11523c.06738-.042.12451-.08008.17139-.11524a.21667.21667,0,0,1,.126-.05273.12788.12788,0,0,1,.0874.02832.35135.35135,0,0,1,.06641.09082l.25928.59473a2.52262,2.52262,0,0,1-.77393.47265,2.39212,2.39212,0,0,1-.87842.17188,1.49538,1.49538,0,0,1-1.0708-.3711A1.45579,1.45579,0,0,1,58.63525,88.10254Z" style="fill:blue"/><path d="M62.87061,89.43945l1.2456-10.31054H65.3623L64.78125,83.916a4.19557,4.19557,0,0,1,1.22852-1.249,2.57441,2.57441,0,0,1,1.38281-.42383,1.508,1.508,0,0,1,1.23877.53223,2.39441,2.39441,0,0,1,.43408,1.54688c0,.09375-.00244.19043-.00684.291-.00488.09961-.01416.2041-.02832.31152l-.53173,4.51465h-1.2461l.53174-4.51465q.01392-.14062.0249-.26953c.00684-.08691.01026-.16894.01026-.249a1.40264,1.40264,0,0,0-.21338-.85352.79644.79644,0,0,0-.67578-.28027,1.40975,1.40975,0,0,0-.64747.17188,2.62628,2.62628,0,0,0-.64746.48632,4.09806,4.09806,0,0,0-.58789.75977,5.60833,5.60833,0,0,0-.47607.99023l-.45508,3.75879Z" style="fill:blue"/><path d="M75.9043,83.86719a1.91609,1.91609,0,0,1-.189.85058,1.77123,1.77123,0,0,1-.69287.7002,5.17279,5.17279,0,0,1-1.38623.543,15.30059,15.30059,0,0,1-2.26807.37011c-.00439.05176-.00683.10157-.00683.15137v.15039a2.187,2.187,0,0,0,.40967,1.43067,1.5127,1.5127,0,0,0,1.23535.49414,2.32064,2.32064,0,0,0,.59863-.07032,2.59583,2.59583,0,0,0,.46875-.17089,2.12158,2.12158,0,0,0,.36426-.22461c.105-.08106.20166-.15625.29053-.22364.08837-.06738.16992-.125.24462-.17187a.41878.41878,0,0,1,.22413-.07031.30631.30631,0,0,1,.23095.11914l.30811.38574a6.46637,6.46637,0,0,1-.69629.63281,4.04826,4.04826,0,0,1-.69678.4375,3.10333,3.10333,0,0,1-.7456.25586,4.11534,4.11534,0,0,1-.83643.08008,2.78615,2.78615,0,0,1-1.0918-.20313,2.24921,2.24921,0,0,1-.81933-.57714,2.59283,2.59283,0,0,1-.51758-.90625,3.653,3.653,0,0,1-.18213-1.19043,5.23307,5.23307,0,0,1,.11523-1.08789,5.10615,5.10615,0,0,1,.33594-1.03321,4.68361,4.68361,0,0,1,.53906-.90918,3.62952,3.62952,0,0,1,.728-.72461,3.401,3.401,0,0,1,.90332-.47949A3.13462,3.13462,0,0,1,73.83252,82.25a2.54456,2.54456,0,0,1,.93066.1543,1.97039,1.97039,0,0,1,.644.39258,1.56,1.56,0,0,1,.37451.52441A1.39682,1.39682,0,0,1,75.9043,83.86719Zm-2.14209-.72071a1.82236,1.82236,0,0,0-.812.18164,2.16389,2.16389,0,0,0-.65772.501,3.04425,3.04425,0,0,0-.49023.749,4.46989,4.46989,0,0,0-.31495.92774,13.6305,13.6305,0,0,0,1.729-.30469,4.30481,4.30481,0,0,0,1.001-.37109,1.08111,1.08111,0,0,0,.46191-.43067,1.09627,1.09627,0,0,0,.1123-.48339.69072.69072,0,0,0-.05615-.26172.69808.69808,0,0,0-.17871-.249.97279.97279,0,0,0-.31836-.18554A1.36658,1.36658,0,0,0,73.76221,83.14648Z" style="fill:blue"/><path d="M32.41357,108.64062l1.15528-9.499h.623a.3711.3711,0,0,1,.41993.41992l-.11914,1.51172a5.80077,5.80077,0,0,1,.581-.83691,4.25063,4.25063,0,0,1,.66162-.63965,2.84219,2.84219,0,0,1,.72461-.41016,2.15109,2.15109,0,0,1,.77-.14355,1.672,1.672,0,0,1,1.40674.6582,3.1249,3.1249,0,0,1,.5039,1.92481,5.66173,5.66173,0,0,1-.11865,1.14843,5.88066,5.88066,0,0,1-.33984,1.09571,5.43093,5.43093,0,0,1-.53174.97265,4.20547,4.20547,0,0,1-.69336.78418,3.08209,3.08209,0,0,1-.8291.52149,2.38971,2.38971,0,0,1-.938.18847,2.20159,2.20159,0,0,1-.959-.20605,1.9641,1.9641,0,0,1-.728-.5918l-.37793,3.10156Zm4.34717-8.59667a1.31477,1.31477,0,0,0-.68262.21,2.813,2.813,0,0,0-.66845.58789,5.08246,5.08246,0,0,0-.59863.89648,7.34149,7.34149,0,0,0-.4795,1.12695l-.22363,1.80567a1.47663,1.47663,0,0,0,.64014.543,1.95388,1.95388,0,0,0,.75976.15722,1.55906,1.55906,0,0,0,.686-.15429,2.16459,2.16459,0,0,0,.58789-.416,3.02808,3.02808,0,0,0,.47607-.61621,4.28295,4.28295,0,0,0,.35352-.75586,5.197,5.197,0,0,0,.22021-.833,4.78314,4.78314,0,0,0,.07715-.85058,2.218,2.218,0,0,0-.30078-1.2666A.9705.9705,0,0,0,36.76074,100.044Z" style="fill:blue"/><path d="M39.9668,106.23926l.854-7.09766h.623a.47663.47663,0,0,1,.3081.09082.34122.34122,0,0,1,.11182.28028c0,.01855-.00147.04492-.00342.08007l-.00732.1084c-.00244.03711-.0044.07031-.00684.09766-.00244.02832-.00342.04492-.00342.0498l-.09814,1.28809a4.89464,4.89464,0,0,1,1.01855-1.5127,1.71649,1.71649,0,0,1,1.18653-.53222,1.48207,1.48207,0,0,1,.58789.126L44.314,100.415a1.71362,1.71362,0,0,0-.6372-.13281,1.53857,1.53857,0,0,0-1.21094.66113,5.48884,5.48884,0,0,0-.88916,2.00586l-.39209,3.29Z" style="fill:blue"/><path d="M47.12744,106.33691a2.76562,2.76562,0,0,1-1.064-.19921,2.33685,2.33685,0,0,1-.833-.57715,2.66586,2.66586,0,0,1-.5459-.92383,3.67146,3.67146,0,0,1-.19629-1.2461,5.02406,5.02406,0,0,1,.28027-1.6875,4.56947,4.56947,0,0,1,.76661-1.38574,3.64529,3.64529,0,0,1,1.148-.93847,3.06474,3.06474,0,0,1,1.43164-.34278,2.76566,2.76566,0,0,1,1.064.19922,2.35155,2.35155,0,0,1,.833.57813,2.66286,2.66286,0,0,1,.5459.92773,3.68853,3.68853,0,0,1,.1958,1.24219,4.99859,4.99859,0,0,1-.27979,1.67969,4.59023,4.59023,0,0,1-.7666,1.38574,3.65647,3.65647,0,0,1-1.15137.94238A3.05146,3.05146,0,0,1,47.12744,106.33691Zm.11231-.97265a1.64283,1.64283,0,0,0,.93066-.28028,2.44424,2.44424,0,0,0,.71387-.74511,3.83783,3.83783,0,0,0,.45508-1.07422,4.96514,4.96514,0,0,0,.16113-1.27442,2.38535,2.38535,0,0,0-.38477-1.47656,1.32219,1.32219,0,0,0-1.11328-.49707,1.65111,1.65111,0,0,0-.93457.27637,2.44136,2.44136,0,0,0-.71045.74219,3.82739,3.82739,0,0,0-.45508,1.07422,4.96284,4.96284,0,0,0-.16064,1.27343,2.4139,2.4139,0,0,0,.38135,1.48047A1.31708,1.31708,0,0,0,47.23975,105.36426Z" style="fill:blue"/><path d="M52.25146,104.90234c0-.02832.00147-.06445.00391-.10839.002-.04493.00684-.1084.01367-.19239.00733-.084.01758-.19433.03174-.3291.01367-.13574.03467-.3125.063-.53223l.44092-3.54882h-.791a.21821.21821,0,0,1-.15039-.05274.207.207,0,0,1-.05957-.16406c0-.01465.00244-.042.00684-.084q.00732-.063.01757-.14355c.00684-.05371.01417-.1084.021-.165q.01026-.08349.01758-.16113l1.0918-.14649.52539-2.1914a.33012.33012,0,0,1,.105-.1709.27586.27586,0,0,1,.189-.06641h.65772l-.30811,2.44239h1.86231l-.105.90332H54.01562l-.42675,3.48632c-.02344.19141-.041.34473-.05274.46192-.01172.11621-.021.21-.02783.2793-.00732.07031-.01172.11914-.01416.14746s-.00342.04882-.00342.0625a.7401.7401,0,0,0,.16455.52929.59473.59473,0,0,0,.45118.1709.91034.91034,0,0,0,.32226-.05273,1.32887,1.32887,0,0,0,.2417-.11524c.06738-.042.12451-.08008.17139-.11523a.21665.21665,0,0,1,.126-.05274.128.128,0,0,1,.08741.02832.35177.35177,0,0,1,.0664.09082l.25928.59473a2.52253,2.52253,0,0,1-.77393.47266,2.39209,2.39209,0,0,1-.87841.17187,1.4954,1.4954,0,0,1-1.07081-.37109A1.45581,1.45581,0,0,1,52.25146,104.90234Z" style="fill:blue"/><path d="M62.10059,100.667a1.9161,1.9161,0,0,1-.189.85059,1.77122,1.77122,0,0,1-.69287.70019,5.17245,5.17245,0,0,1-1.38623.543,15.30043,15.30043,0,0,1-2.26807.37012c-.00439.05176-.00683.10156-.00683.15137v.15039a2.187,2.187,0,0,0,.40967,1.43066,1.51269,1.51269,0,0,0,1.23535.49414,2.3211,2.3211,0,0,0,.59863-.07031,2.59714,2.59714,0,0,0,.46875-.1709,2.122,2.122,0,0,0,.36426-.22461c.105-.081.20166-.15625.29052-.22363.08838-.06738.16993-.125.24463-.17188a.41886.41886,0,0,1,.22412-.07031.30631.30631,0,0,1,.231.11914l.30811.38574a6.46852,6.46852,0,0,1-.69629.63282,4.04887,4.04887,0,0,1-.69678.4375,3.1042,3.1042,0,0,1-.7456.25586,4.11536,4.11536,0,0,1-.83643.08007,2.78633,2.78633,0,0,1-1.0918-.20312,2.24935,2.24935,0,0,1-.81933-.57715,2.59274,2.59274,0,0,1-.51758-.90625,3.653,3.653,0,0,1-.18213-1.19043,5.23314,5.23314,0,0,1,.11523-1.08789,5.10626,5.10626,0,0,1,.33594-1.0332,4.68332,4.68332,0,0,1,.53906-.90918,3.629,3.629,0,0,1,.728-.72461,3.40068,3.40068,0,0,1,.90332-.47949,3.13462,3.13462,0,0,1,1.06055-.17579,2.54456,2.54456,0,0,1,.93066.1543,1.97039,1.97039,0,0,1,.64405.39258,1.56034,1.56034,0,0,1,.37451.52441A1.39686,1.39686,0,0,1,62.10059,100.667Zm-2.14209-.7207a1.82243,1.82243,0,0,0-.812.18164,2.16381,2.16381,0,0,0-.65771.501,3.04388,3.04388,0,0,0-.49023.749,4.4698,4.4698,0,0,0-.31495.92773,13.63076,13.63076,0,0,0,1.729-.30468,4.304,4.304,0,0,0,1.001-.3711,1.08107,1.08107,0,0,0,.46192-.43066,1.09632,1.09632,0,0,0,.1123-.4834.69076.69076,0,0,0-.05615-.26172.698.698,0,0,0-.17871-.249.973.973,0,0,0-.31836-.18555A1.3666,1.3666,0,0,0,59.9585,99.94629Z" style="fill:blue"/><path d="M67.43115,105.62988a3.233,3.233,0,0,1-.65429.42383,2.64317,2.64317,0,0,1-.68262.2207,4.334,4.334,0,0,1-.75977.0625,2.64578,2.64578,0,0,1-1.08838-.21,2.15343,2.15343,0,0,1-.791-.59082,2.61686,2.61686,0,0,1-.48291-.917,3.99806,3.99806,0,0,1-.16455-1.17969,5.0875,5.0875,0,0,1,.26953-1.65234,4.63218,4.63218,0,0,1,.75244-1.39941,3.76391,3.76391,0,0,1,1.148-.97364,3.00321,3.00321,0,0,1,1.46338-.36426,2.51578,2.51578,0,0,1,1.17578.249,2.4707,2.4707,0,0,1,.833.72461l-.39209.46875a.33131.33131,0,0,1-.105.09082.26962.26962,0,0,1-.33252-.05274,2.71547,2.71547,0,0,0-.24512-.19531,1.67884,1.67884,0,0,0-.37793-.19629,1.641,1.641,0,0,0-.58447-.08789,1.72925,1.72925,0,0,0-.91358.2627,2.54893,2.54893,0,0,0-.75244.71777,3.671,3.671,0,0,0-.50732,1.07813,4.6683,4.6683,0,0,0-.18555,1.33691,2.93834,2.93834,0,0,0,.09815.78711,1.67779,1.67779,0,0,0,.29394.60254,1.3501,1.3501,0,0,0,.47949.38476,1.5104,1.5104,0,0,0,.66162.13672,2.1558,2.1558,0,0,0,.55957-.0664,2.212,2.212,0,0,0,.43409-.165,1.98732,1.98732,0,0,0,.33252-.21289q.14355-.11573.25927-.21387c.07666-.06543.147-.12012.21-.16406a.328.328,0,0,1,.19239-.06739.29883.29883,0,0,1,.23779.11914l.30811.37793A6.48525,6.48525,0,0,1,67.43115,105.62988Z" style="fill:blue"/><path d="M69.5625,104.90234c0-.02832.00146-.06445.00391-.10839.00195-.04493.00683-.1084.01367-.19239.00732-.084.01758-.19433.03174-.3291.01367-.13574.03466-.3125.063-.53223l.44092-3.54882h-.791a.21821.21821,0,0,1-.15039-.05274.207.207,0,0,1-.05957-.16406c0-.01465.00244-.042.00683-.084q.00732-.063.01758-.14355c.00684-.05371.01416-.1084.021-.165q.01024-.08349.01757-.16113l1.0918-.14649.52539-2.1914a.33018.33018,0,0,1,.105-.1709.27588.27588,0,0,1,.189-.06641h.65771l-.3081,2.44239h1.8623l-.105.90332H71.32666l-.42676,3.48632c-.02344.19141-.041.34473-.05273.46192-.01172.11621-.021.21-.02783.2793-.00733.07031-.01172.11914-.01416.14746s-.00342.04882-.00342.0625a.7401.7401,0,0,0,.16455.52929.59469.59469,0,0,0,.45117.1709.91043.91043,0,0,0,.32227-.05273,1.32919,1.32919,0,0,0,.2417-.11524c.06738-.042.12451-.08008.17138-.11523a.21667.21667,0,0,1,.126-.05274.128.128,0,0,1,.0874.02832.35153.35153,0,0,1,.06641.09082l.25927.59473a2.5226,2.5226,0,0,1-.77392.47266,2.39214,2.39214,0,0,1-.87842.17187,1.49536,1.49536,0,0,1-1.0708-.37109A1.45581,1.45581,0,0,1,69.5625,104.90234Z" style="fill:blue"/><path d="M75.98877,99.14844l-.854,7.09082h-1.2251l.854-7.09082Zm.46875-2.22656a.79266.79266,0,0,1-.07324.33984.98712.98712,0,0,1-.19629.28027.95125.95125,0,0,1-.27637.19239.76594.76594,0,0,1-.32178.07031.754.754,0,0,1-.31543-.07031.859.859,0,0,1-.269-.19239.98316.98316,0,0,1-.18555-.28027.82072.82072,0,0,1-.07031-.33984.84777.84777,0,0,1,.07031-.34278.94771.94771,0,0,1,.46192-.47949.72509.72509,0,0,1,.31494-.07324.76579.76579,0,0,1,.32178.07031.92338.92338,0,0,1,.27685.19238.89105.89105,0,0,1,.19239.28711A.8767.8767,0,0,1,76.45752,96.92188Z" style="fill:blue"/><path d="M77.17822,99.14844h1.0083a.31535.31535,0,0,1,.22364.07715.32384.32384,0,0,1,.105.18164l1.05713,4.56445a4.48343,4.48343,0,0,1,.08056.51758c.01612.17285.0293.34277.03858.51074q.0769-.252.16113-.50684a4.37748,4.37748,0,0,1,.21-.52148l2.19775-4.56445a.52289.52289,0,0,1,.1543-.18555.35214.35214,0,0,1,.2168-.07324h.97314l-3.55615,7.09082h-1.043Z" style="fill:blue"/><path d="M89.30273,100.667a1.9161,1.9161,0,0,1-.189.85059,1.77122,1.77122,0,0,1-.69287.70019,5.17245,5.17245,0,0,1-1.38623.543,15.30043,15.30043,0,0,1-2.26807.37012c-.00439.05176-.00683.10156-.00683.15137v.15039a2.187,2.187,0,0,0,.40966,1.43066,1.51271,1.51271,0,0,0,1.23536.49414,2.32115,2.32115,0,0,0,.59863-.07031,2.59714,2.59714,0,0,0,.46875-.1709,2.122,2.122,0,0,0,.36426-.22461c.105-.081.20166-.15625.29052-.22363.08838-.06738.16993-.125.24463-.17188a.41886.41886,0,0,1,.22412-.07031.30631.30631,0,0,1,.231.11914l.30811.38574a6.46852,6.46852,0,0,1-.69629.63282,4.04925,4.04925,0,0,1-.69678.4375,3.10413,3.10413,0,0,1-.74561.25586,4.11526,4.11526,0,0,1-.83642.08007,2.78633,2.78633,0,0,1-1.0918-.20312,2.24935,2.24935,0,0,1-.81933-.57715,2.59274,2.59274,0,0,1-.51758-.90625,3.653,3.653,0,0,1-.18213-1.19043,5.23314,5.23314,0,0,1,.11523-1.08789A5.10626,5.10626,0,0,1,84,101.33887a4.68332,4.68332,0,0,1,.53906-.90918,3.62874,3.62874,0,0,1,.728-.72461,3.40068,3.40068,0,0,1,.90332-.47949A3.13458,3.13458,0,0,1,87.231,99.0498a2.5446,2.5446,0,0,1,.93066.1543,1.97024,1.97024,0,0,1,.644.39258,1.56024,1.56024,0,0,1,.37452.52441A1.39684,1.39684,0,0,1,89.30273,100.667Zm-2.14209-.7207a1.82242,1.82242,0,0,0-.812.18164,2.16381,2.16381,0,0,0-.65771.501,3.04419,3.04419,0,0,0-.49024.749,4.47037,4.47037,0,0,0-.31494.92773,13.63109,13.63109,0,0,0,1.729-.30468,4.3042,4.3042,0,0,0,1.001-.3711,1.08107,1.08107,0,0,0,.46192-.43066,1.09645,1.09645,0,0,0,.1123-.4834.69076.69076,0,0,0-.05615-.26172.698.698,0,0,0-.17871-.249.973.973,0,0,0-.31836-.18555A1.36662,1.36662,0,0,0,87.16064,99.94629Z" style="fill:blue"/><path d="M37.27881,117.082a.45371.45371,0,0,1-.11182.12207.23719.23719,0,0,1-.14013.03906.38786.38786,0,0,1-.21338-.07714c-.07715-.05079-.17041-.1084-.28028-.17188a2.32445,2.32445,0,0,0-.40234-.1748,2.01467,2.01467,0,0,0-1.148.00683,1.42994,1.42994,0,0,0-.44824.24219,1.07361,1.07361,0,0,0-.29053.36035.982.982,0,0,0-.10156.4375.66873.66873,0,0,0,.21728.52441,1.99565,1.99565,0,0,0,.5459.33985c.21924.0957.45606.18848.71045.27637a3.65211,3.65211,0,0,1,.71045.33593,1.815,1.815,0,0,1,.5459.51856,1.41035,1.41035,0,0,1,.21728.81836,2.35953,2.35953,0,0,1-.19238.93847,2.33445,2.33445,0,0,1-.55322.78711,2.73082,2.73082,0,0,1-.86817.543,3.0494,3.0494,0,0,1-1.1372.20313,2.82681,2.82681,0,0,1-1.20069-.24219,2.48824,2.48824,0,0,1-.85058-.61914l.3081-.47559a.43518.43518,0,0,1,.1333-.14062.36136.36136,0,0,1,.1958-.04883.34627.34627,0,0,1,.22413.09766c.07421.06543.168.13964.27978.2207a1.71958,1.71958,0,0,0,1.07129.31836,1.72474,1.72474,0,0,0,.61914-.10449,1.45392,1.45392,0,0,0,.46924-.28028,1.18,1.18,0,0,0,.29394-.40918,1.25169,1.25169,0,0,0,.10157-.501.75227.75227,0,0,0-.21729-.56641,1.76974,1.76974,0,0,0-.5459-.35059q-.32886-.13916-.707-.26269a3.56675,3.56675,0,0,1-.707-.31445,1.71355,1.71355,0,0,1-.5459-.501,1.39293,1.39293,0,0,1-.21679-.81836,2.184,2.184,0,0,1,.17822-.86523,2.23819,2.23819,0,0,1,.51465-.73829,2.54232,2.54232,0,0,1,.81543-.51464,2.89028,2.89028,0,0,1,1.08154-.19239,2.7682,2.7682,0,0,1,1.12353.21387,2.60188,2.60188,0,0,1,.83643.57715Z" style="fill:blue"/><path d="M38.27979,123.03906l1.25292-10.31054h1.2251l-1.25342,10.31054Z" style="fill:blue"/><path d="M47.15527,117.4668a1.91608,1.91608,0,0,1-.189.85058,1.7713,1.7713,0,0,1-.69287.7002,5.17279,5.17279,0,0,1-1.38623.543,15.30059,15.30059,0,0,1-2.26807.37011c-.00439.05176-.00684.10157-.00684.15137v.15039a2.187,2.187,0,0,0,.40967,1.43067,1.5127,1.5127,0,0,0,1.23535.49414,2.32072,2.32072,0,0,0,.59864-.07032,2.59639,2.59639,0,0,0,.46875-.17089,2.12186,2.12186,0,0,0,.36425-.22461c.105-.08106.20166-.15625.29053-.22364.08838-.06738.16992-.125.24463-.17187a.41877.41877,0,0,1,.22412-.07031.30628.30628,0,0,1,.231.11914l.3081.38574a6.46633,6.46633,0,0,1-.69628.63281,4.04864,4.04864,0,0,1-.69678.4375,3.10326,3.10326,0,0,1-.74561.25586,4.11524,4.11524,0,0,1-.83642.08008,2.78615,2.78615,0,0,1-1.0918-.20313,2.24925,2.24925,0,0,1-.81934-.57714,2.593,2.593,0,0,1-.51757-.90625,3.65273,3.65273,0,0,1-.18213-1.19043,5.233,5.233,0,0,1,.11523-1.08789,5.10615,5.10615,0,0,1,.33594-1.03321,4.68361,4.68361,0,0,1,.53906-.90918,3.62926,3.62926,0,0,1,.728-.72461,3.401,3.401,0,0,1,.90332-.47949,3.13458,3.13458,0,0,1,1.06055-.17578,2.5446,2.5446,0,0,1,.93066.1543,1.97033,1.97033,0,0,1,.644.39257,1.5601,1.5601,0,0,1,.37451.52442A1.39661,1.39661,0,0,1,47.15527,117.4668Zm-2.14209-.72071a1.82242,1.82242,0,0,0-.812.18164,2.16381,2.16381,0,0,0-.65771.501,3.04419,3.04419,0,0,0-.49024.749,4.47046,4.47046,0,0,0-.31494.92774,13.63083,13.63083,0,0,0,1.729-.30469,4.3047,4.3047,0,0,0,1.001-.37109,1.08109,1.08109,0,0,0,.46192-.43067,1.09642,1.09642,0,0,0,.1123-.4834.69071.69071,0,0,0-.05615-.26171.69808.69808,0,0,0-.17871-.249.97289.97289,0,0,0-.31836-.18554A1.3666,1.3666,0,0,0,45.01318,116.74609Z" style="fill:blue"/><path d="M53.60938,117.4668a1.91609,1.91609,0,0,1-.189.85058,1.7713,1.7713,0,0,1-.69287.7002,5.17279,5.17279,0,0,1-1.38623.543,15.30059,15.30059,0,0,1-2.26807.37011c-.00439.05176-.00683.10157-.00683.15137v.15039a2.187,2.187,0,0,0,.40966,1.43067,1.51271,1.51271,0,0,0,1.23536.49414,2.32064,2.32064,0,0,0,.59863-.07032,2.59639,2.59639,0,0,0,.46875-.17089,2.122,2.122,0,0,0,.36426-.22461c.105-.08106.20166-.15625.29052-.22364.08838-.06738.16993-.125.24463-.17187a.41877.41877,0,0,1,.22412-.07031.30628.30628,0,0,1,.231.11914l.30811.38574a6.46732,6.46732,0,0,1-.69629.63281,4.04864,4.04864,0,0,1-.69678.4375,3.10326,3.10326,0,0,1-.74561.25586,4.11517,4.11517,0,0,1-.83642.08008,2.78615,2.78615,0,0,1-1.0918-.20313,2.24921,2.24921,0,0,1-.81933-.57714,2.59283,2.59283,0,0,1-.51758-.90625,3.653,3.653,0,0,1-.18213-1.19043,5.233,5.233,0,0,1,.11523-1.08789,5.10615,5.10615,0,0,1,.33594-1.03321,4.68361,4.68361,0,0,1,.53906-.90918,3.62952,3.62952,0,0,1,.728-.72461,3.401,3.401,0,0,1,.90332-.47949,3.13458,3.13458,0,0,1,1.06055-.17578,2.5446,2.5446,0,0,1,.93066.1543,1.97022,1.97022,0,0,1,.644.39257,1.56027,1.56027,0,0,1,.37452.52442A1.39679,1.39679,0,0,1,53.60938,117.4668Zm-2.14209-.72071a1.82243,1.82243,0,0,0-.812.18164,2.16381,2.16381,0,0,0-.65771.501,3.04419,3.04419,0,0,0-.49024.749,4.47046,4.47046,0,0,0-.31494.92774,13.63083,13.63083,0,0,0,1.729-.30469,4.3047,4.3047,0,0,0,1.001-.37109,1.08109,1.08109,0,0,0,.46192-.43067,1.09642,1.09642,0,0,0,.1123-.4834.69071.69071,0,0,0-.05615-.26171.69808.69808,0,0,0-.17871-.249.97279.97279,0,0,0-.31836-.18554A1.36658,1.36658,0,0,0,51.46729,116.74609Z" style="fill:blue"/><path d="M54.42139,115.94824h1.0083a.31533.31533,0,0,1,.22363.07715.32382.32382,0,0,1,.105.18164l1.05713,4.56445a4.486,4.486,0,0,1,.08057.51758c.01611.17285.02929.34278.03857.51074q.07691-.25194.16113-.50683a4.37862,4.37862,0,0,1,.21-.52149l2.19776-4.56445a.523.523,0,0,1,.15429-.18555.35222.35222,0,0,1,.2168-.07324h.97315l-3.55616,7.09082h-1.043Z" style="fill:blue"/><path d="M66.54541,117.4668a1.91622,1.91622,0,0,1-.189.85058,1.77133,1.77133,0,0,1-.69288.7002,5.17265,5.17265,0,0,1-1.38623.543,15.30066,15.30066,0,0,1-2.26806.37011c-.0044.05176-.00684.10157-.00684.15137v.15039a2.187,2.187,0,0,0,.40967,1.43067,1.5127,1.5127,0,0,0,1.23535.49414,2.32064,2.32064,0,0,0,.59863-.07032,2.59583,2.59583,0,0,0,.46875-.17089,2.12158,2.12158,0,0,0,.36426-.22461c.105-.08106.20166-.15625.29053-.22364.08838-.06738.16992-.125.24463-.17187a.41872.41872,0,0,1,.22412-.07031.30631.30631,0,0,1,.231.11914l.3081.38574a6.46542,6.46542,0,0,1-.69629.63281,4.04818,4.04818,0,0,1-.69677.4375,3.10341,3.10341,0,0,1-.74561.25586,4.11534,4.11534,0,0,1-.83643.08008,2.78606,2.78606,0,0,1-1.09179-.20313,2.24916,2.24916,0,0,1-.81934-.57714,2.59314,2.59314,0,0,1-.51758-.90625,3.653,3.653,0,0,1-.18213-1.19043,5.233,5.233,0,0,1,.11524-1.08789,5.10552,5.10552,0,0,1,.33594-1.03321,4.68361,4.68361,0,0,1,.53906-.90918,3.62926,3.62926,0,0,1,.728-.72461,3.40066,3.40066,0,0,1,.90332-.47949,3.13452,3.13452,0,0,1,1.06054-.17578,2.54462,2.54462,0,0,1,.93067.1543,1.97033,1.97033,0,0,1,.644.39257,1.5601,1.5601,0,0,1,.37451.52442A1.39679,1.39679,0,0,1,66.54541,117.4668Zm-2.14209-.72071a1.82242,1.82242,0,0,0-.812.18164,2.16385,2.16385,0,0,0-.65772.501,3.04416,3.04416,0,0,0-.49023.749,4.46987,4.46987,0,0,0-.31494.92774,13.6303,13.6303,0,0,0,1.729-.30469,4.30481,4.30481,0,0,0,1.001-.37109,1.081,1.081,0,0,0,.46191-.43067,1.09629,1.09629,0,0,0,.11231-.4834.69073.69073,0,0,0-.05616-.26171.69783.69783,0,0,0-.17871-.249.97279.97279,0,0,0-.31836-.18554A1.36654,1.36654,0,0,0,64.40332,116.74609Z" style="fill:blue"/></g></svg>