<svg id="water_temp_-_2F" data-name="water temp - 2F" xmlns="http://www.w3.org/2000/svg" viewBox="0 0 226 200"><rect id="back" width="226" height="200" style="fill:none"/><g id="therms"><g id="Higher_Temp_Thermometer" data-name="Higher Temp Thermometer"><rect id="Thermometer-back" x="5.5" y="85.5" width="215" height="28" style="fill:#333"/><g id="Temperature-Numbers"><g id="_40" data-name="40" style="isolation:isolate"><g style="isolation:isolate"><path d="M207.919,105.5v-3.59277h-2.74512v-.94434L207.334,93.5h1.67286v7.37988h1.08691v1.02735h-1.08691V105.5Zm-1.62012-4.62012H207.919l.13476-3.17968.12793-3.165h-.2998l-.75782,3.165Z" style="fill:#fff"/><path d="M212.97363,105.6123a2.13885,2.13885,0,0,1-1.56347-.54,2.08835,2.08835,0,0,1-.5586-1.54493q-.03077-1.94238-.03027-4.02734,0-2.08447.03027-4.02734a2.08835,2.08835,0,0,1,.5586-1.54493,2.13885,2.13885,0,0,1,1.56347-.54,2.11673,2.11673,0,0,1,1.55274.54,2.14589,2.14589,0,0,1,.57031,1.54493q.03662,1.9497.03711,4.03515,0,2.08447-.03711,4.01953a2.14589,2.14589,0,0,1-.57031,1.54493A2.11673,2.11673,0,0,1,212.97363,105.6123Zm0-.9746a.85287.85287,0,0,0,.96778-.92286q.05273-2.272.05273-4.45507,0-2.18262-.05273-3.97461a.968.968,0,0,0-1.93457,0q-.04542,2.21923-.0459,4.40234,0,2.18262.0459,4.02734A.84759.84759,0,0,0,212.97363,104.6377Z" style="fill:#fff"/></g></g><g id="_38" data-name="38" style="isolation:isolate"><g style="isolation:isolate"><path d="M192.68652,105.6123a2.34666,2.34666,0,0,1-1.66211-.49121,2.25983,2.25983,0,0,1-.543-1.624q-.01612-.50244-.01563-.9668,0-.46581.01563-1.15527h1.15429v2.25781a.895.895,0,0,0,1.02051,1.00489.88178.88178,0,0,0,.99023-1.00489q.05127-1.44726,0-2.85742a1.3711,1.3711,0,0,0-.2705-.84766,1.1244,1.1244,0,0,0-.89258-.293l-.88477.01562-.03711-.98242,1.957-4.13281h-3.01464V93.5h4.34961l-.01465.96-2.01758,4.16211a2.07022,2.07022,0,0,1,1.48144.55176,2.48211,2.48211,0,0,1,.49805,1.59375q.0454,1.72559,0,2.72949a2.37364,2.37364,0,0,1-.53613,1.624A2.15958,2.15958,0,0,1,192.68652,105.6123Z" style="fill:#fff"/><path d="M197.85352,105.6123a2.16424,2.16424,0,0,1-1.5752-.49121,2.3833,2.3833,0,0,1-.54687-1.624c-.01563-.31445-.02149-.667-.01954-1.05664q.0044-.58594.03418-1.43262a2.40047,2.40047,0,0,1,.27344-1.03125,1.38877,1.38877,0,0,1,.68652-.5664v-.23243a1.28544,1.28544,0,0,1-.60351-.46191,1.78361,1.78361,0,0,1-.28906-.8584q-.04542-.65186-.05664-1.25976-.01026-.60792.01171-1.10254a2.39191,2.39191,0,0,1,.52833-1.61621,2.69971,2.69971,0,0,1,3.10546,0,2.41686,2.41686,0,0,1,.53614,1.61621q.022.49512.00781,1.10254-.01611.60791-.06055,1.25976a1.77443,1.77443,0,0,1-.28808.85547,1.25834,1.25834,0,0,1-.59668.44922v.24805a1.547,1.547,0,0,1,.66406.57714,2.24746,2.24746,0,0,1,.28808,1.02051q.0381.84669.03809,1.43262,0,.58447-.02246,1.05664a2.364,2.364,0,0,1-.54,1.624A2.16423,2.16423,0,0,1,197.85352,105.6123Zm0-6.8623q.95214,0,.96-1.0498.00732-.61524.01464-1.16993.00733-.55516-.01464-1.16992a1.16011,1.16011,0,0,0-.23633-.76172.93756.93756,0,0,0-.72363-.24316q-.94483,0-.96778,1.00488-.02929,1.169,0,2.33985Q196.90918,98.75049,197.85352,98.75Zm0,5.8877a.96052.96052,0,0,0,.73144-.24415,1.08193,1.08193,0,0,0,.22852-.76074q.03808-1.36523,0-2.73047a1.21377,1.21377,0,0,0-.24414-.79492.91472.91472,0,0,0-.71582-.25488q-.94483,0-.96778,1.0498-.02929,1.36524,0,2.73047Q196.90918,104.63769,197.85352,104.6377Z" style="fill:#fff"/></g></g><g id="_36" data-name="36" style="isolation:isolate"><g style="isolation:isolate"><path d="M177.68262,105.6123a2.34557,2.34557,0,0,1-1.66114-.49121,2.25991,2.25991,0,0,1-.54394-1.624q-.01466-.50244-.01465-.9668,0-.46581.01465-1.15527h1.15527v2.25781a.89474.89474,0,0,0,1.01953,1.00489.88179.88179,0,0,0,.99024-1.00489q.05272-1.44726,0-2.85742a1.365,1.365,0,0,0-.26953-.84766,1.1244,1.1244,0,0,0-.89258-.293l-.88574.01562-.03711-.98242,1.958-4.13281H175.5V93.5h4.35059l-.01563.96-2.01758,4.16211a2.06848,2.06848,0,0,1,1.48145.55176,2.482,2.482,0,0,1,.499,1.59375q.0454,1.72559,0,2.72949a2.37845,2.37845,0,0,1-.53613,1.624A2.16371,2.16371,0,0,1,177.68262,105.6123Z" style="fill:#fff"/><path d="M182.86523,105.6123a2.1681,2.1681,0,0,1-1.58593-.4873,2.27329,2.27329,0,0,1-.499-1.6123q-.03075-2.11524-.03418-4.15137-.00293-2.03613.03418-3.86621a2.23459,2.23459,0,0,1,.5586-1.58985,2.0944,2.0944,0,0,1,1.51172-.50293,1.915,1.915,0,0,1,2.13671,2.09278v.57031q0,.34423-.0039.69727c-.00195.23535-.00586.42968-.01074.585H183.833q.022-.49512.02246-.97168,0-.47609-.02246-1.06836a1.07016,1.07016,0,0,0-.24414-.70508.96255.96255,0,0,0-.72364-.23242.837.837,0,0,0-.92968.9375q-.04542,1.68017-.0459,3.60742h.26269a1.177,1.177,0,0,1,.50293-.46484,1.66445,1.66445,0,0,1,.79493-.1875,1.479,1.479,0,0,1,1.22656.44238,2.48631,2.48631,0,0,1,.37109,1.46289q.022.91405.02246,1.71,0,.79395-.02246,1.63477a2.348,2.348,0,0,1-.55176,1.6123A2.274,2.274,0,0,1,182.86523,105.6123Zm.01465-.96777a.88141.88141,0,0,0,1.0127-.95215q.022-.95214.02246-1.792,0-.84083-.02246-1.71-.022-.94629-.90039-.94531a1.244,1.244,0,0,0-.7793.23633.85277.85277,0,0,0-.32324.68652q.00879.80859.01562,1.6875.00733.87744.03028,1.83691A.85.85,0,0,0,182.87988,104.64453Z" style="fill:#fff"/></g></g><g id="_34" data-name="34" style="isolation:isolate"><g style="isolation:isolate"><path d="M162.55176,105.6123a2.34663,2.34663,0,0,1-1.66211-.49121,2.25979,2.25979,0,0,1-.543-1.624q-.01611-.50244-.01563-.9668,0-.46581.01563-1.15527h1.1543v2.25781a.895.895,0,0,0,1.0205,1.00489.88179.88179,0,0,0,.99024-1.00489q.05127-1.44726,0-2.85742a1.37117,1.37117,0,0,0-.27051-.84766,1.1244,1.1244,0,0,0-.89258-.293l-.88476.01562-.03711-.98242,1.957-4.13281h-3.01465V93.5h4.34961l-.01465.96-2.01758,4.16211a2.07026,2.07026,0,0,1,1.48145.55176,2.48211,2.48211,0,0,1,.49805,1.59375q.04541,1.72559,0,2.72949a2.37364,2.37364,0,0,1-.53614,1.624A2.15955,2.15955,0,0,1,162.55176,105.6123Z" style="fill:#fff"/><path d="M168.04883,105.5v-3.59277h-2.74512v-.94434L167.46387,93.5h1.67285v7.37988h1.08691v1.02735h-1.08691V105.5Zm-1.62012-4.62012h1.62012l.13476-3.17968.12793-3.165h-.2998l-.75781,3.165Z" style="fill:#fff"/></g></g><g id="_32" data-name="32" style="isolation:isolate"><g style="isolation:isolate"><path d="M147.74219,105.6123a2.34557,2.34557,0,0,1-1.66114-.49121,2.25991,2.25991,0,0,1-.54394-1.624q-.01466-.50244-.01465-.9668,0-.46581.01465-1.15527h1.15527v2.25781a.895.895,0,0,0,1.02051,1.00489.88178.88178,0,0,0,.99023-1.00489q.05127-1.44726,0-2.85742a1.3711,1.3711,0,0,0-.2705-.84766,1.1244,1.1244,0,0,0-.89258-.293l-.88574.01562-.03711-.98242,1.958-4.13281h-3.01465V93.5h4.34961l-.01563.96L147.877,98.62207a2.07106,2.07106,0,0,1,1.48243.55176,2.48216,2.48216,0,0,1,.498,1.59375q.04542,1.72559,0,2.72949a2.37364,2.37364,0,0,1-.53613,1.624A2.16215,2.16215,0,0,1,147.74219,105.6123Z" style="fill:#fff"/><path d="M150.8623,105.5c-.00488-.22461-.00976-.41016-.01464-.55469-.00586-.14551-.00879-.28613-.01172-.42383-.002-.13769-.002-.30371,0-.499.00293-.19531.00586-.45508.01172-.78027a5.88032,5.88032,0,0,1,.22851-1.67578,3.29294,3.29294,0,0,1,.58106-1.11426,4.35211,4.35211,0,0,1,.84765-.7793l.69824-.51074a1.73946,1.73946,0,0,0,.60352-.80176,3.76943,3.76943,0,0,0,.16016-.87793q.05272-1.08691,0-2.1748a1.10063,1.10063,0,0,0-.26953-.71973,1.03829,1.03829,0,0,0-.75782-.23242.96452.96452,0,0,0-.71972.23242,1.05035,1.05035,0,0,0-.23926.71973c-.01074.39453-.01367.79394-.01172,1.19629s.01172.80078.02637,1.19629h-1.13965q-.02344-.58595-.03418-1.16993c-.00781-.39062-.00391-.7373.01074-1.043a2.31451,2.31451,0,0,1,.5332-1.6123,2.18739,2.18739,0,0,1,1.582-.4873,2.26954,2.26954,0,0,1,1.63867.48339,2.36256,2.36256,0,0,1,.52929,1.60938c.00977.28418.01758.625.02149,1.01953.00586.39551,0,.72266-.01367.98242a3.40984,3.40984,0,0,1-.41993,1.65039,4.169,4.169,0,0,1-1.11132,1.13184l-.74219.51758a1.95532,1.95532,0,0,0-.63672,1.02441,5.08984,5.08984,0,0,0-.19531,1.43555v1.22265h3.06054V105.5Z" style="fill:#fff"/></g></g><g id="_30" data-name="30" style="isolation:isolate"><g style="isolation:isolate"><path d="M132.62988,105.6123a2.34553,2.34553,0,0,1-1.66113-.49121,2.25991,2.25991,0,0,1-.54395-1.624q-.01464-.50244-.01464-.9668,0-.46581.01464-1.15527h1.15528v2.25781a.89473.89473,0,0,0,1.01953,1.00489.88178.88178,0,0,0,.99023-1.00489q.05274-1.44726,0-2.85742a1.36492,1.36492,0,0,0-.26953-.84766,1.1244,1.1244,0,0,0-.89258-.293l-.88574.01562-.03711-.98242,1.958-4.13281h-3.01562V93.5h4.35058l-.01562.96-2.01758,4.16211a2.06844,2.06844,0,0,1,1.48144.55176,2.482,2.482,0,0,1,.499,1.59375q.04541,1.72559,0,2.72949a2.3785,2.3785,0,0,1-.53614,1.624A2.1637,2.1637,0,0,1,132.62988,105.6123Z" style="fill:#fff"/><path d="M137.84961,105.6123a2.13888,2.13888,0,0,1-1.56348-.54,2.08834,2.08834,0,0,1-.55859-1.54493q-.03077-1.94238-.03027-4.02734,0-2.08447.03027-4.02734a2.08834,2.08834,0,0,1,.55859-1.54493,2.13888,2.13888,0,0,1,1.56348-.54,2.11669,2.11669,0,0,1,1.55273.54,2.14585,2.14585,0,0,1,.57032,1.54493q.03662,1.9497.03711,4.03515,0,2.08447-.03711,4.01953a2.14585,2.14585,0,0,1-.57032,1.54493A2.11669,2.11669,0,0,1,137.84961,105.6123Zm0-.9746a.85285.85285,0,0,0,.96777-.92286q.05274-2.272.05274-4.45507,0-2.18262-.05274-3.97461a.968.968,0,0,0-1.93457,0q-.04541,2.21923-.0459,4.40234,0,2.18262.0459,4.02734A.8476.8476,0,0,0,137.84961,104.6377Z" style="fill:#fff"/></g></g><g id="_28" data-name="28" style="isolation:isolate"><g style="isolation:isolate"><path d="M115.78906,105.5c-.00488-.22461-.00976-.41016-.01465-.55469-.00586-.14551-.00879-.28613-.01171-.42383s-.00293-.30371,0-.499.00585-.45508.01171-.78027a5.88065,5.88065,0,0,1,.22852-1.67578,3.2931,3.2931,0,0,1,.581-1.11426,4.32456,4.32456,0,0,1,.84766-.7793l.69727-.51074a1.726,1.726,0,0,0,.60351-.80176,3.71988,3.71988,0,0,0,.16113-.87793q.05274-1.08691,0-2.1748a1.10053,1.10053,0,0,0-.26953-.71973,1.03981,1.03981,0,0,0-.75781-.23242.96455.96455,0,0,0-.71973.23242,1.04579,1.04579,0,0,0-.24023.71973q-.01466.5918-.01074,1.19629.00292.60351.02637,1.19629h-1.14063q-.022-.58595-.0332-1.16993c-.00782-.39062-.00391-.7373.01074-1.043a2.31907,2.31907,0,0,1,.53223-1.6123,2.18839,2.18839,0,0,1,1.583-.4873,2.26957,2.26957,0,0,1,1.63868.48339,2.35774,2.35774,0,0,1,.52832,1.60938c.01074.28418.01757.625.02246,1.01953.00586.39551,0,.72266-.01465.98242a3.38835,3.38835,0,0,1-.41992,1.65039,4.15008,4.15008,0,0,1-1.11036,1.13184l-.74218.51758a1.96251,1.96251,0,0,0-.6377,1.02441,5.12567,5.12567,0,0,0-.19433,1.43555v1.22265h3.05957V105.5Z" style="fill:#fff"/><path d="M122.7793,105.6123a2.16268,2.16268,0,0,1-1.5752-.49121,2.38823,2.38823,0,0,1-.54785-1.624c-.01465-.31445-.02148-.667-.01855-1.05664q.00293-.58594.0332-1.43262a2.39945,2.39945,0,0,1,.27441-1.03125,1.39051,1.39051,0,0,1,.68555-.5664v-.23243a1.28551,1.28551,0,0,1-.60352-.46191,1.78355,1.78355,0,0,1-.28808-.8584q-.04542-.65186-.05664-1.25976-.01173-.60792.01074-1.10254a2.39183,2.39183,0,0,1,.5293-1.61621,2.69817,2.69817,0,0,1,3.10449,0,2.41181,2.41181,0,0,1,.53711,1.61621q.022.49512.00683,1.10254-.01464.60791-.05957,1.25976a1.77447,1.77447,0,0,1-.28906.85547,1.25571,1.25571,0,0,1-.5957.44922v.24805a1.54425,1.54425,0,0,1,.66308.57714,2.24713,2.24713,0,0,1,.28907,1.02051q.03661.84669.03711,1.43262c0,.38965-.00684.74219-.02247,1.05664a2.35926,2.35926,0,0,1-.54,1.624A2.16166,2.16166,0,0,1,122.7793,105.6123Zm0-6.8623q.95214,0,.96-1.0498.00732-.61524.01465-1.16993.00732-.55516-.01465-1.16992a1.1655,1.1655,0,0,0-.23633-.76172.939.939,0,0,0-.72363-.24316q-.94629,0-.96778,1.00488-.03075,1.169,0,2.33985Q121.8335,98.75049,122.7793,98.75Zm0,5.8877a.9596.9596,0,0,0,.73047-.24415,1.082,1.082,0,0,0,.22949-.76074q.03662-1.36523,0-2.73047a1.22475,1.22475,0,0,0-.24414-.79492.91611.91611,0,0,0-.71582-.25488q-.94629,0-.96778,1.0498-.03075,1.36524,0,2.73047Q121.8335,104.63769,122.7793,104.6377Z" style="fill:#fff"/></g></g><g id="_26" data-name="26" style="isolation:isolate"><g style="isolation:isolate"><path d="M100.78467,105.5c-.00488-.22461-.00977-.41016-.01465-.55469-.00537-.14551-.00879-.28613-.01172-.42383-.00244-.13769-.00244-.30371,0-.499.00293-.19531.00635-.45508.01172-.78027a5.88065,5.88065,0,0,1,.22852-1.67578,3.30145,3.30145,0,0,1,.581-1.11426,4.33818,4.33818,0,0,1,.84766-.7793l.69775-.51074a1.73284,1.73284,0,0,0,.60352-.80176,3.77024,3.77024,0,0,0,.16113-.87793q.05272-1.08691,0-2.1748a1.10326,1.10326,0,0,0-.27-.71973,1.03854,1.03854,0,0,0-.75733-.23242.96578.96578,0,0,0-.72021.23242,1.04811,1.04811,0,0,0-.23975.71973q-.01537.5918-.01123,1.19629.00366.60351.02637,1.19629h-1.14014q-.02269-.58595-.03369-1.16993c-.00781-.39062-.0039-.7373.01123-1.043a2.31449,2.31449,0,0,1,.53223-1.6123,2.18789,2.18789,0,0,1,1.58252-.4873,2.26873,2.26873,0,0,1,1.63867.48339,2.35773,2.35773,0,0,1,.52881,1.60938c.01025.28418.01758.625.02246,1.01953q.00806.59327-.01465.98242a3.39364,3.39364,0,0,1-.41992,1.65039,4.1573,4.1573,0,0,1-1.11035,1.13184l-.74219.51758a1.95946,1.95946,0,0,0-.63769,1.02441,5.12522,5.12522,0,0,0-.19483,1.43555v1.22265H105V105.5Z" style="fill:#fff"/><path d="M107.78955,105.6123a2.16892,2.16892,0,0,1-1.58594-.4873,2.27787,2.27787,0,0,1-.499-1.6123q-.03-2.11524-.03369-4.15137t.03369-3.86621a2.23893,2.23893,0,0,1,.55859-1.58985,2.09444,2.09444,0,0,1,1.51172-.50293,1.91532,1.91532,0,0,1,2.13721,2.09278v.57031q0,.34423-.00391.69727c-.00244.23535-.00634.42968-.01123.585h-1.13965q.022-.49512.02247-.97168,0-.47609-.02247-1.06836a1.06752,1.06752,0,0,0-.24414-.70508.96254.96254,0,0,0-.72363-.23242.83726.83726,0,0,0-.92969.9375q-.04541,1.68017-.04541,3.60742h.2627a1.17559,1.17559,0,0,1,.50244-.46484,1.66579,1.66579,0,0,1,.79492-.1875,1.479,1.479,0,0,1,1.22656.44238,2.48267,2.48267,0,0,1,.3711,1.46289q.02269.91405.02246,1.71,0,.79395-.02246,1.63477a2.35036,2.35036,0,0,1-.55127,1.6123A2.27621,2.27621,0,0,1,107.78955,105.6123Zm.01514-.96777a.8816.8816,0,0,0,1.01269-.95215q.022-.95214.02246-1.792,0-.84083-.02246-1.71-.02269-.94629-.90039-.94531a1.24446,1.24446,0,0,0-.77978.23633.851.851,0,0,0-.32276.68652q.00806.80859.01514,1.6875.00732.87744.03027,1.83691A.85034.85034,0,0,0,107.80469,104.64453Z" style="fill:#fff"/></g></g><g id="_24" data-name="24" style="isolation:isolate"><g style="isolation:isolate"><path d="M85.73242,105.5c-.00488-.22461-.00976-.41016-.01465-.55469-.00537-.14551-.00879-.28613-.01172-.42383-.00244-.13769-.00244-.30371,0-.499.00293-.19531.00635-.45508.01172-.78027a5.88065,5.88065,0,0,1,.22852-1.67578,3.30163,3.30163,0,0,1,.581-1.11426,4.33846,4.33846,0,0,1,.84766-.7793l.69775-.51074a1.7327,1.7327,0,0,0,.60352-.80176,3.77024,3.77024,0,0,0,.16113-.87793q.05274-1.08691,0-2.1748a1.10321,1.10321,0,0,0-.27-.71973,1.03849,1.03849,0,0,0-.75732-.23242.96579.96579,0,0,0-.72022.23242,1.04806,1.04806,0,0,0-.23974.71973q-.01539.5918-.01123,1.19629.00366.60351.02636,1.19629H85.7251q-.02271-.58595-.03369-1.16993c-.00782-.39062-.00391-.7373.01123-1.043a2.31444,2.31444,0,0,1,.53222-1.6123,2.18791,2.18791,0,0,1,1.58252-.4873,2.26873,2.26873,0,0,1,1.63867.48339,2.35763,2.35763,0,0,1,.52881,1.60938c.01026.28418.01758.625.02246,1.01953q.00807.59327-.01464.98242a3.39364,3.39364,0,0,1-.41993,1.65039,4.157,4.157,0,0,1-1.11035,1.13184l-.74219.51758a1.95946,1.95946,0,0,0-.63769,1.02441,5.12558,5.12558,0,0,0-.19482,1.43555v1.22265h3.06005V105.5Z" style="fill:#fff"/><path d="M92.9248,105.5v-3.59277H90.18018v-.94434L92.33984,93.5H94.0127v7.37988h1.0874v1.02735H94.0127V105.5Zm-1.61962-4.62012H92.9248l.13526-3.17968.12744-3.165h-.2998l-.75782,3.165Z" style="fill:#fff"/></g></g><g id="_22" data-name="22" style="isolation:isolate"><g style="isolation:isolate"><path d="M70.84473,105.5c-.00489-.22461-.00977-.41016-.01465-.55469-.00537-.14551-.00879-.28613-.01172-.42383-.00244-.13769-.00244-.30371,0-.499.00293-.19531.00635-.45508.01172-.78027a5.88068,5.88068,0,0,1,.22851-1.67578,3.30164,3.30164,0,0,1,.58106-1.11426,4.33841,4.33841,0,0,1,.84765-.7793l.69776-.51074a1.73274,1.73274,0,0,0,.60351-.80176,3.76972,3.76972,0,0,0,.16114-.87793q.05272-1.08691,0-2.1748a1.10332,1.10332,0,0,0-.27-.71973,1.03854,1.03854,0,0,0-.75733-.23242.96578.96578,0,0,0-.72021.23242,1.04811,1.04811,0,0,0-.23975.71973q-.01538.5918-.01123,1.19629.00366.60351.02637,1.19629H70.8374q-.02269-.58595-.03369-1.16993c-.00781-.39062-.00391-.7373.01123-1.043a2.31444,2.31444,0,0,1,.53223-1.6123,2.18789,2.18789,0,0,1,1.58252-.4873,2.26875,2.26875,0,0,1,1.63867.48339,2.35773,2.35773,0,0,1,.52881,1.60938c.01025.28418.01758.625.02246,1.01953q.00805.59327-.01465.98242a3.39364,3.39364,0,0,1-.41992,1.65039,4.1573,4.1573,0,0,1-1.11035,1.13184l-.74219.51758a1.95953,1.95953,0,0,0-.6377,1.02441A5.12558,5.12558,0,0,0,72,103.24219v1.22265h3.06006V105.5Z" style="fill:#fff"/><path d="M75.78711,105.5c-.00488-.22461-.00977-.41016-.01465-.55469-.00537-.14551-.00879-.28613-.01172-.42383-.00244-.13769-.00244-.30371,0-.499.00293-.19531.00635-.45508.01172-.78027a5.88065,5.88065,0,0,1,.22852-1.67578,3.30145,3.30145,0,0,1,.58105-1.11426,4.33818,4.33818,0,0,1,.84766-.7793l.69775-.51074a1.73284,1.73284,0,0,0,.60352-.80176,3.77024,3.77024,0,0,0,.16113-.87793q.05274-1.08691,0-2.1748a1.10326,1.10326,0,0,0-.27-.71973,1.03851,1.03851,0,0,0-.75732-.23242.96579.96579,0,0,0-.72022.23242,1.04806,1.04806,0,0,0-.23974.71973q-.01539.5918-.01124,1.19629.00367.60351.02637,1.19629H75.77979q-.02271-.58595-.0337-1.16993c-.00781-.39062-.0039-.7373.01123-1.043a2.31449,2.31449,0,0,1,.53223-1.6123,2.18789,2.18789,0,0,1,1.58252-.4873,2.26873,2.26873,0,0,1,1.63867.48339,2.35763,2.35763,0,0,1,.52881,1.60938c.01025.28418.01758.625.02246,1.01953q.00805.59327-.01465.98242a3.39364,3.39364,0,0,1-.41992,1.65039,4.1573,4.1573,0,0,1-1.11035,1.13184l-.74219.51758a1.95946,1.95946,0,0,0-.63769,1.02441,5.12522,5.12522,0,0,0-.19483,1.43555v1.22265h3.06006V105.5Z" style="fill:#fff"/></g></g><g id="_20" data-name="20" style="isolation:isolate"><g style="isolation:isolate"><path d="M55.73242,105.5c-.00488-.22461-.00976-.41016-.01465-.55469-.00537-.14551-.00879-.28613-.01172-.42383-.00244-.13769-.00244-.30371,0-.499.00293-.19531.00635-.45508.01172-.78027a5.88065,5.88065,0,0,1,.22852-1.67578,3.30163,3.30163,0,0,1,.58105-1.11426,4.33846,4.33846,0,0,1,.84766-.7793l.69775-.51074a1.7327,1.7327,0,0,0,.60352-.80176,3.77024,3.77024,0,0,0,.16113-.87793q.05274-1.08691,0-2.1748a1.10321,1.10321,0,0,0-.27-.71973,1.03849,1.03849,0,0,0-.75732-.23242.96579.96579,0,0,0-.72022.23242,1.04806,1.04806,0,0,0-.23974.71973q-.01539.5918-.01123,1.19629.00366.60351.02636,1.19629H55.7251q-.02271-.58595-.03369-1.16993c-.00782-.39062-.00391-.7373.01123-1.043a2.31444,2.31444,0,0,1,.53222-1.6123,2.18791,2.18791,0,0,1,1.58252-.4873,2.26873,2.26873,0,0,1,1.63867.48339,2.35763,2.35763,0,0,1,.52881,1.60938c.01026.28418.01758.625.02246,1.01953q.00807.59327-.01464.98242a3.39364,3.39364,0,0,1-.41993,1.65039,4.157,4.157,0,0,1-1.11035,1.13184l-.74219.51758a1.95946,1.95946,0,0,0-.63769,1.02441,5.12558,5.12558,0,0,0-.19482,1.43555v1.22265h3.06V105.5Z" style="fill:#fff"/><path d="M62.7749,105.6123a2.14086,2.14086,0,0,1-1.564-.54,2.08835,2.08835,0,0,1-.5586-1.54493q-.03-1.94238-.02978-4.02734,0-2.08447.02978-4.02734a2.08835,2.08835,0,0,1,.5586-1.54493,2.14086,2.14086,0,0,1,1.564-.54,2.11673,2.11673,0,0,1,1.55274.54,2.14566,2.14566,0,0,1,.56982,1.54493q.03735,1.9497.0376,4.03515,0,2.08447-.0376,4.01953a2.14566,2.14566,0,0,1-.56982,1.54493A2.11673,2.11673,0,0,1,62.7749,105.6123Zm0-.9746a.85229.85229,0,0,0,.96729-.92286q.05273-2.272.05273-4.45507,0-2.18262-.05273-3.97461a.968.968,0,0,0-1.93457,0q-.04542,2.21923-.04541,4.40234,0,2.18262.04541,4.02734A.848.848,0,0,0,62.7749,104.6377Z" style="fill:#fff"/></g></g><g id="_18" data-name="18" style="isolation:isolate"><g style="isolation:isolate"><path d="M42.48,105.5V94.707h-.54L41.895,94.25l.81738-.75h.92237v12Z" style="fill:#fff"/><path d="M46.58252,105.6123a2.16346,2.16346,0,0,1-1.5752-.49121,2.38584,2.38584,0,0,1-.54736-1.624q-.02271-.47167-.019-1.05664.00366-.58594.03369-1.43262a2.39988,2.39988,0,0,1,.27393-1.03125,1.3896,1.3896,0,0,1,.686-.5664v-.23243a1.28551,1.28551,0,0,1-.60352-.46191,1.78358,1.78358,0,0,1-.28857-.8584q-.0454-.65186-.05664-1.25976-.011-.60792.01123-1.10254a2.39185,2.39185,0,0,1,.52881-1.61621,2.69895,2.69895,0,0,1,3.105,0,2.41435,2.41435,0,0,1,.53662,1.61621q.022.49512.00732,1.10254-.01537.60791-.06,1.25976a1.77435,1.77435,0,0,1-.28858.85547,1.257,1.257,0,0,1-.59619.44922v.24805a1.54558,1.54558,0,0,1,.66357.57714,2.24735,2.24735,0,0,1,.28858,1.02051q.03735.84669.0376,1.43262,0,.58447-.02246,1.05664a2.3617,2.3617,0,0,1-.54,1.624A2.16294,2.16294,0,0,1,46.58252,105.6123Zm0-6.8623q.95215,0,.96-1.0498.00732-.61524.01465-1.16993.00732-.55516-.01465-1.16992a1.16277,1.16277,0,0,0-.23633-.76172.93828.93828,0,0,0-.72363-.24316q-.94555,0-.96777,1.00488-.03,1.169,0,2.33985Q45.63745,98.75049,46.58252,98.75Zm0,5.8877a.96008.96008,0,0,0,.731-.24415,1.08194,1.08194,0,0,0,.229-.76074q.03735-1.36523,0-2.73047a1.2192,1.2192,0,0,0-.24414-.79492.9154.9154,0,0,0-.71582-.25488q-.94555,0-.96777,1.0498-.03,1.36524,0,2.73047Q45.63745,104.63769,46.58252,104.6377Z" style="fill:#fff"/></g></g><g id="_16" data-name="16" style="isolation:isolate"><g style="isolation:isolate"><path d="M27.47607,105.5V94.707h-.54l-.04493-.457.81739-.75h.92236v12Z" style="fill:#fff"/><path d="M31.59326,105.6123a2.16892,2.16892,0,0,1-1.58594-.4873,2.27787,2.27787,0,0,1-.499-1.6123q-.03-2.11524-.03369-4.15137t.03369-3.86621a2.23893,2.23893,0,0,1,.55859-1.58985,2.09444,2.09444,0,0,1,1.51172-.50293,1.91532,1.91532,0,0,1,2.13721,2.09278v.57031q0,.34423-.00391.69727c-.00244.23535-.00634.42968-.01123.585H32.561q.022-.49512.02246-.97168,0-.47609-.02246-1.06836a1.06753,1.06753,0,0,0-.24415-.70508.96254.96254,0,0,0-.72363-.23242.83726.83726,0,0,0-.92969.9375q-.04541,1.68017-.04541,3.60742h.2627a1.17559,1.17559,0,0,1,.50244-.46484,1.66579,1.66579,0,0,1,.79492-.1875,1.47908,1.47908,0,0,1,1.22657.44238,2.48275,2.48275,0,0,1,.37109,1.46289q.02271.91405.02246,1.71,0,.79395-.02246,1.63477a2.35036,2.35036,0,0,1-.55127,1.6123A2.27621,2.27621,0,0,1,31.59326,105.6123Zm.01514-.96777a.8816.8816,0,0,0,1.01269-.95215q.022-.95214.02246-1.792,0-.84083-.02246-1.71-.02269-.94629-.90039-.94531a1.24446,1.24446,0,0,0-.77978.23633.851.851,0,0,0-.32276.68652q.00807.80859.01514,1.6875.00732.87744.03027,1.83691A.85034.85034,0,0,0,31.6084,104.64453Z" style="fill:#fff"/></g></g><g id="_14" data-name="14" style="isolation:isolate"><g style="isolation:isolate"><path d="M12.34521,105.5V94.707h-.54l-.04493-.457.81739-.75H13.5v12Z" style="fill:#fff"/><path d="M16.77734,105.5v-3.59277H14.03271v-.94434L16.19238,93.5h1.67285v7.37988h1.08741v1.02735H17.86523V105.5Zm-1.61963-4.62012h1.61963l.13526-3.17968.12744-3.165h-.29981l-.75781,3.165Z" style="fill:#fff"/></g></g></g></g><g id="Lower_Temp_Thermometer" data-name="Lower Temp Thermometer"><rect id="Thermometer-back-2" data-name="Thermometer-back" x="5.5" y="40.5" width="151" height="28" style="fill:#333"/></g></g></svg>