<svg id="water_temp_22_-_2G" data-name="water temp 22 - 2G" xmlns="http://www.w3.org/2000/svg" viewBox="0 0 226 200"><rect id="back" width="226" height="200" style="fill:none"/><g id="therms"><g id="Higher_Temp_Thermometer" data-name="Higher Temp Thermometer"><rect id="Thermometer-back" x="5.5" y="85.5" width="215" height="28" style="fill:#333"/><g id="Temperature-backs"><rect id="Temp-back---40" x="204.5" y="89.5" width="12" height="20" style="fill:#333"/><rect id="Temp-back---38" x="189.5" y="89.5" width="12" height="20" style="fill:#333"/><rect id="Temp-back---36" x="174.5" y="89.5" width="12" height="20" style="fill:#333"/><rect id="Temp-back---34" x="159.5" y="89.5" width="12" height="20" style="fill:#333"/><rect id="Temp-back---32" x="144.5" y="89.5" width="12" height="20" style="fill:#333"/><rect id="Temp-back---30" x="129.5" y="89.5" width="12" height="20" style="fill:#333"/><rect id="Temp-back---28" x="114.5" y="89.5" width="12" height="20" style="fill:#333"/><rect id="Temp-back---26" x="99.5" y="89.5" width="12" height="20" style="fill:#333"/><rect id="Temp-back---24" x="84.5" y="89.5" width="12" height="20" style="fill:#d3aa68;fill-opacity:0.400000005960465"/><rect id="Temp-back---22" x="69.5" y="89.5" width="12" height="20" style="fill:#0dab7e"/><rect id="Temp-back---20" x="54.5" y="89.5" width="12" height="20" style="fill:#01adef;fill-opacity:0.400000005960465"/><rect id="Temp-back---18" x="39.5" y="89.5" width="12" height="20" style="fill:#333"/><rect id="Temp-back---16" x="24.5" y="89.5" width="12" height="20" style="fill:#333"/><rect id="Temp-back---14" x="9.5" y="89.5" width="12" height="20" style="fill:#333"/></g><g id="Temperature-Numbers"><g id="_40" data-name="40" style="isolation:isolate"><g style="isolation:isolate"><path d="M207.919,105.5v-3.59277h-2.74512v-.94434L207.334,93.5h1.67286v7.37988h1.08691v1.02735h-1.08691V105.5Zm-1.62012-4.62012H207.919l.13476-3.17968.12793-3.165h-.2998l-.75782,3.165Z" style="fill:#fff"/><path d="M212.97363,105.6123a2.13885,2.13885,0,0,1-1.56347-.54,2.08835,2.08835,0,0,1-.5586-1.54493q-.03077-1.94238-.03027-4.02734,0-2.08447.03027-4.02734a2.08835,2.08835,0,0,1,.5586-1.54493,2.13885,2.13885,0,0,1,1.56347-.54,2.11673,2.11673,0,0,1,1.55274.54,2.14589,2.14589,0,0,1,.57031,1.54493q.03662,1.9497.03711,4.03515,0,2.08447-.03711,4.01953a2.14589,2.14589,0,0,1-.57031,1.54493A2.11673,2.11673,0,0,1,212.97363,105.6123Zm0-.9746a.85287.85287,0,0,0,.96778-.92286q.05273-2.272.05273-4.45507,0-2.18262-.05273-3.97461a.968.968,0,0,0-1.93457,0q-.04542,2.21923-.0459,4.40234,0,2.18262.0459,4.02734A.84759.84759,0,0,0,212.97363,104.6377Z" style="fill:#fff"/></g></g><g id="_38" data-name="38" style="isolation:isolate"><g style="isolation:isolate"><path d="M192.68652,105.6123a2.34666,2.34666,0,0,1-1.66211-.49121,2.25983,2.25983,0,0,1-.543-1.624q-.01612-.50244-.01563-.9668,0-.46581.01563-1.15527h1.15429v2.25781a.895.895,0,0,0,1.02051,1.00489.88178.88178,0,0,0,.99023-1.00489q.05127-1.44726,0-2.85742a1.3711,1.3711,0,0,0-.2705-.84766,1.1244,1.1244,0,0,0-.89258-.293l-.88477.01562-.03711-.98242,1.957-4.13281h-3.01464V93.5h4.34961l-.01465.96-2.01758,4.16211a2.07022,2.07022,0,0,1,1.48144.55176,2.48211,2.48211,0,0,1,.49805,1.59375q.0454,1.72559,0,2.72949a2.37364,2.37364,0,0,1-.53613,1.624A2.15958,2.15958,0,0,1,192.68652,105.6123Z" style="fill:#fff"/><path d="M197.85352,105.6123a2.16424,2.16424,0,0,1-1.5752-.49121,2.3833,2.3833,0,0,1-.54687-1.624c-.01563-.31445-.02149-.667-.01954-1.05664q.0044-.58594.03418-1.43262a2.40047,2.40047,0,0,1,.27344-1.03125,1.38877,1.38877,0,0,1,.68652-.5664v-.23243a1.28544,1.28544,0,0,1-.60351-.46191,1.78361,1.78361,0,0,1-.28906-.8584q-.04542-.65186-.05664-1.25976-.01026-.60792.01171-1.10254a2.39191,2.39191,0,0,1,.52833-1.61621,2.69971,2.69971,0,0,1,3.10546,0,2.41686,2.41686,0,0,1,.53614,1.61621q.022.49512.00781,1.10254-.01611.60791-.06055,1.25976a1.77443,1.77443,0,0,1-.28808.85547,1.25834,1.25834,0,0,1-.59668.44922v.24805a1.547,1.547,0,0,1,.66406.57714,2.24746,2.24746,0,0,1,.28808,1.02051q.0381.84669.03809,1.43262,0,.58447-.02246,1.05664a2.364,2.364,0,0,1-.54,1.624A2.16423,2.16423,0,0,1,197.85352,105.6123Zm0-6.8623q.95214,0,.96-1.0498.00732-.61524.01464-1.16993.00733-.55516-.01464-1.16992a1.16011,1.16011,0,0,0-.23633-.76172.93756.93756,0,0,0-.72363-.24316q-.94483,0-.96778,1.00488-.02929,1.169,0,2.33985Q196.90918,98.75049,197.85352,98.75Zm0,5.8877a.96052.96052,0,0,0,.73144-.24415,1.08193,1.08193,0,0,0,.22852-.76074q.03808-1.36523,0-2.73047a1.21377,1.21377,0,0,0-.24414-.79492.91472.91472,0,0,0-.71582-.25488q-.94483,0-.96778,1.0498-.02929,1.36524,0,2.73047Q196.90918,104.63769,197.85352,104.6377Z" style="fill:#fff"/></g></g><g id="_36" data-name="36" style="isolation:isolate"><g style="isolation:isolate"><path d="M177.68262,105.6123a2.34557,2.34557,0,0,1-1.66114-.49121,2.25991,2.25991,0,0,1-.54394-1.624q-.01466-.50244-.01465-.9668,0-.46581.01465-1.15527h1.15527v2.25781a.89474.89474,0,0,0,1.01953,1.00489.88179.88179,0,0,0,.99024-1.00489q.05272-1.44726,0-2.85742a1.365,1.365,0,0,0-.26953-.84766,1.1244,1.1244,0,0,0-.89258-.293l-.88574.01562-.03711-.98242,1.958-4.13281H175.5V93.5h4.35059l-.01563.96-2.01758,4.16211a2.06848,2.06848,0,0,1,1.48145.55176,2.482,2.482,0,0,1,.499,1.59375q.0454,1.72559,0,2.72949a2.37845,2.37845,0,0,1-.53613,1.624A2.16371,2.16371,0,0,1,177.68262,105.6123Z" style="fill:#fff"/><path d="M182.86523,105.6123a2.1681,2.1681,0,0,1-1.58593-.4873,2.27329,2.27329,0,0,1-.499-1.6123q-.03075-2.11524-.03418-4.15137-.00293-2.03613.03418-3.86621a2.23459,2.23459,0,0,1,.5586-1.58985,2.0944,2.0944,0,0,1,1.51172-.50293,1.915,1.915,0,0,1,2.13671,2.09278v.57031q0,.34423-.0039.69727c-.00195.23535-.00586.42968-.01074.585H183.833q.022-.49512.02246-.97168,0-.47609-.02246-1.06836a1.07016,1.07016,0,0,0-.24414-.70508.96255.96255,0,0,0-.72364-.23242.837.837,0,0,0-.92968.9375q-.04542,1.68017-.0459,3.60742h.26269a1.177,1.177,0,0,1,.50293-.46484,1.66445,1.66445,0,0,1,.79493-.1875,1.479,1.479,0,0,1,1.22656.44238,2.48631,2.48631,0,0,1,.37109,1.46289q.022.91405.02246,1.71,0,.79395-.02246,1.63477a2.348,2.348,0,0,1-.55176,1.6123A2.274,2.274,0,0,1,182.86523,105.6123Zm.01465-.96777a.88141.88141,0,0,0,1.0127-.95215q.022-.95214.02246-1.792,0-.84083-.02246-1.71-.022-.94629-.90039-.94531a1.244,1.244,0,0,0-.7793.23633.85277.85277,0,0,0-.32324.68652q.00879.80859.01562,1.6875.00733.87744.03028,1.83691A.85.85,0,0,0,182.87988,104.64453Z" style="fill:#fff"/></g></g><g id="_34" data-name="34" style="isolation:isolate"><g style="isolation:isolate"><path d="M162.55176,105.6123a2.34663,2.34663,0,0,1-1.66211-.49121,2.25979,2.25979,0,0,1-.543-1.624q-.01611-.50244-.01563-.9668,0-.46581.01563-1.15527h1.1543v2.25781a.895.895,0,0,0,1.0205,1.00489.88179.88179,0,0,0,.99024-1.00489q.05127-1.44726,0-2.85742a1.37117,1.37117,0,0,0-.27051-.84766,1.1244,1.1244,0,0,0-.89258-.293l-.88476.01562-.03711-.98242,1.957-4.13281h-3.01465V93.5h4.34961l-.01465.96-2.01758,4.16211a2.07026,2.07026,0,0,1,1.48145.55176,2.48211,2.48211,0,0,1,.49805,1.59375q.04541,1.72559,0,2.72949a2.37364,2.37364,0,0,1-.53614,1.624A2.15955,2.15955,0,0,1,162.55176,105.6123Z" style="fill:#fff"/><path d="M168.04883,105.5v-3.59277h-2.74512v-.94434L167.46387,93.5h1.67285v7.37988h1.08691v1.02735h-1.08691V105.5Zm-1.62012-4.62012h1.62012l.13476-3.17968.12793-3.165h-.2998l-.75781,3.165Z" style="fill:#fff"/></g></g><g id="_32" data-name="32" style="isolation:isolate"><g style="isolation:isolate"><path d="M147.74219,105.6123a2.34557,2.34557,0,0,1-1.66114-.49121,2.25991,2.25991,0,0,1-.54394-1.624q-.01466-.50244-.01465-.9668,0-.46581.01465-1.15527h1.15527v2.25781a.895.895,0,0,0,1.02051,1.00489.88178.88178,0,0,0,.99023-1.00489q.05127-1.44726,0-2.85742a1.3711,1.3711,0,0,0-.2705-.84766,1.1244,1.1244,0,0,0-.89258-.293l-.88574.01562-.03711-.98242,1.958-4.13281h-3.01465V93.5h4.34961l-.01563.96L147.877,98.62207a2.07106,2.07106,0,0,1,1.48243.55176,2.48216,2.48216,0,0,1,.498,1.59375q.04542,1.72559,0,2.72949a2.37364,2.37364,0,0,1-.53613,1.624A2.16215,2.16215,0,0,1,147.74219,105.6123Z" style="fill:#fff"/><path d="M150.8623,105.5c-.00488-.22461-.00976-.41016-.01464-.55469-.00586-.14551-.00879-.28613-.01172-.42383-.002-.13769-.002-.30371,0-.499.00293-.19531.00586-.45508.01172-.78027a5.88032,5.88032,0,0,1,.22851-1.67578,3.29294,3.29294,0,0,1,.58106-1.11426,4.35211,4.35211,0,0,1,.84765-.7793l.69824-.51074a1.73946,1.73946,0,0,0,.60352-.80176,3.76943,3.76943,0,0,0,.16016-.87793q.05272-1.08691,0-2.1748a1.10063,1.10063,0,0,0-.26953-.71973,1.03829,1.03829,0,0,0-.75782-.23242.96452.96452,0,0,0-.71972.23242,1.05035,1.05035,0,0,0-.23926.71973c-.01074.39453-.01367.79394-.01172,1.19629s.01172.80078.02637,1.19629h-1.13965q-.02344-.58595-.03418-1.16993c-.00781-.39062-.00391-.7373.01074-1.043a2.31451,2.31451,0,0,1,.5332-1.6123,2.18739,2.18739,0,0,1,1.582-.4873,2.26954,2.26954,0,0,1,1.63867.48339,2.36256,2.36256,0,0,1,.52929,1.60938c.00977.28418.01758.625.02149,1.01953.00586.39551,0,.72266-.01367.98242a3.40984,3.40984,0,0,1-.41993,1.65039,4.169,4.169,0,0,1-1.11132,1.13184l-.74219.51758a1.95532,1.95532,0,0,0-.63672,1.02441,5.08984,5.08984,0,0,0-.19531,1.43555v1.22265h3.06054V105.5Z" style="fill:#fff"/></g></g><g id="_30" data-name="30" style="isolation:isolate"><g style="isolation:isolate"><path d="M132.62988,105.6123a2.34553,2.34553,0,0,1-1.66113-.49121,2.25991,2.25991,0,0,1-.54395-1.624q-.01464-.50244-.01464-.9668,0-.46581.01464-1.15527h1.15528v2.25781a.89473.89473,0,0,0,1.01953,1.00489.88178.88178,0,0,0,.99023-1.00489q.05274-1.44726,0-2.85742a1.36492,1.36492,0,0,0-.26953-.84766,1.1244,1.1244,0,0,0-.89258-.293l-.88574.01562-.03711-.98242,1.958-4.13281h-3.01562V93.5h4.35058l-.01562.96-2.01758,4.16211a2.06844,2.06844,0,0,1,1.48144.55176,2.482,2.482,0,0,1,.499,1.59375q.04541,1.72559,0,2.72949a2.3785,2.3785,0,0,1-.53614,1.624A2.1637,2.1637,0,0,1,132.62988,105.6123Z" style="fill:#fff"/><path d="M137.84961,105.6123a2.13888,2.13888,0,0,1-1.56348-.54,2.08834,2.08834,0,0,1-.55859-1.54493q-.03077-1.94238-.03027-4.02734,0-2.08447.03027-4.02734a2.08834,2.08834,0,0,1,.55859-1.54493,2.13888,2.13888,0,0,1,1.56348-.54,2.11669,2.11669,0,0,1,1.55273.54,2.14585,2.14585,0,0,1,.57032,1.54493q.03662,1.9497.03711,4.03515,0,2.08447-.03711,4.01953a2.14585,2.14585,0,0,1-.57032,1.54493A2.11669,2.11669,0,0,1,137.84961,105.6123Zm0-.9746a.85285.85285,0,0,0,.96777-.92286q.05274-2.272.05274-4.45507,0-2.18262-.05274-3.97461a.968.968,0,0,0-1.93457,0q-.04541,2.21923-.0459,4.40234,0,2.18262.0459,4.02734A.8476.8476,0,0,0,137.84961,104.6377Z" style="fill:#fff"/></g></g><g id="_28" data-name="28" style="isolation:isolate"><g style="isolation:isolate"><path d="M115.78906,105.5c-.00488-.22461-.00976-.41016-.01465-.55469-.00586-.14551-.00879-.28613-.01171-.42383s-.00293-.30371,0-.499.00585-.45508.01171-.78027a5.88065,5.88065,0,0,1,.22852-1.67578,3.2931,3.2931,0,0,1,.581-1.11426,4.32456,4.32456,0,0,1,.84766-.7793l.69727-.51074a1.726,1.726,0,0,0,.60351-.80176,3.71988,3.71988,0,0,0,.16113-.87793q.05274-1.08691,0-2.1748a1.10053,1.10053,0,0,0-.26953-.71973,1.03981,1.03981,0,0,0-.75781-.23242.96455.96455,0,0,0-.71973.23242,1.04579,1.04579,0,0,0-.24023.71973q-.01466.5918-.01074,1.19629.00292.60351.02637,1.19629h-1.14063q-.022-.58595-.0332-1.16993c-.00782-.39062-.00391-.7373.01074-1.043a2.31907,2.31907,0,0,1,.53223-1.6123,2.18839,2.18839,0,0,1,1.583-.4873,2.26957,2.26957,0,0,1,1.63868.48339,2.35774,2.35774,0,0,1,.52832,1.60938c.01074.28418.01757.625.02246,1.01953.00586.39551,0,.72266-.01465.98242a3.38835,3.38835,0,0,1-.41992,1.65039,4.15008,4.15008,0,0,1-1.11036,1.13184l-.74218.51758a1.96251,1.96251,0,0,0-.6377,1.02441,5.12567,5.12567,0,0,0-.19433,1.43555v1.22265h3.05957V105.5Z" style="fill:#fff"/><path d="M122.7793,105.6123a2.16268,2.16268,0,0,1-1.5752-.49121,2.38823,2.38823,0,0,1-.54785-1.624c-.01465-.31445-.02148-.667-.01855-1.05664q.00293-.58594.0332-1.43262a2.39945,2.39945,0,0,1,.27441-1.03125,1.39051,1.39051,0,0,1,.68555-.5664v-.23243a1.28551,1.28551,0,0,1-.60352-.46191,1.78355,1.78355,0,0,1-.28808-.8584q-.04542-.65186-.05664-1.25976-.01173-.60792.01074-1.10254a2.39183,2.39183,0,0,1,.5293-1.61621,2.69817,2.69817,0,0,1,3.10449,0,2.41181,2.41181,0,0,1,.53711,1.61621q.022.49512.00683,1.10254-.01464.60791-.05957,1.25976a1.77447,1.77447,0,0,1-.28906.85547,1.25571,1.25571,0,0,1-.5957.44922v.24805a1.54425,1.54425,0,0,1,.66308.57714,2.24713,2.24713,0,0,1,.28907,1.02051q.03661.84669.03711,1.43262c0,.38965-.00684.74219-.02247,1.05664a2.35926,2.35926,0,0,1-.54,1.624A2.16166,2.16166,0,0,1,122.7793,105.6123Zm0-6.8623q.95214,0,.96-1.0498.00732-.61524.01465-1.16993.00732-.55516-.01465-1.16992a1.1655,1.1655,0,0,0-.23633-.76172.939.939,0,0,0-.72363-.24316q-.94629,0-.96778,1.00488-.03075,1.169,0,2.33985Q121.8335,98.75049,122.7793,98.75Zm0,5.8877a.9596.9596,0,0,0,.73047-.24415,1.082,1.082,0,0,0,.22949-.76074q.03662-1.36523,0-2.73047a1.22475,1.22475,0,0,0-.24414-.79492.91611.91611,0,0,0-.71582-.25488q-.94629,0-.96778,1.0498-.03075,1.36524,0,2.73047Q121.8335,104.63769,122.7793,104.6377Z" style="fill:#fff"/></g></g><g id="_26" data-name="26" style="isolation:isolate"><g style="isolation:isolate"><path d="M100.78467,105.5c-.00488-.22461-.00977-.41016-.01465-.55469-.00537-.14551-.00879-.28613-.01172-.42383-.00244-.13769-.00244-.30371,0-.499.00293-.19531.00635-.45508.01172-.78027a5.88065,5.88065,0,0,1,.22852-1.67578,3.30145,3.30145,0,0,1,.581-1.11426,4.33818,4.33818,0,0,1,.84766-.7793l.69775-.51074a1.73284,1.73284,0,0,0,.60352-.80176,3.77024,3.77024,0,0,0,.16113-.87793q.05272-1.08691,0-2.1748a1.10326,1.10326,0,0,0-.27-.71973,1.03854,1.03854,0,0,0-.75733-.23242.96578.96578,0,0,0-.72021.23242,1.04811,1.04811,0,0,0-.23975.71973q-.01537.5918-.01123,1.19629.00366.60351.02637,1.19629h-1.14014q-.02269-.58595-.03369-1.16993c-.00781-.39062-.0039-.7373.01123-1.043a2.31449,2.31449,0,0,1,.53223-1.6123,2.18789,2.18789,0,0,1,1.58252-.4873,2.26873,2.26873,0,0,1,1.63867.48339,2.35773,2.35773,0,0,1,.52881,1.60938c.01025.28418.01758.625.02246,1.01953q.00806.59327-.01465.98242a3.39364,3.39364,0,0,1-.41992,1.65039,4.1573,4.1573,0,0,1-1.11035,1.13184l-.74219.51758a1.95946,1.95946,0,0,0-.63769,1.02441,5.12522,5.12522,0,0,0-.19483,1.43555v1.22265H105V105.5Z" style="fill:#fff"/><path d="M107.78955,105.6123a2.16892,2.16892,0,0,1-1.58594-.4873,2.27787,2.27787,0,0,1-.499-1.6123q-.03-2.11524-.03369-4.15137t.03369-3.86621a2.23893,2.23893,0,0,1,.55859-1.58985,2.09444,2.09444,0,0,1,1.51172-.50293,1.91532,1.91532,0,0,1,2.13721,2.09278v.57031q0,.34423-.00391.69727c-.00244.23535-.00634.42968-.01123.585h-1.13965q.022-.49512.02247-.97168,0-.47609-.02247-1.06836a1.06752,1.06752,0,0,0-.24414-.70508.96254.96254,0,0,0-.72363-.23242.83726.83726,0,0,0-.92969.9375q-.04541,1.68017-.04541,3.60742h.2627a1.17559,1.17559,0,0,1,.50244-.46484,1.66579,1.66579,0,0,1,.79492-.1875,1.479,1.479,0,0,1,1.22656.44238,2.48267,2.48267,0,0,1,.3711,1.46289q.02269.91405.02246,1.71,0,.79395-.02246,1.63477a2.35036,2.35036,0,0,1-.55127,1.6123A2.27621,2.27621,0,0,1,107.78955,105.6123Zm.01514-.96777a.8816.8816,0,0,0,1.01269-.95215q.022-.95214.02246-1.792,0-.84083-.02246-1.71-.02269-.94629-.90039-.94531a1.24446,1.24446,0,0,0-.77978.23633.851.851,0,0,0-.32276.68652q.00806.80859.01514,1.6875.00732.87744.03027,1.83691A.85034.85034,0,0,0,107.80469,104.64453Z" style="fill:#fff"/></g></g><g id="_24" data-name="24" style="isolation:isolate"><g style="isolation:isolate"><path d="M85.73242,105.5c-.00488-.22461-.00976-.41016-.01465-.55469-.00537-.14551-.00879-.28613-.01172-.42383-.00244-.13769-.00244-.30371,0-.499.00293-.19531.00635-.45508.01172-.78027a5.88065,5.88065,0,0,1,.22852-1.67578,3.30163,3.30163,0,0,1,.581-1.11426,4.33846,4.33846,0,0,1,.84766-.7793l.69775-.51074a1.7327,1.7327,0,0,0,.60352-.80176,3.77024,3.77024,0,0,0,.16113-.87793q.05274-1.08691,0-2.1748a1.10321,1.10321,0,0,0-.27-.71973,1.03849,1.03849,0,0,0-.75732-.23242.96579.96579,0,0,0-.72022.23242,1.04806,1.04806,0,0,0-.23974.71973q-.01539.5918-.01123,1.19629.00366.60351.02636,1.19629H85.7251q-.02271-.58595-.03369-1.16993c-.00782-.39062-.00391-.7373.01123-1.043a2.31444,2.31444,0,0,1,.53222-1.6123,2.18791,2.18791,0,0,1,1.58252-.4873,2.26873,2.26873,0,0,1,1.63867.48339,2.35763,2.35763,0,0,1,.52881,1.60938c.01026.28418.01758.625.02246,1.01953q.00807.59327-.01464.98242a3.39364,3.39364,0,0,1-.41993,1.65039,4.157,4.157,0,0,1-1.11035,1.13184l-.74219.51758a1.95946,1.95946,0,0,0-.63769,1.02441,5.12558,5.12558,0,0,0-.19482,1.43555v1.22265h3.06005V105.5Z" style="fill:#fff"/><path d="M92.9248,105.5v-3.59277H90.18018v-.94434L92.33984,93.5H94.0127v7.37988h1.0874v1.02735H94.0127V105.5Zm-1.61962-4.62012H92.9248l.13526-3.17968.12744-3.165h-.2998l-.75782,3.165Z" style="fill:#fff"/></g></g><g id="_22" data-name="22" style="isolation:isolate"><g style="isolation:isolate"><path d="M70.84473,105.5c-.00489-.22461-.00977-.41016-.01465-.55469-.00537-.14551-.00879-.28613-.01172-.42383-.00244-.13769-.00244-.30371,0-.499.00293-.19531.00635-.45508.01172-.78027a5.88068,5.88068,0,0,1,.22851-1.67578,3.30164,3.30164,0,0,1,.58106-1.11426,4.33841,4.33841,0,0,1,.84765-.7793l.69776-.51074a1.73274,1.73274,0,0,0,.60351-.80176,3.76972,3.76972,0,0,0,.16114-.87793q.05272-1.08691,0-2.1748a1.10332,1.10332,0,0,0-.27-.71973,1.03854,1.03854,0,0,0-.75733-.23242.96578.96578,0,0,0-.72021.23242,1.04811,1.04811,0,0,0-.23975.71973q-.01538.5918-.01123,1.19629.00366.60351.02637,1.19629H70.8374q-.02269-.58595-.03369-1.16993c-.00781-.39062-.00391-.7373.01123-1.043a2.31444,2.31444,0,0,1,.53223-1.6123,2.18789,2.18789,0,0,1,1.58252-.4873,2.26875,2.26875,0,0,1,1.63867.48339,2.35773,2.35773,0,0,1,.52881,1.60938c.01025.28418.01758.625.02246,1.01953q.00805.59327-.01465.98242a3.39364,3.39364,0,0,1-.41992,1.65039,4.1573,4.1573,0,0,1-1.11035,1.13184l-.74219.51758a1.95953,1.95953,0,0,0-.6377,1.02441A5.12558,5.12558,0,0,0,72,103.24219v1.22265h3.06006V105.5Z" style="fill:#fff"/><path d="M75.78711,105.5c-.00488-.22461-.00977-.41016-.01465-.55469-.00537-.14551-.00879-.28613-.01172-.42383-.00244-.13769-.00244-.30371,0-.499.00293-.19531.00635-.45508.01172-.78027a5.88065,5.88065,0,0,1,.22852-1.67578,3.30145,3.30145,0,0,1,.58105-1.11426,4.33818,4.33818,0,0,1,.84766-.7793l.69775-.51074a1.73284,1.73284,0,0,0,.60352-.80176,3.77024,3.77024,0,0,0,.16113-.87793q.05274-1.08691,0-2.1748a1.10326,1.10326,0,0,0-.27-.71973,1.03851,1.03851,0,0,0-.75732-.23242.96579.96579,0,0,0-.72022.23242,1.04806,1.04806,0,0,0-.23974.71973q-.01539.5918-.01124,1.19629.00367.60351.02637,1.19629H75.77979q-.02271-.58595-.0337-1.16993c-.00781-.39062-.0039-.7373.01123-1.043a2.31449,2.31449,0,0,1,.53223-1.6123,2.18789,2.18789,0,0,1,1.58252-.4873,2.26873,2.26873,0,0,1,1.63867.48339,2.35763,2.35763,0,0,1,.52881,1.60938c.01025.28418.01758.625.02246,1.01953q.00805.59327-.01465.98242a3.39364,3.39364,0,0,1-.41992,1.65039,4.1573,4.1573,0,0,1-1.11035,1.13184l-.74219.51758a1.95946,1.95946,0,0,0-.63769,1.02441,5.12522,5.12522,0,0,0-.19483,1.43555v1.22265h3.06006V105.5Z" style="fill:#fff"/></g></g><g id="_20" data-name="20" style="isolation:isolate"><g style="isolation:isolate"><path d="M55.73242,105.5c-.00488-.22461-.00976-.41016-.01465-.55469-.00537-.14551-.00879-.28613-.01172-.42383-.00244-.13769-.00244-.30371,0-.499.00293-.19531.00635-.45508.01172-.78027a5.88065,5.88065,0,0,1,.22852-1.67578,3.30163,3.30163,0,0,1,.58105-1.11426,4.33846,4.33846,0,0,1,.84766-.7793l.69775-.51074a1.7327,1.7327,0,0,0,.60352-.80176,3.77024,3.77024,0,0,0,.16113-.87793q.05274-1.08691,0-2.1748a1.10321,1.10321,0,0,0-.27-.71973,1.03849,1.03849,0,0,0-.75732-.23242.96579.96579,0,0,0-.72022.23242,1.04806,1.04806,0,0,0-.23974.71973q-.01539.5918-.01123,1.19629.00366.60351.02636,1.19629H55.7251q-.02271-.58595-.03369-1.16993c-.00782-.39062-.00391-.7373.01123-1.043a2.31444,2.31444,0,0,1,.53222-1.6123,2.18791,2.18791,0,0,1,1.58252-.4873,2.26873,2.26873,0,0,1,1.63867.48339,2.35763,2.35763,0,0,1,.52881,1.60938c.01026.28418.01758.625.02246,1.01953q.00807.59327-.01464.98242a3.39364,3.39364,0,0,1-.41993,1.65039,4.157,4.157,0,0,1-1.11035,1.13184l-.74219.51758a1.95946,1.95946,0,0,0-.63769,1.02441,5.12558,5.12558,0,0,0-.19482,1.43555v1.22265h3.06V105.5Z" style="fill:#fff"/><path d="M62.7749,105.6123a2.14086,2.14086,0,0,1-1.564-.54,2.08835,2.08835,0,0,1-.5586-1.54493q-.03-1.94238-.02978-4.02734,0-2.08447.02978-4.02734a2.08835,2.08835,0,0,1,.5586-1.54493,2.14086,2.14086,0,0,1,1.564-.54,2.11673,2.11673,0,0,1,1.55274.54,2.14566,2.14566,0,0,1,.56982,1.54493q.03735,1.9497.0376,4.03515,0,2.08447-.0376,4.01953a2.14566,2.14566,0,0,1-.56982,1.54493A2.11673,2.11673,0,0,1,62.7749,105.6123Zm0-.9746a.85229.85229,0,0,0,.96729-.92286q.05273-2.272.05273-4.45507,0-2.18262-.05273-3.97461a.968.968,0,0,0-1.93457,0q-.04542,2.21923-.04541,4.40234,0,2.18262.04541,4.02734A.848.848,0,0,0,62.7749,104.6377Z" style="fill:#fff"/></g></g><g id="_18" data-name="18" style="isolation:isolate"><g style="isolation:isolate"><path d="M42.48,105.5V94.707h-.54L41.895,94.25l.81738-.75h.92237v12Z" style="fill:#fff"/><path d="M46.58252,105.6123a2.16346,2.16346,0,0,1-1.5752-.49121,2.38584,2.38584,0,0,1-.54736-1.624q-.02271-.47167-.019-1.05664.00366-.58594.03369-1.43262a2.39988,2.39988,0,0,1,.27393-1.03125,1.3896,1.3896,0,0,1,.686-.5664v-.23243a1.28551,1.28551,0,0,1-.60352-.46191,1.78358,1.78358,0,0,1-.28857-.8584q-.0454-.65186-.05664-1.25976-.011-.60792.01123-1.10254a2.39185,2.39185,0,0,1,.52881-1.61621,2.69895,2.69895,0,0,1,3.105,0,2.41435,2.41435,0,0,1,.53662,1.61621q.022.49512.00732,1.10254-.01537.60791-.06,1.25976a1.77435,1.77435,0,0,1-.28858.85547,1.257,1.257,0,0,1-.59619.44922v.24805a1.54558,1.54558,0,0,1,.66357.57714,2.24735,2.24735,0,0,1,.28858,1.02051q.03735.84669.0376,1.43262,0,.58447-.02246,1.05664a2.3617,2.3617,0,0,1-.54,1.624A2.16294,2.16294,0,0,1,46.58252,105.6123Zm0-6.8623q.95215,0,.96-1.0498.00732-.61524.01465-1.16993.00732-.55516-.01465-1.16992a1.16277,1.16277,0,0,0-.23633-.76172.93828.93828,0,0,0-.72363-.24316q-.94555,0-.96777,1.00488-.03,1.169,0,2.33985Q45.63745,98.75049,46.58252,98.75Zm0,5.8877a.96008.96008,0,0,0,.731-.24415,1.08194,1.08194,0,0,0,.229-.76074q.03735-1.36523,0-2.73047a1.2192,1.2192,0,0,0-.24414-.79492.9154.9154,0,0,0-.71582-.25488q-.94555,0-.96777,1.0498-.03,1.36524,0,2.73047Q45.63745,104.63769,46.58252,104.6377Z" style="fill:#fff"/></g></g><g id="_16" data-name="16" style="isolation:isolate"><g style="isolation:isolate"><path d="M27.47607,105.5V94.707h-.54l-.04493-.457.81739-.75h.92236v12Z" style="fill:#fff"/><path d="M31.59326,105.6123a2.16892,2.16892,0,0,1-1.58594-.4873,2.27787,2.27787,0,0,1-.499-1.6123q-.03-2.11524-.03369-4.15137t.03369-3.86621a2.23893,2.23893,0,0,1,.55859-1.58985,2.09444,2.09444,0,0,1,1.51172-.50293,1.91532,1.91532,0,0,1,2.13721,2.09278v.57031q0,.34423-.00391.69727c-.00244.23535-.00634.42968-.01123.585H32.561q.022-.49512.02246-.97168,0-.47609-.02246-1.06836a1.06753,1.06753,0,0,0-.24415-.70508.96254.96254,0,0,0-.72363-.23242.83726.83726,0,0,0-.92969.9375q-.04541,1.68017-.04541,3.60742h.2627a1.17559,1.17559,0,0,1,.50244-.46484,1.66579,1.66579,0,0,1,.79492-.1875,1.47908,1.47908,0,0,1,1.22657.44238,2.48275,2.48275,0,0,1,.37109,1.46289q.02271.91405.02246,1.71,0,.79395-.02246,1.63477a2.35036,2.35036,0,0,1-.55127,1.6123A2.27621,2.27621,0,0,1,31.59326,105.6123Zm.01514-.96777a.8816.8816,0,0,0,1.01269-.95215q.022-.95214.02246-1.792,0-.84083-.02246-1.71-.02269-.94629-.90039-.94531a1.24446,1.24446,0,0,0-.77978.23633.851.851,0,0,0-.32276.68652q.00807.80859.01514,1.6875.00732.87744.03027,1.83691A.85034.85034,0,0,0,31.6084,104.64453Z" style="fill:#fff"/></g></g><g id="_14" data-name="14" style="isolation:isolate"><g style="isolation:isolate"><path d="M12.34521,105.5V94.707h-.54l-.04493-.457.81739-.75H13.5v12Z" style="fill:#fff"/><path d="M16.77734,105.5v-3.59277H14.03271v-.94434L16.19238,93.5h1.67285v7.37988h1.08741v1.02735H17.86523V105.5Zm-1.61963-4.62012h1.61963l.13526-3.17968.12744-3.165h-.29981l-.75781,3.165Z" style="fill:#fff"/></g></g></g></g><g id="Lower_Temp_Thermometer" data-name="Lower Temp Thermometer"><rect id="Thermometer-back-2" data-name="Thermometer-back" x="5.5" y="40.5" width="151" height="28" style="fill:#333"/></g></g><g style="isolation:isolate"><path d="M44.31738,138.46094h3.96875l-.13281,1.10644H42.87549l1.23877-10.03125h1.30908Z" style="fill:blue"/><path d="M51.84912,139.665a2.76563,2.76563,0,0,1-1.064-.19922,2.33673,2.33673,0,0,1-.833-.57715,2.66576,2.66576,0,0,1-.5459-.92383,3.67136,3.67136,0,0,1-.19629-1.24609,5.024,5.024,0,0,1,.28027-1.6875,4.56935,4.56935,0,0,1,.76661-1.38574,3.64507,3.64507,0,0,1,1.148-.93848,3.06485,3.06485,0,0,1,1.43164-.34277,2.76551,2.76551,0,0,1,1.064.19922,2.35165,2.35165,0,0,1,.833.57812,2.66291,2.66291,0,0,1,.5459.92774,3.68852,3.68852,0,0,1,.1958,1.24218,4.99851,4.99851,0,0,1-.27979,1.67969,4.59011,4.59011,0,0,1-.7666,1.38574,3.65664,3.65664,0,0,1-1.15137.94239A3.05158,3.05158,0,0,1,51.84912,139.665Zm.11231-.97266a1.6429,1.6429,0,0,0,.93066-.28027,2.44417,2.44417,0,0,0,.71387-.74512,3.83758,3.83758,0,0,0,.45508-1.07422,4.96506,4.96506,0,0,0,.16113-1.27441,2.38533,2.38533,0,0,0-.38477-1.47656,1.32219,1.32219,0,0,0-1.11328-.49707,1.6511,1.6511,0,0,0-.93457.27636,2.44136,2.44136,0,0,0-.71045.74219,3.82752,3.82752,0,0,0-.45508,1.07422,4.96292,4.96292,0,0,0-.16064,1.27344,2.41392,2.41392,0,0,0,.38135,1.48047A1.3171,1.3171,0,0,0,51.96143,138.69238Z" style="fill:blue"/><path d="M58.88379,139.665a2.76571,2.76571,0,0,1-1.064-.19922,2.33669,2.33669,0,0,1-.833-.57715,2.66576,2.66576,0,0,1-.5459-.92383,3.67136,3.67136,0,0,1-.19629-1.24609,5.024,5.024,0,0,1,.28027-1.6875,4.56954,4.56954,0,0,1,.7666-1.38574,3.64529,3.64529,0,0,1,1.148-.93848,3.06491,3.06491,0,0,1,1.43164-.34277,2.76553,2.76553,0,0,1,1.064.19922,2.35165,2.35165,0,0,1,.833.57812,2.66274,2.66274,0,0,1,.54589.92774,3.68826,3.68826,0,0,1,.19581,1.24218,4.99876,4.99876,0,0,1-.27979,1.67969,4.59011,4.59011,0,0,1-.7666,1.38574,3.65664,3.65664,0,0,1-1.15137.94239A3.05158,3.05158,0,0,1,58.88379,139.665Zm.1123-.97266a1.64291,1.64291,0,0,0,.93067-.28027,2.44414,2.44414,0,0,0,.71386-.74512,3.83729,3.83729,0,0,0,.45508-1.07422,4.96506,4.96506,0,0,0,.16114-1.27441,2.38533,2.38533,0,0,0-.38477-1.47656,1.32221,1.32221,0,0,0-1.11328-.49707,1.65108,1.65108,0,0,0-.93457.27636,2.44136,2.44136,0,0,0-.71045.74219,3.82723,3.82723,0,0,0-.45508,1.07422,4.96292,4.96292,0,0,0-.16064,1.27344,2.414,2.414,0,0,0,.38134,1.48047A1.31712,1.31712,0,0,0,58.99609,138.69238Z" style="fill:blue"/><path d="M65.93262,129.25684l-.74219,6.06836h.21728a.60386.60386,0,0,0,.231-.03809.63637.63637,0,0,0,.20264-.1582l2.34521-2.40039a1.44505,1.44505,0,0,1,.2168-.18262.49135.49135,0,0,1,.27344-.06934h1.09863l-2.73682,2.7793c-.06982.07422-.13916.14258-.20654.206a1.24476,1.24476,0,0,1-.2207.16407.85633.85633,0,0,1,.189.19629c.05176.07519.103.15625.1543.24511l2.12793,3.5h-1.0708a.48549.48549,0,0,1-.24854-.05566.5182.5182,0,0,1-.17187-.18945L65.78564,136.417a.56154.56154,0,0,0-.17871-.18847.60269.60269,0,0,0-.2832-.04883h-.23828l-.41309,3.38769H63.44043l1.26709-10.31054Z" style="fill:blue"/><path d="M74.92725,133.5127l-.707,5.82324-.32226,1.44922a.60287.60287,0,0,1-.644.52539h-.48975l.94482-7.77735-.6997-.09082a.47873.47873,0,0,1-.189-.09765.232.232,0,0,1-.07031-.18262l.05615-.5459h1.01514l.084-.68555a3.49922,3.49922,0,0,1,.3042-1.082,2.67769,2.67769,0,0,1,.57422-.79785,2.35688,2.35688,0,0,1,.791-.49316,2.67341,2.67341,0,0,1,.95556-.168,2.1044,2.1044,0,0,1,.791.14355l-.11914.64063a.13322.13322,0,0,1-.09473.12207.716.716,0,0,1-.20654.02441h-.29395a1.72259,1.72259,0,0,0-.55615.08692,1.16371,1.16371,0,0,0-.45166.2832,1.5692,1.5692,0,0,0-.3291.50977,2.864,2.864,0,0,0-.189.76757l-.084.64844h1.771l-.11914.89649Z" style="fill:blue"/><path d="M79.56787,139.665a2.76563,2.76563,0,0,1-1.064-.19922,2.33673,2.33673,0,0,1-.833-.57715,2.66576,2.66576,0,0,1-.5459-.92383,3.67136,3.67136,0,0,1-.19629-1.24609,5.024,5.024,0,0,1,.28027-1.6875,4.56935,4.56935,0,0,1,.76661-1.38574,3.64507,3.64507,0,0,1,1.148-.93848,3.06485,3.06485,0,0,1,1.43164-.34277,2.76548,2.76548,0,0,1,1.064.19922,2.35165,2.35165,0,0,1,.833.57812,2.66291,2.66291,0,0,1,.5459.92774,3.68852,3.68852,0,0,1,.1958,1.24218,4.99851,4.99851,0,0,1-.27979,1.67969,4.59011,4.59011,0,0,1-.7666,1.38574,3.65664,3.65664,0,0,1-1.15137.94239A3.05158,3.05158,0,0,1,79.56787,139.665Zm.11231-.97266a1.6429,1.6429,0,0,0,.93066-.28027,2.44417,2.44417,0,0,0,.71387-.74512,3.83758,3.83758,0,0,0,.45508-1.07422,4.96506,4.96506,0,0,0,.16113-1.27441,2.38533,2.38533,0,0,0-.38477-1.47656,1.32219,1.32219,0,0,0-1.11328-.49707,1.6511,1.6511,0,0,0-.93457.27636,2.44136,2.44136,0,0,0-.71045.74219,3.82752,3.82752,0,0,0-.45508,1.07422,4.96292,4.96292,0,0,0-.16064,1.27344,2.41392,2.41392,0,0,0,.38135,1.48047A1.3171,1.3171,0,0,0,79.68018,138.69238Z" style="fill:blue"/><path d="M84.07568,139.56738l.854-7.09765h.623a.4766.4766,0,0,1,.30811.09082.34118.34118,0,0,1,.11182.28027c0,.01856-.00147.04492-.00342.08008l-.00733.1084c-.00244.03711-.00439.07031-.00683.09765-.00244.02832-.00342.04493-.00342.04981l-.09814,1.28808a4.89429,4.89429,0,0,1,1.01855-1.51269,1.7165,1.7165,0,0,1,1.18652-.53223,1.48191,1.48191,0,0,1,.58789.126l-.22363,1.19726a1.71371,1.71371,0,0,0-.63721-.13281,1.53856,1.53856,0,0,0-1.21093.66113,5.48892,5.48892,0,0,0-.88916,2.00586l-.39209,3.29Z" style="fill:blue"/><path d="M92.30762,138.23047c0-.02832.00146-.06445.0039-.1084.002-.04492.00684-.1084.01368-.19238.00732-.084.01757-.19434.03173-.3291.01368-.13575.03467-.3125.063-.53223l.44092-3.54883h-.791a.21827.21827,0,0,1-.15039-.05273.207.207,0,0,1-.05957-.16407c0-.01464.00244-.042.00684-.084q.00732-.063.01758-.14355c.00683-.05372.01416-.1084.021-.165q.01026-.0835.01758-.16114l1.0918-.14648.52539-2.19141a.3302.3302,0,0,1,.105-.1709.27587.27587,0,0,1,.189-.0664h.65772l-.30811,2.44238H96.0459l-.105.90332H94.07178l-.42676,3.48633c-.02344.19141-.041.34473-.05273.46191-.01172.11621-.021.21-.02784.2793-.00732.07031-.01172.11914-.01416.14746s-.00341.04883-.00341.0625a.74009.74009,0,0,0,.16455.5293.59469.59469,0,0,0,.45117.1709.91011.91011,0,0,0,.32226-.05274,1.32888,1.32888,0,0,0,.2417-.11523c.06739-.042.12451-.08008.17139-.11524a.21672.21672,0,0,1,.126-.05273.1279.1279,0,0,1,.0874.02832.35136.35136,0,0,1,.0664.09082l.25928.59473a2.52257,2.52257,0,0,1-.77392.47265,2.3922,2.3922,0,0,1-.87842.17188,1.49537,1.49537,0,0,1-1.0708-.3711A1.45575,1.45575,0,0,1,92.30762,138.23047Z" style="fill:blue"/><path d="M96.543,139.56738l1.2456-10.31054h1.2461l-.58106,4.78711a4.19569,4.19569,0,0,1,1.22852-1.249,2.57441,2.57441,0,0,1,1.38281-.42383,1.508,1.508,0,0,1,1.23877.53223,2.39441,2.39441,0,0,1,.43408,1.54688c0,.09375-.00244.19042-.00683.291-.00489.09961-.01416.2041-.02832.31152l-.53174,4.51465h-1.2461l.53174-4.51465q.01392-.14062.02491-.26953c.00683-.08691.01025-.16894.01025-.249a1.40264,1.40264,0,0,0-.21338-.85352.79644.79644,0,0,0-.67578-.28027,1.40974,1.40974,0,0,0-.64746.17188,2.62609,2.62609,0,0,0-.64746.48632,4.09806,4.09806,0,0,0-.58789.75977,5.609,5.609,0,0,0-.47608.99023l-.45508,3.75879Z" style="fill:blue"/><path d="M109.57666,133.99512a1.91622,1.91622,0,0,1-.189.85058,1.77133,1.77133,0,0,1-.69288.7002,5.17265,5.17265,0,0,1-1.38623.543,15.30066,15.30066,0,0,1-2.26806.37011c-.0044.05176-.00684.10157-.00684.15137v.15039a2.187,2.187,0,0,0,.40967,1.43067,1.5127,1.5127,0,0,0,1.23535.49414,2.32064,2.32064,0,0,0,.59863-.07032,2.59583,2.59583,0,0,0,.46875-.17089,2.12158,2.12158,0,0,0,.36426-.22461c.105-.08106.20166-.15625.29053-.22364.08838-.06738.16992-.125.24463-.17187a.41872.41872,0,0,1,.22412-.07031.30634.30634,0,0,1,.231.11914l.3081.38574a6.46542,6.46542,0,0,1-.69629.63281,4.04788,4.04788,0,0,1-.69678.4375,3.10318,3.10318,0,0,1-.7456.25586,4.11534,4.11534,0,0,1-.83643.08008,2.78606,2.78606,0,0,1-1.09179-.20313,2.24916,2.24916,0,0,1-.81934-.57714,2.59314,2.59314,0,0,1-.51758-.90625,3.653,3.653,0,0,1-.18213-1.19043,5.233,5.233,0,0,1,.11524-1.08789,5.10552,5.10552,0,0,1,.33594-1.03321,4.68361,4.68361,0,0,1,.53906-.90918,3.62926,3.62926,0,0,1,.728-.72461,3.40066,3.40066,0,0,1,.90332-.47949,3.13452,3.13452,0,0,1,1.06054-.17578,2.54462,2.54462,0,0,1,.93067.1543,1.97033,1.97033,0,0,1,.644.39257,1.5601,1.5601,0,0,1,.37451.52442A1.39679,1.39679,0,0,1,109.57666,133.99512Zm-2.14209-.72071a1.82239,1.82239,0,0,0-.812.18164,2.16385,2.16385,0,0,0-.65772.501,3.04454,3.04454,0,0,0-.49023.749,4.47046,4.47046,0,0,0-.31494.92774,13.6303,13.6303,0,0,0,1.729-.30469,4.30481,4.30481,0,0,0,1.001-.37109,1.081,1.081,0,0,0,.46191-.43067,1.09628,1.09628,0,0,0,.11231-.48339.69074.69074,0,0,0-.05616-.26172.69783.69783,0,0,0-.17871-.249.97279.97279,0,0,0-.31836-.18554A1.36654,1.36654,0,0,0,107.43457,133.27441Z" style="fill:blue"/><path d="M113.063,139.56738l.84717-7.09765h.62207a.37159.37159,0,0,1,.42089.41992l-.10546,1.37207a4.39,4.39,0,0,1,1.27734-1.41406,2.61238,2.61238,0,0,1,1.47363-.47657,1.50286,1.50286,0,0,1,1.22852.53223,2.39353,2.39353,0,0,1,.4375,1.55371c0,.09375-.002.18945-.00684.28711-.00488.09863-.01367.20117-.02832.30859l-.53222,4.51465h-1.24512l.53125-4.51465c.00976-.09375.01758-.18359.02441-.26953.00781-.08691.01074-.16894.01074-.249a1.38535,1.38535,0,0,0-.21386-.85059.7909.7909,0,0,0-.668-.27636,1.45536,1.45536,0,0,0-.68262.18261,2.64628,2.64628,0,0,0-.668.51368,4.15382,4.15382,0,0,0-.59863.80566,5.65787,5.65787,0,0,0-.47266,1.05273l-.40625,3.60547Z" style="fill:blue"/><path d="M122.40723,132.47656l-.53223,4.50782c-.00879.09374-.0166.18164-.02441.26562-.00684.084-.00977.166-.00977.24512a1.4027,1.4027,0,0,0,.21289.85449.79655.79655,0,0,0,.67578.2793,1.4311,1.4311,0,0,0,.66113-.17481,2.602,2.602,0,0,0,.65821-.49707,4.08287,4.08287,0,0,0,.59179-.77637,5.80844,5.80844,0,0,0,.47559-1.01562l.44141-3.68848h1.23926l-.8545,7.09082h-.61621a.514.514,0,0,1-.33594-.09765.36938.36938,0,0,1-.11914-.30176l.00782-.126c.0039-.0791.00976-.165.0166-.25879.00781-.09277.01465-.17968.02148-.25879s.01074-.12109.01074-.126l.04883-.56739a4.43557,4.43557,0,0,1-1.26758,1.36915,2.56731,2.56731,0,0,1-1.4414.46484,1.49229,1.49229,0,0,1-1.22852-.53906,2.39848,2.39848,0,0,1-.4375-1.54688c0-.09277.002-.18848.00684-.28711.00488-.09765.01367-.20019.02832-.30761l.53125-4.50782Z" style="fill:blue"/><path d="M127.77637,139.56738l.85449-7.09765h.623a.37129.37129,0,0,1,.41992.41992l-.09863,1.2666a4.38863,4.38863,0,0,1,1.14843-1.333,2.20008,2.20008,0,0,1,1.31543-.45215,1.20613,1.20613,0,0,1,1.06446.49414,2.45562,2.45562,0,0,1,.34277,1.41016,4.15655,4.15655,0,0,1,1.19336-1.43848,2.37768,2.37768,0,0,1,1.38965-.46582,1.38025,1.38025,0,0,1,1.17285.51172,2.39116,2.39116,0,0,1,.38867,1.46973c0,.10742-.00488.21973-.01465.33594-.00879.11621-.02051.23828-.03418.36425l-.53222,4.51465h-1.22559l.53223-4.51465a5.10149,5.10149,0,0,0,.042-.623,1.35954,1.35954,0,0,0-.17481-.77344.66842.66842,0,0,0-.58789-.249,1.34725,1.34725,0,0,0-.60254.15039,2.18671,2.18671,0,0,0-.581.4414,3.498,3.498,0,0,0-.52149.72071,5.924,5.924,0,0,0-.42968.99023l-.45508,3.85742h-1.23242l.53906-4.51465q.0205-.189.03516-.35742c.00879-.1123.01367-.21679.01367-.31445a1.30926,1.30926,0,0,0-.16406-.73535.65324.65324,0,0,0-.57813-.23828,1.356,1.356,0,0,0-.64746.168,2.14346,2.14346,0,0,0-.58789.48632,4.00543,4.00543,0,0,0-.51465.77735,7.63586,7.63586,0,0,0-.43359,1.03222l-.44141,3.69629Z" style="fill:blue"/><path d="M138.80176,139.56738l1.24512-10.31054h1.22558l-.61621,5.01171a5.98574,5.98574,0,0,1,.57422-.78027,3.89454,3.89454,0,0,1,.64355-.59863,2.96286,2.96286,0,0,1,.7002-.38184,2.10121,2.10121,0,0,1,.74219-.13672,1.67291,1.67291,0,0,1,1.40722.65821,3.12487,3.12487,0,0,1,.50391,1.9248,5.66256,5.66256,0,0,1-.11914,1.14844,5.80751,5.80751,0,0,1-.33985,1.0957,5.37188,5.37188,0,0,1-.53222.97266,4.18413,4.18413,0,0,1-.69238.78418,3.08694,3.08694,0,0,1-.83008.52148,2.38541,2.38541,0,0,1-.9375.18848,2.19721,2.19721,0,0,1-1.02539-.23731,2.01111,2.01111,0,0,1-.75293-.67968l-.09082.45507a.66879.66879,0,0,1-.14356.27344.40242.40242,0,0,1-.29785.09082Zm4.0459-6.19531a1.2973,1.2973,0,0,0-.67969.21,2.8507,2.8507,0,0,0-.66113.58106,5.16527,5.16527,0,0,0-.59864.88183,6.88556,6.88556,0,0,0-.4834,1.12012l-.22363,1.8418a1.49865,1.49865,0,0,0,.63672.53515,1.93267,1.93267,0,0,0,.75684.15723,1.55832,1.55832,0,0,0,.68554-.1543,2.16446,2.16446,0,0,0,.58789-.416,3.03042,3.03042,0,0,0,.47657-.61621,4.318,4.318,0,0,0,.35351-.75586,5.247,5.247,0,0,0,.21973-.833,4.78317,4.78317,0,0,0,.07715-.85059,2.22193,2.22193,0,0,0-.30078-1.2666A.9714.9714,0,0,0,142.84766,133.37207Z" style="fill:blue"/><path d="M151.76562,133.99512a1.91639,1.91639,0,0,1-.18945.85058,1.76966,1.76966,0,0,1-.69238.7002,5.1769,5.1769,0,0,1-1.38672.543,15.3037,15.3037,0,0,1-2.26758.37011c-.00488.05176-.00683.10157-.00683.15137v.15039a2.18981,2.18981,0,0,0,.40918,1.43067,1.51334,1.51334,0,0,0,1.23535.49414,2.31531,2.31531,0,0,0,.59863-.07032,2.59611,2.59611,0,0,0,.46875-.17089,2.10279,2.10279,0,0,0,.36426-.22461c.10547-.08106.20215-.15625.291-.22364.08789-.06738.16993-.125.24414-.17187a.42034.42034,0,0,1,.22461-.07031.30463.30463,0,0,1,.23047.11914l.3086.38574a6.56061,6.56061,0,0,1-.69629.63281,4.05223,4.05223,0,0,1-.69727.4375,3.09963,3.09963,0,0,1-.74512.25586,4.12008,4.12008,0,0,1-.83691.08008,2.78958,2.78958,0,0,1-1.0918-.20313,2.25334,2.25334,0,0,1-.81933-.57714,2.59283,2.59283,0,0,1-.51758-.90625,3.66641,3.66641,0,0,1-.18164-1.19043,5.2,5.2,0,0,1,.11523-1.08789,5.07572,5.07572,0,0,1,.33594-1.03321,4.65916,4.65916,0,0,1,.53906-.90918,3.62722,3.62722,0,0,1,.72754-.72461,3.40849,3.40849,0,0,1,.90332-.47949,3.13867,3.13867,0,0,1,1.06055-.17578,2.54094,2.54094,0,0,1,.93066.1543,1.96756,1.96756,0,0,1,.64453.39257,1.55188,1.55188,0,0,1,.374.52442A1.3892,1.3892,0,0,1,151.76562,133.99512Zm-2.14257-.72071a1.81883,1.81883,0,0,0-.81153.18164,2.1717,2.1717,0,0,0-.6582.501,3.05828,3.05828,0,0,0-.49023.749,4.46913,4.46913,0,0,0-.31446.92774,13.60462,13.60462,0,0,0,1.72852-.30469,4.29584,4.29584,0,0,0,1.001-.37109,1.0782,1.0782,0,0,0,.46192-.43067,1.08973,1.08973,0,0,0,.1123-.48339.6897.6897,0,0,0-.05566-.26172.7103.7103,0,0,0-.17871-.249.978.978,0,0,0-.31836-.18554A1.3695,1.3695,0,0,0,149.62305,133.27441Z" style="fill:blue"/><path d="M152.5498,139.56738l.85352-7.09765h.623a.478.478,0,0,1,.30859.09082.34094.34094,0,0,1,.11133.28027c0,.01856-.001.04492-.00293.08008-.00293.03515-.00488.07129-.00781.1084-.002.03711-.00391.07031-.00684.09765l-.00293.04981-.09863,1.28808a4.91139,4.91139,0,0,1,1.01855-1.51269,1.71828,1.71828,0,0,1,1.18653-.53223,1.4784,1.4784,0,0,1,.58789.126l-.22364,1.19726a1.71125,1.71125,0,0,0-.63671-.13281,1.53786,1.53786,0,0,0-1.21094.66113,5.48038,5.48038,0,0,0-.88965,2.00586l-.3916,3.29Z" style="fill:blue"/><path d="M160.78125,138.23047c0-.02832.001-.06445.00391-.1084.002-.04492.00683-.1084.01367-.19238s.01758-.19434.03125-.3291c.01367-.13575.03515-.3125.06347-.53223l.44043-3.54883h-.791a.21911.21911,0,0,1-.15039-.05273.207.207,0,0,1-.05957-.16407c0-.01464.00293-.042.00683-.084q.00733-.063.01758-.14355c.00684-.05372.01465-.1084.02149-.165q.01025-.0835.01757-.16114l1.0918-.14648.52539-2.19141a.32957.32957,0,0,1,.10449-.1709.27714.27714,0,0,1,.18946-.0664h.65722l-.30761,2.44238h1.8623l-.10547.90332h-1.86914l-.42676,3.48633c-.02343.19141-.041.34473-.05273.46191-.01172.11621-.02051.21-.02734.2793-.00782.07031-.01172.11914-.01465.14746-.002.02832-.00293.04883-.00293.0625a.74233.74233,0,0,0,.16406.5293.59472.59472,0,0,0,.45117.1709.9064.9064,0,0,0,.32227-.05274,1.3344,1.3344,0,0,0,.24219-.11523c.06738-.042.124-.08008.17089-.11524a.21919.21919,0,0,1,.126-.05273.1301.1301,0,0,1,.08789.02832.36312.36312,0,0,1,.06641.09082l.25879.59473a2.51456,2.51456,0,0,1-.77344.47265,2.39656,2.39656,0,0,1-.87891.17188,1.49412,1.49412,0,0,1-1.07031-.3711A1.452,1.452,0,0,1,160.78125,138.23047Z" style="fill:blue"/><path d="M165.0166,139.56738l1.24512-10.31054h1.24609l-.58105,4.78711a4.20144,4.20144,0,0,1,1.22851-1.249,2.57447,2.57447,0,0,1,1.38282-.42383,1.509,1.509,0,0,1,1.23925.53223,2.39724,2.39724,0,0,1,.4336,1.54688c0,.09375-.002.19042-.00684.291-.00488.09961-.01367.2041-.02832.31152l-.53125,4.51465h-1.24609l.53125-4.51465c.00976-.09375.01758-.18359.02539-.26953.00683-.08691.00976-.16894.00976-.249a1.40623,1.40623,0,0,0-.21289-.85352.797.797,0,0,0-.67578-.28027,1.40974,1.40974,0,0,0-.64746.17188,2.62609,2.62609,0,0,0-.64746.48632,4.07728,4.07728,0,0,0-.58789.75977,5.60921,5.60921,0,0,0-.47656.99023l-.45508,3.75879Z" style="fill:blue"/><path d="M177.59473,139.56738h-.64356a.3808.3808,0,0,1-.333-.126.531.531,0,0,1-.08691-.30762l.126-1.4209a5.88532,5.88532,0,0,1-.543.80566,3.73809,3.73809,0,0,1-.61524.61524,2.74148,2.74148,0,0,1-.68261.39258,2.02652,2.02652,0,0,1-.74219.13867,1.743,1.743,0,0,1-.7627-.16406,1.57926,1.57926,0,0,1-.585-.4834,2.33233,2.33233,0,0,1-.374-.78418,3.87971,3.87971,0,0,1-.13379-1.06738,4.78962,4.78962,0,0,1,.1582-1.22852,4.97913,4.97913,0,0,1,1.14453-2.10645,4.67154,4.67154,0,0,1,.90625-.7705,4.30375,4.30375,0,0,1,1.07422-.50391,4.02863,4.02863,0,0,1,1.2041-.17871,5.17108,5.17108,0,0,1,.88575.07519,3.61959,3.61959,0,0,1,.85058.25782Zm-3.05176-.93847a1.22875,1.22875,0,0,0,.67187-.21,2.55658,2.55658,0,0,0,.623-.582,5.06585,5.06585,0,0,0,.54981-.88574,8.05032,8.05032,0,0,0,.45117-1.126l.30078-2.39844a.48514.48514,0,0,0-.30371-.124h-.29785a2.459,2.459,0,0,0-.8125.13575,2.90262,2.90262,0,0,0-.73438.38086,3.27912,3.27912,0,0,0-.62305.583,3.79411,3.79411,0,0,0-.47949.74317,4.191,4.191,0,0,0-.31152.8623,3.90569,3.90569,0,0,0-.11231.93848Q173.46484,138.6294,174.543,138.62891Z" style="fill:blue"/><path d="M180.06543,138.23047c0-.02832.002-.06445.00391-.1084.00195-.04492.00683-.1084.01367-.19238.00781-.084.01758-.19434.03222-.3291.01368-.13575.03418-.3125.0625-.53223l.44141-3.54883h-.791a.21744.21744,0,0,1-.15039-.05273.20708.20708,0,0,1-.05957-.16407.84147.84147,0,0,1,.00684-.084q.00732-.063.01758-.14355c.00683-.05372.01367-.1084.02051-.165q.01024-.0835.01757-.16114l1.0918-.14648.52539-2.19141a.331.331,0,0,1,.10547-.1709.27462.27462,0,0,1,.18848-.0664h.6582l-.30859,2.44238h1.8623l-.10449.90332h-1.86914l-.42676,3.48633c-.02344.19141-.041.34473-.05273.46191-.01172.11621-.02149.21-.02832.2793-.00684.07031-.01172.11914-.01368.14746-.00293.02832-.0039.04883-.0039.0625a.738.738,0,0,0,.165.5293.59469.59469,0,0,0,.45117.1709.91393.91393,0,0,0,.32226-.05274,1.32348,1.32348,0,0,0,.24122-.11523c.06738-.042.125-.08008.17187-.11524a.21431.21431,0,0,1,.126-.05273.12571.12571,0,0,1,.08691.02832.34056.34056,0,0,1,.06641.09082l.25976.59473a2.53078,2.53078,0,0,1-.77441.47265,2.38776,2.38776,0,0,1-.87793.17188,1.49661,1.49661,0,0,1-1.07129-.3711A1.45964,1.45964,0,0,1,180.06543,138.23047Z" style="fill:blue"/><path d="M46.54346,156.36719l1.2456-10.31055h1.2461l-.58106,4.78711a4.19553,4.19553,0,0,1,1.22852-1.249,2.57432,2.57432,0,0,1,1.38281-.42383,1.508,1.508,0,0,1,1.23877.53222,2.39442,2.39442,0,0,1,.43408,1.54688c0,.09375-.00244.19043-.00683.291-.00489.0996-.01416.2041-.02833.31152l-.53173,4.51465h-1.2461l.53174-4.51465q.01392-.14062.0249-.26953c.00684-.08692.01026-.16895.01026-.249a1.40259,1.40259,0,0,0-.21338-.85351.79644.79644,0,0,0-.67578-.28027,1.40972,1.40972,0,0,0-.64746.17187,2.6264,2.6264,0,0,0-.64746.48633,4.09792,4.09792,0,0,0-.5879.75976,5.60879,5.60879,0,0,0-.47607.99024l-.45508,3.75879Z" style="fill:blue"/><path d="M59.12207,156.36719h-.644a.37973.37973,0,0,1-.33252-.126.5275.5275,0,0,1-.0874-.30762l.126-1.42089a5.92862,5.92862,0,0,1-.54248.80566,3.75923,3.75923,0,0,1-.61572.61523,2.72379,2.72379,0,0,1-.68262.39258,2.02624,2.02624,0,0,1-.74219.13867,1.74432,1.74432,0,0,1-.76269-.16406,1.583,1.583,0,0,1-.585-.4834,2.35079,2.35079,0,0,1-.374-.78418,3.881,3.881,0,0,1-.1333-1.06738,4.811,4.811,0,0,1,.15772-1.22852,4.993,4.993,0,0,1,1.14453-2.10644,4.68549,4.68549,0,0,1,.90625-.77051,4.3149,4.3149,0,0,1,1.07471-.5039,4.02357,4.02357,0,0,1,1.2041-.17872,5.16854,5.16854,0,0,1,.88525.0752,3.62025,3.62025,0,0,1,.85059.25781Zm-3.05176-.93848a1.22989,1.22989,0,0,0,.67188-.21,2.56512,2.56512,0,0,0,.623-.582,5.06537,5.06537,0,0,0,.54932-.88574,7.99167,7.99167,0,0,0,.45166-1.126l.30078-2.39844a.48528.48528,0,0,0-.3042-.124h-.29785a2.45836,2.45836,0,0,0-.812.13574,2.89738,2.89738,0,0,0-.73486.38086,3.27858,3.27858,0,0,0-.623.583,3.81636,3.81636,0,0,0-.47949.74316,4.21938,4.21938,0,0,0-.31153.86231,3.93055,3.93055,0,0,0-.11181.93847Q54.99219,155.4292,56.07031,155.42871Z" style="fill:blue"/><path d="M65.541,150.41016a.45387.45387,0,0,1-.11182.12207.23729.23729,0,0,1-.14014.03906.38781.38781,0,0,1-.21338-.07715c-.07714-.05078-.17041-.1084-.28027-.17187a2.32442,2.32442,0,0,0-.40234-.17481,2.01456,2.01456,0,0,0-1.14795.00684,1.42992,1.42992,0,0,0-.44824.24218,1.07354,1.07354,0,0,0-.29053.36036.98188.98188,0,0,0-.10156.4375.66874.66874,0,0,0,.21728.52441,1.99563,1.99563,0,0,0,.5459.33984c.21924.09571.45605.18848.71045.27637a3.65241,3.65241,0,0,1,.71045.33594,1.815,1.815,0,0,1,.5459.51855,1.41037,1.41037,0,0,1,.21728.81836,2.35962,2.35962,0,0,1-.19238.93848,2.33455,2.33455,0,0,1-.55322.78711,2.73117,2.73117,0,0,1-.86817.543,3.04965,3.04965,0,0,1-1.13721.20312,2.82664,2.82664,0,0,1-1.20068-.24219,2.48792,2.48792,0,0,1-.85059-.61914l.30811-.47558a.43511.43511,0,0,1,.1333-.14063.36145.36145,0,0,1,.1958-.04883.34628.34628,0,0,1,.22412.09766c.07422.06543.168.13965.27979.2207a1.71941,1.71941,0,0,0,1.07129.31836,1.72478,1.72478,0,0,0,.61914-.10449,1.45373,1.45373,0,0,0,.46924-.28027,1.18014,1.18014,0,0,0,.29394-.40918,1.25187,1.25187,0,0,0,.10156-.501.75224.75224,0,0,0-.21728-.5664,1.76955,1.76955,0,0,0-.5459-.35059q-.32886-.13916-.707-.2627a3.56618,3.56618,0,0,1-.707-.31445,1.71343,1.71343,0,0,1-.5459-.501,1.39288,1.39288,0,0,1-.2168-.81835,2.18389,2.18389,0,0,1,.17823-.86524,2.23812,2.23812,0,0,1,.51464-.73828,2.54245,2.54245,0,0,1,.81543-.51465,2.89037,2.89037,0,0,1,1.08155-.19238,2.76823,2.76823,0,0,1,1.12353.21387,2.60185,2.60185,0,0,1,.83643.57714Z" style="fill:blue"/><path d="M74.33936,156.36719h-.644a.37976.37976,0,0,1-.33252-.126.52757.52757,0,0,1-.0874-.30762l.126-1.42089a5.92955,5.92955,0,0,1-.54248.80566,3.75928,3.75928,0,0,1-.61573.61523,2.72356,2.72356,0,0,1-.68261.39258,2.02624,2.02624,0,0,1-.74219.13867,1.74437,1.74437,0,0,1-.7627-.16406,1.583,1.583,0,0,1-.585-.4834,2.351,2.351,0,0,1-.374-.78418,3.88061,3.88061,0,0,1-.1333-1.06738,4.811,4.811,0,0,1,.15771-1.22852,4.99325,4.99325,0,0,1,1.14453-2.10644,4.68555,4.68555,0,0,1,.90626-.77051,4.31483,4.31483,0,0,1,1.0747-.5039,4.02362,4.02362,0,0,1,1.2041-.17872,5.16857,5.16857,0,0,1,.88526.0752,3.62,3.62,0,0,1,.85058.25781Zm-3.05176-.93848a1.22988,1.22988,0,0,0,.67187-.21,2.56533,2.56533,0,0,0,.62305-.582,5.066,5.066,0,0,0,.54932-.88574,7.99167,7.99167,0,0,0,.45166-1.126l.30078-2.39844a.48528.48528,0,0,0-.3042-.124h-.29785a2.45838,2.45838,0,0,0-.812.13574,2.89754,2.89754,0,0,0-.73486.38086,3.27918,3.27918,0,0,0-.623.583,3.81636,3.81636,0,0,0-.47949.74316,4.22,4.22,0,0,0-.31152.86231,3.93,3.93,0,0,0-.11182.93847Q70.20947,155.4292,71.2876,155.42871Z" style="fill:blue"/><path d="M84.11084,151.24316a2.443,2.443,0,0,1-.0874.62989,3.03423,3.03423,0,0,1-.19971.51855,4.13433,4.13433,0,0,1-.25879.44727q-.13989.21093-.25879.41992a2.9,2.9,0,0,0-.1997.43066,1.39189,1.39189,0,0,0-.08057.4795,1.00891,1.00891,0,0,0,.14355.53222q.14356.23877.31495.49024a4.28913,4.28913,0,0,1,.31494.54882,1.60947,1.60947,0,0,1,.14355.70411,2.01774,2.01774,0,0,1-.231.9414,2.46894,2.46894,0,0,1-.6582.78711,3.2467,3.2467,0,0,1-1.03906.543,4.438,4.438,0,0,1-1.37549.19922,4.54643,4.54643,0,0,1-1.10986-.126,2.82122,2.82122,0,0,1-.854-.35644,1.70823,1.70823,0,0,1-.5459-.55664,1.38467,1.38467,0,0,1-.19238-.71778,1.58715,1.58715,0,0,1,.28711-.95215,2.25743,2.25743,0,0,1,.75586-.6582,3.72187,3.72187,0,0,1,1.06738-.37793,6.26647,6.26647,0,0,1,1.22168-.11914c.168,0,.33448.00781.50049.02149q.24829.0205.49317.05566a1.582,1.582,0,0,1-.10108-.27637,1.18871,1.18871,0,0,1-.03857-.31152,1.61648,1.61648,0,0,1,.0664-.44824,2.70015,2.70015,0,0,1,.22071-.51758,2.13287,2.13287,0,0,1-.59522.28027,2.62264,2.62264,0,0,1-.749.09766,2.133,2.133,0,0,1-.75928-.13281,1.7724,1.7724,0,0,1-.61963-.39258,1.809,1.809,0,0,1-.41992-.64746,2.43955,2.43955,0,0,1-.1543-.90625,2.76065,2.76065,0,0,1,.18555-.99024,2.63912,2.63912,0,0,1,.54248-.86816,2.66668,2.66668,0,0,1,.88232-.61231,2.97485,2.97485,0,0,1,1.21094-.23144,2.42471,2.42471,0,0,1,1.33692.36426h1.9248l-.05566.41308a.49143.49143,0,0,1-.08057.2168.28043.28043,0,0,1-.19971.11914l-.88183.1543a2.41644,2.41644,0,0,1,.09765.38086A2.44872,2.44872,0,0,1,84.11084,151.24316ZM82.80908,156.542a1.54976,1.54976,0,0,0-.03515-.33887,1.96355,1.96355,0,0,0-.09082-.29785c-.252-.042-.48926-.07226-.71045-.09082-.22217-.01855-.43067-.02832-.627-.02832a4.2856,4.2856,0,0,0-.99365.10157,2.38318,2.38318,0,0,0-.69336.26953,1.18366,1.18366,0,0,0-.40576.38867.87162.87162,0,0,0-.13281.458.857.857,0,0,0,.42334.7705,2.26709,2.26709,0,0,0,1.20068.26563,2.76788,2.76788,0,0,0,.84326-.12207,2.17924,2.17924,0,0,0,.65088-.32617,1.49583,1.49583,0,0,0,.41992-.47559A1.16821,1.16821,0,0,0,82.80908,156.542Zm-1.40039-3.374a1.31566,1.31566,0,0,0,.665-.16406,1.57451,1.57451,0,0,0,.48682-.43457,2.01606,2.01606,0,0,0,.3042-.60547,2.25182,2.25182,0,0,0,.105-.67871,1.2698,1.2698,0,0,0-.31153-.93067,1.151,1.151,0,0,0-.85742-.31543,1.38724,1.38724,0,0,0-.665.1543,1.46815,1.46815,0,0,0-.48291.41309,1.88408,1.88408,0,0,0-.29736.58789,2.30937,2.30937,0,0,0-.10156.68554,1.36223,1.36223,0,0,0,.30468.959A1.099,1.099,0,0,0,81.40869,153.168Z" style="fill:blue"/><path d="M85.39893,156.36719l.854-7.09766h.623a.47657.47657,0,0,1,.3081.09082.34121.34121,0,0,1,.11182.28027c0,.01856-.00147.04493-.00342.08008l-.00732.1084c-.00245.03711-.0044.07031-.00684.09766-.00244.02832-.00342.04492-.00342.0498l-.09814,1.28809a4.89446,4.89446,0,0,1,1.01855-1.5127,1.71649,1.71649,0,0,1,1.18653-.53222,1.48207,1.48207,0,0,1,.58789.126l-.22364,1.19727a1.71366,1.71366,0,0,0-.6372-.13281,1.53857,1.53857,0,0,0-1.21094.66113,5.48884,5.48884,0,0,0-.88916,2.00586l-.39209,3.29Z" style="fill:blue"/><path d="M95.70312,150.79492a1.9161,1.9161,0,0,1-.189.85059,1.77122,1.77122,0,0,1-.69287.70019,5.17245,5.17245,0,0,1-1.38623.543,15.30043,15.30043,0,0,1-2.26807.37012c-.00439.05176-.00683.10156-.00683.15137v.15039a2.187,2.187,0,0,0,.40966,1.43066,1.51271,1.51271,0,0,0,1.23536.49414,2.3211,2.3211,0,0,0,.59863-.07031,2.59714,2.59714,0,0,0,.46875-.1709,2.122,2.122,0,0,0,.36426-.22461c.105-.08105.20166-.15625.29052-.22363.08838-.06738.16993-.125.24463-.17188a.41886.41886,0,0,1,.22412-.07031.30631.30631,0,0,1,.231.11914l.30811.38574a6.46852,6.46852,0,0,1-.69629.63282,4.04925,4.04925,0,0,1-.69678.4375,3.10413,3.10413,0,0,1-.74561.25586,4.11519,4.11519,0,0,1-.83642.08007,2.78633,2.78633,0,0,1-1.0918-.20312,2.24935,2.24935,0,0,1-.81933-.57715,2.59274,2.59274,0,0,1-.51758-.90625,3.653,3.653,0,0,1-.18213-1.19043A5.23314,5.23314,0,0,1,90.06445,152.5a5.10626,5.10626,0,0,1,.33594-1.0332,4.683,4.683,0,0,1,.53906-.90918,3.629,3.629,0,0,1,.728-.72461,3.40068,3.40068,0,0,1,.90332-.47949,3.13458,3.13458,0,0,1,1.06055-.17579,2.5446,2.5446,0,0,1,.93066.1543,1.97024,1.97024,0,0,1,.644.39258,1.56024,1.56024,0,0,1,.37452.52441A1.39684,1.39684,0,0,1,95.70312,150.79492Zm-2.14208-.7207a1.82243,1.82243,0,0,0-.812.18164,2.16381,2.16381,0,0,0-.65771.501,3.04419,3.04419,0,0,0-.49024.749,4.47037,4.47037,0,0,0-.31494.92773,13.63109,13.63109,0,0,0,1.729-.30468,4.30465,4.30465,0,0,0,1.001-.3711,1.08107,1.08107,0,0,0,.46192-.43066,1.09645,1.09645,0,0,0,.1123-.4834.69076.69076,0,0,0-.05615-.26172.698.698,0,0,0-.17871-.249.973.973,0,0,0-.31836-.18555A1.3666,1.3666,0,0,0,93.561,150.07422Z" style="fill:blue"/><path d="M102.15723,150.79492a1.9161,1.9161,0,0,1-.189.85059,1.77115,1.77115,0,0,1-.69287.70019,5.17245,5.17245,0,0,1-1.38623.543,15.30043,15.30043,0,0,1-2.26807.37012c-.00439.05176-.00683.10156-.00683.15137v.15039a2.187,2.187,0,0,0,.40967,1.43066,1.5127,1.5127,0,0,0,1.23535.49414,2.3211,2.3211,0,0,0,.59863-.07031,2.59714,2.59714,0,0,0,.46875-.1709,2.12158,2.12158,0,0,0,.36426-.22461c.105-.08105.20166-.15625.29053-.22363.08837-.06738.16992-.125.24462-.17188a.41887.41887,0,0,1,.22413-.07031.30631.30631,0,0,1,.231.11914l.30811.38574a6.46852,6.46852,0,0,1-.69629.63282,4.04887,4.04887,0,0,1-.69678.4375,3.1042,3.1042,0,0,1-.7456.25586,4.11536,4.11536,0,0,1-.83643.08007,2.78633,2.78633,0,0,1-1.0918-.20312,2.24935,2.24935,0,0,1-.81933-.57715,2.59274,2.59274,0,0,1-.51758-.90625,3.653,3.653,0,0,1-.18213-1.19043A5.23314,5.23314,0,0,1,96.51855,152.5a5.10626,5.10626,0,0,1,.33594-1.0332,4.683,4.683,0,0,1,.53906-.90918,3.629,3.629,0,0,1,.728-.72461,3.40068,3.40068,0,0,1,.90332-.47949,3.13462,3.13462,0,0,1,1.06055-.17579,2.54456,2.54456,0,0,1,.93066.1543,1.97039,1.97039,0,0,1,.64405.39258,1.56034,1.56034,0,0,1,.37451.52441A1.39686,1.39686,0,0,1,102.15723,150.79492Zm-2.14209-.7207a1.82243,1.82243,0,0,0-.812.18164,2.16381,2.16381,0,0,0-.65771.501,3.04388,3.04388,0,0,0-.49023.749,4.4698,4.4698,0,0,0-.31495.92773,13.63076,13.63076,0,0,0,1.729-.30468,4.30448,4.30448,0,0,0,1.001-.3711,1.08107,1.08107,0,0,0,.46192-.43066,1.09632,1.09632,0,0,0,.1123-.4834.69076.69076,0,0,0-.05615-.26172.698.698,0,0,0-.17871-.249.973.973,0,0,0-.31836-.18555A1.3666,1.3666,0,0,0,100.01514,150.07422Z" style="fill:blue"/><path d="M102.94141,156.36719l.84716-7.09766h.62256a.37125.37125,0,0,1,.42041.41992l-.105,1.37207a4.39,4.39,0,0,1,1.27735-1.41406,2.61244,2.61244,0,0,1,1.47363-.47656,1.5035,1.5035,0,0,1,1.22851.53222,2.39635,2.39635,0,0,1,.4375,1.55372q0,.14063-.00732.28711c-.00439.09863-.01367.20117-.02783.30859l-.53223,4.51465h-1.2456l.53173-4.51465q.01392-.14062.02442-.26953c.00732-.08692.01074-.16895.01074-.249a1.38532,1.38532,0,0,0-.21387-.85058.79248.79248,0,0,0-.66845-.27637,1.452,1.452,0,0,0-.68213.18262,2.64794,2.64794,0,0,0-.66846.51367,4.17386,4.17386,0,0,0-.59863.80566,5.658,5.658,0,0,0-.47266,1.05274l-.40576,3.60547Z" style="fill:blue"/><path d="M113.063,156.36719l1.2456-10.31055h1.22461l-.61523,5.01172a5.981,5.981,0,0,1,.57324-.78027,3.8998,3.8998,0,0,1,.64453-.59864,2.92568,2.92568,0,0,1,.7002-.38183,2.09592,2.09592,0,0,1,.74121-.13672,1.67169,1.67169,0,0,1,1.40723.6582,3.125,3.125,0,0,1,.5039,1.92481,5.59353,5.59353,0,0,1-.11914,1.14843,5.87783,5.87783,0,0,1-.33887,1.09571,5.43348,5.43348,0,0,1-.53222.97265,4.18837,4.18837,0,0,1-.69336.78418,3.06731,3.06731,0,0,1-.8291.52149,2.39033,2.39033,0,0,1-.93848.18847,2.19733,2.19733,0,0,1-1.02539-.2373,2.001,2.001,0,0,1-.75195-.67969l-.09082.45508a.69322.69322,0,0,1-.14356.27344.40323.40323,0,0,1-.29785.09082Zm4.04541-6.19531a1.29672,1.29672,0,0,0-.67871.21,2.87387,2.87387,0,0,0-.66211.581,5.22,5.22,0,0,0-.59766.88184,6.801,6.801,0,0,0-.4834,1.12011l-.22363,1.8418a1.493,1.493,0,0,0,.63672.53516,1.92439,1.92439,0,0,0,.75586.15722,1.56262,1.56262,0,0,0,.68652-.15429,2.17936,2.17936,0,0,0,.58789-.416,3.02637,3.02637,0,0,0,.47559-.61621,4.31729,4.31729,0,0,0,.35351-.75586,5.249,5.249,0,0,0,.22071-.833,4.87623,4.87623,0,0,0,.07715-.85058,2.21367,2.21367,0,0,0-.30176-1.2666A.9691.9691,0,0,0,117.1084,150.17188Z" style="fill:blue"/><path d="M125.57129,156.36719h-.64356a.38075.38075,0,0,1-.333-.126.53088.53088,0,0,1-.08692-.30762l.126-1.42089a5.88564,5.88564,0,0,1-.543.80566,3.73836,3.73836,0,0,1-.61523.61523,2.74109,2.74109,0,0,1-.68262.39258,2.02624,2.02624,0,0,1-.74219.13867,1.74279,1.74279,0,0,1-.76269-.16406,1.57911,1.57911,0,0,1-.585-.4834,2.33223,2.33223,0,0,1-.374-.78418,3.87966,3.87966,0,0,1-.13379-1.06738,4.78974,4.78974,0,0,1,.15821-1.22852,4.97872,4.97872,0,0,1,1.14453-2.10644,4.67065,4.67065,0,0,1,.90625-.77051,4.30339,4.30339,0,0,1,1.07422-.5039,4.02827,4.02827,0,0,1,1.2041-.17872,5.17,5.17,0,0,1,.88574.0752,3.62025,3.62025,0,0,1,.85059.25781Zm-3.05176-.93848a1.22868,1.22868,0,0,0,.67188-.21,2.55667,2.55667,0,0,0,.623-.582,5.0666,5.0666,0,0,0,.54981-.88574,8.051,8.051,0,0,0,.45117-1.126l.30078-2.39844a.48512.48512,0,0,0-.30371-.124h-.29785a2.45912,2.45912,0,0,0-.8125.13574,2.90279,2.90279,0,0,0-.73438.38086,3.27883,3.27883,0,0,0-.623.583,3.79378,3.79378,0,0,0-.4795.74316,4.19113,4.19113,0,0,0-.31152.86231,3.906,3.906,0,0,0-.1123.93847Q121.44141,155.4292,122.51953,155.42871Z" style="fill:blue"/><path d="M131.97266,155.75781a3.2196,3.2196,0,0,1-.6543.42383,2.64317,2.64317,0,0,1-.68262.2207,4.326,4.326,0,0,1-.75976.0625,2.64335,2.64335,0,0,1-1.08789-.21,2.14543,2.14543,0,0,1-.791-.59082,2.61768,2.61768,0,0,1-.4834-.917,4.01491,4.01491,0,0,1-.16406-1.17969,5.0875,5.0875,0,0,1,.26953-1.65234,4.64205,4.64205,0,0,1,.752-1.39942,3.76582,3.76582,0,0,1,1.14844-.97363,3.00124,3.00124,0,0,1,1.46289-.36426,2.5144,2.5144,0,0,1,1.17578.249,2.4659,2.4659,0,0,1,.833.72461l-.3916.46875a.33855.33855,0,0,1-.10547.09082.269.269,0,0,1-.332-.05274,2.78693,2.78693,0,0,0-.24512-.19531,1.69973,1.69973,0,0,0-.37793-.19629,1.64386,1.64386,0,0,0-.585-.08789,1.72878,1.72878,0,0,0-.91308.2627,2.54446,2.54446,0,0,0-.75293.71777,3.67044,3.67044,0,0,0-.50684,1.07812,4.65169,4.65169,0,0,0-.18555,1.33692,2.939,2.939,0,0,0,.09766.78711,1.686,1.686,0,0,0,.29394.60254,1.35863,1.35863,0,0,0,.4795.38476,1.51259,1.51259,0,0,0,.66211.13672,2.15591,2.15591,0,0,0,.55957-.0664,2.21909,2.21909,0,0,0,.43359-.165,1.99162,1.99162,0,0,0,.333-.21289c.0957-.07715.18164-.14844.25879-.21387s.14746-.12012.21-.16406a.32909.32909,0,0,1,.19238-.06739.299.299,0,0,1,.23828.11914l.30762.37793A6.39439,6.39439,0,0,1,131.97266,155.75781Z" style="fill:blue"/><path d="M136.0293,146.05664l-.74219,6.06836h.21777a.60123.60123,0,0,0,.23047-.03809.64253.64253,0,0,0,.20313-.1582l2.34472-2.40039a1.49558,1.49558,0,0,1,.2168-.18262.49135.49135,0,0,1,.27344-.06933h1.09863l-2.73633,2.77929c-.07031.07422-.13965.14258-.207.20606a1.21011,1.21011,0,0,1-.2207.16406.8588.8588,0,0,1,.18945.19629c.05176.0752.10254.15625.1543.24512l2.12793,3.5H138.1084a.48355.48355,0,0,1-.248-.05567.51378.51378,0,0,1-.17187-.18945l-1.80567-2.90527a.56635.56635,0,0,0-.17871-.18848.6055.6055,0,0,0-.2832-.04883h-.23828l-.41309,3.3877h-1.23242l1.26758-10.31055Z" style="fill:blue"/><path d="M145.416,151.24316a2.42311,2.42311,0,0,1-.08692.62989,2.99569,2.99569,0,0,1-.20019.51855,4.05631,4.05631,0,0,1-.25879.44727c-.09278.14062-.17969.28027-.25879.41992a2.94732,2.94732,0,0,0-.19922.43066,1.39224,1.39224,0,0,0-.08106.4795,1.00891,1.00891,0,0,0,.14356.53222q.14355.23877.31543.49024a4.285,4.285,0,0,1,.31445.54882,1.60933,1.60933,0,0,1,.14356.70411,2.02318,2.02318,0,0,1-.23047.9414,2.482,2.482,0,0,1-.6582.78711,3.25183,3.25183,0,0,1-1.03907.543,4.44123,4.44123,0,0,1-1.376.19922,4.53963,4.53963,0,0,1-1.10938-.126,2.82436,2.82436,0,0,1-.85449-.35644,1.71312,1.71312,0,0,1-.5459-.55664,1.38925,1.38925,0,0,1-.19238-.71778,1.58715,1.58715,0,0,1,.28711-.95215,2.26686,2.26686,0,0,1,.75586-.6582,3.72706,3.72706,0,0,1,1.06738-.37793,6.27375,6.27375,0,0,1,1.22168-.11914c.168,0,.335.00781.501.02149.165.01367.33007.03222.49316.05566a1.58439,1.58439,0,0,1-.10156-.27637,1.21018,1.21018,0,0,1-.03809-.31152,1.59846,1.59846,0,0,1,.06641-.44824,2.6385,2.6385,0,0,1,.2207-.51758,2.12932,2.12932,0,0,1-.5957.28027,2.61789,2.61789,0,0,1-.749.09766,2.13034,2.13034,0,0,1-.75879-.13281,1.77436,1.77436,0,0,1-.62011-.39258,1.80871,1.80871,0,0,1-.41992-.64746,2.44953,2.44953,0,0,1-.1543-.90625,2.77127,2.77127,0,0,1,.18555-.99024,2.64027,2.64027,0,0,1,.543-.86816,2.66963,2.66963,0,0,1,.88184-.61231,2.97649,2.97649,0,0,1,1.21094-.23144,2.42354,2.42354,0,0,1,1.33691.36426H146.501l-.05567.41308a.49062.49062,0,0,1-.08008.2168.28241.28241,0,0,1-.20019.11914l-.88184.1543a2.36306,2.36306,0,0,1,.09766.38086A2.44872,2.44872,0,0,1,145.416,151.24316Zm-1.30176,5.29883a1.54914,1.54914,0,0,0-.03516-.33887,1.96242,1.96242,0,0,0-.09082-.29785c-.25195-.042-.48926-.07226-.71-.09082-.22266-.01855-.43066-.02832-.627-.02832a4.28992,4.28992,0,0,0-.99414.10157,2.38853,2.38853,0,0,0-.69336.26953,1.17753,1.17753,0,0,0-.40528.38867.87171.87171,0,0,0-.13281.458.85655.85655,0,0,0,.42285.7705,2.26787,2.26787,0,0,0,1.20117.26563,2.76249,2.76249,0,0,0,.84278-.12207,2.17644,2.17644,0,0,0,.65137-.32617,1.502,1.502,0,0,0,.41992-.47559A1.16778,1.16778,0,0,0,144.11426,156.542Zm-1.40039-3.374a1.31437,1.31437,0,0,0,.665-.16406,1.58183,1.58183,0,0,0,.4873-.43457,2.00342,2.00342,0,0,0,.30371-.60547,2.25244,2.25244,0,0,0,.10547-.67871,1.2698,1.2698,0,0,0-.31152-.93067,1.15178,1.15178,0,0,0-.85742-.31543,1.38718,1.38718,0,0,0-.665.1543,1.46976,1.46976,0,0,0-.4834.41309,1.89359,1.89359,0,0,0-.29688.58789,2.2936,2.2936,0,0,0-.10156.68554,1.36219,1.36219,0,0,0,.30469.959A1.09787,1.09787,0,0,0,142.71387,153.168Z" style="fill:blue"/><path d="M146.7041,156.36719l.85449-7.09766h.623a.47517.47517,0,0,1,.30762.09082.34145.34145,0,0,1,.1123.28027c0,.01856-.00195.04493-.0039.08008s-.00489.07129-.00684.1084c-.00293.03711-.00488.07031-.00684.09766-.00293.02832-.0039.04492-.0039.0498l-.09766,1.28809a4.87766,4.87766,0,0,1,1.01856-1.5127,1.71469,1.71469,0,0,1,1.18652-.53222,1.48563,1.48563,0,0,1,.58789.126l-.22363,1.19727a1.71612,1.71612,0,0,0-.6377-.13281,1.53928,1.53928,0,0,0-1.21094.66113,5.49742,5.49742,0,0,0-.88867,2.00586l-.39257,3.29Z" style="fill:blue"/><path d="M153.86523,156.46484a2.76474,2.76474,0,0,1-1.06347-.19922,2.33241,2.33241,0,0,1-.833-.57714,2.65833,2.65833,0,0,1-.5459-.92383,3.67146,3.67146,0,0,1-.19629-1.2461,5.02382,5.02382,0,0,1,.28028-1.6875,4.55881,4.55881,0,0,1,.7666-1.38574,3.64894,3.64894,0,0,1,1.14746-.93847,3.0662,3.0662,0,0,1,1.43164-.34278,2.7664,2.7664,0,0,1,1.06445.19922,2.35591,2.35591,0,0,1,.833.57813,2.67038,2.67038,0,0,1,.5459.92773,3.70108,3.70108,0,0,1,.19531,1.24219,4.99836,4.99836,0,0,1-.2793,1.67969,4.6008,4.6008,0,0,1-.7666,1.38574,3.65654,3.65654,0,0,1-1.15136.94238A3.05346,3.05346,0,0,1,153.86523,156.46484Zm.11231-.97265a1.64054,1.64054,0,0,0,.93066-.28028,2.43841,2.43841,0,0,0,.71387-.74511,3.83754,3.83754,0,0,0,.45508-1.07422,4.96514,4.96514,0,0,0,.16113-1.27442,2.3822,2.3822,0,0,0-.38476-1.47656,1.32221,1.32221,0,0,0-1.11329-.49707,1.65337,1.65337,0,0,0-.93457.27637,2.44,2.44,0,0,0-.71.74219,3.81321,3.81321,0,0,0-.45508,1.07421,4.96307,4.96307,0,0,0-.16113,1.27344,2.41055,2.41055,0,0,0,.38184,1.48047A1.31553,1.31553,0,0,0,153.97754,155.49219Z" style="fill:blue"/><path d="M160.35449,149.27637l-.53222,4.50781c-.00977.09375-.01758.18164-.02442.26562s-.01074.166-.01074.24512a1.40231,1.40231,0,0,0,.21387.85449.79331.79331,0,0,0,.6748.2793,1.435,1.435,0,0,0,.66211-.1748,2.61946,2.61946,0,0,0,.6582-.49707,4.08042,4.08042,0,0,0,.59082-.77637,5.8112,5.8112,0,0,0,.47657-1.01563l.44043-3.68847h1.23925l-.85351,7.09082h-.61621a.514.514,0,0,1-.33594-.09766.3664.3664,0,0,1-.11914-.30176c0-.0039.00195-.04589.00684-.126.00488-.0791.01074-.165.01757-.25879.00684-.09278.01368-.17969.02051-.25879.00781-.0791.01074-.1211.01074-.126l.04883-.56738A4.43334,4.43334,0,0,1,161.65625,156a2.57025,2.57025,0,0,1-1.44238.46484,1.49354,1.49354,0,0,1-1.22852-.53906,2.40422,2.40422,0,0,1-.4375-1.54687c0-.09278.00293-.18848.00781-.28711.00391-.09766.01368-.2002.02735-.30762l.53222-4.50781Z" style="fill:blue"/><path d="M165.72363,156.36719l.84668-7.09766h.62305a.3709.3709,0,0,1,.41992.41992l-.10449,1.37207a4.39014,4.39014,0,0,1,1.27734-1.41406,2.61249,2.61249,0,0,1,1.47364-.47656,1.50416,1.50416,0,0,1,1.22851.53222,2.39921,2.39921,0,0,1,.4375,1.55372c0,.09375-.00293.18945-.00781.28711-.00391.09863-.01367.20117-.02735.30859l-.53222,4.51465h-1.2461l.53223-4.51465c.00879-.09375.01758-.18359.02442-.26953.00683-.08692.01074-.16895.01074-.249a1.38532,1.38532,0,0,0-.21387-.85058.7941.7941,0,0,0-.66894-.27637,1.44874,1.44874,0,0,0-.68165.18262,2.64984,2.64984,0,0,0-.66894.51367,4.19411,4.19411,0,0,0-.59863.80566,5.658,5.658,0,0,0-.47266,1.05274l-.40527,3.60547Z" style="fill:blue"/><path d="M177.88184,156.36719a.37756.37756,0,0,1-.332-.126.52424.52424,0,0,1-.08789-.30762l.13282-1.47754a5.70081,5.70081,0,0,1-.58106.82618,4.22506,4.22506,0,0,1-.66113.63379,2.90237,2.90237,0,0,1-.7207.40527,2.10864,2.10864,0,0,1-.75977.14355,1.66328,1.66328,0,0,1-1.41016-.66113,3.14272,3.14272,0,0,1-.501-1.92187,5.66021,5.66021,0,0,1,.11914-1.14746,5.91425,5.91425,0,0,1,.33984-1.09961,5.43123,5.43123,0,0,1,.53125-.97657,4.13484,4.13484,0,0,1,.69336-.78027,3.14187,3.14187,0,0,1,.8291-.51758,2.39124,2.39124,0,0,1,.93848-.18945,2.20218,2.20218,0,0,1,.94824.20312,2.03254,2.03254,0,0,1,.73145.58106l.4834-3.89844h1.2246l-1.27343,10.31055Zm-2.541-.90332a1.29084,1.29084,0,0,0,.67578-.20606,2.837,2.837,0,0,0,.6582-.57422,4.95785,4.95785,0,0,0,.59473-.875,6.96361,6.96361,0,0,0,.47949-1.10937l.23145-1.876a1.491,1.491,0,0,0-.6377-.52539,1.93945,1.93945,0,0,0-.749-.15332,1.63217,1.63217,0,0,0-.99707.3291,2.85984,2.85984,0,0,0-.75586.84961,4.4268,4.4268,0,0,0-.47949,1.166,4.9927,4.9927,0,0,0-.168,1.2666,2.23032,2.23032,0,0,0,.30078,1.27051A.96835.96835,0,0,0,175.34082,155.46387Z" style="fill:blue"/></g></svg>