<svg id="water_temp_-_1B" data-name="water temp - 1B" xmlns="http://www.w3.org/2000/svg" viewBox="0 0 226 200"><rect id="back" width="226" height="200" style="fill:none"/><g id="bucket_with_therms" data-name="bucket with therms"><g id="bucket"><path d="M71.90319,155.04146c-22.8833,0-41.5-7.126-41.5-15.88574L26.559,64.56636a4.23943,4.23943,0,0,0-1.4331-2.64209l-.34473-.38867a4.97156,4.97156,0,0,0-.439-.43164c-.3291-.29639-.43505-.4126-.43408-.65869l.00049-.25781c0-.95264,0-.95264,1.24121-1.63965l.58984-.32666-.47656-.47364a1.81137,1.81137,0,0,1-.605-1.33544,2.09111,2.09111,0,0,1,1.148-1.88624l.22754-.15917L25.932,52.39791l-.22559-.1377c-1.10986-.67578-1.27392-1.31348-1.2876-1.84814a2.05224,2.05224,0,0,1,1.08594-1.84082l.22119-.15918L25.40612,42.165c.04053-2.17383,17.749-5.20655,46.49707-5.20655s46.457,3.03272,46.49707,5.20655l-.20313,3.96386.21973.15918a1.93888,1.93888,0,0,1,.96973,1.63672c.01465.53418-.11524,1.17774-1.18262,1.90967l-.2041.14014-.10938,2.10888.22657.15918a1.97531,1.97531,0,0,1,1.03125,1.68311c.01464.54834-.123,1.20947-1.251,1.95849l-.21.13916-.10449,2.02.41992.18018c1.89551.8125,1.89551.8125,1.89551,1.94531,0,.65918,0,.65918-.35645.94727-.11914.09668-.26269.21289-.43359.36816a4.50136,4.50136,0,0,0-1.86133,3.09277l-3.84326,74.55323C113.40319,147.61861,94.01061,155.04146,71.90319,155.04146Z" style="fill:#fff"/><path d="M71.90319,37.4587a297.00751,297.00751,0,0,1,32.10553,1.54651c12.04793,1.37894,13.70042,2.97722,13.88912,3.228l-.18552,3.59917-.02793.54165.4388.31882a1.47456,1.47456,0,0,1,.76375,1.24568c.00747.282.02136.80688-.96624,1.48383l-.40784.27957-.02545.49379-.08173,1.58582-.02851.55306.45366.3176a1.51063,1.51063,0,0,1,.81782,1.28633c.00755.29089.02164.83231-1.02776,1.52912l-.41957.2786-.02593.503-.07323,1.42035-.03588.69581.64033.2747.1.04291a11.49272,11.49272,0,0,1,1.55818.72978,4.25283,4.25283,0,0,1,.03346.75611,3.49028,3.49028,0,0,1-.01823.43508c-.042.038-.09336.07576-.15257.12361-.12566.10157-.27583.22332-.45527.3861a4.98146,4.98146,0,0,0-2.02476,3.43776l-3.843,74.5528-.00133.0257v.02577c0,7.27713-16.83809,15.38553-41,15.38553-22.22429,0-41-7.04572-41-15.38553V139.13l-.00132-.0257L27.05836,64.54072a4.68173,4.68173,0,0,0-1.55962-2.94959c-.11029-.12309-.22455-.25057-.34135-.38441a5.46371,5.46371,0,0,0-.48051-.47418,1.3171,1.3171,0,0,1-.26871-.28506l.0004-.25949a6.14021,6.14021,0,0,1,.01733-.62681,8.82492,8.82492,0,0,1,.97338-.5799L26.5791,58.328l-.96787-.93916a1.30356,1.30356,0,0,1-.45351-.98958c-.01076-.41366.095-.87727.9346-1.46371l.45462-.31753-.02857-.5538-.07367-1.4284-.02722-.52758-.45112-.27487c-1.02671-.62559-1.04049-1.15164-1.04789-1.43426-.01055-.40238.08861-.85313.87872-1.42184l.44257-.31854-.02808-.54455-.30316-5.88089c.18871-.25079,1.84121-1.84909,13.88914-3.228A297.00764,297.00764,0,0,1,71.90319,37.4587m0-1c-25.92114,0-46.93865,2.54949-46.99725,5.697h-.00275l.00055.01049-.00055.00263.00091.00433.30891,5.99244a2.56215,2.56215,0,0,0-1.2942,2.25964,2.619,2.619,0,0,0,1.52722,2.262l.07367,1.4284a2.59994,2.59994,0,0,0-1.36164,2.30957,2.30274,2.30274,0,0,0,.75679,1.68121c-1.60248.88738-1.50018.82818-1.50666,2.33673-.003.68738.54377.90307.99573,1.421.87078.99775,1.60022,1.64972,1.65576,2.728l3.84351,74.56355c0,9.07,18.804,16.38553,42,16.38553s42-7.77895,42-16.38553l3.843-74.55281a3.99913,3.99913,0,0,1,1.698-2.74858c.78273-.71009.95416-.55225.95416-1.68543,0-1.4845-.00371-1.46387-2.29747-2.44782l.07323-1.42035a2.65543,2.65543,0,0,0,1.47424-2.38818,2.48634,2.48634,0,0,0-1.24394-2.07953l.08172-1.58581a2.61557,2.61557,0,0,0,1.40052-2.33515,2.45377,2.45377,0,0,0-1.17561-2.0282l.19128-3.71069.00092-.00433-.00054-.00263.00054-.01049h-.00274c-.0586-3.14753-21.07611-5.697-46.99726-5.697Z" style="fill:#333"/><path d="M71.90319,67.76805c-21.292,0-42.373-3.08642-47.99219-7.02685l.28711-.40918c4.86231,3.40918,24.03565,6.936,47.70508,6.936,23.29443,0,42.5498-3.47168,47.707-6.82812l.27344.41894C113.92956,64.73339,92.85436,67.76805,71.90319,67.76805Z" style="fill:#333;opacity:0.35000000000000003"/><path d="M71.90319,66.27583c-21.292,0-42.37256-3.08691-47.99219-7.02734l.28711-.40918c4.86279,3.40967,24.03613,6.93652,47.70508,6.93652,22.78955,0,42.52734-3.66455,47.74512-7.06l.27343.41894C113.14294,63.54585,89.71862,66.27583,71.90319,66.27583Z" style="fill:#333;opacity:0.1"/><path d="M61.93249,61.995c-17.937,0-32.42823-1.42041-36.84034-3.75147l.2334-.44238c5.06787,2.67773,24.71924,4.17432,46.7251,3.54883,20.35449-.57471,39.02539-2.919,45.4043-5.70069l.19922.458C111.12145,58.9564,92.80016,61.264,72.06432,61.85,68.59948,61.94761,65.20836,61.995,61.93249,61.995Z" style="fill:#333;opacity:0.35000000000000003"/><path d="M62.41637,58.07857c-17.73388,0-32.16894-1.45068-36.6582-3.82275l.2334-.44239c5.21191,2.75391,24.15039,4.24512,46.05908,3.627,20.353-.57422,39.02393-2.91846,45.4043-5.70069l.19922.458C111.12,55.04732,92.7987,57.35494,72.06432,57.94039,68.77038,58.03316,65.54186,58.07857,62.41637,58.07857Z" style="fill:#333;opacity:0.1"/><path d="M62.29772,55.85072c-17.084,0-31.37744-1.30029-36.43066-3.44189l.19531-.46c5.94385,2.51905,24.90576,3.86182,46.11328,3.26075,20.89453-.59034,39.19482-2.84522,45.53809-5.61084l.19921.458c-6.3955,2.78956-24.7705,5.061-45.72363,5.65284C68.82311,55.80433,65.50963,55.85072,62.29772,55.85072Z" style="fill:#333;opacity:0.35000000000000003"/><path d="M62.29235,51.97212c-17.08008,0-31.37158-1.30029-36.42529-3.4414l.19531-.46c5.9458,2.51855,24.90771,3.85986,46.11328,3.26025,21.03906-.59375,39.33936-2.80859,45.53809-5.51172l.19921.458c-6.25146,2.72656-24.62646,4.958-45.72363,5.55371C68.82067,51.92623,65.5067,51.97212,62.29235,51.97212Z" style="fill:#333;opacity:0.1"/><path d="M115.59663,42.00831a.37674.37674,0,0,1-.02715.48711.90381.90381,0,0,1-.19547.14827,2.54807,2.54807,0,0,1-.34866.163c-.22682.0878-.45116.15447-.67626.21988-.44972.12608-.89992.23083-1.351.32829-.90211.19373-1.807.35587-2.71335.50655-1.81273.3-3.63107.54847-5.45173.77476-3.6417.449-7.29347.80013-10.95005,1.08768q-10.97371.805-21.98695.84687-11.00562-.07214-21.98248-.90924c-3.65619-.282-7.30786-.62619-10.94928-1.0705-1.82052-.22374-3.63873-.47-5.451-.76856-.90611-.14982-1.81075-.3115-2.71217-.50515-.4507-.09782-.90048-.20189-1.34921-.32931-.22448-.06476-.44835-.1343-.674-.22273a2.19561,2.19561,0,0,1-.34557-.16652.6374.6374,0,0,1-.19462-.16747.36293.36293,0,0,1-.0762-.21545.37748.37748,0,0,1,.08032-.20407,3.03516,3.03516,0,0,1,1.28615-.74151c.44106-.15871.88689-.28461,1.33422-.40023.895-.22918,1.79716-.408,2.70123-.57069,1.80887-.32058,3.6269-.56588,5.44771-.77844,3.6419-.42534,7.29668-.70164,10.95221-.93809,7.31207-.4683,14.63946-.652,21.96419-.63223,7.32473-.02333,14.65243.13,21.96754.56059,3.65779.20766,7.31351.48154,10.95732.89976,1.82145.21227,3.64042.45792,5.44894.79113.90387.169,1.80553.35751,2.69865.60344a13.52223,13.52223,0,0,1,1.32946.43355A3.38971,3.38971,0,0,1,115.59663,42.00831Zm-.38687.32114a3.03219,3.03219,0,0,0-1.0615-.64334,13.06923,13.06923,0,0,0-1.27469-.43622c-.8691-.25331-1.75879-.45347-2.65216-.63417-1.78874-.35709-3.59777-.62894-5.41058-.86744-3.6275-.47093-7.27535-.79877-10.927-1.06039-7.30661-.48968-14.63175-.70079-21.9563-.73612-7.32468.01859-14.64986.24814-21.95563.75787q-5.47841.38892-10.92629,1.08875c-1.81335.24-3.62276.51272-5.41544.859-.89544.17537-1.78807.36685-2.66383.6056-.43718.12012-.87158.25041-1.28985.40834a2.82237,2.82237,0,0,0-1.07289.60614c-.02871.03509.018-.01255.00792-.05195.0094-.03674-.02087-.07027-.00985-.061a.31109.31109,0,0,0,.06877.04835,1.79625,1.79625,0,0,0,.27449.12623c.20162.07615.41615.14044.63224.19974.43367.11735.87769.21446,1.32286.30522.89142.17991,1.792.32938,2.69435.467,1.80526.27431,3.62026.4971,5.43746.69742,3.63523.39753,7.28226.69541,10.93256.93108q10.952.69792,21.93163.63285,10.96914.0303,21.927-.698c3.64994-.23,7.29681-.52133,10.93207-.91127,1.81721-.19656,3.63229-.41528,5.43765-.68471.90235-.13528,1.803-.282,2.6944-.45871.44531-.08878.88892-.18481,1.32281-.29905.21536-.05879.43127-.1197.63276-.1942a2.09489,2.09489,0,0,0,.27527-.12189.56455.56455,0,0,0,.08115-.05334C115.18831,42.12906,115.145,42.27266,115.20976,42.32945Z" style="fill:#333;opacity:0.75"/></g><g id="bottom_thermometer" data-name="bottom thermometer"><path id="Thermometer-back" d="M34.78149,100.51165a129.84138,129.84138,0,0,0,76.795-.83405c-.2024,3.77966-.36131,6.501-.57981,10.21547a121.04228,121.04228,0,0,1-75.8858.69033C34.98174,107.00056,34.91343,104.16568,34.78149,100.51165Z" style="fill:#333;fill-rule:evenodd"/><g id="Numbers"><g id="_40" data-name="40" style="isolation:isolate"><path d="M106.92893,108.3209c.02419-.52931.03655-.794.06105-1.32344-.39163.11515-.58745.17195-.97907.28393l.01593-.34829c.35857-1.18984.53871-1.78447.892-2.97055.23849-.06792.35769-.10215.59608-.17115-.04431,1.08463-.06958,1.62783-.11983,2.71413.15526-.046.23288-.0691.38814-.11558l-.01753.377c-.15524.04662-.23286.06982-.38811.11595-.02456.5289-.037.79338-.0613,1.32221C107.16134,108.25166,107.08387,108.27483,106.92893,108.3209Zm-.49937-1.53314c.23116-.06666.34674-.10026.57788-.168.04092-.47421.06137-.71127.10166-1.18518.039-.47156.05839-.70726.09616-1.17835l-.10726.03086c-.1277.497-.192.74576-.321,1.24355C106.63833,106.03319,106.56872,106.28464,106.42956,106.78776Z" style="fill:#fff"/><path d="M108.72864,107.81274a.6025.6025,0,0,1-.54826-.02588.56441.56441,0,0,1-.17288-.50549c.01688-.47262.03515-.96637.05854-1.47659s.05041-1.00577.076-1.48194a1.068,1.068,0,0,1,.22295-.62574,1.10255,1.10255,0,0,1,.5649-.36347.60436.60436,0,0,1,.54446.02993.5721.5721,0,0,1,.17989.50241q-.015.70825-.051,1.47123-.03474.762-.08215,1.47461a1.07522,1.07522,0,0,1-.79242,1.00093Zm.01676-.3569a.47286.47286,0,0,0,.36106-.44648c.041-.55577.07025-1.10445.0945-1.63707s.03916-1.015.04531-1.44948q.00614-.33668-.33062-.23586a.46127.46127,0,0,0-.359.44409q-.052.81807-.08769,1.62045-.03677.80062-.05277,1.47215C108.411,107.44778,108.5207,107.52582,108.7454,107.45584Z" style="fill:#fff"/></g><g id="_38" data-name="38" style="isolation:isolate"><path d="M101.5033,109.84808a.68182.68182,0,0,1-.5837-.037.67118.67118,0,0,1-.16979-.55637c.0011-.12427.00447-.24406.00912-.35912s.01194-.259.02284-.43106c.16467-.03962.247-.05958.41168-.0998-.0139.336-.02082.5039-.03437.83966-.01007.24928.10564.34488.34795.28449a.45741.45741,0,0,0,.36763-.46243c.0206-.35568.04189-.7158.04453-1.06264a.4115.4115,0,0,0-.08316-.29126c-.05544-.05768-.16019-.06791-.31328-.03029-.12649.03351-.18973.05018-.31621.08335l.00212-.36237c.30513-.68358.45808-1.02559.76324-1.70923-.43087.10587-.64631.15783-1.0772.25982l.01558-.38491c.62167-.14675.93251-.22216,1.55406-.3769l-.02011.35787c-.314.69043-.47145,1.03585-.78563,1.7263a.58181.58181,0,0,1,.52.074.73757.73757,0,0,1,.1526.54782c-.00444.42087-.0225.76321-.043,1.01427a1.17781,1.17781,0,0,1-.21617.65126A1.01716,1.01716,0,0,1,101.5033,109.84808Z" style="fill:#fff"/><path d="M103.34231,109.37329a.62207.62207,0,0,1-.553-.03471.69421.69421,0,0,1-.17-.55133q-.00063-.17311.00988-.39132c.00712-.14449.01476-.328.035-.53545a1.098,1.098,0,0,1,.11406-.408.78417.78417,0,0,1,.254-.27335l.00375-.0863a.306.306,0,0,1-.20766-.11629.50839.50839,0,0,1-.08964-.29255c-.0071-.15484-.00344-.31262.00011-.46323.004-.14972.01168-.28661.02182-.41044a1.18051,1.18051,0,0,1,.21362-.64772,1.01728,1.01728,0,0,1,.56364-.32366.61267.61267,0,0,1,.54509.03762.7.7,0,0,1,.16642.5479c.00011.12112-.00528.25671-.01522.40755-.01.15184-.02151.31213-.04195.47277a.85657.85657,0,0,1-.11694.34466.70576.70576,0,0,1-.22008.22386l-.004.09125a.35958.35958,0,0,1,.22709.15081.6563.6563,0,0,1,.08659.35024c.00338.203-.004.38354-.01039.52741-.00641.1449-.0151.27638-.02509.39422a1.18149,1.18149,0,0,1-.21849.653A1.04762,1.04762,0,0,1,103.34231,109.37329Zm.11032-2.54537a.46548.46548,0,0,0,.35955-.47946c.00814-.15248.01641-.298.0243-.43534.00743-.13826.01219-.28182.01332-.43244a.34243.34243,0,0,0-.07247-.2597.26688.26688,0,0,0-.2544-.02421.45916.45916,0,0,0-.3614.46222c-.019.29056-.03144.58108-.03734.86889C103.11889,106.78577,103.22773,106.88673,103.45263,106.82792Zm-.09506,2.18438a.46645.46645,0,0,0,.26393-.16063.54294.54294,0,0,0,.094-.30377c.01884-.33544.03825-.67659.04437-1.01195a.3605.3605,0,0,0-.07427-.272.25887.25887,0,0,0-.2509-.02713.47179.47179,0,0,0-.36225.48c-.022.34-.03662.67706-.04374,1.01312C103.02346,108.97717,103.13311,109.07194,103.35757,109.0123Z" style="fill:#fff"/></g><g id="_36" data-name="36" style="isolation:isolate"><path d="M96.17154,111.05038a.69177.69177,0,0,1-.58413-.06672.71017.71017,0,0,1-.17426-.56774c.00014-.12487.0026-.24515.00638-.36064s.01-.25989.01965-.43244c.16446-.03172.24669-.04773.41116-.08006-.01151.33742-.01717.50606-.02816.843-.00815.25018.10836.3521.35026.30357a.4279.4279,0,0,0,.36417-.44669c.01795-.35662.03671-.71848.037-1.06771a.43542.43542,0,0,0-.08512-.2975c-.05583-.06083-.16071-.07627-.31365-.04587-.12634.02754-.1895.04123-.31583.06842l-.00025-.36481c.301-.67358.45211-1.011.75444-1.68587-.43087.08625-.64627.12838-1.07711.21063l.01366-.38712c.62172-.11847.93259-.17978,1.55432-.30651l-.01867.3601c-.31141.68163-.46708,1.02238-.7772,1.70272a.59524.59524,0,0,1,.52074.1.78044.78044,0,0,1,.15612.55959c-.00171.42374-.01735.76779-.036,1.01952a1.13039,1.13039,0,0,1-.2113.64455A.94465.94465,0,0,1,96.17154,111.05038Z" style="fill:#fff"/><path d="M98.01233,110.66489a.63738.63738,0,0,1-.55774-.06005.719.719,0,0,1-.15664-.56438q.01734-.78635.04443-1.5484c.01786-.50688.03687-.99408.06594-1.44842a1.0632,1.0632,0,0,1,.222-.63564.95065.95065,0,0,1,.54733-.30191c.48948-.10423.734.09951.73306.616l-.00838.21343q-.00505.12867-.01171.26073c-.00443.088-.00826.16077-.01251.21942-.16272.036-.2441.05388-.40681.08932.01017-.12479.0178-.246.02241-.3645.00465-.11953.00756-.25246.00722-.39765a.32645.32645,0,0,0-.0767-.24478.28223.28223,0,0,0-.255-.0314.41061.41061,0,0,0-.34588.42114c-.026.41979-.04924.8714-.06739,1.35181l.09358-.01992a.614.614,0,0,1,.186-.21211.7206.7206,0,0,1,.286-.13165q.313-.06793.4309.06968a.80076.80076,0,0,1,.11125.51686c-.00349.22646-.00929.43923-.01681.63616-.00756.198-.01587.40468-.0308.61177a1.12705,1.12705,0,0,1-.21785.64529A1.02113,1.02113,0,0,1,98.01233,110.66489Zm.0174-.36191a.4316.4316,0,0,0,.37294-.43385c.014-.23781.02521-.46193.03305-.67016q.0118-.31387.016-.63733.00548-.35057-.30711-.28264a.56184.56184,0,0,0-.28159.14765.41672.41672,0,0,0-.12461.281c-.00981.19727-.01145.41093-.018.62917q-.00909.3272-.014.68371Q97.70183,110.37392,98.02973,110.303Z" style="fill:#fff"/></g><g id="_34" data-name="34" style="isolation:isolate"><path d="M90.80047,111.99585a.71177.71177,0,0,1-.58559-.09566.74519.74519,0,0,1-.17941-.57657c-.00092-.125.00052-.24525.00334-.36068s.00783-.25975.01607-.43212c.16445-.02378.24666-.03581.41111-.06018-.00875.33752-.013.50613-.02112.84291-.006.25.11155.35774.35337.32115a.39928.39928,0,0,0,.36083-.42924c.01492-.356.03069-.718.02817-1.06819a.45747.45747,0,0,0-.08763-.30249.33975.33975,0,0,0-.31444-.06124c-.12629.0215-.18944.03217-.31573.05331l-.00315-.36582c.2961-.661.44488-.99247.743-1.656-.43087.06614-.64631.09821-1.07725.16038l.01094-.388c.62192-.08963.93285-.1365,1.55464-.23437l-.0163.361c-.30721.67006-.46054,1.00476-.76576,1.67232a.61622.61622,0,0,1,.5222.12555.82.82,0,0,1,.16077.569c.00171.42479-.011.769-.02761,1.02031a1.07529,1.07529,0,0,1-.206.635A.88314.88314,0,0,1,90.80047,111.99585Z" style="fill:#fff"/><path d="M92.75271,111.64138c.01393-.53581.02146-.80428.03711-1.3418-.3906.066-.58588.0982-.97648.16081l.00987-.35292c.33906-1.16634.51115-1.7521.85531-2.923.239-.03963.35845-.05975.59742-.10062-.03588,1.10708-.05442,1.66118-.088,2.766.15493-.02672.2324-.04021.38733-.06747-.00476.15351-.00711.23024-.01177.38364-.15484.02725-.23225.04076-.3871.06747-.016.53753-.02366.806-.03792,1.34188C92.98417,111.60207,92.907,111.61526,92.75271,111.64138Zm-.52818-1.6295c.23064-.03779.346-.057.57659-.096.03345-.47933.05049-.71928.08474-1.19935.033-.47784.04972-.71691.0831-1.195l-.10741.01808c-.12335.49322-.185.73981-.30764,1.23254C92.42161,109.26854,92.35566,109.51656,92.22453,110.01188Z" style="fill:#fff"/></g><g id="_32" data-name="32" style="isolation:isolate"><path d="M85.54067,112.668a.73973.73973,0,0,1-.58826-.1222.77473.77473,0,0,1-.1844-.58329c-.00189-.12474-.00136-.24472.00059-.35983s.00586-.259.01281-.43075c.16478-.01631.24715-.0246.41189-.04148-.00615.33676-.00911.50492-.01465.84065-.00412.24925.11468.362.357.3366a.37426.37426,0,0,0,.35856-.41177c.01215-.35439.02511-.7156.01984-1.0657a.4765.4765,0,0,0-.09022-.30638.35311.35311,0,0,0-.31578-.07554c-.12647.01576-.18971.02356-.3162.039l-.006-.36589c.29189-.64762.43851-.97262.73245-1.62371-.43143.04684-.64718.06928-1.07882.11228l.00817-.38794c.62292-.062.93426-.095,1.55677-.16509l-.01371.3609c-.303.65731-.45414.98542-.755,1.63922a.64329.64329,0,0,1,.52452.14935.85427.85427,0,0,1,.16565.57634c.00507.4246-.005.768-.01959,1.01811a1.01927,1.01927,0,0,1-.20157.62429A.83647.83647,0,0,1,85.54067,112.668Z" style="fill:#fff"/><path d="M86.65065,112.5049c-.00054-.08407-.00082-.152-.00184-.20564s-.00107-.1054-.00112-.15716q-.00014-.07612.00333-.1862c.00227-.07136.005-.1682.00924-.28968a2.41208,2.41208,0,0,1,.09354-.63467,1.47777,1.47777,0,0,1,.2157-.441,1.95316,1.95316,0,0,1,.30848-.32746c.10111-.08809.15169-.1322.25287-.22054a.79628.79628,0,0,0,.2225-.3277,1.54425,1.54425,0,0,0,.0654-.33613,7.27676,7.27676,0,0,0,.02-.8154.36965.36965,0,0,0-.0895-.259.32775.32775,0,0,0-.269-.054.39052.39052,0,0,0-.25918.11825.462.462,0,0,0-.09249.28116c-.00755.14746-.012.29811-.01451.44875s-.00312.3-.00117.44793c-.16276.01933-.24416.02887-.40694.04765-.00208-.14592-.00266-.29205-.00177-.43739.00043-.1463.00586-.27765.01292-.39125a1.0281,1.0281,0,0,1,.20438-.62757.87661.87661,0,0,1,.5706-.25026.71348.71348,0,0,1,.5816.10794.80672.80672,0,0,1,.17323.5805c.0012.10623.00042.23313-.00136.38161-.00223.14751-.00748.27142-.01452.36881a1.51328,1.51328,0,0,1-.16467.638,1.89886,1.89886,0,0,1-.40543.47329c-.10754.09041-.16129.13553-.26876.22564a.8856.8856,0,0,0-.23551.40945,2.11108,2.11108,0,0,0-.07988.54482c-.00353.18182-.00526.27267-.00857.4542.43519-.05141.65274-.07815,1.08774-.13369-.00307.15437-.00457.2315-.00748.38565C87.54949,112.4002,87.25,112.43639,86.65065,112.5049Z" style="fill:#fff"/></g><g id="_30" data-name="30" style="isolation:isolate"><path d="M80.15288,113.11124a.77421.77421,0,0,1-.59222-.14709.80017.80017,0,0,1-.18887-.58905c-.00264-.1244-.00283-.244-.00158-.35868s.00433-.258.01026-.42907c.16552-.00919.24825-.01392.4137-.02362-.00406.33569-.006.50326-.00949.83761-.00261.24823.11752.36563.36092.35083a.35289.35289,0,0,0,.35781-.39467c.00994-.35241.02059-.71238.013-1.062a.49334.49334,0,0,0-.09267-.30974.36944.36944,0,0,0-.31772-.08916c-.127.01023-.19043.01528-.31742.0252l-.00834-.36558c.28905-.63412.43411-.95258.72486-1.59081-.4328.028-.64928.04109-1.08245.06548l.00576-.38757c.625-.03521.93737-.05468,1.56168-.09746l-.01132.36036c-.29969.64405-.44919.9654-.7471,1.60527a.67574.67574,0,0,1,.52782.172.88481.88481,0,0,1,.17027.58263c.008.42384.00016.766-.01287,1.01461a.96539.96539,0,0,1-.19853.61319A.80281.80281,0,0,1,80.15288,113.11124Z" style="fill:#fff"/><path d="M82.01646,112.98469a.69236.69236,0,0,1-.55587-.15942.73507.73507,0,0,1-.19311-.55733c.00045-.47882.00226-.98.00988-1.49852s.0206-1.02288.03387-1.50753a.8774.8774,0,0,1,.21017-.5937.82079.82079,0,0,1,.56431-.24415.6801.6801,0,0,1,.55252.15795.75363.75363,0,0,1,.1936.56262c.001.48658-.00406.98962-.01262,1.50956q-.01281.77837-.03635,1.49869a.8855.8855,0,0,1-.2107.5885A.80122.80122,0,0,1,82.01646,112.98469Zm.00412-.3603a.34346.34346,0,0,0,.34966-.36939c.02231-.56015.03417-1.11717.04293-1.66065s.011-1.03872.00674-1.48677c-.00127-.23126-.11474-.33883-.34062-.3214a.347.347,0,0,0-.35288.3749c-.02124.55517-.03451,1.10534-.0427,1.64937q-.01226.81453-.00448,1.497C81.6818,112.5353,81.7957,112.64139,82.02058,112.62439Z" style="fill:#fff"/></g><g id="_28" data-name="28" style="isolation:isolate"><path d="M74.11186,113.30017c-.00147-.08342-.00253-.15083-.00417-.20415s-.00228-.1047-.00293-.15608q-.001-.07557.00126-.18456c.00148-.07066.00314-.1666.006-.28693a2.25513,2.25513,0,0,1,.08718-.6223,1.28578,1.28578,0,0,1,.213-.41826,1.66554,1.66554,0,0,1,.30813-.29617c.10121-.0779.15183-.11691.253-.195a.68029.68029,0,0,0,.22066-.305,1.43012,1.43012,0,0,0,.06152-.32918,7.147,7.147,0,0,0,.00884-.81311.40739.40739,0,0,0-.094-.268.36073.36073,0,0,0-.27262-.08066.35367.35367,0,0,0-.26034.09269.41608.41608,0,0,0-.08975.27218c-.00567.14681-.00811.297-.00869.44729s.00083.29946.00476.44743c-.16443.0033-.24668.00483-.41121.00766-.004-.14593-.00644-.292-.00743-.43718-.00145-.1462.00235-.27712.008-.38993a.92656.92656,0,0,1,.19843-.6079.79634.79634,0,0,1,.57326-.19419.782.782,0,0,1,.589.16589.882.882,0,0,1,.18321.5982c.00272.10636.00374.2332.00407.38145-.00016.14722-.00371.27059-.00943.36709a1.37413,1.37413,0,0,1-.15754.6205,1.60741,1.60741,0,0,1-.4038.43177c-.10766.07947-.16148.11914-.26914.19834a.763.763,0,0,0-.23328.38461,1.97362,1.97362,0,0,0-.07416.53408c-.00136.18038-.002.27045-.00322.45032.44082-.00867.661-.01383,1.10113-.02586-.00109.15293-.00161.2293-.0026.38183C75.02286,113.28344,74.71945,113.29,74.11186,113.30017Z" style="fill:#fff"/><path d="M76.62584,113.2777a.73676.73676,0,0,1-.56443-.163.86293.86293,0,0,1-.19262-.59264q-.0067-.17417-.00364-.39152c.00221-.14393.00352-.32649.01706-.53209a.90515.90515,0,0,1,.10206-.38638.54285.54285,0,0,1,.249-.21853l.0009-.08662a.43707.43707,0,0,1-.21508-.1655.6368.6368,0,0,1-.1009-.31728c-.01225-.1581-.01374-.3182-.015-.47049-.00076-.15128.00273-.28889.00913-.4125a.95828.95828,0,0,1,.19723-.61129.77638.77638,0,0,1,.56311-.20225.70752.70752,0,0,1,.55474.16263.8894.8894,0,0,1,.18554.59774c.00384.12367.0026.2608-.0027.41233-.00531.15254-.01176.31283-.02731.47209a.68987.68987,0,0,1-.10736.3237.48783.48783,0,0,1-.21607.17665l-.001.09174a.52352.52352,0,0,1,.23586.20564.80192.80192,0,0,1,.10008.37535c.01043.20571.00934.38753.008.53152-.00137.145-.00551.27577-.01143.39234a.92635.92635,0,0,1-.19862.60656A.79073.79073,0,0,1,76.62584,113.2777Zm.023-2.5438q.34213-.01208.34948-.4046c.00325-.15328.00695-.29954.01058-.43771.00314-.13916.00345-.28443-.00007-.43782a.42842.42842,0,0,0-.08156-.28156.31367.31367,0,0,0-.25916-.08274c-.22688.008-.34419.13833-.353.38887-.01028.29151-.01353.58427-.01007.87545C76.30814,110.61445,76.42226,110.74189,76.64888,110.7339Zm-.02047,2.18506a.3497.3497,0,0,0,.26281-.10011.4325.4325,0,0,0,.08472-.284c.00715-.33258.01484-.67385.00942-1.01208a.44732.44732,0,0,0-.08488-.29277.30945.30945,0,0,0-.256-.08542q-.33983.01194-.35188.40246c-.01065.33871-.01365.67535-.009,1.01178Q76.28875,112.93014,76.62841,112.919Z" style="fill:#fff"/></g><g id="_26" data-name="26" style="isolation:isolate"><path d="M68.702,113.2848c-.00149-.08351-.00257-.151-.00422-.20442s-.00232-.10484-.003-.15628q-.001-.07564.00111-.18461c.00142-.07063.003-.16655.00571-.28682a2.22945,2.22945,0,0,1,.086-.61908,1.22343,1.22343,0,0,1,.21157-.40986,1.559,1.559,0,0,1,.30682-.2839c.10085-.07386.15131-.11085.25225-.185a.64205.64205,0,0,0,.21986-.29621,1.39771,1.39771,0,0,0,.06076-.32677,7.12878,7.12878,0,0,0,.00686-.81305.42388.42388,0,0,0-.09473-.27185.37366.37366,0,0,0-.27266-.09158.33954.33954,0,0,0-.25972.08234.40131.40131,0,0,0-.08881.26866c-.00525.14663-.00729.29671-.00749.447s.0016.29957.00585.44772c-.164-.00328-.246-.00505-.40992-.00883-.00433-.14612-.00718-.29232-.00854-.43757-.00185-.14627.00158-.2771.00689-.38967a.8937.8937,0,0,1,.19607-.60006.7649.7649,0,0,1,.5717-.17141.81.81,0,0,1,.58937.18941.91435.91435,0,0,1,.18494.60581c.003.10653.00434.23347.005.38178.00019.14728-.00307.27057-.00858.36685a1.33158,1.33158,0,0,1-.15634.61431,1.51323,1.51323,0,0,1-.403.41563c-.10744.07519-.16114.1127-.26848.1876a.7229.7229,0,0,0-.23222.37537,1.94923,1.94923,0,0,0-.07333.53124l-.00285.45029c.43958.00865.65965.01212,1.10035.0174l-.00236.38146C69.60988,113.30356,69.3069,113.2984,68.702,113.2848Z" style="fill:#fff"/><path d="M71.22265,113.36044a.77445.77445,0,0,1-.57144-.18293.85541.85541,0,0,1-.176-.59649q-.005-.78042-.00022-1.54026c.00314-.50522.008-.99131.0243-1.44416a.85162.85162,0,0,1,.2073-.59343.74213.74213,0,0,1,.54805-.18517c.49515.00224.75043.26308.76511.78536l-.00208.214q-.00123.129-.004.26091c-.00182.088-.00349.16052-.006.21878-.165.0004-.24753.00044-.41237,0,.00658-.12364.01068-.2443.0118-.363.00113-.1197.0001-.25354-.00458-.40031a.40576.40576,0,0,0-.08541-.2646.33871.33871,0,0,0-.26057-.08809q-.32832-.00153-.33965.34949c-.01416.41819-.02426.86872-.02833,1.34781l.09473.00068a.43049.43049,0,0,1,.1831-.17223.58707.58707,0,0,1,.2875-.06909.52381.52381,0,0,1,.44184.16589.93988.93988,0,0,1,.12981.54462c.00353.22684.0043.439.0028.63472-.00151.19667-.0035.4013-.01233.60514a.87621.87621,0,0,1-.20314.59512A.81472.81472,0,0,1,71.22265,113.36044Zm.00712-.356a.32214.32214,0,0,0,.36813-.34949c.007-.2342.01162-.45583.0132-.66263q.00237-.31173-.00333-.63574-.00522-.351-.322-.35242a.44481.44481,0,0,0-.28254.086.31856.31856,0,0,0-.11853.25465c-.00408.19665.00068.40965.00053.62661q.00051.32547.006.68Q70.897,113.00277,71.22977,113.00441Z" style="fill:#fff"/></g><g id="_24" data-name="24" style="isolation:isolate"><path d="M63.33272,113.0569c-.00176-.0839-.00307-.15167-.0049-.20536s-.0027-.10529-.00357-.15695q-.0013-.07593.00036-.18516c.0011-.0708.00225-.16695.00441-.28746a2.22256,2.22256,0,0,1,.08219-.61713,1.16394,1.16394,0,0,1,.20739-.40211,1.448,1.448,0,0,1,.30235-.272c.09949-.06989.14927-.1049.24885-.175a.60292.60292,0,0,0,.21621-.28768,1.378,1.378,0,0,0,.05841-.32456,7.1568,7.1568,0,0,0,.00209-.813.44434.44434,0,0,0-.09558-.27568.38529.38529,0,0,0-.27095-.10262.3223.3223,0,0,0-.25705.07177.38691.38691,0,0,0-.08632.26508c-.00427.14648-.00532.29649-.00458.44688s.00344.2998.00856.44824c-.16259-.00993-.24385-.015-.40635-.0255-.00521-.14642-.009-.29285-.01127-.43823-.00279-.14643-.00027-.27722.00424-.38956a.861.861,0,0,1,.19039-.5921.72739.72739,0,0,1,.566-.14807.83465.83465,0,0,1,.58576.21323.955.955,0,0,1,.1869.61318c.00358.10664.00561.23363.00711.382.001.14732-.0016.27057-.00655.36663a1.29994,1.29994,0,0,1-.15172.60852,1.41076,1.41076,0,0,1-.397.4c-.106.071-.159.10644-.2649.17717a.68359.68359,0,0,0-.2281.36677,1.94466,1.94466,0,0,0-.07021.52959l-.00106.45151c.43488.02619.65251.03836,1.08824.06085l-.00136.38254C64.2307,113.11189,63.93113,113.09476,63.33272,113.0569Z" style="fill:#fff"/><path d="M65.89157,113.19287c.00232-.52951.0035-.79545.00589-1.32886-.39207-.0172-.58792-.02652-.97929-.04665l.00121-.35055c.31186-1.09411.46827-1.64535.78262-2.74987.23961.011.35946.01616.59927.026-.00563,1.10643-.00843,1.65921-.01378,2.75663.15558.00638.2334.00946.3891.01538l-.002.38082c-.15564-.00592-.23343-.009-.389-.01534-.00258.53333-.00384.79921-.0063,1.32858C66.12417,113.2028,66.04662,113.19957,65.89157,113.19287Zm-.57076-1.7365c.23123.0112.3469.01655.57835.02673l.05376-1.183.051-1.18238-.10774-.00473L65.62,110.2851C65.50013,110.7547,65.4403,110.989,65.32081,111.45637Z" style="fill:#fff"/></g><g id="_22" data-name="22" style="isolation:isolate"><path d="M58.06933,112.60837c-.00236-.08434-.00417-.15245-.00639-.20642s-.00348-.10582-.00474-.1577q-.00187-.07627-.00109-.18582c.00054-.071.00092-.16741.00207-.28821a2.20612,2.20612,0,0,1,.07643-.61524,1.09814,1.09814,0,0,1,.20245-.394,1.33426,1.33426,0,0,1,.29789-.25941c.0982-.06574.14732-.09866.2456-.16463a.56127.56127,0,0,0,.21219-.27882,1.353,1.353,0,0,0,.05513-.32244,7.19818,7.19818,0,0,0-.00535-.81346.468.468,0,0,0-.09758-.27984.40278.40278,0,0,0-.27032-.11422.30714.30714,0,0,0-.25486.06077.371.371,0,0,0-.08324.26142c-.00283.14636-.00243.29636-.00026.44687s.00626.30016.01273.449c-.16164-.017-.24245-.02558-.404-.04309-.00658-.14679-.01173-.29347-.01544-.439-.0042-.14664-.003-.2774.0004-.38953a.82469.82469,0,0,1,.18347-.58392.69468.69468,0,0,1,.56137-.12378.87117.87117,0,0,1,.58434.23822,1.00143,1.00143,0,0,1,.19137.62125c.00452.10684.0077.234.01049.38254.00231.14747.00081.27075-.00326.36667a1.26315,1.26315,0,0,1-.14542.60284,1.30415,1.30415,0,0,1-.39076.38381c-.10465.06659-.15695.09982-.2615.16616a.64093.64093,0,0,0-.22338.35778,1.93276,1.93276,0,0,0-.06541.52807c.001.18135.00151.272.00242.453.43169.04509.64765.06663,1.07987.10772l.00114.384C58.96059,112.70253,58.66337,112.67243,58.06933,112.60837Z" style="fill:#fff"/><path d="M59.81239,112.783c-.00213-.0842-.00375-.15219-.00582-.20608s-.00317-.10565-.00428-.15744q-.00166-.07619-.00054-.18562c.00075-.07094.00142-.16727.00295-.288a2.2134,2.2134,0,0,1,.07853-.61593,1.12065,1.12065,0,0,1,.20415-.39678,1.37231,1.37231,0,0,1,.29935-.26368c.09862-.06715.148-.10079.24666-.16816a.57545.57545,0,0,0,.21354-.28185,1.36164,1.36164,0,0,0,.0563-.32316,7.18482,7.18482,0,0,0-.00262-.81334.45993.45993,0,0,0-.0968-.27845.39631.39631,0,0,0-.27043-.1103.31189.31189,0,0,0-.25552.06448.37646.37646,0,0,0-.08431.26267c-.00334.14641-.00347.29642-.00181.4469s.00523.3.0112.44875c-.1619-.01458-.24283-.022-.40466-.03714-.00608-.14667-.01072-.29329-.01392-.4388-.00369-.14657-.002-.27735.00178-.38957a.83716.83716,0,0,1,.18587-.58672.70494.70494,0,0,1,.56277-.132.85758.85758,0,0,1,.58456.22979.98554.98554,0,0,1,.18965.61855c.00417.10678.00693.23388.00924.38238.00182.14742-.00007.27069-.00446.36667a1.27622,1.27622,0,0,1-.14767.60477,1.33992,1.33992,0,0,1-.39282.38934c-.10509.06809-.15761.10206-.2626.1699a.65552.65552,0,0,0-.225.36085,1.93789,1.93789,0,0,0-.06718.52862c.00049.18119.00071.2717.0011.45254.43257.03867.649.057,1.08221.09176l.00015.38355C60.70551,112.86387,60.40762,112.83819,59.81239,112.783Z" style="fill:#fff"/></g><g id="_20" data-name="20" style="isolation:isolate"><path d="M52.7556,111.90783c-.00325-.08466-.00579-.153-.00858-.2072s-.00461-.10622-.00643-.15826q-.00271-.07652-.00313-.18622c-.00025-.07109-.00095-.16765-.00115-.28855a2.17385,2.17385,0,0,1,.0691-.61226,1.025,1.025,0,0,1,.19707-.38468,1.22167,1.22167,0,0,1,.29367-.24558c.097-.06117.14557-.09183.24269-.15325a.51746.51746,0,0,0,.20808-.269,1.31977,1.31977,0,0,0,.05117-.31981,7.22485,7.22485,0,0,0-.01484-.81309.49338.49338,0,0,0-.10049-.284.42663.42663,0,0,0-.27069-.12641.29464.29464,0,0,0-.25324.049.35289.35289,0,0,0-.07985.25722c-.00108.14607.00111.29586.00507.44633s.0098.30015.018.44916c-.16124-.02443-.24185-.03679-.40308-.06179-.00831-.147-.0152-.29374-.02065-.43928-.00594-.14665-.0063-.27721-.00428-.389a.78384.78384,0,0,1,.17588-.57453.66852.66852,0,0,1,.558-.0979.92153.92153,0,0,1,.585.26442,1.05166,1.05166,0,0,1,.19785.62929c.00574.107.01037.23416.01487.38275.004.14749.00393.27069.001.36637a1.21833,1.21833,0,0,1-.1379.59616,1.19438,1.19438,0,0,1-.38468.3659c-.10343.06178-.15513.09259-.25848.15409a.5948.5948,0,0,0-.21836.34765,1.90729,1.90729,0,0,0-.05921.52565c.003.18169.0045.27249.00735.454.43014.06557.64524.09729,1.07557.15864.00205.15418.00305.23123.005.38522C53.64361,112.04452,53.34758,112.00031,52.7556,111.90783Z" style="fill:#fff"/><path d="M55.22988,112.30762a.8446.8446,0,0,1-.552-.27583.92412.92412,0,0,1-.20395-.601c-.01169-.48186-.024-.98469-.03219-1.50354s-.01166-1.02211-.01461-1.50459a.70613.70613,0,0,1,.1885-.55084.65438.65438,0,0,1,.55185-.12688.84787.84787,0,0,1,.55382.27331.94039.94039,0,0,1,.21028.6041q.02457.73164.03322,1.511.00962.77823.00359,1.49695a.72241.72241,0,0,1-.19493.54772A.63905.63905,0,0,1,55.22988,112.30762ZM55.226,111.946c.21976.02933.33331-.072.33681-.29877.00865-.55891.00519-1.1151-.00206-1.65854s-.02058-1.03946-.0392-1.48934a.367.367,0,0,0-.34847-.393c-.22358-.02963-.33656.07188-.33773.302-.0028.55207.00156,1.1007.00959,1.645q.012.81494.03645,1.50294A.36324.36324,0,0,0,55.226,111.946Z" style="fill:#fff"/></g><g id="_18" data-name="18" style="isolation:isolate"><path d="M48.10239,111.07965c-.04318-1.60422-.07077-2.41009-.12225-4.01952l-.19151-.03747-.02152-.17335c.1124-.08892.16863-.13345.28117-.22271.131.02536.19654.038.32755.06294.05539,1.78981.086,2.68664.13224,4.47038C48.34581,111.12812,48.26468,111.11207,48.10239,111.07965Z" style="fill:#fff"/><path d="M49.5439,111.39938a.90868.90868,0,0,1-.55741-.2874,1.11237,1.11237,0,0,1-.2084-.64018q-.01266-.17708-.01753-.39522c-.00306-.14441-.00855-.32689-.003-.53141a.76915.76915,0,0,1,.08537-.36577.37128.37128,0,0,1,.23617-.16519l-.00249-.08668a.62573.62573,0,0,1-.218-.21251.80657.80657,0,0,1-.112-.33966c-.01838-.16039-.02649-.32141-.034-.47394-.007-.15141-.00926-.28825-.0081-.41025a.7683.7683,0,0,1,.16892-.56775.62924.62924,0,0,1,.5472-.08085.89552.89552,0,0,1,.55421.28129,1.11258,1.11258,0,0,1,.20685.63719c.00866.12452.01281.26145.01346.412.00068.15154.00054.31009-.00875.46689a.55921.55921,0,0,1-.09348.30132.3371.3371,0,0,1-.206.13056l.00245.09181a.75048.75048,0,0,1,.23965.2573.9847.9847,0,0,1,.11187.39864c.01744.20831.02263.39172.02611.53639.0035.14569.00371.27655.00163.39277a.76371.76371,0,0,1-.176.56924A.63271.63271,0,0,1,49.5439,111.39938Zm-.06623-2.55552q.33612.06187.32832-.33c-.00274-.15283-.00484-.29845-.00672-.43591-.00239-.13858-.00787-.2838-.01746-.43791a.53149.53149,0,0,0-.09176-.29889.40091.40091,0,0,0-.259-.13832c-.22349-.04072-.33375.06395-.33218.31246.00182.28892.01054.58094.02558.87339A.42364.42364,0,0,0,49.47767,108.84386Zm.05766,2.19354a.27669.27669,0,0,0,.25432-.04414.3623.3623,0,0,0,.074-.26812c-.0038-.33291-.00806-.67565-.02559-1.01671a.55873.55873,0,0,0-.09412-.31243.3943.3943,0,0,0-.25485-.14111q-.3336-.06157-.33061.32787c.00218.338.01132.67617.02729,1.01642A.41056.41056,0,0,0,49.53533,111.0374Z" style="fill:#fff"/></g><g id="_16" data-name="16" style="isolation:isolate"><path d="M42.8274,109.89712c-.0646-1.59688-.103-2.39714-.17155-3.9952l-.19189-.04616-.02332-.17285c.11147-.08285.16724-.12437.27885-.2076.13125.03126.19687.0468.3281.07771.07385,1.77748.1167,2.6681.18672,4.44438C43.07157,109.9576,42.99019,109.93754,42.8274,109.89712Z" style="fill:#fff"/><path d="M44.27878,110.28912a.99108.99108,0,0,1-.56552-.31306,1.10362,1.10362,0,0,1-.19943-.63985q-.04164-.78493-.07526-1.541c-.02215-.503-.042-.98416-.04879-1.43047a.6595.6595,0,0,1,.17424-.5426.60612.60612,0,0,1,.52987-.0634.94762.94762,0,0,1,.78936.94681l.00826.21229q.005.128.00864.25871c.00244.08714.00428.15905.00461.21652-.16159-.03607-.24238-.05424-.404-.09088.00043-.12164-.00144-.24078-.00613-.35854-.00474-.11879-.01229-.25213-.024-.39881a.51344.51344,0,0,0-.09678-.28135.442.442,0,0,0-.26028-.14441q-.32268-.07341-.3165.27214c.00689.41174.01956.85737.03924,1.334l.09293.02168a.28519.28519,0,0,1,.17108-.13114.50855.50855,0,0,1,.27844-.00541.68807.68807,0,0,1,.44064.26292,1.15441,1.15441,0,0,1,.15258.57293c.014.22768.02448.44045.03184.6364.0074.197.01454.40166.01478.60525a.708.708,0,0,1-.17241.5542A.658.658,0,0,1,44.27878,110.28912Zm-.00849-.35762q.34882.08183.34367-.26981c-.0035-.23409-.00907-.45563-.017-.66264-.008-.208-.01919-.42081-.033-.63722a.411.411,0,0,0-.33212-.42316.36674.36674,0,0,0-.27269.02321.23816.23816,0,0,0-.1037.22788c.00559.1965.02057.40957.03077.62687q.016.32613.03768.6837A.42393.42393,0,0,0,44.27029,109.9315Z" style="fill:#fff"/></g><g id="_14" data-name="14" style="isolation:isolate"><path d="M37.48389,108.446c-.084-1.58044-.1309-2.37111-.20949-3.951l-.19217-.05443-.02433-.17159c.111-.0766.1665-.115.27762-.192.13138.03688.19707.05524.32846.09179.08432,1.758.13689,2.6381.22881,4.39689C37.72926,108.51806,37.64748,108.49413,37.48389,108.446Z" style="fill:#fff"/><path d="M39.05185,108.89712c-.02623-.52809-.03977-.79219-.06683-1.32039-.38921-.108-.58388-.16279-.97337-.27393l-.01836-.34591c.2486-1.00728.37312-1.51257.62882-2.5251.23805.06448.35706.09644.59509.15981.05074,1.08524.079,1.62831.13394,2.71422.15435.04217.23152.06314.38583.10482l.01878.3775c-.15419-.0418-.23131-.06284-.38555-.10515.02667.52866.04.793.06579,1.3215C39.28236,108.9618,39.20554,108.94032,39.05185,108.89712Zm-.66087-1.85746c.22994.06463.34488.09667.57472.16021-.00478-.46221-.00721-.69333-.01156-1.1556-.00541-.46056-.008-.69085-.01228-1.15136l-.107-.02889c-.08536.43615-.12757.65407-.21154,1.08955C38.52991,106.38844,38.48355,106.60567,38.391,107.03966Z" style="fill:#fff"/></g></g></g><path id="top_thermometer" data-name="top thermometer" d="M34.37819,84.29626A157.61611,157.61611,0,0,0,88.4177,88.052c-.05721,3.73632-.01875,6.70874-.0869,10.203a143.80475,143.80475,0,0,1-53.655-4.11575C34.608,91.81691,34.4688,87.9911,34.37819,84.29626Z" style="fill:#333;fill-rule:evenodd"/><path d="M27.73649,77.69672l.07825,1.51831a31.8155,31.8155,0,0,0,5.62152,2.3872l-.03705-1.331A25.85011,25.85011,0,0,1,27.73649,77.69672Z" style="fill:#1d2475"/><path id="Dashed_Line" data-name="Dashed Line" d="M42.61981,83.94269q-1.21692-.24-2.37134-.498l.00037-.387.00073-.86969c.76642.17468,1.55493.34515,2.37134.50952l-.0003.3595C42.62036,83.34619,42.62006,83.64288,42.61981,83.94269Zm15.632.87884q-1.38793-.11187-2.73437-.24438-.00046.59161-.001,1.22632,1.35507.134,2.7345.24908Q58.25143,85.41462,58.25183,84.82153Zm-5.42718-.5332c-.89685-.10437-1.78016-.21423-2.64356-.33118-.00036.39734-.00079.80323-.0011,1.22681.86829.11688,1.75135.2262,2.64368.33008C52.824,85.09235,52.82434,84.68274,52.82465,84.28833Zm57.21215-3.80585q-.94262.30863-1.97912.60688c.00018.42468.00024.85827.00043,1.28967q1.02731-.28711,1.97912-.58838C110.03705,81.35779,110.037,80.91455,110.0368,80.48248Zm3.59961-1.36535q-.80529.35952-1.73755.71179c.00019.44482.00019.89349.00037,1.33221.6106-.22162,1.19263-.44751,1.73755-.6781Zm-49.821,6.058q-1.41468-.06637-2.795-.15485c-.00031.39728-.00055.80707-.00086,1.23438q1.38922.09083,2.79511.15973ZM35.77515,81.02972c-.00037.42353-.00067.85651-.001,1.28626q1.05551.30176,2.18994.58716c.00037-.43128.00079-.85041.0011-1.26978Q36.82349,81.3383,35.77515,81.02972Zm11.819,2.54956q-1.29053-.201-2.52246-.41894l-.0011,1.23566q1.23734.216,2.52252.41369Q47.5937,84.17588,47.59418,83.57928Zm21.86053,1.76777q-1.42611-.02061-2.82538-.06342-.00027.59922-.00061,1.246,1.40855.04542,2.82538.06592C69.45435,86.16412,69.45453,85.74719,69.45471,85.34705Zm32.03876-2.2862-.00012-.39154q-1.15467.23264-2.372.45007l.00037,1.24152q1.21106-.2124,2.37194-.44165C101.49359,83.629,101.49353,83.34113,101.49347,83.06085ZM115.242,79.06024l.00013.68067c.25836-.13111.50659-.26331.74279-.39667l.07758-1.50452c-.25061.16162-.52936.32294-.82062.484Zm-18.5719,4.473c-.82214.12958-1.6665.25214-2.52319.37036.00006.39832.00025.80573.00031,1.23029.853-.11664,1.69616-.23816,2.52313-.36664Q96.67026,84.13184,96.6701,83.5332Zm9.29889-1.87774c-.70611.17993-1.43438.35632-2.19061.52758l.00031.87848.00012.382q1.12628-.249,2.19061-.51355C105.9693,82.49683,105.96912,82.07648,105.969,81.65546Zm-25.2503,3.4909q-1.384.06994-2.79523.11981-.00009.59766-.00024,1.24256,1.40268-.05018,2.79535-.12195C80.71863,85.95709,80.71863,85.54535,80.71869,85.14636Zm10.84088-.90954q-1.30014.15518-2.644.2915,0,.59309.00012,1.22919,1.33722-.13623,2.6441-.29285Zm-16.45026,1.1007q-1.40166.025-2.82544.02863-.00018.60094-.00042,1.25006,1.41339-.00238,2.8255-.02948Zm11.113-.5603q-1.35022.11353-2.7348.20789c0,.397,0,.80664-.00006,1.23352q1.37749-.09467,2.73486-.21088Q86.2222,85.37026,86.22229,84.77722Z" style="fill:blue"/></g></svg>