<svg id="turbidity_-_0" data-name="turbidity - 0" xmlns="http://www.w3.org/2000/svg" viewBox="0 0 226 200"><rect id="back" width="226" height="200" style="fill:none"/><g id="bucket"><path d="M92.99991,155.04149c-22.8833,0-41.5-7.126-41.5-15.88575L47.65567,64.56639a4.23941,4.23941,0,0,0-1.4331-2.64209l-.34473-.38867a4.97156,4.97156,0,0,0-.439-.43164c-.3291-.29639-.43505-.4126-.43408-.65869l.00049-.25782c0-.95263,0-.95263,1.24121-1.63965l.58984-.32666-.47656-.47363a1.81139,1.81139,0,0,1-.605-1.33545,2.09111,2.09111,0,0,1,1.148-1.88623l.22754-.15918-.10156-1.96875-.22559-.13769c-1.10986-.67578-1.27392-1.31348-1.2876-1.84815a2.05225,2.05225,0,0,1,1.08594-1.84082l.22119-.15918L46.50284,42.165c.04053-2.17383,17.749-5.20654,46.49707-5.20654s46.457,3.03271,46.49707,5.20654l-.20313,3.96387.21973.15918a1.93888,1.93888,0,0,1,.96973,1.63672c.01465.53418-.11524,1.17773-1.18262,1.90967l-.2041.14013-.10938,2.10889.22657.15918a1.9753,1.9753,0,0,1,1.03125,1.6831c.01464.54834-.12305,1.20948-1.251,1.9585l-.21.13916-.10449,2.02.41992.18018c1.89551.8125,1.89551.8125,1.89551,1.94531,0,.65918,0,.65918-.35645.94726-.11914.09668-.26269.21289-.43359.36817a4.50134,4.50134,0,0,0-1.86133,3.09277l-3.84326,74.55322C134.49991,147.61864,115.10733,155.04149,92.99991,155.04149Z" style="fill:#fff"/><path d="M92.99991,37.45873a297.00494,297.00494,0,0,1,32.10553,1.54651c12.04793,1.37894,13.70042,2.97722,13.88912,3.228l-.18552,3.59917-.02793.54166.4388.31882a1.47454,1.47454,0,0,1,.76375,1.24567c.00747.282.02136.80689-.96624,1.48384l-.40784.27956-.02545.4938-.08173,1.58582-.02851.553.45366.31761a1.51063,1.51063,0,0,1,.81782,1.28632c.00755.29089.02164.83231-1.02776,1.52913l-.41957.2786-.02593.503-.07323,1.42034-.03588.69582.64033.2747.10005.0429a11.49227,11.49227,0,0,1,1.55818.72979,4.25277,4.25277,0,0,1,.03346.75611,3.49041,3.49041,0,0,1-.01823.43508c-.042.038-.09336.07576-.15257.1236-.12566.10157-.27583.22333-.45527.38611a4.98142,4.98142,0,0,0-2.02476,3.43775l-3.843,74.55281-.00133.02569v.02577c0,7.27713-16.83809,15.38553-41,15.38553-22.22429,0-41-7.04571-41-15.38553V139.13l-.00132-.02569L48.15508,64.54075a4.68173,4.68173,0,0,0-1.55962-2.94959c-.11029-.12309-.22455-.25058-.34135-.38441a5.46538,5.46538,0,0,0-.48051-.47419,1.31709,1.31709,0,0,1-.26871-.285l.0004-.25949a6.14021,6.14021,0,0,1,.01733-.62681,8.82492,8.82492,0,0,1,.97338-.5799l1.17982-.65333-.96787-.93917a1.30354,1.30354,0,0,1-.45351-.98958c-.01076-.41365.095-.87727.9346-1.4637l.45462-.31753-.02857-.5538-.07367-1.4284-.02722-.52758-.45112-.27487c-1.02671-.62559-1.04049-1.15164-1.04789-1.43426-.01055-.40238.08861-.85313.87872-1.42184l.44257-.31854-.02808-.54455-.30316-5.8809c.18871-.25078,1.84121-1.84908,13.88914-3.228a297.00508,297.00508,0,0,1,32.10553-1.54651m0-1c-25.92114,0-46.93865,2.54948-46.99725,5.697h-.00275l.00055.01049-.00055.00264.00091.00433.30891,5.99244a2.56212,2.56212,0,0,0-1.2942,2.25963,2.619,2.619,0,0,0,1.52722,2.262l.07367,1.4284a2.59993,2.59993,0,0,0-1.36164,2.30956,2.30275,2.30275,0,0,0,.75679,1.68122c-1.60248.88738-1.50018.82818-1.50666,2.33672-.003.68739.54377.90308.99573,1.421.87078.99775,1.60022,1.64973,1.65576,2.728l3.84351,74.56354c0,9.07,18.804,16.38553,42,16.38553s42-7.77894,42-16.38553l3.843-74.5528a3.99913,3.99913,0,0,1,1.698-2.74858c.78273-.71009.95416-.55225.95416-1.68543,0-1.4845-.00371-1.46388-2.29747-2.44782l.07323-1.42035a2.65543,2.65543,0,0,0,1.47424-2.38818,2.48634,2.48634,0,0,0-1.24394-2.07953l.08172-1.58581a2.61557,2.61557,0,0,0,1.40052-2.33515,2.45375,2.45375,0,0,0-1.17561-2.0282l.19128-3.71069.00092-.00433-.00054-.00264.00054-.01049h-.00274c-.0586-3.14753-21.07611-5.697-46.99726-5.697Z" style="fill:#333"/><path d="M92.99991,86.42137c-6.3584,0-12.68994-.26025-18.81836-.77295l.10449-1.24609c6.09375.51025,12.39014.769,18.71387.769Z" style="fill:#1d2475"/><path d="M92.99991,67.76808c-21.292,0-42.373-3.08642-47.99219-7.02685l.28711-.40918c4.86231,3.40918,24.03565,6.936,47.70508,6.936,23.29443,0,42.5498-3.47168,47.707-6.82812l.27344.41894C135.02628,64.73341,113.95108,67.76808,92.99991,67.76808Z" style="fill:#333;opacity:0.35000000000000003"/><path d="M92.99991,66.27586c-21.292,0-42.37256-3.08691-47.99219-7.02734l.28711-.40918C50.15762,62.249,69.331,65.77586,92.99991,65.77586c22.78955,0,42.52734-3.66455,47.74512-7.06006l.27343.41895C134.23966,63.54588,110.81534,66.27586,92.99991,66.27586Z" style="fill:#333;opacity:0.1"/><path d="M83.02921,61.995c-17.937,0-32.42823-1.42041-36.84034-3.75146l.2334-.44238c5.06787,2.67773,24.71924,4.17431,46.7251,3.54882,20.35449-.5747,39.02539-2.91894,45.4043-5.70068l.19922.458c-6.53272,2.84912-24.854,5.15674-45.58985,5.74267C89.6962,61.94764,86.30508,61.995,83.02921,61.995Z" style="fill:#333;opacity:0.35000000000000003"/><path d="M83.51309,58.0786c-17.73388,0-32.16894-1.45069-36.6582-3.82276l.2334-.44238c5.21191,2.75391,24.15039,4.24512,46.05908,3.627,20.353-.57422,39.02393-2.91845,45.4043-5.70068l.19922.458c-6.53418,2.84961-24.85547,5.15722-45.58985,5.74267C89.8671,58.03319,86.63858,58.0786,83.51309,58.0786Z" style="fill:#333;opacity:0.1"/><path d="M83.39444,55.85075c-17.084,0-31.37744-1.3003-36.43066-3.4419l.19531-.46c5.94385,2.519,24.90576,3.86182,46.11328,3.26074,20.89453-.59033,39.19482-2.84521,45.53809-5.61084l.19921.458c-6.3955,2.78955-24.7705,5.061-45.72363,5.65283C89.91983,55.80436,86.60635,55.85075,83.39444,55.85075Z" style="fill:#333;opacity:0.35000000000000003"/><path d="M83.38907,51.97215c-17.08008,0-31.37158-1.30029-36.42529-3.44141l.19531-.46c5.9458,2.51856,24.90771,3.85987,46.11328,3.26026,21.03906-.59375,39.33936-2.8086,45.53809-5.51172l.19921.458c-6.25146,2.72656-24.62646,4.958-45.72363,5.55371C89.91739,51.92625,86.60342,51.97215,83.38907,51.97215Z" style="fill:#333;opacity:0.1"/><path d="M136.69335,42.00834a.37672.37672,0,0,1-.02715.4871.90357.90357,0,0,1-.19547.14828,2.54926,2.54926,0,0,1-.34866.163c-.22682.0878-.45116.15447-.67626.21988-.44972.12607-.89992.23083-1.351.32829-.90211.19372-1.807.35587-2.71335.50654-1.81273.3-3.63107.54848-5.45173.77477-3.6417.449-7.29347.80013-10.95005,1.08768q-10.97371.805-21.987.84687-11.00562-.07213-21.98248-.90924c-3.65619-.282-7.30786-.62619-10.94928-1.0705-1.82052-.22375-3.63873-.47-5.451-.76856-.90611-.14982-1.81075-.3115-2.71217-.50515-.4507-.09782-.90048-.20189-1.34921-.32931-.22448-.06477-.44835-.1343-.674-.22274a2.19384,2.19384,0,0,1-.34557-.16652.63749.63749,0,0,1-.19462-.16746.363.363,0,0,1-.0762-.21545.37756.37756,0,0,1,.08032-.20408,3.03523,3.03523,0,0,1,1.28615-.7415c.44106-.15871.88689-.28461,1.33422-.40023.895-.22918,1.79716-.408,2.70123-.57069,1.80887-.32059,3.6269-.56588,5.44771-.77845,3.6419-.42533,7.29668-.70163,10.95221-.93808,7.31207-.46831,14.63946-.652,21.96419-.63223,7.32473-.02334,14.65243.13,21.96754.56059,3.65779.20766,7.31351.48154,10.95732.89976,1.82145.21227,3.64042.45792,5.44894.79113.90387.169,1.80553.35751,2.69865.60344a13.52215,13.52215,0,0,1,1.32946.43354A3.38974,3.38974,0,0,1,136.69335,42.00834Zm-.38687.32114a3.03235,3.03235,0,0,0-1.0615-.64335,13.07456,13.07456,0,0,0-1.27469-.43622c-.8691-.25331-1.75879-.45347-2.65216-.63416-1.78874-.35709-3.59777-.62895-5.41058-.86744-3.6275-.47093-7.27535-.79877-10.927-1.0604-7.30661-.48967-14.63175-.70078-21.9563-.73611-7.32468.01859-14.64986.24814-21.95563.75787q-5.4784.38891-10.92629,1.08875c-1.81335.24-3.62276.51272-5.41544.859-.89544.17537-1.78807.36684-2.66383.6056-.43718.12012-.87158.25041-1.28985.40833a2.82263,2.82263,0,0,0-1.07289.60614c-.02871.03509.018-.01255.00792-.05195.0094-.03673-.02087-.07026-.00985-.061a.31052.31052,0,0,0,.06877.04836,1.79625,1.79625,0,0,0,.27449.12623c.20162.07615.41615.14043.63224.19974.43367.11735.87769.21446,1.32286.30522.89142.17991,1.792.32938,2.69435.467,1.80526.27431,3.62026.49711,5.43746.69742,3.63523.39753,7.28226.69542,10.93256.93109q10.952.69792,21.93163.63285,10.96914.03028,21.927-.698c3.64994-.23,7.29681-.52133,10.93207-.91127,1.81721-.19656,3.63229-.41527,5.43765-.6847.90235-.13528,1.803-.282,2.6944-.45872.44531-.08877.88892-.1848,1.32281-.29905.21536-.05878.43127-.11969.63276-.1942a2.09359,2.09359,0,0,0,.27527-.12188.56543.56543,0,0,0,.08115-.05334C136.285,42.12909,136.24176,42.27269,136.30648,42.32948Z" style="fill:#333;opacity:0.75"/></g><path d="M76.29469,88.8849l.01519,1.34913a.63686.63686,0,0,0,.06675.32082.24331.24331,0,0,0,.1957.11748.427.427,0,0,0,.09367-.00142.26619.26619,0,0,0,.08255-.02277l.01543.456a.57989.57989,0,0,1-.16046.03533,1.00039,1.00039,0,0,1-.20244-.00007.61862.61862,0,0,1-.476-.24789,1.03682,1.03682,0,0,1-.15013-.5828l-.01462-1.47193c-.12915-.01188-.19374-.0179-.32292-.03008l-.004-.44424c.129.01172.19352.01752.32252.029l-.00663-.66607c.21316.018.31972.02682.53285.04417l.00754.66839c.17926.01531.26888.02283.44808.03761l.0055.44828C76.56384,88.9085,76.47414,88.90073,76.29469,88.8849Z" style="fill:#1d2475"/><path d="M78.471,91.26437l-.00628-.42287-.00984-.00079a.73469.73469,0,0,1-.22892.34307.532.532,0,0,1-.40479.11322.63014.63014,0,0,1-.34146-.12183.69158.69158,0,0,1-.20249-.25981,1.24879,1.24879,0,0,1-.10116-.35384,3.15271,3.15271,0,0,1-.0298-.39906c-.00861-.66309-.01291-.9944-.02152-1.65552.22708.01817.34059.027.56758.04436.00927.66292.0139.99529.02316,1.66058.001.06956.00584.13742.01267.204a.70823.70823,0,0,0,.04584.183.35963.35963,0,0,0,.09736.13832.28172.28172,0,0,0,.16515.06335.30339.30339,0,0,0,.30127-.1704.92324.92324,0,0,0,.1067-.48928c-.00916-.61539-.01373-.92277-.02289-1.53565.22686.01623.34026.02413.567.0395.01647,1.06163.0247,1.596.04117,2.66436C78.8064,91.29179,78.69466,91.28286,78.471,91.26437Z" style="fill:#1d2475"/><path d="M80.46583,88.7997a.40682.40682,0,0,1,.3286-.13211l.04211.00233a.11785.11785,0,0,1,.04326.01258l-.02045.60489a.43907.43907,0,0,0-.12073-.02263.2785.2785,0,0,0-.19378.05934.53007.53007,0,0,0-.143.17753.91127.91127,0,0,0-.08591.25656,1.41744,1.41744,0,0,0-.02555.29723l.02171,1.34505c-.231-.01509-.34662-.02294-.57792-.03929-.017-1.07122-.02553-1.607-.04255-2.67048.22311.01409.33463.02092.55763.03415l.0083.51178.0098.00058A.86985.86985,0,0,1,80.46583,88.7997Z" style="fill:#1d2475"/><path d="M81.20472,87.50008c.22676.012.34013.01777.56683.029.01053.64146.0158.96478.02633,1.61387l.00978.00048a.5596.5596,0,0,1,.19467-.29381.50991.50991,0,0,1,.35219-.1035.65731.65731,0,0,1,.35664.1196.92429.92429,0,0,1,.26363.30135,1.58609,1.58609,0,0,1,.16325.449,3.05079,3.05079,0,0,1,.01568,1.13943,1.68957,1.68957,0,0,1-.1519.45806.80111.80111,0,0,1-.25482.298.55226.55226,0,0,1-.34687.0952.52542.52542,0,0,1-.38035-.15543.89629.89629,0,0,1-.19511-.34763l-.01076-.00055.00621.38543c-.22021-.01138-.33037-.01734-.55081-.02982C81.24348,89.86436,81.23056,89.0654,81.20472,87.50008Zm.58884,2.64441a2.17891,2.17891,0,0,0,.0341.35661,1.34863,1.34863,0,0,0,.08388.29366.58081.58081,0,0,0,.13611.20175.28944.28944,0,0,0,.18685.08.25265.25265,0,0,0,.18648-.06237.49148.49148,0,0,0,.12392-.18954,1.236,1.236,0,0,0,.07064-.28659,2.36667,2.36667,0,0,0,.01978-.35433,2.47926,2.47926,0,0,0-.03106-.35908,1.34478,1.34478,0,0,0-.07989-.29454.58009.58009,0,0,0-.1302-.19972.28645.28645,0,0,0-.18889-.07915.25844.25844,0,0,0-.1847.06192.48094.48094,0,0,0-.1299.18767,1.193,1.193,0,0,0-.07453.28729A2.15746,2.15746,0,0,0,81.79356,90.14449Z" style="fill:#1d2475"/><path d="M84.31863,88.14086a.3565.3565,0,0,1-.091.25611.292.292,0,0,1-.2339.09613.31856.31856,0,0,1-.239-.11236.38966.38966,0,0,1-.09681-.26288.36366.36366,0,0,1,.08893-.25538.28306.28306,0,0,1,.23594-.09981.31521.31521,0,0,1,.23917.11662A.40306.40306,0,0,1,84.31863,88.14086Zm-.55883,3.4316c-.01612-1.07841-.02417-1.618-.04029-2.68264.22624.008.33933.01184.56546.019.01554,1.0639.02332,1.60352.03886,2.682C84.09832,91.584,83.98552,91.58035,83.7598,91.57246Z" style="fill:#1d2475"/><path d="M86.24507,91.63383l-.00466-.38577-.00972-.00014a.755.755,0,0,1-.18236.33539.48819.48819,0,0,1-.37907.13053.59753.59753,0,0,1-.34941-.11818.90977.90977,0,0,1-.26287-.3151,1.778,1.778,0,0,1-.166-.46846,2.86837,2.86837,0,0,1-.06255-.57815,2.77464,2.77464,0,0,1,.04384-.56077,1.4462,1.4462,0,0,1,.15185-.43793.79538.79538,0,0,1,.25258-.28337.60315.60315,0,0,1,.3556-.09534.5498.5498,0,0,1,.35646.12927.65789.65789,0,0,1,.20355.30836l.01461.00025c-.00794-.64864-.01191-.971-.01986-1.60732.22183.00473.33272.00688.55446.01074.01805,1.5441.02707,2.34578.04512,3.94283C86.57009,91.63838,86.46178,91.637,86.24507,91.63383Zm-.00558-1.344a2.18768,2.18768,0,0,0-.03259-.36029,1.25193,1.25193,0,0,0-.08336-.28928.52123.52123,0,0,0-.13681-.19592.28781.28781,0,0,0-.188-.074.26671.26671,0,0,0-.18814.06649.47929.47929,0,0,0-.12706.19083,1.20158,1.20158,0,0,0-.07122.28654,2.54217,2.54217,0,0,0,.00946.71537,1.311,1.311,0,0,0,.07874.29145.53681.53681,0,0,0,.1319.19793.28026.28026,0,0,0,.18952.07473.26829.26829,0,0,0,.18864-.06781.51845.51845,0,0,0,.12881-.19307,1.24282,1.24282,0,0,0,.07618-.28844A2.13771,2.13771,0,0,0,86.23949,90.28986Z" style="fill:#1d2475"/><path d="M88.03485,88.21424a.36219.36219,0,0,1-.092.25612.3012.3012,0,0,1-.23365.10142.3079.3079,0,0,1-.23774-.10527.37426.37426,0,0,1-.09528-.25811.3682.3682,0,0,1,.0899-.25515.29213.29213,0,0,1,.23579-.10468.30507.30507,0,0,1,.23794.10927A.38547.38547,0,0,1,88.03485,88.21424Zm-.57324,3.4318c-.01107-1.07679-.01661-1.61568-.02768-2.67321.22545.002.33813.0028.56345.00389.01012,1.0562.01517,1.59487.02529,2.67119C87.79832,91.64763,87.68611,91.64726,87.46161,91.646Z" style="fill:#1d2475"/><path d="M89.24039,89.4271c.00407.54418.00611.81869.01017,1.36923a.62868.62868,0,0,0,.06434.32043.20707.20707,0,0,0,.19138.09861.41266.41266,0,0,0,.09186-.01166.28265.28265,0,0,0,.08107-.03216l.01275.46326a.60629.60629,0,0,1-.15725.0541.96224.96224,0,0,1-.19808.02287.52332.52332,0,0,1-.465-.19981,1.01858,1.01858,0,0,1-.14613-.58153c-.005-.6038-.00749-.905-.01247-1.50161-.12746.00016-.19118.00018-.31869.00005l-.004-.45084c.12759.00025.19137.0003.31892.00024l-.00565-.66941c.2114.00026.31706.00017.52834-.00041l.005.66855c.17723-.00077.26582-.0013.443-.00267l.003.44972C89.506,89.42557,89.41748,89.42617,89.24039,89.4271Z" style="fill:#1d2475"/><path d="M91.06944,91.993a2.75807,2.75807,0,0,1-.1151.36787,1.0618,1.0618,0,0,1-.16358.28578.686.686,0,0,1-.23337.18427.758.758,0,0,1-.3188.06785,1.32237,1.32237,0,0,1-.19-.01069.80469.80469,0,0,1-.15068-.032l.06615-.5339a.65036.65036,0,0,0,.09672.02809.51426.51426,0,0,0,.11108.01134.24557.24557,0,0,0,.20219-.09.596.596,0,0,0,.102-.2416l.07261-.33323c-.30053-1.09529-.4515-1.6438-.755-2.71831.23655-.002.35478-.00329.59119-.00637.18143.78914.27182,1.18985.452,1.9935l.01546-.00029c.15629-.80979.23469-1.21372.392-2.0072.22842-.00447.3426-.007.57088-.01242C91.51549,90.14581,91.36633,90.764,91.06944,91.993Z" style="fill:#1d2475"/><path d="M73.921,93.69l.005,1.32021a.62582.62582,0,0,0,.066.31906.27507.27507,0,0,0,.19982.13085.45912.45912,0,0,0,.096.00614.26943.26943,0,0,0,.08476-.0157l.01254.44714a.63382.63382,0,0,1-.16482.02163,1.03954,1.03954,0,0,1-.20779-.01625.70469.70469,0,0,1-.48715-.28345,1.03057,1.03057,0,0,1-.14934-.58223l-.00215-1.43754c-.13237-.02235-.19859-.0337-.33116-.05675v-.4332c.1323.02231.19839.03331.33051.055l-.001-.65084c.21809.03406.327.05067.54464.08307l.00248.65511c.18324.0286.27478.04257.45767.06992l.00242.43995C74.1963,93.73388,74.10461,93.71946,73.921,93.69Z" style="fill:#1d2475"/><path d="M75.21886,94.89008a1.35808,1.35808,0,0,0,.03352.29253.95832.95832,0,0,0,.09141.24816.62173.62173,0,0,0,.14607.18035.3936.3936,0,0,0,.19836.08832.28841.28841,0,0,0,.25271-.06567.64925.64925,0,0,0,.14875-.21447c.17118.122.25673.18279.42774.304a.83909.83909,0,0,1-.31529.39017.75273.75273,0,0,1-.53022.08341,1.07454,1.07454,0,0,1-.73993-.47182,1.842,1.842,0,0,1-.285-1.06532,1.96718,1.96718,0,0,1,.06766-.55513,1.14541,1.14541,0,0,1,.20247-.40893.74873.74873,0,0,1,.71836-.28343.93859.93859,0,0,1,.42664.15708.99672.99672,0,0,1,.28888.3162,1.47813,1.47813,0,0,1,.16513.44,2.59825,2.59825,0,0,1,.058.53175l.0026.22175C76.03527,95.00936,75.76375,94.97169,75.21886,94.89008Zm.80113-.30537a1.15179,1.15179,0,0,0-.09677-.48689.36335.36335,0,0,0-.28834-.22055.26186.26186,0,0,0-.19125.04022.40043.40043,0,0,0-.12658.14824.81444.81444,0,0,0-.07228.20376.85817.85817,0,0,0-.02434.203C75.54083,94.51937,75.70074,94.5418,76.02,94.58471Z" style="fill:#1d2475"/><path d="M78.18684,94.39026a.68233.68233,0,0,0-.17942-.17909.52466.52466,0,0,0-.24443-.08787.254.254,0,0,0-.21179.06782.35258.35258,0,0,0,.01132.46735,1.33171,1.33171,0,0,0,.29152.17408,2.09859,2.09859,0,0,1,.2224.12495.982.982,0,0,1,.20025.17379.8438.8438,0,0,1,.14485.24018.89157.89157,0,0,1,.05811.31965.92212.92212,0,0,1-.06264.374.665.665,0,0,1-.18133.25161.62768.62768,0,0,1-.26464.131.90894.90894,0,0,1-.31237.01535,1.16463,1.16463,0,0,1-.4574-.15286,1.3245,1.3245,0,0,1-.36343-.30863c.12274-.132.184-.1983.30639-.3315a1.159,1.159,0,0,0,.21649.21191.58461.58461,0,0,0,.2865.11087.243.243,0,0,0,.22216-.07234.35182.35182,0,0,0,.07771-.2496.347.347,0,0,0-.12286-.28267,1.69227,1.69227,0,0,0-.31983-.19108,1.67682,1.67682,0,0,1-.1999-.111.79259.79259,0,0,1-.1798-.16088.77683.77683,0,0,1-.133-.23.928.928,0,0,1-.05159-.31293.75543.75543,0,0,1,.06427-.33316.67505.67505,0,0,1,.1774-.2356.65227.65227,0,0,1,.25666-.132.83541.83541,0,0,1,.30329-.02209,1.09633,1.09633,0,0,1,.42158.12795,1.22315,1.22315,0,0,1,.32141.25283C78.36568,94.18079,78.30611,94.25079,78.18684,94.39026Z" style="fill:#1d2475"/><path d="M79.53834,94.369c.00866.54815.013.82176.02165,1.367a.64461.64461,0,0,0,.0681.32275.239.239,0,0,0,.19559.11544.42117.42117,0,0,0,.09333-.00286.26567.26567,0,0,0,.08214-.02416l.01723.45729a.6184.6184,0,0,1-.1596.0383.95264.95264,0,0,1-.20158.004.60573.60573,0,0,1-.47566-.24245,1.05091,1.05091,0,0,1-.15309-.58693c-.00922-.59616-.01384-.89538-.02306-1.49475-.12938-.01168-.19409-.01764-.32363-.02987l-.00683-.45344c.12946.012.19415.01783.32348.02928l-.01046-.68031c.214.01837.32084.02722.53446.04426l.01075.68167c.17947.01473.26915.02185.44836.0356l.0073.45546C79.80756,94.39127,79.71786,94.384,79.53834,94.369Z" style="fill:#1d2475"/><path d="M82.40139,93.22255a.39943.39943,0,0,0-.1498-.0342.2412.2412,0,0,0-.15457.03691.282.282,0,0,0-.09285.114.57227.57227,0,0,0-.04712.16576,1.14889,1.14889,0,0,0-.01249.19425l.00611.37957c.16217.00884.24322.01308.40521.02122l.00756.47311c-.16-.00809-.24007-.01231-.40026-.02111.01425.88261.02138,1.32241.03563,2.19224-.22179-.01216-.33278-.01863-.555-.03243-.01434-.87028-.02152-1.30994-.03587-2.19205-.12837-.00786-.19258-.0119-.32107-.02024l-.00769-.47243c.1285.00824.19271.01224.32108.02l-.00624-.38442a1.75292,1.75292,0,0,1,.03661-.39514.915.915,0,0,1,.1297-.31918.592.592,0,0,1,.237-.20566.73512.73512,0,0,1,.36129-.06.91453.91453,0,0,1,.27019.055Zm.91521.14056a.36008.36008,0,0,1-.09041.26014.2843.2843,0,0,1-.23317.09572.31885.31885,0,0,1-.23854-.11615.40865.40865,0,0,1-.09682-.26814.37853.37853,0,0,1,.08852-.2598.2774.2774,0,0,1,.23524-.10049.31735.31735,0,0,1,.23955.12089A.42022.42022,0,0,1,83.3166,93.36311Zm-.55353,3.41948c-.01695-1.05492-.02543-1.59057-.04238-2.66485.22542.01046.338.01535.56313.0245.01656,1.07448.02485,1.61013.04141,2.66392C83.10057,96.79749,82.98815,96.79279,82.76307,96.78259Z" style="fill:#1d2475"/><path d="M83.996,96.82947c-.02368-1.55973-.03551-2.36193-.05918-3.96084.22538.00764.338.01118.56317.01768.02279,1.599.03418,2.40137.057,3.9588C84.33271,96.83954,84.22053,96.83642,83.996,96.82947Z" style="fill:#1d2475"/><path d="M85.23489,96.85957c-.02156-1.55436-.03234-2.35686-.0539-3.95562.22487.00517.33724.00748.5619.01158.02042,1.59838.03064,2.40085.05106,3.9525C85.57048,96.86525,85.45867,96.86357,85.23489,96.85957Z" style="fill:#1d2475"/><path d="M87.43031,96.8763c-.01663-1.543-.02494-2.34507-.04156-3.94171.22407.00116.33607.00148.56.00169.01522,1.59594.02281,2.39784.038,3.93778C87.76427,96.87543,87.653,96.87589,87.43031,96.8763Z" style="fill:#1d2475"/><path d="M89.23345,93.44764a.384.384,0,0,1-.09155.26385.299.299,0,0,1-.23153.107.29558.29558,0,0,1-.23521-.10391.38388.38388,0,0,1-.0939-.26277.39467.39467,0,0,1,.08949-.26387.30418.30418,0,0,1,.46908-.00286A.40078.40078,0,0,1,89.23345,93.44764Zm-.57371,3.42065c-.00907-1.03634-.0136-1.56868-.02267-2.6385.22323-.00116.3348-.00195.55788-.004.00807,1.06915.0121,1.60105.02017,2.63538C88.99305,96.86444,88.882,96.86587,88.65974,96.86829Z" style="fill:#1d2475"/><path d="M90.4174,94.21009l.00232.42309.00962-.00016a.85558.85558,0,0,1,.22691-.36727.56874.56874,0,0,1,.39549-.15632.54368.54368,0,0,1,.333.08449.587.587,0,0,1,.195.23858,1.16872,1.16872,0,0,1,.09438.3444,3.17082,3.17082,0,0,1,.02632.39624c.00227.66268.0034.99113.00566,1.63524-.22163.00595-.33245.00882-.55414.01429-.00287-.64508-.00431-.97381-.00718-1.63684-.00028-.06526-.00344-.132-.01046-.19934a.69619.69619,0,0,0-.0421-.1839.303.303,0,0,0-.09474-.13079.24485.24485,0,0,0-.15973-.04622.34.34,0,0,0-.29688.20345,1.01741,1.01741,0,0,0-.10776.5003c.00338.61081.00508.91376.00846,1.50972-.2218.00474-.33271.007-.55462.01106-.00684-1.032-.01027-1.56339-.01711-2.63182C90.089,94.21538,90.19845,94.21373,90.4174,94.21009Z" style="fill:#1d2475"/><path d="M92.748,95.63038a1.34816,1.34816,0,0,0,.03022.28832.8175.8175,0,0,0,.08564.232.46189.46189,0,0,0,.13814.15361.3078.3078,0,0,0,.18869.05266.32.32,0,0,0,.24215-.10893.83151.83151,0,0,0,.14445-.23838c.16291.09266.24433.13881.40715.2308a1.06566,1.06566,0,0,1-.30624.43659.8739.8739,0,0,1-1.2081-.15737,1.6597,1.6597,0,0,1-.26693-1.01842,2.28267,2.28267,0,0,1,.06663-.57848,1.48167,1.48167,0,0,1,.19573-.45507.98352.98352,0,0,1,.30194-.29878.77918.77918,0,0,1,.3908-.11327.75264.75264,0,0,1,.4102.09153.7726.7726,0,0,1,.27567.276,1.30909,1.30909,0,0,1,.15458.41968,2.58969,2.58969,0,0,1,.04989.526v.22159C93.52832,95.60736,93.26823,95.61546,92.748,95.63038Zm.77028-.44572a1.10391,1.10391,0,0,0-.08861-.47695A.28085.28085,0,0,0,93.154,94.531a.27745.27745,0,0,0-.18421.07317.52123.52123,0,0,0-.12259.1728,1.01777,1.01777,0,0,0-.07063.22.9816.9816,0,0,0-.02457.21053C93.05854,95.19878,93.21178,95.19419,93.51827,95.18466Z" style="fill:#1d2475"/></svg>