<svg id="turbidity_100_-_1E" data-name="turbidity 100 - 1E" xmlns="http://www.w3.org/2000/svg" viewBox="0 0 226 200"><rect id="back" width="226" height="200" style="fill:none"/><g id="bucket"><g id="bucket-2" data-name="bucket"><circle cx="93" cy="58.56543" r="46.5" style="fill:#fff"/><path d="M93,12.5652a46,46,0,1,1-46,46,46.05209,46.05209,0,0,1,46-46m0-1a47,47,0,1,0,47,47,47,47,0,0,0-47-47Z" style="fill:#333"/></g><path id="inner_lip" data-name="inner lip" d="M93,15.3152a43.25,43.25,0,1,1-43.25,43.25A43.299,43.299,0,0,1,93,15.3152m0-.75a44,44,0,1,0,44,44,44,44,0,0,0-44-44Z" style="fill:#333;fill-opacity:0.35000000000000003"/><path id="bottom" d="M93,33A29,29,0,1,1,64,62,29.03284,29.03284,0,0,1,93,33m0-.5A29.5,29.5,0,1,0,122.5,62,29.5,29.5,0,0,0,93,32.5Z" style="fill:#333;fill-opacity:0.25"/><g id="water"><circle cx="93" cy="58.56543" r="37.75" style="fill:#d1eef3;opacity:0.25"/><circle cx="93" cy="58.56543" r="37.75" style="fill:#cecece;opacity:0.25"/><path d="M93,21.0652a37.5,37.5,0,1,1-37.5,37.5,37.54247,37.54247,0,0,1,37.5-37.5m0-.5a38,38,0,1,0,38,38,38,38,0,0,0-38-38Z" style="fill:#d1eef3"/><path d="M93,21.0652a37.5,37.5,0,1,1-37.5,37.5,37.54247,37.54247,0,0,1,37.5-37.5m0-.5a38,38,0,1,0,38,38,38,38,0,0,0-38-38Z" style="fill:#cecece;opacity:0.5"/></g><g id="disk-100"><g id="Oval"><circle cx="90.3642" cy="71.1854" r="7.08027" style="fill:#d1eef3;opacity:0.25"/><circle cx="90.3642" cy="71.1854" r="7.08027" style="fill:#cecece;opacity:0.25"/><path d="M90.375,78.519a7.35592,7.35592,0,0,1-2.03125-.28759A7.2839,7.2839,0,1,1,90.375,78.519Zm-.00781-14.16455a6.8322,6.8322,0,1,0,1.87988.26514A6.84375,6.84375,0,0,0,90.36719,64.35449Z" style="fill:#999"/></g><path id="Oval-2" data-name="Oval" d="M90.3642,71.1854l1.95159-6.806a7.08028,7.08028,0,0,0-8.75758,4.85441Z" style="fill:#999;fill-rule:evenodd"/><path id="Oval-3" data-name="Oval" d="M90.3642,71.1854l-1.95158,6.806a7.08026,7.08026,0,0,0,8.75757-4.8544Z" style="fill:#999;fill-rule:evenodd"/></g></g><g style="isolation:isolate"><path d="M146.11523,30.584a.88018.88018,0,0,1,.06641-.34375.84213.84213,0,0,1,.18555-.27929.89285.89285,0,0,1,.27636-.18946.843.843,0,0,1,.34668-.07031.81946.81946,0,0,1,.33887.07031.90885.90885,0,0,1,.27735.18946.897.897,0,0,1,.18847.27929.84889.84889,0,0,1,.07031.34375.835.835,0,0,1-.07031.34571.90681.90681,0,0,1-.18847.27636.869.869,0,0,1-.61622.25293.87454.87454,0,0,1-.34668-.06738.83468.83468,0,0,1-.27636-.18555.84989.84989,0,0,1-.18555-.27636A.866.866,0,0,1,146.11523,30.584Zm3.59766,0a.89806.89806,0,0,1,.06641-.34375.85719.85719,0,0,1,.18554-.27929.90456.90456,0,0,1,.27637-.18946.843.843,0,0,1,.34668-.07031.82728.82728,0,0,1,.33984.07031.90432.90432,0,0,1,.27637.18946.88075.88075,0,0,1,.18848.27929.84905.84905,0,0,1,.07031.34375.83513.83513,0,0,1-.07031.34571.89.89,0,0,1-.18848.27636.84464.84464,0,0,1-.27637.18555.8581.8581,0,0,1-.33984.06738.87451.87451,0,0,1-.34668-.06738.84485.84485,0,0,1-.27637-.18555.86543.86543,0,0,1-.18554-.27636A.88312.88312,0,0,1,149.71289,30.584Zm3.60547,0a.88.88,0,0,1,.06641-.34375.86284.86284,0,0,1,.18164-.27929.87026.87026,0,0,1,.96289-.18946.89656.89656,0,0,1,.46875.46875.84905.84905,0,0,1,.07031.34375.83513.83513,0,0,1-.07031.34571.89274.89274,0,0,1-.18946.27636.82728.82728,0,0,1-.27929.18555.90806.90806,0,0,1-.68653,0,.79649.79649,0,0,1-.27636-.18555.87717.87717,0,0,1-.248-.62207Z" style="fill:blue"/><path d="M159.793,30.0166c0-.02832.001-.06445.00391-.1084.002-.04492.00683-.1084.01367-.19238s.01757-.19434.03125-.3291c.01367-.13574.03515-.3125.06347-.53223l.44043-3.54883h-.791a.21906.21906,0,0,1-.15039-.05273.207.207,0,0,1-.05957-.16406c0-.01465.00293-.042.00683-.084q.00733-.063.01758-.14355c.00684-.05371.01465-.1084.02148-.165q.01026-.08351.01758-.16113l1.0918-.14649.52539-2.1914a.32942.32942,0,0,1,.10449-.1709.27714.27714,0,0,1,.18946-.06641h.65722l-.30761,2.44238h1.8623l-.10547.90332h-1.86914l-.42676,3.48633c-.02343.19141-.041.34473-.05273.46192-.01172.11621-.02051.21-.02735.27929-.00781.07032-.01171.11914-.01464.14746-.002.02832-.00293.04883-.00293.0625a.74227.74227,0,0,0,.16406.5293.59469.59469,0,0,0,.45117.1709.9064.9064,0,0,0,.32227-.05274,1.33362,1.33362,0,0,0,.24218-.11523c.06739-.042.124-.08008.1709-.11523a.21914.21914,0,0,1,.126-.05274.13015.13015,0,0,1,.08789.02832.36331.36331,0,0,1,.06641.09082l.25879.59473a2.51459,2.51459,0,0,1-.77344.47266,2.39675,2.39675,0,0,1-.87891.17187,1.49412,1.49412,0,0,1-1.07031-.37109A1.452,1.452,0,0,1,159.793,30.0166Z" style="fill:blue"/><path d="M166.499,31.45117a2.76625,2.76625,0,0,1-1.06445-.19922,2.3409,2.3409,0,0,1-.833-.57715,2.67329,2.67329,0,0,1-.5459-.92382,3.67147,3.67147,0,0,1-.19628-1.2461,5.02381,5.02381,0,0,1,.28027-1.6875,4.57959,4.57959,0,0,1,.7666-1.38574,3.64181,3.64181,0,0,1,1.14844-.93848,3.06348,3.06348,0,0,1,1.43164-.34277,2.76489,2.76489,0,0,1,1.06347.19922,2.3473,2.3473,0,0,1,.833.57812,2.65553,2.65553,0,0,1,.5459.92774,3.67608,3.67608,0,0,1,.19629,1.24219,4.999,4.999,0,0,1-.28027,1.67968,4.57988,4.57988,0,0,1-.76661,1.38575,3.65646,3.65646,0,0,1-1.15136.94238A3.04955,3.04955,0,0,1,166.499,31.45117Zm.11231-.97265a1.64508,1.64508,0,0,0,.93066-.28028,2.4498,2.4498,0,0,0,.71387-.74512,3.83735,3.83735,0,0,0,.45508-1.07421,4.96514,4.96514,0,0,0,.16113-1.27442,2.38855,2.38855,0,0,0-.38477-1.47656,1.32218,1.32218,0,0,0-1.11328-.49707,1.64888,1.64888,0,0,0-.93457.27637,2.44269,2.44269,0,0,0-.71093.74218,3.84129,3.84129,0,0,0-.45508,1.07422,4.96288,4.96288,0,0,0-.16016,1.27344,2.41733,2.41733,0,0,0,.38086,1.48047A1.31866,1.31866,0,0,0,166.61133,30.47852Z" style="fill:blue"/><path d="M173.73633,24.2627h1.00879a.31618.31618,0,0,1,.22363.07714.32585.32585,0,0,1,.10449.18164l1.05762,4.56446a4.48141,4.48141,0,0,1,.08008.51758c.0166.17285.02929.34277.03906.51074q.07617-.252.16113-.50684a4.37849,4.37849,0,0,1,.21-.52148l2.19727-4.56446a.52808.52808,0,0,1,.1543-.18554.35416.35416,0,0,1,.21679-.07324h.97364l-3.55664,7.09082h-1.043Z" style="fill:blue"/><path d="M182.61914,24.2627l-.85352,7.09082H180.54l.85449-7.09082Zm.46875-2.22657a.79273.79273,0,0,1-.07324.33985.96792.96792,0,0,1-.19629.28027.94486.94486,0,0,1-.27637.19238.76524.76524,0,0,1-.32129.07032.75225.75225,0,0,1-.31543-.07032.8666.8666,0,0,1-.26953-.19238.99327.99327,0,0,1-.18554-.28027.82065.82065,0,0,1-.07032-.33985.8476.8476,0,0,1,.07032-.34277.95284.95284,0,0,1,.46191-.47949.72718.72718,0,0,1,.31543-.07325.76524.76524,0,0,1,.32129.07032.9255.9255,0,0,1,.27734.19238.89881.89881,0,0,1,.19238.28711A.88477.88477,0,0,1,183.08789,22.03613Z" style="fill:blue"/><path d="M189.45117,25.78125a1.916,1.916,0,0,1-.18847.85059,1.773,1.773,0,0,1-.69336.70019,5.16876,5.16876,0,0,1-1.38575.543,15.29872,15.29872,0,0,1-2.26855.37012c-.00391.05176-.00684.10156-.00684.15136v.1504a2.18424,2.18424,0,0,0,.41016,1.43066,1.512,1.512,0,0,0,1.23535.49414,2.32644,2.32644,0,0,0,.59863-.07031,2.59658,2.59658,0,0,0,.46875-.1709,2.1407,2.1407,0,0,0,.36426-.22461c.10449-.08106.20117-.15625.29-.22363s.16992-.125.24512-.17188a.41727.41727,0,0,1,.22363-.07031.308.308,0,0,1,.23145.11914l.30761.38574a6.37389,6.37389,0,0,1-.69629.63281,4.04429,4.04429,0,0,1-.69629.4375,3.10682,3.10682,0,0,1-.74609.25586,4.11043,4.11043,0,0,1-.83594.08008,2.78285,2.78285,0,0,1-1.09179-.20312,2.24519,2.24519,0,0,1-.81934-.57715,2.59305,2.59305,0,0,1-.51758-.90625,3.63965,3.63965,0,0,1-.18261-1.19043,5.26654,5.26654,0,0,1,.11523-1.08789,5.13631,5.13631,0,0,1,.33594-1.03321,4.708,4.708,0,0,1,.53906-.90917,3.631,3.631,0,0,1,.72852-.72461,3.39306,3.39306,0,0,1,.90332-.4795,3.13073,3.13073,0,0,1,1.06054-.17578,2.54828,2.54828,0,0,1,.93067.1543,1.973,1.973,0,0,1,.64355.39258,1.56852,1.56852,0,0,1,.375.52441A1.40435,1.40435,0,0,1,189.45117,25.78125Zm-2.1416-.7207a1.82586,1.82586,0,0,0-.8125.18164,2.156,2.156,0,0,0-.65723.501,3.03079,3.03079,0,0,0-.49023.749,4.47113,4.47113,0,0,0-.31543.92773,13.65657,13.65657,0,0,0,1.72949-.30469,4.31289,4.31289,0,0,0,1.001-.37109,1.08394,1.08394,0,0,0,.46191-.43066,1.10309,1.10309,0,0,0,.11231-.4834.70646.70646,0,0,0-.23535-.51074.968.968,0,0,0-.31836-.18555A1.36374,1.36374,0,0,0,187.30957,25.06055Z" style="fill:blue"/><path d="M190.30566,24.2627h.93067a.3571.3571,0,0,1,.22754.06933.27525.27525,0,0,1,.10156.18945l.65137,4.56446a3.64906,3.64906,0,0,1,.03808.47168c.002.15234.00586.30273.01074.45215q.08351-.22413.17188-.45215.08643-.22705.18457-.47168l1.93945-4.59278a.403.403,0,0,1,.13672-.1748.3463.3463,0,0,1,.21289-.07031h.51856a.31133.31133,0,0,1,.21679.07031.27581.27581,0,0,1,.09082.1748l.791,4.59278c.02832.16308.05078.32129.06641.47558.0166.1543.03222.30762.04589.46192.04688-.14942.0918-.30176.13672-.458a4.72824,4.72824,0,0,1,.16407-.47949l1.792-4.56446a.41553.41553,0,0,1,.13965-.18554.36632.36632,0,0,1,.22461-.07324h.8955l-2.97461,7.09082h-.94531c-.10742,0-.1748-.07911-.20312-.23829l-.86035-4.80859c-.01465-.07519-.02637-.15039-.03516-.22754-.00977-.07715-.01856-.15332-.02832-.22754-.02344.0791-.04688.15625-.06934.23047-.02343.0752-.05175.15235-.084.23145l-2.05176,4.80175c-.06543.15918-.1582.23829-.2793.23829h-.91015Z" style="fill:blue"/><path d="M146.91309,46.81641c0-.02832.001-.06446.0039-.1084.002-.04492.00684-.1084.01367-.19239s.01758-.19433.03125-.3291c.01368-.13574.03516-.3125.06348-.53222l.44043-3.54883h-.791a.21908.21908,0,0,1-.15039-.05274.207.207,0,0,1-.05957-.16406c0-.01465.00293-.042.00684-.084q.00732-.063.01758-.14356c.00683-.05371.01465-.1084.02148-.165q.01026-.08349.01758-.16113l1.0918-.14648.52539-2.19141a.3294.3294,0,0,1,.10449-.1709.27713.27713,0,0,1,.18945-.0664h.65723l-.30762,2.44238h1.86231l-.10547.90332h-1.86914L148.25,45.5918c-.02344.1914-.041.34472-.05273.46191-.01172.11621-.02051.21-.02735.2793-.00781.07031-.01172.11914-.01465.14746-.00195.02832-.00293.04883-.00293.0625a.74228.74228,0,0,0,.16407.5293.59472.59472,0,0,0,.45117.17089.90632.90632,0,0,0,.32226-.05273,1.3344,1.3344,0,0,0,.24219-.11523c.06738-.042.124-.08008.1709-.11524a.21909.21909,0,0,1,.126-.05273.13012.13012,0,0,1,.08789.02832.36313.36313,0,0,1,.0664.09082l.25879.59472a2.51416,2.51416,0,0,1-.77344.47266,2.39653,2.39653,0,0,1-.8789.17187,1.49412,1.49412,0,0,1-1.07031-.37109A1.452,1.452,0,0,1,146.91309,46.81641Z" style="fill:blue"/><path d="M151.14844,48.15332l1.24511-10.31055h1.2461l-.58106,4.78711a4.20142,4.20142,0,0,1,1.22852-1.249,2.57432,2.57432,0,0,1,1.38281-.42383,1.509,1.509,0,0,1,1.23926.53223,2.39728,2.39728,0,0,1,.43359,1.54687c0,.09375-.00195.19043-.00683.291-.00489.09961-.01367.2041-.02832.31152l-.53125,4.51465h-1.2461l.53125-4.51465c.00977-.09375.01758-.18359.02539-.26953.00684-.08691.00977-.16894.00977-.249a1.40619,1.40619,0,0,0-.21289-.85352.79706.79706,0,0,0-.67578-.28027,1.40985,1.40985,0,0,0-.64746.17187,2.6264,2.6264,0,0,0-.64746.48633,4.07685,4.07685,0,0,0-.58789.75977,5.60959,5.60959,0,0,0-.47657.99023l-.45508,3.75879Z" style="fill:blue"/><path d="M164.18164,42.58105a1.9158,1.9158,0,0,1-.18848.85059,1.77281,1.77281,0,0,1-.69336.7002,5.16856,5.16856,0,0,1-1.38574.543,15.2974,15.2974,0,0,1-2.26855.37012c-.00391.05176-.00684.10156-.00684.15137v.15039a2.18422,2.18422,0,0,0,.41016,1.43066,1.512,1.512,0,0,0,1.23535.49414,2.326,2.326,0,0,0,.59863-.07031,2.59506,2.59506,0,0,0,.46875-.1709,2.14007,2.14007,0,0,0,.36426-.22461c.10449-.08105.20117-.15625.29-.22363s.16992-.125.24512-.17187a.4172.4172,0,0,1,.22363-.07032.308.308,0,0,1,.23144.11914l.30762.38575a6.37491,6.37491,0,0,1-.69629.63281,4.0449,4.0449,0,0,1-.69629.4375,3.10682,3.10682,0,0,1-.74609.25586,4.11043,4.11043,0,0,1-.83594.08008,2.78282,2.78282,0,0,1-1.09179-.20313,2.24508,2.24508,0,0,1-.81934-.57715,2.593,2.593,0,0,1-.51758-.90625,3.6396,3.6396,0,0,1-.18262-1.19043,5.26655,5.26655,0,0,1,.11524-1.08789,5.13642,5.13642,0,0,1,.33594-1.0332,4.70782,4.70782,0,0,1,.53906-.90918,3.63177,3.63177,0,0,1,.72851-.72461,3.39363,3.39363,0,0,1,.90332-.47949,3.13058,3.13058,0,0,1,1.06055-.17578,2.54829,2.54829,0,0,1,.93067.15429,1.973,1.973,0,0,1,.64355.39258,1.56856,1.56856,0,0,1,.375.52442A1.40444,1.40444,0,0,1,164.18164,42.58105Zm-2.1416-.7207a1.826,1.826,0,0,0-.8125.18164,2.156,2.156,0,0,0-.65723.501,3.03026,3.03026,0,0,0-.49023.749,4.47064,4.47064,0,0,0-.31543.92774,13.65657,13.65657,0,0,0,1.72949-.30469,4.31353,4.31353,0,0,0,1.001-.37109,1.084,1.084,0,0,0,.46191-.43067,1.10309,1.10309,0,0,0,.11231-.4834.70642.70642,0,0,0-.23536-.51074.96786.96786,0,0,0-.31836-.18555A1.36388,1.36388,0,0,0,162.04,41.86035Z" style="fill:blue"/><path d="M173.65332,39.67676a.83212.83212,0,0,1-.14746.15039.27075.27075,0,0,1-.168.05176.38362.38362,0,0,1-.25195-.12207,3.27486,3.27486,0,0,0-.33887-.26563,2.70889,2.70889,0,0,0-.501-.2666,1.9349,1.9349,0,0,0-.73535-.12207,2.14867,2.14867,0,0,0-.79785.13965,1.729,1.729,0,0,0-.59082.38183,1.62488,1.62488,0,0,0-.36816.56348,1.88344,1.88344,0,0,0-.126.69238,1.076,1.076,0,0,0,.168.61328,1.54935,1.54935,0,0,0,.4414.42676,3.31568,3.31568,0,0,0,.626.31446c.23633.09179.47559.18457.71777.28027.24317.0957.48145.20215.71778.31836a2.5491,2.5491,0,0,1,.626.43457,2.00042,2.00042,0,0,1,.44141.623,2.08629,2.08629,0,0,1,.168.88184,3.71253,3.71253,0,0,1-.24512,1.34766,3.29334,3.29334,0,0,1-.70312,1.10937,3.36643,3.36643,0,0,1-1.10938.75586,3.67413,3.67413,0,0,1-1.46386.28027,3.5155,3.5155,0,0,1-1.59864-.35351,3.27392,3.27392,0,0,1-1.15918-.95606l.46192-.623a.47109.47109,0,0,1,.14062-.126.35666.35666,0,0,1,.18164-.04883.42788.42788,0,0,1,.28711.15723,4.65609,4.65609,0,0,0,.3916.35059,2.68742,2.68742,0,0,0,.58789.3496,2.12824,2.12824,0,0,0,.875.15723,2.35139,2.35139,0,0,0,.87207-.15332,1.82912,1.82912,0,0,0,1.07422-1.082,2.31056,2.31056,0,0,0,.14746-.84277,1.14706,1.14706,0,0,0-.168-.64063,1.46394,1.46394,0,0,0-.44141-.43066,3.26285,3.26285,0,0,0-.61914-.30469q-.34717-.12891-.71387-.2627a7.21328,7.21328,0,0,1-.71484-.30078,2.44442,2.44442,0,0,1-.61914-.42675,1.96138,1.96138,0,0,1-.44043-.63672,2.2891,2.2891,0,0,1-.16895-.93164,3.18972,3.18972,0,0,1,.22461-1.18262,3.0302,3.0302,0,0,1,.64356-1.001,3.12858,3.12858,0,0,1,1.02246-.69336,3.39878,3.39878,0,0,1,1.35742-.25879,3.17735,3.17735,0,0,1,1.38672.29395,2.80094,2.80094,0,0,1,1.01465.80469Z" style="fill:blue"/><path d="M180.17676,42.58105a1.9158,1.9158,0,0,1-.18848.85059,1.77287,1.77287,0,0,1-.69336.7002,5.1687,5.1687,0,0,1-1.38574.543,15.29734,15.29734,0,0,1-2.26856.37012c-.0039.05176-.00683.10156-.00683.15137v.15039a2.18422,2.18422,0,0,0,.41016,1.43066,1.512,1.512,0,0,0,1.23535.49414,2.326,2.326,0,0,0,.59863-.07031,2.59562,2.59562,0,0,0,.46875-.1709,2.14007,2.14007,0,0,0,.36426-.22461c.10449-.08105.20117-.15625.29-.22363s.16992-.125.24511-.17187a.41724.41724,0,0,1,.22364-.07032.308.308,0,0,1,.23144.11914l.30762.38575a6.37676,6.37676,0,0,1-.69629.63281,4.04528,4.04528,0,0,1-.69629.4375,3.107,3.107,0,0,1-.74609.25586,4.11043,4.11043,0,0,1-.83594.08008,2.7829,2.7829,0,0,1-1.0918-.20313,2.24512,2.24512,0,0,1-.81933-.57715,2.59265,2.59265,0,0,1-.51758-.90625,3.6396,3.6396,0,0,1-.18262-1.19043,5.26586,5.26586,0,0,1,.11524-1.08789,5.1364,5.1364,0,0,1,.33593-1.0332,4.70786,4.70786,0,0,1,.53907-.90918,3.63151,3.63151,0,0,1,.72851-.72461,3.39347,3.39347,0,0,1,.90332-.47949,3.13054,3.13054,0,0,1,1.06055-.17578,2.54824,2.54824,0,0,1,.93066.15429,1.973,1.973,0,0,1,.64356.39258,1.56856,1.56856,0,0,1,.375.52442A1.40444,1.40444,0,0,1,180.17676,42.58105Zm-2.1416-.7207a1.826,1.826,0,0,0-.8125.18164,2.156,2.156,0,0,0-.65723.501,3.03,3.03,0,0,0-.49023.749,4.47,4.47,0,0,0-.31543.92774,13.65657,13.65657,0,0,0,1.72949-.30469,4.31324,4.31324,0,0,0,1.001-.37109,1.084,1.084,0,0,0,.46192-.43067,1.10308,1.10308,0,0,0,.1123-.4834.70646.70646,0,0,0-.23535-.51074.96786.96786,0,0,0-.31836-.18555A1.36392,1.36392,0,0,0,178.03516,41.86035Z" style="fill:blue"/><path d="M185.50684,47.544a3.22,3.22,0,0,1-.6543.42382,2.64358,2.64358,0,0,1-.68262.22071,4.32691,4.32691,0,0,1-.75976.0625,2.64351,2.64351,0,0,1-1.08789-.21,2.14554,2.14554,0,0,1-.791-.59082,2.61782,2.61782,0,0,1-.4834-.917,4.01489,4.01489,0,0,1-.16406-1.17968,5.08761,5.08761,0,0,1,.26953-1.65235,4.64188,4.64188,0,0,1,.75195-1.39941,3.76571,3.76571,0,0,1,1.14844-.97364,3.00135,3.00135,0,0,1,1.46289-.36425,2.51453,2.51453,0,0,1,1.17578.249,2.46612,2.46612,0,0,1,.833.72461l-.3916.46875a.33855.33855,0,0,1-.10547.09082.26893.26893,0,0,1-.332-.05273,2.785,2.785,0,0,0-.24512-.19532,1.70015,1.70015,0,0,0-.37793-.19629,1.64386,1.64386,0,0,0-.585-.08789,1.72878,1.72878,0,0,0-.91308.2627,2.54446,2.54446,0,0,0-.75293.71777,3.67038,3.67038,0,0,0-.50684,1.07813,4.65167,4.65167,0,0,0-.18555,1.33691,2.939,2.939,0,0,0,.09766.78711,1.68583,1.68583,0,0,0,.29394.60254,1.35865,1.35865,0,0,0,.4795.38477,1.51259,1.51259,0,0,0,.66211.13671,2.15591,2.15591,0,0,0,.55957-.0664,2.21845,2.21845,0,0,0,.43359-.165,1.99139,1.99139,0,0,0,.333-.21289c.0957-.07715.18164-.14844.25879-.21387s.14746-.12012.21-.16406a.32914.32914,0,0,1,.19238-.06738.299.299,0,0,1,.23828.11914l.30762.37793A6.39536,6.39536,0,0,1,185.50684,47.544Z" style="fill:blue"/><path d="M191.56934,47.544a3.247,3.247,0,0,1-.6543.42382,2.64358,2.64358,0,0,1-.68262.22071,4.34294,4.34294,0,0,1-.75976.0625,2.64824,2.64824,0,0,1-1.08887-.21,2.16167,2.16167,0,0,1-.791-.59082,2.61634,2.61634,0,0,1-.48242-.917,3.982,3.982,0,0,1-.165-1.17968,5.08787,5.08787,0,0,1,.26953-1.65235,4.62275,4.62275,0,0,1,.75293-1.39941,3.76223,3.76223,0,0,1,1.14746-.97364,3.00512,3.00512,0,0,1,1.46387-.36425,2.51729,2.51729,0,0,1,1.17578.249,2.47536,2.47536,0,0,1,.833.72461l-.39258.46875a.32429.32429,0,0,1-.10449.09082.27027.27027,0,0,1-.333-.05273,2.64683,2.64683,0,0,0-.24511-.19532,1.658,1.658,0,0,0-.37793-.19629,1.63814,1.63814,0,0,0-.584-.08789,1.72965,1.72965,0,0,0-.91406.2627,2.55318,2.55318,0,0,0-.75195.71777,3.67166,3.67166,0,0,0-.50782,1.07813,4.686,4.686,0,0,0-.18554,1.33691,2.93768,2.93768,0,0,0,.09863.78711,1.66982,1.66982,0,0,0,.29394.60254,1.34169,1.34169,0,0,0,.4795.38477,1.50816,1.50816,0,0,0,.66113.13671,2.15591,2.15591,0,0,0,.55957-.0664,2.20473,2.20473,0,0,0,.43457-.165,1.98076,1.98076,0,0,0,.332-.21289c.0957-.07715.18262-.14844.25977-.21387a2.58558,2.58558,0,0,1,.21-.16406.32693.32693,0,0,1,.19238-.06738.29862.29862,0,0,1,.23731.11914l.30859.37793A6.58169,6.58169,0,0,1,191.56934,47.544Z" style="fill:blue"/><path d="M193.14062,48.15332l1.2461-10.31055h1.24609l-.58105,4.78711a4.19,4.19,0,0,1,1.22851-1.249,2.57438,2.57438,0,0,1,1.38282-.42383,1.50707,1.50707,0,0,1,1.23828.53223,2.39151,2.39151,0,0,1,.43457,1.54687c0,.09375-.00293.19043-.00684.291-.00488.09961-.01465.2041-.02832.31152l-.53223,4.51465h-1.24609l.53223-4.51465c.00879-.09375.01758-.18359.02441-.26953.00684-.08691.01074-.16894.01074-.249a1.39911,1.39911,0,0,0-.21386-.85352.79583.79583,0,0,0-.67578-.28027,1.40985,1.40985,0,0,0-.64747.17187,2.6264,2.6264,0,0,0-.64746.48633,4.11907,4.11907,0,0,0-.58789.75977,5.60711,5.60711,0,0,0-.47558.99023l-.45508,3.75879Z" style="fill:blue"/><path d="M202.752,41.0625l-.85449,7.09082h-1.22461l.85352-7.09082Zm.46875-2.22656a.79266.79266,0,0,1-.07324.33984,1.00669,1.00669,0,0,1-.19629.28027.95784.95784,0,0,1-.27637.19239.76646.76646,0,0,1-.32226.07031.75567.75567,0,0,1-.31543-.07031.85143.85143,0,0,1-.26856-.19239.97319.97319,0,0,1-.18554-.28027.82056.82056,0,0,1-.07031-.33984.84764.84764,0,0,1,.07031-.34278.9425.9425,0,0,1,.46191-.47949.723.723,0,0,1,.31446-.07324.7665.7665,0,0,1,.32226.07031.92131.92131,0,0,1,.27637.19238.88322.88322,0,0,1,.19238.28711A.8684.8684,0,0,1,203.2207,38.83594Z" style="fill:blue"/><path d="M151.0918,64.95312a.37755.37755,0,0,1-.332-.126.52422.52422,0,0,1-.08789-.30762l.13281-1.47754a5.70125,5.70125,0,0,1-.58106.82617,4.22417,4.22417,0,0,1-.66113.63379,2.9021,2.9021,0,0,1-.7207.40528,2.10864,2.10864,0,0,1-.75977.14355,1.66329,1.66329,0,0,1-1.41015-.66113,3.14268,3.14268,0,0,1-.501-1.92188,5.66029,5.66029,0,0,1,.11914-1.14746,5.91472,5.91472,0,0,1,.33984-1.09961,5.43114,5.43114,0,0,1,.53125-.97656,4.13487,4.13487,0,0,1,.69336-.78027,3.14187,3.14187,0,0,1,.8291-.51758,2.39106,2.39106,0,0,1,.93848-.18945,2.20218,2.20218,0,0,1,.94824.20312,2.03244,2.03244,0,0,1,.73145.58106l.4834-3.89844h1.22461l-1.27344,10.31054Zm-2.541-.90332a1.29082,1.29082,0,0,0,.67578-.20605,2.83729,2.83729,0,0,0,.65821-.57422,4.95874,4.95874,0,0,0,.59472-.875,6.964,6.964,0,0,0,.47949-1.10937l.23145-1.876a1.49089,1.49089,0,0,0-.6377-.52539,1.93945,1.93945,0,0,0-.749-.15332,1.63211,1.63211,0,0,0-.99707.3291,2.86,2.86,0,0,0-.75586.84961,4.42666,4.42666,0,0,0-.47949,1.166,4.99264,4.99264,0,0,0-.168,1.2666,2.23026,2.23026,0,0,0,.30078,1.2705A.96833.96833,0,0,0,148.55078,64.0498Z" style="fill:blue"/><path d="M155.9082,57.8623l-.85449,7.09082H153.8291l.85352-7.09082Zm.46875-2.22656a.79273.79273,0,0,1-.07324.33985,1.00683,1.00683,0,0,1-.19629.28027.9578.9578,0,0,1-.27637.19238.76631.76631,0,0,1-.32226.07031.75555.75555,0,0,1-.31543-.07031.8514.8514,0,0,1-.26856-.19238.97332.97332,0,0,1-.18554-.28027.82064.82064,0,0,1-.07031-.33985.84759.84759,0,0,1,.07031-.34277.9425.9425,0,0,1,.46191-.47949.723.723,0,0,1,.31445-.07325.76637.76637,0,0,1,.32227.07032.92131.92131,0,0,1,.27637.19238.88311.88311,0,0,1,.19238.28711A.86836.86836,0,0,1,156.377,55.63574Z" style="fill:blue"/><path d="M161.63379,58.99609a.44521.44521,0,0,1-.11133.12207.23875.23875,0,0,1-.14062.03907.38515.38515,0,0,1-.21289-.07715c-.07715-.05078-.1709-.1084-.28028-.17188a2.35827,2.35827,0,0,0-.40234-.1748,2.01639,2.01639,0,0,0-1.14844.00683,1.42994,1.42994,0,0,0-.44824.24219,1.06617,1.06617,0,0,0-.29.36035.98208.98208,0,0,0-.10156.4375.67.67,0,0,0,.21679.52442,2.00327,2.00327,0,0,0,.5459.33984c.21973.0957.45606.18848.71094.27637a3.64782,3.64782,0,0,1,.71.33594,1.80919,1.80919,0,0,1,.5459.51855,1.40675,1.40675,0,0,1,.21777.81836,2.3535,2.3535,0,0,1-.74609,1.72559,2.72554,2.72554,0,0,1-.86817.543,3.045,3.045,0,0,1-1.13671.20313,2.82737,2.82737,0,0,1-1.20118-.24219,2.49275,2.49275,0,0,1-.85058-.61914l.30859-.47558a.4288.4288,0,0,1,.13281-.14063.36316.36316,0,0,1,.19629-.04883.34519.34519,0,0,1,.22364.09766c.07421.06543.168.13965.28027.2207a1.71665,1.71665,0,0,0,1.07129.31836,1.72666,1.72666,0,0,0,.61914-.10449,1.44623,1.44623,0,0,0,.46875-.28027,1.16759,1.16759,0,0,0,.29394-.40918,1.25174,1.25174,0,0,0,.10157-.501.752.752,0,0,0-.2168-.56641,1.77558,1.77558,0,0,0-.5459-.35058q-.32958-.13917-.707-.2627a3.55361,3.55361,0,0,1-.707-.31445,1.70832,1.70832,0,0,1-.5459-.501,1.39293,1.39293,0,0,1-.2168-.81836,2.19189,2.19189,0,0,1,.17774-.86523,2.24516,2.24516,0,0,1,.51465-.73828,2.55293,2.55293,0,0,1,.81543-.51465,2.8947,2.8947,0,0,1,1.082-.19238,2.76579,2.76579,0,0,1,1.123.21386,2.604,2.604,0,0,1,.83692.57715Z" style="fill:blue"/><path d="M165.05664,54.64258l-.74219,6.06836h.21778a.60126.60126,0,0,0,.23047-.03809.64262.64262,0,0,0,.20312-.1582l2.34473-2.40039a1.49554,1.49554,0,0,1,.21679-.18262.4914.4914,0,0,1,.27344-.06934h1.09863l-2.73632,2.7793c-.07032.07422-.13965.14258-.207.20606a1.21011,1.21011,0,0,1-.2207.16406.85838.85838,0,0,1,.18945.19629c.05176.07519.10254.15625.1543.24511l2.12793,3.5h-1.07129a.48351.48351,0,0,1-.248-.05566.5138.5138,0,0,1-.17188-.18945l-1.80566-2.90528a.5665.5665,0,0,0-.17871-.18847.60544.60544,0,0,0-.28321-.04883H164.21l-.41308,3.38769h-1.23243L163.832,54.64258Z" style="fill:blue"/><path d="M177.14551,64.95312H176.501a.37873.37873,0,0,1-.332-.126.52422.52422,0,0,1-.0879-.30762l.126-1.4209a5.97182,5.97182,0,0,1-.542.80567,3.78109,3.78109,0,0,1-.61621.61523,2.70672,2.70672,0,0,1-.68262.39258,2.02644,2.02644,0,0,1-.74219.13867,1.746,1.746,0,0,1-.76269-.16406,1.58687,1.58687,0,0,1-.585-.4834,2.36984,2.36984,0,0,1-.374-.78418,3.882,3.882,0,0,1-.13281-1.06738,4.83246,4.83246,0,0,1,.15723-1.22852,5.00728,5.00728,0,0,1,1.14453-2.10644,4.70013,4.70013,0,0,1,.90625-.77051,4.32625,4.32625,0,0,1,1.07519-.50391,4.01931,4.01931,0,0,1,1.20411-.17871,5.167,5.167,0,0,1,.88476.0752,3.61978,3.61978,0,0,1,.85059.25781Zm-3.05176-.93847a1.23113,1.23113,0,0,0,.67187-.21,2.57421,2.57421,0,0,0,.623-.582,5.06507,5.06507,0,0,0,.54883-.88575,7.9327,7.9327,0,0,0,.45215-1.126l.30078-2.39844a.48544.48544,0,0,0-.30469-.124h-.29785a2.45757,2.45757,0,0,0-.81152.13574,2.89223,2.89223,0,0,0-.73535.38086,3.27826,3.27826,0,0,0-.62305.583,3.83926,3.83926,0,0,0-.47949.74316,4.24872,4.24872,0,0,0-.31153.8623,3.955,3.955,0,0,0-.11133.93848Q173.01562,64.01513,174.09375,64.01465Z" style="fill:blue"/><path d="M179.61621,63.61621c0-.02832.001-.06445.00391-.1084.002-.04492.00683-.1084.01367-.19238s.01758-.19434.03125-.3291c.01367-.13574.03516-.3125.06348-.53223l.44043-3.54883h-.791a.21906.21906,0,0,1-.15039-.05273.207.207,0,0,1-.05957-.16406c0-.01465.00293-.042.00683-.084q.00733-.063.01758-.14355c.00684-.05371.01465-.1084.02149-.165q.01024-.08351.01758-.16113l1.09179-.14649.52539-2.1914a.32949.32949,0,0,1,.10449-.1709.2771.2771,0,0,1,.18946-.06641h.65722l-.30761,2.44238h1.8623l-.10547.90332h-1.86914l-.42676,3.48633c-.02343.19141-.041.34473-.05273.46192-.01172.11621-.02051.21-.02734.27929-.00782.07031-.01172.11914-.01465.14746-.00195.02832-.00293.04883-.00293.0625a.74233.74233,0,0,0,.16406.5293.59472.59472,0,0,0,.45117.1709.90637.90637,0,0,0,.32227-.05274,1.3344,1.3344,0,0,0,.24219-.11523c.06738-.042.124-.08008.17089-.11523a.21914.21914,0,0,1,.126-.05274.13015.13015,0,0,1,.08789.02832.36331.36331,0,0,1,.06641.09082l.25879.59473a2.51437,2.51437,0,0,1-.77344.47265,2.39656,2.39656,0,0,1-.87891.17188,1.49412,1.49412,0,0,1-1.07031-.37109A1.452,1.452,0,0,1,179.61621,63.61621Z" style="fill:blue"/><path d="M187.11328,63.61621c0-.02832.001-.06445.00391-.1084.00195-.04492.00683-.1084.01367-.19238s.01758-.19434.03125-.3291c.01367-.13574.03516-.3125.06348-.53223l.44043-3.54883h-.791a.21906.21906,0,0,1-.15039-.05273.207.207,0,0,1-.05957-.16406c0-.01465.00293-.042.00684-.084q.00732-.063.01757-.14355c.00684-.05371.01465-.1084.02149-.165q.01024-.08351.01758-.16113l1.09179-.14649.52539-2.1914a.32944.32944,0,0,1,.1045-.1709.27705.27705,0,0,1,.18945-.06641h.65723l-.30762,2.44238h1.8623l-.10547.90332H188.877l-.42675,3.48633c-.02344.19141-.041.34473-.05274.46192-.01172.11621-.02051.21-.02734.27929-.00782.07031-.01172.11914-.01465.14746-.00195.02832-.00293.04883-.00293.0625a.74233.74233,0,0,0,.16406.5293.59472.59472,0,0,0,.45117.1709.90637.90637,0,0,0,.32227-.05274,1.3344,1.3344,0,0,0,.24219-.11523c.06738-.042.124-.08008.17089-.11523a.21914.21914,0,0,1,.126-.05274.13015.13015,0,0,1,.08789.02832.36331.36331,0,0,1,.06641.09082l.25879.59473a2.51437,2.51437,0,0,1-.77344.47265,2.39656,2.39656,0,0,1-.87891.17188,1.49414,1.49414,0,0,1-1.07031-.37109A1.452,1.452,0,0,1,187.11328,63.61621Z" style="fill:blue"/><path d="M191.34863,64.95312l1.24512-10.31054h1.24609l-.58105,4.78711a4.20144,4.20144,0,0,1,1.22851-1.249,2.57445,2.57445,0,0,1,1.38282-.42382,1.509,1.509,0,0,1,1.23926.53222,2.3973,2.3973,0,0,1,.43359,1.54688c0,.09375-.00195.19043-.00684.291-.00488.09961-.01367.2041-.02832.31153l-.53125,4.51464h-1.24609l.53125-4.51464c.00976-.09375.01758-.1836.02539-.26953.00684-.08692.00977-.169.00977-.249a1.4061,1.4061,0,0,0-.2129-.85351.797.797,0,0,0-.67578-.28028,1.40974,1.40974,0,0,0-.64746.17188,2.6264,2.6264,0,0,0-.64746.48633,4.07752,4.07752,0,0,0-.58789.75976,5.609,5.609,0,0,0-.47656.99024l-.45508,3.75878Z" style="fill:blue"/><path d="M204.38184,59.38086a1.91583,1.91583,0,0,1-.18848.85059,1.77292,1.77292,0,0,1-.69336.70019,5.16868,5.16868,0,0,1-1.38574.543,15.29865,15.29865,0,0,1-2.26856.37012c-.0039.05175-.00683.10156-.00683.15136v.15039a2.18433,2.18433,0,0,0,.41015,1.43067,1.51206,1.51206,0,0,0,1.23536.49414,2.32644,2.32644,0,0,0,.59863-.07031,2.59714,2.59714,0,0,0,.46875-.1709,2.1411,2.1411,0,0,0,.36426-.22461c.10449-.08106.20117-.15625.29-.22363s.16993-.125.24512-.17188a.4173.4173,0,0,1,.22363-.07031.308.308,0,0,1,.23145.11914l.30762.38574a6.37574,6.37574,0,0,1-.69629.63281,4.04467,4.04467,0,0,1-.69629.4375,3.107,3.107,0,0,1-.74609.25586,4.11043,4.11043,0,0,1-.83594.08008,2.78291,2.78291,0,0,1-1.0918-.20312,2.24536,2.24536,0,0,1-.81934-.57715,2.593,2.593,0,0,1-.51757-.90625,3.63964,3.63964,0,0,1-.18262-1.19043,5.26654,5.26654,0,0,1,.11523-1.08789,5.13694,5.13694,0,0,1,.33594-1.03321,4.70833,4.70833,0,0,1,.53906-.90918,3.63125,3.63125,0,0,1,.72852-.7246,3.39321,3.39321,0,0,1,.90332-.4795,3.13074,3.13074,0,0,1,1.06055-.17578,2.54823,2.54823,0,0,1,.93066.1543,1.97307,1.97307,0,0,1,.64356.39258,1.5687,1.5687,0,0,1,.375.52441A1.40449,1.40449,0,0,1,204.38184,59.38086Zm-2.14161-.7207a1.82589,1.82589,0,0,0-.8125.18164,2.15593,2.15593,0,0,0-.65722.501,3.03054,3.03054,0,0,0-.49024.749,4.47113,4.47113,0,0,0-.31543.92773,13.65677,13.65677,0,0,0,1.7295-.30469,4.313,4.313,0,0,0,1.001-.37109,1.084,1.084,0,0,0,.46192-.43066,1.10308,1.10308,0,0,0,.1123-.4834.70646.70646,0,0,0-.23535-.51074.968.968,0,0,0-.31836-.18555A1.3637,1.3637,0,0,0,202.24023,58.66016Z" style="fill:blue"/><path d="M146.35352,81.75391l1.24511-10.31055h1.22559l-.61621,5.01172a5.98586,5.98586,0,0,1,.57422-.78028,3.895,3.895,0,0,1,.64355-.59863,2.96317,2.96317,0,0,1,.7002-.38183,2.10115,2.10115,0,0,1,.74218-.13672,1.67292,1.67292,0,0,1,1.40723.6582,3.12489,3.12489,0,0,1,.50391,1.9248,5.66249,5.66249,0,0,1-.11914,1.14844,5.80907,5.80907,0,0,1-.33985,1.09571,5.37274,5.37274,0,0,1-.53222.97265,4.18417,4.18417,0,0,1-.69239.78418,3.08707,3.08707,0,0,1-.83008.52149,2.38554,2.38554,0,0,1-.9375.18847,2.19739,2.19739,0,0,1-1.02539-.2373,2.01113,2.01113,0,0,1-.75293-.67969l-.09082.45508a.66892.66892,0,0,1-.14355.27344.40248.40248,0,0,1-.29785.09082Zm4.04589-6.19532a1.29736,1.29736,0,0,0-.67968.21,2.85094,2.85094,0,0,0-.66114.58106,5.16477,5.16477,0,0,0-.59863.88184,6.88457,6.88457,0,0,0-.4834,1.12011l-.22363,1.8418a1.49862,1.49862,0,0,0,.63672.53516,1.93264,1.93264,0,0,0,.75683.15722,1.55846,1.55846,0,0,0,.68555-.15429,2.1645,2.1645,0,0,0,.58789-.416,3.02975,3.02975,0,0,0,.47656-.61621,4.31767,4.31767,0,0,0,.35352-.75586,5.247,5.247,0,0,0,.21973-.833,4.78407,4.78407,0,0,0,.07715-.85058,2.22191,2.22191,0,0,0-.30079-1.26661A.97137.97137,0,0,0,150.39941,75.55859Z" style="fill:blue"/><path d="M156.17383,81.85156a2.76479,2.76479,0,0,1-1.06348-.19922,2.3325,2.3325,0,0,1-.833-.57714,2.65846,2.65846,0,0,1-.54589-.92383,3.67146,3.67146,0,0,1-.19629-1.2461,5.02406,5.02406,0,0,1,.28027-1.6875,4.559,4.559,0,0,1,.7666-1.38574,3.64911,3.64911,0,0,1,1.14746-.93848,3.06634,3.06634,0,0,1,1.43164-.34277,2.76645,2.76645,0,0,1,1.06446.19922,2.35589,2.35589,0,0,1,.833.57812,2.67036,2.67036,0,0,1,.5459.92774,3.70083,3.70083,0,0,1,.19531,1.24219,4.99851,4.99851,0,0,1-.27929,1.67968,4.601,4.601,0,0,1-.7666,1.38575,3.6566,3.6566,0,0,1-1.15137.94238A3.05342,3.05342,0,0,1,156.17383,81.85156Zm.1123-.97265a1.64059,1.64059,0,0,0,.93067-.28028,2.4385,2.4385,0,0,0,.71386-.74511,3.83754,3.83754,0,0,0,.45508-1.07422,4.96514,4.96514,0,0,0,.16114-1.27442,2.38214,2.38214,0,0,0-.38477-1.47656,1.32221,1.32221,0,0,0-1.11328-.49707,1.65335,1.65335,0,0,0-.93457.27637,2.43991,2.43991,0,0,0-.71.74218,3.81311,3.81311,0,0,0-.45508,1.07422,4.96307,4.96307,0,0,0-.16113,1.27344,2.41055,2.41055,0,0,0,.38183,1.48047A1.31558,1.31558,0,0,0,156.28613,80.87891Z" style="fill:blue"/><path d="M161.29785,80.417c0-.02832.001-.06445.00391-.1084.00195-.04492.00683-.10839.01367-.19238s.01758-.19433.03125-.3291c.01367-.13574.03516-.3125.06348-.53223l.44043-3.54883h-.791a.21906.21906,0,0,1-.15039-.05273.207.207,0,0,1-.05957-.16406c0-.01465.00293-.042.00684-.084q.00732-.063.01757-.14355c.00684-.05371.01465-.1084.02149-.165q.01024-.08349.01758-.16113l1.09179-.14649.52539-2.1914a.32944.32944,0,0,1,.1045-.1709.2771.2771,0,0,1,.18945-.06641h.65723l-.30762,2.44238h1.8623l-.10547.90332h-1.86914l-.42675,3.48633c-.02344.19141-.041.34473-.05274.46192-.01172.11621-.02051.21-.02734.27929-.00781.07032-.01172.11914-.01465.14746-.00195.02833-.00293.04883-.00293.0625a.74231.74231,0,0,0,.16406.5293.59472.59472,0,0,0,.45117.1709.90659.90659,0,0,0,.32227-.05273,1.3344,1.3344,0,0,0,.24219-.11524c.06738-.042.124-.08008.1709-.11523a.21909.21909,0,0,1,.126-.05274.13015.13015,0,0,1,.08789.02832.36331.36331,0,0,1,.06641.09082l.25879.59473a2.51459,2.51459,0,0,1-.77344.47266,2.39675,2.39675,0,0,1-.87891.17187,1.49414,1.49414,0,0,1-1.07031-.37109A1.452,1.452,0,0,1,161.29785,80.417Z" style="fill:blue"/><path d="M166.09277,80.417c0-.02832.001-.06445.00391-.1084.002-.04492.00684-.10839.01367-.19238s.01758-.19433.03125-.3291c.01367-.13574.03516-.3125.06348-.53223l.44043-3.54883h-.791a.21908.21908,0,0,1-.15039-.05273.207.207,0,0,1-.05957-.16406c0-.01465.00293-.042.00684-.084q.00732-.063.01758-.14355c.00683-.05371.01464-.1084.02148-.165q.01026-.08349.01758-.16113l1.09179-.14649.5254-2.1914a.32936.32936,0,0,1,.10449-.1709.27714.27714,0,0,1,.18945-.06641h.65723l-.30762,2.44238h1.8623l-.10546.90332h-1.86914l-.42676,3.48633c-.02344.19141-.041.34473-.05274.46192-.01172.11621-.0205.21-.02734.27929-.00781.07032-.01172.11914-.01465.14746-.00195.02833-.00293.04883-.00293.0625a.74231.74231,0,0,0,.16406.5293.59473.59473,0,0,0,.45118.1709.90654.90654,0,0,0,.32226-.05273,1.3344,1.3344,0,0,0,.24219-.11524c.06738-.042.124-.08008.1709-.11523a.21909.21909,0,0,1,.126-.05274.13015.13015,0,0,1,.08789.02832.36331.36331,0,0,1,.06641.09082l.25879.59473a2.51447,2.51447,0,0,1-.77344.47266,2.39674,2.39674,0,0,1-.8789.17187,1.49416,1.49416,0,0,1-1.07032-.37109A1.452,1.452,0,0,1,166.09277,80.417Z" style="fill:blue"/><path d="M172.79883,81.85156a2.76618,2.76618,0,0,1-1.06445-.19922,2.341,2.341,0,0,1-.833-.57714,2.67343,2.67343,0,0,1-.5459-.92383,3.67146,3.67146,0,0,1-.19629-1.2461,5.02406,5.02406,0,0,1,.28027-1.6875,4.58014,4.58014,0,0,1,.7666-1.38574,3.64193,3.64193,0,0,1,1.14844-.93848,3.06348,3.06348,0,0,1,1.43164-.34277,2.765,2.765,0,0,1,1.06348.19922,2.3473,2.3473,0,0,1,.833.57812,2.65553,2.65553,0,0,1,.5459.92774,3.67609,3.67609,0,0,1,.19628,1.24219,4.999,4.999,0,0,1-.28027,1.67968,4.57964,4.57964,0,0,1-.7666,1.38575,3.6566,3.6566,0,0,1-1.15137.94238A3.04951,3.04951,0,0,1,172.79883,81.85156Zm.1123-.97265a1.64511,1.64511,0,0,0,.93067-.28028,2.44984,2.44984,0,0,0,.71386-.74511,3.83754,3.83754,0,0,0,.45508-1.07422,4.96514,4.96514,0,0,0,.16114-1.27442,2.38857,2.38857,0,0,0-.38477-1.47656,1.32221,1.32221,0,0,0-1.11328-.49707,1.64883,1.64883,0,0,0-.93457.27637,2.44271,2.44271,0,0,0-.71094.74218,3.84171,3.84171,0,0,0-.45508,1.07422,4.96287,4.96287,0,0,0-.16015,1.27344,2.41733,2.41733,0,0,0,.38086,1.48047A1.31865,1.31865,0,0,0,172.91113,80.87891Z" style="fill:blue"/><path d="M177.30664,81.75391l.85449-7.09766h.623a.37129.37129,0,0,1,.41992.41992l-.09863,1.2666a4.3886,4.3886,0,0,1,1.14844-1.333,2.20006,2.20006,0,0,1,1.31543-.45215,1.20612,1.20612,0,0,1,1.06445.49414,2.45559,2.45559,0,0,1,.34277,1.41015,4.15651,4.15651,0,0,1,1.19336-1.43847,2.37763,2.37763,0,0,1,1.38965-.46582,1.38025,1.38025,0,0,1,1.17285.51172,2.39111,2.39111,0,0,1,.38867,1.46972c0,.10742-.00488.21973-.01464.33594-.00879.11621-.02051.23828-.03418.36426L186.54,81.75391h-1.22559l.53223-4.51465a5.10177,5.10177,0,0,0,.042-.62305,1.35955,1.35955,0,0,0-.1748-.77344.66846.66846,0,0,0-.58789-.249,1.34719,1.34719,0,0,0-.60254.15039,2.18685,2.18685,0,0,0-.58106.44141,3.49754,3.49754,0,0,0-.52148.7207,5.92436,5.92436,0,0,0-.42969.99023l-.45508,3.85743h-1.23242l.53906-4.51465q.02052-.189.03516-.35742c.00879-.11231.01367-.2168.01367-.31446a1.30926,1.30926,0,0,0-.16406-.73535.65323.65323,0,0,0-.57813-.23828,1.356,1.356,0,0,0-.64746.168,2.14333,2.14333,0,0,0-.58789.48633,4.00565,4.00565,0,0,0-.51465.77734,7.63547,7.63547,0,0,0-.43359,1.03223l-.44141,3.69629Z" style="fill:blue"/></g></svg>