<svg id="turbidity_40_-_2B" data-name="turbidity 40 - 2B" xmlns="http://www.w3.org/2000/svg" viewBox="0 0 226 200"><rect id="back" width="226" height="200" style="fill:none"/><g id="bucket"><g id="bucket-2" data-name="bucket"><circle cx="93" cy="58.56543" r="46.5" style="fill:#fff"/><path d="M93,12.5652a46,46,0,1,1-46,46,46.05209,46.05209,0,0,1,46-46m0-1a47,47,0,1,0,47,47,47,47,0,0,0-47-47Z" style="fill:#333"/></g><path id="inner_lip" data-name="inner lip" d="M93,15.3152a43.25,43.25,0,1,1-43.25,43.25A43.299,43.299,0,0,1,93,15.3152m0-.75a44,44,0,1,0,44,44,44,44,0,0,0-44-44Z" style="fill:#333;fill-opacity:0.35000000000000003"/><path id="bottom" d="M93,33A29,29,0,1,1,64,62,29.03284,29.03284,0,0,1,93,33m0-.5A29.5,29.5,0,1,0,122.5,62,29.5,29.5,0,0,0,93,32.5Z" style="fill:#333;fill-opacity:0.25"/><g id="water"><circle cx="93" cy="58.56543" r="37.75" style="fill:#d1eef3;opacity:0.25"/><circle cx="93" cy="58.56543" r="37.75" style="fill:#e2e2e2;opacity:0.25"/><path d="M93,21.0652a37.5,37.5,0,1,1-37.5,37.5,37.54247,37.54247,0,0,1,37.5-37.5m0-.5a38,38,0,1,0,38,38,38,38,0,0,0-38-38Z" style="fill:#d1eef3"/><path d="M93,21.0652a37.5,37.5,0,1,1-37.5,37.5,37.54247,37.54247,0,0,1,37.5-37.5m0-.5a38,38,0,1,0,38,38,38,38,0,0,0-38-38Z" style="fill:#e2e2e2;opacity:0.5"/></g><g id="disk-40"><g id="Oval"><circle cx="90.3642" cy="71.1854" r="7.08027" style="fill:#d1eef3;opacity:0.25"/><circle cx="90.3642" cy="71.1854" r="7.08027" style="fill:#e2e2e2;opacity:0.25"/><path d="M90.375,78.519a7.35592,7.35592,0,0,1-2.03125-.28759A7.2839,7.2839,0,1,1,90.375,78.519Zm-.00781-14.16455a6.8322,6.8322,0,1,0,1.87988.26514A6.84375,6.84375,0,0,0,90.36719,64.35449Z" style="fill:#646464"/></g><path id="Oval-2" data-name="Oval" d="M90.3642,71.1854l1.95159-6.806a7.08028,7.08028,0,0,0-8.75758,4.85441Z" style="fill:#646464;fill-rule:evenodd"/><path id="Oval-3" data-name="Oval" d="M90.3642,71.1854l-1.95158,6.806a7.08026,7.08026,0,0,0,8.75757-4.8544Z" style="fill:#646464;fill-rule:evenodd"/></g></g><g style="isolation:isolate"><path d="M150.55273,45.0083a3.94717,3.94717,0,0,0,.81934-.07715,3.718,3.718,0,0,0,.62988-.18945,2.35419,2.35419,0,0,0,.46582-.248c.12793-.09082.24024-.17383.33594-.249.0957-.07422.17578-.1377.24121-.18848a.29642.29642,0,0,1,.17481-.07715.20564.20564,0,0,1,.10547.02442.26163.26163,0,0,1,.07031.05957l.4541.56738a4.51735,4.51735,0,0,1-3.51367,1.50488,3.87438,3.87438,0,0,1-1.61035-.32226,3.417,3.417,0,0,1-1.207-.89942,4.01946,4.01946,0,0,1-.75585-1.376,5.59658,5.59658,0,0,1-.2627-1.75684,6.78738,6.78738,0,0,1,.40625-2.39355,5.70681,5.70681,0,0,1,1.11621-1.86621,4.97707,4.97707,0,0,1,3.73438-1.64063,4.72608,4.72608,0,0,1,.96582.09082,3.347,3.347,0,0,1,.791.26563,3.16427,3.16427,0,0,1,.64746.41992,4.48061,4.48061,0,0,1,.543.5459l-.44824.5459a.5237.5237,0,0,1-.126.11621.3143.3143,0,0,1-.1748.04492.38952.38952,0,0,1-.26563-.13965,2.64955,2.64955,0,0,0-.38183-.30469,2.70272,2.70272,0,0,0-1.61328-.44433,3.59241,3.59241,0,0,0-1.51954.32519,3.542,3.542,0,0,0-1.2246.93164,4.46931,4.46931,0,0,0-.81543,1.46582,5.89883,5.89883,0,0,0-.29786,1.93262,4.42519,4.42519,0,0,0,.20313,1.39258,3.14831,3.14831,0,0,0,.56348,1.04687,2.46257,2.46257,0,0,0,.85742.66114A2.55359,2.55359,0,0,0,150.55273,45.0083Z" style="fill:blue"/><path d="M154.99121,46.023l1.24512-10.31055h1.24609l-.58105,4.78711a4.2014,4.2014,0,0,1,1.22851-1.249,2.57438,2.57438,0,0,1,1.38282-.42383,1.509,1.509,0,0,1,1.23925.53223,2.39721,2.39721,0,0,1,.4336,1.54687c0,.09375-.002.19043-.00684.291-.00488.09961-.01367.2041-.02832.31152l-.53125,4.51465h-1.24609l.53125-4.51465c.00976-.09375.01758-.18359.02539-.26953.00683-.08691.00976-.169.00976-.249a1.40619,1.40619,0,0,0-.21289-.85352.797.797,0,0,0-.67578-.28027,1.40972,1.40972,0,0,0-.64746.17187,2.6264,2.6264,0,0,0-.64746.48633,4.07728,4.07728,0,0,0-.58789.75977,5.60853,5.60853,0,0,0-.47656.99023l-.45508,3.75879Z" style="fill:blue"/><path d="M164.88184,46.12061a2.76645,2.76645,0,0,1-1.06446-.19922,2.341,2.341,0,0,1-.833-.57715,2.67334,2.67334,0,0,1-.5459-.92383,3.67144,3.67144,0,0,1-.19629-1.24609,5.024,5.024,0,0,1,.28027-1.6875,4.57964,4.57964,0,0,1,.7666-1.38575,3.64165,3.64165,0,0,1,1.14844-.93847,3.06337,3.06337,0,0,1,1.43164-.34278,2.765,2.765,0,0,1,1.06348.19922,2.34716,2.34716,0,0,1,.833.57813,2.65539,2.65539,0,0,1,.5459.92773,3.67613,3.67613,0,0,1,.19629,1.24219,4.99907,4.99907,0,0,1-.28027,1.67969,4.57959,4.57959,0,0,1-.7666,1.38574,3.65647,3.65647,0,0,1-1.15137.94238A3.04955,3.04955,0,0,1,164.88184,46.12061Zm.1123-.97266a1.64515,1.64515,0,0,0,.93066-.28027,2.44991,2.44991,0,0,0,.71387-.74512,3.83754,3.83754,0,0,0,.45508-1.07422,4.96506,4.96506,0,0,0,.16113-1.27441,2.38861,2.38861,0,0,0-.38476-1.47657,1.32221,1.32221,0,0,0-1.11328-.49707,1.64883,1.64883,0,0,0-.93457.27637,2.44264,2.44264,0,0,0-.71094.74219,3.84158,3.84158,0,0,0-.45508,1.07422,4.9628,4.9628,0,0,0-.16016,1.27343A2.41739,2.41739,0,0,0,163.877,44.647,1.31866,1.31866,0,0,0,164.99414,45.148Z" style="fill:blue"/><path d="M171.917,46.12061a2.7664,2.7664,0,0,1-1.06445-.19922,2.34116,2.34116,0,0,1-.833-.57715,2.67334,2.67334,0,0,1-.5459-.92383,3.67144,3.67144,0,0,1-.19629-1.24609,5.02373,5.02373,0,0,1,.28028-1.6875,4.57964,4.57964,0,0,1,.7666-1.38575,3.64165,3.64165,0,0,1,1.14844-.93847,3.06334,3.06334,0,0,1,1.43164-.34278,2.76489,2.76489,0,0,1,1.06347.19922,2.3472,2.3472,0,0,1,.833.57813,2.65539,2.65539,0,0,1,.5459.92773,3.67613,3.67613,0,0,1,.19629,1.24219,4.99907,4.99907,0,0,1-.28027,1.67969,4.57982,4.57982,0,0,1-.76661,1.38574,3.65632,3.65632,0,0,1-1.15136.94238A3.04956,3.04956,0,0,1,171.917,46.12061Zm.11231-.97266a1.64515,1.64515,0,0,0,.93066-.28027,2.45,2.45,0,0,0,.71387-.74512,3.83783,3.83783,0,0,0,.45508-1.07422,4.96506,4.96506,0,0,0,.16113-1.27441,2.38861,2.38861,0,0,0-.38477-1.47657,1.32219,1.32219,0,0,0-1.11328-.49707,1.64888,1.64888,0,0,0-.93457.27637,2.44276,2.44276,0,0,0-.71094.74219,3.84157,3.84157,0,0,0-.45507,1.07422,4.96236,4.96236,0,0,0-.16016,1.27343,2.41733,2.41733,0,0,0,.38086,1.48047A1.31863,1.31863,0,0,0,172.0293,45.148Z" style="fill:blue"/><path d="M180.98828,40.06592a.44536.44536,0,0,1-.11133.12207.23874.23874,0,0,1-.14062.03906.38515.38515,0,0,1-.21289-.07715c-.07715-.05078-.1709-.1084-.28028-.17187a2.35824,2.35824,0,0,0-.40234-.17481,2.01628,2.01628,0,0,0-1.14844.00684,1.42985,1.42985,0,0,0-.44824.24219,1.06607,1.06607,0,0,0-.29.36035.982.982,0,0,0-.10156.4375.67.67,0,0,0,.2168.52441,2.00331,2.00331,0,0,0,.54589.33985c.21973.0957.45606.18847.71094.27636a3.64782,3.64782,0,0,1,.71.33594,1.80919,1.80919,0,0,1,.5459.51855,1.4068,1.4068,0,0,1,.21777.81836,2.3535,2.3535,0,0,1-.74609,1.72559,2.72552,2.72552,0,0,1-.86816.543,3.04526,3.04526,0,0,1-1.13672.20312,2.82744,2.82744,0,0,1-1.20117-.24218,2.49292,2.49292,0,0,1-.85059-.61914l.30859-.47559a.42882.42882,0,0,1,.13282-.14063.3632.3632,0,0,1,.19629-.04882.34517.34517,0,0,1,.22363.09765c.07422.06543.168.13965.28027.22071a1.71665,1.71665,0,0,0,1.07129.31836,1.7264,1.7264,0,0,0,.61914-.1045,1.44606,1.44606,0,0,0,.46875-.28027,1.16765,1.16765,0,0,0,.29395-.40918,1.25187,1.25187,0,0,0,.10156-.501.752.752,0,0,0-.2168-.5664,1.77542,1.77542,0,0,0-.5459-.35059q-.32958-.13916-.707-.26269a3.55421,3.55421,0,0,1-.707-.31446,1.7085,1.7085,0,0,1-.5459-.501,1.39293,1.39293,0,0,1-.21679-.81836,2.1921,2.1921,0,0,1,.17773-.86524,2.24551,2.24551,0,0,1,.51465-.73828,2.5531,2.5531,0,0,1,.81543-.51465,2.8947,2.8947,0,0,1,1.082-.19238,2.76588,2.76588,0,0,1,1.12305.21387,2.604,2.604,0,0,1,.83691.57715Z" style="fill:blue"/><path d="M187.54,40.45068a1.9158,1.9158,0,0,1-.18848.85059,1.77272,1.77272,0,0,1-.69336.70019,5.16821,5.16821,0,0,1-1.38574.543,15.2974,15.2974,0,0,1-2.26855.37012c-.00391.05176-.00684.10156-.00684.15137v.15039a2.18422,2.18422,0,0,0,.41016,1.43066,1.512,1.512,0,0,0,1.23535.49414,2.326,2.326,0,0,0,.59863-.07031,2.59506,2.59506,0,0,0,.46875-.1709,2.1407,2.1407,0,0,0,.36426-.22461c.10449-.081.20117-.15625.29-.22363s.16992-.125.24512-.17187a.41718.41718,0,0,1,.22363-.07032.308.308,0,0,1,.23144.11914l.30762.38575a6.37583,6.37583,0,0,1-.69629.63281,4.04528,4.04528,0,0,1-.69629.4375,3.107,3.107,0,0,1-.74609.25586,4.11043,4.11043,0,0,1-.83594.08008,2.7829,2.7829,0,0,1-1.0918-.20313,2.24524,2.24524,0,0,1-.81933-.57715,2.5929,2.5929,0,0,1-.51758-.90625,3.6396,3.6396,0,0,1-.18262-1.19043,5.26655,5.26655,0,0,1,.11524-1.08789,5.137,5.137,0,0,1,.33593-1.0332,4.70837,4.70837,0,0,1,.53907-.90918,3.63151,3.63151,0,0,1,.72851-.72461,3.39319,3.39319,0,0,1,.90332-.47949,3.13054,3.13054,0,0,1,1.06055-.17578,2.5482,2.5482,0,0,1,.93066.15429,1.973,1.973,0,0,1,.64356.39258,1.56846,1.56846,0,0,1,.375.52442A1.40444,1.40444,0,0,1,187.54,40.45068Zm-2.1416-.7207a1.826,1.826,0,0,0-.8125.18164,2.156,2.156,0,0,0-.65723.501,3.03,3.03,0,0,0-.49023.749,4.46985,4.46985,0,0,0-.31543.92774,13.65657,13.65657,0,0,0,1.72949-.30469,4.313,4.313,0,0,0,1.001-.3711,1.084,1.084,0,0,0,.46191-.43066,1.10308,1.10308,0,0,0,.1123-.4834.70646.70646,0,0,0-.23535-.51074.96786.96786,0,0,0-.31836-.18555A1.36368,1.36368,0,0,0,185.39844,39.73Z" style="fill:blue"/><path d="M191.64258,44.686c0-.02833.001-.06446.0039-.1084.002-.04493.00684-.1084.01368-.19239s.01757-.19433.03125-.3291c.01367-.13574.03515-.3125.06347-.53222l.44043-3.54883h-.791a.21907.21907,0,0,1-.15039-.05274.207.207,0,0,1-.05957-.16406c0-.01465.00293-.042.00683-.084q.00732-.063.01758-.14356c.00684-.05371.01465-.1084.02148-.165q.01026-.08349.01758-.16113l1.0918-.14648.52539-2.19141a.3294.3294,0,0,1,.10449-.1709.27714.27714,0,0,1,.18946-.06641h.65722l-.30762,2.44239h1.86231l-.10547.90332h-1.86914l-.42676,3.48633c-.02344.1914-.041.34472-.05273.46191-.01172.11621-.02051.21-.02735.2793-.00781.07031-.01171.11914-.01464.14746-.002.02832-.00293.04883-.00293.0625a.74224.74224,0,0,0,.16406.52929.59469.59469,0,0,0,.45117.1709.90663.90663,0,0,0,.32227-.05273,1.33362,1.33362,0,0,0,.24218-.11524c.06739-.042.124-.08007.1709-.11523a.21912.21912,0,0,1,.126-.05273.13012.13012,0,0,1,.08789.02832.36293.36293,0,0,1,.06641.09082l.25878.59472a2.51442,2.51442,0,0,1-.77343.47266,2.39658,2.39658,0,0,1-.87891.17187,1.49412,1.49412,0,0,1-1.07031-.37109A1.452,1.452,0,0,1,191.64258,44.686Z" style="fill:blue"/><path d="M195.87793,46.023l1.24512-10.31055h1.24609l-.581,4.78711a4.2014,4.2014,0,0,1,1.22851-1.249,2.57435,2.57435,0,0,1,1.38281-.42383,1.509,1.509,0,0,1,1.23926.53223,2.39727,2.39727,0,0,1,.4336,1.54687c0,.09375-.002.19043-.00684.291-.00488.09961-.01367.2041-.02832.31152l-.53125,4.51465h-1.24609l.53125-4.51465c.00976-.09375.01757-.18359.02539-.26953.00683-.08691.00976-.169.00976-.249a1.40619,1.40619,0,0,0-.21289-.85352.79705.79705,0,0,0-.67579-.28027,1.40972,1.40972,0,0,0-.64745.17187,2.6264,2.6264,0,0,0-.64746.48633,4.07728,4.07728,0,0,0-.58789.75977,5.60925,5.60925,0,0,0-.47657.99023l-.45507,3.75879Z" style="fill:blue"/><path d="M208.91113,40.45068a1.91593,1.91593,0,0,1-.18847.85059,1.77286,1.77286,0,0,1-.69336.70019,5.16829,5.16829,0,0,1-1.38575.543,15.2974,15.2974,0,0,1-2.26855.37012c-.00391.05176-.00684.10156-.00684.15137v.15039a2.18422,2.18422,0,0,0,.41016,1.43066,1.512,1.512,0,0,0,1.23535.49414,2.326,2.326,0,0,0,.59863-.07031,2.59506,2.59506,0,0,0,.46875-.1709,2.1407,2.1407,0,0,0,.36426-.22461c.10449-.081.20117-.15625.29-.22363s.16992-.125.24512-.17187a.4172.4172,0,0,1,.22363-.07032.308.308,0,0,1,.23145.11914l.30761.38575a6.37579,6.37579,0,0,1-.69628.63281,4.04566,4.04566,0,0,1-.69629.4375,3.107,3.107,0,0,1-.7461.25586,4.11043,4.11043,0,0,1-.83594.08008,2.78285,2.78285,0,0,1-1.09179-.20313,2.24519,2.24519,0,0,1-.81934-.57715,2.59305,2.59305,0,0,1-.51758-.90625,3.63961,3.63961,0,0,1-.18261-1.19043,5.26654,5.26654,0,0,1,.11523-1.08789,5.13642,5.13642,0,0,1,.33594-1.0332,4.70833,4.70833,0,0,1,.53906-.90918,3.6313,3.6313,0,0,1,.72852-.72461,3.39319,3.39319,0,0,1,.90332-.47949,3.13048,3.13048,0,0,1,1.06054-.17578,2.54829,2.54829,0,0,1,.93067.15429,1.973,1.973,0,0,1,.64355.39258,1.56846,1.56846,0,0,1,.375.52442A1.40426,1.40426,0,0,1,208.91113,40.45068Zm-2.1416-.7207a1.826,1.826,0,0,0-.8125.18164,2.156,2.156,0,0,0-.65723.501,3.03054,3.03054,0,0,0-.49023.749,4.471,4.471,0,0,0-.31543.92774,13.65657,13.65657,0,0,0,1.72949-.30469,4.31284,4.31284,0,0,0,1.001-.3711,1.08388,1.08388,0,0,0,.46191-.43066,1.10309,1.10309,0,0,0,.11231-.4834.70646.70646,0,0,0-.23535-.51074.968.968,0,0,0-.31836-.18555A1.36374,1.36374,0,0,0,206.76953,39.73Z" style="fill:blue"/><path d="M146.3252,55.73193H147.333a.31452.31452,0,0,1,.22363.07715.32183.32183,0,0,1,.10547.18164l1.05664,4.56446a4.485,4.485,0,0,1,.08105.51757c.01563.17286.0293.34278.03809.51075q.07764-.252.16113-.50684a4.37782,4.37782,0,0,1,.21-.52148l2.19825-4.56446a.51771.51771,0,0,1,.15429-.18554.35014.35014,0,0,1,.2168-.07325h.97266l-3.55567,7.09082h-1.043Z" style="fill:blue"/><path d="M157.99414,62.82275h-.64355a.38078.38078,0,0,1-.333-.126.53093.53093,0,0,1-.08692-.30762l.126-1.4209a5.88515,5.88515,0,0,1-.543.80567,3.73875,3.73875,0,0,1-.61523.61523,2.7414,2.7414,0,0,1-.68262.39258,2.02644,2.02644,0,0,1-.74219.13867,1.74293,1.74293,0,0,1-.76269-.16406,1.57918,1.57918,0,0,1-.585-.4834,2.33205,2.33205,0,0,1-.374-.78418,3.8801,3.8801,0,0,1-.13379-1.06738,4.78968,4.78968,0,0,1,.15821-1.22852,4.97872,4.97872,0,0,1,1.14453-2.10644,4.67094,4.67094,0,0,1,.90625-.77051,4.30358,4.30358,0,0,1,1.07422-.50391,4.02859,4.02859,0,0,1,1.2041-.17871,5.17,5.17,0,0,1,.88574.0752,3.61931,3.61931,0,0,1,.85059.25781Zm-3.05176-.93847a1.22876,1.22876,0,0,0,.67188-.21,2.55669,2.55669,0,0,0,.623-.582,5.06633,5.06633,0,0,0,.54981-.88575,8.05032,8.05032,0,0,0,.45117-1.126l.30078-2.39844a.48512.48512,0,0,0-.30371-.124h-.29785a2.45912,2.45912,0,0,0-.8125.13574,2.90279,2.90279,0,0,0-.73438.38086,3.27877,3.27877,0,0,0-.623.583,3.79365,3.79365,0,0,0-.47949.74317,4.19069,4.19069,0,0,0-.31153.8623,3.90618,3.90618,0,0,0-.1123.93848Q153.86426,61.88477,154.94238,61.88428Z" style="fill:blue"/><path d="M159.96875,62.82275l1.25293-10.31054h1.22461l-1.25293,10.31054Z" style="fill:blue"/><path d="M165.15527,55.73193l-.53222,4.50782c-.00977.09375-.01758.18164-.02442.26562s-.01074.166-.01074.24512a1.40231,1.40231,0,0,0,.21387.85449.79334.79334,0,0,0,.6748.2793,1.43483,1.43483,0,0,0,.66211-.17481,2.61944,2.61944,0,0,0,.65821-.49707,4.08084,4.08084,0,0,0,.59082-.77636,5.81187,5.81187,0,0,0,.47656-1.01563l.44043-3.68848H169.544l-.85352,7.09082h-.61621a.514.514,0,0,1-.33594-.09765.36641.36641,0,0,1-.11914-.30176c0-.00391.002-.0459.00684-.126.00488-.0791.01074-.165.01757-.25879.00684-.09277.01368-.17968.02051-.25878.00782-.07911.01074-.1211.01074-.126l.04883-.56738a4.43345,4.43345,0,0,1-1.2666,1.36914,2.57031,2.57031,0,0,1-1.44238.46484,1.49357,1.49357,0,0,1-1.22852-.53906,2.40425,2.40425,0,0,1-.4375-1.54688c0-.09277.00293-.18847.00782-.28711.0039-.09765.01367-.20019.02734-.30761l.53223-4.50782Z" style="fill:blue"/><path d="M176.19336,57.25049a1.91576,1.91576,0,0,1-.18848.85058,1.77281,1.77281,0,0,1-.69336.7002,5.16854,5.16854,0,0,1-1.38574.543,15.29872,15.29872,0,0,1-2.26855.37012c-.00391.05175-.00684.10156-.00684.15136v.15039a2.18427,2.18427,0,0,0,.41016,1.43067,1.512,1.512,0,0,0,1.23535.49414,2.32644,2.32644,0,0,0,.59863-.07031,2.59658,2.59658,0,0,0,.46875-.1709,2.1407,2.1407,0,0,0,.36426-.22461c.10449-.08106.20117-.15625.29-.22364s.16992-.125.24512-.17187a.41716.41716,0,0,1,.22363-.07031.308.308,0,0,1,.23144.11914l.30762.38574a6.37481,6.37481,0,0,1-.69629.63281,4.04467,4.04467,0,0,1-.69629.4375,3.107,3.107,0,0,1-.74609.25586,4.11043,4.11043,0,0,1-.83594.08008,2.78291,2.78291,0,0,1-1.0918-.20312,2.24524,2.24524,0,0,1-.81933-.57715,2.593,2.593,0,0,1-.51758-.90625,3.63969,3.63969,0,0,1-.18262-1.19043,5.26648,5.26648,0,0,1,.11524-1.08789,5.13692,5.13692,0,0,1,.33593-1.03321,4.70837,4.70837,0,0,1,.53907-.90918,3.63177,3.63177,0,0,1,.72851-.72461,3.39347,3.39347,0,0,1,.90332-.47949,3.13054,3.13054,0,0,1,1.06055-.17578,2.54819,2.54819,0,0,1,.93066.1543,1.973,1.973,0,0,1,.64356.39258,1.56842,1.56842,0,0,1,.375.52441A1.40449,1.40449,0,0,1,176.19336,57.25049Zm-2.1416-.7207a1.82583,1.82583,0,0,0-.8125.18164,2.156,2.156,0,0,0-.65723.501,3.03023,3.03023,0,0,0-.49023.749,4.47,4.47,0,0,0-.31543.92773,13.65657,13.65657,0,0,0,1.72949-.30469,4.31353,4.31353,0,0,0,1.001-.37109,1.084,1.084,0,0,0,.46191-.43067,1.103,1.103,0,0,0,.1123-.48339.7065.7065,0,0,0-.23535-.51075.968.968,0,0,0-.31836-.18554A1.36368,1.36368,0,0,0,174.05176,56.52979Z" style="fill:blue"/><path d="M180.2959,61.48584c0-.02832.001-.06445.0039-.1084.002-.04492.00684-.1084.01368-.19238s.01757-.19434.03125-.3291c.01367-.13575.03515-.3125.06347-.53223l.44043-3.54883h-.791a.21911.21911,0,0,1-.15039-.05273.207.207,0,0,1-.05957-.16406c0-.01465.00293-.042.00683-.084q.00733-.063.01758-.14355c.00684-.05371.01465-.1084.02148-.165q.01026-.0835.01758-.16114l1.0918-.14648.52539-2.19141a.32943.32943,0,0,1,.10449-.17089.2771.2771,0,0,1,.18946-.06641h.65722l-.30761,2.44238h1.8623l-.10547.90332h-1.86914l-.42676,3.48633c-.02343.19141-.041.34473-.05273.46191-.01172.11622-.02051.21-.02735.2793-.00781.07031-.01171.11914-.01464.14746-.002.02832-.00293.04883-.00293.0625a.74228.74228,0,0,0,.16406.5293.59469.59469,0,0,0,.45117.1709.9064.9064,0,0,0,.32227-.05274,1.33429,1.33429,0,0,0,.24218-.11523c.06739-.042.124-.08008.1709-.11524a.21919.21919,0,0,1,.126-.05273.13017.13017,0,0,1,.08789.02832.36331.36331,0,0,1,.06641.09082l.25878.59473a2.51421,2.51421,0,0,1-.77343.47265,2.39656,2.39656,0,0,1-.87891.17188,1.49408,1.49408,0,0,1-1.07031-.3711A1.452,1.452,0,0,1,180.2959,61.48584Z" style="fill:blue"/><path d="M184.53125,62.82275l1.24512-10.31054h1.24609l-.58105,4.78711a4.20144,4.20144,0,0,1,1.22851-1.249,2.57444,2.57444,0,0,1,1.38281-.42383,1.509,1.509,0,0,1,1.23926.53223,2.3973,2.3973,0,0,1,.4336,1.54688c0,.09375-.002.19043-.00684.291-.00488.09961-.01367.2041-.02832.31153l-.53125,4.51464h-1.24609l.53125-4.51464c.00976-.09375.01757-.1836.02539-.26954.00683-.08691.00976-.16894.00976-.249a1.40618,1.40618,0,0,0-.21289-.85351.797.797,0,0,0-.67578-.28028,1.40974,1.40974,0,0,0-.64746.17188,2.62609,2.62609,0,0,0-.64746.48632,4.07794,4.07794,0,0,0-.58789.75977,5.60921,5.60921,0,0,0-.47656.99023l-.45508,3.75879Z" style="fill:blue"/><path d="M197.10938,62.82275h-.64356a.38079.38079,0,0,1-.333-.126.531.531,0,0,1-.08691-.30762l.126-1.4209a5.88605,5.88605,0,0,1-.543.80567,3.73841,3.73841,0,0,1-.61524.61523,2.741,2.741,0,0,1-.68262.39258,2.02643,2.02643,0,0,1-.74218.13867,1.743,1.743,0,0,1-.7627-.16406,1.57918,1.57918,0,0,1-.585-.4834,2.33223,2.33223,0,0,1-.374-.78418,3.87971,3.87971,0,0,1-.13379-1.06738,4.78968,4.78968,0,0,1,.1582-1.22852,4.979,4.979,0,0,1,1.14453-2.10644,4.67124,4.67124,0,0,1,.90625-.77051,4.30375,4.30375,0,0,1,1.07422-.50391,4.02859,4.02859,0,0,1,1.2041-.17871,5.17016,5.17016,0,0,1,.88575.0752,3.61923,3.61923,0,0,1,.85058.25781Zm-3.05176-.93847a1.22875,1.22875,0,0,0,.67187-.21,2.55672,2.55672,0,0,0,.62305-.582,5.06572,5.06572,0,0,0,.5498-.88575,8.0491,8.0491,0,0,0,.45118-1.126l.30078-2.39844a.48512.48512,0,0,0-.30371-.124h-.29786a2.45912,2.45912,0,0,0-.8125.13574,2.90273,2.90273,0,0,0-.73437.38086,3.27882,3.27882,0,0,0-.62305.583,3.79411,3.79411,0,0,0-.47949.74317,4.19126,4.19126,0,0,0-.31152.8623,3.90569,3.90569,0,0,0-.11231.93848Q192.97949,61.88477,194.05762,61.88428Z" style="fill:blue"/><path d="M199.58008,61.48584c0-.02832.00195-.06445.0039-.1084.002-.04492.00684-.1084.01368-.19238.00781-.084.01757-.19434.03222-.3291.01367-.13575.03418-.3125.0625-.53223l.44141-3.54883h-.791a.21744.21744,0,0,1-.15039-.05273.207.207,0,0,1-.05957-.16406.84138.84138,0,0,1,.00684-.084q.00732-.063.01758-.14355c.00683-.05371.01367-.1084.0205-.165q.01026-.0835.01758-.16114l1.0918-.14648.52538-2.19141a.331.331,0,0,1,.10548-.17089.27458.27458,0,0,1,.18848-.06641h.6582l-.3086,2.44238h1.86231l-.10449.90332h-1.86914l-.42676,3.48633c-.02344.19141-.041.34473-.05274.46191-.01171.11622-.02148.21-.02832.2793-.00683.07031-.01171.11914-.01367.14746-.00293.02832-.0039.04883-.0039.0625a.73793.73793,0,0,0,.165.5293.59469.59469,0,0,0,.45117.1709.91393.91393,0,0,0,.32226-.05274,1.323,1.323,0,0,0,.24121-.11523c.06739-.042.125-.08008.17188-.11524a.21431.21431,0,0,1,.126-.05273.12578.12578,0,0,1,.08691.02832.34073.34073,0,0,1,.06641.09082l.25976.59473a2.53058,2.53058,0,0,1-.77441.47265,2.38776,2.38776,0,0,1-.87793.17188,1.49656,1.49656,0,0,1-1.07129-.3711A1.4596,1.4596,0,0,1,199.58008,61.48584Z" style="fill:blue"/><path d="M146.29688,79.62256l.85449-7.09766h.623a.3713.3713,0,0,1,.41993.41992l-.09864,1.26661a4.38879,4.38879,0,0,1,1.14844-1.333,2.20008,2.20008,0,0,1,1.31543-.45215,1.2061,1.2061,0,0,1,1.06445.49414,2.45552,2.45552,0,0,1,.34278,1.41016,4.15655,4.15655,0,0,1,1.19336-1.43848,2.37758,2.37758,0,0,1,1.38964-.46582,1.38025,1.38025,0,0,1,1.17286.51172,2.39113,2.39113,0,0,1,.38867,1.46972c0,.10743-.00488.21973-.01465.33594-.00879.11621-.02051.23828-.03418.36426l-.53223,4.51465h-1.22558l.53222-4.51465a5.10179,5.10179,0,0,0,.042-.62305,1.3595,1.3595,0,0,0-.17481-.77343.66844.66844,0,0,0-.58789-.249,1.34722,1.34722,0,0,0-.60254.15039,2.187,2.187,0,0,0-.58105.44141,3.49756,3.49756,0,0,0-.52149.7207,5.92412,5.92412,0,0,0-.42968.99024l-.45508,3.85742H150.294l.53906-4.51465q.0205-.189.03515-.35742c.00879-.11231.01368-.2168.01368-.31445a1.30921,1.30921,0,0,0-.16407-.73536.65321.65321,0,0,0-.57812-.23828,1.356,1.356,0,0,0-.64746.168,2.14369,2.14369,0,0,0-.58789.48633,4.00565,4.00565,0,0,0-.51465.77734,7.636,7.636,0,0,0-.4336,1.03223l-.4414,3.69629Z" style="fill:blue"/><path d="M162.48047,79.62256h-.64356a.38075.38075,0,0,1-.333-.126.53088.53088,0,0,1-.08692-.30762l.126-1.42089a5.885,5.885,0,0,1-.543.80566,3.73836,3.73836,0,0,1-.61523.61523,2.74109,2.74109,0,0,1-.68262.39258,2.02624,2.02624,0,0,1-.74219.13867,1.74279,1.74279,0,0,1-.76269-.16406,1.57911,1.57911,0,0,1-.585-.4834,2.33223,2.33223,0,0,1-.374-.78418,3.87966,3.87966,0,0,1-.13379-1.06738,4.78961,4.78961,0,0,1,.15821-1.22851,4.97868,4.97868,0,0,1,1.14453-2.10645,4.67135,4.67135,0,0,1,.90625-.77051,4.30374,4.30374,0,0,1,1.07422-.5039,4.02859,4.02859,0,0,1,1.2041-.17871,5.171,5.171,0,0,1,.88574.07519,3.62,3.62,0,0,1,.85058.25781Zm-3.05176-.93848a1.22868,1.22868,0,0,0,.67188-.21,2.55667,2.55667,0,0,0,.623-.582,5.0666,5.0666,0,0,0,.54981-.88574,8.051,8.051,0,0,0,.45117-1.126l.30078-2.39844a.48518.48518,0,0,0-.30371-.124h-.29785a2.45907,2.45907,0,0,0-.8125.13574,2.90311,2.90311,0,0,0-.73438.38086,3.27883,3.27883,0,0,0-.623.583,3.79408,3.79408,0,0,0-.4795.74316,4.19113,4.19113,0,0,0-.31152.86231,3.9061,3.9061,0,0,0-.1123.93847Q158.35059,78.68458,159.42871,78.68408Z" style="fill:blue"/><path d="M164.95117,78.28564c0-.02832.002-.06445.00391-.10839.00195-.04493.00683-.1084.01367-.19239.00781-.084.01758-.19433.03223-.3291.01367-.13574.03418-.3125.0625-.53222l.4414-3.54883h-.791a.21736.21736,0,0,1-.15039-.05274.207.207,0,0,1-.05957-.16406.8402.8402,0,0,1,.00683-.084q.00732-.063.01758-.14356c.00684-.05371.01367-.1084.02051-.165q.01024-.08349.01758-.16113l1.09179-.14649.52539-2.1914a.331.331,0,0,1,.10547-.1709.27463.27463,0,0,1,.18848-.06641h.6582l-.30859,2.44239h1.8623l-.10449.90332h-1.86914l-.42676,3.48633c-.02344.1914-.041.34472-.05273.46191-.01172.11621-.02149.21-.02832.2793-.00684.07031-.01172.11914-.01367.14746-.00293.02832-.00391.04883-.00391.0625a.73793.73793,0,0,0,.165.52929.59469.59469,0,0,0,.45117.1709.91422.91422,0,0,0,.32227-.05273,1.323,1.323,0,0,0,.24121-.11524c.06738-.042.125-.08007.17187-.11523a.21426.21426,0,0,1,.126-.05274.1257.1257,0,0,1,.08691.02833.34018.34018,0,0,1,.06641.09082l.25976.59472a2.53068,2.53068,0,0,1-.77441.47266,2.38771,2.38771,0,0,1-.87793.17187,1.49662,1.49662,0,0,1-1.07129-.37109A1.45967,1.45967,0,0,1,164.95117,78.28564Z" style="fill:blue"/><path d="M173.67773,79.01318a3.24631,3.24631,0,0,1-.65429.42383,2.64317,2.64317,0,0,1-.68262.2207,4.342,4.342,0,0,1-.75977.0625,2.64806,2.64806,0,0,1-1.08886-.21,2.16137,2.16137,0,0,1-.791-.59082,2.616,2.616,0,0,1-.48242-.917,3.982,3.982,0,0,1-.165-1.17969,5.08755,5.08755,0,0,1,.26953-1.65234,4.62275,4.62275,0,0,1,.75293-1.39941,3.76211,3.76211,0,0,1,1.14746-.97364,3.00509,3.00509,0,0,1,1.46387-.36425,2.51717,2.51717,0,0,1,1.17578.249,2.47535,2.47535,0,0,1,.833.72461l-.39258.46875a.32429.32429,0,0,1-.10449.09082.27029.27029,0,0,1-.333-.05274,2.64756,2.64756,0,0,0-.24512-.19531,1.65784,1.65784,0,0,0-.37793-.19629,1.638,1.638,0,0,0-.584-.08789,1.72962,1.72962,0,0,0-.91406.2627,2.55321,2.55321,0,0,0-.752.71777,3.6719,3.6719,0,0,0-.50781,1.07813,4.68551,4.68551,0,0,0-.18555,1.33691,2.93767,2.93767,0,0,0,.09864.78711,1.66982,1.66982,0,0,0,.29394.60254,1.34166,1.34166,0,0,0,.4795.38476,1.50813,1.50813,0,0,0,.66113.13672,2.15591,2.15591,0,0,0,.55957-.0664,2.20536,2.20536,0,0,0,.43457-.165,1.98117,1.98117,0,0,0,.332-.21289c.0957-.07715.18262-.14844.25977-.21387a2.58558,2.58558,0,0,1,.21-.16406.32694.32694,0,0,1,.19238-.06739.29861.29861,0,0,1,.2373.11914l.3086.37793A6.57868,6.57868,0,0,1,173.67773,79.01318Z" style="fill:blue"/><path d="M175.249,79.62256,176.49414,69.312h1.24609l-.58105,4.78711a4.2013,4.2013,0,0,1,1.22852-1.249,2.57432,2.57432,0,0,1,1.38281-.42383,1.509,1.509,0,0,1,1.23926.53223,2.39727,2.39727,0,0,1,.43359,1.54687c0,.09375-.002.19043-.00684.291-.00488.09961-.01367.2041-.02832.31152l-.53125,4.51465h-1.24609l.53125-4.51465c.00977-.09375.01758-.18359.02539-.26953.00684-.08692.00977-.16895.00977-.249a1.40619,1.40619,0,0,0-.21289-.85352.79706.79706,0,0,0-.67579-.28027,1.40972,1.40972,0,0,0-.64746.17187,2.6264,2.6264,0,0,0-.64746.48633,4.07728,4.07728,0,0,0-.58789.75977,5.60853,5.60853,0,0,0-.47656.99023l-.45508,3.75879Z" style="fill:blue"/><path d="M188.2832,74.05029a1.9164,1.9164,0,0,1-.18945.85059,1.76971,1.76971,0,0,1-.69238.70019,5.17657,5.17657,0,0,1-1.38672.543,15.30353,15.30353,0,0,1-2.26758.37012c-.00488.05176-.00684.10156-.00684.15137v.15039a2.18976,2.18976,0,0,0,.40918,1.43066,1.51337,1.51337,0,0,0,1.23536.49414,2.31539,2.31539,0,0,0,.59863-.07031,2.59638,2.59638,0,0,0,.46875-.1709,2.10355,2.10355,0,0,0,.36426-.22461c.10547-.08105.20214-.15625.291-.22363.08789-.06738.16992-.125.24414-.17188a.42042.42042,0,0,1,.22461-.07031.30465.30465,0,0,1,.23047.11914l.30859.38574a6.56073,6.56073,0,0,1-.69628.63282,4.05285,4.05285,0,0,1-.69727.4375,3.10006,3.10006,0,0,1-.74512.25586,4.12017,4.12017,0,0,1-.83691.08007,2.78976,2.78976,0,0,1-1.0918-.20312,2.25339,2.25339,0,0,1-.81933-.57715,2.59274,2.59274,0,0,1-.51758-.90625,3.6661,3.6661,0,0,1-.18164-1.19043,5.20018,5.20018,0,0,1,.11523-1.08789,5.07583,5.07583,0,0,1,.33594-1.0332,4.65916,4.65916,0,0,1,.53906-.90918,3.6267,3.6267,0,0,1,.72754-.72461,3.4082,3.4082,0,0,1,.90332-.47949,3.13867,3.13867,0,0,1,1.06055-.17578,2.541,2.541,0,0,1,.93066.15429,1.96769,1.96769,0,0,1,.64453.39258,1.55185,1.55185,0,0,1,.374.52441A1.38927,1.38927,0,0,1,188.2832,74.05029Zm-2.14258-.7207a1.81882,1.81882,0,0,0-.81152.18164,2.17158,2.17158,0,0,0-.6582.501,3.05822,3.05822,0,0,0-.49024.749,4.46961,4.46961,0,0,0-.31445.92773,13.60308,13.60308,0,0,0,1.72852-.30468,4.29551,4.29551,0,0,0,1.001-.3711,1.07819,1.07819,0,0,0,.46192-.43066,1.08977,1.08977,0,0,0,.1123-.4834.68974.68974,0,0,0-.05566-.26172.71026.71026,0,0,0-.17871-.249.97814.97814,0,0,0-.31836-.18555A1.36953,1.36953,0,0,0,186.14062,73.32959Z" style="fill:blue"/><path d="M193.63086,73.66553a.46262.46262,0,0,1-.11231.12207.23566.23566,0,0,1-.13964.03906.39048.39048,0,0,1-.21387-.07715c-.07715-.05078-.16992-.1084-.28027-.17187a2.292,2.292,0,0,0-.40235-.17481,2.01284,2.01284,0,0,0-1.14746.00684,1.42985,1.42985,0,0,0-.44824.24219,1.08093,1.08093,0,0,0-.291.36035.982.982,0,0,0-.10156.4375.66751.66751,0,0,0,.21777.52441,1.98851,1.98851,0,0,0,.5459.33984c.21875.09571.45606.18848.71.27637a3.65645,3.65645,0,0,1,.71094.33594,1.82058,1.82058,0,0,1,.5459.51855,1.414,1.414,0,0,1,.2168.81836,2.35963,2.35963,0,0,1-.19239.93848,2.32633,2.32633,0,0,1-.55273.78711,2.73634,2.73634,0,0,1-.86817.543,3.054,3.054,0,0,1-1.13769.20312,2.82609,2.82609,0,0,1-1.2002-.24218,2.48352,2.48352,0,0,1-.85058-.61914l.30762-.47559a.44153.44153,0,0,1,.13378-.14063.35973.35973,0,0,1,.19532-.04882.34743.34743,0,0,1,.22461.09765c.07422.06543.168.13965.27929.22071a1.72244,1.72244,0,0,0,1.07129.31835,1.72265,1.72265,0,0,0,.61914-.10449,1.46145,1.46145,0,0,0,.46973-.28027,1.19284,1.19284,0,0,0,.29395-.40918,1.25187,1.25187,0,0,0,.10156-.501.75253.75253,0,0,0-.21778-.5664,1.7638,1.7638,0,0,0-.54589-.35059c-.21875-.09277-.45508-.18066-.707-.26269a3.57944,3.57944,0,0,1-.707-.31446,1.71877,1.71877,0,0,1-.5459-.501,1.39293,1.39293,0,0,1-.21679-.81836,2.17608,2.17608,0,0,1,.17871-.86524,2.23093,2.23093,0,0,1,.51465-.73828,2.53168,2.53168,0,0,1,.81543-.51465,2.88586,2.88586,0,0,1,1.08105-.19238,2.77065,2.77065,0,0,1,1.124.21387,2.59965,2.59965,0,0,1,.83593.57715Z" style="fill:blue"/></g></svg>