<svg id="turbidity_-_1A" data-name="turbidity - 1A" xmlns="http://www.w3.org/2000/svg" viewBox="0 0 226 200"><rect id="back" width="226" height="200" style="fill:none"/><g id="bucket"><path d="M92.99991,155.04149c-22.8833,0-41.5-7.126-41.5-15.88575L47.65567,64.56639a4.23941,4.23941,0,0,0-1.4331-2.64209l-.34473-.38867a4.97156,4.97156,0,0,0-.439-.43164c-.3291-.29639-.43505-.4126-.43408-.65869l.00049-.25782c0-.95263,0-.95263,1.24121-1.63965l.58984-.32666-.47656-.47363a1.81139,1.81139,0,0,1-.605-1.33545,2.09111,2.09111,0,0,1,1.148-1.88623l.22754-.15918-.10156-1.96875-.22559-.13769c-1.10986-.67578-1.27392-1.31348-1.2876-1.84815a2.05225,2.05225,0,0,1,1.08594-1.84082l.22119-.15918L46.50284,42.165c.04053-2.17383,17.749-5.20654,46.49707-5.20654s46.457,3.03271,46.49707,5.20654l-.20313,3.96387.21973.15918a1.93888,1.93888,0,0,1,.96973,1.63672c.01465.53418-.11524,1.17773-1.18262,1.90967l-.2041.14013-.10938,2.10889.22657.15918a1.9753,1.9753,0,0,1,1.03125,1.6831c.01464.54834-.12305,1.20948-1.251,1.9585l-.21.13916-.10449,2.02.41992.18018c1.89551.8125,1.89551.8125,1.89551,1.94531,0,.65918,0,.65918-.35645.94726-.11914.09668-.26269.21289-.43359.36817a4.50134,4.50134,0,0,0-1.86133,3.09277l-3.84326,74.55322C134.49991,147.61864,115.10733,155.04149,92.99991,155.04149Z" style="fill:#fff"/><path d="M92.99991,37.45873a297.00494,297.00494,0,0,1,32.10553,1.54651c12.04793,1.37894,13.70042,2.97722,13.88912,3.228l-.18552,3.59917-.02793.54166.4388.31882a1.47454,1.47454,0,0,1,.76375,1.24567c.00747.282.02136.80689-.96624,1.48384l-.40784.27956-.02545.4938-.08173,1.58582-.02851.553.45366.31761a1.51063,1.51063,0,0,1,.81782,1.28632c.00755.29089.02164.83231-1.02776,1.52913l-.41957.2786-.02593.503-.07323,1.42034-.03588.69582.64033.2747.10005.0429a11.49227,11.49227,0,0,1,1.55818.72979,4.25277,4.25277,0,0,1,.03346.75611,3.49041,3.49041,0,0,1-.01823.43508c-.042.038-.09336.07576-.15257.1236-.12566.10157-.27583.22333-.45527.38611a4.98142,4.98142,0,0,0-2.02476,3.43775l-3.843,74.55281-.00133.02569v.02577c0,7.27713-16.83809,15.38553-41,15.38553-22.22429,0-41-7.04571-41-15.38553V139.13l-.00132-.02569L48.15508,64.54075a4.68173,4.68173,0,0,0-1.55962-2.94959c-.11029-.12309-.22455-.25058-.34135-.38441a5.46538,5.46538,0,0,0-.48051-.47419,1.31709,1.31709,0,0,1-.26871-.285l.0004-.25949a6.14021,6.14021,0,0,1,.01733-.62681,8.82492,8.82492,0,0,1,.97338-.5799l1.17982-.65333-.96787-.93917a1.30354,1.30354,0,0,1-.45351-.98958c-.01076-.41365.095-.87727.9346-1.4637l.45462-.31753-.02857-.5538-.07367-1.4284-.02722-.52758-.45112-.27487c-1.02671-.62559-1.04049-1.15164-1.04789-1.43426-.01055-.40238.08861-.85313.87872-1.42184l.44257-.31854-.02808-.54455-.30316-5.8809c.18871-.25078,1.84121-1.84908,13.88914-3.228a297.00508,297.00508,0,0,1,32.10553-1.54651m0-1c-25.92114,0-46.93865,2.54948-46.99725,5.697h-.00275l.00055.01049-.00055.00264.00091.00433.30891,5.99244a2.56212,2.56212,0,0,0-1.2942,2.25963,2.619,2.619,0,0,0,1.52722,2.262l.07367,1.4284a2.59993,2.59993,0,0,0-1.36164,2.30956,2.30275,2.30275,0,0,0,.75679,1.68122c-1.60248.88738-1.50018.82818-1.50666,2.33672-.003.68739.54377.90308.99573,1.421.87078.99775,1.60022,1.64973,1.65576,2.728l3.84351,74.56354c0,9.07,18.804,16.38553,42,16.38553s42-7.77894,42-16.38553l3.843-74.5528a3.99913,3.99913,0,0,1,1.698-2.74858c.78273-.71009.95416-.55225.95416-1.68543,0-1.4845-.00371-1.46388-2.29747-2.44782l.07323-1.42035a2.65543,2.65543,0,0,0,1.47424-2.38818,2.48634,2.48634,0,0,0-1.24394-2.07953l.08172-1.58581a2.61557,2.61557,0,0,0,1.40052-2.33515,2.45375,2.45375,0,0,0-1.17561-2.0282l.19128-3.71069.00092-.00433-.00054-.00264.00054-.01049h-.00274c-.0586-3.14753-21.07611-5.697-46.99726-5.697Z" style="fill:#333"/><path d="M92.99991,86.42137c-6.3584,0-12.68994-.26025-18.81836-.77295l.10449-1.24609c6.09375.51025,12.39014.769,18.71387.769Z" style="fill:#1d2475"/><path d="M92.99991,67.76808c-21.292,0-42.373-3.08642-47.99219-7.02685l.28711-.40918c4.86231,3.40918,24.03565,6.936,47.70508,6.936,23.29443,0,42.5498-3.47168,47.707-6.82812l.27344.41894C135.02628,64.73341,113.95108,67.76808,92.99991,67.76808Z" style="fill:#333;opacity:0.35000000000000003"/><path d="M92.99991,66.27586c-21.292,0-42.37256-3.08691-47.99219-7.02734l.28711-.40918C50.15762,62.249,69.331,65.77586,92.99991,65.77586c22.78955,0,42.52734-3.66455,47.74512-7.06006l.27343.41895C134.23966,63.54588,110.81534,66.27586,92.99991,66.27586Z" style="fill:#333;opacity:0.1"/><path d="M83.02921,61.995c-17.937,0-32.42823-1.42041-36.84034-3.75146l.2334-.44238c5.06787,2.67773,24.71924,4.17431,46.7251,3.54882,20.35449-.5747,39.02539-2.91894,45.4043-5.70068l.19922.458c-6.53272,2.84912-24.854,5.15674-45.58985,5.74267C89.6962,61.94764,86.30508,61.995,83.02921,61.995Z" style="fill:#333;opacity:0.35000000000000003"/><path d="M83.51309,58.0786c-17.73388,0-32.16894-1.45069-36.6582-3.82276l.2334-.44238c5.21191,2.75391,24.15039,4.24512,46.05908,3.627,20.353-.57422,39.02393-2.91845,45.4043-5.70068l.19922.458c-6.53418,2.84961-24.85547,5.15722-45.58985,5.74267C89.8671,58.03319,86.63858,58.0786,83.51309,58.0786Z" style="fill:#333;opacity:0.1"/><path d="M83.39444,55.85075c-17.084,0-31.37744-1.3003-36.43066-3.4419l.19531-.46c5.94385,2.519,24.90576,3.86182,46.11328,3.26074,20.89453-.59033,39.19482-2.84521,45.53809-5.61084l.19921.458c-6.3955,2.78955-24.7705,5.061-45.72363,5.65283C89.91983,55.80436,86.60635,55.85075,83.39444,55.85075Z" style="fill:#333;opacity:0.35000000000000003"/><path d="M83.38907,51.97215c-17.08008,0-31.37158-1.30029-36.42529-3.44141l.19531-.46c5.9458,2.51856,24.90771,3.85987,46.11328,3.26026,21.03906-.59375,39.33936-2.8086,45.53809-5.51172l.19921.458c-6.25146,2.72656-24.62646,4.958-45.72363,5.55371C89.91739,51.92625,86.60342,51.97215,83.38907,51.97215Z" style="fill:#333;opacity:0.1"/><path d="M136.69335,42.00834a.37672.37672,0,0,1-.02715.4871.90357.90357,0,0,1-.19547.14828,2.54926,2.54926,0,0,1-.34866.163c-.22682.0878-.45116.15447-.67626.21988-.44972.12607-.89992.23083-1.351.32829-.90211.19372-1.807.35587-2.71335.50654-1.81273.3-3.63107.54848-5.45173.77477-3.6417.449-7.29347.80013-10.95005,1.08768q-10.97371.805-21.987.84687-11.00562-.07213-21.98248-.90924c-3.65619-.282-7.30786-.62619-10.94928-1.0705-1.82052-.22375-3.63873-.47-5.451-.76856-.90611-.14982-1.81075-.3115-2.71217-.50515-.4507-.09782-.90048-.20189-1.34921-.32931-.22448-.06477-.44835-.1343-.674-.22274a2.19384,2.19384,0,0,1-.34557-.16652.63749.63749,0,0,1-.19462-.16746.363.363,0,0,1-.0762-.21545.37756.37756,0,0,1,.08032-.20408,3.03523,3.03523,0,0,1,1.28615-.7415c.44106-.15871.88689-.28461,1.33422-.40023.895-.22918,1.79716-.408,2.70123-.57069,1.80887-.32059,3.6269-.56588,5.44771-.77845,3.6419-.42533,7.29668-.70163,10.95221-.93808,7.31207-.46831,14.63946-.652,21.96419-.63223,7.32473-.02334,14.65243.13,21.96754.56059,3.65779.20766,7.31351.48154,10.95732.89976,1.82145.21227,3.64042.45792,5.44894.79113.90387.169,1.80553.35751,2.69865.60344a13.52215,13.52215,0,0,1,1.32946.43354A3.38974,3.38974,0,0,1,136.69335,42.00834Zm-.38687.32114a3.03235,3.03235,0,0,0-1.0615-.64335,13.07456,13.07456,0,0,0-1.27469-.43622c-.8691-.25331-1.75879-.45347-2.65216-.63416-1.78874-.35709-3.59777-.62895-5.41058-.86744-3.6275-.47093-7.27535-.79877-10.927-1.0604-7.30661-.48967-14.63175-.70078-21.9563-.73611-7.32468.01859-14.64986.24814-21.95563.75787q-5.4784.38891-10.92629,1.08875c-1.81335.24-3.62276.51272-5.41544.859-.89544.17537-1.78807.36684-2.66383.6056-.43718.12012-.87158.25041-1.28985.40833a2.82263,2.82263,0,0,0-1.07289.60614c-.02871.03509.018-.01255.00792-.05195.0094-.03673-.02087-.07026-.00985-.061a.31052.31052,0,0,0,.06877.04836,1.79625,1.79625,0,0,0,.27449.12623c.20162.07615.41615.14043.63224.19974.43367.11735.87769.21446,1.32286.30522.89142.17991,1.792.32938,2.69435.467,1.80526.27431,3.62026.49711,5.43746.69742,3.63523.39753,7.28226.69542,10.93256.93109q10.952.69792,21.93163.63285,10.96914.03028,21.927-.698c3.64994-.23,7.29681-.52133,10.93207-.91127,1.81721-.19656,3.63229-.41527,5.43765-.6847.90235-.13528,1.803-.282,2.6944-.45872.44531-.08877.88892-.1848,1.32281-.29905.21536-.05878.43127-.11969.63276-.1942a2.09359,2.09359,0,0,0,.27527-.12188.56543.56543,0,0,0,.08115-.05334C136.285,42.12909,136.24176,42.27269,136.30648,42.32948Z" style="fill:#333;opacity:0.75"/><rect id="overlay" x="131.46867" y="68.65769" width="10.21987" height="52" style="fill:#fff;opacity:0.55"/><rect id="overlay-2" data-name="overlay" x="131.46867" y="69.65769" width="10.21987" height="50" style="fill:#fff;opacity:0.55"/><rect id="overlay-3" data-name="overlay" x="131.46867" y="70.65769" width="10.21987" height="48" style="fill:#fff;opacity:0.55"/><rect id="overlay-4" data-name="overlay" x="131.46867" y="71.65769" width="10.21987" height="46" style="fill:#fff;opacity:0.55"/></g><path d="M76.29464,88.8849l.0152,1.34913a.63664.63664,0,0,0,.06675.32082.24331.24331,0,0,0,.1957.11748.427.427,0,0,0,.09367-.00142.26627.26627,0,0,0,.08255-.02277l.01543.456a.5798.5798,0,0,1-.16046.03533,1.00049,1.00049,0,0,1-.20245-.00007.61862.61862,0,0,1-.476-.24789,1.03682,1.03682,0,0,1-.15013-.5828l-.01462-1.47193c-.12915-.01188-.19373-.0179-.32293-.03008l-.004-.44424c.129.01172.19352.01752.32251.029l-.00663-.66607c.21316.018.31972.02682.53285.04417l.00754.66839c.17926.01531.26888.02283.44808.03761l.0055.44828C76.5638,88.9085,76.47409,88.90073,76.29464,88.8849Z" style="fill:#1d2475"/><path d="M78.471,91.26437l-.0063-.42287-.00983-.00079a.73476.73476,0,0,1-.22892.34307.532.532,0,0,1-.4048.11322.6302.6302,0,0,1-.34146-.12183.69153.69153,0,0,1-.20247-.25981,1.24814,1.24814,0,0,1-.10117-.35384,3.15271,3.15271,0,0,1-.0298-.39906c-.00861-.66309-.01292-.9944-.02152-1.65552.22709.01817.3406.027.56759.04436.00926.66292.01389.99529.02315,1.66058.001.06956.00585.13742.01267.204a.709.709,0,0,0,.04583.183.35985.35985,0,0,0,.09736.13832.28177.28177,0,0,0,.16516.06335.30339.30339,0,0,0,.30127-.1704.92324.92324,0,0,0,.1067-.48928c-.00915-.61539-.01373-.92277-.02289-1.53565.22686.01623.34026.02413.567.0395.01646,1.06163.0247,1.596.04116,2.66436C78.80637,91.29179,78.69462,91.28286,78.471,91.26437Z" style="fill:#1d2475"/><path d="M80.46579,88.7997a.40683.40683,0,0,1,.3286-.13211l.04211.00233a.118.118,0,0,1,.04326.01258l-.02045.60489a.43906.43906,0,0,0-.12072-.02263.27851.27851,0,0,0-.19379.05934.53019.53019,0,0,0-.143.17753.911.911,0,0,0-.08591.25656,1.41744,1.41744,0,0,0-.02555.29723l.02171,1.34505c-.231-.01509-.34662-.02294-.57792-.03929-.017-1.07122-.02553-1.607-.04255-2.67048.2231.01409.33463.02092.55763.03415l.00831.51178.00979.00058A.86985.86985,0,0,1,80.46579,88.7997Z" style="fill:#1d2475"/><path d="M81.20468,87.50008c.22675.012.34012.01777.56683.029.01053.64146.0158.96478.02633,1.61387l.00978.00048a.55956.55956,0,0,1,.19468-.29381.50987.50987,0,0,1,.35218-.1035.65728.65728,0,0,1,.35664.1196.92417.92417,0,0,1,.26363.30135,1.58609,1.58609,0,0,1,.16324.449,3.05079,3.05079,0,0,1,.0157,1.13943,1.69026,1.69026,0,0,1-.1519.45806.80131.80131,0,0,1-.25483.298.55225.55225,0,0,1-.34687.0952.5254.5254,0,0,1-.38035-.15543.89629.89629,0,0,1-.19511-.34763l-.01076-.00055.00621.38543c-.22022-.01138-.33037-.01734-.55081-.02982C81.24344,89.86436,81.23051,89.0654,81.20468,87.50008Zm.58885,2.64441a2.17674,2.17674,0,0,0,.03409.35661,1.34805,1.34805,0,0,0,.08389.29366.58052.58052,0,0,0,.1361.20175.28945.28945,0,0,0,.18686.08.25265.25265,0,0,0,.18647-.06237.49147.49147,0,0,0,.12391-.18954,1.235,1.235,0,0,0,.07064-.28659,2.364,2.364,0,0,0,.01979-.35433,2.47782,2.47782,0,0,0-.03107-.35908,1.34367,1.34367,0,0,0-.07989-.29454.57993.57993,0,0,0-.13019-.19972.28647.28647,0,0,0-.18889-.07915.25846.25846,0,0,0-.1847.06192.48094.48094,0,0,0-.1299.18767,1.193,1.193,0,0,0-.07453.28729A2.15641,2.15641,0,0,0,81.79353,90.14449Z" style="fill:#1d2475"/><path d="M84.31859,88.14086a.3565.3565,0,0,1-.091.25611.292.292,0,0,1-.23391.09613.31855.31855,0,0,1-.239-.11236.38961.38961,0,0,1-.0968-.26288.36365.36365,0,0,1,.08892-.25538.28306.28306,0,0,1,.23594-.09981.31516.31516,0,0,1,.23916.11662A.403.403,0,0,1,84.31859,88.14086Zm-.55882,3.4316c-.01613-1.07841-.02419-1.618-.04031-2.68264.22624.008.33933.01184.56546.019.01555,1.0639.02332,1.60352.03887,2.682C84.09828,91.584,83.98548,91.58035,83.75977,91.57246Z" style="fill:#1d2475"/><path d="M86.245,91.63383l-.00467-.38577-.00971-.00014a.755.755,0,0,1-.18236.33539.48816.48816,0,0,1-.37907.13053.59748.59748,0,0,1-.3494-.11818.90958.90958,0,0,1-.26288-.3151,1.77766,1.77766,0,0,1-.166-.46846,2.86837,2.86837,0,0,1-.06255-.57815,2.77464,2.77464,0,0,1,.04384-.56077,1.44593,1.44593,0,0,1,.15186-.43793.79535.79535,0,0,1,.25257-.28337.60313.60313,0,0,1,.3556-.09534.5498.5498,0,0,1,.35646.12927.65806.65806,0,0,1,.20356.30836l.01461.00025c-.008-.64864-.01193-.971-.01987-1.60732.22183.00473.33272.00688.55446.01074.01805,1.5441.02707,2.34578.04513,3.94283C86.57005,91.63838,86.46175,91.637,86.245,91.63383Zm-.00557-1.344a2.18872,2.18872,0,0,0-.0326-.36029,1.25193,1.25193,0,0,0-.08336-.28928.52145.52145,0,0,0-.13681-.19592.28779.28779,0,0,0-.188-.074.26669.26669,0,0,0-.18814.06649.47921.47921,0,0,0-.12707.19083,1.20064,1.20064,0,0,0-.07121.28654,2.54118,2.54118,0,0,0,.00946.71537,1.2774,1.2774,0,0,0,.07872.29145.52776.52776,0,0,0,.1319.19793.2803.2803,0,0,0,.18952.07473.2683.2683,0,0,0,.18865-.06781.51864.51864,0,0,0,.1288-.19307,1.2418,1.2418,0,0,0,.07619-.28844A2.13875,2.13875,0,0,0,86.23946,90.28986Z" style="fill:#1d2475"/><path d="M88.03481,88.21424a.36223.36223,0,0,1-.092.25612.30123.30123,0,0,1-.23365.10142.30787.30787,0,0,1-.23774-.10527.37418.37418,0,0,1-.09529-.25811.36819.36819,0,0,1,.08989-.25515.29213.29213,0,0,1,.2358-.10468.305.305,0,0,1,.23793.10927A.38547.38547,0,0,1,88.03481,88.21424Zm-.57324,3.4318c-.01107-1.07679-.01661-1.61568-.02768-2.67321.22545.002.33814.0028.56345.00389.01011,1.0562.01517,1.59487.02528,2.67119C87.79828,91.64763,87.68607,91.64726,87.46157,91.646Z" style="fill:#1d2475"/><path d="M89.24035,89.4271c.00407.54418.0061.81869.01018,1.36923a.62849.62849,0,0,0,.06433.32043.20706.20706,0,0,0,.19138.09861.41259.41259,0,0,0,.09186-.01166.28254.28254,0,0,0,.08107-.03216l.01275.46326a.60634.60634,0,0,1-.15724.0541.96233.96233,0,0,1-.19809.02287.52335.52335,0,0,1-.465-.19981,1.01858,1.01858,0,0,1-.14612-.58153c-.005-.6038-.00749-.905-.01247-1.50161-.12746.00016-.19119.00018-.31868.00005l-.004-.45084c.1276.00025.19138.0003.31893.00024l-.00565-.66941c.2114.00026.31706.00017.52834-.00041l.005.66855c.17723-.00077.26582-.0013.443-.00267l.00305.44972C89.506,89.42557,89.41743,89.42617,89.24035,89.4271Z" style="fill:#1d2475"/><path d="M91.0694,91.993a2.75658,2.75658,0,0,1-.11511.36787,1.062,1.062,0,0,1-.16356.28578.68612.68612,0,0,1-.23338.18427.75792.75792,0,0,1-.31879.06785,1.32234,1.32234,0,0,1-.19006-.01069.80487.80487,0,0,1-.15068-.032l.06615-.5339a.65036.65036,0,0,0,.09672.02809.51426.51426,0,0,0,.11108.01134.24554.24554,0,0,0,.20218-.09.59576.59576,0,0,0,.102-.2416l.07261-.33323c-.30053-1.09529-.4515-1.6438-.755-2.71831.23655-.002.35479-.00329.59119-.00637.18142.78914.27182,1.18985.452,1.9935l.01546-.00029c.15629-.80979.23468-1.21372.392-2.0072.22843-.00447.3426-.007.57089-.01242C91.51545,90.14581,91.36629,90.764,91.0694,91.993Z" style="fill:#1d2475"/><path d="M73.921,93.69l.005,1.32021a.626.626,0,0,0,.066.31906.27507.27507,0,0,0,.19982.13085.45912.45912,0,0,0,.096.00614.26943.26943,0,0,0,.08476-.0157l.01255.44714a.634.634,0,0,1-.16483.02163,1.0396,1.0396,0,0,1-.20779-.01625.70469.70469,0,0,1-.48715-.28345,1.03065,1.03065,0,0,1-.14934-.58223l-.00215-1.43754c-.13237-.02235-.19859-.0337-.33117-.05675v-.4332c.13231.02231.19841.03331.33052.055l-.001-.65084c.21808.03406.327.05067.54465.08307l.00247.65511c.18324.0286.27478.04257.45767.06992l.00242.43995C74.19626,93.73388,74.10457,93.71946,73.921,93.69Z" style="fill:#1d2475"/><path d="M75.21883,94.89008a1.35809,1.35809,0,0,0,.03351.29253.95832.95832,0,0,0,.09141.24816.6219.6219,0,0,0,.14607.18035.39357.39357,0,0,0,.19836.08832.28844.28844,0,0,0,.25272-.06567.6494.6494,0,0,0,.14875-.21447c.17116.122.25672.18279.42773.304a.83913.83913,0,0,1-.31528.39017.75277.75277,0,0,1-.53023.08341,1.07452,1.07452,0,0,1-.73992-.47182,1.842,1.842,0,0,1-.285-1.06532,1.96756,1.96756,0,0,1,.06765-.55513,1.14526,1.14526,0,0,1,.20248-.40893.74872.74872,0,0,1,.71835-.28343.93859.93859,0,0,1,.42665.15708.99672.99672,0,0,1,.28888.3162,1.4784,1.4784,0,0,1,.16513.44,2.59894,2.59894,0,0,1,.058.53175l.0026.22175C76.03523,95.00936,75.7637,94.97169,75.21883,94.89008Zm.80111-.30537a1.15133,1.15133,0,0,0-.09677-.48689.36335.36335,0,0,0-.28834-.22055.26186.26186,0,0,0-.19124.04022.40034.40034,0,0,0-.12658.14824.81444.81444,0,0,0-.07228.20376.85765.85765,0,0,0-.02434.203C75.54079,94.51937,75.7007,94.5418,76.01994,94.58471Z" style="fill:#1d2475"/><path d="M78.1868,94.39026a.68248.68248,0,0,0-.17942-.17909.5247.5247,0,0,0-.24443-.08787.254.254,0,0,0-.21179.06782.35256.35256,0,0,0,.01131.46735,1.33207,1.33207,0,0,0,.29153.17408,2.09958,2.09958,0,0,1,.2224.12495.98142.98142,0,0,1,.20025.17379.844.844,0,0,1,.14485.24018.89135.89135,0,0,1,.05811.31965.92212.92212,0,0,1-.06264.374.665.665,0,0,1-.18133.25161.62768.62768,0,0,1-.26464.131.909.909,0,0,1-.31238.01535,1.16464,1.16464,0,0,1-.45739-.15286,1.32483,1.32483,0,0,1-.36344-.30863c.12275-.132.184-.1983.3064-.3315a1.1589,1.1589,0,0,0,.21648.21191.58469.58469,0,0,0,.28651.11087.24294.24294,0,0,0,.22215-.07234.35183.35183,0,0,0,.07772-.2496.34692.34692,0,0,0-.12286-.28267,1.69292,1.69292,0,0,0-.31983-.19108,1.67682,1.67682,0,0,1-.1999-.111.79281.79281,0,0,1-.1798-.16088.77683.77683,0,0,1-.133-.23.92772.92772,0,0,1-.05159-.31293.75515.75515,0,0,1,.06428-.33316.67467.67467,0,0,1,.17739-.2356.65224.65224,0,0,1,.25667-.132.83539.83539,0,0,1,.30329-.02209,1.09639,1.09639,0,0,1,.42157.12795,1.22315,1.22315,0,0,1,.32141.25283C78.36564,94.18079,78.30607,94.25079,78.1868,94.39026Z" style="fill:#1d2475"/><path d="M79.5383,94.369c.00866.54815.013.82176.02164,1.367a.64459.64459,0,0,0,.06811.32275.239.239,0,0,0,.19559.11544.421.421,0,0,0,.09332-.00286.26566.26566,0,0,0,.08215-.02416l.01722.45729a.6181.6181,0,0,1-.15959.0383.95264.95264,0,0,1-.20158.004.60575.60575,0,0,1-.47566-.24245,1.05091,1.05091,0,0,1-.15309-.58693c-.00922-.59616-.01384-.89538-.02306-1.49475-.12938-.01168-.1941-.01764-.32362-.02987l-.00684-.45344c.12946.012.19415.01783.32347.02928l-.01045-.68031c.214.01837.32084.02722.53446.04426l.01074.68167c.17948.01473.26915.02185.44837.0356l.00731.45546C79.80753,94.39127,79.71783,94.384,79.5383,94.369Z" style="fill:#1d2475"/><path d="M82.40135,93.22255a.39939.39939,0,0,0-.1498-.0342.2412.2412,0,0,0-.15457.03691.28205.28205,0,0,0-.09285.114.57227.57227,0,0,0-.04712.16576,1.14888,1.14888,0,0,0-.0125.19425l.00612.37957c.16217.00884.24321.01308.40521.02122l.00756.47311c-.16-.00809-.24006-.01231-.40026-.02111.01425.88261.02138,1.32241.03563,2.19224-.22178-.01216-.33278-.01863-.555-.03243-.01435-.87028-.02152-1.30994-.03587-2.19205-.12837-.00786-.19258-.0119-.32107-.02024l-.00768-.47243c.12848.00824.19269.01224.32107.02l-.00624-.38442a1.75234,1.75234,0,0,1,.03661-.39514.915.915,0,0,1,.1297-.31918.592.592,0,0,1,.237-.20566.73515.73515,0,0,1,.36129-.06.9146.9146,0,0,1,.27019.055Zm.91522.14056a.36009.36009,0,0,1-.09043.26014.28428.28428,0,0,1-.23317.09572.31888.31888,0,0,1-.23854-.11615.4087.4087,0,0,1-.09681-.26814.37853.37853,0,0,1,.08852-.2598.2774.2774,0,0,1,.23524-.10049.31738.31738,0,0,1,.23955.12089A.42028.42028,0,0,1,83.31657,93.36311ZM82.763,96.78259c-.01695-1.05492-.02543-1.59057-.04238-2.66485.22542.01046.338.01535.56313.0245.01657,1.07448.02484,1.61013.04141,2.66392C83.10053,96.79749,82.98811,96.79279,82.763,96.78259Z" style="fill:#1d2475"/><path d="M83.99592,96.82947c-.02368-1.55973-.03552-2.36193-.05919-3.96084.22539.00764.338.01118.56318.01768.02278,1.599.03418,2.40137.057,3.9588C84.33267,96.83954,84.22049,96.83642,83.99592,96.82947Z" style="fill:#1d2475"/><path d="M85.23484,96.85957c-.02155-1.55436-.03233-2.35686-.05389-3.95562.22487.00517.33725.00748.5619.01158.02043,1.59838.03063,2.40085.05106,3.9525C85.57043,96.86525,85.45863,96.86357,85.23484,96.85957Z" style="fill:#1d2475"/><path d="M87.43027,96.8763c-.01663-1.543-.02494-2.34507-.04156-3.94171.22408.00116.33607.00148.56.00169.01521,1.59594.02282,2.39784.038,3.93778C87.76424,96.87543,87.653,96.87589,87.43027,96.8763Z" style="fill:#1d2475"/><path d="M89.23341,93.44764a.384.384,0,0,1-.09155.26385.299.299,0,0,1-.23154.107.29559.29559,0,0,1-.23521-.10391.38393.38393,0,0,1-.09389-.26277.39467.39467,0,0,1,.08948-.26387.30419.30419,0,0,1,.46909-.00286A.40078.40078,0,0,1,89.23341,93.44764Zm-.5737,3.42065c-.00908-1.03634-.01361-1.56868-.02269-2.6385.22324-.00116.33481-.00195.55789-.004.00806,1.06915.0121,1.60105.02017,2.63538C88.993,96.86444,88.88194,96.86587,88.65971,96.86829Z" style="fill:#1d2475"/><path d="M90.41736,94.21009l.00233.42309.00961-.00016a.85567.85567,0,0,1,.22691-.36727.56874.56874,0,0,1,.39549-.15632.54375.54375,0,0,1,.333.08449.58717.58717,0,0,1,.195.23858,1.16842,1.16842,0,0,1,.09438.3444,3.16893,3.16893,0,0,1,.02631.39624c.00227.66268.00341.99113.00567,1.63524-.22163.00595-.33246.00882-.55414.01429-.00287-.64508-.00431-.97381-.00717-1.63684-.00029-.06526-.00345-.132-.01047-.19934a.69619.69619,0,0,0-.0421-.1839.303.303,0,0,0-.09473-.13079.24492.24492,0,0,0-.15974-.04622.33995.33995,0,0,0-.29688.20345,1.01741,1.01741,0,0,0-.10775.5003c.00338.61081.00506.91376.00844,1.50972-.22179.00474-.33271.007-.55461.01106-.00684-1.032-.01027-1.56339-.01712-2.63182C90.08891,94.21538,90.19841,94.21373,90.41736,94.21009Z" style="fill:#1d2475"/><path d="M92.74794,95.63038a1.3488,1.3488,0,0,0,.03022.28832.81709.81709,0,0,0,.08566.232.46187.46187,0,0,0,.13813.15361.30782.30782,0,0,0,.18869.05266.32.32,0,0,0,.24215-.10893.83151.83151,0,0,0,.14445-.23838c.1629.09266.24433.13881.40715.2308a1.06576,1.06576,0,0,1-.30624.43659.8739.8739,0,0,1-1.2081-.15737,1.6597,1.6597,0,0,1-.26693-1.01842,2.28313,2.28313,0,0,1,.06662-.57848,1.48216,1.48216,0,0,1,.19574-.45507.98344.98344,0,0,1,.302-.29878.77908.77908,0,0,1,.39079-.11327.75256.75256,0,0,1,.41019.09153.77246.77246,0,0,1,.27568.276,1.30908,1.30908,0,0,1,.15457.41968,2.589,2.589,0,0,1,.04989.526v.22159C93.52827,95.60736,93.26819,95.61546,92.74794,95.63038Zm.77029-.44572a1.10375,1.10375,0,0,0-.08862-.47695A.28083.28083,0,0,0,93.154,94.531a.27749.27749,0,0,0-.18421.07317.52109.52109,0,0,0-.12259.1728,1.01722,1.01722,0,0,0-.07063.22.9816.9816,0,0,0-.02457.21053C93.05849,95.19878,93.21174,95.19419,93.51823,95.18466Z" style="fill:#1d2475"/><g style="isolation:isolate"><path d="M132.29,73.84131h-4.38867L127.46,77.41162h3.75879l-.14648,1.06348H127.334l-.53222,4.32617h-1.32227L126.71777,72.77h5.70508Z" style="fill:blue"/><path d="M134.83105,75.71045l-.85351,7.09082H132.752l.8545-7.09082Zm.46875-2.22656a.79266.79266,0,0,1-.07324.33984.96792.96792,0,0,1-.19629.28027.94472.94472,0,0,1-.27636.19239.76539.76539,0,0,1-.32129.07031.75239.75239,0,0,1-.31543-.07031.86651.86651,0,0,1-.26953-.19239.9933.9933,0,0,1-.18555-.28027.82056.82056,0,0,1-.07031-.33984.84764.84764,0,0,1,.07031-.34278.95284.95284,0,0,1,.46191-.47949.72717.72717,0,0,1,.31543-.07324.76539.76539,0,0,1,.32129.07031.92567.92567,0,0,1,.27735.19238.89914.89914,0,0,1,.19238.28711A.88482.88482,0,0,1,135.2998,73.48389Z" style="fill:blue"/><path d="M136.1123,82.80127l1.25293-10.31055h1.22461l-1.25293,10.31055Z" style="fill:blue"/><path d="M139.43652,82.80127l1.25293-10.31055H141.915l-1.25391,10.31055Z" style="fill:blue"/><path d="M145.96,81.46436c0-.02832.00195-.06446.00391-.1084.002-.04492.00683-.1084.01367-.19239.00781-.084.01758-.19433.03223-.3291.01367-.13574.03418-.3125.0625-.53222l.4414-3.54883h-.791a.21736.21736,0,0,1-.15039-.05274.207.207,0,0,1-.05957-.16406.8402.8402,0,0,1,.00683-.084q.00732-.063.01758-.14356c.00684-.05371.01367-.1084.02051-.165q.01024-.08349.01758-.16113l1.09179-.14648.52539-2.19141a.331.331,0,0,1,.10547-.1709.27463.27463,0,0,1,.18848-.06641h.6582l-.30859,2.44239h1.8623l-.10449.90332h-1.86914l-.42676,3.48633c-.02344.1914-.041.34472-.05273.46191-.01172.11621-.02149.21-.02832.2793-.00684.07031-.01172.11914-.01368.14746-.00292.02832-.0039.04883-.0039.0625a.73793.73793,0,0,0,.165.52929.59469.59469,0,0,0,.45117.1709.914.914,0,0,0,.32227-.05273,1.323,1.323,0,0,0,.24121-.11524c.06738-.042.125-.08007.17187-.11523a.21424.21424,0,0,1,.126-.05273.12571.12571,0,0,1,.08691.02832.34018.34018,0,0,1,.06641.09082l.25976.59472a2.5308,2.5308,0,0,1-.77441.47266,2.38771,2.38771,0,0,1-.87793.17187,1.49662,1.49662,0,0,1-1.07129-.37109A1.45964,1.45964,0,0,1,145.96,81.46436Z" style="fill:blue"/><path d="M152.666,82.89893a2.76494,2.76494,0,0,1-1.06348-.19922,2.33256,2.33256,0,0,1-.833-.57715,2.65839,2.65839,0,0,1-.5459-.92383,3.67144,3.67144,0,0,1-.19629-1.24609,5.02373,5.02373,0,0,1,.28028-1.6875,4.55874,4.55874,0,0,1,.7666-1.38575,3.64894,3.64894,0,0,1,1.14746-.93847,3.06623,3.06623,0,0,1,1.43164-.34278,2.76636,2.76636,0,0,1,1.06445.19922,2.356,2.356,0,0,1,.833.57813,2.67047,2.67047,0,0,1,.5459.92773,3.70112,3.70112,0,0,1,.19531,1.24219,4.99861,4.99861,0,0,1-.27929,1.67969,4.6007,4.6007,0,0,1-.76661,1.38574,3.65632,3.65632,0,0,1-1.15136.94238A3.05346,3.05346,0,0,1,152.666,82.89893Zm.1123-.97266a1.64061,1.64061,0,0,0,.93066-.28027,2.43845,2.43845,0,0,0,.71387-.74512,3.83754,3.83754,0,0,0,.45508-1.07422,4.96506,4.96506,0,0,0,.16113-1.27441,2.38224,2.38224,0,0,0-.38476-1.47657,1.32221,1.32221,0,0,0-1.11328-.49707,1.65335,1.65335,0,0,0-.93457.27637,2.43987,2.43987,0,0,0-.71.74219,3.81326,3.81326,0,0,0-.45507,1.07422,4.96256,4.96256,0,0,0-.16114,1.27343,2.41053,2.41053,0,0,0,.38184,1.48047A1.31555,1.31555,0,0,0,152.77832,81.92627Z" style="fill:blue"/><path d="M160.49219,81.46436c0-.02832.001-.06446.0039-.1084.002-.04492.00684-.1084.01368-.19239s.01757-.19433.03125-.3291c.01367-.13574.03515-.3125.06347-.53222l.44043-3.54883h-.791a.219.219,0,0,1-.15039-.05274.207.207,0,0,1-.05957-.16406c0-.01465.00293-.042.00683-.084q.00732-.063.01758-.14356c.00684-.05371.01465-.1084.02148-.165q.01026-.08349.01758-.16113l1.0918-.14648.52539-2.19141a.3294.3294,0,0,1,.10449-.1709.27714.27714,0,0,1,.18945-.06641h.65723l-.30762,2.44239h1.86231l-.10547.90332h-1.86914l-.42676,3.48633c-.02344.1914-.041.34472-.05273.46191-.01172.11621-.02051.21-.02735.2793-.00781.07031-.01172.11914-.01464.14746-.002.02832-.00293.04883-.00293.0625a.74224.74224,0,0,0,.16406.52929.59469.59469,0,0,0,.45117.1709.90641.90641,0,0,0,.32227-.05273,1.33362,1.33362,0,0,0,.24218-.11524c.06739-.042.124-.08007.1709-.11523a.21912.21912,0,0,1,.126-.05273.13012.13012,0,0,1,.08789.02832.36269.36269,0,0,1,.0664.09082l.25879.59472a2.51442,2.51442,0,0,1-.77343.47266,2.39658,2.39658,0,0,1-.87891.17187,1.49412,1.49412,0,0,1-1.07031-.37109A1.452,1.452,0,0,1,160.49219,81.46436Z" style="fill:blue"/><path d="M164.72754,82.80127l1.24512-10.31055h1.24609l-.58105,4.78711a4.20151,4.20151,0,0,1,1.22851-1.249A2.57435,2.57435,0,0,1,169.249,75.605a1.509,1.509,0,0,1,1.23926.53223,2.39727,2.39727,0,0,1,.4336,1.54687c0,.09375-.002.19043-.00684.291-.00488.09961-.01367.2041-.02832.31152l-.53125,4.51465h-1.24609l.53124-4.51465c.00977-.09375.01758-.18359.0254-.26953.00683-.08691.00976-.16895.00976-.249a1.40619,1.40619,0,0,0-.21289-.85352.797.797,0,0,0-.67578-.28027,1.40972,1.40972,0,0,0-.64746.17187,2.6264,2.6264,0,0,0-.64746.48633,4.07728,4.07728,0,0,0-.58789.75977,5.60925,5.60925,0,0,0-.47657.99023l-.45507,3.75879Z" style="fill:blue"/><path d="M177.76074,77.229a1.91593,1.91593,0,0,1-.18847.85059,1.77294,1.77294,0,0,1-.69336.7002,5.16878,5.16878,0,0,1-1.38575.543,15.2974,15.2974,0,0,1-2.26855.37012c-.00391.05176-.00684.10156-.00684.15137v.15039a2.18422,2.18422,0,0,0,.41016,1.43066,1.512,1.512,0,0,0,1.23535.49414,2.326,2.326,0,0,0,.59863-.07031,2.59506,2.59506,0,0,0,.46875-.1709,2.1407,2.1407,0,0,0,.36426-.22461c.10449-.08105.20117-.15625.29-.22363s.16992-.125.24512-.17187a.4172.4172,0,0,1,.22363-.07032.308.308,0,0,1,.23145.11914l.30761.38575a6.37491,6.37491,0,0,1-.69629.63281,4.0452,4.0452,0,0,1-.69628.4375,3.107,3.107,0,0,1-.7461.25586,4.11043,4.11043,0,0,1-.83594.08008,2.78285,2.78285,0,0,1-1.09179-.20313,2.24508,2.24508,0,0,1-.81934-.57715,2.59305,2.59305,0,0,1-.51758-.90625,3.63961,3.63961,0,0,1-.18261-1.19043,5.26654,5.26654,0,0,1,.11523-1.08789,5.13642,5.13642,0,0,1,.33594-1.0332,4.70833,4.70833,0,0,1,.53906-.90918,3.6313,3.6313,0,0,1,.72852-.72461,3.393,3.393,0,0,1,.90332-.47949,3.13048,3.13048,0,0,1,1.06054-.17578,2.54829,2.54829,0,0,1,.93067.15429,1.973,1.973,0,0,1,.64355.39258,1.56846,1.56846,0,0,1,.375.52442A1.40426,1.40426,0,0,1,177.76074,77.229Zm-2.1416-.7207a1.826,1.826,0,0,0-.8125.18164,2.156,2.156,0,0,0-.65723.501,3.03054,3.03054,0,0,0-.49023.749,4.471,4.471,0,0,0-.31543.92774,13.65657,13.65657,0,0,0,1.72949-.30469,4.31284,4.31284,0,0,0,1.001-.3711,1.08388,1.08388,0,0,0,.46191-.43066,1.10309,1.10309,0,0,0,.11231-.4834.70646.70646,0,0,0-.23535-.51074.968.968,0,0,0-.31836-.18555A1.36374,1.36374,0,0,0,175.61914,76.5083Z" style="fill:blue"/><path d="M181.36621,82.80127l1.25293-10.31055h1.22559l-1.25391,10.31055Z" style="fill:blue"/><path d="M186.81934,75.71045l-.8545,7.09082h-1.22461l.85352-7.09082Zm.46875-2.22656a.79266.79266,0,0,1-.07325.33984,1.00669,1.00669,0,0,1-.19629.28027.95779.95779,0,0,1-.27636.19239.76651.76651,0,0,1-.32227.07031.75571.75571,0,0,1-.31543-.07031.85127.85127,0,0,1-.26855-.19239.973.973,0,0,1-.18555-.28027.82072.82072,0,0,1-.07031-.33984.84781.84781,0,0,1,.07031-.34278.9426.9426,0,0,1,.46191-.47949.723.723,0,0,1,.31446-.07324.7665.7665,0,0,1,.32226.07031.92131.92131,0,0,1,.27637.19238.88322.88322,0,0,1,.19238.28711A.86841.86841,0,0,1,187.28809,73.48389Z" style="fill:blue"/><path d="M187.98047,82.80127l.84765-7.09766h.62208a.37159.37159,0,0,1,.42089.41993l-.10547,1.37207a4.3902,4.3902,0,0,1,1.27735-1.41407,2.61244,2.61244,0,0,1,1.47363-.47656,1.50285,1.50285,0,0,1,1.22852.53223,2.39351,2.39351,0,0,1,.4375,1.55371c0,.09375-.002.18945-.00684.28711-.00488.09863-.01367.20117-.02832.30859l-.53223,4.51465h-1.24511l.53125-4.51465c.00976-.09375.01758-.18359.02441-.26953.00781-.08691.01074-.16895.01074-.249a1.3854,1.3854,0,0,0-.21386-.85059.79092.79092,0,0,0-.668-.27637,1.45534,1.45534,0,0,0-.68262.18262,2.646,2.646,0,0,0-.668.51367,4.1539,4.1539,0,0,0-.59863.80567,5.65757,5.65757,0,0,0-.47266,1.05273l-.40625,3.60547Z" style="fill:blue"/><path d="M201.01465,77.229a1.9158,1.9158,0,0,1-.18848.85059,1.77281,1.77281,0,0,1-.69336.7002,5.16856,5.16856,0,0,1-1.38574.543,15.2974,15.2974,0,0,1-2.26855.37012c-.00391.05176-.00684.10156-.00684.15137v.15039a2.18422,2.18422,0,0,0,.41016,1.43066,1.512,1.512,0,0,0,1.23535.49414,2.326,2.326,0,0,0,.59863-.07031,2.59534,2.59534,0,0,0,.46875-.1709,2.1407,2.1407,0,0,0,.36426-.22461c.10449-.08105.20117-.15625.29-.22363s.16992-.125.24511-.17187a.41724.41724,0,0,1,.22364-.07032.308.308,0,0,1,.23144.11914l.30762.38575a6.37583,6.37583,0,0,1-.69629.63281,4.04528,4.04528,0,0,1-.69629.4375,3.107,3.107,0,0,1-.74609.25586,4.11043,4.11043,0,0,1-.83594.08008,2.7829,2.7829,0,0,1-1.0918-.20313,2.24512,2.24512,0,0,1-.81933-.57715,2.59274,2.59274,0,0,1-.51758-.90625,3.6396,3.6396,0,0,1-.18262-1.19043,5.26586,5.26586,0,0,1,.11524-1.08789,5.1364,5.1364,0,0,1,.33593-1.0332,4.70837,4.70837,0,0,1,.53907-.90918,3.63125,3.63125,0,0,1,.72851-.72461,3.39319,3.39319,0,0,1,.90332-.47949,3.13054,3.13054,0,0,1,1.06055-.17578,2.54824,2.54824,0,0,1,.93066.15429,1.973,1.973,0,0,1,.64356.39258,1.56846,1.56846,0,0,1,.375.52442A1.40444,1.40444,0,0,1,201.01465,77.229Zm-2.1416-.7207a1.826,1.826,0,0,0-.8125.18164,2.156,2.156,0,0,0-.65723.501,3.03,3.03,0,0,0-.49023.749,4.46985,4.46985,0,0,0-.31543.92774,13.65657,13.65657,0,0,0,1.72949-.30469,4.31274,4.31274,0,0,0,1.001-.3711,1.084,1.084,0,0,0,.46192-.43066,1.10308,1.10308,0,0,0,.1123-.4834.70646.70646,0,0,0-.23535-.51074.96786.96786,0,0,0-.31836-.18555A1.36368,1.36368,0,0,0,198.87305,76.5083Z" style="fill:blue"/><path d="M125.36719,92.51025h.93066a.35708.35708,0,0,1,.22754.06934.27519.27519,0,0,1,.10156.18945l.65137,4.56446a3.64912,3.64912,0,0,1,.03809.47168c.00195.15234.00586.30273.01074.45214q.08349-.22411.17187-.45214.08643-.22705.18457-.47168l1.93946-4.59278a.403.403,0,0,1,.13672-.1748.34628.34628,0,0,1,.21289-.07031h.51855a.31137.31137,0,0,1,.2168.07031.27586.27586,0,0,1,.09082.1748l.791,4.59278c.02832.16308.05078.32129.06641.47558.0166.1543.03223.30762.0459.46192.04687-.14942.0918-.30176.13672-.458a4.72565,4.72565,0,0,1,.16406-.47949l1.792-4.56446a.4155.4155,0,0,1,.13965-.18554.36635.36635,0,0,1,.22461-.07325h.89551l-2.97461,7.09082h-.94531c-.10743,0-.17481-.0791-.20313-.23828l-.86035-4.80859c-.01465-.0752-.02637-.15039-.03516-.22754-.00976-.07715-.01855-.15332-.02832-.22754-.02343.0791-.04687.15625-.06933.23047-.02344.0752-.05176.15234-.084.23145l-2.05176,4.80175c-.06543.15918-.1582.23828-.27929.23828h-.91016Z" style="fill:blue"/><path d="M137.47656,92.51025l-.85351,7.09082h-1.22559l.85449-7.09082Zm.46875-2.22656a.79273.79273,0,0,1-.07324.33985.96805.96805,0,0,1-.19629.28027.94473.94473,0,0,1-.27637.19238.7652.7652,0,0,1-.32129.07031.75216.75216,0,0,1-.31542-.07031.86664.86664,0,0,1-.26954-.19238.99363.99363,0,0,1-.18554-.28027.82065.82065,0,0,1-.07032-.33985.8476.8476,0,0,1,.07032-.34277.95274.95274,0,0,1,.46191-.47949.72718.72718,0,0,1,.31543-.07325.76524.76524,0,0,1,.32129.07032.92532.92532,0,0,1,.27734.19238.89889.89889,0,0,1,.19239.28711A.88477.88477,0,0,1,137.94531,90.28369Z" style="fill:blue"/><path d="M139.25488,98.26416c0-.02832.001-.06445.00391-.1084.00195-.04492.00683-.1084.01367-.19238s.01758-.19434.03125-.3291c.01367-.13574.03516-.3125.06348-.53223l.44043-3.54883h-.791a.21911.21911,0,0,1-.15039-.05273.207.207,0,0,1-.05957-.16406c0-.01465.00293-.042.00684-.084q.00732-.063.01757-.14355c.00684-.05371.01465-.1084.02149-.165q.01026-.0835.01758-.16114l1.09179-.14648.52539-2.19141a.32945.32945,0,0,1,.1045-.17089.27705.27705,0,0,1,.18945-.06641h.65723l-.30762,2.44238h1.8623l-.10546.90332h-1.86915l-.42675,3.48633c-.02344.19141-.041.34473-.05274.46191-.01172.11622-.02051.21-.02734.2793-.00781.07031-.01172.11914-.01465.14746-.002.02832-.00293.04883-.00293.0625a.74233.74233,0,0,0,.16406.5293.59473.59473,0,0,0,.45118.1709.90631.90631,0,0,0,.32226-.05274,1.3344,1.3344,0,0,0,.24219-.11523c.06738-.042.124-.08008.1709-.11524a.21913.21913,0,0,1,.126-.05273.13015.13015,0,0,1,.08789.02832.36331.36331,0,0,1,.06641.09082l.25879.59473a2.51425,2.51425,0,0,1-.77344.47265,2.39655,2.39655,0,0,1-.8789.17188,1.49416,1.49416,0,0,1-1.07032-.37109A1.452,1.452,0,0,1,139.25488,98.26416Z" style="fill:blue"/><path d="M143.49023,99.60107l1.24512-10.31054h1.2461l-.58106,4.78711a4.20134,4.20134,0,0,1,1.22852-1.249,2.5744,2.5744,0,0,1,1.38281-.42382,1.509,1.509,0,0,1,1.23926.53222,2.3973,2.3973,0,0,1,.43359,1.54688c0,.09375-.002.19043-.00684.291-.00488.09961-.01367.2041-.02832.31153l-.53125,4.51464h-1.24609l.53125-4.51464c.00977-.09375.01758-.1836.02539-.26954.00684-.08691.00977-.16894.00977-.249a1.40618,1.40618,0,0,0-.21289-.85351.797.797,0,0,0-.67579-.28028,1.40974,1.40974,0,0,0-.64746.17188,2.6259,2.6259,0,0,0-.64746.48633,4.07752,4.07752,0,0,0-.58789.75976,5.60967,5.60967,0,0,0-.47656.99024l-.45508,3.75878Z" style="fill:blue"/><path d="M158.12012,93.644a.46246.46246,0,0,1-.11231.12207.23563.23563,0,0,1-.13965.03907.39045.39045,0,0,1-.21386-.07715c-.07715-.05078-.16992-.1084-.28028-.17188a2.29158,2.29158,0,0,0-.40234-.1748,2.013,2.013,0,0,0-1.14746.00683,1.42994,1.42994,0,0,0-.44824.24219,1.08113,1.08113,0,0,0-.291.36035.98208.98208,0,0,0-.10156.4375.6675.6675,0,0,0,.21777.52442,1.98821,1.98821,0,0,0,.5459.33984c.21875.0957.45605.18848.71.27637a3.65614,3.65614,0,0,1,.71094.33594,1.82058,1.82058,0,0,1,.5459.51855,1.414,1.414,0,0,1,.21679.81836,2.35962,2.35962,0,0,1-.19238.93848,2.32643,2.32643,0,0,1-.55273.78711,2.73643,2.73643,0,0,1-.86817.543,3.05383,3.05383,0,0,1-1.13769.20313,2.8261,2.8261,0,0,1-1.2002-.24219,2.48339,2.48339,0,0,1-.85058-.61914l.30761-.47559a.44152.44152,0,0,1,.13379-.14062.35958.35958,0,0,1,.19531-.04883.34736.34736,0,0,1,.22461.09766c.07422.06543.168.13965.2793.2207a1.72252,1.72252,0,0,0,1.07129.31836,1.72287,1.72287,0,0,0,.61914-.10449,1.46147,1.46147,0,0,0,.46973-.28028,1.19278,1.19278,0,0,0,.29394-.40917,1.25174,1.25174,0,0,0,.10157-.501.75257.75257,0,0,0-.21778-.56641,1.76389,1.76389,0,0,0-.5459-.35058c-.21875-.09278-.45507-.18067-.707-.2627a3.57883,3.57883,0,0,1-.707-.31445,1.71858,1.71858,0,0,1-.5459-.501,1.39293,1.39293,0,0,1-.21679-.81836,2.176,2.176,0,0,1,.17871-.86523,2.231,2.231,0,0,1,.51464-.73828,2.53173,2.53173,0,0,1,.81543-.51465,2.886,2.886,0,0,1,1.08106-.19238,2.77064,2.77064,0,0,1,1.124.21386,2.59974,2.59974,0,0,1,.83594.57715Z" style="fill:blue"/><path d="M159.61719,98.26416c0-.02832.00195-.06445.0039-.1084.002-.04492.00684-.1084.01368-.19238.00781-.084.01757-.19434.03222-.3291.01367-.13574.03418-.3125.0625-.53223l.44141-3.54883h-.791a.21742.21742,0,0,1-.15039-.05273.207.207,0,0,1-.05957-.16406.84138.84138,0,0,1,.00684-.084q.00732-.063.01758-.14355c.00683-.05371.01367-.1084.0205-.165q.01026-.0835.01758-.16114l1.0918-.14648.52539-2.19141a.33089.33089,0,0,1,.10547-.17089.27457.27457,0,0,1,.18847-.06641h.65821l-.3086,2.44238h1.86231l-.10449.90332h-1.86914l-.42676,3.48633c-.02344.19141-.041.34473-.05274.46191-.01172.11622-.02148.21-.02832.2793-.00683.07031-.01172.11914-.01367.14746-.00293.02832-.0039.04883-.0039.0625a.738.738,0,0,0,.165.5293.59473.59473,0,0,0,.45118.1709.91393.91393,0,0,0,.32226-.05274,1.323,1.323,0,0,0,.24121-.11523c.06739-.042.125-.08008.17188-.11524a.21431.21431,0,0,1,.126-.05273.12579.12579,0,0,1,.08692.02832.34052.34052,0,0,1,.0664.09082l.25977.59473a2.53058,2.53058,0,0,1-.77441.47265,2.38776,2.38776,0,0,1-.87793.17188,1.4966,1.4966,0,0,1-1.07129-.37109A1.45964,1.45964,0,0,1,159.61719,98.26416Z" style="fill:blue"/><path d="M163.79688,99.60107l.85351-7.09765h.62305a.478.478,0,0,1,.30859.09082.341.341,0,0,1,.11133.28027c0,.01856-.001.04492-.00293.08008-.00293.03516-.00488.07129-.00781.1084-.002.03711-.00391.07031-.00684.09765l-.00293.04981-.09863,1.28809a4.91133,4.91133,0,0,1,1.01855-1.5127,1.71828,1.71828,0,0,1,1.18653-.53223,1.47854,1.47854,0,0,1,.58789.126l-.22364,1.19727a1.71107,1.71107,0,0,0-.63671-.13282,1.53788,1.53788,0,0,0-1.21094.66114,5.48023,5.48023,0,0,0-.88965,2.00586l-.3916,3.29Z" style="fill:blue"/><path d="M174.10059,94.02881a1.91576,1.91576,0,0,1-.18848.85058,1.77287,1.77287,0,0,1-.69336.7002,5.16868,5.16868,0,0,1-1.38574.543,15.29865,15.29865,0,0,1-2.26856.37012c-.0039.05175-.00683.10156-.00683.15136v.15039a2.18433,2.18433,0,0,0,.41015,1.43067,1.512,1.512,0,0,0,1.23535.49414,2.32646,2.32646,0,0,0,.59864-.07031,2.59714,2.59714,0,0,0,.46875-.1709,2.1411,2.1411,0,0,0,.36426-.22461c.10449-.08106.20117-.15625.29-.22363s.16993-.125.24512-.17188a.4173.4173,0,0,1,.22363-.07031.308.308,0,0,1,.23145.11914l.30762.38574a6.37574,6.37574,0,0,1-.69629.63281,4.04467,4.04467,0,0,1-.69629.4375,3.107,3.107,0,0,1-.74609.25586,4.11043,4.11043,0,0,1-.83594.08008,2.78291,2.78291,0,0,1-1.0918-.20312,2.24524,2.24524,0,0,1-.81933-.57715,2.59283,2.59283,0,0,1-.51758-.90625,3.63969,3.63969,0,0,1-.18262-1.19043,5.26646,5.26646,0,0,1,.11523-1.08789,5.13694,5.13694,0,0,1,.33594-1.03321,4.70833,4.70833,0,0,1,.53906-.90918,3.63156,3.63156,0,0,1,.72852-.72461,3.39347,3.39347,0,0,1,.90332-.47949,3.13054,3.13054,0,0,1,1.06055-.17578,2.54823,2.54823,0,0,1,.93066.1543,1.97307,1.97307,0,0,1,.64356.39258,1.5687,1.5687,0,0,1,.375.52441A1.40449,1.40449,0,0,1,174.10059,94.02881Zm-2.14161-.7207a1.82589,1.82589,0,0,0-.8125.18164,2.15593,2.15593,0,0,0-.65722.501,3.03054,3.03054,0,0,0-.49024.749,4.47113,4.47113,0,0,0-.31543.92773,13.65677,13.65677,0,0,0,1.7295-.30469,4.313,4.313,0,0,0,1.001-.37109,1.084,1.084,0,0,0,.46192-.43066,1.10308,1.10308,0,0,0,.1123-.4834.7065.7065,0,0,0-.23535-.51075.968.968,0,0,0-.31836-.18554A1.3637,1.3637,0,0,0,171.959,93.30811Z" style="fill:blue"/><path d="M180.09961,99.60107h-.64356a.38077.38077,0,0,1-.333-.126.53093.53093,0,0,1-.08692-.30762l.126-1.4209a5.88515,5.88515,0,0,1-.543.80567,3.73836,3.73836,0,0,1-.61523.61523,2.74109,2.74109,0,0,1-.68262.39258,2.02644,2.02644,0,0,1-.74219.13867,1.74293,1.74293,0,0,1-.76269-.16406,1.5791,1.5791,0,0,1-.585-.4834,2.33205,2.33205,0,0,1-.374-.78418,3.87971,3.87971,0,0,1-.13379-1.06738,4.78974,4.78974,0,0,1,.15821-1.22852,4.97872,4.97872,0,0,1,1.14453-2.10644,4.67094,4.67094,0,0,1,.90625-.77051,4.30342,4.30342,0,0,1,1.07422-.50391,4.02859,4.02859,0,0,1,1.2041-.17871,5.17,5.17,0,0,1,.88574.0752,3.61931,3.61931,0,0,1,.85059.25781Zm-3.05176-.93847a1.22876,1.22876,0,0,0,.67188-.21,2.55687,2.55687,0,0,0,.623-.582,5.06633,5.06633,0,0,0,.54981-.88575,8.05032,8.05032,0,0,0,.45117-1.126l.30078-2.39844a.48512.48512,0,0,0-.30371-.124H179.043a2.45912,2.45912,0,0,0-.8125.13574,2.90279,2.90279,0,0,0-.73438.38086,3.27851,3.27851,0,0,0-.623.583,3.79378,3.79378,0,0,0-.4795.74316,4.19126,4.19126,0,0,0-.31152.8623,3.90618,3.90618,0,0,0-.1123.93848Q175.96973,98.66309,177.04785,98.6626Z" style="fill:blue"/><path d="M181.95508,99.60107l.85351-7.09765h.623a.3709.3709,0,0,1,.41992.41992l-.09765,1.2666a4.37364,4.37364,0,0,1,1.14746-1.333,2.205,2.205,0,0,1,1.3164-.45214,1.20839,1.20839,0,0,1,1.06446.49414,2.45557,2.45557,0,0,1,.34277,1.41015,4.14577,4.14577,0,0,1,1.19336-1.43847,2.37541,2.37541,0,0,1,1.38965-.46582,1.37832,1.37832,0,0,1,1.17187.51171,2.38467,2.38467,0,0,1,.38867,1.46973c0,.10742-.00488.21973-.01367.33594-.00976.11621-.02148.23828-.03515.36426l-.53223,4.51464h-1.22461l.53223-4.51464a5.30543,5.30543,0,0,0,.042-.623,1.35087,1.35087,0,0,0-.17578-.77344.6673.6673,0,0,0-.58789-.249,1.34324,1.34324,0,0,0-.60156.15039,2.15622,2.15622,0,0,0-.58106.4414,3.49762,3.49762,0,0,0-.52148.72071,5.84422,5.84422,0,0,0-.43067.99023l-.45508,3.85742h-1.23144l.53906-4.51464c.01367-.126.02539-.24512.03418-.35743.00977-.1123.01465-.21679.01465-.31445a1.30839,1.30839,0,0,0-.165-.73535.65017.65017,0,0,0-.57715-.23828,1.35318,1.35318,0,0,0-.64746.168,2.1152,2.1152,0,0,0-.58789.48632,3.9615,3.9615,0,0,0-.51465.77735,7.51059,7.51059,0,0,0-.43457,1.03223l-.44043,3.69628Z" style="fill:blue"/><path d="M125.36719,109.31055h.93066a.35708.35708,0,0,1,.22754.06933.27521.27521,0,0,1,.10156.18946l.65137,4.56445a3.64926,3.64926,0,0,1,.03809.47168c.00195.15234.00586.30273.01074.45215q.08349-.22413.17187-.45215.08643-.22706.18457-.47168l1.93946-4.59277a.403.403,0,0,1,.13672-.17481.34635.34635,0,0,1,.21289-.07031h.51855a.31142.31142,0,0,1,.2168.07031.27588.27588,0,0,1,.09082.17481l.791,4.59277c.02832.16309.05078.32129.06641.47559.0166.15429.03223.30761.0459.46191.04687-.14941.0918-.30176.13672-.458a4.72649,4.72649,0,0,1,.16406-.47949l1.792-4.56445a.41558.41558,0,0,1,.13965-.18555.36634.36634,0,0,1,.22461-.07324h.89551l-2.97461,7.09082h-.94531c-.10743,0-.17481-.0791-.20313-.23828l-.86035-4.8086c-.01465-.07519-.02637-.15039-.03516-.22754-.00976-.07715-.01855-.15332-.02832-.22754-.02343.07911-.04687.15625-.06933.23047-.02344.0752-.05176.15235-.084.23145l-2.05176,4.80176c-.06543.15918-.1582.23828-.27929.23828h-.91016Z" style="fill:blue"/><path d="M140.44434,116.40137h-.64356a.38078.38078,0,0,1-.333-.126.531.531,0,0,1-.08691-.30762l.126-1.42089a5.88655,5.88655,0,0,1-.543.80566,3.738,3.738,0,0,1-.61524.61523,2.74086,2.74086,0,0,1-.68261.39258,2.02652,2.02652,0,0,1-.74219.13867,1.74284,1.74284,0,0,1-.7627-.16406,1.57908,1.57908,0,0,1-.585-.4834,2.33223,2.33223,0,0,1-.374-.78418A3.87966,3.87966,0,0,1,135.06836,114a4.78973,4.78973,0,0,1,.1582-1.22852,4.979,4.979,0,0,1,1.14453-2.10644,4.67124,4.67124,0,0,1,.90625-.77051,4.3041,4.3041,0,0,1,1.07422-.50391,4.02863,4.02863,0,0,1,1.2041-.17871,5.17007,5.17007,0,0,1,.88575.0752,3.62,3.62,0,0,1,.85058.25781Zm-3.05176-.93848a1.22875,1.22875,0,0,0,.67187-.21,2.55652,2.55652,0,0,0,.62305-.582,5.066,5.066,0,0,0,.5498-.88574,8.04973,8.04973,0,0,0,.45118-1.126l.30078-2.39844a.48512.48512,0,0,0-.30371-.124h-.29785a2.459,2.459,0,0,0-.8125.13574,2.90262,2.90262,0,0,0-.73438.38086,3.27888,3.27888,0,0,0-.62305.583,3.79374,3.79374,0,0,0-.47949.74316,4.19113,4.19113,0,0,0-.31152.86231,3.90555,3.90555,0,0,0-.11231.93847Q136.31445,115.46337,137.39258,115.46289Z" style="fill:blue"/><path d="M142.916,115.06445c0-.02832.001-.06445.0039-.1084.002-.04492.00684-.10839.01367-.19238s.01758-.19433.03125-.3291c.01368-.13574.03516-.3125.06348-.53223l.44043-3.54882h-.791a.21908.21908,0,0,1-.15039-.05274.207.207,0,0,1-.05957-.16406c0-.01465.00293-.042.00684-.084q.00732-.063.01758-.14355c.00683-.05371.01465-.1084.02148-.165q.01026-.08349.01758-.16113l1.0918-.14649.52539-2.1914a.32936.32936,0,0,1,.10449-.1709.27714.27714,0,0,1,.18945-.06641h.65723l-.30762,2.44239h1.86231l-.10547.90332h-1.86914l-.42676,3.48632c-.02344.19141-.041.34473-.05273.46192-.01172.11621-.02051.21-.02735.27929-.00781.07032-.01172.11915-.01465.14747-.00195.02832-.00293.04882-.00293.0625a.74226.74226,0,0,0,.16407.52929.59469.59469,0,0,0,.45117.1709.90654.90654,0,0,0,.32226-.05273,1.3344,1.3344,0,0,0,.24219-.11524c.06738-.042.124-.08008.1709-.11523a.21911.21911,0,0,1,.126-.05274.13017.13017,0,0,1,.08789.02832.36332.36332,0,0,1,.0664.09082l.25879.59473a2.51435,2.51435,0,0,1-.77344.47266,2.39674,2.39674,0,0,1-.8789.17187,1.49412,1.49412,0,0,1-1.07031-.37109A1.45194,1.45194,0,0,1,142.916,115.06445Z" style="fill:blue"/><path d="M152.76465,110.8291a1.9158,1.9158,0,0,1-.18848.85059,1.77272,1.77272,0,0,1-.69336.70019,5.16854,5.16854,0,0,1-1.38574.543,15.2974,15.2974,0,0,1-2.26855.37012c-.00391.05176-.00684.10156-.00684.15137v.15039a2.18422,2.18422,0,0,0,.41016,1.43066,1.512,1.512,0,0,0,1.23535.49414,2.32644,2.32644,0,0,0,.59863-.07031,2.59686,2.59686,0,0,0,.46875-.1709,2.1407,2.1407,0,0,0,.36426-.22461c.10449-.081.20117-.15625.29-.22363s.16992-.125.24511-.17188a.41731.41731,0,0,1,.22364-.07031.308.308,0,0,1,.23144.11914l.30762.38574a6.376,6.376,0,0,1-.69629.63282,4.04528,4.04528,0,0,1-.69629.4375,3.10783,3.10783,0,0,1-.74609.25586,4.11045,4.11045,0,0,1-.83594.08007,2.78291,2.78291,0,0,1-1.0918-.20312,2.24524,2.24524,0,0,1-.81933-.57715,2.59274,2.59274,0,0,1-.51758-.90625,3.63964,3.63964,0,0,1-.18262-1.19043,5.26586,5.26586,0,0,1,.11524-1.08789,5.1362,5.1362,0,0,1,.33593-1.0332,4.70777,4.70777,0,0,1,.53907-.90918,3.631,3.631,0,0,1,.72851-.72461,3.39319,3.39319,0,0,1,.90332-.47949,3.13054,3.13054,0,0,1,1.06055-.17579,2.54823,2.54823,0,0,1,.93066.1543,1.973,1.973,0,0,1,.64356.39258,1.56852,1.56852,0,0,1,.375.52441A1.40453,1.40453,0,0,1,152.76465,110.8291Zm-2.1416-.7207a1.826,1.826,0,0,0-.8125.18164,2.15585,2.15585,0,0,0-.65723.501,3.03,3.03,0,0,0-.49023.749,4.47,4.47,0,0,0-.31543.92773,13.65683,13.65683,0,0,0,1.72949-.30468,4.31319,4.31319,0,0,0,1.001-.3711,1.084,1.084,0,0,0,.46192-.43066,1.10308,1.10308,0,0,0,.1123-.4834.70646.70646,0,0,0-.23535-.51074.96786.96786,0,0,0-.31836-.18555A1.36368,1.36368,0,0,0,150.62305,110.1084Z" style="fill:blue"/><path d="M153.54883,116.40137l.85351-7.09766h.623a.478.478,0,0,1,.30859.09082.341.341,0,0,1,.11133.28027c0,.01856-.001.04493-.00293.08008-.00293.03516-.00488.07129-.00781.1084-.002.03711-.00391.07031-.00684.09766l-.00293.0498-.09863,1.28809a4.91146,4.91146,0,0,1,1.01856-1.5127,1.71822,1.71822,0,0,1,1.18652-.53222,1.47853,1.47853,0,0,1,.58789.126l-.22363,1.19727a1.7113,1.7113,0,0,0-.63672-.13281,1.53786,1.53786,0,0,0-1.21094.66113,5.48031,5.48031,0,0,0-.88965,2.00586l-.3916,3.29Z" style="fill:blue"/></g><path d="M122.31445,87.73291l-.36328-.93164c-6.9989,2.72522-13.31872,3.17578-18.80145,1.37659l1.26556-3.64368-9.97821,1.29791,7.02527,7.20386,1.358-3.91a23.01889,23.01889,0,0,0,7.24359,1.1416A33.8968,33.8968,0,0,0,122.31445,87.73291Z" style="fill:blue"/></svg>