<svg id="turbidity_-_1C" data-name="turbidity - 1C" xmlns="http://www.w3.org/2000/svg" viewBox="0 0 226 200"><rect id="back" width="226" height="200" style="fill:none"/><g id="bucket"><path d="M92.99991,155.04149c-22.8833,0-41.5-7.126-41.5-15.88575L47.65567,64.56639a4.23941,4.23941,0,0,0-1.4331-2.64209l-.34473-.38867a4.97156,4.97156,0,0,0-.439-.43164c-.3291-.29639-.43505-.4126-.43408-.65869l.00049-.25782c0-.95263,0-.95263,1.24121-1.63965l.58984-.32666-.47656-.47363a1.81139,1.81139,0,0,1-.605-1.33545,2.09111,2.09111,0,0,1,1.148-1.88623l.22754-.15918-.10156-1.96875-.22559-.13769c-1.10986-.67578-1.27392-1.31348-1.2876-1.84815a2.05225,2.05225,0,0,1,1.08594-1.84082l.22119-.15918L46.50284,42.165c.04053-2.17383,17.749-5.20654,46.49707-5.20654s46.457,3.03271,46.49707,5.20654l-.20313,3.96387.21973.15918a1.93888,1.93888,0,0,1,.96973,1.63672c.01465.53418-.11524,1.17773-1.18262,1.90967l-.2041.14013-.10938,2.10889.22657.15918a1.9753,1.9753,0,0,1,1.03125,1.6831c.01464.54834-.12305,1.20948-1.251,1.9585l-.21.13916-.10449,2.02.41992.18018c1.89551.8125,1.89551.8125,1.89551,1.94531,0,.65918,0,.65918-.35645.94726-.11914.09668-.26269.21289-.43359.36817a4.50134,4.50134,0,0,0-1.86133,3.09277l-3.84326,74.55322C134.49991,147.61864,115.10733,155.04149,92.99991,155.04149Z" style="fill:#fff"/><path d="M92.99991,37.45873a297.00494,297.00494,0,0,1,32.10553,1.54651c12.04793,1.37894,13.70042,2.97722,13.88912,3.228l-.18552,3.59917-.02793.54166.4388.31882a1.47454,1.47454,0,0,1,.76375,1.24567c.00747.282.02136.80689-.96624,1.48384l-.40784.27956-.02545.4938-.08173,1.58582-.02851.553.45366.31761a1.51063,1.51063,0,0,1,.81782,1.28632c.00755.29089.02164.83231-1.02776,1.52913l-.41957.2786-.02593.503-.07323,1.42034-.03588.69582.64033.2747.10005.0429a11.49227,11.49227,0,0,1,1.55818.72979,4.25277,4.25277,0,0,1,.03346.75611,3.49041,3.49041,0,0,1-.01823.43508c-.042.038-.09336.07576-.15257.1236-.12566.10157-.27583.22333-.45527.38611a4.98142,4.98142,0,0,0-2.02476,3.43775l-3.843,74.55281-.00133.02569v.02577c0,7.27713-16.83809,15.38553-41,15.38553-22.22429,0-41-7.04571-41-15.38553V139.13l-.00132-.02569L48.15508,64.54075a4.68173,4.68173,0,0,0-1.55962-2.94959c-.11029-.12309-.22455-.25058-.34135-.38441a5.46538,5.46538,0,0,0-.48051-.47419,1.31709,1.31709,0,0,1-.26871-.285l.0004-.25949a6.14021,6.14021,0,0,1,.01733-.62681,8.82492,8.82492,0,0,1,.97338-.5799l1.17982-.65333-.96787-.93917a1.30354,1.30354,0,0,1-.45351-.98958c-.01076-.41365.095-.87727.9346-1.4637l.45462-.31753-.02857-.5538-.07367-1.4284-.02722-.52758-.45112-.27487c-1.02671-.62559-1.04049-1.15164-1.04789-1.43426-.01055-.40238.08861-.85313.87872-1.42184l.44257-.31854-.02808-.54455-.30316-5.8809c.18871-.25078,1.84121-1.84908,13.88914-3.228a297.00508,297.00508,0,0,1,32.10553-1.54651m0-1c-25.92114,0-46.93865,2.54948-46.99725,5.697h-.00275l.00055.01049-.00055.00264.00091.00433.30891,5.99244a2.56212,2.56212,0,0,0-1.2942,2.25963,2.619,2.619,0,0,0,1.52722,2.262l.07367,1.4284a2.59993,2.59993,0,0,0-1.36164,2.30956,2.30275,2.30275,0,0,0,.75679,1.68122c-1.60248.88738-1.50018.82818-1.50666,2.33672-.003.68739.54377.90308.99573,1.421.87078.99775,1.60022,1.64973,1.65576,2.728l3.84351,74.56354c0,9.07,18.804,16.38553,42,16.38553s42-7.77894,42-16.38553l3.843-74.5528a3.99913,3.99913,0,0,1,1.698-2.74858c.78273-.71009.95416-.55225.95416-1.68543,0-1.4845-.00371-1.46388-2.29747-2.44782l.07323-1.42035a2.65543,2.65543,0,0,0,1.47424-2.38818,2.48634,2.48634,0,0,0-1.24394-2.07953l.08172-1.58581a2.61557,2.61557,0,0,0,1.40052-2.33515,2.45375,2.45375,0,0,0-1.17561-2.0282l.19128-3.71069.00092-.00433-.00054-.00264.00054-.01049h-.00274c-.0586-3.14753-21.07611-5.697-46.99726-5.697Z" style="fill:#333"/><path d="M92.99991,86.42137c-6.3584,0-12.68994-.26025-18.81836-.77295l.10449-1.24609c6.09375.51025,12.39014.769,18.71387.769Z" style="fill:#1d2475"/><path d="M92.99991,67.76808c-21.292,0-42.373-3.08642-47.99219-7.02685l.28711-.40918c4.86231,3.40918,24.03565,6.936,47.70508,6.936,23.29443,0,42.5498-3.47168,47.707-6.82812l.27344.41894C135.02628,64.73341,113.95108,67.76808,92.99991,67.76808Z" style="fill:#333;opacity:0.35000000000000003"/><path d="M92.99991,66.27586c-21.292,0-42.37256-3.08691-47.99219-7.02734l.28711-.40918C50.15762,62.249,69.331,65.77586,92.99991,65.77586c22.78955,0,42.52734-3.66455,47.74512-7.06006l.27343.41895C134.23966,63.54588,110.81534,66.27586,92.99991,66.27586Z" style="fill:#333;opacity:0.1"/><path d="M83.02921,61.995c-17.937,0-32.42823-1.42041-36.84034-3.75146l.2334-.44238c5.06787,2.67773,24.71924,4.17431,46.7251,3.54882,20.35449-.5747,39.02539-2.91894,45.4043-5.70068l.19922.458c-6.53272,2.84912-24.854,5.15674-45.58985,5.74267C89.6962,61.94764,86.30508,61.995,83.02921,61.995Z" style="fill:#333;opacity:0.35000000000000003"/><path d="M83.51309,58.0786c-17.73388,0-32.16894-1.45069-36.6582-3.82276l.2334-.44238c5.21191,2.75391,24.15039,4.24512,46.05908,3.627,20.353-.57422,39.02393-2.91845,45.4043-5.70068l.19922.458c-6.53418,2.84961-24.85547,5.15722-45.58985,5.74267C89.8671,58.03319,86.63858,58.0786,83.51309,58.0786Z" style="fill:#333;opacity:0.1"/><path d="M83.39444,55.85075c-17.084,0-31.37744-1.3003-36.43066-3.4419l.19531-.46c5.94385,2.519,24.90576,3.86182,46.11328,3.26074,20.89453-.59033,39.19482-2.84521,45.53809-5.61084l.19921.458c-6.3955,2.78955-24.7705,5.061-45.72363,5.65283C89.91983,55.80436,86.60635,55.85075,83.39444,55.85075Z" style="fill:#333;opacity:0.35000000000000003"/><path d="M83.38907,51.97215c-17.08008,0-31.37158-1.30029-36.42529-3.44141l.19531-.46c5.9458,2.51856,24.90771,3.85987,46.11328,3.26026,21.03906-.59375,39.33936-2.8086,45.53809-5.51172l.19921.458c-6.25146,2.72656-24.62646,4.958-45.72363,5.55371C89.91739,51.92625,86.60342,51.97215,83.38907,51.97215Z" style="fill:#333;opacity:0.1"/><path d="M136.69335,42.00834a.37672.37672,0,0,1-.02715.4871.90357.90357,0,0,1-.19547.14828,2.54926,2.54926,0,0,1-.34866.163c-.22682.0878-.45116.15447-.67626.21988-.44972.12607-.89992.23083-1.351.32829-.90211.19372-1.807.35587-2.71335.50654-1.81273.3-3.63107.54848-5.45173.77477-3.6417.449-7.29347.80013-10.95005,1.08768q-10.97371.805-21.987.84687-11.00562-.07213-21.98248-.90924c-3.65619-.282-7.30786-.62619-10.94928-1.0705-1.82052-.22375-3.63873-.47-5.451-.76856-.90611-.14982-1.81075-.3115-2.71217-.50515-.4507-.09782-.90048-.20189-1.34921-.32931-.22448-.06477-.44835-.1343-.674-.22274a2.19384,2.19384,0,0,1-.34557-.16652.63749.63749,0,0,1-.19462-.16746.363.363,0,0,1-.0762-.21545.37756.37756,0,0,1,.08032-.20408,3.03523,3.03523,0,0,1,1.28615-.7415c.44106-.15871.88689-.28461,1.33422-.40023.895-.22918,1.79716-.408,2.70123-.57069,1.80887-.32059,3.6269-.56588,5.44771-.77845,3.6419-.42533,7.29668-.70163,10.95221-.93808,7.31207-.46831,14.63946-.652,21.96419-.63223,7.32473-.02334,14.65243.13,21.96754.56059,3.65779.20766,7.31351.48154,10.95732.89976,1.82145.21227,3.64042.45792,5.44894.79113.90387.169,1.80553.35751,2.69865.60344a13.52215,13.52215,0,0,1,1.32946.43354A3.38974,3.38974,0,0,1,136.69335,42.00834Zm-.38687.32114a3.03235,3.03235,0,0,0-1.0615-.64335,13.07456,13.07456,0,0,0-1.27469-.43622c-.8691-.25331-1.75879-.45347-2.65216-.63416-1.78874-.35709-3.59777-.62895-5.41058-.86744-3.6275-.47093-7.27535-.79877-10.927-1.0604-7.30661-.48967-14.63175-.70078-21.9563-.73611-7.32468.01859-14.64986.24814-21.95563.75787q-5.4784.38891-10.92629,1.08875c-1.81335.24-3.62276.51272-5.41544.859-.89544.17537-1.78807.36684-2.66383.6056-.43718.12012-.87158.25041-1.28985.40833a2.82263,2.82263,0,0,0-1.07289.60614c-.02871.03509.018-.01255.00792-.05195.0094-.03673-.02087-.07026-.00985-.061a.31052.31052,0,0,0,.06877.04836,1.79625,1.79625,0,0,0,.27449.12623c.20162.07615.41615.14043.63224.19974.43367.11735.87769.21446,1.32286.30522.89142.17991,1.792.32938,2.69435.467,1.80526.27431,3.62026.49711,5.43746.69742,3.63523.39753,7.28226.69542,10.93256.93109q10.952.69792,21.93163.63285,10.96914.03028,21.927-.698c3.64994-.23,7.29681-.52133,10.93207-.91127,1.81721-.19656,3.63229-.41527,5.43765-.6847.90235-.13528,1.803-.282,2.6944-.45872.44531-.08877.88892-.1848,1.32281-.29905.21536-.05878.43127-.11969.63276-.1942a2.09359,2.09359,0,0,0,.27527-.12188.56543.56543,0,0,0,.08115-.05334C136.285,42.12909,136.24176,42.27269,136.30648,42.32948Z" style="fill:#333;opacity:0.75"/></g><path d="M76.29464,88.8849l.0152,1.34913a.63664.63664,0,0,0,.06675.32082.24331.24331,0,0,0,.1957.11748.427.427,0,0,0,.09367-.00142.26627.26627,0,0,0,.08255-.02277l.01543.456a.5798.5798,0,0,1-.16046.03533,1.00049,1.00049,0,0,1-.20245-.00007.61862.61862,0,0,1-.476-.24789,1.03682,1.03682,0,0,1-.15013-.5828l-.01462-1.47193c-.12915-.01188-.19373-.0179-.32293-.03008l-.004-.44424c.129.01172.19352.01752.32251.029l-.00663-.66607c.21316.018.31972.02682.53285.04417l.00754.66839c.17926.01531.26888.02283.44808.03761l.0055.44828C76.5638,88.9085,76.47409,88.90073,76.29464,88.8849Z" style="fill:#1d2475"/><path d="M78.471,91.26437l-.0063-.42287-.00983-.00079a.73476.73476,0,0,1-.22892.34307.532.532,0,0,1-.4048.11322.6302.6302,0,0,1-.34146-.12183.69153.69153,0,0,1-.20247-.25981,1.24814,1.24814,0,0,1-.10117-.35384,3.15271,3.15271,0,0,1-.0298-.39906c-.00861-.66309-.01292-.9944-.02152-1.65552.22709.01817.3406.027.56759.04436.00926.66292.01389.99529.02315,1.66058.001.06956.00585.13742.01267.204a.709.709,0,0,0,.04583.183.35985.35985,0,0,0,.09736.13832.28177.28177,0,0,0,.16516.06335.30339.30339,0,0,0,.30127-.1704.92324.92324,0,0,0,.1067-.48928c-.00915-.61539-.01373-.92277-.02289-1.53565.22686.01623.34026.02413.567.0395.01646,1.06163.0247,1.596.04116,2.66436C78.80637,91.29179,78.69462,91.28286,78.471,91.26437Z" style="fill:#1d2475"/><path d="M80.46579,88.7997a.40683.40683,0,0,1,.3286-.13211l.04211.00233a.118.118,0,0,1,.04326.01258l-.02045.60489a.43906.43906,0,0,0-.12072-.02263.27851.27851,0,0,0-.19379.05934.53019.53019,0,0,0-.143.17753.911.911,0,0,0-.08591.25656,1.41744,1.41744,0,0,0-.02555.29723l.02171,1.34505c-.231-.01509-.34662-.02294-.57792-.03929-.017-1.07122-.02553-1.607-.04255-2.67048.2231.01409.33463.02092.55763.03415l.00831.51178.00979.00058A.86985.86985,0,0,1,80.46579,88.7997Z" style="fill:#1d2475"/><path d="M81.20468,87.50008c.22675.012.34012.01777.56683.029.01053.64146.0158.96478.02633,1.61387l.00978.00048a.55956.55956,0,0,1,.19468-.29381.50987.50987,0,0,1,.35218-.1035.65728.65728,0,0,1,.35664.1196.92417.92417,0,0,1,.26363.30135,1.58609,1.58609,0,0,1,.16324.449,3.05079,3.05079,0,0,1,.0157,1.13943,1.69026,1.69026,0,0,1-.1519.45806.80131.80131,0,0,1-.25483.298.55225.55225,0,0,1-.34687.0952.5254.5254,0,0,1-.38035-.15543.89629.89629,0,0,1-.19511-.34763l-.01076-.00055.00621.38543c-.22022-.01138-.33037-.01734-.55081-.02982C81.24344,89.86436,81.23051,89.0654,81.20468,87.50008Zm.58885,2.64441a2.17674,2.17674,0,0,0,.03409.35661,1.34805,1.34805,0,0,0,.08389.29366.58052.58052,0,0,0,.1361.20175.28945.28945,0,0,0,.18686.08.25265.25265,0,0,0,.18647-.06237.49147.49147,0,0,0,.12391-.18954,1.235,1.235,0,0,0,.07064-.28659,2.364,2.364,0,0,0,.01979-.35433,2.47782,2.47782,0,0,0-.03107-.35908,1.34367,1.34367,0,0,0-.07989-.29454.57993.57993,0,0,0-.13019-.19972.28647.28647,0,0,0-.18889-.07915.25846.25846,0,0,0-.1847.06192.48094.48094,0,0,0-.1299.18767,1.193,1.193,0,0,0-.07453.28729A2.15641,2.15641,0,0,0,81.79353,90.14449Z" style="fill:#1d2475"/><path d="M84.31859,88.14086a.3565.3565,0,0,1-.091.25611.292.292,0,0,1-.23391.09613.31855.31855,0,0,1-.239-.11236.38961.38961,0,0,1-.0968-.26288.36365.36365,0,0,1,.08892-.25538.28306.28306,0,0,1,.23594-.09981.31516.31516,0,0,1,.23916.11662A.403.403,0,0,1,84.31859,88.14086Zm-.55882,3.4316c-.01613-1.07841-.02419-1.618-.04031-2.68264.22624.008.33933.01184.56546.019.01555,1.0639.02332,1.60352.03887,2.682C84.09828,91.584,83.98548,91.58035,83.75977,91.57246Z" style="fill:#1d2475"/><path d="M86.245,91.63383l-.00467-.38577-.00971-.00014a.755.755,0,0,1-.18236.33539.48816.48816,0,0,1-.37907.13053.59748.59748,0,0,1-.3494-.11818.90958.90958,0,0,1-.26288-.3151,1.77766,1.77766,0,0,1-.166-.46846,2.86837,2.86837,0,0,1-.06255-.57815,2.77464,2.77464,0,0,1,.04384-.56077,1.44593,1.44593,0,0,1,.15186-.43793.79535.79535,0,0,1,.25257-.28337.60313.60313,0,0,1,.3556-.09534.5498.5498,0,0,1,.35646.12927.65806.65806,0,0,1,.20356.30836l.01461.00025c-.008-.64864-.01193-.971-.01987-1.60732.22183.00473.33272.00688.55446.01074.01805,1.5441.02707,2.34578.04513,3.94283C86.57005,91.63838,86.46175,91.637,86.245,91.63383Zm-.00557-1.344a2.18872,2.18872,0,0,0-.0326-.36029,1.25193,1.25193,0,0,0-.08336-.28928.52145.52145,0,0,0-.13681-.19592.28779.28779,0,0,0-.188-.074.26669.26669,0,0,0-.18814.06649.47921.47921,0,0,0-.12707.19083,1.20064,1.20064,0,0,0-.07121.28654,2.54118,2.54118,0,0,0,.00946.71537,1.2774,1.2774,0,0,0,.07872.29145.52776.52776,0,0,0,.1319.19793.2803.2803,0,0,0,.18952.07473.2683.2683,0,0,0,.18865-.06781.51864.51864,0,0,0,.1288-.19307,1.2418,1.2418,0,0,0,.07619-.28844A2.13875,2.13875,0,0,0,86.23946,90.28986Z" style="fill:#1d2475"/><path d="M88.03481,88.21424a.36223.36223,0,0,1-.092.25612.30123.30123,0,0,1-.23365.10142.30787.30787,0,0,1-.23774-.10527.37418.37418,0,0,1-.09529-.25811.36819.36819,0,0,1,.08989-.25515.29213.29213,0,0,1,.2358-.10468.305.305,0,0,1,.23793.10927A.38547.38547,0,0,1,88.03481,88.21424Zm-.57324,3.4318c-.01107-1.07679-.01661-1.61568-.02768-2.67321.22545.002.33814.0028.56345.00389.01011,1.0562.01517,1.59487.02528,2.67119C87.79828,91.64763,87.68607,91.64726,87.46157,91.646Z" style="fill:#1d2475"/><path d="M89.24035,89.4271c.00407.54418.0061.81869.01018,1.36923a.62849.62849,0,0,0,.06433.32043.20706.20706,0,0,0,.19138.09861.41259.41259,0,0,0,.09186-.01166.28254.28254,0,0,0,.08107-.03216l.01275.46326a.60634.60634,0,0,1-.15724.0541.96233.96233,0,0,1-.19809.02287.52335.52335,0,0,1-.465-.19981,1.01858,1.01858,0,0,1-.14612-.58153c-.005-.6038-.00749-.905-.01247-1.50161-.12746.00016-.19119.00018-.31868.00005l-.004-.45084c.1276.00025.19138.0003.31893.00024l-.00565-.66941c.2114.00026.31706.00017.52834-.00041l.005.66855c.17723-.00077.26582-.0013.443-.00267l.00305.44972C89.506,89.42557,89.41743,89.42617,89.24035,89.4271Z" style="fill:#1d2475"/><path d="M91.0694,91.993a2.75658,2.75658,0,0,1-.11511.36787,1.062,1.062,0,0,1-.16356.28578.68612.68612,0,0,1-.23338.18427.75792.75792,0,0,1-.31879.06785,1.32234,1.32234,0,0,1-.19006-.01069.80487.80487,0,0,1-.15068-.032l.06615-.5339a.65036.65036,0,0,0,.09672.02809.51426.51426,0,0,0,.11108.01134.24554.24554,0,0,0,.20218-.09.59576.59576,0,0,0,.102-.2416l.07261-.33323c-.30053-1.09529-.4515-1.6438-.755-2.71831.23655-.002.35479-.00329.59119-.00637.18142.78914.27182,1.18985.452,1.9935l.01546-.00029c.15629-.80979.23468-1.21372.392-2.0072.22843-.00447.3426-.007.57089-.01242C91.51545,90.14581,91.36629,90.764,91.0694,91.993Z" style="fill:#1d2475"/><path d="M73.921,93.69l.005,1.32021a.626.626,0,0,0,.066.31906.27507.27507,0,0,0,.19982.13085.45912.45912,0,0,0,.096.00614.26943.26943,0,0,0,.08476-.0157l.01255.44714a.634.634,0,0,1-.16483.02163,1.0396,1.0396,0,0,1-.20779-.01625.70469.70469,0,0,1-.48715-.28345,1.03065,1.03065,0,0,1-.14934-.58223l-.00215-1.43754c-.13237-.02235-.19859-.0337-.33117-.05675v-.4332c.13231.02231.19841.03331.33052.055l-.001-.65084c.21808.03406.327.05067.54465.08307l.00247.65511c.18324.0286.27478.04257.45767.06992l.00242.43995C74.19626,93.73388,74.10457,93.71946,73.921,93.69Z" style="fill:#1d2475"/><path d="M75.21883,94.89008a1.35809,1.35809,0,0,0,.03351.29253.95832.95832,0,0,0,.09141.24816.6219.6219,0,0,0,.14607.18035.39357.39357,0,0,0,.19836.08832.28844.28844,0,0,0,.25272-.06567.6494.6494,0,0,0,.14875-.21447c.17116.122.25672.18279.42773.304a.83913.83913,0,0,1-.31528.39017.75277.75277,0,0,1-.53023.08341,1.07452,1.07452,0,0,1-.73992-.47182,1.842,1.842,0,0,1-.285-1.06532,1.96756,1.96756,0,0,1,.06765-.55513,1.14526,1.14526,0,0,1,.20248-.40893.74872.74872,0,0,1,.71835-.28343.93859.93859,0,0,1,.42665.15708.99672.99672,0,0,1,.28888.3162,1.4784,1.4784,0,0,1,.16513.44,2.59894,2.59894,0,0,1,.058.53175l.0026.22175C76.03523,95.00936,75.7637,94.97169,75.21883,94.89008Zm.80111-.30537a1.15133,1.15133,0,0,0-.09677-.48689.36335.36335,0,0,0-.28834-.22055.26186.26186,0,0,0-.19124.04022.40034.40034,0,0,0-.12658.14824.81444.81444,0,0,0-.07228.20376.85765.85765,0,0,0-.02434.203C75.54079,94.51937,75.7007,94.5418,76.01994,94.58471Z" style="fill:#1d2475"/><path d="M78.1868,94.39026a.68248.68248,0,0,0-.17942-.17909.5247.5247,0,0,0-.24443-.08787.254.254,0,0,0-.21179.06782.35256.35256,0,0,0,.01131.46735,1.33207,1.33207,0,0,0,.29153.17408,2.09958,2.09958,0,0,1,.2224.12495.98142.98142,0,0,1,.20025.17379.844.844,0,0,1,.14485.24018.89135.89135,0,0,1,.05811.31965.92212.92212,0,0,1-.06264.374.665.665,0,0,1-.18133.25161.62768.62768,0,0,1-.26464.131.909.909,0,0,1-.31238.01535,1.16464,1.16464,0,0,1-.45739-.15286,1.32483,1.32483,0,0,1-.36344-.30863c.12275-.132.184-.1983.3064-.3315a1.1589,1.1589,0,0,0,.21648.21191.58469.58469,0,0,0,.28651.11087.24294.24294,0,0,0,.22215-.07234.35183.35183,0,0,0,.07772-.2496.34692.34692,0,0,0-.12286-.28267,1.69292,1.69292,0,0,0-.31983-.19108,1.67682,1.67682,0,0,1-.1999-.111.79281.79281,0,0,1-.1798-.16088.77683.77683,0,0,1-.133-.23.92772.92772,0,0,1-.05159-.31293.75515.75515,0,0,1,.06428-.33316.67467.67467,0,0,1,.17739-.2356.65224.65224,0,0,1,.25667-.132.83539.83539,0,0,1,.30329-.02209,1.09639,1.09639,0,0,1,.42157.12795,1.22315,1.22315,0,0,1,.32141.25283C78.36564,94.18079,78.30607,94.25079,78.1868,94.39026Z" style="fill:#1d2475"/><path d="M79.5383,94.369c.00866.54815.013.82176.02164,1.367a.64459.64459,0,0,0,.06811.32275.239.239,0,0,0,.19559.11544.421.421,0,0,0,.09332-.00286.26566.26566,0,0,0,.08215-.02416l.01722.45729a.6181.6181,0,0,1-.15959.0383.95264.95264,0,0,1-.20158.004.60575.60575,0,0,1-.47566-.24245,1.05091,1.05091,0,0,1-.15309-.58693c-.00922-.59616-.01384-.89538-.02306-1.49475-.12938-.01168-.1941-.01764-.32362-.02987l-.00684-.45344c.12946.012.19415.01783.32347.02928l-.01045-.68031c.214.01837.32084.02722.53446.04426l.01074.68167c.17948.01473.26915.02185.44837.0356l.00731.45546C79.80753,94.39127,79.71783,94.384,79.5383,94.369Z" style="fill:#1d2475"/><path d="M82.40135,93.22255a.39939.39939,0,0,0-.1498-.0342.2412.2412,0,0,0-.15457.03691.28205.28205,0,0,0-.09285.114.57227.57227,0,0,0-.04712.16576,1.14888,1.14888,0,0,0-.0125.19425l.00612.37957c.16217.00884.24321.01308.40521.02122l.00756.47311c-.16-.00809-.24006-.01231-.40026-.02111.01425.88261.02138,1.32241.03563,2.19224-.22178-.01216-.33278-.01863-.555-.03243-.01435-.87028-.02152-1.30994-.03587-2.19205-.12837-.00786-.19258-.0119-.32107-.02024l-.00768-.47243c.12848.00824.19269.01224.32107.02l-.00624-.38442a1.75234,1.75234,0,0,1,.03661-.39514.915.915,0,0,1,.1297-.31918.592.592,0,0,1,.237-.20566.73515.73515,0,0,1,.36129-.06.9146.9146,0,0,1,.27019.055Zm.91522.14056a.36009.36009,0,0,1-.09043.26014.28428.28428,0,0,1-.23317.09572.31888.31888,0,0,1-.23854-.11615.4087.4087,0,0,1-.09681-.26814.37853.37853,0,0,1,.08852-.2598.2774.2774,0,0,1,.23524-.10049.31738.31738,0,0,1,.23955.12089A.42028.42028,0,0,1,83.31657,93.36311ZM82.763,96.78259c-.01695-1.05492-.02543-1.59057-.04238-2.66485.22542.01046.338.01535.56313.0245.01657,1.07448.02484,1.61013.04141,2.66392C83.10053,96.79749,82.98811,96.79279,82.763,96.78259Z" style="fill:#1d2475"/><path d="M83.99592,96.82947c-.02368-1.55973-.03552-2.36193-.05919-3.96084.22539.00764.338.01118.56318.01768.02278,1.599.03418,2.40137.057,3.9588C84.33267,96.83954,84.22049,96.83642,83.99592,96.82947Z" style="fill:#1d2475"/><path d="M85.23484,96.85957c-.02155-1.55436-.03233-2.35686-.05389-3.95562.22487.00517.33725.00748.5619.01158.02043,1.59838.03063,2.40085.05106,3.9525C85.57043,96.86525,85.45863,96.86357,85.23484,96.85957Z" style="fill:#1d2475"/><path d="M87.43027,96.8763c-.01663-1.543-.02494-2.34507-.04156-3.94171.22408.00116.33607.00148.56.00169.01521,1.59594.02282,2.39784.038,3.93778C87.76424,96.87543,87.653,96.87589,87.43027,96.8763Z" style="fill:#1d2475"/><path d="M89.23341,93.44764a.384.384,0,0,1-.09155.26385.299.299,0,0,1-.23154.107.29559.29559,0,0,1-.23521-.10391.38393.38393,0,0,1-.09389-.26277.39467.39467,0,0,1,.08948-.26387.30419.30419,0,0,1,.46909-.00286A.40078.40078,0,0,1,89.23341,93.44764Zm-.5737,3.42065c-.00908-1.03634-.01361-1.56868-.02269-2.6385.22324-.00116.33481-.00195.55789-.004.00806,1.06915.0121,1.60105.02017,2.63538C88.993,96.86444,88.88194,96.86587,88.65971,96.86829Z" style="fill:#1d2475"/><path d="M90.41736,94.21009l.00233.42309.00961-.00016a.85567.85567,0,0,1,.22691-.36727.56874.56874,0,0,1,.39549-.15632.54375.54375,0,0,1,.333.08449.58717.58717,0,0,1,.195.23858,1.16842,1.16842,0,0,1,.09438.3444,3.16893,3.16893,0,0,1,.02631.39624c.00227.66268.00341.99113.00567,1.63524-.22163.00595-.33246.00882-.55414.01429-.00287-.64508-.00431-.97381-.00717-1.63684-.00029-.06526-.00345-.132-.01047-.19934a.69619.69619,0,0,0-.0421-.1839.303.303,0,0,0-.09473-.13079.24492.24492,0,0,0-.15974-.04622.33995.33995,0,0,0-.29688.20345,1.01741,1.01741,0,0,0-.10775.5003c.00338.61081.00506.91376.00844,1.50972-.22179.00474-.33271.007-.55461.01106-.00684-1.032-.01027-1.56339-.01712-2.63182C90.08891,94.21538,90.19841,94.21373,90.41736,94.21009Z" style="fill:#1d2475"/><path d="M92.74794,95.63038a1.3488,1.3488,0,0,0,.03022.28832.81709.81709,0,0,0,.08566.232.46187.46187,0,0,0,.13813.15361.30782.30782,0,0,0,.18869.05266.32.32,0,0,0,.24215-.10893.83151.83151,0,0,0,.14445-.23838c.1629.09266.24433.13881.40715.2308a1.06576,1.06576,0,0,1-.30624.43659.8739.8739,0,0,1-1.2081-.15737,1.6597,1.6597,0,0,1-.26693-1.01842,2.28313,2.28313,0,0,1,.06662-.57848,1.48216,1.48216,0,0,1,.19574-.45507.98344.98344,0,0,1,.302-.29878.77908.77908,0,0,1,.39079-.11327.75256.75256,0,0,1,.41019.09153.77246.77246,0,0,1,.27568.276,1.30908,1.30908,0,0,1,.15457.41968,2.589,2.589,0,0,1,.04989.526v.22159C93.52827,95.60736,93.26819,95.61546,92.74794,95.63038Zm.77029-.44572a1.10375,1.10375,0,0,0-.08862-.47695A.28083.28083,0,0,0,93.154,94.531a.27749.27749,0,0,0-.18421.07317.52109.52109,0,0,0-.12259.1728,1.01722,1.01722,0,0,0-.07063.22.9816.9816,0,0,0-.02457.21053C93.05849,95.19878,93.21174,95.19419,93.51823,95.18466Z" style="fill:#1d2475"/><g style="isolation:isolate"><path d="M146.9209,81.69482h3.96875l-.13281,1.10645h-5.27735L146.71777,72.77h1.30957Z" style="fill:blue"/><path d="M154.45312,82.89893a2.76644,2.76644,0,0,1-1.06445-.19922,2.34116,2.34116,0,0,1-.833-.57715,2.67332,2.67332,0,0,1-.54589-.92383,3.67144,3.67144,0,0,1-.19629-1.24609,5.024,5.024,0,0,1,.28027-1.6875,4.57964,4.57964,0,0,1,.7666-1.38575,3.64165,3.64165,0,0,1,1.14844-.93847,3.06337,3.06337,0,0,1,1.43164-.34278,2.765,2.765,0,0,1,1.06348.19922,2.34729,2.34729,0,0,1,.833.57813,2.65548,2.65548,0,0,1,.5459.92773,3.67613,3.67613,0,0,1,.19629,1.24219,4.99907,4.99907,0,0,1-.28027,1.67969,4.5798,4.5798,0,0,1-.7666,1.38574,3.65647,3.65647,0,0,1-1.15137.94238A3.04956,3.04956,0,0,1,154.45312,82.89893Zm.11231-.97266a1.64515,1.64515,0,0,0,.93066-.28027,2.44991,2.44991,0,0,0,.71387-.74512,3.83754,3.83754,0,0,0,.45508-1.07422,4.96506,4.96506,0,0,0,.16113-1.27441,2.38861,2.38861,0,0,0-.38476-1.47657,1.32221,1.32221,0,0,0-1.11329-.49707,1.64888,1.64888,0,0,0-.93457.27637,2.44273,2.44273,0,0,0-.71093.74219,3.84129,3.84129,0,0,0-.45508,1.07422,4.9628,4.9628,0,0,0-.16016,1.27343,2.41737,2.41737,0,0,0,.38086,1.48047A1.31865,1.31865,0,0,0,154.56543,81.92627Z" style="fill:blue"/><path d="M161.4873,82.89893a2.76493,2.76493,0,0,1-1.06347-.19922,2.33256,2.33256,0,0,1-.833-.57715,2.65823,2.65823,0,0,1-.5459-.92383,3.67144,3.67144,0,0,1-.19629-1.24609,5.02373,5.02373,0,0,1,.28028-1.6875,4.55874,4.55874,0,0,1,.7666-1.38575,3.64894,3.64894,0,0,1,1.14746-.93847,3.06623,3.06623,0,0,1,1.43164-.34278,2.7664,2.7664,0,0,1,1.06445.19922,2.356,2.356,0,0,1,.833.57813,2.67047,2.67047,0,0,1,.5459.92773,3.70112,3.70112,0,0,1,.19531,1.24219,4.99836,4.99836,0,0,1-.2793,1.67969,4.60068,4.60068,0,0,1-.7666,1.38574,3.65643,3.65643,0,0,1-1.15136.94238A3.05347,3.05347,0,0,1,161.4873,82.89893Zm.11231-.97266a1.64061,1.64061,0,0,0,.93066-.28027,2.43845,2.43845,0,0,0,.71387-.74512,3.83754,3.83754,0,0,0,.45508-1.07422,4.96506,4.96506,0,0,0,.16113-1.27441,2.38224,2.38224,0,0,0-.38476-1.47657,1.32221,1.32221,0,0,0-1.11329-.49707,1.65337,1.65337,0,0,0-.93457.27637,2.44,2.44,0,0,0-.71.74219,3.813,3.813,0,0,0-.45507,1.07422,4.96256,4.96256,0,0,0-.16114,1.27343,2.41053,2.41053,0,0,0,.38184,1.48047A1.31554,1.31554,0,0,0,161.59961,81.92627Z" style="fill:blue"/><path d="M168.53711,72.49072l-.74219,6.06836h.2168a.60653.60653,0,0,0,.23144-.03808.63005.63005,0,0,0,.20215-.15821L170.791,75.9624a1.39791,1.39791,0,0,1,.21679-.18261.49137.49137,0,0,1,.27344-.06934h1.09863l-2.7373,2.7793c-.06934.07421-.13867.14257-.20606.20605a1.28136,1.28136,0,0,1-.2207.16406.85413.85413,0,0,1,.18848.19629c.05175.0752.10351.15625.15429.24512l2.12793,3.5h-1.07031a.48749.48749,0,0,1-.249-.05566.52233.52233,0,0,1-.17188-.18946l-1.80566-2.90527a.55719.55719,0,0,0-.17871-.18848.60022.60022,0,0,0-.28321-.04883h-.23828l-.41308,3.3877h-1.23145l1.2666-10.31055Z" style="fill:blue"/><path d="M180.20508,82.80127a.37753.37753,0,0,1-.332-.126.52416.52416,0,0,1-.08789-.30761l.13281-1.47754a5.70047,5.70047,0,0,1-.58106.82617,4.22417,4.22417,0,0,1-.66113.63379,2.90237,2.90237,0,0,1-.7207.40527,2.10865,2.10865,0,0,1-.75977.14356,1.66327,1.66327,0,0,1-1.41015-.66114,3.14263,3.14263,0,0,1-.501-1.92187,5.66021,5.66021,0,0,1,.11914-1.14746,5.91425,5.91425,0,0,1,.33984-1.09961,5.4308,5.4308,0,0,1,.53125-.97656,4.13494,4.13494,0,0,1,.69336-.78028,3.14176,3.14176,0,0,1,.82911-.51758,2.39115,2.39115,0,0,1,.93847-.18945,2.202,2.202,0,0,1,.94824.20313,2.03251,2.03251,0,0,1,.73145.58105l.4834-3.89844h1.22461l-1.27344,10.31055Zm-2.541-.90332a1.29084,1.29084,0,0,0,.67578-.20606,2.837,2.837,0,0,0,.65821-.57421,4.95911,4.95911,0,0,0,.59472-.875,6.96465,6.96465,0,0,0,.4795-1.10938l.23144-1.876a1.491,1.491,0,0,0-.63769-.52539,1.93946,1.93946,0,0,0-.749-.15332,1.63217,1.63217,0,0,0-.99707.3291,2.86,2.86,0,0,0-.75586.84961,4.4268,4.4268,0,0,0-.47949,1.166,4.99315,4.99315,0,0,0-.168,1.2666,2.2303,2.2303,0,0,0,.30078,1.27051A.96835.96835,0,0,0,177.66406,81.898Z" style="fill:blue"/><path d="M185.30078,82.89893a2.765,2.765,0,0,1-1.06348-.19922,2.33261,2.33261,0,0,1-.833-.57715,2.65823,2.65823,0,0,1-.5459-.92383,3.67144,3.67144,0,0,1-.19629-1.24609,5.024,5.024,0,0,1,.28027-1.6875,4.55917,4.55917,0,0,1,.7666-1.38575,3.649,3.649,0,0,1,1.14747-.93847,3.06617,3.06617,0,0,1,1.43164-.34278,2.76644,2.76644,0,0,1,1.06445.19922,2.356,2.356,0,0,1,.833.57813,2.67047,2.67047,0,0,1,.5459.92773,3.70112,3.70112,0,0,1,.19531,1.24219,4.99861,4.99861,0,0,1-.2793,1.67969,4.60068,4.60068,0,0,1-.7666,1.38574,3.65647,3.65647,0,0,1-1.15137.94238A3.05343,3.05343,0,0,1,185.30078,82.89893Zm.11231-.97266a1.64063,1.64063,0,0,0,.93066-.28027,2.43868,2.43868,0,0,0,.71387-.74512,3.83783,3.83783,0,0,0,.45508-1.07422,4.96506,4.96506,0,0,0,.16113-1.27441,2.38217,2.38217,0,0,0-.38477-1.47657,1.32219,1.32219,0,0,0-1.11328-.49707,1.65335,1.65335,0,0,0-.93457.27637,2.44,2.44,0,0,0-.71.74219,3.813,3.813,0,0,0-.45508,1.07422,4.963,4.963,0,0,0-.16113,1.27343,2.41046,2.41046,0,0,0,.38184,1.48047A1.31553,1.31553,0,0,0,185.41309,81.92627Z" style="fill:blue"/><path d="M189.87891,75.71045h.93164a.359.359,0,0,1,.22754.06934.279.279,0,0,1,.10156.18945l.65039,4.56445a3.83647,3.83647,0,0,1,.03906.47168c.00195.15234.00586.30274.00977.45215.05664-.14941.11328-.29981.17187-.45215q.0879-.22706.18555-.47168l1.93945-4.59277a.40081.40081,0,0,1,.13574-.17481.35123.35123,0,0,1,.21387-.07031h.51758a.31234.31234,0,0,1,.21777.07031.28543.28543,0,0,1,.09082.17481l.791,4.59277c.02734.16309.0498.32129.06641.47559.01562.15429.03125.30761.04492.46191q.07031-.22412.13672-.458a4.997,4.997,0,0,1,.165-.47949l1.792-4.56445a.4019.4019,0,0,1,.13965-.18555.3635.3635,0,0,1,.22363-.07324h.89648l-2.97558,7.09082h-.94434c-.10742,0-.1748-.0791-.20312-.23828l-.86133-4.8086c-.01367-.07519-.02539-.15039-.03516-.22753-.00879-.07715-.01855-.15332-.02734-.22754-.02344.0791-.04688.15625-.07031.23047-.02344.07519-.05176.15234-.084.23144L192.31543,82.563c-.06543.15918-.15918.23828-.28027.23828H191.125Z" style="fill:blue"/><path d="M199.74219,82.80127l.84668-7.09766h.623a.37091.37091,0,0,1,.41993.41993l-.1045,1.37207a4.39009,4.39009,0,0,1,1.27735-1.41407,2.61244,2.61244,0,0,1,1.47363-.47656,1.50415,1.50415,0,0,1,1.22852.53223,2.39922,2.39922,0,0,1,.4375,1.55371c0,.09375-.00293.18945-.00782.28711-.0039.09863-.01367.20117-.02734.30859l-.53223,4.51465h-1.24609l.53223-4.51465c.00879-.09375.01757-.18359.02441-.26953.00684-.08691.01074-.16895.01074-.249a1.3854,1.3854,0,0,0-.21386-.85059.79415.79415,0,0,0-.66895-.27637,1.44873,1.44873,0,0,0-.68164.18262,2.64988,2.64988,0,0,0-.66895.51367,4.19419,4.19419,0,0,0-.59863.80567,5.65757,5.65757,0,0,0-.47266,1.05273l-.40527,3.60547Z" style="fill:blue"/><path d="M147.544,92.51025l-.85352,7.09082h-1.22559l.8545-7.09082Zm.46875-2.22656a.79274.79274,0,0,1-.07325.33985.96786.96786,0,0,1-.19629.28027.94469.94469,0,0,1-.27636.19238.76523.76523,0,0,1-.32129.07031.75224.75224,0,0,1-.31543-.07031.8666.8666,0,0,1-.26953-.19238.99366.99366,0,0,1-.18555-.28027.82064.82064,0,0,1-.07031-.33985.84759.84759,0,0,1,.07031-.34277.95274.95274,0,0,1,.46191-.47949.72718.72718,0,0,1,.31543-.07325.76524.76524,0,0,1,.32129.07032.92536.92536,0,0,1,.27735.19238.899.899,0,0,1,.19238.28711A.88477.88477,0,0,1,148.0127,90.28369Z" style="fill:blue"/><path d="M148.70605,99.60107l.84766-7.09765h.62207a.3716.3716,0,0,1,.4209.41992l-.10547,1.37207a4.39,4.39,0,0,1,1.27734-1.41406,2.61242,2.61242,0,0,1,1.47364-.47656,1.50285,1.50285,0,0,1,1.22851.53222,2.39347,2.39347,0,0,1,.4375,1.55371c0,.09375-.00195.18946-.00683.28711-.00489.09863-.01367.20117-.02832.3086l-.53223,4.51464H153.0957l.53125-4.51464c.00977-.09375.01758-.1836.02442-.26954.00781-.08691.01074-.16894.01074-.249a1.38532,1.38532,0,0,0-.21387-.85058.79088.79088,0,0,0-.668-.27637,1.45519,1.45519,0,0,0-.68261.18262,2.64583,2.64583,0,0,0-.668.51367,4.15385,4.15385,0,0,0-.59864.80566,5.65766,5.65766,0,0,0-.47265,1.05274l-.40625,3.60546Z" style="fill:blue"/><path d="M156.68555,98.26416c0-.02832.00195-.06445.0039-.1084.002-.04492.00684-.1084.01367-.19238.00782-.084.01758-.19434.03223-.3291.01367-.13574.03418-.3125.0625-.53223l.44141-3.54883h-.791a.21742.21742,0,0,1-.15039-.05273.207.207,0,0,1-.05957-.16406.83822.83822,0,0,1,.00684-.084q.00732-.063.01758-.14355c.00683-.05371.01367-.1084.0205-.165q.01026-.0835.01758-.16114l1.0918-.14648.52539-2.19141a.33089.33089,0,0,1,.10547-.17089.27457.27457,0,0,1,.18847-.06641h.65821l-.3086,2.44238h1.86231l-.10449.90332H158.4502l-.42676,3.48633c-.02344.19141-.041.34473-.05274.46191-.01172.11622-.02148.21-.02832.2793-.00683.07031-.01172.11914-.01367.14746-.00293.02832-.00391.04883-.00391.0625a.738.738,0,0,0,.165.5293.59473.59473,0,0,0,.45118.1709.91393.91393,0,0,0,.32226-.05274,1.32336,1.32336,0,0,0,.24121-.11523c.06739-.042.125-.08008.17188-.11524a.21431.21431,0,0,1,.126-.05273.12579.12579,0,0,1,.08692.02832.34052.34052,0,0,1,.0664.09082l.25977.59473a2.53058,2.53058,0,0,1-.77441.47265,2.38776,2.38776,0,0,1-.87793.17188,1.4966,1.4966,0,0,1-1.07129-.37109A1.4596,1.4596,0,0,1,156.68555,98.26416Z" style="fill:blue"/><path d="M163.3916,99.69873a2.765,2.765,0,0,1-1.06348-.19922,2.33236,2.33236,0,0,1-.833-.57715,2.65819,2.65819,0,0,1-.5459-.92382,3.67146,3.67146,0,0,1-.19629-1.2461,5.02406,5.02406,0,0,1,.28027-1.6875,4.55912,4.55912,0,0,1,.7666-1.38574,3.64887,3.64887,0,0,1,1.14747-.93848,3.06629,3.06629,0,0,1,1.43164-.34277,2.76644,2.76644,0,0,1,1.06445.19922,2.356,2.356,0,0,1,.833.57812,2.67052,2.67052,0,0,1,.5459.92774,3.70106,3.70106,0,0,1,.19531,1.24218,4.99853,4.99853,0,0,1-.2793,1.67969,4.60056,4.60056,0,0,1-.7666,1.38574,3.6565,3.6565,0,0,1-1.15137.94239A3.05342,3.05342,0,0,1,163.3916,99.69873Zm.11231-.97266a1.64063,1.64063,0,0,0,.93066-.28027,2.43857,2.43857,0,0,0,.71387-.74512,3.83758,3.83758,0,0,0,.45508-1.07422,4.96506,4.96506,0,0,0,.16113-1.27441,2.38212,2.38212,0,0,0-.38477-1.47656,1.32219,1.32219,0,0,0-1.11328-.49707,1.65329,1.65329,0,0,0-.93457.27637,2.44,2.44,0,0,0-.71.74218,3.813,3.813,0,0,0-.45508,1.07422,4.96307,4.96307,0,0,0-.16113,1.27344,2.41048,2.41048,0,0,0,.38184,1.48047A1.31554,1.31554,0,0,0,163.50391,98.72607Z" style="fill:blue"/><path d="M171.21777,98.26416c0-.02832.001-.06445.00391-.1084.002-.04492.00684-.1084.01367-.19238s.01758-.19434.03125-.3291c.01367-.13574.03516-.3125.06348-.53223l.44043-3.54883h-.791a.21913.21913,0,0,1-.15039-.05273.207.207,0,0,1-.05957-.16406c0-.01465.00293-.042.00684-.084q.00732-.063.01758-.14355c.00683-.05371.01464-.1084.02148-.165q.01026-.0835.01758-.16114l1.09179-.14648.5254-2.19141a.32937.32937,0,0,1,.10449-.17089.27709.27709,0,0,1,.18945-.06641h.65723l-.30762,2.44238h1.8623l-.10546.90332h-1.86914l-.42676,3.48633c-.02344.19141-.041.34473-.05274.46191-.01172.11622-.0205.21-.02734.2793-.00781.07031-.01172.11914-.01465.14746-.00195.02832-.00293.04883-.00293.0625a.74233.74233,0,0,0,.16406.5293.59473.59473,0,0,0,.45118.1709.90631.90631,0,0,0,.32226-.05274,1.3344,1.3344,0,0,0,.24219-.11523c.06738-.042.124-.08008.1709-.11524a.21913.21913,0,0,1,.126-.05273.13015.13015,0,0,1,.08789.02832.36331.36331,0,0,1,.06641.09082l.25879.59473a2.51425,2.51425,0,0,1-.77344.47265,2.39655,2.39655,0,0,1-.8789.17188,1.49416,1.49416,0,0,1-1.07032-.37109A1.452,1.452,0,0,1,171.21777,98.26416Z" style="fill:blue"/><path d="M175.45312,99.60107l1.24512-10.31054h1.2461l-.58106,4.78711a4.20134,4.20134,0,0,1,1.22852-1.249,2.5744,2.5744,0,0,1,1.38281-.42382,1.509,1.509,0,0,1,1.23926.53222,2.3973,2.3973,0,0,1,.43359,1.54688c0,.09375-.00195.19043-.00684.291-.00488.09961-.01367.2041-.02832.31153l-.53125,4.51464H179.835l.53125-4.51464c.00977-.09375.01758-.1836.02539-.26954.00684-.08691.00977-.16894.00977-.249a1.40618,1.40618,0,0,0-.21289-.85351.797.797,0,0,0-.67578-.28028,1.40975,1.40975,0,0,0-.64747.17188,2.6259,2.6259,0,0,0-.64746.48633,4.07752,4.07752,0,0,0-.58789.75976,5.60967,5.60967,0,0,0-.47656.99024l-.45508,3.75878Z" style="fill:blue"/><path d="M188.48633,94.02881a1.91576,1.91576,0,0,1-.18848.85058,1.77281,1.77281,0,0,1-.69336.7002,5.16868,5.16868,0,0,1-1.38574.543,15.29872,15.29872,0,0,1-2.26855.37012c-.00391.05175-.00684.10156-.00684.15136v.15039a2.18427,2.18427,0,0,0,.41016,1.43067,1.512,1.512,0,0,0,1.23535.49414,2.32644,2.32644,0,0,0,.59863-.07031,2.59714,2.59714,0,0,0,.46875-.1709,2.1407,2.1407,0,0,0,.36426-.22461c.10449-.08106.20117-.15625.29-.22363s.16992-.125.24511-.17188a.41731.41731,0,0,1,.22364-.07031.308.308,0,0,1,.23144.11914l.30762.38574a6.37574,6.37574,0,0,1-.69629.63281,4.04467,4.04467,0,0,1-.69629.4375,3.107,3.107,0,0,1-.74609.25586,4.11043,4.11043,0,0,1-.83594.08008,2.78291,2.78291,0,0,1-1.0918-.20312,2.24524,2.24524,0,0,1-.81933-.57715,2.59283,2.59283,0,0,1-.51758-.90625,3.63969,3.63969,0,0,1-.18262-1.19043,5.26579,5.26579,0,0,1,.11524-1.08789,5.13629,5.13629,0,0,1,.33593-1.03321,4.70786,4.70786,0,0,1,.53907-.90918,3.63151,3.63151,0,0,1,.72851-.72461,3.39347,3.39347,0,0,1,.90332-.47949,3.13054,3.13054,0,0,1,1.06055-.17578,2.54823,2.54823,0,0,1,.93066.1543,1.973,1.973,0,0,1,.64356.39258,1.56842,1.56842,0,0,1,.375.52441A1.40449,1.40449,0,0,1,188.48633,94.02881Zm-2.1416-.7207a1.82583,1.82583,0,0,0-.8125.18164,2.156,2.156,0,0,0-.65723.501,3.03023,3.03023,0,0,0-.49023.749,4.47,4.47,0,0,0-.31543.92773,13.65657,13.65657,0,0,0,1.72949-.30469,4.31279,4.31279,0,0,0,1.001-.37109,1.084,1.084,0,0,0,.46192-.43066,1.10308,1.10308,0,0,0,.1123-.4834.7065.7065,0,0,0-.23535-.51075.968.968,0,0,0-.31836-.18554A1.36368,1.36368,0,0,0,186.34473,93.30811Z" style="fill:blue"/><path d="M149.84375,115.792a3.24665,3.24665,0,0,1-.6543.42383,2.643,2.643,0,0,1-.68261.2207,4.342,4.342,0,0,1-.75977.0625,2.64811,2.64811,0,0,1-1.08887-.21,2.16153,2.16153,0,0,1-.791-.59082,2.61588,2.61588,0,0,1-.48242-.917,3.98169,3.98169,0,0,1-.165-1.17969,5.0875,5.0875,0,0,1,.26953-1.65234,4.62271,4.62271,0,0,1,.75293-1.39942,3.762,3.762,0,0,1,1.14746-.97363,3.005,3.005,0,0,1,1.46387-.36426,2.5172,2.5172,0,0,1,1.17578.249,2.47521,2.47521,0,0,1,.833.72461l-.39257.46875a.32433.32433,0,0,1-.1045.09082.27028.27028,0,0,1-.333-.05274,2.64756,2.64756,0,0,0-.24512-.19531,1.65765,1.65765,0,0,0-.37793-.19629,1.63808,1.63808,0,0,0-.584-.08789,1.72966,1.72966,0,0,0-.91407.2627,2.55318,2.55318,0,0,0-.752.71777,3.67171,3.67171,0,0,0-.50781,1.07812,4.68564,4.68564,0,0,0-.18555,1.33692,2.93768,2.93768,0,0,0,.09863.78711,1.67,1.67,0,0,0,.29395.60254,1.34163,1.34163,0,0,0,.47949.38476,1.50819,1.50819,0,0,0,.66113.13672,2.1554,2.1554,0,0,0,.55957-.06641,2.20426,2.20426,0,0,0,.43457-.165,1.9819,1.9819,0,0,0,.332-.21289c.0957-.07715.18261-.14844.25976-.21387a2.58731,2.58731,0,0,1,.21-.16406.32689.32689,0,0,1,.19238-.06739.29861.29861,0,0,1,.23731.11914l.30859.37793A6.57973,6.57973,0,0,1,149.84375,115.792Z" style="fill:blue"/><path d="M153.88574,116.499a2.76471,2.76471,0,0,1-1.06347-.19922,2.33241,2.33241,0,0,1-.833-.57714,2.65833,2.65833,0,0,1-.5459-.92383,3.67146,3.67146,0,0,1-.19629-1.2461,5.02406,5.02406,0,0,1,.28027-1.6875,4.559,4.559,0,0,1,.76661-1.38574,3.64883,3.64883,0,0,1,1.14746-.93847,3.0662,3.0662,0,0,1,1.43164-.34278,2.76644,2.76644,0,0,1,1.06445.19922,2.35591,2.35591,0,0,1,.833.57813,2.67038,2.67038,0,0,1,.5459.92773,3.70108,3.70108,0,0,1,.19531,1.24219,4.99836,4.99836,0,0,1-.2793,1.67969,4.6008,4.6008,0,0,1-.7666,1.38574,3.65647,3.65647,0,0,1-1.15137.94238A3.05342,3.05342,0,0,1,153.88574,116.499Zm.11231-.97265a1.64056,1.64056,0,0,0,.93066-.28028,2.43852,2.43852,0,0,0,.71387-.74511,3.83783,3.83783,0,0,0,.45508-1.07422,4.96514,4.96514,0,0,0,.16113-1.27442,2.38214,2.38214,0,0,0-.38477-1.47656,1.32219,1.32219,0,0,0-1.11328-.49707,1.65337,1.65337,0,0,0-.93457.27637,2.44,2.44,0,0,0-.71.74219,3.81292,3.81292,0,0,0-.45508,1.07421,4.96307,4.96307,0,0,0-.16113,1.27344,2.41048,2.41048,0,0,0,.38184,1.48047A1.31553,1.31553,0,0,0,153.99805,115.52637Z" style="fill:blue"/><path d="M158.39355,116.40137l.84766-7.09766h.62207a.3716.3716,0,0,1,.4209.41992l-.10547,1.37207a4.39014,4.39014,0,0,1,1.27734-1.41406,2.61249,2.61249,0,0,1,1.47364-.47656,1.50285,1.50285,0,0,1,1.22851.53222,2.3935,2.3935,0,0,1,.4375,1.55372c0,.09375-.00195.18945-.00683.2871-.00489.09864-.01367.20118-.02832.3086l-.53223,4.51465H162.7832l.53125-4.51465c.00977-.09375.01758-.1836.02442-.26953.00781-.08692.01074-.16895.01074-.249a1.38532,1.38532,0,0,0-.21387-.85058.79088.79088,0,0,0-.668-.27637,1.45531,1.45531,0,0,0-.68261.18262,2.64583,2.64583,0,0,0-.668.51367,4.15385,4.15385,0,0,0-.59864.80566,5.658,5.658,0,0,0-.47265,1.05274l-.40625,3.60547Z" style="fill:blue"/><path d="M166.37305,115.06445c0-.02832.00195-.06445.0039-.1084.002-.04492.00684-.10839.01367-.19238.00782-.084.01758-.19433.03223-.3291.01367-.13574.03418-.3125.0625-.53223l.44141-3.54882h-.791a.21738.21738,0,0,1-.15039-.05274.207.207,0,0,1-.05957-.16406.83844.83844,0,0,1,.00684-.084q.00732-.063.01758-.14355c.00683-.05371.01367-.1084.0205-.165q.01026-.08349.01758-.16113l1.0918-.14649.52539-2.1914a.33088.33088,0,0,1,.10547-.1709.27462.27462,0,0,1,.18847-.06641h.65821l-.3086,2.44239h1.86231l-.10449.90332H168.1377l-.42676,3.48632c-.02344.19141-.041.34473-.05274.46192-.01172.11621-.02148.21-.02832.27929-.00683.07032-.01172.11915-.01367.14747-.00293.02832-.00391.04882-.00391.0625a.73794.73794,0,0,0,.165.52929.59473.59473,0,0,0,.45118.1709.91416.91416,0,0,0,.32226-.05273,1.32336,1.32336,0,0,0,.24121-.11524c.06739-.042.125-.08008.17188-.11523a.21426.21426,0,0,1,.126-.05274.12579.12579,0,0,1,.08692.02832.34052.34052,0,0,1,.0664.09082l.25977.59473a2.5308,2.5308,0,0,1-.77441.47266,2.388,2.388,0,0,1-.87793.17187,1.4966,1.4966,0,0,1-1.07129-.37109A1.45959,1.45959,0,0,1,166.37305,115.06445Z" style="fill:blue"/><path d="M175.76758,116.40137h-.64453a.37871.37871,0,0,1-.332-.126.52418.52418,0,0,1-.0879-.30762l.126-1.42089a5.97233,5.97233,0,0,1-.542.80566,3.78069,3.78069,0,0,1-.61621.61523,2.70672,2.70672,0,0,1-.68262.39258,2.02644,2.02644,0,0,1-.74219.13867,1.74585,1.74585,0,0,1-.76269-.16406,1.58677,1.58677,0,0,1-.585-.4834,2.36984,2.36984,0,0,1-.374-.78418A3.88194,3.88194,0,0,1,170.3916,114a4.83246,4.83246,0,0,1,.15723-1.22852,5.00728,5.00728,0,0,1,1.14453-2.10644,4.70013,4.70013,0,0,1,.90625-.77051,4.3266,4.3266,0,0,1,1.07519-.50391,4.01931,4.01931,0,0,1,1.20411-.17871,5.167,5.167,0,0,1,.88476.0752,3.62025,3.62025,0,0,1,.85059.25781Zm-3.05176-.93848a1.23119,1.23119,0,0,0,.67188-.21,2.57417,2.57417,0,0,0,.623-.582,5.06534,5.06534,0,0,0,.54883-.88574,7.93331,7.93331,0,0,0,.45215-1.126l.30078-2.39844a.48544.48544,0,0,0-.30469-.124H174.71a2.45757,2.45757,0,0,0-.81152.13574,2.89223,2.89223,0,0,0-.73535.38086,3.27858,3.27858,0,0,0-.62305.583,3.83926,3.83926,0,0,0-.47949.74316,4.2486,4.2486,0,0,0-.31153.86231,3.95486,3.95486,0,0,0-.11132.93847Q171.6377,115.46337,172.71582,115.46289Z" style="fill:blue"/><path d="M179.86914,109.31055l-.85352,7.09082H177.79l.85449-7.09082Zm.46875-2.22657a.7927.7927,0,0,1-.07324.33985.96792.96792,0,0,1-.19629.28027.94467.94467,0,0,1-.27637.19238.76524.76524,0,0,1-.32129.07032.75225.75225,0,0,1-.31543-.07032.86644.86644,0,0,1-.26953-.19238.99327.99327,0,0,1-.18554-.28027.82062.82062,0,0,1-.07032-.33985.8476.8476,0,0,1,.07032-.34277.95284.95284,0,0,1,.46191-.47949.72717.72717,0,0,1,.31543-.07324.76523.76523,0,0,1,.32129.07031.9255.9255,0,0,1,.27734.19238.89881.89881,0,0,1,.19238.28711A.88481.88481,0,0,1,180.33789,107.084Z" style="fill:blue"/><path d="M181.03125,116.40137l.84766-7.09766h.62207a.3716.3716,0,0,1,.4209.41992l-.10547,1.37207a4.39014,4.39014,0,0,1,1.27734-1.41406,2.61244,2.61244,0,0,1,1.47363-.47656,1.50286,1.50286,0,0,1,1.22852.53222,2.39356,2.39356,0,0,1,.4375,1.55372c0,.09375-.00195.18945-.00684.2871-.00488.09864-.01367.20118-.02832.3086l-.53222,4.51465H185.4209l.53125-4.51465c.00976-.09375.01758-.1836.02441-.26953.00782-.08692.01074-.16895.01074-.249a1.38532,1.38532,0,0,0-.21386-.85058.79088.79088,0,0,0-.668-.27637,1.45537,1.45537,0,0,0-.68262.18262,2.646,2.646,0,0,0-.668.51367,4.15382,4.15382,0,0,0-.59863.80566,5.658,5.658,0,0,0-.47266,1.05274l-.40625,3.60547Z" style="fill:blue"/><path d="M194.06543,110.8291a1.91653,1.91653,0,0,1-.18945.85059,1.76968,1.76968,0,0,1-.69239.70019,5.17668,5.17668,0,0,1-1.38671.543,15.304,15.304,0,0,1-2.26758.37012c-.00489.05176-.00684.10156-.00684.15137v.15039a2.18976,2.18976,0,0,0,.40918,1.43066,1.51336,1.51336,0,0,0,1.23535.49414,2.31577,2.31577,0,0,0,.59863-.07031,2.597,2.597,0,0,0,.46876-.1709,2.10307,2.10307,0,0,0,.36425-.22461c.10547-.081.20215-.15625.291-.22363.08789-.06738.16992-.125.24414-.17188a.42037.42037,0,0,1,.22461-.07031.30467.30467,0,0,1,.23047.11914l.30859.38574a6.56087,6.56087,0,0,1-.69629.63282,4.05239,4.05239,0,0,1-.69726.4375,3.10064,3.10064,0,0,1-.74512.25586,4.12024,4.12024,0,0,1-.83691.08007,2.78969,2.78969,0,0,1-1.0918-.20312,2.25343,2.25343,0,0,1-.81934-.57715,2.59305,2.59305,0,0,1-.51758-.90625,3.66637,3.66637,0,0,1-.18164-1.19043,5.20019,5.20019,0,0,1,.11524-1.08789,5.075,5.075,0,0,1,.33594-1.0332,4.65857,4.65857,0,0,1,.53906-.90918,3.62644,3.62644,0,0,1,.72754-.72461,3.408,3.408,0,0,1,.90332-.47949,3.13861,3.13861,0,0,1,1.06054-.17579,2.541,2.541,0,0,1,.93067.1543,1.96769,1.96769,0,0,1,.64453.39258,1.55168,1.55168,0,0,1,.374.52441A1.38929,1.38929,0,0,1,194.06543,110.8291Zm-2.14258-.7207a1.81882,1.81882,0,0,0-.81152.18164,2.17158,2.17158,0,0,0-.65821.501,3.05819,3.05819,0,0,0-.49023.749,4.469,4.469,0,0,0-.31445.92773,13.60434,13.60434,0,0,0,1.72851-.30468,4.29607,4.29607,0,0,0,1.001-.3711,1.07821,1.07821,0,0,0,.46191-.43066,1.08965,1.08965,0,0,0,.11231-.4834.68976.68976,0,0,0-.05567-.26172.70992.70992,0,0,0-.17871-.249.97814.97814,0,0,0-.31836-.18555A1.36947,1.36947,0,0,0,191.92285,110.1084Z" style="fill:blue"/><path d="M194.84961,116.40137l.85351-7.09766h.623a.47808.47808,0,0,1,.3086.09082.341.341,0,0,1,.11132.28027c0,.01856-.001.04493-.00293.08008-.00293.03516-.00488.07129-.00781.1084-.002.03711-.0039.07031-.00683.09766l-.00293.0498-.09864,1.28809a4.91146,4.91146,0,0,1,1.01856-1.5127,1.71822,1.71822,0,0,1,1.18652-.53222,1.47853,1.47853,0,0,1,.58789.126l-.22363,1.19727a1.7113,1.7113,0,0,0-.63672-.13281,1.53788,1.53788,0,0,0-1.21094.66113,5.48047,5.48047,0,0,0-.88965,2.00586l-.3916,3.29Z" style="fill:blue"/><path d="M202.2832,115.63184a.88014.88014,0,0,1,.06641-.34375.84176.84176,0,0,1,.18555-.2793.89254.89254,0,0,1,.27636-.18945.84284.84284,0,0,1,.34668-.07032.81931.81931,0,0,1,.33887.07032.90848.90848,0,0,1,.27734.18945.89682.89682,0,0,1,.18848.2793.84885.84885,0,0,1,.07031.34375.835.835,0,0,1-.07031.3457.90683.90683,0,0,1-.18848.27637.869.869,0,0,1-.61621.25293.87437.87437,0,0,1-.34668-.06739.8347.8347,0,0,1-.27636-.18554.84972.84972,0,0,1-.18555-.27637A.866.866,0,0,1,202.2832,115.63184Zm3.59766,0a.898.898,0,0,1,.06641-.34375.85713.85713,0,0,1,.18554-.2793.90424.90424,0,0,1,.27637-.18945.84281.84281,0,0,1,.34668-.07032.82716.82716,0,0,1,.33984.07032.90412.90412,0,0,1,.27637.18945.88068.88068,0,0,1,.18848.2793.849.849,0,0,1,.07031.34375.83511.83511,0,0,1-.07031.3457.89013.89013,0,0,1-.18848.27637.84477.84477,0,0,1-.27637.18554.858.858,0,0,1-.33984.06739.87434.87434,0,0,1-.34668-.06739.84487.84487,0,0,1-.27637-.18554.86559.86559,0,0,1-.18554-.27637A.8831.8831,0,0,1,205.88086,115.63184Zm3.60547,0a.88013.88013,0,0,1,.0664-.34375.863.863,0,0,1,.18165-.2793.87022.87022,0,0,1,.96289-.18945.89647.89647,0,0,1,.46875.46875.849.849,0,0,1,.07031.34375.83511.83511,0,0,1-.07031.3457.8929.8929,0,0,1-.18946.27637.8274.8274,0,0,1-.27929.18554.90794.90794,0,0,1-.68653,0,.79661.79661,0,0,1-.27636-.18554.87711.87711,0,0,1-.248-.62207Z" style="fill:blue"/></g></svg>