<svg id="turbidity_-_1B" data-name="turbidity - 1B" xmlns="http://www.w3.org/2000/svg" viewBox="0 0 226 200"><rect id="back" width="226" height="200" style="fill:none"/><g id="bucket"><path d="M92.99991,155.04149c-22.8833,0-41.5-7.126-41.5-15.88575L47.65567,64.56639a4.23941,4.23941,0,0,0-1.4331-2.64209l-.34473-.38867a4.97156,4.97156,0,0,0-.439-.43164c-.3291-.29639-.43505-.4126-.43408-.65869l.00049-.25782c0-.95263,0-.95263,1.24121-1.63965l.58984-.32666-.47656-.47363a1.81139,1.81139,0,0,1-.605-1.33545,2.09111,2.09111,0,0,1,1.148-1.88623l.22754-.15918-.10156-1.96875-.22559-.13769c-1.10986-.67578-1.27392-1.31348-1.2876-1.84815a2.05225,2.05225,0,0,1,1.08594-1.84082l.22119-.15918L46.50284,42.165c.04053-2.17383,17.749-5.20654,46.49707-5.20654s46.457,3.03271,46.49707,5.20654l-.20313,3.96387.21973.15918a1.93888,1.93888,0,0,1,.96973,1.63672c.01465.53418-.11524,1.17773-1.18262,1.90967l-.2041.14013-.10938,2.10889.22657.15918a1.9753,1.9753,0,0,1,1.03125,1.6831c.01464.54834-.12305,1.20948-1.251,1.9585l-.21.13916-.10449,2.02.41992.18018c1.89551.8125,1.89551.8125,1.89551,1.94531,0,.65918,0,.65918-.35645.94726-.11914.09668-.26269.21289-.43359.36817a4.50134,4.50134,0,0,0-1.86133,3.09277l-3.84326,74.55322C134.49991,147.61864,115.10733,155.04149,92.99991,155.04149Z" style="fill:#fff"/><path d="M92.99991,37.45873a297.00494,297.00494,0,0,1,32.10553,1.54651c12.04793,1.37894,13.70042,2.97722,13.88912,3.228l-.18552,3.59917-.02793.54166.4388.31882a1.47454,1.47454,0,0,1,.76375,1.24567c.00747.282.02136.80689-.96624,1.48384l-.40784.27956-.02545.4938-.08173,1.58582-.02851.553.45366.31761a1.51063,1.51063,0,0,1,.81782,1.28632c.00755.29089.02164.83231-1.02776,1.52913l-.41957.2786-.02593.503-.07323,1.42034-.03588.69582.64033.2747.10005.0429a11.49227,11.49227,0,0,1,1.55818.72979,4.25277,4.25277,0,0,1,.03346.75611,3.49041,3.49041,0,0,1-.01823.43508c-.042.038-.09336.07576-.15257.1236-.12566.10157-.27583.22333-.45527.38611a4.98142,4.98142,0,0,0-2.02476,3.43775l-3.843,74.55281-.00133.02569v.02577c0,7.27713-16.83809,15.38553-41,15.38553-22.22429,0-41-7.04571-41-15.38553V139.13l-.00132-.02569L48.15508,64.54075a4.68173,4.68173,0,0,0-1.55962-2.94959c-.11029-.12309-.22455-.25058-.34135-.38441a5.46538,5.46538,0,0,0-.48051-.47419,1.31709,1.31709,0,0,1-.26871-.285l.0004-.25949a6.14021,6.14021,0,0,1,.01733-.62681,8.82492,8.82492,0,0,1,.97338-.5799l1.17982-.65333-.96787-.93917a1.30354,1.30354,0,0,1-.45351-.98958c-.01076-.41365.095-.87727.9346-1.4637l.45462-.31753-.02857-.5538-.07367-1.4284-.02722-.52758-.45112-.27487c-1.02671-.62559-1.04049-1.15164-1.04789-1.43426-.01055-.40238.08861-.85313.87872-1.42184l.44257-.31854-.02808-.54455-.30316-5.8809c.18871-.25078,1.84121-1.84908,13.88914-3.228a297.00508,297.00508,0,0,1,32.10553-1.54651m0-1c-25.92114,0-46.93865,2.54948-46.99725,5.697h-.00275l.00055.01049-.00055.00264.00091.00433.30891,5.99244a2.56212,2.56212,0,0,0-1.2942,2.25963,2.619,2.619,0,0,0,1.52722,2.262l.07367,1.4284a2.59993,2.59993,0,0,0-1.36164,2.30956,2.30275,2.30275,0,0,0,.75679,1.68122c-1.60248.88738-1.50018.82818-1.50666,2.33672-.003.68739.54377.90308.99573,1.421.87078.99775,1.60022,1.64973,1.65576,2.728l3.84351,74.56354c0,9.07,18.804,16.38553,42,16.38553s42-7.77894,42-16.38553l3.843-74.5528a3.99913,3.99913,0,0,1,1.698-2.74858c.78273-.71009.95416-.55225.95416-1.68543,0-1.4845-.00371-1.46388-2.29747-2.44782l.07323-1.42035a2.65543,2.65543,0,0,0,1.47424-2.38818,2.48634,2.48634,0,0,0-1.24394-2.07953l.08172-1.58581a2.61557,2.61557,0,0,0,1.40052-2.33515,2.45375,2.45375,0,0,0-1.17561-2.0282l.19128-3.71069.00092-.00433-.00054-.00264.00054-.01049h-.00274c-.0586-3.14753-21.07611-5.697-46.99726-5.697Z" style="fill:#333"/><path d="M92.99991,86.42137c-6.3584,0-12.68994-.26025-18.81836-.77295l.10449-1.24609c6.09375.51025,12.39014.769,18.71387.769Z" style="fill:#1d2475"/><path d="M92.99991,67.76808c-21.292,0-42.373-3.08642-47.99219-7.02685l.28711-.40918c4.86231,3.40918,24.03565,6.936,47.70508,6.936,23.29443,0,42.5498-3.47168,47.707-6.82812l.27344.41894C135.02628,64.73341,113.95108,67.76808,92.99991,67.76808Z" style="fill:#333;opacity:0.35000000000000003"/><path d="M92.99991,66.27586c-21.292,0-42.37256-3.08691-47.99219-7.02734l.28711-.40918C50.15762,62.249,69.331,65.77586,92.99991,65.77586c22.78955,0,42.52734-3.66455,47.74512-7.06006l.27343.41895C134.23966,63.54588,110.81534,66.27586,92.99991,66.27586Z" style="fill:#333;opacity:0.1"/><path d="M83.02921,61.995c-17.937,0-32.42823-1.42041-36.84034-3.75146l.2334-.44238c5.06787,2.67773,24.71924,4.17431,46.7251,3.54882,20.35449-.5747,39.02539-2.91894,45.4043-5.70068l.19922.458c-6.53272,2.84912-24.854,5.15674-45.58985,5.74267C89.6962,61.94764,86.30508,61.995,83.02921,61.995Z" style="fill:#333;opacity:0.35000000000000003"/><path d="M83.51309,58.0786c-17.73388,0-32.16894-1.45069-36.6582-3.82276l.2334-.44238c5.21191,2.75391,24.15039,4.24512,46.05908,3.627,20.353-.57422,39.02393-2.91845,45.4043-5.70068l.19922.458c-6.53418,2.84961-24.85547,5.15722-45.58985,5.74267C89.8671,58.03319,86.63858,58.0786,83.51309,58.0786Z" style="fill:#333;opacity:0.1"/><path d="M83.39444,55.85075c-17.084,0-31.37744-1.3003-36.43066-3.4419l.19531-.46c5.94385,2.519,24.90576,3.86182,46.11328,3.26074,20.89453-.59033,39.19482-2.84521,45.53809-5.61084l.19921.458c-6.3955,2.78955-24.7705,5.061-45.72363,5.65283C89.91983,55.80436,86.60635,55.85075,83.39444,55.85075Z" style="fill:#333;opacity:0.35000000000000003"/><path d="M83.38907,51.97215c-17.08008,0-31.37158-1.30029-36.42529-3.44141l.19531-.46c5.9458,2.51856,24.90771,3.85987,46.11328,3.26026,21.03906-.59375,39.33936-2.8086,45.53809-5.51172l.19921.458c-6.25146,2.72656-24.62646,4.958-45.72363,5.55371C89.91739,51.92625,86.60342,51.97215,83.38907,51.97215Z" style="fill:#333;opacity:0.1"/><path d="M136.69335,42.00834a.37672.37672,0,0,1-.02715.4871.90357.90357,0,0,1-.19547.14828,2.54926,2.54926,0,0,1-.34866.163c-.22682.0878-.45116.15447-.67626.21988-.44972.12607-.89992.23083-1.351.32829-.90211.19372-1.807.35587-2.71335.50654-1.81273.3-3.63107.54848-5.45173.77477-3.6417.449-7.29347.80013-10.95005,1.08768q-10.97371.805-21.987.84687-11.00562-.07213-21.98248-.90924c-3.65619-.282-7.30786-.62619-10.94928-1.0705-1.82052-.22375-3.63873-.47-5.451-.76856-.90611-.14982-1.81075-.3115-2.71217-.50515-.4507-.09782-.90048-.20189-1.34921-.32931-.22448-.06477-.44835-.1343-.674-.22274a2.19384,2.19384,0,0,1-.34557-.16652.63749.63749,0,0,1-.19462-.16746.363.363,0,0,1-.0762-.21545.37756.37756,0,0,1,.08032-.20408,3.03523,3.03523,0,0,1,1.28615-.7415c.44106-.15871.88689-.28461,1.33422-.40023.895-.22918,1.79716-.408,2.70123-.57069,1.80887-.32059,3.6269-.56588,5.44771-.77845,3.6419-.42533,7.29668-.70163,10.95221-.93808,7.31207-.46831,14.63946-.652,21.96419-.63223,7.32473-.02334,14.65243.13,21.96754.56059,3.65779.20766,7.31351.48154,10.95732.89976,1.82145.21227,3.64042.45792,5.44894.79113.90387.169,1.80553.35751,2.69865.60344a13.52215,13.52215,0,0,1,1.32946.43354A3.38974,3.38974,0,0,1,136.69335,42.00834Zm-.38687.32114a3.03235,3.03235,0,0,0-1.0615-.64335,13.07456,13.07456,0,0,0-1.27469-.43622c-.8691-.25331-1.75879-.45347-2.65216-.63416-1.78874-.35709-3.59777-.62895-5.41058-.86744-3.6275-.47093-7.27535-.79877-10.927-1.0604-7.30661-.48967-14.63175-.70078-21.9563-.73611-7.32468.01859-14.64986.24814-21.95563.75787q-5.4784.38891-10.92629,1.08875c-1.81335.24-3.62276.51272-5.41544.859-.89544.17537-1.78807.36684-2.66383.6056-.43718.12012-.87158.25041-1.28985.40833a2.82263,2.82263,0,0,0-1.07289.60614c-.02871.03509.018-.01255.00792-.05195.0094-.03673-.02087-.07026-.00985-.061a.31052.31052,0,0,0,.06877.04836,1.79625,1.79625,0,0,0,.27449.12623c.20162.07615.41615.14043.63224.19974.43367.11735.87769.21446,1.32286.30522.89142.17991,1.792.32938,2.69435.467,1.80526.27431,3.62026.49711,5.43746.69742,3.63523.39753,7.28226.69542,10.93256.93109q10.952.69792,21.93163.63285,10.96914.03028,21.927-.698c3.64994-.23,7.29681-.52133,10.93207-.91127,1.81721-.19656,3.63229-.41527,5.43765-.6847.90235-.13528,1.803-.282,2.6944-.45872.44531-.08877.88892-.1848,1.32281-.29905.21536-.05878.43127-.11969.63276-.1942a2.09359,2.09359,0,0,0,.27527-.12188.56543.56543,0,0,0,.08115-.05334C136.285,42.12909,136.24176,42.27269,136.30648,42.32948Z" style="fill:#333;opacity:0.75"/></g><path d="M76.29464,88.8849l.0152,1.34913a.63664.63664,0,0,0,.06675.32082.24331.24331,0,0,0,.1957.11748.427.427,0,0,0,.09367-.00142.26627.26627,0,0,0,.08255-.02277l.01543.456a.5798.5798,0,0,1-.16046.03533,1.00049,1.00049,0,0,1-.20245-.00007.61862.61862,0,0,1-.476-.24789,1.03682,1.03682,0,0,1-.15013-.5828l-.01462-1.47193c-.12915-.01188-.19373-.0179-.32293-.03008l-.004-.44424c.129.01172.19352.01752.32251.029l-.00663-.66607c.21316.018.31972.02682.53285.04417l.00754.66839c.17926.01531.26888.02283.44808.03761l.0055.44828C76.5638,88.9085,76.47409,88.90073,76.29464,88.8849Z" style="fill:#1d2475"/><path d="M78.471,91.26437l-.0063-.42287-.00983-.00079a.73476.73476,0,0,1-.22892.34307.532.532,0,0,1-.4048.11322.6302.6302,0,0,1-.34146-.12183.69153.69153,0,0,1-.20247-.25981,1.24814,1.24814,0,0,1-.10117-.35384,3.15271,3.15271,0,0,1-.0298-.39906c-.00861-.66309-.01292-.9944-.02152-1.65552.22709.01817.3406.027.56759.04436.00926.66292.01389.99529.02315,1.66058.001.06956.00585.13742.01267.204a.709.709,0,0,0,.04583.183.35985.35985,0,0,0,.09736.13832.28177.28177,0,0,0,.16516.06335.30339.30339,0,0,0,.30127-.1704.92324.92324,0,0,0,.1067-.48928c-.00915-.61539-.01373-.92277-.02289-1.53565.22686.01623.34026.02413.567.0395.01646,1.06163.0247,1.596.04116,2.66436C78.80637,91.29179,78.69462,91.28286,78.471,91.26437Z" style="fill:#1d2475"/><path d="M80.46579,88.7997a.40683.40683,0,0,1,.3286-.13211l.04211.00233a.118.118,0,0,1,.04326.01258l-.02045.60489a.43906.43906,0,0,0-.12072-.02263.27851.27851,0,0,0-.19379.05934.53019.53019,0,0,0-.143.17753.911.911,0,0,0-.08591.25656,1.41744,1.41744,0,0,0-.02555.29723l.02171,1.34505c-.231-.01509-.34662-.02294-.57792-.03929-.017-1.07122-.02553-1.607-.04255-2.67048.2231.01409.33463.02092.55763.03415l.00831.51178.00979.00058A.86985.86985,0,0,1,80.46579,88.7997Z" style="fill:#1d2475"/><path d="M81.20468,87.50008c.22675.012.34012.01777.56683.029.01053.64146.0158.96478.02633,1.61387l.00978.00048a.55956.55956,0,0,1,.19468-.29381.50987.50987,0,0,1,.35218-.1035.65728.65728,0,0,1,.35664.1196.92417.92417,0,0,1,.26363.30135,1.58609,1.58609,0,0,1,.16324.449,3.05079,3.05079,0,0,1,.0157,1.13943,1.69026,1.69026,0,0,1-.1519.45806.80131.80131,0,0,1-.25483.298.55225.55225,0,0,1-.34687.0952.5254.5254,0,0,1-.38035-.15543.89629.89629,0,0,1-.19511-.34763l-.01076-.00055.00621.38543c-.22022-.01138-.33037-.01734-.55081-.02982C81.24344,89.86436,81.23051,89.0654,81.20468,87.50008Zm.58885,2.64441a2.17674,2.17674,0,0,0,.03409.35661,1.34805,1.34805,0,0,0,.08389.29366.58052.58052,0,0,0,.1361.20175.28945.28945,0,0,0,.18686.08.25265.25265,0,0,0,.18647-.06237.49147.49147,0,0,0,.12391-.18954,1.235,1.235,0,0,0,.07064-.28659,2.364,2.364,0,0,0,.01979-.35433,2.47782,2.47782,0,0,0-.03107-.35908,1.34367,1.34367,0,0,0-.07989-.29454.57993.57993,0,0,0-.13019-.19972.28647.28647,0,0,0-.18889-.07915.25846.25846,0,0,0-.1847.06192.48094.48094,0,0,0-.1299.18767,1.193,1.193,0,0,0-.07453.28729A2.15641,2.15641,0,0,0,81.79353,90.14449Z" style="fill:#1d2475"/><path d="M84.31859,88.14086a.3565.3565,0,0,1-.091.25611.292.292,0,0,1-.23391.09613.31855.31855,0,0,1-.239-.11236.38961.38961,0,0,1-.0968-.26288.36365.36365,0,0,1,.08892-.25538.28306.28306,0,0,1,.23594-.09981.31516.31516,0,0,1,.23916.11662A.403.403,0,0,1,84.31859,88.14086Zm-.55882,3.4316c-.01613-1.07841-.02419-1.618-.04031-2.68264.22624.008.33933.01184.56546.019.01555,1.0639.02332,1.60352.03887,2.682C84.09828,91.584,83.98548,91.58035,83.75977,91.57246Z" style="fill:#1d2475"/><path d="M86.245,91.63383l-.00467-.38577-.00971-.00014a.755.755,0,0,1-.18236.33539.48816.48816,0,0,1-.37907.13053.59748.59748,0,0,1-.3494-.11818.90958.90958,0,0,1-.26288-.3151,1.77766,1.77766,0,0,1-.166-.46846,2.86837,2.86837,0,0,1-.06255-.57815,2.77464,2.77464,0,0,1,.04384-.56077,1.44593,1.44593,0,0,1,.15186-.43793.79535.79535,0,0,1,.25257-.28337.60313.60313,0,0,1,.3556-.09534.5498.5498,0,0,1,.35646.12927.65806.65806,0,0,1,.20356.30836l.01461.00025c-.008-.64864-.01193-.971-.01987-1.60732.22183.00473.33272.00688.55446.01074.01805,1.5441.02707,2.34578.04513,3.94283C86.57005,91.63838,86.46175,91.637,86.245,91.63383Zm-.00557-1.344a2.18872,2.18872,0,0,0-.0326-.36029,1.25193,1.25193,0,0,0-.08336-.28928.52145.52145,0,0,0-.13681-.19592.28779.28779,0,0,0-.188-.074.26669.26669,0,0,0-.18814.06649.47921.47921,0,0,0-.12707.19083,1.20064,1.20064,0,0,0-.07121.28654,2.54118,2.54118,0,0,0,.00946.71537,1.2774,1.2774,0,0,0,.07872.29145.52776.52776,0,0,0,.1319.19793.2803.2803,0,0,0,.18952.07473.2683.2683,0,0,0,.18865-.06781.51864.51864,0,0,0,.1288-.19307,1.2418,1.2418,0,0,0,.07619-.28844A2.13875,2.13875,0,0,0,86.23946,90.28986Z" style="fill:#1d2475"/><path d="M88.03481,88.21424a.36223.36223,0,0,1-.092.25612.30123.30123,0,0,1-.23365.10142.30787.30787,0,0,1-.23774-.10527.37418.37418,0,0,1-.09529-.25811.36819.36819,0,0,1,.08989-.25515.29213.29213,0,0,1,.2358-.10468.305.305,0,0,1,.23793.10927A.38547.38547,0,0,1,88.03481,88.21424Zm-.57324,3.4318c-.01107-1.07679-.01661-1.61568-.02768-2.67321.22545.002.33814.0028.56345.00389.01011,1.0562.01517,1.59487.02528,2.67119C87.79828,91.64763,87.68607,91.64726,87.46157,91.646Z" style="fill:#1d2475"/><path d="M89.24035,89.4271c.00407.54418.0061.81869.01018,1.36923a.62849.62849,0,0,0,.06433.32043.20706.20706,0,0,0,.19138.09861.41259.41259,0,0,0,.09186-.01166.28254.28254,0,0,0,.08107-.03216l.01275.46326a.60634.60634,0,0,1-.15724.0541.96233.96233,0,0,1-.19809.02287.52335.52335,0,0,1-.465-.19981,1.01858,1.01858,0,0,1-.14612-.58153c-.005-.6038-.00749-.905-.01247-1.50161-.12746.00016-.19119.00018-.31868.00005l-.004-.45084c.1276.00025.19138.0003.31893.00024l-.00565-.66941c.2114.00026.31706.00017.52834-.00041l.005.66855c.17723-.00077.26582-.0013.443-.00267l.00305.44972C89.506,89.42557,89.41743,89.42617,89.24035,89.4271Z" style="fill:#1d2475"/><path d="M91.0694,91.993a2.75658,2.75658,0,0,1-.11511.36787,1.062,1.062,0,0,1-.16356.28578.68612.68612,0,0,1-.23338.18427.75792.75792,0,0,1-.31879.06785,1.32234,1.32234,0,0,1-.19006-.01069.80487.80487,0,0,1-.15068-.032l.06615-.5339a.65036.65036,0,0,0,.09672.02809.51426.51426,0,0,0,.11108.01134.24554.24554,0,0,0,.20218-.09.59576.59576,0,0,0,.102-.2416l.07261-.33323c-.30053-1.09529-.4515-1.6438-.755-2.71831.23655-.002.35479-.00329.59119-.00637.18142.78914.27182,1.18985.452,1.9935l.01546-.00029c.15629-.80979.23468-1.21372.392-2.0072.22843-.00447.3426-.007.57089-.01242C91.51545,90.14581,91.36629,90.764,91.0694,91.993Z" style="fill:#1d2475"/><path d="M73.921,93.69l.005,1.32021a.626.626,0,0,0,.066.31906.27507.27507,0,0,0,.19982.13085.45912.45912,0,0,0,.096.00614.26943.26943,0,0,0,.08476-.0157l.01255.44714a.634.634,0,0,1-.16483.02163,1.0396,1.0396,0,0,1-.20779-.01625.70469.70469,0,0,1-.48715-.28345,1.03065,1.03065,0,0,1-.14934-.58223l-.00215-1.43754c-.13237-.02235-.19859-.0337-.33117-.05675v-.4332c.13231.02231.19841.03331.33052.055l-.001-.65084c.21808.03406.327.05067.54465.08307l.00247.65511c.18324.0286.27478.04257.45767.06992l.00242.43995C74.19626,93.73388,74.10457,93.71946,73.921,93.69Z" style="fill:#1d2475"/><path d="M75.21883,94.89008a1.35809,1.35809,0,0,0,.03351.29253.95832.95832,0,0,0,.09141.24816.6219.6219,0,0,0,.14607.18035.39357.39357,0,0,0,.19836.08832.28844.28844,0,0,0,.25272-.06567.6494.6494,0,0,0,.14875-.21447c.17116.122.25672.18279.42773.304a.83913.83913,0,0,1-.31528.39017.75277.75277,0,0,1-.53023.08341,1.07452,1.07452,0,0,1-.73992-.47182,1.842,1.842,0,0,1-.285-1.06532,1.96756,1.96756,0,0,1,.06765-.55513,1.14526,1.14526,0,0,1,.20248-.40893.74872.74872,0,0,1,.71835-.28343.93859.93859,0,0,1,.42665.15708.99672.99672,0,0,1,.28888.3162,1.4784,1.4784,0,0,1,.16513.44,2.59894,2.59894,0,0,1,.058.53175l.0026.22175C76.03523,95.00936,75.7637,94.97169,75.21883,94.89008Zm.80111-.30537a1.15133,1.15133,0,0,0-.09677-.48689.36335.36335,0,0,0-.28834-.22055.26186.26186,0,0,0-.19124.04022.40034.40034,0,0,0-.12658.14824.81444.81444,0,0,0-.07228.20376.85765.85765,0,0,0-.02434.203C75.54079,94.51937,75.7007,94.5418,76.01994,94.58471Z" style="fill:#1d2475"/><path d="M78.1868,94.39026a.68248.68248,0,0,0-.17942-.17909.5247.5247,0,0,0-.24443-.08787.254.254,0,0,0-.21179.06782.35256.35256,0,0,0,.01131.46735,1.33207,1.33207,0,0,0,.29153.17408,2.09958,2.09958,0,0,1,.2224.12495.98142.98142,0,0,1,.20025.17379.844.844,0,0,1,.14485.24018.89135.89135,0,0,1,.05811.31965.92212.92212,0,0,1-.06264.374.665.665,0,0,1-.18133.25161.62768.62768,0,0,1-.26464.131.909.909,0,0,1-.31238.01535,1.16464,1.16464,0,0,1-.45739-.15286,1.32483,1.32483,0,0,1-.36344-.30863c.12275-.132.184-.1983.3064-.3315a1.1589,1.1589,0,0,0,.21648.21191.58469.58469,0,0,0,.28651.11087.24294.24294,0,0,0,.22215-.07234.35183.35183,0,0,0,.07772-.2496.34692.34692,0,0,0-.12286-.28267,1.69292,1.69292,0,0,0-.31983-.19108,1.67682,1.67682,0,0,1-.1999-.111.79281.79281,0,0,1-.1798-.16088.77683.77683,0,0,1-.133-.23.92772.92772,0,0,1-.05159-.31293.75515.75515,0,0,1,.06428-.33316.67467.67467,0,0,1,.17739-.2356.65224.65224,0,0,1,.25667-.132.83539.83539,0,0,1,.30329-.02209,1.09639,1.09639,0,0,1,.42157.12795,1.22315,1.22315,0,0,1,.32141.25283C78.36564,94.18079,78.30607,94.25079,78.1868,94.39026Z" style="fill:#1d2475"/><path d="M79.5383,94.369c.00866.54815.013.82176.02164,1.367a.64459.64459,0,0,0,.06811.32275.239.239,0,0,0,.19559.11544.421.421,0,0,0,.09332-.00286.26566.26566,0,0,0,.08215-.02416l.01722.45729a.6181.6181,0,0,1-.15959.0383.95264.95264,0,0,1-.20158.004.60575.60575,0,0,1-.47566-.24245,1.05091,1.05091,0,0,1-.15309-.58693c-.00922-.59616-.01384-.89538-.02306-1.49475-.12938-.01168-.1941-.01764-.32362-.02987l-.00684-.45344c.12946.012.19415.01783.32347.02928l-.01045-.68031c.214.01837.32084.02722.53446.04426l.01074.68167c.17948.01473.26915.02185.44837.0356l.00731.45546C79.80753,94.39127,79.71783,94.384,79.5383,94.369Z" style="fill:#1d2475"/><path d="M82.40135,93.22255a.39939.39939,0,0,0-.1498-.0342.2412.2412,0,0,0-.15457.03691.28205.28205,0,0,0-.09285.114.57227.57227,0,0,0-.04712.16576,1.14888,1.14888,0,0,0-.0125.19425l.00612.37957c.16217.00884.24321.01308.40521.02122l.00756.47311c-.16-.00809-.24006-.01231-.40026-.02111.01425.88261.02138,1.32241.03563,2.19224-.22178-.01216-.33278-.01863-.555-.03243-.01435-.87028-.02152-1.30994-.03587-2.19205-.12837-.00786-.19258-.0119-.32107-.02024l-.00768-.47243c.12848.00824.19269.01224.32107.02l-.00624-.38442a1.75234,1.75234,0,0,1,.03661-.39514.915.915,0,0,1,.1297-.31918.592.592,0,0,1,.237-.20566.73515.73515,0,0,1,.36129-.06.9146.9146,0,0,1,.27019.055Zm.91522.14056a.36009.36009,0,0,1-.09043.26014.28428.28428,0,0,1-.23317.09572.31888.31888,0,0,1-.23854-.11615.4087.4087,0,0,1-.09681-.26814.37853.37853,0,0,1,.08852-.2598.2774.2774,0,0,1,.23524-.10049.31738.31738,0,0,1,.23955.12089A.42028.42028,0,0,1,83.31657,93.36311ZM82.763,96.78259c-.01695-1.05492-.02543-1.59057-.04238-2.66485.22542.01046.338.01535.56313.0245.01657,1.07448.02484,1.61013.04141,2.66392C83.10053,96.79749,82.98811,96.79279,82.763,96.78259Z" style="fill:#1d2475"/><path d="M83.99592,96.82947c-.02368-1.55973-.03552-2.36193-.05919-3.96084.22539.00764.338.01118.56318.01768.02278,1.599.03418,2.40137.057,3.9588C84.33267,96.83954,84.22049,96.83642,83.99592,96.82947Z" style="fill:#1d2475"/><path d="M85.23484,96.85957c-.02155-1.55436-.03233-2.35686-.05389-3.95562.22487.00517.33725.00748.5619.01158.02043,1.59838.03063,2.40085.05106,3.9525C85.57043,96.86525,85.45863,96.86357,85.23484,96.85957Z" style="fill:#1d2475"/><path d="M87.43027,96.8763c-.01663-1.543-.02494-2.34507-.04156-3.94171.22408.00116.33607.00148.56.00169.01521,1.59594.02282,2.39784.038,3.93778C87.76424,96.87543,87.653,96.87589,87.43027,96.8763Z" style="fill:#1d2475"/><path d="M89.23341,93.44764a.384.384,0,0,1-.09155.26385.299.299,0,0,1-.23154.107.29559.29559,0,0,1-.23521-.10391.38393.38393,0,0,1-.09389-.26277.39467.39467,0,0,1,.08948-.26387.30419.30419,0,0,1,.46909-.00286A.40078.40078,0,0,1,89.23341,93.44764Zm-.5737,3.42065c-.00908-1.03634-.01361-1.56868-.02269-2.6385.22324-.00116.33481-.00195.55789-.004.00806,1.06915.0121,1.60105.02017,2.63538C88.993,96.86444,88.88194,96.86587,88.65971,96.86829Z" style="fill:#1d2475"/><path d="M90.41736,94.21009l.00233.42309.00961-.00016a.85567.85567,0,0,1,.22691-.36727.56874.56874,0,0,1,.39549-.15632.54375.54375,0,0,1,.333.08449.58717.58717,0,0,1,.195.23858,1.16842,1.16842,0,0,1,.09438.3444,3.16893,3.16893,0,0,1,.02631.39624c.00227.66268.00341.99113.00567,1.63524-.22163.00595-.33246.00882-.55414.01429-.00287-.64508-.00431-.97381-.00717-1.63684-.00029-.06526-.00345-.132-.01047-.19934a.69619.69619,0,0,0-.0421-.1839.303.303,0,0,0-.09473-.13079.24492.24492,0,0,0-.15974-.04622.33995.33995,0,0,0-.29688.20345,1.01741,1.01741,0,0,0-.10775.5003c.00338.61081.00506.91376.00844,1.50972-.22179.00474-.33271.007-.55461.01106-.00684-1.032-.01027-1.56339-.01712-2.63182C90.08891,94.21538,90.19841,94.21373,90.41736,94.21009Z" style="fill:#1d2475"/><path d="M92.74794,95.63038a1.3488,1.3488,0,0,0,.03022.28832.81709.81709,0,0,0,.08566.232.46187.46187,0,0,0,.13813.15361.30782.30782,0,0,0,.18869.05266.32.32,0,0,0,.24215-.10893.83151.83151,0,0,0,.14445-.23838c.1629.09266.24433.13881.40715.2308a1.06576,1.06576,0,0,1-.30624.43659.8739.8739,0,0,1-1.2081-.15737,1.6597,1.6597,0,0,1-.26693-1.01842,2.28313,2.28313,0,0,1,.06662-.57848,1.48216,1.48216,0,0,1,.19574-.45507.98344.98344,0,0,1,.302-.29878.77908.77908,0,0,1,.39079-.11327.75256.75256,0,0,1,.41019.09153.77246.77246,0,0,1,.27568.276,1.30908,1.30908,0,0,1,.15457.41968,2.589,2.589,0,0,1,.04989.526v.22159C93.52827,95.60736,93.26819,95.61546,92.74794,95.63038Zm.77029-.44572a1.10375,1.10375,0,0,0-.08862-.47695A.28083.28083,0,0,0,93.154,94.531a.27749.27749,0,0,0-.18421.07317.52109.52109,0,0,0-.12259.1728,1.01722,1.01722,0,0,0-.07063.22.9816.9816,0,0,0-.02457.21053C93.05849,95.19878,93.21174,95.19419,93.51823,95.18466Z" style="fill:#1d2475"/></svg>