<svg id="turbidity_100_-_1D" data-name="turbidity 100 - 1D" xmlns="http://www.w3.org/2000/svg" viewBox="0 0 226 200"><rect id="back" width="226" height="200" style="fill:none"/><g id="bucket"><g id="bucket-2" data-name="bucket"><circle cx="93" cy="58.56543" r="46.5" style="fill:#fff"/><path d="M93,12.5652a46,46,0,1,1-46,46,46.05209,46.05209,0,0,1,46-46m0-1a47,47,0,1,0,47,47,47,47,0,0,0-47-47Z" style="fill:#333"/></g><path id="inner_lip" data-name="inner lip" d="M93,15.3152a43.25,43.25,0,1,1-43.25,43.25A43.299,43.299,0,0,1,93,15.3152m0-.75a44,44,0,1,0,44,44,44,44,0,0,0-44-44Z" style="fill:#333;fill-opacity:0.35000000000000003"/><path id="bottom" d="M93,33A29,29,0,1,1,64,62,29.03284,29.03284,0,0,1,93,33m0-.5A29.5,29.5,0,1,0,122.5,62,29.5,29.5,0,0,0,93,32.5Z" style="fill:#333;fill-opacity:0.25"/><g id="water"><circle cx="93" cy="58.56543" r="37.75" style="fill:#d1eef3;opacity:0.25"/><circle cx="93" cy="58.56543" r="37.75" style="fill:#cecece;opacity:0.25"/><path d="M93,21.0652a37.5,37.5,0,1,1-37.5,37.5,37.54247,37.54247,0,0,1,37.5-37.5m0-.5a38,38,0,1,0,38,38,38,38,0,0,0-38-38Z" style="fill:#d1eef3"/><path d="M93,21.0652a37.5,37.5,0,1,1-37.5,37.5,37.54247,37.54247,0,0,1,37.5-37.5m0-.5a38,38,0,1,0,38,38,38,38,0,0,0-38-38Z" style="fill:#cecece;opacity:0.5"/></g><g id="disk-100"><g id="Oval"><circle cx="90.3642" cy="71.1854" r="7.08027" style="fill:#d1eef3;opacity:0.25"/><circle cx="90.3642" cy="71.1854" r="7.08027" style="fill:#cecece;opacity:0.25"/><path d="M90.375,78.519a7.35592,7.35592,0,0,1-2.03125-.28759A7.2839,7.2839,0,1,1,90.375,78.519Zm-.00781-14.16455a6.8322,6.8322,0,1,0,1.87988.26514A6.84375,6.84375,0,0,0,90.36719,64.35449Z" style="fill:#999"/></g><path id="Oval-2" data-name="Oval" d="M90.3642,71.1854l1.95159-6.806a7.08028,7.08028,0,0,0-8.75758,4.85441Z" style="fill:#999;fill-rule:evenodd"/><path id="Oval-3" data-name="Oval" d="M90.3642,71.1854l-1.95158,6.806a7.08026,7.08026,0,0,0,8.75757-4.8544Z" style="fill:#999;fill-rule:evenodd"/></g></g></svg>