<svg xmlns="http://www.w3.org/2000/svg" viewBox="0 0 24 24">
    <g fill="none" fill-rule="evenodd">
        <g>
            <g>
                <path d="M0 24L24 24 24 0 0 0z" transform="translate(-246 -1653) translate(246 1653)"/>
                <path fill="#D1EEF4" d="M3 21L21 21 21 3 3 3z" transform="translate(-246 -1653) translate(246 1653)"/>
                <path fill="#333" fill-rule="nonzero" d="M21 21V3H2c0-1.105.895-2 2-2h17c1.105 0 2 .895 2 2v18c0 1.105-.895 2-2 2H4c-1.105 0-2-.895-2-2h19z" transform="translate(-246 -1653) translate(246 1653)"/>
                <path fill="#333" fill-rule="nonzero" d="M5 17.5L5 19.5 1 19.5 1 17.5zM4 14.25L4 16.25 2 16.25 2 14.25zM5 11L5 13 1 13 1 11zM4 7.75L4 9.75 2 9.75 2 7.75zM5 4.5L5 6.5 1 6.5 1 4.5zM13.008 18.5c1.069 0 1.97-.324 2.701-.973.732-.65 1.255-1.677 1.57-3.083l-2.016-.78c-.177.926-.466 1.602-.866 2.028-.4.426-.875.638-1.424.638-.748 0-1.357-.334-1.826-1.003-.469-.669-.703-1.795-.703-3.378 0-1.527.24-2.622.72-3.285.48-.663 1.1-.994 1.86-.994.533 0 .994.181 1.386.544.391.363.653.885.784 1.565l2.059-.6c-.258-1.104-.664-1.935-1.218-2.496-.778-.789-1.744-1.183-2.899-1.183-1.417 0-2.546.526-3.387 1.578C8.783 8.29 8.3 9.968 8.3 12.11c0 2.03.48 3.642 1.44 4.837.835 1.035 1.924 1.552 3.268 1.552z" transform="translate(-246 -1653) translate(246 1653)"/>
            </g>
        </g>
    </g>
</svg>
