<svg xmlns="http://www.w3.org/2000/svg" viewBox="0 0 24 24">
    <g fill="none" fill-rule="evenodd">
        <g>
            <g>
                <path fill="#646464" fill-rule="nonzero" d="M12 0C5.373 0 0 5.373 0 12s5.373 12 12 12 12-5.373 12-12S18.627 0 12 0z" transform="translate(-618 -1214) translate(618 1214)"/>
                <path fill="#FFF" fill-rule="nonzero" d="M12 .5C18.351.5 23.5 5.649 23.5 12S18.351 23.5 12 23.5.5 18.351.5 12 5.649.5 12 .5z" transform="translate(-618 -1214) translate(618 1214)"/>
                <path fill="#646464" d="M12 12V0C5.373 0 0 5.373 0 12h12z" transform="translate(-618 -1214) translate(618 1214)"/>
                <path fill="#646464" d="M24 24V12c-6.627 0-12 5.373-12 12h12z" transform="translate(-618 -1214) translate(618 1214) rotate(180 18 18)"/>
            </g>
        </g>
    </g>
</svg>
