<svg xmlns="http://www.w3.org/2000/svg" width="24" height="24" viewBox="0 0 24 24">
    <g fill="none" fill-rule="evenodd">
        <g>
            <g>
                <path d="M0 24L24 24 24 0 0 0z" transform="translate(-178 -1653) translate(178 1653)"/>
                <path fill="#F4E4CB" d="M3 21L21 21 21 3 3 3z" transform="translate(-178 -1653) translate(178 1653)"/>
                <path fill="#333" fill-rule="nonzero" d="M21 21V3H2c0-1.105.895-2 2-2h17c1.105 0 2 .895 2 2v18c0 1.105-.895 2-2 2H4c-1.105 0-2-.895-2-2h19z" transform="translate(-178 -1653) translate(178 1653)"/>
                <path fill="#333" fill-rule="nonzero" d="M5 17.5L5 19.5 1 19.5 1 17.5zM4 14.25L4 16.25 2 16.25 2 14.25zM5 11L5 13 1 13 1 11zM4 7.75L4 9.75 2 9.75 2 7.75zM5 4.5L5 6.5 1 6.5 1 4.5zM10.866 18.5L10.866 12.816 15.087 12.816 15.087 18.5 17.242 18.5 17.242 5.5 15.087 5.5 15.087 10.617 10.866 10.617 10.866 5.5 8.72 5.5 8.72 18.5z" transform="translate(-178 -1653) translate(178 1653)"/>
            </g>
        </g>
    </g>
</svg>
