<svg xmlns="http://www.w3.org/2000/svg" width="21" height="23" viewBox="0 0 21 23">
    <g fill="none" fill-rule="evenodd">
        <g>
            <g>
                <path d="M0 0H21V23H0z" transform="translate(-412 -1653) translate(412 1653)"/>
                <path fill="#333" fill-rule="nonzero" d="M2 .363c.334 0 .662.084.955.243l16.81 9.137c.97.527 1.329 1.742.801 2.712-.184.34-.463.618-.802.802L2.955 22.394c-.97.527-2.185.168-2.712-.802-.16-.293-.243-.622-.243-.955V2.363c0-1.104.895-2 2-2z" transform="translate(-412 -1653) translate(412 1653)"/>
                <path fill="#FFF" fill-rule="nonzero" d="M2 1.363c-.513 0-.936.386-.993.884L1 2.363v18.274c0 .166.042.33.121.477.245.45.786.638 1.25.45l.107-.049 16.809-9.136c.17-.093.309-.232.4-.401.246-.451.108-1.007-.301-1.295l-.1-.062L2.479 1.485c-.11-.06-.23-.098-.354-.114L2 1.363z" transform="translate(-412 -1653) translate(412 1653)"/>
            </g>
        </g>
    </g>
</svg>
