<svg xmlns="http://www.w3.org/2000/svg" width="21" height="19" viewBox="0 0 21 19">
    <g fill="none" fill-rule="evenodd">
        <g fill="#FFF" stroke="#333">
            <path d="M2 2.863c.25 0 .496.063.716.183h0l12.21 6.636c.364.198.613.525.722.893.109.368.077.777-.12 1.141-.139.255-.348.464-.602.602h0l-12.21 6.636c-.364.198-.773.23-1.141.121-.368-.109-.695-.358-.893-.722-.12-.22-.182-.466-.182-.716h0V4.363c0-.414.168-.789.44-1.06.27-.272.646-.44 1.06-.44z" transform="translate(-827 -702) rotate(90 73 775)"/>
        </g>
    </g>
</svg>
