<svg xmlns="http://www.w3.org/2000/svg" width="20" height="20" viewBox="0 0 20 20">
    <g fill="none" fill-rule="evenodd">
        <g>
            <g>
                <path d="M0 20L20 20 20 0 0 0z" transform="translate(-767 -700) translate(767 700)"/>
                <path fill="#333" d="M17.5 2.5v3.712h-6.908c.06.612.359.963.919 1.478.297.287.684.697.894 1.283.214.584.216 1.175.148 1.749-.194 1.139-.682 1.958-.918 2.653-.267.7-.343 1.267-.283 1.782.055.53.231.979.504 1.588.132.292.279.543.431.755H7.071c-.041-.942.017-2.05.35-3.052.339-1.096.966-2.032 1.567-2.706.606-.69 1.145-1.183 1.42-1.62.247-.483.329-.786-.099-1.491-.194-.342-.479-.759-.616-1.275-.108-.387-.11-.783-.051-1.144H2.5V2.5h15zm0-1.667h-15C1.58.833.833 1.58.833 2.5v15c0 .92.747 1.667 1.667 1.667h15c.92 0 1.667-.747 1.667-1.667v-15c0-.92-.747-1.667-1.667-1.667z" transform="translate(-767 -700) translate(767 700)"/>
            </g>
        </g>
    </g>
</svg>
