<svg xmlns="http://www.w3.org/2000/svg" width="20" height="20" viewBox="0 0 20 20">
    <g fill="none" fill-rule="evenodd">
        <g>
            <g>
                <path d="M0 20L20 20 20 0 0 0z" transform="translate(-797 -700) translate(797 700)"/>
                <path fill="#333" d="M10 .833c5.063 0 9.167 4.104 9.167 9.167S15.063 19.167 10 19.167.833 15.063.833 10 4.937.833 10 .833zM8.454 2.917l-.73 1.617c-.302.659-.966 1.079-1.692 1.07L4.258 5.57l.48 1.709c.198.7-.041 1.45-.608 1.906L2.75 10.3l1.466 1c.601.41.9 1.138.76 1.851l-.342 1.742 1.767-.176c.06-.006.12-.01.18-.01.662 0 1.272.36 1.591.94l.859 1.553 1.239-1.27c.343-.35.812-.547 1.303-.548.223 0 .444.04.652.12l1.656.64.133-1.77c.055-.725.536-1.348 1.224-1.584l1.679-.576-1.036-1.44c-.425-.591-.457-1.378-.081-2l.916-1.52-1.72-.438c-.704-.18-1.234-.762-1.346-1.48l-.276-1.753-1.599.77c-.655.315-1.435.21-1.983-.268L8.454 2.917z" transform="translate(-797 -700) translate(797 700)"/>
                <path fill="#333" fill-rule="nonzero" d="M10.001 5c.409 0 .816.05 1.212.15 2.564.641 4.185 3.167 3.702 5.764-.484 2.598-2.905 4.371-5.527 4.048-2.623-.324-4.54-2.632-4.378-5.27.158-2.574 2.246-4.595 4.803-4.689L10.001 5zm0 1.25c-1.982 0-3.622 1.541-3.744 3.52-.122 1.977 1.317 3.709 3.284 3.951 1.966.243 3.782-1.087 4.145-3.035.363-1.949-.854-3.843-2.776-4.324-.223-.056-.45-.09-.68-.105l-.229-.007z" transform="translate(-797 -700) translate(797 700)"/>
            </g>
        </g>
    </g>
</svg>
