<svg id="ph_-_1B" data-name="ph - 1B" xmlns="http://www.w3.org/2000/svg" viewBox="0 0 226 200"><rect id="back" width="226" height="200" style="fill:none"/><g id="test_tube" data-name="test tube"><rect id="water_25_" data-name="water 25%" x="106.5" y="69.5" width="13" height="79.5" style="fill:#d1eef3;fill-opacity:0.25"/><path id="test_tube-2" data-name="test tube" d="M119,58.5v90H107v-90h12m1-1H106v92h14v-92Z" style="fill:#333"/><rect id="water_fill_line" data-name="water fill line" x="109" y="69" width="8" height="1" style="fill:#333"/></g><path id="Line-2" d="M138.20627,59.75816l.80267.59641-.2982.40135a23.53125,23.53125,0,0,1-8.13841,6.75226l-.05944.02812,1.00109,3.978-9.826-2.168,7.63-6.55994.946,3.75587a22.66689,22.66689,0,0,0,7.35874-6.00867l.28528-.374Z" style="fill:blue"/><g style="isolation:isolate"><path d="M142.38086,70.80029h2.16992l.86133-7.03515.126-.53907-2.05079,1.60352a.43217.43217,0,0,1-.2666.09766.39012.39012,0,0,1-.18847-.0459.30673.30673,0,0,1-.11914-.10156l-.30762-.52442,3.29-2.583h.97949l-1.12012,9.12793h1.98828l-.1123.92383h-5.35449Z" style="fill:blue"/><path d="M153.6582,61.59521a2.908,2.908,0,0,1,1.22461.25586,2.58552,2.58552,0,0,1,.96289.7627,3.762,3.762,0,0,1,.62989,1.27344,6.32645,6.32645,0,0,1,.22753,1.78906,9.62914,9.62914,0,0,1-.34374,2.71973,5.832,5.832,0,0,1-.93067,1.92089,3.72613,3.72613,0,0,1-3.03125,1.5127,2.93836,2.93836,0,0,1-1.23144-.25586,2.58759,2.58759,0,0,1-.9629-.76269,3.74094,3.74094,0,0,1-.62988-1.27442,6.34771,6.34771,0,0,1-.22754-1.7959,9.59742,9.59742,0,0,1,.34278-2.71582,5.82573,5.82573,0,0,1,.93164-1.918,3.73587,3.73587,0,0,1,3.03808-1.51172ZM152.55176,70.814a2.16232,2.16232,0,0,0,1.11621-.31152,2.76145,2.76145,0,0,0,.92383-.9414,5.34452,5.34452,0,0,0,.62695-1.59278,9.76872,9.76872,0,0,0,.23145-2.26367A5.6067,5.6067,0,0,0,155.292,64.273a2.94538,2.94538,0,0,0-.42285-.96289,1.63652,1.63652,0,0,0-.62012-.53906,1.71049,1.71049,0,0,0-.74511-.168,2.15718,2.15718,0,0,0-1.11621.31152,2.76006,2.76006,0,0,0-.92481.94531,5.386,5.386,0,0,0-.626,1.59571,9.77225,9.77225,0,0,0-.23144,2.26464,5.61214,5.61214,0,0,0,.1582,1.43165,2.9036,2.9036,0,0,0,.42285.959,1.63469,1.63469,0,0,0,.62012.53516A1.70755,1.70755,0,0,0,152.55176,70.814Z" style="fill:blue"/><path d="M157.71777,67.02H160.916l-.13282,1.02246h-3.1914Z" style="fill:blue"/><path d="M161.89648,71.72412l.85352-7.09766h.62305a.37091.37091,0,0,1,.41992.41993l-.09766,1.2666a4.37364,4.37364,0,0,1,1.14746-1.333,2.205,2.205,0,0,1,1.31641-.45215,1.20838,1.20838,0,0,1,1.06445.49414,2.45552,2.45552,0,0,1,.34278,1.41016,4.14591,4.14591,0,0,1,1.19336-1.43848,2.37545,2.37545,0,0,1,1.38964-.46582,1.37834,1.37834,0,0,1,1.17188.51172,2.38472,2.38472,0,0,1,.38867,1.46973c0,.10742-.00488.21972-.01367.33593-.00977.11622-.02149.23829-.03516.36426l-.53222,4.51465H169.9043l.53222-4.51465a5.30313,5.30313,0,0,0,.042-.623,1.35087,1.35087,0,0,0-.17579-.77344.66728.66728,0,0,0-.58789-.249,1.34332,1.34332,0,0,0-.60156.1504,2.15613,2.15613,0,0,0-.58105.4414,3.49783,3.49783,0,0,0-.52149.7207,5.844,5.844,0,0,0-.43066.99024l-.45508,3.85742h-1.23145l.53907-4.51465c.01367-.126.02539-.24511.03418-.35742.00976-.1123.01465-.2168.01465-.31445a1.30847,1.30847,0,0,0-.165-.73535.65018.65018,0,0,0-.57715-.23829,1.35326,1.35326,0,0,0-.64746.168,2.11542,2.11542,0,0,0-.58789.48633,3.9612,3.9612,0,0,0-.51465.77735,7.511,7.511,0,0,0-.43457,1.03222l-.44043,3.69629Z" style="fill:blue"/><path d="M174.48926,70.61768H178.458l-.13281,1.10644h-5.27832l1.23925-10.03125h1.3086Z" style="fill:blue"/><path d="M182.31445,71.72412l1.25293-10.31055H184.793l-1.25391,10.31055Z" style="fill:blue"/><path d="M187.76758,64.6333l-.85449,7.09082h-1.22461l.85351-7.09082Zm.46875-2.22656a.7928.7928,0,0,1-.07324.33984,1.0073,1.0073,0,0,1-.19629.28028.958.958,0,0,1-.27637.19238.76651.76651,0,0,1-.32227.07031.75571.75571,0,0,1-.31543-.07031.85151.85151,0,0,1-.26855-.19238.9732.9732,0,0,1-.18555-.28028.82072.82072,0,0,1-.07031-.33984.84781.84781,0,0,1,.07031-.34278.94257.94257,0,0,1,.46192-.47949.723.723,0,0,1,.31445-.07324.76654.76654,0,0,1,.32227.07031.92124.92124,0,0,1,.27636.19239.88319.88319,0,0,1,.19239.28711A.86849.86849,0,0,1,188.23633,62.40674Z" style="fill:blue"/><path d="M188.92969,71.72412l.84668-7.09766h.623a.37091.37091,0,0,1,.41993.41993l-.1045,1.37207a4.39009,4.39009,0,0,1,1.27735-1.41407,2.61244,2.61244,0,0,1,1.47363-.47656,1.50418,1.50418,0,0,1,1.22852.53223,2.39923,2.39923,0,0,1,.4375,1.55371c0,.09375-.00293.18945-.00782.28711-.0039.09863-.01367.20117-.02734.30859l-.53223,4.51465h-1.24609l.53223-4.51465c.00879-.09375.01757-.18359.02441-.26953.00684-.08691.01074-.16894.01074-.249a1.38542,1.38542,0,0,0-.21386-.85059.79415.79415,0,0,0-.66895-.27637,1.44873,1.44873,0,0,0-.68164.18262,2.65011,2.65011,0,0,0-.66895.51367,4.19419,4.19419,0,0,0-.59863.80567,5.65757,5.65757,0,0,0-.47266,1.05273l-.40527,3.60547Z" style="fill:blue"/><path d="M201.96289,66.15186a1.91579,1.91579,0,0,1-.18848.85058,1.77281,1.77281,0,0,1-.69336.7002,5.16887,5.16887,0,0,1-1.38574.543,15.29756,15.29756,0,0,1-2.26855.37011c-.00391.05176-.00684.10157-.00684.15137v.15039a2.18422,2.18422,0,0,0,.41016,1.43066,1.512,1.512,0,0,0,1.23535.49415,2.326,2.326,0,0,0,.59863-.07032,2.59506,2.59506,0,0,0,.46875-.1709,2.14007,2.14007,0,0,0,.36426-.22461c.10449-.081.20117-.15625.29-.22363s.16992-.125.24512-.17187a.4172.4172,0,0,1,.22363-.07032.308.308,0,0,1,.23144.11915l.30762.38574a6.37389,6.37389,0,0,1-.69629.63281,4.04528,4.04528,0,0,1-.69629.4375,3.10682,3.10682,0,0,1-.74609.25586,4.11043,4.11043,0,0,1-.83594.08008,2.78282,2.78282,0,0,1-1.09179-.20313,2.24508,2.24508,0,0,1-.81934-.57715,2.593,2.593,0,0,1-.51758-.90625,3.6396,3.6396,0,0,1-.18262-1.19043,5.26655,5.26655,0,0,1,.11524-1.08789,5.13642,5.13642,0,0,1,.33594-1.0332,4.70782,4.70782,0,0,1,.53906-.90918,3.63177,3.63177,0,0,1,.72851-.72461,3.39363,3.39363,0,0,1,.90332-.47949,3.13058,3.13058,0,0,1,1.06055-.17578,2.5485,2.5485,0,0,1,.93067.15429,1.973,1.973,0,0,1,.64355.39258,1.56856,1.56856,0,0,1,.375.52442A1.40427,1.40427,0,0,1,201.96289,66.15186Zm-2.1416-.72071a1.826,1.826,0,0,0-.8125.18164,2.156,2.156,0,0,0-.65723.501,3.03026,3.03026,0,0,0-.49023.749,4.47064,4.47064,0,0,0-.31543.92774,13.65657,13.65657,0,0,0,1.72949-.30469,4.31353,4.31353,0,0,0,1.001-.37109,1.084,1.084,0,0,0,.46191-.43067,1.1032,1.1032,0,0,0,.11231-.4834.70642.70642,0,0,0-.23536-.51074.96791.96791,0,0,0-.31835-.18555A1.364,1.364,0,0,0,199.82129,65.43115Z" style="fill:blue"/></g><g style="isolation:isolate"><path d="M148.16309,45.76416h-4.38868l-.4414,3.57031h3.75879l-.14649,1.06348H143.207l-.53223,4.32617h-1.32226l1.23828-10.03125h5.70508Z" style="fill:blue"/><path d="M150.7041,47.6333l-.85351,7.09082H148.625l.85449-7.09082Zm.46875-2.22656a.79266.79266,0,0,1-.07324.33984.9681.9681,0,0,1-.19629.28028.94492.94492,0,0,1-.27637.19238.76539.76539,0,0,1-.32129.07031.75239.75239,0,0,1-.31543-.07031.86688.86688,0,0,1-.26953-.19238.99346.99346,0,0,1-.18554-.28028.82057.82057,0,0,1-.07032-.33984.84765.84765,0,0,1,.07032-.34278.95284.95284,0,0,1,.46191-.47949.72717.72717,0,0,1,.31543-.07324.76539.76539,0,0,1,.32129.07031.92535.92535,0,0,1,.27734.19239.89878.89878,0,0,1,.19239.28711A.88491.88491,0,0,1,151.17285,45.40674Z" style="fill:blue"/><path d="M151.98535,54.72412l1.25293-10.31055h1.22559L153.21,54.72412Z" style="fill:blue"/><path d="M155.31055,54.72412l1.25293-10.31055h1.22461l-1.25293,10.31055Z" style="fill:blue"/><path d="M161.834,53.38721c0-.02832.001-.06446.00391-.1084.002-.04492.00684-.1084.01367-.19238s.01758-.19434.03125-.32911c.01367-.13574.03516-.3125.06348-.53222l.44043-3.54883h-.791a.21913.21913,0,0,1-.15039-.05273.207.207,0,0,1-.05957-.16407c0-.01465.00293-.042.00684-.084q.00732-.063.01758-.14356c.00683-.05371.01464-.10839.02148-.165q.01026-.08349.01758-.16113l1.0918-.14648.52539-2.19141a.32944.32944,0,0,1,.10449-.1709.27713.27713,0,0,1,.18945-.0664h.65723L163.71,47.773h1.86231l-.10547.90332h-1.86914l-.42676,3.48633c-.02344.1914-.041.34472-.05274.46191-.01171.11621-.0205.21-.02734.2793-.00781.07031-.01172.11914-.01465.14746-.00195.02832-.00293.04883-.00293.0625a.74233.74233,0,0,0,.16406.5293.59476.59476,0,0,0,.45118.17089.90632.90632,0,0,0,.32226-.05273,1.3344,1.3344,0,0,0,.24219-.11523c.06738-.042.124-.08008.1709-.11524a.21916.21916,0,0,1,.126-.05273.13015.13015,0,0,1,.0879.02832.36338.36338,0,0,1,.0664.09082l.25879.59472a2.51416,2.51416,0,0,1-.77344.47266,2.39655,2.39655,0,0,1-.8789.17188,1.49417,1.49417,0,0,1-1.07032-.3711A1.452,1.452,0,0,1,161.834,53.38721Z" style="fill:blue"/><path d="M168.54,54.82178a2.76636,2.76636,0,0,1-1.06445-.19922,2.341,2.341,0,0,1-.833-.57715,2.67334,2.67334,0,0,1-.5459-.92383,3.6714,3.6714,0,0,1-.19629-1.24609,5.024,5.024,0,0,1,.28027-1.6875,4.5797,4.5797,0,0,1,.76661-1.38574,3.64151,3.64151,0,0,1,1.14843-.93848,3.06336,3.06336,0,0,1,1.43164-.34277,2.765,2.765,0,0,1,1.06348.19921,2.34733,2.34733,0,0,1,.833.57813,2.65548,2.65548,0,0,1,.5459.92773,3.67617,3.67617,0,0,1,.19629,1.24219,4.99874,4.99874,0,0,1-.28028,1.67969,4.57959,4.57959,0,0,1-.7666,1.38574,3.65647,3.65647,0,0,1-1.15137.94238A3.04952,3.04952,0,0,1,168.54,54.82178Zm.1123-.97266a1.64518,1.64518,0,0,0,.93067-.28027,2.45,2.45,0,0,0,.71387-.74512,3.8377,3.8377,0,0,0,.45507-1.07422,4.96462,4.96462,0,0,0,.16114-1.27441,2.38855,2.38855,0,0,0-.38477-1.47656,1.32219,1.32219,0,0,0-1.11328-.49708,1.64886,1.64886,0,0,0-.93457.27637,2.44264,2.44264,0,0,0-.71094.74219,3.84187,3.84187,0,0,0-.45508,1.07422,4.96282,4.96282,0,0,0-.16015,1.27344,2.41729,2.41729,0,0,0,.38086,1.48046A1.31863,1.31863,0,0,0,168.65234,53.84912Z" style="fill:blue"/><path d="M176.36523,53.38721c0-.02832.001-.06446.00391-.1084.002-.04492.00684-.1084.01367-.19238s.01758-.19434.03125-.32911c.01367-.13574.03516-.3125.06348-.53222l.44043-3.54883h-.791a.21913.21913,0,0,1-.15039-.05273.207.207,0,0,1-.05957-.16407c0-.01465.00293-.042.00684-.084q.00732-.063.01758-.14356c.00683-.05371.01464-.10839.02148-.165q.01026-.08349.01758-.16113l1.0918-.14648.52539-2.19141a.32944.32944,0,0,1,.10449-.1709.27713.27713,0,0,1,.18945-.0664h.65723l-.30762,2.44238h1.86231l-.10547.90332h-1.86914l-.42676,3.48633c-.02344.1914-.041.34472-.05274.46191-.01171.11621-.0205.21-.02734.2793-.00781.07031-.01172.11914-.01465.14746-.00195.02832-.00293.04883-.00293.0625a.74233.74233,0,0,0,.16406.5293.59476.59476,0,0,0,.45118.17089.90632.90632,0,0,0,.32226-.05273,1.3344,1.3344,0,0,0,.24219-.11523c.06738-.042.124-.08008.1709-.11524a.21916.21916,0,0,1,.126-.05273.13015.13015,0,0,1,.0879.02832.36338.36338,0,0,1,.0664.09082l.25879.59472a2.51416,2.51416,0,0,1-.77344.47266,2.39655,2.39655,0,0,1-.8789.17188,1.49417,1.49417,0,0,1-1.07032-.3711A1.452,1.452,0,0,1,176.36523,53.38721Z" style="fill:blue"/><path d="M180.60059,54.72412l1.24511-10.31055h1.2461l-.58106,4.78711a4.20142,4.20142,0,0,1,1.22852-1.249,2.57432,2.57432,0,0,1,1.38281-.42383,1.509,1.509,0,0,1,1.23926.53223,2.39728,2.39728,0,0,1,.43359,1.54687c0,.09375-.00195.19043-.00683.291-.00489.09961-.01368.2041-.02832.31152l-.53125,4.51465h-1.2461l.53125-4.51465c.00977-.09375.01758-.18359.02539-.26953.00684-.08691.00977-.16894.00977-.249a1.40623,1.40623,0,0,0-.21289-.85352.79706.79706,0,0,0-.67578-.28027,1.40985,1.40985,0,0,0-.64746.17187,2.62662,2.62662,0,0,0-.64747.48633,4.07728,4.07728,0,0,0-.58789.75977,5.60957,5.60957,0,0,0-.47656.99023l-.45508,3.75879Z" style="fill:blue"/><path d="M193.63379,49.15186a1.91579,1.91579,0,0,1-.18848.85058,1.77281,1.77281,0,0,1-.69336.7002,5.16887,5.16887,0,0,1-1.38574.543,15.29756,15.29756,0,0,1-2.26855.37011c-.00391.05176-.00684.10157-.00684.15137v.15039a2.18422,2.18422,0,0,0,.41016,1.43066,1.512,1.512,0,0,0,1.23535.49415,2.326,2.326,0,0,0,.59863-.07032,2.59506,2.59506,0,0,0,.46875-.1709,2.14007,2.14007,0,0,0,.36426-.22461c.10449-.08105.20117-.15625.29-.22363s.16992-.125.24511-.17187a.41724.41724,0,0,1,.22364-.07032.308.308,0,0,1,.23144.11915l.30762.38574a6.37481,6.37481,0,0,1-.69629.63281,4.04528,4.04528,0,0,1-.69629.4375,3.107,3.107,0,0,1-.74609.25586,4.11043,4.11043,0,0,1-.83594.08008,2.7829,2.7829,0,0,1-1.0918-.20313,2.24512,2.24512,0,0,1-.81933-.57715,2.59281,2.59281,0,0,1-.51758-.90625,3.6396,3.6396,0,0,1-.18262-1.19043,5.26655,5.26655,0,0,1,.11524-1.08789,5.137,5.137,0,0,1,.33593-1.0332,4.70837,4.70837,0,0,1,.53907-.90918,3.63177,3.63177,0,0,1,.72851-.72461,3.39347,3.39347,0,0,1,.90332-.47949,3.13054,3.13054,0,0,1,1.06055-.17578,2.54841,2.54841,0,0,1,.93066.15429,1.973,1.973,0,0,1,.64356.39258,1.56856,1.56856,0,0,1,.375.52442A1.40445,1.40445,0,0,1,193.63379,49.15186Zm-2.1416-.72071a1.826,1.826,0,0,0-.8125.18164,2.156,2.156,0,0,0-.65723.501,3.03,3.03,0,0,0-.49023.749,4.47,4.47,0,0,0-.31543.92774,13.65657,13.65657,0,0,0,1.72949-.30469,4.31353,4.31353,0,0,0,1.001-.37109,1.08407,1.08407,0,0,0,.46191-.43067,1.103,1.103,0,0,0,.1123-.4834.70646.70646,0,0,0-.23535-.51074.96786.96786,0,0,0-.31836-.18555A1.36392,1.36392,0,0,0,191.49219,48.43115Z" style="fill:blue"/></g></svg>