<svg id="ph_7_-_2H" data-name="ph 7 - 2H" xmlns="http://www.w3.org/2000/svg" viewBox="0 0 226 200"><rect id="back" width="226" height="200" style="fill:none"/><g id="Layer_13" data-name="Layer 13"><g id="tablet"><circle id="tablet_inner" data-name="tablet inner" cx="101.08676" cy="85.62587" r="2.25" style="fill:#fff"/><path id="tablet_outline" data-name="tablet outline" d="M101.17712,83.87827A1.75,1.75,0,1,1,99.339,85.5355a1.752,1.752,0,0,1,1.83809-1.65723m.05167-.99866A2.75,2.75,0,1,0,103.833,85.768a2.75,2.75,0,0,0-2.60422-2.88842Z" style="fill:#333"/></g><g id="test_tube" data-name="test tube"><polygon id="water" points="143.102 129.206 139.108 133.092 76.064 67.406 85.413 58.565 113.974 88.412 143.102 129.206" style="fill:#cad04c;fill-opacity:0.7000000000000001;fill-rule:evenodd"/><path id="test_tube-2" data-name="test tube" d="M139.05085,132.392,76.77123,67.42081l8.66282-8.30395L147.71367,124.088l-8.66282,8.304m-.02991,1.4139,10.10662-9.68794L85.464,57.703,75.35734,67.3909l63.6636,66.41495Z" style="fill:#333"/><rect id="water_fill_line" data-name="water fill line" x="131.7703" y="119.79906" width="8" height="1" transform="translate(-45.48893 127.40744) rotate(-43.78829)" style="fill:#333"/></g><g id="cap"><rect id="cap_fill" data-name="cap fill" x="136.61225" y="120.54473" width="17" height="19" transform="translate(-49.63492 136.58228) rotate(-43.78829)" style="fill:#fff;fill-opacity:0.9"/><path id="cap_outline" data-name="cap outline" d="M146.97889,142.10772l.7219-.692.7219-.692.72191-.692,1.4438-1.384.7219-.692,1.4438-1.384.72191-.692,1.4438-1.384.7219-.692.7219-.692.7219-.692,1.44381-1.384-13.83992-14.438-12.99423,12.45592,13.83992,14.438Zm-13.86982-13.02414,11.55043-11.07193,12.45592,12.99423-.7219.692-6.92-7.219-.7219.692,6.92,7.219-.7219.692-6.92-7.219-.7219.692,6.92,7.219-1.4438,1.384-6.92-7.219-.7219.692,6.92,7.219-1.4438,1.384-6.92-7.219-.7219.692,6.92,7.219-1.4438,1.384-6.92-7.219-.7219.692,6.92,7.219-.7219.692-6.92-7.219-.7219.692,6.92,7.219-.72191.692Z" style="fill:#333;fill-rule:evenodd"/></g></g><path id="double_arrow" data-name="double arrow" d="M130.77937,142.57391l.29987.4001.90089,1.20815h0l.55887.75784,3.26459-2.32762,1.56364,9.94006-8.89024-4.71312,3.248-2.31832-.548-.743h0l-.89795-1.20419-.29988-.4001Zm-3.65644-4.76677.30742.39434.92228,1.1887h0l.91333,1.18868.3037.39718-.79439.60741-.3037-.39719-.91047-1.185h0l-.9194-1.185-.30742-.39433Zm-3.74642-4.70057.3146.38862.944,1.17162h0l.93633,1.17293.311.39146-.78294.6221-.311-.39148-.9335-1.16935h0l-.94118-1.16808-.3146-.38863Zm-3.82935-4.63051.32151.38293.96357,1.15288h0l.957,1.15543.31808.38577-.77156.63615-.31808-.38577-.95415-1.152h0l-.96071-1.14946-.32151-.38292Zm-3.91261-4.56339.32825.37717.98327,1.13487h0l.9777,1.13859.32489.38006-.76012.64979-.32489-.38006-.97481-1.13523h0l-.98037-1.13153-.32825-.37717Zm-3.99373-4.49411.3349.37128,1.003,1.11691h0l.99836,1.12176.33158.37424-.74847.66317-.33158-.37424-.9954-1.11844h0l-1-1.1136-.33489-.37128Zm-4.07208-4.4203.34154.36518,1.02352,1.09938h0l1.01976,1.10532.33821.36825-.73651.67643-.33821-.36825-1.01669-1.102h0l-1.02044-1.09606-.34153-.36518Zm-4.15288-4.34607.34822.35881,1.04293,1.07971h0l1.04,1.08673.34486.362-.72407.68973-.34486-.362-1.03679-1.08337h0l-1.03969-1.07635-.34822-.35882Zm-4.23046-4.26376.355.35209,1.06263,1.0591h0l1.06052,1.06722.35158.3555-.711.70317-.35158-.3555-1.05713-1.0638h0l-1.05922-1.05569-.355-.35209Zm-4.32173-4.18833.362.34493,1.08273,1.037h0l1.08139,1.04629.35847.34857-.69714.71693-.35847-.34857-1.07777-1.04278h0L94.53577,103.269l-.362-.34494Zm-4.4054-4.09661.36918.33721,1.1041,1.014h0l1.10355,1.02444.36554.34115-.68229.73108-.36554-.34115-1.09964-1.0208h0L90.153,99.17905l-.36918-.33721Zm-4.478-3.985.37666.32883,1.12609.98888h0l1.12633,1.00059.37286.33313-.66626.74572-.37286-.33313L86.821,96.18568h0l-1.12178-.9851-.37665-.32883Zm-4.58759-3.89328.38454.31958,1.14981.96171h0l1.15091.97479.38054.32433-.64865.76109-.38055-.32433-1.14617-.97079h0L81.138,91.31383l-.38453-.31958Zm-4.6843-3.77369.39288.30927,1.17359.9304h0l1.17555.945.38864.31456-.62915.77729-.38864-.31456-1.17027-.94076h0l-1.16827-.92618-.39287-.30927Zm-4.79118-3.64283.40176.29764q.79911.592,1.60086,1.19857l.80234.61016.39725.30364-.60727.79449-.39725-.30364q-.799-.61073-1.59546-1.207l-.79574-.59265-.40177-.29764Zm-4.90885-3.49578.41129.28432q.81733.565,1.63823,1.14627l.82172.5853.40645.2912-.58239.8129-.40646-.2912q-.818-.58606-1.63258-1.156l-.81359-.56585-.4113-.2843Zm-5.02627-3.319.42156.26885q.83714.5339,1.67888,1.08611l.84284.55672.41633.27688-.55376.83268-.41634-.27689q-.83866-.55775-1.67277-1.09735l-.83289-.535-.42157-.26885ZM49.31331,69.44864l10.05881.26515L57.48,73.26l.64563.3768q.43066.25383.86277.51284l.86562.52314.427.26017-.52031.854-.427-.26016q-.86077-.52446-1.71578-1.02843L57.009,74.142l-1.87252,3.51278Z" style="fill:blue"/><g style="isolation:isolate"><path d="M117.11328,71.66309c0-.02832.001-.06446.00391-.1084.002-.04492.00683-.1084.01367-.19239s.01758-.19433.03125-.3291c.01367-.13574.03516-.3125.06348-.53222l.44043-3.54883h-.791a.21907.21907,0,0,1-.15039-.05274.207.207,0,0,1-.05957-.16406c0-.01465.00293-.042.00684-.084q.00732-.063.01757-.14356c.00684-.05371.01465-.1084.02149-.165q.01025-.08349.01758-.16113l1.09179-.14648.52539-2.19141a.32948.32948,0,0,1,.1045-.1709.27709.27709,0,0,1,.18945-.0664h.65723l-.30762,2.44238h1.8623l-.10547.90332H118.877l-.42675,3.48633c-.02344.1914-.041.34472-.05274.46191-.01172.11621-.02051.21-.02734.2793-.00782.07031-.01172.11914-.01465.14746-.00195.02832-.00293.04883-.00293.0625a.74233.74233,0,0,0,.16406.5293.59475.59475,0,0,0,.45117.17089.90637.90637,0,0,0,.32227-.05273,1.3344,1.3344,0,0,0,.24219-.11523c.06738-.042.124-.08008.17089-.11524a.21912.21912,0,0,1,.126-.05273.1301.1301,0,0,1,.08789.02832.36293.36293,0,0,1,.06641.09082l.25879.59472a2.5144,2.5144,0,0,1-.77344.47266,2.39654,2.39654,0,0,1-.87891.17187,1.49414,1.49414,0,0,1-1.07031-.37109A1.452,1.452,0,0,1,117.11328,71.66309Z" style="fill:blue"/><path d="M126.50684,73h-.64356a.38078.38078,0,0,1-.333-.126.53094.53094,0,0,1-.08691-.30761l.126-1.4209a5.88593,5.88593,0,0,1-.543.80566,3.73848,3.73848,0,0,1-.61524.61524,2.74112,2.74112,0,0,1-.68261.39257,2.02632,2.02632,0,0,1-.74219.13868,1.74284,1.74284,0,0,1-.7627-.16407,1.57906,1.57906,0,0,1-.585-.48339,2.33242,2.33242,0,0,1-.374-.78418,3.87974,3.87974,0,0,1-.13379-1.06739,4.7896,4.7896,0,0,1,.1582-1.22851,4.979,4.979,0,0,1,1.14453-2.10645,4.67194,4.67194,0,0,1,.90625-.77051,4.30407,4.30407,0,0,1,1.07422-.5039,4.02863,4.02863,0,0,1,1.2041-.17871,5.17108,5.17108,0,0,1,.88575.07519,3.62,3.62,0,0,1,.85058.25781Zm-3.05176-.93848a1.22867,1.22867,0,0,0,.67187-.21,2.55652,2.55652,0,0,0,.62305-.582,5.066,5.066,0,0,0,.5498-.88574,8.04924,8.04924,0,0,0,.45118-1.126l.30078-2.39843a.48514.48514,0,0,0-.30371-.124h-.29785a2.459,2.459,0,0,0-.8125.13574,2.90294,2.90294,0,0,0-.73438.38086,3.2792,3.2792,0,0,0-.623.583,3.794,3.794,0,0,0-.47949.74316,4.19134,4.19134,0,0,0-.31152.86231,3.90563,3.90563,0,0,0-.11231.93848Q122.377,72.062,123.45508,72.06152Z" style="fill:blue"/><path d="M128.418,73l1.24609-10.31055h1.22461l-.61523,5.01172a5.98166,5.98166,0,0,1,.57324-.78027,3.89889,3.89889,0,0,1,.64453-.59863,2.92518,2.92518,0,0,1,.7002-.38184,2.09588,2.09588,0,0,1,.74121-.13672,1.67169,1.67169,0,0,1,1.40722.6582,3.1249,3.1249,0,0,1,.50391,1.92481,5.5937,5.5937,0,0,1-.11914,1.14844,5.878,5.878,0,0,1-.33887,1.0957,5.43357,5.43357,0,0,1-.53222.97266,4.18837,4.18837,0,0,1-.69336.78418,3.06717,3.06717,0,0,1-.82911.52148,2.39008,2.39008,0,0,1-.93847.18848,2.19734,2.19734,0,0,1-1.02539-.23731,2.00106,2.00106,0,0,1-.752-.67969l-.09082.45508a.69309.69309,0,0,1-.14355.27344A.404.404,0,0,1,129.083,73Zm4.0459-6.19531a1.2967,1.2967,0,0,0-.67871.21,2.87387,2.87387,0,0,0-.66211.581,5.21979,5.21979,0,0,0-.59766.88184,6.79994,6.79994,0,0,0-.4834,1.12012l-.22363,1.84179a1.49291,1.49291,0,0,0,.63672.53516,1.92441,1.92441,0,0,0,.75586.15723,1.56266,1.56266,0,0,0,.68652-.1543,2.17936,2.17936,0,0,0,.58789-.416,3.02637,3.02637,0,0,0,.47559-.61621,4.31729,4.31729,0,0,0,.35351-.75586,5.24915,5.24915,0,0,0,.22071-.833,4.87632,4.87632,0,0,0,.07714-.85059,2.21368,2.21368,0,0,0-.30175-1.2666A.96911.96911,0,0,0,132.46387,66.80469Z" style="fill:blue"/><path d="M135.83105,73,137.084,62.68945h1.22559L137.05566,73Z" style="fill:blue"/><path d="M144.707,67.42773a1.91653,1.91653,0,0,1-.18945.85059,1.7698,1.7698,0,0,1-.69238.7002,5.17692,5.17692,0,0,1-1.38672.543,15.30353,15.30353,0,0,1-2.26758.37012c-.00488.05176-.00684.10156-.00684.15137v.15039a2.18976,2.18976,0,0,0,.40918,1.43066,1.51336,1.51336,0,0,0,1.23535.49414,2.31547,2.31547,0,0,0,.59864-.07031,2.59562,2.59562,0,0,0,.46875-.1709,2.10246,2.10246,0,0,0,.36425-.22461c.10547-.081.20215-.15625.291-.22363.08789-.06738.16992-.125.24414-.17187A.42033.42033,0,0,1,144,71.18652a.30467.30467,0,0,1,.23047.11914l.30859.38575a6.56071,6.56071,0,0,1-.69629.63281,4.05239,4.05239,0,0,1-.69726.4375,3.09978,3.09978,0,0,1-.74512.25586,4.12022,4.12022,0,0,1-.83691.08008,2.78972,2.78972,0,0,1-1.0918-.20313,2.25331,2.25331,0,0,1-.81934-.57715,2.59288,2.59288,0,0,1-.51757-.90625,3.66605,3.66605,0,0,1-.18165-1.19043,5.20019,5.20019,0,0,1,.11524-1.08789,5.07583,5.07583,0,0,1,.33594-1.0332,4.65916,4.65916,0,0,1,.53906-.90918,3.627,3.627,0,0,1,.72754-.72461,3.40849,3.40849,0,0,1,.90332-.47949,3.13867,3.13867,0,0,1,1.06055-.17578,2.541,2.541,0,0,1,.93066.15429,1.96769,1.96769,0,0,1,.64453.39258,1.55162,1.55162,0,0,1,.374.52442A1.389,1.389,0,0,1,144.707,67.42773Zm-2.14258-.7207a1.81882,1.81882,0,0,0-.81152.18164,2.17158,2.17158,0,0,0-.6582.501,3.05793,3.05793,0,0,0-.49024.749,4.4697,4.4697,0,0,0-.31445.92774,13.60408,13.60408,0,0,0,1.72851-.30469,4.29562,4.29562,0,0,0,1.001-.3711,1.07819,1.07819,0,0,0,.46192-.43066,1.08977,1.08977,0,0,0,.1123-.4834.68974.68974,0,0,0-.05566-.26172.71035.71035,0,0,0-.17871-.249.97824.97824,0,0,0-.31836-.18555A1.36977,1.36977,0,0,0,142.56445,66.707Z" style="fill:blue"/><path d="M146.10645,71.66309c0-.02832.00195-.06446.0039-.1084.00195-.04492.00684-.1084.01367-.19239.00782-.084.01758-.19433.03223-.3291.01367-.13574.03418-.3125.0625-.53222l.44141-3.54883h-.791a.21736.21736,0,0,1-.15039-.05274.207.207,0,0,1-.05957-.16406.83809.83809,0,0,1,.00684-.084q.00732-.063.01757-.14356c.00684-.05371.01368-.1084.02051-.165q.01026-.08349.01758-.16113l1.0918-.14648.52539-2.19141a.33092.33092,0,0,1,.10547-.1709.27459.27459,0,0,1,.18847-.0664h.65821l-.3086,2.44238h1.86231l-.1045.90332h-1.86914l-.42675,3.48633c-.02344.1914-.041.34472-.05274.46191-.01172.11621-.02148.21-.02832.2793-.00683.07031-.01172.11914-.01367.14746-.00293.02832-.00391.04883-.00391.0625a.738.738,0,0,0,.165.5293.59475.59475,0,0,0,.45117.17089.914.914,0,0,0,.32227-.05273,1.32336,1.32336,0,0,0,.24121-.11523c.06738-.042.125-.08008.17188-.11524a.21422.21422,0,0,1,.126-.05273.12574.12574,0,0,1,.08692.02832.3404.3404,0,0,1,.0664.09082l.25977.59472a2.53054,2.53054,0,0,1-.77442.47266,2.38767,2.38767,0,0,1-.87793.17187,1.49658,1.49658,0,0,1-1.07128-.37109A1.45956,1.45956,0,0,1,146.10645,71.66309Z" style="fill:blue"/><path d="M157.78223,73a.37753.37753,0,0,1-.332-.126.52417.52417,0,0,1-.0879-.30761l.13282-1.47754a5.70125,5.70125,0,0,1-.58106.82617,4.22417,4.22417,0,0,1-.66113.63379,2.90206,2.90206,0,0,1-.7207.40527,2.10865,2.10865,0,0,1-.75977.14356,1.6633,1.6633,0,0,1-1.41016-.66114,3.1427,3.1427,0,0,1-.501-1.92187,5.66021,5.66021,0,0,1,.11914-1.14746,5.91449,5.91449,0,0,1,.33984-1.09961,5.4308,5.4308,0,0,1,.53125-.97656,4.13494,4.13494,0,0,1,.69336-.78028,3.14187,3.14187,0,0,1,.8291-.51758,2.39124,2.39124,0,0,1,.93848-.18945,2.202,2.202,0,0,1,.94824.20313,2.03251,2.03251,0,0,1,.73145.58105l.4834-3.89844h1.22461L158.42676,73Zm-2.541-.90332a1.29084,1.29084,0,0,0,.67578-.20606,2.83744,2.83744,0,0,0,.65821-.57421,4.95911,4.95911,0,0,0,.59472-.875,6.96372,6.96372,0,0,0,.47949-1.10938l.23145-1.876a1.491,1.491,0,0,0-.6377-.52539,1.93945,1.93945,0,0,0-.749-.15332,1.63212,1.63212,0,0,0-.99707.32911,2.86006,2.86006,0,0,0-.75586.8496,4.4268,4.4268,0,0,0-.47949,1.166,4.9927,4.9927,0,0,0-.168,1.2666,2.2303,2.2303,0,0,0,.30078,1.27051A.96835.96835,0,0,0,155.24121,72.09668Z" style="fill:blue"/><path d="M162.59863,65.90918,161.74414,73h-1.22461l.85352-7.09082Zm.46875-2.22656a.79266.79266,0,0,1-.07324.33984,1.00669,1.00669,0,0,1-.19629.28027.95784.95784,0,0,1-.27637.19239.76646.76646,0,0,1-.32226.07031.75567.75567,0,0,1-.31543-.07031.85143.85143,0,0,1-.26856-.19239.97319.97319,0,0,1-.18554-.28027.82056.82056,0,0,1-.07031-.33984.84764.84764,0,0,1,.07031-.34278.9425.9425,0,0,1,.46191-.47949.723.723,0,0,1,.31445-.07324.76651.76651,0,0,1,.32227.07031.92131.92131,0,0,1,.27637.19238.88322.88322,0,0,1,.19238.28711A.8684.8684,0,0,1,163.06738,63.68262Z" style="fill:blue"/><path d="M168.32422,67.043a.44536.44536,0,0,1-.11133.12207.23877.23877,0,0,1-.14062.03906.38515.38515,0,0,1-.21289-.07715c-.07715-.05078-.1709-.1084-.28028-.17187a2.35824,2.35824,0,0,0-.40234-.17481,2.01651,2.01651,0,0,0-1.14844.00684,1.42974,1.42974,0,0,0-.44824.24219,1.06607,1.06607,0,0,0-.29.36035.982.982,0,0,0-.10156.4375.67.67,0,0,0,.21679.52441,2.00338,2.00338,0,0,0,.5459.33985c.21973.0957.45606.18847.71094.27636a3.6484,3.6484,0,0,1,.71.33594,1.8091,1.8091,0,0,1,.5459.51856,1.40674,1.40674,0,0,1,.21777.81835,2.3535,2.3535,0,0,1-.74609,1.72559,2.72557,2.72557,0,0,1-.86817.543,3.045,3.045,0,0,1-1.13671.20312,2.82752,2.82752,0,0,1-1.20118-.24218,2.49288,2.49288,0,0,1-.85058-.61914l.30859-.47559a.42877.42877,0,0,1,.13281-.14062.36314.36314,0,0,1,.19629-.04883.34517.34517,0,0,1,.22364.09765c.07421.06543.168.13965.28027.22071a1.71665,1.71665,0,0,0,1.07129.31836,1.72644,1.72644,0,0,0,.61914-.1045,1.44606,1.44606,0,0,0,.46875-.28027,1.1675,1.1675,0,0,0,.29394-.40918,1.25171,1.25171,0,0,0,.10157-.501.752.752,0,0,0-.2168-.5664,1.77542,1.77542,0,0,0-.5459-.35059q-.32958-.13916-.707-.26269a3.55421,3.55421,0,0,1-.707-.31446,1.7084,1.7084,0,0,1-.5459-.501,1.39293,1.39293,0,0,1-.2168-.81836,2.19194,2.19194,0,0,1,.17774-.86524,2.24536,2.24536,0,0,1,.51465-.73828,2.55327,2.55327,0,0,1,.81543-.51465,2.8947,2.8947,0,0,1,1.082-.19238,2.76579,2.76579,0,0,1,1.123.21387,2.604,2.604,0,0,1,.83692.57715Z" style="fill:blue"/><path d="M173.77051,67.043a.46262.46262,0,0,1-.11231.12207.23563.23563,0,0,1-.13965.03906.39045.39045,0,0,1-.21386-.07715c-.07715-.05078-.16992-.1084-.28028-.17187a2.29155,2.29155,0,0,0-.40234-.17481,2.01307,2.01307,0,0,0-1.14746.00684,1.42974,1.42974,0,0,0-.44824.24219,1.081,1.081,0,0,0-.291.36035.982.982,0,0,0-.10156.4375.66747.66747,0,0,0,.21777.52441,1.98846,1.98846,0,0,0,.5459.33985c.21875.0957.45606.18847.71.27636a3.65731,3.65731,0,0,1,.71094.33594,1.82049,1.82049,0,0,1,.5459.51856,1.414,1.414,0,0,1,.21679.81835,2.35962,2.35962,0,0,1-.19238.93848,2.32633,2.32633,0,0,1-.55273.78711,2.73645,2.73645,0,0,1-.86817.543,3.05383,3.05383,0,0,1-1.13769.20312,2.82609,2.82609,0,0,1-1.2002-.24218,2.48352,2.48352,0,0,1-.85058-.61914l.30761-.47559a.44152.44152,0,0,1,.13379-.14062.3596.3596,0,0,1,.19532-.04883.34739.34739,0,0,1,.2246.09765c.07422.06543.168.13965.2793.22071a1.72252,1.72252,0,0,0,1.07129.31836,1.72265,1.72265,0,0,0,.61914-.1045,1.46145,1.46145,0,0,0,.46973-.28027,1.19281,1.19281,0,0,0,.29394-.40918,1.25171,1.25171,0,0,0,.10157-.501.75257.75257,0,0,0-.21778-.5664,1.76373,1.76373,0,0,0-.5459-.35059c-.21875-.09277-.45507-.18066-.707-.26269a3.57944,3.57944,0,0,1-.707-.31446,1.71866,1.71866,0,0,1-.5459-.501,1.39293,1.39293,0,0,1-.21679-.81836,2.17608,2.17608,0,0,1,.17871-.86524,2.231,2.231,0,0,1,.51465-.73828,2.53185,2.53185,0,0,1,.81543-.51465,2.88586,2.88586,0,0,1,1.08105-.19238,2.77064,2.77064,0,0,1,1.124.21387,2.59974,2.59974,0,0,1,.83594.57715Z" style="fill:blue"/><path d="M177.17871,73.09766a2.765,2.765,0,0,1-1.06348-.19922,2.33252,2.33252,0,0,1-.833-.57715,2.65823,2.65823,0,0,1-.5459-.92383,3.67144,3.67144,0,0,1-.19629-1.24609,5.024,5.024,0,0,1,.28027-1.6875,4.55917,4.55917,0,0,1,.7666-1.38575,3.649,3.649,0,0,1,1.14747-.93847,3.06617,3.06617,0,0,1,1.43164-.34277,2.76643,2.76643,0,0,1,1.06445.19921,2.356,2.356,0,0,1,.833.57813,2.67047,2.67047,0,0,1,.5459.92773,3.70112,3.70112,0,0,1,.19531,1.24219,4.99861,4.99861,0,0,1-.2793,1.67969,4.60068,4.60068,0,0,1-.7666,1.38574,3.65647,3.65647,0,0,1-1.15137.94238A3.05343,3.05343,0,0,1,177.17871,73.09766Zm.11231-.97266a1.64063,1.64063,0,0,0,.93066-.28027,2.43868,2.43868,0,0,0,.71387-.74512,3.83753,3.83753,0,0,0,.45507-1.07422,4.96462,4.96462,0,0,0,.16114-1.27441,2.38217,2.38217,0,0,0-.38477-1.47657,1.32219,1.32219,0,0,0-1.11328-.49707,1.65335,1.65335,0,0,0-.93457.27637,2.44,2.44,0,0,0-.71.74219,3.813,3.813,0,0,0-.45508,1.07422,4.963,4.963,0,0,0-.16113,1.27343,2.41053,2.41053,0,0,0,.38183,1.48047A1.31556,1.31556,0,0,0,177.291,72.125Z" style="fill:blue"/><path d="M181.80566,73l1.25293-10.31055h1.22559L183.03027,73Z" style="fill:blue"/><path d="M185.03906,65.90918h1.00879a.31614.31614,0,0,1,.22363.07715.32587.32587,0,0,1,.1045.18164l1.05761,4.56445a4.48208,4.48208,0,0,1,.08008.51758c.0166.17285.0293.34277.03906.51074q.07619-.252.16114-.50683a4.37525,4.37525,0,0,1,.21-.52149l2.19726-4.56445a.528.528,0,0,1,.1543-.18555.35419.35419,0,0,1,.2168-.07324h.97363L187.90918,73h-1.043Z" style="fill:blue"/><path d="M197.16406,67.42773a1.9164,1.9164,0,0,1-.18945.85059,1.7698,1.7698,0,0,1-.69238.7002,5.17692,5.17692,0,0,1-1.38672.543,15.30353,15.30353,0,0,1-2.26758.37012c-.00488.05176-.00684.10156-.00684.15137v.15039a2.18976,2.18976,0,0,0,.40918,1.43066,1.51336,1.51336,0,0,0,1.23535.49414,2.31547,2.31547,0,0,0,.59864-.07031,2.59562,2.59562,0,0,0,.46875-.1709,2.10294,2.10294,0,0,0,.36426-.22461c.10546-.081.20214-.15625.291-.22363.08789-.06738.16992-.125.24414-.17187a.42035.42035,0,0,1,.22461-.07032.30465.30465,0,0,1,.23047.11914l.30859.38575a6.56071,6.56071,0,0,1-.69629.63281,4.05239,4.05239,0,0,1-.69726.4375,3.09978,3.09978,0,0,1-.74512.25586,4.12015,4.12015,0,0,1-.83691.08008,2.78972,2.78972,0,0,1-1.0918-.20313,2.25328,2.25328,0,0,1-.81933-.57715,2.59274,2.59274,0,0,1-.51758-.90625,3.66606,3.66606,0,0,1-.18164-1.19043,5.20018,5.20018,0,0,1,.11523-1.08789,5.07583,5.07583,0,0,1,.33594-1.0332,4.65916,4.65916,0,0,1,.53906-.90918,3.627,3.627,0,0,1,.72754-.72461,3.40849,3.40849,0,0,1,.90332-.47949,3.13867,3.13867,0,0,1,1.06055-.17578,2.541,2.541,0,0,1,.93066.15429,1.96769,1.96769,0,0,1,.64453.39258,1.55179,1.55179,0,0,1,.374.52442A1.38919,1.38919,0,0,1,197.16406,67.42773Zm-2.14258-.7207a1.81882,1.81882,0,0,0-.81152.18164,2.17158,2.17158,0,0,0-.6582.501,3.05822,3.05822,0,0,0-.49024.749,4.4697,4.4697,0,0,0-.31445.92774,13.60462,13.60462,0,0,0,1.72852-.30469,4.29551,4.29551,0,0,0,1.001-.3711,1.07819,1.07819,0,0,0,.46192-.43066,1.08977,1.08977,0,0,0,.1123-.4834.68974.68974,0,0,0-.05566-.26172.71035.71035,0,0,0-.17871-.249.97814.97814,0,0,0-.31836-.18555A1.36977,1.36977,0,0,0,195.02148,66.707Z" style="fill:blue"/><path d="M202.51172,67.043a.44536.44536,0,0,1-.11133.12207.23877.23877,0,0,1-.14062.03906.38515.38515,0,0,1-.21289-.07715c-.07715-.05078-.1709-.1084-.28028-.17187a2.35824,2.35824,0,0,0-.40234-.17481,2.01651,2.01651,0,0,0-1.14844.00684,1.42974,1.42974,0,0,0-.44824.24219,1.06607,1.06607,0,0,0-.29.36035.982.982,0,0,0-.10156.4375.67.67,0,0,0,.21679.52441,2.00338,2.00338,0,0,0,.5459.33985c.21973.0957.45606.18847.71094.27636a3.6484,3.6484,0,0,1,.71.33594,1.8091,1.8091,0,0,1,.5459.51856,1.40674,1.40674,0,0,1,.21777.81835,2.3535,2.3535,0,0,1-.74609,1.72559,2.72557,2.72557,0,0,1-.86817.543,3.045,3.045,0,0,1-1.13671.20312,2.82752,2.82752,0,0,1-1.20118-.24218,2.49288,2.49288,0,0,1-.85058-.61914l.30859-.47559a.42877.42877,0,0,1,.13281-.14062.36314.36314,0,0,1,.19629-.04883.34517.34517,0,0,1,.22364.09765c.07421.06543.168.13965.28027.22071a1.71665,1.71665,0,0,0,1.07129.31836,1.72644,1.72644,0,0,0,.61914-.1045,1.44606,1.44606,0,0,0,.46875-.28027,1.1675,1.1675,0,0,0,.29394-.40918,1.25171,1.25171,0,0,0,.10157-.501.752.752,0,0,0-.2168-.5664,1.77542,1.77542,0,0,0-.5459-.35059q-.32958-.13916-.707-.26269a3.55421,3.55421,0,0,1-.707-.31446,1.7084,1.7084,0,0,1-.5459-.501,1.39293,1.39293,0,0,1-.2168-.81836,2.19194,2.19194,0,0,1,.17774-.86524,2.24536,2.24536,0,0,1,.51465-.73828,2.55327,2.55327,0,0,1,.81543-.51465,2.8947,2.8947,0,0,1,1.082-.19238,2.76579,2.76579,0,0,1,1.123.21387,2.604,2.604,0,0,1,.83692.57715Z" style="fill:blue"/></g><g style="isolation:isolate"><path d="M116.31543,55.23047a.88.88,0,0,1,.06641-.34375.842.842,0,0,1,.18554-.2793.89258.89258,0,0,1,.27637-.18945.8428.8428,0,0,1,.34668-.07031.81937.81937,0,0,1,.33887.07031.9086.9086,0,0,1,.27734.18945.89728.89728,0,0,1,.18848.2793.849.849,0,0,1,.07031.34375.83508.83508,0,0,1-.07031.3457.90706.90706,0,0,1-.18848.27637.86891.86891,0,0,1-.61621.25293.87451.87451,0,0,1-.34668-.06738.83477.83477,0,0,1-.27637-.18555.84975.84975,0,0,1-.18554-.27637A.8658.8658,0,0,1,116.31543,55.23047Zm3.59766,0a.8982.8982,0,0,1,.0664-.34375.85726.85726,0,0,1,.18555-.2793.90412.90412,0,0,1,.27637-.18945.8428.8428,0,0,1,.34668-.07031.82715.82715,0,0,1,.33984.07031.90424.90424,0,0,1,.27637.18945.8806.8806,0,0,1,.18847.2793.84886.84886,0,0,1,.07032.34375.83492.83492,0,0,1-.07032.3457.88981.88981,0,0,1-.18847.27637.8449.8449,0,0,1-.27637.18555.85814.85814,0,0,1-.33984.06738.87451.87451,0,0,1-.34668-.06738.8448.8448,0,0,1-.27637-.18555.8655.8655,0,0,1-.18555-.27637A.88325.88325,0,0,1,119.91309,55.23047Zm3.60546,0a.88014.88014,0,0,1,.06641-.34375.86305.86305,0,0,1,.18164-.2793.87028.87028,0,0,1,.96289-.18945.89638.89638,0,0,1,.46875.46875.84885.84885,0,0,1,.07031.34375.83492.83492,0,0,1-.07031.3457.89258.89258,0,0,1-.18945.27637.82747.82747,0,0,1-.2793.18555.908.908,0,0,1-.68652,0,.79676.79676,0,0,1-.27637-.18555.87722.87722,0,0,1-.248-.62207Z" style="fill:blue"/><path d="M129.377,56l.8545-7.09766h.623a.37129.37129,0,0,1,.41992.41993l-.09863,1.2666a4.38879,4.38879,0,0,1,1.14844-1.333,2.20006,2.20006,0,0,1,1.31543-.45215,1.20611,1.20611,0,0,1,1.06445.49414,2.45552,2.45552,0,0,1,.34278,1.41016,4.15653,4.15653,0,0,1,1.19335-1.43848,2.37763,2.37763,0,0,1,1.38965-.46582,1.38023,1.38023,0,0,1,1.17285.51172,2.39114,2.39114,0,0,1,.38868,1.46973c0,.10742-.00489.21972-.01465.33593-.00879.11621-.02051.23829-.03418.36426L138.61035,56h-1.22558l.53222-4.51465a5.10151,5.10151,0,0,0,.042-.623,1.35953,1.35953,0,0,0-.1748-.77343.66844.66844,0,0,0-.58789-.249,1.34722,1.34722,0,0,0-.60254.15039,2.18681,2.18681,0,0,0-.58105.44141,3.49719,3.49719,0,0,0-.52149.7207,5.92412,5.92412,0,0,0-.42969.99024L134.60645,56H133.374l.53907-4.51465q.0205-.189.03515-.35742c.00879-.11231.01367-.2168.01367-.31445a1.30924,1.30924,0,0,0-.16406-.73536.65323.65323,0,0,0-.57812-.23828,1.356,1.356,0,0,0-.64746.168,2.14354,2.14354,0,0,0-.58789.48633,4.00519,4.00519,0,0,0-.51465.77734,7.63526,7.63526,0,0,0-.4336,1.03223L130.59473,56Z" style="fill:blue"/><path d="M142.59277,48.90918,141.73926,56h-1.22559l.85449-7.09082Zm.46875-2.22656a.79266.79266,0,0,1-.07324.33984.96792.96792,0,0,1-.19629.28027.94476.94476,0,0,1-.27637.19239.76534.76534,0,0,1-.32128.07031.75236.75236,0,0,1-.31543-.07031.86651.86651,0,0,1-.26953-.19239.9933.9933,0,0,1-.18555-.28027.82056.82056,0,0,1-.07031-.33984.84764.84764,0,0,1,.07031-.34278.95284.95284,0,0,1,.46191-.47949.72717.72717,0,0,1,.31543-.07324.76539.76539,0,0,1,.32129.07031.9255.9255,0,0,1,.27734.19238.899.899,0,0,1,.19239.28711A.88482.88482,0,0,1,143.06152,46.68262Z" style="fill:blue"/><path d="M145.77832,52.18457l-1.70117-3.27539h1.11328a.38863.38863,0,0,1,.19922.03809.34379.34379,0,0,1,.1084.13671l1.19043,2.43555c.02246-.05078.04785-.09961.07324-.14648a1.27023,1.27023,0,0,1,.09473-.14746l1.60253-2.12012a.86509.86509,0,0,1,.13965-.14746.24684.24684,0,0,1,.1543-.04883h1.127l-2.53418,3.2832L149.23633,56h-1.11328a.30029.30029,0,0,1-.2168-.07324.5969.5969,0,0,1-.126-.17188l-1.33691-2.835a1.70636,1.70636,0,0,1-.14746.26563l-1.93164,2.57617a.88424.88424,0,0,1-.1543.168A.31537.31537,0,0,1,144,56h-1.0918Z" style="fill:blue"/><path d="M154.99707,48.90918l-.53223,4.50781c-.00976.09375-.01757.18164-.02441.26563s-.01074.166-.01074.24511a1.40242,1.40242,0,0,0,.21386.8545.79336.79336,0,0,0,.67481.27929,1.43485,1.43485,0,0,0,.66211-.1748,2.61946,2.61946,0,0,0,.6582-.49707,4.0801,4.0801,0,0,0,.59082-.77637,5.81069,5.81069,0,0,0,.47656-1.01562l.44043-3.68848h1.23926L158.53223,56H157.916a.514.514,0,0,1-.33594-.09766.36639.36639,0,0,1-.11914-.30175c0-.00391.00195-.0459.00683-.126.00489-.0791.01075-.165.01758-.25879.00684-.09277.01367-.17969.02051-.25879.00781-.0791.01074-.12109.01074-.126l.04883-.56738a4.43334,4.43334,0,0,1-1.2666,1.36914,2.57027,2.57027,0,0,1-1.44238.46485,1.49354,1.49354,0,0,1-1.22852-.53907,2.40417,2.40417,0,0,1-.4375-1.54687c0-.09277.00293-.18848.00781-.28711.00391-.09766.01367-.2002.02735-.30762l.53222-4.50781Z" style="fill:blue"/><path d="M160.36621,56l.84668-7.09766h.62305a.37091.37091,0,0,1,.41992.41993l-.10449,1.37207a4.39018,4.39018,0,0,1,1.27734-1.41407,2.61244,2.61244,0,0,1,1.47363-.47656,1.50417,1.50417,0,0,1,1.22852.53223,2.39916,2.39916,0,0,1,.4375,1.55371c0,.09375-.00293.18945-.00781.28711-.00391.09863-.01367.20117-.02735.30859L166.001,56h-1.2461l.53223-4.51465c.00879-.09375.01758-.18359.02441-.26953.00684-.08691.01075-.16894.01075-.249a1.38533,1.38533,0,0,0-.21387-.85059.79415.79415,0,0,0-.66895-.27637,1.44873,1.44873,0,0,0-.68164.18262,2.64984,2.64984,0,0,0-.66894.51367,4.1938,4.1938,0,0,0-.59864.80567,5.65755,5.65755,0,0,0-.47265,1.05273L161.6123,56Z" style="fill:blue"/><path d="M168.3457,54.66309c0-.02832.001-.06446.00391-.1084.00195-.04492.00684-.1084.01367-.19239s.01758-.19433.03125-.3291c.01367-.13574.03516-.3125.06348-.53222l.44043-3.54883h-.791a.21908.21908,0,0,1-.15039-.05274.207.207,0,0,1-.05957-.16406c0-.01465.00293-.042.00684-.084q.00732-.063.01758-.14356c.00683-.05371.01464-.1084.02148-.165q.01026-.08349.01758-.16113l1.09179-.14648.52539-2.19141a.32948.32948,0,0,1,.1045-.1709.27713.27713,0,0,1,.18945-.0664h.65723l-.30762,2.44238h1.8623l-.10546.90332h-1.86914l-.42676,3.48633c-.02344.1914-.041.34472-.05274.46191-.01172.11621-.0205.21-.02734.2793-.00781.07031-.01172.11914-.01465.14746-.00195.02832-.00293.04883-.00293.0625a.74233.74233,0,0,0,.16406.5293.59476.59476,0,0,0,.45118.17089.90632.90632,0,0,0,.32226-.05273,1.3344,1.3344,0,0,0,.24219-.11523c.06738-.042.124-.08008.1709-.11524a.21907.21907,0,0,1,.126-.05273.1301.1301,0,0,1,.08789.02832.36293.36293,0,0,1,.06641.09082l.25879.59472a2.51428,2.51428,0,0,1-.77344.47266,2.39653,2.39653,0,0,1-.8789.17187,1.49416,1.49416,0,0,1-1.07032-.37109A1.452,1.452,0,0,1,168.3457,54.66309Z" style="fill:blue"/><path d="M174.77148,48.90918,173.918,56h-1.22559l.8545-7.09082Zm.46875-2.22656a.79266.79266,0,0,1-.07324.33984.96792.96792,0,0,1-.19629.28027.94472.94472,0,0,1-.27636.19239.76539.76539,0,0,1-.32129.07031.75236.75236,0,0,1-.31543-.07031.86651.86651,0,0,1-.26953-.19239.9933.9933,0,0,1-.18555-.28027.82056.82056,0,0,1-.07031-.33984.84764.84764,0,0,1,.07031-.34278.95284.95284,0,0,1,.46191-.47949.72717.72717,0,0,1,.31543-.07324.76539.76539,0,0,1,.32129.07031.92567.92567,0,0,1,.27735.19238.89914.89914,0,0,1,.19238.28711A.88482.88482,0,0,1,175.24023,46.68262Z" style="fill:blue"/><path d="M176.05273,56l1.25293-10.31055h1.22559L177.27734,56Z" style="fill:blue"/></g></svg>