<svg id="ph_-_2D" data-name="ph - 2D" xmlns="http://www.w3.org/2000/svg" viewBox="0 0 226 200"><rect id="back" width="226" height="200" style="fill:none"/><g id="tablet"><circle id="tablet_inner" data-name="tablet inner" cx="114" cy="144" r="3.5" style="fill:#fff"/><path id="tablet_outline" data-name="tablet outline" d="M114,141a3,3,0,1,1-3,3,3.00339,3.00339,0,0,1,3-3m0-1a4,4,0,1,0,4,4,4,4,0,0,0-4-4Z" style="fill:#333"/></g><g id="test_tube" data-name="test tube"><rect id="water_25_" data-name="water 25%" x="106.5" y="69.5" width="13" height="79.5" style="fill:#d1eef3;fill-opacity:0.25"/><path id="test_tube-2" data-name="test tube" d="M119,58.5v90H107v-90h12m1-1H106v92h14v-92Z" style="fill:#333"/><rect id="water_fill_line" data-name="water fill line" x="109" y="69" width="8" height="1" style="fill:#333"/></g><g style="isolation:isolate"><path d="M130.19531,63.40137l1.15625-9.499h.62305a.37129.37129,0,0,1,.41992.41993l-.11914,1.51171a5.83637,5.83637,0,0,1,.58008-.83691,4.3192,4.3192,0,0,1,.66211-.63965,2.83345,2.83345,0,0,1,.72461-.41015,2.14828,2.14828,0,0,1,.76953-.14356,1.673,1.673,0,0,1,1.40723.6582,3.125,3.125,0,0,1,.5039,1.92481,5.73182,5.73182,0,0,1-.11816,1.14844,5.95423,5.95423,0,0,1-.33985,1.0957,5.43357,5.43357,0,0,1-.53222.97266,4.18837,4.18837,0,0,1-.69336.78418,3.08221,3.08221,0,0,1-.8291.52148,2.38891,2.38891,0,0,1-.9375.18848,2.2,2.2,0,0,1-.959-.20606,1.95779,1.95779,0,0,1-.72851-.5918l-.37793,3.10157Zm4.34766-8.59668a1.31477,1.31477,0,0,0-.68262.21,2.80549,2.80549,0,0,0-.66894.58789,5.05359,5.05359,0,0,0-.59766.89648,7.39237,7.39237,0,0,0-.48047,1.127l-.22266,1.80566a1.47541,1.47541,0,0,0,.63965.543,1.9539,1.9539,0,0,0,.75977.15723,1.55959,1.55959,0,0,0,.68652-.1543,2.17936,2.17936,0,0,0,.58789-.416,3.02637,3.02637,0,0,0,.47559-.61621,4.31729,4.31729,0,0,0,.35351-.75586,5.14408,5.14408,0,0,0,.21973-.833,4.69583,4.69583,0,0,0,.07813-.85059,2.22185,2.22185,0,0,0-.30079-1.2666A.97189.97189,0,0,0,134.543,54.80469Z" style="fill:blue"/><path d="M145.46289,61h-1.32227l.56641-4.57812h-4.89258L139.25391,61h-1.32227l1.23828-10.03125h1.31641l-.55274,4.501h4.89258l.55274-4.501h1.3164Z" style="fill:blue"/><path d="M150.81055,59.66309c0-.02832.00195-.06446.0039-.1084.002-.04492.00782-.1084.01367-.19239.00782-.084.01758-.19433.03223-.3291.01367-.13574.03418-.3125.06348-.53222l.44043-3.54883h-.791a.21908.21908,0,0,1-.15039-.05274.207.207,0,0,1-.05957-.16406.83809.83809,0,0,1,.00684-.084q.00732-.063.01758-.14356c.00683-.05371.01464-.1084.0205-.165q.01173-.08349.01758-.16113l1.0918-.14648.52539-2.19141a.33736.33736,0,0,1,.10547-.1709.27542.27542,0,0,1,.18945-.0664h.65723l-.30762,2.44238h1.86133l-.10449.90332H152.5752l-.42676,3.48633c-.02344.1914-.041.34472-.05274.46191-.01172.11621-.02148.21-.02734.2793-.00781.07031-.01172.11914-.01465.14746a.56456.56456,0,0,0-.00293.0625.74233.74233,0,0,0,.16406.5293.59476.59476,0,0,0,.45118.17089.91394.91394,0,0,0,.32226-.05273,1.3344,1.3344,0,0,0,.24219-.11523c.06641-.042.124-.08008.1709-.11524a.21663.21663,0,0,1,.126-.05273.1301.1301,0,0,1,.08789.02832.36293.36293,0,0,1,.06641.09082l.25879.59472a2.50761,2.50761,0,0,1-.77441.47266,2.38774,2.38774,0,0,1-.87793.17187,1.49821,1.49821,0,0,1-1.07129-.37109A1.45956,1.45956,0,0,1,150.81055,59.66309Z" style="fill:blue"/><path d="M160.20508,61h-.64453a.37989.37989,0,0,1-.332-.126.52417.52417,0,0,1-.0879-.30761l.127-1.4209a5.97533,5.97533,0,0,1-.543.80566,3.73882,3.73882,0,0,1-.61523.61524,2.72947,2.72947,0,0,1-.6836.39257,2.02246,2.02246,0,0,1-.74219.13868,1.74152,1.74152,0,0,1-.76171-.16407,1.58972,1.58972,0,0,1-.58594-.48339,2.35,2.35,0,0,1-.37305-.78418,3.843,3.843,0,0,1-.13379-1.06739,4.83233,4.83233,0,0,1,.15723-1.22851,5.00724,5.00724,0,0,1,1.14453-2.10645,4.73009,4.73009,0,0,1,.90625-.77051,4.32657,4.32657,0,0,1,1.07519-.5039,4.024,4.024,0,0,1,1.20411-.17871,5.16806,5.16806,0,0,1,.88476.07519,3.6414,3.6414,0,0,1,.85156.25781Zm-3.05176-.93848a1.23111,1.23111,0,0,0,.67188-.21,2.55667,2.55667,0,0,0,.623-.582,5.0666,5.0666,0,0,0,.54981-.88574,8.05046,8.05046,0,0,0,.45117-1.126l.30078-2.39843a.48546.48546,0,0,0-.30469-.124h-.29687a2.45907,2.45907,0,0,0-.8125.13574,2.88681,2.88681,0,0,0-.73438.38086,3.25016,3.25016,0,0,0-.623.583,3.79819,3.79819,0,0,0-.48047.74316,4.18857,4.18857,0,0,0-.31055.86231,3.90562,3.90562,0,0,0-.1123.93848Q156.0752,60.062,157.15332,60.06152Z" style="fill:blue"/><path d="M162.11621,61l1.24512-10.31055h1.22558l-.61621,5.01172a6.078,6.078,0,0,1,.57422-.78027,3.86085,3.86085,0,0,1,.64453-.59863,2.9382,2.9382,0,0,1,.69922-.38184,2.10125,2.10125,0,0,1,.74219-.13672,1.673,1.673,0,0,1,1.40723.6582,3.125,3.125,0,0,1,.5039,1.92481,5.66264,5.66264,0,0,1-.11914,1.14844,5.878,5.878,0,0,1-.33887,1.0957,5.37615,5.37615,0,0,1-.5332.97266,4.14964,4.14964,0,0,1-.69238.78418,3.08221,3.08221,0,0,1-.8291.52148,2.39016,2.39016,0,0,1-.93848.18848,2.19734,2.19734,0,0,1-1.02539-.23731,2.01113,2.01113,0,0,1-.75293-.67969l-.08984.45508a.68112.68112,0,0,1-.14454.27344A.40135.40135,0,0,1,162.78125,61Zm4.0459-6.19531a1.29732,1.29732,0,0,0-.67969.21,2.85061,2.85061,0,0,0-.66113.581,5.28093,5.28093,0,0,0-.59863.88184,6.79828,6.79828,0,0,0-.48243,1.12012l-.22461,1.84179a1.50435,1.50435,0,0,0,.63672.53516,1.93267,1.93267,0,0,0,.75684.15723,1.56263,1.56263,0,0,0,.68652-.1543,2.17936,2.17936,0,0,0,.58789-.416,3.02637,3.02637,0,0,0,.47559-.61621,4.318,4.318,0,0,0,.35352-.75586,5.248,5.248,0,0,0,.21972-.833,4.78547,4.78547,0,0,0,.07813-.85059,2.22147,2.22147,0,0,0-.30176-1.2666A.97025.97025,0,0,0,166.16211,54.80469Z" style="fill:blue"/><path d="M169.5293,61l1.25293-10.31055h1.22558L170.75391,61Z" style="fill:blue"/><path d="M178.4043,55.42773a1.9158,1.9158,0,0,1-.18848.85059,1.76973,1.76973,0,0,1-.69238.7002,5.17692,5.17692,0,0,1-1.38672.543,15.30353,15.30353,0,0,1-2.26758.37012c-.00488.05176-.00781.10156-.00781.15137v.15039a2.18428,2.18428,0,0,0,.41015,1.43066,1.51337,1.51337,0,0,0,1.23536.49414,2.326,2.326,0,0,0,.59863-.07031,2.59562,2.59562,0,0,0,.46875-.1709,2.10294,2.10294,0,0,0,.36426-.22461c.10449-.08105.20214-.15625.29-.22363.08886-.06738.16992-.125.24511-.17187a.41978.41978,0,0,1,.22364-.07032.30646.30646,0,0,1,.23144.11914l.30762.38575a6.46406,6.46406,0,0,1-.69531.63281,4.05285,4.05285,0,0,1-.69727.4375,3.107,3.107,0,0,1-.74609.25586,4.10362,4.10362,0,0,1-.83594.08008,2.78633,2.78633,0,0,1-1.0918-.20313,2.24512,2.24512,0,0,1-.81933-.57715,2.59274,2.59274,0,0,1-.51758-.90625,3.6396,3.6396,0,0,1-.18262-1.19043,5.26654,5.26654,0,0,1,.11523-1.08789,5.19979,5.19979,0,0,1,.33594-1.0332,4.75855,4.75855,0,0,1,.53906-.90918,3.63182,3.63182,0,0,1,.72852-.72461,3.40849,3.40849,0,0,1,.90332-.47949,3.13867,3.13867,0,0,1,1.06055-.17578,2.54824,2.54824,0,0,1,.93066.15429,1.96769,1.96769,0,0,1,.64453.39258,1.55179,1.55179,0,0,1,.374.52442A1.40444,1.40444,0,0,1,178.4043,55.42773Zm-2.1416-.7207a1.81883,1.81883,0,0,0-.81153.18164,2.15986,2.15986,0,0,0-.6582.501,3.03029,3.03029,0,0,0-.49024.749,4.4697,4.4697,0,0,0-.31445.92774,13.60462,13.60462,0,0,0,1.72852-.30469,4.31274,4.31274,0,0,0,1.001-.3711,1.07819,1.07819,0,0,0,.46192-.43066,1.10308,1.10308,0,0,0,.1123-.4834.68974.68974,0,0,0-.05566-.26172.70118.70118,0,0,0-.17969-.249.96786.96786,0,0,0-.31836-.18555A1.36392,1.36392,0,0,0,176.2627,54.707Z" style="fill:blue"/><path d="M179.80469,59.66309c0-.02832.00195-.06446.0039-.1084.002-.04492.00684-.1084.01368-.19239.00781-.084.01757-.19433.03125-.3291.01367-.13574.03515-.3125.06347-.53222l.44043-3.54883h-.791a.219.219,0,0,1-.15039-.05274.21.21,0,0,1-.0586-.16406c0-.01465.002-.042.00586-.084q.00879-.063.01758-.14356c.00781-.05371.01465-.1084.02148-.165q.01026-.08349.01758-.16113l1.0918-.14648.52539-2.19141a.32474.32474,0,0,1,.10547-.1709.27291.27291,0,0,1,.18847-.0664h.65723l-.30762,2.44238H183.543l-.10547.90332h-1.86914l-.42578,3.48633c-.02344.1914-.041.34472-.05274.46191-.01172.11621-.02148.21-.02832.2793-.00683.07031-.01172.11914-.01464.14746-.002.02832-.00293.04883-.00293.0625a.738.738,0,0,0,.165.5293.59476.59476,0,0,0,.45118.17089.91394.91394,0,0,0,.32226-.05273,1.323,1.323,0,0,0,.24121-.11523c.06739-.042.124-.08008.1709-.11524a.21909.21909,0,0,1,.12695-.05273.12574.12574,0,0,1,.08692.02832.36269.36269,0,0,1,.0664.09082l.25879.59472a2.51423,2.51423,0,0,1-.77343.47266,2.3889,2.3889,0,0,1-.87891.17187,1.49573,1.49573,0,0,1-1.07031-.37109A1.45575,1.45575,0,0,1,179.80469,59.66309Z" style="fill:blue"/></g><g style="isolation:isolate"><path d="M138.25977,44H137.252a.39664.39664,0,0,1-.27343-.08789.44105.44105,0,0,1-.13282-.22754l-.5459-2.44922h-4.08789l-1.14746,2.44922a.61609.61609,0,0,1-.19336.2207.47561.47561,0,0,1-.29.09473h-1.02246l4.92188-10.03125h1.32226Zm-5.60743-3.7168h3.4375l-.92382-4.15136c-.02735-.1211-.0586-.25879-.09082-.41309-.03223-.15332-.06153-.31934-.084-.49707q-.09814.2666-.20019.501-.10108.23438-.19141.416Z" style="fill:blue"/><path d="M143.95117,44a.37638.37638,0,0,1-.332-.126.52423.52423,0,0,1-.08789-.30761l.13281-1.47754a5.77755,5.77755,0,0,1-.58105.82617,4.26785,4.26785,0,0,1-.66113.63379,2.90193,2.90193,0,0,1-.72071.40527,2.11252,2.11252,0,0,1-.75976.14356,1.66207,1.66207,0,0,1-1.41016-.66114,3.1427,3.1427,0,0,1-.501-1.92187,5.66021,5.66021,0,0,1,.11914-1.14746,5.98757,5.98757,0,0,1,.33887-1.09961,5.434,5.434,0,0,1,.53223-.97656,4.10087,4.10087,0,0,1,.69336-.78028,3.126,3.126,0,0,1,.8291-.51758,2.39,2.39,0,0,1,.9375-.18945,2.20643,2.20643,0,0,1,.94922.20313,2.0324,2.0324,0,0,1,.73144.58105l.4834-3.89844h1.22461L144.5957,44Zm-2.541-.90332a1.29084,1.29084,0,0,0,.67578-.20606,2.8372,2.8372,0,0,0,.6582-.57421,4.95913,4.95913,0,0,0,.59473-.875,6.96372,6.96372,0,0,0,.47949-1.10938l.23047-1.876a1.48859,1.48859,0,0,0-.63672-.52539,1.94308,1.94308,0,0,0-.749-.15332,1.63207,1.63207,0,0,0-.99707.32911,2.85992,2.85992,0,0,0-.75586.8496,4.46131,4.46131,0,0,0-.48047,1.166,5.03708,5.03708,0,0,0-.168,1.2666,2.2381,2.2381,0,0,0,.30078,1.27051A.97115.97115,0,0,0,141.41016,43.09668Z" style="fill:blue"/><path d="M151.31445,44a.37873.37873,0,0,1-.332-.126.52423.52423,0,0,1-.08789-.30761l.13281-1.47754a5.77326,5.77326,0,0,1-.58007.82617,4.27279,4.27279,0,0,1-.66211.63379,2.88482,2.88482,0,0,1-.72071.40527,2.10864,2.10864,0,0,1-.75976.14356,1.66451,1.66451,0,0,1-1.41016-.66114,3.14289,3.14289,0,0,1-.5-1.92187,5.59122,5.59122,0,0,1,.11914-1.14746,5.84023,5.84023,0,0,1,.33887-1.09961,5.434,5.434,0,0,1,.53223-.97656,4.068,4.068,0,0,1,.69335-.78028,3.1368,3.1368,0,0,1,.82813-.51758,2.39124,2.39124,0,0,1,.93848-.18945,2.202,2.202,0,0,1,.94824.20313,2.044,2.044,0,0,1,.73242.58105l.48242-3.89844h1.22461L151.959,44Zm-2.541-.90332a1.29084,1.29084,0,0,0,.67578-.20606,2.8372,2.8372,0,0,0,.6582-.57421,4.96064,4.96064,0,0,0,.5957-.875,6.96122,6.96122,0,0,0,.47852-1.10938l.23145-1.876a1.491,1.491,0,0,0-.6377-.52539,1.93472,1.93472,0,0,0-.748-.15332,1.63488,1.63488,0,0,0-.998.32911,2.85992,2.85992,0,0,0-.75586.8496,4.49344,4.49344,0,0,0-.47949,1.166,4.9927,4.9927,0,0,0-.168,1.2666,2.2381,2.2381,0,0,0,.30078,1.27051A.96834.96834,0,0,0,148.77344,43.09668Z" style="fill:blue"/><path d="M159.11328,44.09766a2.7664,2.7664,0,0,1-1.06445-.19922,2.33256,2.33256,0,0,1-.833-.57715,2.67334,2.67334,0,0,1-.5459-.92383,3.67144,3.67144,0,0,1-.19629-1.24609,5.02373,5.02373,0,0,1,.28028-1.6875,4.55874,4.55874,0,0,1,.7666-1.38575,3.64894,3.64894,0,0,1,1.14746-.93847,3.06622,3.06622,0,0,1,1.43164-.34277,2.7664,2.7664,0,0,1,1.06445.19921,2.34733,2.34733,0,0,1,.833.57813,2.65548,2.65548,0,0,1,.5459.92773,3.67665,3.67665,0,0,1,.19531,1.24219,4.99836,4.99836,0,0,1-.2793,1.67969,4.60068,4.60068,0,0,1-.7666,1.38574,3.65643,3.65643,0,0,1-1.15136.94238A3.05242,3.05242,0,0,1,159.11328,44.09766Zm.11133-.97266a1.646,1.646,0,0,0,.93164-.28027,2.44707,2.44707,0,0,0,.71289-.74512,3.809,3.809,0,0,0,.45508-1.07422,4.96523,4.96523,0,0,0,.16211-1.27441,2.38861,2.38861,0,0,0-.38477-1.47657,1.32466,1.32466,0,0,0-1.11328-.49707,1.65425,1.65425,0,0,0-.93555.27637,2.44,2.44,0,0,0-.71.74219,3.813,3.813,0,0,0-.45507,1.07422,4.96256,4.96256,0,0,0-.16114,1.27343,2.41053,2.41053,0,0,0,.38184,1.48047A1.31676,1.31676,0,0,0,159.22461,43.125Z" style="fill:blue"/><path d="M163.62109,44l.84668-7.09766h.62207a.37121.37121,0,0,1,.4209.41993l-.10449,1.37207a4.36815,4.36815,0,0,1,1.27734-1.41407,2.60951,2.60951,0,0,1,1.47266-.47656,1.50158,1.50158,0,0,1,1.22852.53223,2.39351,2.39351,0,0,1,.4375,1.55371c0,.09375-.002.18945-.00684.28711-.00488.09863-.01367.20117-.02832.30859L169.25586,44h-1.24609l.53125-4.51465c.00976-.09375.01757-.18359.02539-.26953.00683-.08691.00976-.16894.00976-.249a1.38573,1.38573,0,0,0-.21289-.85059.79412.79412,0,0,0-.66894-.27637,1.45531,1.45531,0,0,0-.68262.18262,2.66315,2.66315,0,0,0-.668.51367,4.19419,4.19419,0,0,0-.59863.80567,5.65757,5.65757,0,0,0-.47266,1.05273L164.86719,44Z" style="fill:blue"/><path d="M176.6543,38.42773a1.90317,1.90317,0,0,1-.18946.85059,1.7632,1.7632,0,0,1-.69238.7002,5.1687,5.1687,0,0,1-1.38574.543,15.29734,15.29734,0,0,1-2.26856.37012c-.00488.05176-.00683.10156-.00683.15137v.15039a2.18428,2.18428,0,0,0,.41015,1.43066,1.51,1.51,0,0,0,1.23438.49414,2.32851,2.32851,0,0,0,.59961-.07031,2.651,2.651,0,0,0,.46875-.1709,2.13,2.13,0,0,0,.36328-.22461c.10547-.08105.20215-.15625.291-.22363.08789-.06738.16992-.125.24414-.17187a.42285.42285,0,0,1,.22461-.07032.30463.30463,0,0,1,.23046.11914l.3086.38575a6.56169,6.56169,0,0,1-.69629.63281,4.04528,4.04528,0,0,1-.69629.4375,3.107,3.107,0,0,1-.74609.25586,4.11043,4.11043,0,0,1-.83594.08008,2.7829,2.7829,0,0,1-1.0918-.20313,2.257,2.257,0,0,1-.82031-.57715,2.60807,2.60807,0,0,1-.51758-.90625,3.66632,3.66632,0,0,1-.18164-1.19043,5.26654,5.26654,0,0,1,.11523-1.08789,5.13706,5.13706,0,0,1,.33594-1.0332,4.65916,4.65916,0,0,1,.53906-.90918,3.63182,3.63182,0,0,1,.72852-.72461,3.40263,3.40263,0,0,1,.90234-.47949,3.13871,3.13871,0,0,1,1.06055-.17578,2.55,2.55,0,0,1,.93164.15429,1.97307,1.97307,0,0,1,.64356.39258,1.55162,1.55162,0,0,1,.374.52442A1.38921,1.38921,0,0,1,176.6543,38.42773Zm-2.14258-.7207a1.82179,1.82179,0,0,0-.81152.18164,2.15588,2.15588,0,0,0-.65723.501,3.03029,3.03029,0,0,0-.49024.749,4.47122,4.47122,0,0,0-.31543.92774,13.65677,13.65677,0,0,0,1.7295-.30469,4.28532,4.28532,0,0,0,1-.3711,1.0815,1.0815,0,0,0,.46289-.43066,1.102,1.102,0,0,0,.11133-.4834.68976.68976,0,0,0-.05567-.26172.698.698,0,0,0-.17871-.249.97814.97814,0,0,0-.31836-.18555A1.36591,1.36591,0,0,0,174.51172,37.707Z" style="fill:blue"/></g><path id="Line-2" d="M126.34543,36.43931l.31581.07588.4848.12233-.24465.96961-.4848-.12232c-6.16011-1.55432-10.88442,1.94564-12.71813,8.00822l3.82871-.04211L113.12664,54.5l-4.59892-8.94986,4.12539-.04572C114.52987,38.89633,119.65533,34.91249,126.34543,36.43931Z" style="fill:blue"/></svg>