<svg id="ph_-_2F" data-name="ph - 2F" xmlns="http://www.w3.org/2000/svg" viewBox="0 0 226 200"><rect id="back" width="226" height="200" style="fill:none"/><g id="tablet"><circle id="tablet_inner" data-name="tablet inner" cx="114" cy="144" r="3.5" style="fill:#fff"/><path id="tablet_outline" data-name="tablet outline" d="M114,141a3,3,0,1,1-3,3,3.00339,3.00339,0,0,1,3-3m0-1a4,4,0,1,0,4,4,4,4,0,0,0-4-4Z" style="fill:#333"/></g><g id="test_tube" data-name="test tube"><rect id="water_25_" data-name="water 25%" x="106.5" y="69.5" width="13" height="79.5" style="fill:#d1eef3;fill-opacity:0.25"/><path id="test_tube-2" data-name="test tube" d="M119,58.5v90H107v-90h12m1-1H106v92h14v-92Z" style="fill:#333"/><rect id="water_fill_line" data-name="water fill line" x="109" y="69" width="8" height="1" style="fill:#333"/></g><g id="cap"><rect id="cap_fill" data-name="cap fill" x="104.5" y="46.5" width="17" height="19" style="fill:#fff;fill-opacity:0.9"/><path id="cap_outline" data-name="cap outline" d="M120,46H104V66h18V46Zm1,19H105V47h1V57h1V47h1V57h1V47h2V57h1V47h2V57h1V47h2V57h1V47h1V57h1V47h1Z" style="fill:#333;fill-rule:evenodd"/></g><g style="isolation:isolate"><path d="M134.75293,50.98535a3.954,3.954,0,0,0,.81934-.07715,3.7437,3.7437,0,0,0,.62988-.18945,2.35447,2.35447,0,0,0,.46582-.248q.19189-.13623.33594-.249c.0957-.07422.17578-.1377.24121-.18848a.29646.29646,0,0,1,.1748-.07715.20564.20564,0,0,1,.10547.02442.27758.27758,0,0,1,.07031.05957l.4541.56738a4.51731,4.51731,0,0,1-3.51367,1.50488,3.87441,3.87441,0,0,1-1.61035-.32226,3.40823,3.40823,0,0,1-1.207-.89942,4.01955,4.01955,0,0,1-.75586-1.376,5.56869,5.56869,0,0,1-.26269-1.75684,6.80957,6.80957,0,0,1,.40527-2.39355,5.72547,5.72547,0,0,1,1.11719-1.86621,4.97707,4.97707,0,0,1,3.73437-1.64063,4.72671,4.72671,0,0,1,.96582.09082,3.34727,3.34727,0,0,1,.791.26563,3.16427,3.16427,0,0,1,.64746.41992,4.55189,4.55189,0,0,1,.543.5459l-.44825.5459a.54251.54251,0,0,1-.126.11621.31775.31775,0,0,1-.17578.04492.39139.39139,0,0,1-.26563-.13965,2.68939,2.68939,0,0,0-.38086-.30469,2.70284,2.70284,0,0,0-1.61328-.44433,3.58934,3.58934,0,0,0-1.51953.32519,3.54213,3.54213,0,0,0-1.22461.93164,4.489,4.489,0,0,0-.81641,1.46582,5.92566,5.92566,0,0,0-.29687,1.93262,4.4252,4.4252,0,0,0,.20312,1.39258,3.11381,3.11381,0,0,0,.56348,1.04687,2.46275,2.46275,0,0,0,.85742.66114A2.55366,2.55366,0,0,0,134.75293,50.98535Z" style="fill:blue"/><path d="M144.34961,52h-.64453a.37989.37989,0,0,1-.332-.126.52416.52416,0,0,1-.08789-.30761l.127-1.4209a5.97533,5.97533,0,0,1-.543.80566,3.73882,3.73882,0,0,1-.61523.61524,2.72947,2.72947,0,0,1-.6836.39257,2.02246,2.02246,0,0,1-.74219.13868,1.74152,1.74152,0,0,1-.76171-.16407,1.58972,1.58972,0,0,1-.58594-.48339,2.35,2.35,0,0,1-.37305-.78418,3.843,3.843,0,0,1-.13379-1.06739,4.83233,4.83233,0,0,1,.15723-1.22851,5.00724,5.00724,0,0,1,1.14453-2.10645,4.73039,4.73039,0,0,1,.90625-.77051,4.32647,4.32647,0,0,1,1.0752-.5039,4.02389,4.02389,0,0,1,1.2041-.17871,5.16806,5.16806,0,0,1,.88476.07519,3.64147,3.64147,0,0,1,.85157.25781Zm-3.05176-.93848a1.23111,1.23111,0,0,0,.67188-.21,2.55667,2.55667,0,0,0,.623-.582,5.0666,5.0666,0,0,0,.54981-.88574,8.05046,8.05046,0,0,0,.45117-1.126l.30078-2.39843a.48546.48546,0,0,0-.30469-.124H143.293a2.45912,2.45912,0,0,0-.8125.13574,2.88681,2.88681,0,0,0-.73438.38086,3.25016,3.25016,0,0,0-.623.583,3.79819,3.79819,0,0,0-.48047.74316,4.18915,4.18915,0,0,0-.31055.86231,3.90612,3.90612,0,0,0-.1123.93848Q140.21973,51.062,141.29785,51.06152Z" style="fill:blue"/><path d="M145.90332,54.40137l1.15527-9.499h.623a.37129.37129,0,0,1,.41992.41993l-.11914,1.51171a5.84133,5.84133,0,0,1,.58106-.83691,4.27033,4.27033,0,0,1,.66113-.63965,2.85,2.85,0,0,1,.72461-.41015,2.15349,2.15349,0,0,1,.77051-.14356,1.67293,1.67293,0,0,1,1.40722.6582,3.1249,3.1249,0,0,1,.50391,1.92481,5.66264,5.66264,0,0,1-.11914,1.14844,5.955,5.955,0,0,1-.33984,1.0957,5.4291,5.4291,0,0,1-.53126.97266,4.25872,4.25872,0,0,1-.69335.78418,3.08719,3.08719,0,0,1-.83008.52148,2.38891,2.38891,0,0,1-.9375.18848,2.20306,2.20306,0,0,1-.959-.20606,1.97334,1.97334,0,0,1-.72851-.5918l-.377,3.10157ZM150.25,45.80469a1.31156,1.31156,0,0,0-.68164.21,2.80553,2.80553,0,0,0-.669.58789,5.11007,5.11007,0,0,0-.59863.89648,7.39069,7.39069,0,0,0-.47949,1.127l-.22363,1.80566a1.47764,1.47764,0,0,0,.64062.543,1.95029,1.95029,0,0,0,.75977.15723,1.55845,1.55845,0,0,0,.68554-.1543,2.16428,2.16428,0,0,0,.58789-.416,3.02987,3.02987,0,0,0,.47657-.61621,4.31729,4.31729,0,0,0,.35351-.75586,5.24692,5.24692,0,0,0,.21973-.833,4.78325,4.78325,0,0,0,.07715-.85059,2.21413,2.21413,0,0,0-.30078-1.2666A.97079.97079,0,0,0,150.25,45.80469Z" style="fill:blue"/><path d="M161.37305,52h-.64453a.37993.37993,0,0,1-.332-.126.52423.52423,0,0,1-.08789-.30761l.127-1.4209a5.97533,5.97533,0,0,1-.543.80566,3.73848,3.73848,0,0,1-.61524.61524,2.72924,2.72924,0,0,1-.68359.39257,2.02246,2.02246,0,0,1-.74219.13868,1.7416,1.7416,0,0,1-.76172-.16407,1.58977,1.58977,0,0,1-.58593-.48339,2.35,2.35,0,0,1-.373-.78418,3.843,3.843,0,0,1-.13379-1.06739,4.83188,4.83188,0,0,1,.15723-1.22851,5.00724,5.00724,0,0,1,1.14453-2.10645,4.73009,4.73009,0,0,1,.90625-.77051,4.32657,4.32657,0,0,1,1.07519-.5039,4.024,4.024,0,0,1,1.20411-.17871,5.16806,5.16806,0,0,1,.88476.07519,3.6414,3.6414,0,0,1,.85156.25781Zm-3.05176-.93848a1.23108,1.23108,0,0,0,.67187-.21,2.55652,2.55652,0,0,0,.62305-.582,5.0666,5.0666,0,0,0,.54981-.88574,8.05046,8.05046,0,0,0,.45117-1.126l.30078-2.39843a.48546.48546,0,0,0-.30469-.124h-.29687a2.459,2.459,0,0,0-.8125.13574,2.88681,2.88681,0,0,0-.73438.38086,3.2505,3.2505,0,0,0-.62305.583,3.79769,3.79769,0,0,0-.48046.74316,4.18857,4.18857,0,0,0-.31055.86231,3.90563,3.90563,0,0,0-.11231.93848Q157.24316,51.062,158.32129,51.06152Z" style="fill:blue"/><path d="M163.22852,52l.84668-7.09766h.62207a.3712.3712,0,0,1,.42089.41993l-.10449,1.37207a4.36817,4.36817,0,0,1,1.27735-1.41407,2.60946,2.60946,0,0,1,1.47265-.47656,1.50157,1.50157,0,0,1,1.22852.53223,2.39351,2.39351,0,0,1,.4375,1.55371c0,.09375-.002.18945-.00684.28711-.00488.09863-.01367.20117-.02832.30859L168.86328,52h-1.24609l.53125-4.51465c.00976-.09375.01758-.18359.02539-.26953.00683-.08691.00976-.16894.00976-.249a1.38573,1.38573,0,0,0-.21289-.85059.79412.79412,0,0,0-.66894-.27637,1.45534,1.45534,0,0,0-.68262.18262,2.66333,2.66333,0,0,0-.668.51367,4.19419,4.19419,0,0,0-.59863.80567,5.65757,5.65757,0,0,0-.47266,1.05273L164.47461,52Z" style="fill:blue"/><path d="M175.38672,52a.37637.37637,0,0,1-.332-.126.52416.52416,0,0,1-.08789-.30761l.13281-1.47754a5.77679,5.77679,0,0,1-.58106.82617,4.2674,4.2674,0,0,1-.66113.63379,2.90206,2.90206,0,0,1-.7207.40527,2.11257,2.11257,0,0,1-.75977.14356,1.66205,1.66205,0,0,1-1.41015-.66114,3.14263,3.14263,0,0,1-.501-1.92187,5.66021,5.66021,0,0,1,.11914-1.14746,5.986,5.986,0,0,1,.33887-1.09961,5.43461,5.43461,0,0,1,.53222-.97656,4.10121,4.10121,0,0,1,.69336-.78028,3.12624,3.12624,0,0,1,.82911-.51758,2.38993,2.38993,0,0,1,.9375-.18945,2.20639,2.20639,0,0,1,.94921.20313,2.03251,2.03251,0,0,1,.73145.58105l.4834-3.89844h1.22461L176.03125,52Zm-2.541-.90332a1.29084,1.29084,0,0,0,.67578-.20606,2.837,2.837,0,0,0,.65821-.57421,4.95911,4.95911,0,0,0,.59472-.875,6.96465,6.96465,0,0,0,.4795-1.10938l.23047-1.876a1.48865,1.48865,0,0,0-.63672-.52539,1.9431,1.9431,0,0,0-.749-.15332,1.63212,1.63212,0,0,0-.99707.32911,2.86006,2.86006,0,0,0-.75586.8496,4.462,4.462,0,0,0-.48047,1.166,5.03751,5.03751,0,0,0-.168,1.2666,2.2381,2.2381,0,0,0,.30078,1.27051A.97113.97113,0,0,0,172.8457,51.09668Z" style="fill:blue"/><path d="M180.47461,51.23047a.898.898,0,0,1,.06641-.34375.87305.87305,0,0,1,.18554-.2793.90865.90865,0,0,1,.27735-.18945.84147.84147,0,0,1,.3457-.07031.82385.82385,0,0,1,.33984.07031.8955.8955,0,0,1,.46582.46875.8648.8648,0,0,1,.06934.34375.85043.85043,0,0,1-.06934.3457.92458.92458,0,0,1-.18847.27637.869.869,0,0,1-.61719.25293.87311.87311,0,0,1-.3457-.06738.849.849,0,0,1-.27735-.18555.85881.85881,0,0,1-.25195-.62207Zm3.59863,0a.898.898,0,0,1,.06641-.34375.84187.84187,0,0,1,.18555-.2793.89254.89254,0,0,1,.27636-.18945.84284.84284,0,0,1,.34668-.07031.8193.8193,0,0,1,.33887.07031.90848.90848,0,0,1,.27734.18945.88079.88079,0,0,1,.18848.2793.849.849,0,0,1,.07031.34375.83508.83508,0,0,1-.07031.3457.89.89,0,0,1-.18848.27637.86891.86891,0,0,1-.61621.25293.87454.87454,0,0,1-.34668-.06738.83473.83473,0,0,1-.27636-.18555.84962.84962,0,0,1-.18555-.27637A.88307.88307,0,0,1,184.07324,51.23047Zm3.60449,0a.89821.89821,0,0,1,.06641-.34375.88175.88175,0,0,1,.18262-.2793.86871.86871,0,0,1,.96191-.18945.8877.8877,0,0,1,.28028.18945.89989.89989,0,0,1,.18945.2793.86479.86479,0,0,1,.06933.34375.85043.85043,0,0,1-.06933.3457.90982.90982,0,0,1-.18945.27637.83166.83166,0,0,1-.28028.18555.90556.90556,0,0,1-.68555,0,.79672.79672,0,0,1-.27636-.18555.87248.87248,0,0,1-.249-.62207Z" style="fill:blue"/></g></svg>