<svg id="ph_7_-_3B" data-name="ph 7 - 3B" xmlns="http://www.w3.org/2000/svg" viewBox="0 0 226 200"><rect id="back" width="226" height="200" style="fill:none"/><g id="test_tube" data-name="test tube"><rect id="water_25_" data-name="water 25%" x="106.5" y="30.5" width="13" height="79.5" style="fill:#cad04c"/><path id="test_tube-2" data-name="test tube" d="M119,19.5v90H107v-90h12m1-1H106v92h14v-92Z" style="fill:#333"/><rect id="water_fill_line" data-name="water fill line" x="109" y="30" width="8" height="1" style="fill:#333"/></g><g id="cap"><rect id="cap_fill" data-name="cap fill" x="104.5" y="7.5" width="17" height="19" style="fill:#fff;fill-opacity:0.9"/><path id="cap_outline" data-name="cap outline" d="M120,7H104V27h18V7Zm1,19H105V8h1V18h1V8h1V18h1V8h2V18h1V8h2V18h1V8h2V18h1V8h1V18h1V8h1Z" style="fill:#333;fill-rule:evenodd"/></g><g style="isolation:isolate"><path d="M130.49707,81l.85449-7.09766h.62305a.37129.37129,0,0,1,.41992.41993l-.09863,1.2666a4.40018,4.40018,0,0,1,1.14746-1.333,2.205,2.205,0,0,1,1.31641-.45215,1.20726,1.20726,0,0,1,1.06445.49414A2.4556,2.4556,0,0,1,136.167,75.708a4.15655,4.15655,0,0,1,1.19336-1.43848,2.37541,2.37541,0,0,1,1.38965-.46582,1.37714,1.37714,0,0,1,1.17188.51172,2.38472,2.38472,0,0,1,.38867,1.46973c0,.10742-.00391.21972-.01367.33593s-.02149.23829-.03516.36426L139.73047,81h-1.22559l.53223-4.51465a5.30515,5.30515,0,0,0,.042-.623,1.35953,1.35953,0,0,0-.1748-.77343.66844.66844,0,0,0-.58789-.249,1.34406,1.34406,0,0,0-.60254.15039,2.18685,2.18685,0,0,0-.58106.44141,3.49754,3.49754,0,0,0-.52148.7207,5.84447,5.84447,0,0,0-.42969.99024L135.72656,81h-1.23242l.53906-4.51465q.02052-.189.03516-.35742c.00879-.11231.01367-.2168.01367-.31445a1.30932,1.30932,0,0,0-.16406-.73536.65325.65325,0,0,0-.57813-.23828,1.356,1.356,0,0,0-.64746.168,2.1296,2.1296,0,0,0-.58789.48633,3.96186,3.96186,0,0,0-.51465.77734,7.63656,7.63656,0,0,0-.43359,1.03223L131.71484,81Z" style="fill:blue"/><path d="M146.68066,81h-.64355a.3796.3796,0,0,1-.333-.126.53087.53087,0,0,1-.08691-.30761l.125-1.4209a5.88226,5.88226,0,0,1-.542.80566,3.78121,3.78121,0,0,1-.61622.61524,2.7183,2.7183,0,0,1-.68164.39257,2.03,2.03,0,0,1-.74218.13868,1.74718,1.74718,0,0,1-.76368-.16407,1.57617,1.57617,0,0,1-.584-.48339,2.35219,2.35219,0,0,1-.375-.78418,3.91953,3.91953,0,0,1-.13281-1.06739,4.7896,4.7896,0,0,1,.1582-1.22851,5.00032,5.00032,0,0,1,.44727-1.12989,4.93462,4.93462,0,0,1,.69726-.97656,4.64311,4.64311,0,0,1,.90625-.77051,4.30407,4.30407,0,0,1,1.07422-.5039,4.02389,4.02389,0,0,1,1.2041-.17871,5.171,5.171,0,0,1,.88574.07519,3.59888,3.59888,0,0,1,.84961.25781Zm-3.05175-.93848a1.22867,1.22867,0,0,0,.67187-.21,2.5742,2.5742,0,0,0,.62305-.582,5.06593,5.06593,0,0,0,.54883-.88574,7.93283,7.93283,0,0,0,.45214-1.126l.30079-2.39843a.48516.48516,0,0,0-.30371-.124h-.29883a2.45763,2.45763,0,0,0-.81153.13574,2.909,2.909,0,0,0-.73535.38086,3.30871,3.30871,0,0,0-.623.583,3.8354,3.8354,0,0,0-.47851.74316,4.251,4.251,0,0,0-.3125.86231,3.955,3.955,0,0,0-.11133.93848Q142.55078,80.062,143.62891,80.06152Z" style="fill:blue"/><path d="M149.15137,79.66309c0-.02832.001-.06446.0039-.1084.002-.04492.00684-.1084.01368-.19239s.01757-.19433.03222-.3291c.01367-.13574.03418-.3125.0625-.53222l.44141-3.54883h-.791a.21738.21738,0,0,1-.15039-.05274.20414.20414,0,0,1-.06055-.16406c0-.01465.00293-.042.00782-.084q.00585-.063.01758-.14356c.00586-.05371.01367-.1084.0205-.165q.01026-.08349.01758-.16113l1.0918-.14648.52539-2.19141a.33582.33582,0,0,1,.10449-.1709.27885.27885,0,0,1,.18945-.0664h.65821l-.3086,2.44238h1.86231l-.10449.90332H150.916l-.42774,3.48633c-.02344.1914-.041.34472-.05273.46191-.01172.11621-.02051.21-.02735.2793-.00781.07031-.01172.11914-.01367.14746-.00293.02832-.00391.04883-.00391.0625a.74228.74228,0,0,0,.16407.5293.59472.59472,0,0,0,.45117.17089.90632.90632,0,0,0,.32226-.05273,1.33408,1.33408,0,0,0,.24219-.11523c.06739-.042.125-.08008.17188-.11524a.21423.21423,0,0,1,.125-.05273.13012.13012,0,0,1,.08789.02832.34018.34018,0,0,1,.0664.09082l.25977.59472a2.53061,2.53061,0,0,1-.77441.47266,2.39544,2.39544,0,0,1-.87793.17187,1.495,1.495,0,0,1-1.07129-.37109A1.45579,1.45579,0,0,1,149.15137,79.66309Z" style="fill:blue"/><path d="M157.877,80.39062a3.24631,3.24631,0,0,1-.65429.42383,2.64358,2.64358,0,0,1-.68262.22071,4.335,4.335,0,0,1-.75977.0625,2.64823,2.64823,0,0,1-1.08886-.21,2.16159,2.16159,0,0,1-.791-.59082,2.61618,2.61618,0,0,1-.48242-.917,4.01455,4.01455,0,0,1-.16406-1.17968,5.08761,5.08761,0,0,1,.26953-1.65235,4.62017,4.62017,0,0,1,.75195-1.39941,3.76571,3.76571,0,0,1,1.14844-.97364,3.00132,3.00132,0,0,1,1.46289-.36425,2.5144,2.5144,0,0,1,1.17578.249,2.46631,2.46631,0,0,1,.833.72461l-.3916.46875a.33855.33855,0,0,1-.10547.09082.26884.26884,0,0,1-.332-.05273,2.67528,2.67528,0,0,0-.2461-.19532,1.67006,1.67006,0,0,0-.37695-.19629,1.64758,1.64758,0,0,0-.585-.08789,1.72884,1.72884,0,0,0-.91309.2627,2.54458,2.54458,0,0,0-.75293.71777,3.67036,3.67036,0,0,0-.50683,1.07813A4.65132,4.65132,0,0,0,154.5,78.207a2.939,2.939,0,0,0,.09766.78711,1.66982,1.66982,0,0,0,.29394.60254,1.34176,1.34176,0,0,0,.47949.38477,1.51262,1.51262,0,0,0,.66211.13671,2.14814,2.14814,0,0,0,.5586-.0664,2.20473,2.20473,0,0,0,.43457-.165,1.9918,1.9918,0,0,0,.333-.21289c.0957-.07715.18164-.14844.25878-.21387s.14746-.12012.21-.16406a.327.327,0,0,1,.19239-.06738.29721.29721,0,0,1,.2373.11914l.3086.37793A6.48507,6.48507,0,0,1,157.877,80.39062Z" style="fill:blue"/><path d="M159.44922,81l1.24512-10.31055h1.24609l-.58105,4.78711a4.20151,4.20151,0,0,1,1.22851-1.249,2.57435,2.57435,0,0,1,1.38281-.42383,1.50576,1.50576,0,0,1,1.23828.53223,2.3915,2.3915,0,0,1,.43457,1.54687c0,.09375-.00293.19043-.00683.291-.00488.09961-.01367.2041-.02832.31152L165.07617,81h-1.24609l.53222-4.51465c.00879-.09375.01758-.18359.02442-.26953.00781-.08691.01074-.16894.01074-.249a1.399,1.399,0,0,0-.21387-.85352.7958.7958,0,0,0-.67578-.28027,1.406,1.406,0,0,0-.64648.17187,2.63039,2.63039,0,0,0-.64844.48633,4.16174,4.16174,0,0,0-.58789.75977,5.67721,5.67721,0,0,0-.47559.99023L160.69434,81Z" style="fill:blue"/><path d="M172.48242,75.42773a1.9033,1.9033,0,0,1-.18945.85059,1.76327,1.76327,0,0,1-.69238.7002,5.16878,5.16878,0,0,1-1.38575.543,15.2974,15.2974,0,0,1-2.26855.37012c-.00488.05176-.00684.10156-.00684.15137v.15039a2.18422,2.18422,0,0,0,.41016,1.43066,1.51,1.51,0,0,0,1.23437.49414,2.32851,2.32851,0,0,0,.59961-.07031,2.651,2.651,0,0,0,.46875-.1709,2.13,2.13,0,0,0,.36328-.22461c.10547-.081.20215-.15625.291-.22363.08789-.06738.16992-.125.24414-.17187a.42287.42287,0,0,1,.22461-.07032.30465.30465,0,0,1,.23047.11914l.30859.38575a6.56071,6.56071,0,0,1-.69629.63281,4.0452,4.0452,0,0,1-.69628.4375,3.107,3.107,0,0,1-.7461.25586,4.11043,4.11043,0,0,1-.83594.08008,2.78285,2.78285,0,0,1-1.09179-.20313,2.257,2.257,0,0,1-.82032-.57715,2.60821,2.60821,0,0,1-.51757-.90625,3.66606,3.66606,0,0,1-.18164-1.19043,5.26654,5.26654,0,0,1,.11523-1.08789,5.13642,5.13642,0,0,1,.33594-1.0332,4.65916,4.65916,0,0,1,.53906-.90918,3.63156,3.63156,0,0,1,.72852-.72461,3.40248,3.40248,0,0,1,.90234-.47949,3.13867,3.13867,0,0,1,1.06055-.17578,2.55008,2.55008,0,0,1,.93164.15429,1.973,1.973,0,0,1,.64355.39258,1.55179,1.55179,0,0,1,.374.52442A1.38919,1.38919,0,0,1,172.48242,75.42773Zm-2.14258-.7207a1.82182,1.82182,0,0,0-.81152.18164,2.156,2.156,0,0,0-.65723.501,3.03026,3.03026,0,0,0-.49023.749,4.47064,4.47064,0,0,0-.31543.92774,13.65657,13.65657,0,0,0,1.72949-.30469,4.28515,4.28515,0,0,0,1-.3711,1.08138,1.08138,0,0,0,.46289-.43066,1.102,1.102,0,0,0,.11133-.4834.68974.68974,0,0,0-.05566-.26172.69813.69813,0,0,0-.17871-.249.97824.97824,0,0,0-.31836-.18555A1.366,1.366,0,0,0,170.33984,74.707Z" style="fill:blue"/><path d="M177.83008,75.043a.44536.44536,0,0,1-.11133.12207.23671.23671,0,0,1-.14063.03906.38772.38772,0,0,1-.21289-.07715c-.07714-.05078-.16992-.1084-.28027-.17187a2.32442,2.32442,0,0,0-.40234-.17481,2.01307,2.01307,0,0,0-1.14746.00684,1.435,1.435,0,0,0-.44922.24219,1.078,1.078,0,0,0-.29.36035.982.982,0,0,0-.10156.4375.66747.66747,0,0,0,.21777.52441,1.99721,1.99721,0,0,0,.54492.33985c.21973.0957.457.18847.71094.27636a3.68424,3.68424,0,0,1,.71094.33594,1.81705,1.81705,0,0,1,.54492.51856,1.40674,1.40674,0,0,1,.21777.81835,2.35748,2.35748,0,0,1-.74512,1.72559,2.73016,2.73016,0,0,1-.86914.543,3.045,3.045,0,0,1-1.13672.20312,2.82751,2.82751,0,0,1-1.20117-.24218,2.47942,2.47942,0,0,1-.84961-.61914l.30762-.47559a.43123.43123,0,0,1,.13379-.14062.35727.35727,0,0,1,.19531-.04883.34942.34942,0,0,1,.22461.09765c.07422.06543.168.13965.2793.22071a1.72252,1.72252,0,0,0,1.07129.31836,1.72644,1.72644,0,0,0,.61914-.1045,1.46129,1.46129,0,0,0,.46972-.28027,1.17733,1.17733,0,0,0,.293-.40918,1.23537,1.23537,0,0,0,.10157-.501.752.752,0,0,0-.2168-.5664,1.76373,1.76373,0,0,0-.5459-.35059q-.3296-.13916-.707-.26269a3.57918,3.57918,0,0,1-.707-.31446,1.7084,1.7084,0,0,1-.5459-.501,1.39293,1.39293,0,0,1-.2168-.81836,2.19194,2.19194,0,0,1,.17774-.86524,2.2339,2.2339,0,0,1,.51562-.73828,2.538,2.538,0,0,1,.81446-.51465,2.8947,2.8947,0,0,1,1.082-.19238,2.76579,2.76579,0,0,1,1.123.21387,2.604,2.604,0,0,1,.83692.57715Z" style="fill:blue"/></g><g style="isolation:isolate"><path d="M135.043,63.39062a3.2196,3.2196,0,0,1-.6543.42383,2.6367,2.6367,0,0,1-.68164.22071,4.34294,4.34294,0,0,1-.75976.0625,2.64824,2.64824,0,0,1-1.08887-.21,2.14562,2.14562,0,0,1-.791-.59082,2.63415,2.63415,0,0,1-.4834-.917,4.01489,4.01489,0,0,1-.16406-1.17968,5.08787,5.08787,0,0,1,.26953-1.65235,4.6419,4.6419,0,0,1,.752-1.39941,3.76556,3.76556,0,0,1,1.14843-.97364,3.004,3.004,0,0,1,1.46289-.36425,2.51171,2.51171,0,0,1,1.17579.249,2.46913,2.46913,0,0,1,.834.72461l-.39258.46875a.31789.31789,0,0,1-.10547.09082.27723.27723,0,0,1-.13965.03516.2823.2823,0,0,1-.19238-.08789,2.64578,2.64578,0,0,0-.24512-.19532,1.67875,1.67875,0,0,0-.37792-.19629,1.63814,1.63814,0,0,0-.584-.08789,1.72962,1.72962,0,0,0-.91406.2627,2.54143,2.54143,0,0,0-.752.71777,3.64712,3.64712,0,0,0-.50782,1.07813A4.686,4.686,0,0,0,131.666,61.207a2.97913,2.97913,0,0,0,.09765.78711,1.68716,1.68716,0,0,0,.29492.60254,1.347,1.347,0,0,0,.47852.38477,1.51561,1.51561,0,0,0,.66211.13671,2.15591,2.15591,0,0,0,.55957-.0664,2.2525,2.2525,0,0,0,.43457-.165,2.02158,2.02158,0,0,0,.332-.21289c.0957-.07715.18164-.14844.25977-.21387.07617-.06543.14648-.12012.209-.16406a.3297.3297,0,0,1,.19336-.06738.29856.29856,0,0,1,.2373.11914l.30762.37793A6.39422,6.39422,0,0,1,135.043,63.39062Z" style="fill:blue"/><path d="M139.08594,64.09766a2.77,2.77,0,0,1-1.06446-.19922,2.329,2.329,0,0,1-.832-.57715,2.66022,2.66022,0,0,1-.54687-.92383,3.67209,3.67209,0,0,1-.19531-1.24609,5.04818,5.04818,0,0,1,.27929-1.6875,4.582,4.582,0,0,1,.76758-1.38575,3.64894,3.64894,0,0,1,1.14746-.93847,3.06336,3.06336,0,0,1,1.43164-.34277,2.76145,2.76145,0,0,1,1.06348.19921,2.35974,2.35974,0,0,1,.834.57813,2.66853,2.66853,0,0,1,.54492.92773,3.67613,3.67613,0,0,1,.19629,1.24219,4.97475,4.97475,0,0,1-.28027,1.67969,4.57771,4.57771,0,0,1-.76562,1.38574,3.66007,3.66007,0,0,1-1.15235.94238A3.04952,3.04952,0,0,1,139.08594,64.09766Zm.1123-.97266a1.64066,1.64066,0,0,0,.93067-.28027,2.45,2.45,0,0,0,.71386-.74512,3.83754,3.83754,0,0,0,.45508-1.07422A4.96506,4.96506,0,0,0,141.459,59.751a2.38861,2.38861,0,0,0-.38476-1.47657,1.32221,1.32221,0,0,0-1.11328-.49707,1.65109,1.65109,0,0,0-.93457.27637,2.42836,2.42836,0,0,0-.71.74219,3.813,3.813,0,0,0-.45508,1.07422,4.963,4.963,0,0,0-.16113,1.27343A2.41053,2.41053,0,0,0,138.082,62.624,1.31555,1.31555,0,0,0,139.19824,63.125Z" style="fill:blue"/><path d="M143.71289,64l1.25293-10.31055h1.22559L144.9375,64Z" style="fill:blue"/><path d="M149.44531,64.09766a2.7699,2.7699,0,0,1-1.06445-.19922,2.32886,2.32886,0,0,1-.832-.57715,2.66009,2.66009,0,0,1-.54688-.92383,3.67209,3.67209,0,0,1-.19531-1.24609,5.04793,5.04793,0,0,1,.2793-1.6875,4.58174,4.58174,0,0,1,.76758-1.38575,3.64883,3.64883,0,0,1,1.14746-.93847,3.06336,3.06336,0,0,1,1.43164-.34277,2.7614,2.7614,0,0,1,1.06347.19921,2.35978,2.35978,0,0,1,.834.57813,2.66869,2.66869,0,0,1,.54492.92773,3.67613,3.67613,0,0,1,.19629,1.24219,4.97475,4.97475,0,0,1-.28027,1.67969,4.57773,4.57773,0,0,1-.76563,1.38574,3.66,3.66,0,0,1-1.15234.94238A3.04956,3.04956,0,0,1,149.44531,64.09766Zm.11231-.97266a1.64063,1.64063,0,0,0,.93066-.28027,2.45,2.45,0,0,0,.71387-.74512,3.83783,3.83783,0,0,0,.45508-1.07422,4.96506,4.96506,0,0,0,.16113-1.27441,2.38861,2.38861,0,0,0-.38477-1.47657,1.32219,1.32219,0,0,0-1.11328-.49707,1.65111,1.65111,0,0,0-.93457.27637,2.42847,2.42847,0,0,0-.71.74219,3.813,3.813,0,0,0-.45508,1.07422,4.963,4.963,0,0,0-.16113,1.27343,2.41046,2.41046,0,0,0,.38184,1.48047A1.31553,1.31553,0,0,0,149.55762,63.125Z" style="fill:blue"/><path d="M153.95312,64l.85352-7.09766h.62305a.47626.47626,0,0,1,.30859.09082.341.341,0,0,1,.11133.28028c0,.01855-.001.04492-.00293.08008-.00293.03515-.00488.07128-.00684.10839-.00293.03711-.00488.07032-.00781.09766l-.00293.04981-.09863,1.28808A4.89529,4.89529,0,0,1,156.75,57.38477a1.71432,1.71432,0,0,1,1.18555-.53223,1.4784,1.4784,0,0,1,.58789.126l-.22266,1.19726a1.72,1.72,0,0,0-.63769-.13281,1.53927,1.53927,0,0,0-1.21094.66113A5.49668,5.49668,0,0,0,155.5625,60.71L155.1709,64Z" style="fill:blue"/><path d="M162.18555,62.66309c0-.02832.001-.06446.0039-.1084.002-.04492.00586-.1084.01367-.19239.00684-.084.01758-.19433.03126-.3291.01367-.13574.03515-.3125.0625-.53222l.4414-3.54883h-.791a.21736.21736,0,0,1-.15039-.05274.207.207,0,0,1-.05958-.16406c0-.01465.00293-.042.00684-.084q.00732-.063.01758-.14356c.00683-.05371.01367-.1084.02148-.165q.00879-.08349.01758-.16113l1.0918-.14648.52539-2.19141a.3233.3233,0,0,1,.10449-.1709.27634.27634,0,0,1,.18848-.0664h.6582l-.30859,2.44238h1.86328l-.10547.90332h-1.86914l-.42676,3.48633c-.02344.1914-.041.34472-.05273.46191-.01172.11621-.02051.21-.02832.2793-.00684.07031-.01172.11914-.01368.14746s-.0039.04883-.0039.0625a.738.738,0,0,0,.165.5293.59472.59472,0,0,0,.45117.17089.90632.90632,0,0,0,.32226-.05273,1.32348,1.32348,0,0,0,.24122-.11523c.06836-.042.125-.08008.17187-.11524a.21665.21665,0,0,1,.126-.05273.12571.12571,0,0,1,.08691.02832.34018.34018,0,0,1,.06641.09082l.25976.59472a2.53754,2.53754,0,0,1-.77343.47266,2.39662,2.39662,0,0,1-.87891.17187,1.49251,1.49251,0,0,1-1.07031-.37109A1.452,1.452,0,0,1,162.18555,62.66309Z" style="fill:blue"/><path d="M166.41992,64l1.2461-10.31055h1.24609l-.58106,4.78711a4.19013,4.19013,0,0,1,1.22852-1.249,2.57435,2.57435,0,0,1,1.38281-.42383,1.51032,1.51032,0,0,1,1.23926.53223,2.39727,2.39727,0,0,1,.43359,1.54687c0,.09375-.00195.19043-.00683.291-.00488.09961-.01465.2041-.02832.31152L172.04883,64h-1.2461l.53125-4.51465c.00977-.09375.01758-.18359.0254-.26953.00585-.08691.00976-.16894.00976-.249a1.40619,1.40619,0,0,0-.21289-.85352.797.797,0,0,0-.67578-.28027,1.41348,1.41348,0,0,0-.64844.17187,2.62241,2.62241,0,0,0-.64648.48633,4.03633,4.03633,0,0,0-.58789.75977,5.54193,5.54193,0,0,0-.47657.99023L167.666,64Z" style="fill:blue"/><path d="M178.999,64h-.64355a.37958.37958,0,0,1-.333-.126.53087.53087,0,0,1-.08691-.30761l.125-1.4209a5.88139,5.88139,0,0,1-.542.80566,3.78077,3.78077,0,0,1-.61621.61524,2.7183,2.7183,0,0,1-.68164.39257,2.03,2.03,0,0,1-.74218.13868,1.74718,1.74718,0,0,1-.76368-.16407,1.57617,1.57617,0,0,1-.584-.48339,2.35219,2.35219,0,0,1-.375-.78418,3.91953,3.91953,0,0,1-.13281-1.06739,4.7896,4.7896,0,0,1,.1582-1.22851,5.00032,5.00032,0,0,1,.44727-1.12989,4.93462,4.93462,0,0,1,.69726-.97656,4.64311,4.64311,0,0,1,.90625-.77051,4.30407,4.30407,0,0,1,1.07422-.5039,4.02389,4.02389,0,0,1,1.2041-.17871,5.171,5.171,0,0,1,.88574.07519,3.59888,3.59888,0,0,1,.84961.25781Zm-3.05175-.93848a1.22867,1.22867,0,0,0,.67187-.21,2.5742,2.5742,0,0,0,.62305-.582,5.06593,5.06593,0,0,0,.54883-.88574,7.934,7.934,0,0,0,.45214-1.126l.30079-2.39843a.48516.48516,0,0,0-.30372-.124h-.29882a2.45763,2.45763,0,0,0-.81153.13574,2.909,2.909,0,0,0-.73535.38086,3.30871,3.30871,0,0,0-.62305.583,3.8354,3.8354,0,0,0-.47851.74316,4.251,4.251,0,0,0-.3125.86231,3.955,3.955,0,0,0-.11133.93848Q174.86914,63.062,175.94727,63.06152Z" style="fill:blue"/><path d="M181.46973,62.66309c0-.02832.001-.06446.0039-.1084.002-.04492.00684-.1084.01367-.19239s.01758-.19433.03223-.3291c.01367-.13574.03418-.3125.0625-.53222l.44141-3.54883h-.791a.21738.21738,0,0,1-.15039-.05274.20414.20414,0,0,1-.06055-.16406c0-.01465.00293-.042.00782-.084q.00585-.063.01758-.14356c.00585-.05371.01367-.1084.0205-.165q.01026-.08349.01758-.16113l1.0918-.14648.52539-2.19141a.33582.33582,0,0,1,.10449-.1709.27885.27885,0,0,1,.18945-.0664h.65821l-.3086,2.44238H185.208l-.10449.90332h-1.86914l-.42774,3.48633c-.02344.1914-.041.34472-.05273.46191-.01172.11621-.02051.21-.02735.2793-.00781.07031-.01172.11914-.01367.14746-.00293.02832-.00391.04883-.00391.0625a.74228.74228,0,0,0,.16407.5293.59472.59472,0,0,0,.45117.17089.90632.90632,0,0,0,.32226-.05273,1.3344,1.3344,0,0,0,.24219-.11523c.06738-.042.125-.08008.17188-.11524a.21423.21423,0,0,1,.125-.05273.13012.13012,0,0,1,.08789.02832.34018.34018,0,0,1,.0664.09082l.25977.59472a2.53061,2.53061,0,0,1-.77441.47266,2.39548,2.39548,0,0,1-.87793.17187,1.495,1.495,0,0,1-1.07129-.37109A1.45575,1.45575,0,0,1,181.46973,62.66309Z" style="fill:blue"/></g><g style="isolation:isolate"><path d="M134.75293,45.98535a3.954,3.954,0,0,0,.81934-.07715,3.7437,3.7437,0,0,0,.62988-.18945,2.35447,2.35447,0,0,0,.46582-.248q.19189-.13623.33594-.249c.0957-.07422.17578-.1377.24121-.18848a.29646.29646,0,0,1,.1748-.07715.20564.20564,0,0,1,.10547.02442.27758.27758,0,0,1,.07031.05957l.4541.56738a4.51731,4.51731,0,0,1-3.51367,1.50488,3.87441,3.87441,0,0,1-1.61035-.32226,3.40823,3.40823,0,0,1-1.207-.89942,4.01955,4.01955,0,0,1-.75586-1.376,5.56869,5.56869,0,0,1-.26269-1.75684,6.80957,6.80957,0,0,1,.40527-2.39355,5.72547,5.72547,0,0,1,1.11719-1.86621,4.97707,4.97707,0,0,1,3.73437-1.64063,4.72671,4.72671,0,0,1,.96582.09082,3.34727,3.34727,0,0,1,.791.26563,3.16427,3.16427,0,0,1,.64746.41992,4.55189,4.55189,0,0,1,.543.5459l-.44825.5459a.54251.54251,0,0,1-.126.11621.31775.31775,0,0,1-.17578.04492.39139.39139,0,0,1-.26563-.13965,2.68939,2.68939,0,0,0-.38086-.30469,2.70284,2.70284,0,0,0-1.61328-.44433,3.58934,3.58934,0,0,0-1.51953.32519,3.54213,3.54213,0,0,0-1.22461.93164,4.489,4.489,0,0,0-.81641,1.46582,5.92566,5.92566,0,0,0-.29687,1.93262,4.4252,4.4252,0,0,0,.20312,1.39258,3.11381,3.11381,0,0,0,.56348,1.04687,2.46275,2.46275,0,0,0,.85742.66114A2.55366,2.55366,0,0,0,134.75293,45.98535Z" style="fill:blue"/><path d="M139.19141,47l1.24511-10.31055h1.2461l-.58106,4.78711a4.20142,4.20142,0,0,1,1.22852-1.249,2.57432,2.57432,0,0,1,1.38281-.42383,1.50576,1.50576,0,0,1,1.23828.53223,2.3915,2.3915,0,0,1,.43457,1.54687c0,.09375-.00293.19043-.00683.291-.00489.09961-.01368.2041-.02832.31152L144.81836,47h-1.24609l.53222-4.51465c.00879-.09375.01758-.18359.02442-.26953.00781-.08691.01074-.16894.01074-.249a1.399,1.399,0,0,0-.21387-.85352A.79583.79583,0,0,0,143.25,40.833a1.406,1.406,0,0,0-.64648.17187,2.63039,2.63039,0,0,0-.64844.48633,4.16086,4.16086,0,0,0-.58789.75977,5.67649,5.67649,0,0,0-.47559.99023L140.43652,47Z" style="fill:blue"/><path d="M149.082,47.09766a2.7664,2.7664,0,0,1-1.06445-.19922,2.33256,2.33256,0,0,1-.833-.57715,2.67334,2.67334,0,0,1-.5459-.92383,3.67144,3.67144,0,0,1-.19629-1.24609,5.02373,5.02373,0,0,1,.28028-1.6875,4.55874,4.55874,0,0,1,.7666-1.38575,3.64894,3.64894,0,0,1,1.14746-.93847,3.06619,3.06619,0,0,1,1.43164-.34277,2.7664,2.7664,0,0,1,1.06445.19921,2.34733,2.34733,0,0,1,.833.57813,2.65548,2.65548,0,0,1,.5459.92773,3.67665,3.67665,0,0,1,.19531,1.24219,4.99836,4.99836,0,0,1-.2793,1.67969,4.60068,4.60068,0,0,1-.7666,1.38574,3.65654,3.65654,0,0,1-1.15136.94238A3.05242,3.05242,0,0,1,149.082,47.09766Zm.11133-.97266a1.646,1.646,0,0,0,.93164-.28027,2.44707,2.44707,0,0,0,.71289-.74512,3.809,3.809,0,0,0,.45508-1.07422,4.96523,4.96523,0,0,0,.16211-1.27441,2.38861,2.38861,0,0,0-.38477-1.47657,1.32466,1.32466,0,0,0-1.11328-.49707,1.65425,1.65425,0,0,0-.93555.27637,2.44,2.44,0,0,0-.71.74219,3.813,3.813,0,0,0-.45507,1.07422,4.96256,4.96256,0,0,0-.16114,1.27343,2.41053,2.41053,0,0,0,.38184,1.48047A1.31675,1.31675,0,0,0,149.19336,46.125Z" style="fill:blue"/><path d="M156.11621,47.09766a2.76149,2.76149,0,0,1-1.06348-.19922,2.34484,2.34484,0,0,1-.834-.57715,2.67149,2.67149,0,0,1-.54492-.92383,3.67081,3.67081,0,0,1-.19727-1.24609,5,5,0,0,1,.28125-1.6875,4.55688,4.55688,0,0,1,.76563-1.38575,3.64165,3.64165,0,0,1,1.14844-.93847,3.06617,3.06617,0,0,1,1.43164-.34277,2.77,2.77,0,0,1,1.06445.19921,2.3436,2.3436,0,0,1,.832.57813,2.65727,2.65727,0,0,1,.54688.92773,3.70112,3.70112,0,0,1,.19531,1.24219,5.02293,5.02293,0,0,1-.2793,1.67969,4.60278,4.60278,0,0,1-.76758,1.38574,3.65287,3.65287,0,0,1-1.15039.94238A3.05343,3.05343,0,0,1,156.11621,47.09766Zm.11231-.97266a1.64515,1.64515,0,0,0,.93066-.28027,2.43868,2.43868,0,0,0,.71387-.74512,3.83753,3.83753,0,0,0,.45507-1.07422,4.96462,4.96462,0,0,0,.16114-1.27441,2.38217,2.38217,0,0,0-.38477-1.47657,1.32219,1.32219,0,0,0-1.11328-.49707,1.65109,1.65109,0,0,0-.93457.27637,2.45435,2.45435,0,0,0-.71094.74219,3.84187,3.84187,0,0,0-.45508,1.07422,4.9628,4.9628,0,0,0-.16015,1.27343,2.41731,2.41731,0,0,0,.38086,1.48047A1.31863,1.31863,0,0,0,156.22852,46.125Z" style="fill:blue"/><path d="M165.1875,41.043a.44536.44536,0,0,1-.11133.12207.2367.2367,0,0,1-.14062.03906.38767.38767,0,0,1-.21289-.07715c-.07715-.05078-.16993-.1084-.28028-.17187a2.32442,2.32442,0,0,0-.40234-.17481,2.01307,2.01307,0,0,0-1.14746.00684,1.435,1.435,0,0,0-.44922.24219,1.078,1.078,0,0,0-.29.36035.982.982,0,0,0-.10156.4375.66747.66747,0,0,0,.21777.52441,1.99721,1.99721,0,0,0,.54492.33985c.21973.0957.457.18847.71094.27636a3.68424,3.68424,0,0,1,.71094.33594,1.81705,1.81705,0,0,1,.54492.51856,1.40674,1.40674,0,0,1,.21777.81835,2.35752,2.35752,0,0,1-.74511,1.72559,2.73038,2.73038,0,0,1-.86914.543,3.04506,3.04506,0,0,1-1.13672.20312,2.82744,2.82744,0,0,1-1.20117-.24218,2.47933,2.47933,0,0,1-.84961-.61914l.30761-.47559a.43123.43123,0,0,1,.13379-.14062.35729.35729,0,0,1,.19531-.04883.34942.34942,0,0,1,.22461.09765c.07422.06543.168.13965.2793.22071a1.72252,1.72252,0,0,0,1.07129.31836,1.7264,1.7264,0,0,0,.61914-.1045,1.46145,1.46145,0,0,0,.46973-.28027,1.17746,1.17746,0,0,0,.293-.40918,1.23536,1.23536,0,0,0,.10156-.501.752.752,0,0,0-.2168-.5664,1.76373,1.76373,0,0,0-.5459-.35059q-.32958-.13916-.707-.26269a3.57944,3.57944,0,0,1-.707-.31446,1.7084,1.7084,0,0,1-.5459-.501,1.39293,1.39293,0,0,1-.2168-.81836,2.19211,2.19211,0,0,1,.17774-.86524,2.234,2.234,0,0,1,.51562-.73828,2.538,2.538,0,0,1,.81446-.51465,2.8947,2.8947,0,0,1,1.082-.19238,2.76588,2.76588,0,0,1,1.12305.21387,2.60409,2.60409,0,0,1,.83691.57715Z" style="fill:blue"/><path d="M171.74023,41.42773a1.9164,1.9164,0,0,1-.18945.85059,1.77287,1.77287,0,0,1-.69336.7002,5.1687,5.1687,0,0,1-1.38574.543,15.29734,15.29734,0,0,1-2.26856.37012c-.0039.05176-.00585.10156-.00585.15137v.15039a2.18971,2.18971,0,0,0,.40918,1.43066,1.512,1.512,0,0,0,1.23535.49414,2.31539,2.31539,0,0,0,.59863-.07031,2.59562,2.59562,0,0,0,.46875-.1709,2.14007,2.14007,0,0,0,.36426-.22461c.10547-.08105.20117-.15625.291-.22363.08789-.06738.16993-.125.24414-.17187a.41783.41783,0,0,1,.22461-.07032.30616.30616,0,0,1,.23047.11914l.3086.38575a6.47269,6.47269,0,0,1-.69727.63281,4.04528,4.04528,0,0,1-.69629.4375,3.09963,3.09963,0,0,1-.74512.25586,4.127,4.127,0,0,1-.83691.08008,2.78633,2.78633,0,0,1-1.0918-.20313,2.25336,2.25336,0,0,1-.81933-.57715,2.59274,2.59274,0,0,1-.51758-.90625,3.66632,3.66632,0,0,1-.18164-1.19043,5.20018,5.20018,0,0,1,.11523-1.08789,5.01606,5.01606,0,0,1,.33594-1.0332,4.611,4.611,0,0,1,.53906-.90918,3.62722,3.62722,0,0,1,.72754-.72461,3.39347,3.39347,0,0,1,.90332-.47949,3.13054,3.13054,0,0,1,1.06055-.17578,2.541,2.541,0,0,1,.93066.15429,1.973,1.973,0,0,1,.64356.39258,1.56846,1.56846,0,0,1,.375.52442A1.38919,1.38919,0,0,1,171.74023,41.42773Zm-2.14257-.7207a1.826,1.826,0,0,0-.8125.18164,2.16772,2.16772,0,0,0-.65723.501,3.0579,3.0579,0,0,0-.49023.749,4.47,4.47,0,0,0-.31543.92774,13.65657,13.65657,0,0,0,1.72949-.30469,4.29533,4.29533,0,0,0,1.001-.3711.967.967,0,0,0,.57422-.91406.71021.71021,0,0,0-.23437-.51074.97814.97814,0,0,0-.31836-.18555A1.36975,1.36975,0,0,0,169.59766,40.707Z" style="fill:blue"/><path d="M175.8418,45.66309c0-.02832.001-.06446.0039-.1084.002-.04492.00586-.1084.01368-.19239.00683-.084.01757-.19433.03124-.3291.01368-.13574.03516-.3125.0625-.53222l.44141-3.54883h-.791a.2174.2174,0,0,1-.1504-.05274.207.207,0,0,1-.05957-.16406c0-.01465.00293-.042.00684-.084q.00732-.063.01758-.14356c.00683-.05371.01367-.1084.02148-.165q.00879-.08349.01758-.16113l1.0918-.14648.52539-2.19141a.3233.3233,0,0,1,.10449-.1709.27634.27634,0,0,1,.18848-.0664h.6582l-.30859,2.44238h1.86328l-.10547.90332h-1.86914l-.42676,3.48633c-.02344.1914-.041.34472-.05273.46191-.01172.11621-.02051.21-.02832.2793-.00684.07031-.01172.11914-.01368.14746s-.0039.04883-.0039.0625a.738.738,0,0,0,.165.5293.59472.59472,0,0,0,.45117.17089.90632.90632,0,0,0,.32226-.05273,1.32348,1.32348,0,0,0,.24122-.11523c.06835-.042.125-.08008.17187-.11524a.21665.21665,0,0,1,.126-.05273.12571.12571,0,0,1,.08691.02832.34018.34018,0,0,1,.06641.09082l.25976.59472a2.53754,2.53754,0,0,1-.77343.47266,2.39662,2.39662,0,0,1-.87891.17187,1.49251,1.49251,0,0,1-1.07031-.37109A1.452,1.452,0,0,1,175.8418,45.66309Z" style="fill:blue"/><path d="M180.07617,47l1.2461-10.31055h1.24609l-.58106,4.78711a4.19,4.19,0,0,1,1.22852-1.249,2.57435,2.57435,0,0,1,1.38281-.42383,1.51032,1.51032,0,0,1,1.23926.53223,2.39727,2.39727,0,0,1,.43359,1.54687c0,.09375-.00195.19043-.00683.291-.00488.09961-.01465.2041-.02832.31152L185.70508,47H184.459l.53125-4.51465c.00977-.09375.01758-.18359.02539-.26953.00586-.08691.00977-.16894.00977-.249a1.40619,1.40619,0,0,0-.21289-.85352.797.797,0,0,0-.67578-.28027,1.41348,1.41348,0,0,0-.64844.17187,2.62241,2.62241,0,0,0-.64648.48633,4.03633,4.03633,0,0,0-.58789.75977,5.54193,5.54193,0,0,0-.47657.99023L181.32227,47Z" style="fill:blue"/><path d="M193.11035,41.42773a1.92922,1.92922,0,0,1-.18847.85059,1.77953,1.77953,0,0,1-.69336.7002,5.17692,5.17692,0,0,1-1.38672.543,15.30353,15.30353,0,0,1-2.26758.37012c-.00391.05176-.00684.10156-.00684.15137v.15039a2.18976,2.18976,0,0,0,.40918,1.43066,1.51544,1.51544,0,0,0,1.23633.49414,2.313,2.313,0,0,0,.59766-.07031,2.54191,2.54191,0,0,0,.46875-.1709,2.11247,2.11247,0,0,0,.36523-.22461c.10449-.08105.20117-.15625.29-.22363s.16992-.125.24512-.17187a.41469.41469,0,0,1,.22363-.07032.308.308,0,0,1,.23145.11914l.30761.38575a6.37491,6.37491,0,0,1-.69629.63281,4.05239,4.05239,0,0,1-.69726.4375,3.09978,3.09978,0,0,1-.74512.25586,4.12022,4.12022,0,0,1-.83691.08008,2.78972,2.78972,0,0,1-1.0918-.20313,2.24142,2.24142,0,0,1-.81836-.57715,2.5779,2.5779,0,0,1-.51758-.90625,3.63961,3.63961,0,0,1-.18261-1.19043,5.20018,5.20018,0,0,1,.11523-1.08789,5.07583,5.07583,0,0,1,.33594-1.0332,4.70833,4.70833,0,0,1,.53906-.90918,3.627,3.627,0,0,1,.72754-.72461,3.39932,3.39932,0,0,1,.9043-.47949,3.13048,3.13048,0,0,1,1.06054-.17578,2.53915,2.53915,0,0,1,.92969.15429,1.96769,1.96769,0,0,1,.64453.39258,1.56846,1.56846,0,0,1,.375.52442A1.40426,1.40426,0,0,1,193.11035,41.42773Zm-2.1416-.7207a1.823,1.823,0,0,0-.8125.18164,2.17158,2.17158,0,0,0-.6582.501,3.05793,3.05793,0,0,0-.49024.749,4.4697,4.4697,0,0,0-.31445.92774,13.60462,13.60462,0,0,0,1.72852-.30469,4.32326,4.32326,0,0,0,1.002-.3711.97133.97133,0,0,0,.57422-.91406.70646.70646,0,0,0-.23535-.51074.968.968,0,0,0-.31836-.18555A1.36778,1.36778,0,0,0,190.96875,40.707Z" style="fill:blue"/></g></svg>